<svg width="1440" height="952" viewBox="0 0 1440 952" fill="none" xmlns="http://www.w3.org/2000/svg">
<g filter="url(#filter0_d)">
<path d="M-532.499 478.375C-520.149 404.067 -455.708 361.504 -397.93 366.011C-340.153 370.518 -287.816 410.119 -237.732 448.304C-187.649 486.488 -134.821 525.574 -77.0442 528.278C-11.9651 531.627 48.8994 489.192 112.508 471.034C313.185 413.918 528.22 599.431 720.761 505.805C821.173 456.997 892.28 341.8 964.954 238.387C1037.63 134.973 1126.03 32.9768 1232.96 26.3445C1357.68 18.6174 1472.06 143.666 1596.34 128.148C1664.95 119.584 1726.45 69.0363 1794.37 56.1579C1908.89 34.3935 2016.9 120.55 2118.59 193.055C2220.27 265.56 2344.3 327.827 2448 260.473V1049.34H-562L-532.499 478.375Z" fill="white"/>
</g>
<defs>
<filter id="filter0_d" x="-592" y="0.00012207" width="3070" height="1083.34" filterUnits="userSpaceOnUse" color-interpolation-filters="sRGB">
<feFlood flood-opacity="0" result="BackgroundImageFix"/>
<feColorMatrix in="SourceAlpha" type="matrix" values="0 0 0 0 0 0 0 0 0 0 0 0 0 0 0 0 0 0 127 0"/>
<feOffset dy="4"/>
<feGaussianBlur stdDeviation="15"/>
<feColorMatrix type="matrix" values="0 0 0 0 0.258824 0 0 0 0 0.258824 0 0 0 0 0.258824 0 0 0 0.1 0"/>
<feBlend mode="normal" in2="BackgroundImageFix" result="effect1_dropShadow"/>
<feBlend mode="normal" in="SourceGraphic" in2="effect1_dropShadow" result="shape"/>
</filter>
</defs>
</svg>
