<svg width="1440" height="585" viewBox="0 0 1440 585" fill="none" xmlns="http://www.w3.org/2000/svg">
<g filter="url(#filter0_d)">
<path d="M1644.52 264.546C1636.78 311.6 1596.4 338.552 1560.2 335.697C1524 332.843 1491.2 307.767 1459.82 283.588C1428.44 259.409 1395.34 234.659 1359.14 232.946C1318.36 230.826 1280.22 257.696 1240.37 269.194C1114.63 305.361 979.892 187.89 859.25 247.176C796.334 278.083 751.78 351.028 706.244 416.512C660.707 481.996 605.315 546.582 538.315 550.782C460.169 555.675 388.502 476.491 310.633 486.318C267.645 491.741 229.109 523.749 186.551 531.903C114.792 545.685 47.1172 491.129 -16.5969 445.217C-80.311 399.305 -158.027 359.876 -223 402.526V-97H1663L1644.52 264.546Z" fill="white"/>
</g>
<defs>
<filter id="filter0_d" x="-253" y="-123" width="1946" height="708" filterUnits="userSpaceOnUse" color-interpolation-filters="sRGB">
<feFlood flood-opacity="0" result="BackgroundImageFix"/>
<feColorMatrix in="SourceAlpha" type="matrix" values="0 0 0 0 0 0 0 0 0 0 0 0 0 0 0 0 0 0 127 0"/>
<feOffset dy="4"/>
<feGaussianBlur stdDeviation="15"/>
<feColorMatrix type="matrix" values="0 0 0 0 0.258824 0 0 0 0 0.258824 0 0 0 0 0.258824 0 0 0 0.1 0"/>
<feBlend mode="normal" in2="BackgroundImageFix" result="effect1_dropShadow"/>
<feBlend mode="normal" in="SourceGraphic" in2="effect1_dropShadow" result="shape"/>
</filter>
</defs>
</svg>
