<svg width="1440" height="845" viewBox="0 0 1440 845" fill="none" xmlns="http://www.w3.org/2000/svg">
<g filter="url(#filter0_d)">
<path d="M1609 95.6792C1600.64 81.9338 1557.01 74.0607 1517.89 74.8944C1478.77 75.7282 1443.33 83.0535 1409.42 90.1168C1375.51 97.18 1339.75 104.41 1300.63 104.91C1256.56 105.53 1215.35 97.6803 1172.29 94.3214C1036.41 83.7563 890.822 118.072 760.458 100.753C692.472 91.7248 644.328 70.4159 595.123 51.2867C545.917 32.1577 486.06 13.2905 413.662 12.0637C329.219 10.6344 251.777 33.7656 167.633 30.8951C121.181 29.3109 79.5405 19.9608 33.5532 17.5786C-43.9882 13.5526 -117.117 29.4896 -185.965 42.9014C-254.813 56.3132 -338.791 67.8312 -409 55.3723V845H1609V95.6792Z" fill="white"/>
</g>
<defs>
<filter id="filter0_d" x="-439" y="-14" width="2078" height="893" filterUnits="userSpaceOnUse" color-interpolation-filters="sRGB">
<feFlood flood-opacity="0" result="BackgroundImageFix"/>
<feColorMatrix in="SourceAlpha" type="matrix" values="0 0 0 0 0 0 0 0 0 0 0 0 0 0 0 0 0 0 127 0"/>
<feOffset dy="4"/>
<feGaussianBlur stdDeviation="15"/>
<feColorMatrix type="matrix" values="0 0 0 0 0.258824 0 0 0 0 0.258824 0 0 0 0 0.258824 0 0 0 0.1 0"/>
<feBlend mode="normal" in2="BackgroundImageFix" result="effect1_dropShadow"/>
<feBlend mode="normal" in="SourceGraphic" in2="effect1_dropShadow" result="shape"/>
</filter>
</defs>
</svg>
