<svg width="1440" height="520" viewBox="0 0 1440 520" fill="none" xmlns="http://www.w3.org/2000/svg">
<g filter="url(#filter0_d)">
<path d="M-27 423.724C14.8805 396.458 63.1264 409.449 106.497 430.671C149.868 451.893 192.38 481.034 237.847 485.411C333.152 494.58 421.51 393.61 516.966 398.994C566.601 401.807 615.15 433.519 664.533 425.113C728.339 414.276 778.782 339.808 822.128 267.145C865.473 194.482 910.966 115.637 973.079 90.6986C1066.69 53.1169 1159.75 150.336 1255.99 164.473C1304.79 171.628 1354.5 157.179 1402.85 168.745C1451.19 180.311 1501.99 230.119 1506.41 305.039H1554V-326H-12.8293L-27 423.724Z" fill="white"/>
</g>
<defs>
<filter id="filter0_d" x="-57" y="-352" width="1641" height="872" filterUnits="userSpaceOnUse" color-interpolation-filters="sRGB">
<feFlood flood-opacity="0" result="BackgroundImageFix"/>
<feColorMatrix in="SourceAlpha" type="matrix" values="0 0 0 0 0 0 0 0 0 0 0 0 0 0 0 0 0 0 127 0"/>
<feOffset dy="4"/>
<feGaussianBlur stdDeviation="15"/>
<feColorMatrix type="matrix" values="0 0 0 0 0.258824 0 0 0 0 0.258824 0 0 0 0 0.258824 0 0 0 0.1 0"/>
<feBlend mode="normal" in2="BackgroundImageFix" result="effect1_dropShadow"/>
<feBlend mode="normal" in="SourceGraphic" in2="effect1_dropShadow" result="shape"/>
</filter>
</defs>
</svg>
