<svg width="21" height="35" viewBox="0 0 21 35" fill="none" xmlns="http://www.w3.org/2000/svg">
<path fill-rule="evenodd" clip-rule="evenodd" d="M0.919604 23.7574C1.05228 23.6216 1.20989 23.5139 1.38341 23.4403C1.55693 23.3668 1.74295 23.329 1.93081 23.329C2.11868 23.329 2.3047 23.3668 2.47822 23.4403C2.65174 23.5139 2.80935 23.6216 2.94202 23.7574L10.5004 31.4772L18.0587 23.7574C18.1915 23.6218 18.3492 23.5143 18.5227 23.4409C18.6962 23.3675 18.8821 23.3298 19.0699 23.3298C19.2577 23.3298 19.4437 23.3675 19.6172 23.4409C19.7907 23.5143 19.9484 23.6218 20.0811 23.7574C20.2139 23.893 20.3193 24.0539 20.3911 24.2311C20.463 24.4082 20.5 24.5981 20.5 24.7898C20.5 24.9816 20.463 25.1714 20.3911 25.3486C20.3193 25.5257 20.2139 25.6867 20.0811 25.8222L11.5116 34.5716C11.3789 34.7074 11.2213 34.8151 11.0478 34.8886C10.8743 34.9622 10.6882 35 10.5004 35C10.3125 35 10.1265 34.9622 9.95297 34.8886C9.77945 34.8151 9.62184 34.7074 9.48917 34.5716L0.919604 25.8222C0.786595 25.6868 0.681067 25.5259 0.609064 25.3487C0.537062 25.1715 0.5 24.9816 0.5 24.7898C0.5 24.598 0.537062 24.4081 0.609064 24.2309C0.681067 24.0538 0.786595 23.8929 0.919604 23.7574Z" fill="#963298"/>
<path fill-rule="evenodd" clip-rule="evenodd" d="M10.5005 33.5391C10.1217 33.5391 9.75844 33.3854 9.49059 33.112C9.22274 32.8385 9.07227 32.4676 9.07227 32.0808L9.07227 1.45812C9.07227 1.07137 9.22274 0.700466 9.49059 0.426994C9.75844 0.153526 10.1217 -0.000106812 10.5005 -0.000106812C10.8793 -0.000106812 11.2426 0.153526 11.5105 0.426994C11.7783 0.700466 11.9288 1.07137 11.9288 1.45812L11.9288 32.0808C11.9288 32.4676 11.7783 32.8385 11.5105 33.112C11.2426 33.3854 10.8793 33.5391 10.5005 33.5391Z" fill="#963298"/>
</svg>
