<svg width="35" height="21" viewBox="0 0 35 21" fill="none" xmlns="http://www.w3.org/2000/svg">
<path fill-rule="evenodd" clip-rule="evenodd" d="M23.7574 19.991C23.6216 19.8556 23.5139 19.6947 23.4403 19.5175C23.3668 19.3403 23.329 19.1504 23.329 18.9586C23.329 18.7668 23.3668 18.5769 23.4403 18.3997C23.5139 18.2226 23.6216 18.0616 23.7574 17.9262L31.4772 10.2093L23.7574 2.49233C23.6218 2.35675 23.5143 2.19579 23.4409 2.01865C23.3675 1.84151 23.3298 1.65164 23.3298 1.45991C23.3298 1.26817 23.3675 1.0783 23.4409 0.901161C23.5143 0.724018 23.6218 0.563063 23.7574 0.427483C23.893 0.291903 24.0539 0.184355 24.2311 0.110979C24.4082 0.0376034 24.5981 -0.000160217 24.7898 -0.000160217C24.9816 -0.000160217 25.1714 0.0376034 25.3486 0.110979C25.5257 0.184355 25.6867 0.291903 25.8222 0.427483L34.5716 9.17683C34.7074 9.31229 34.8151 9.47321 34.8886 9.65037C34.9622 9.82753 35 10.0174 35 10.2093C35 10.4011 34.9622 10.591 34.8886 10.7681C34.8151 10.9453 34.7074 11.1062 34.5716 11.2417L25.8222 19.991C25.6868 20.1268 25.5259 20.2346 25.3487 20.3081C25.1715 20.3816 24.9816 20.4194 24.7898 20.4194C24.598 20.4194 24.4081 20.3816 24.2309 20.3081C24.0538 20.2346 23.8929 20.1268 23.7574 19.991Z" fill="#4A154B"/>
<path fill-rule="evenodd" clip-rule="evenodd" d="M33.5392 10.2093C33.5392 10.596 33.3855 10.9669 33.1121 11.2404C32.8386 11.5138 32.4677 11.6675 32.0809 11.6675L1.45822 11.6675C1.07147 11.6675 0.700563 11.5138 0.427092 11.2404C0.153624 10.9669 -9.53674e-06 10.596 -9.53674e-06 10.2093C-9.53674e-06 9.82251 0.153624 9.4516 0.427092 9.17813C0.700563 8.90466 1.07147 8.75103 1.45822 8.75103L32.0809 8.75103C32.4677 8.75103 32.8386 8.90466 33.1121 9.17813C33.3855 9.4516 33.5392 9.82251 33.5392 10.2093Z" fill="#4A154B"/>
</svg>
