<svg width="1440" height="236" viewBox="0 0 1440 236" fill="none" xmlns="http://www.w3.org/2000/svg">
<g filter="url(#filter0_d)">
<path d="M-149.203 37.832C-138.405 64.7987 -82.0559 80.2451 -31.5344 78.6093C18.9871 76.9736 64.7522 62.6022 108.546 48.745C152.34 34.8878 198.533 20.7034 249.054 19.7219C305.961 18.5068 359.182 33.9062 414.803 40.496C590.278 61.2233 778.308 -6.09981 946.67 27.8772C1034.47 45.5901 1096.65 87.3955 1160.2 124.924C1223.75 162.453 1301.05 199.468 1394.55 201.875C1503.61 204.679 1603.62 159.299 1712.29 164.93C1772.28 168.038 1826.06 186.382 1885.45 191.056C1985.6 198.954 2080.04 167.688 2168.95 141.375C2257.87 115.063 2366.33 92.4663 2457 116.909L2457 -58L-175 -58L-149.203 37.832Z" fill="white"/>
</g>
<defs>
<filter id="filter0_d" x="-205" y="-84" width="2692" height="320" filterUnits="userSpaceOnUse" color-interpolation-filters="sRGB">
<feFlood flood-opacity="0" result="BackgroundImageFix"/>
<feColorMatrix in="SourceAlpha" type="matrix" values="0 0 0 0 0 0 0 0 0 0 0 0 0 0 0 0 0 0 127 0"/>
<feOffset dy="4"/>
<feGaussianBlur stdDeviation="15"/>
<feColorMatrix type="matrix" values="0 0 0 0 0.258824 0 0 0 0 0.258824 0 0 0 0 0.258824 0 0 0 0.1 0"/>
<feBlend mode="normal" in2="BackgroundImageFix" result="effect1_dropShadow"/>
<feBlend mode="normal" in="SourceGraphic" in2="effect1_dropShadow" result="shape"/>
</filter>
</defs>
</svg>
