<svg width="1440" height="789" viewBox="0 0 1440 789" fill="none" xmlns="http://www.w3.org/2000/svg">
<g filter="url(#filter0_d)">
<path d="M2498.45 376.445C2483.15 315.595 2403.32 280.74 2331.74 284.432C2260.16 288.123 2195.32 320.551 2133.27 351.82C2071.23 383.089 2005.78 415.096 1934.2 417.311C1853.58 420.053 1778.17 385.304 1699.37 370.434C1450.76 323.663 1184.36 475.577 945.825 398.908C821.428 358.939 733.336 264.605 643.301 179.921C553.267 95.2371 443.744 11.7132 311.272 6.28204C156.762 -0.0455322 15.0624 102.356 -138.901 89.6478C-223.897 82.6348 -300.089 41.2419 -384.235 30.6959C-526.117 12.8733 -659.924 83.4257 -785.9 142.799C-911.875 202.173 -1065.54 253.163 -1194 198.007V844H2535L2498.45 376.445Z" fill="white"/>
</g>
<defs>
<filter id="filter0_d" x="-1224" y="-20" width="3789" height="898" filterUnits="userSpaceOnUse" color-interpolation-filters="sRGB">
<feFlood flood-opacity="0" result="BackgroundImageFix"/>
<feColorMatrix in="SourceAlpha" type="matrix" values="0 0 0 0 0 0 0 0 0 0 0 0 0 0 0 0 0 0 127 0"/>
<feOffset dy="4"/>
<feGaussianBlur stdDeviation="15"/>
<feColorMatrix type="matrix" values="0 0 0 0 0.258824 0 0 0 0 0.258824 0 0 0 0 0.258824 0 0 0 0.1 0"/>
<feBlend mode="normal" in2="BackgroundImageFix" result="effect1_dropShadow"/>
<feBlend mode="normal" in="SourceGraphic" in2="effect1_dropShadow" result="shape"/>
</filter>
</defs>
</svg>
