<svg width="1440" height="184" viewBox="0 0 1440 184" fill="none" xmlns="http://www.w3.org/2000/svg">
<g filter="url(#filter0_d)">
<path d="M1657 130.443C1611.81 121.88 1559.75 125.96 1512.95 132.624C1466.15 139.289 1420.28 148.441 1371.21 149.815C1268.37 152.695 1173.03 120.986 1070.03 122.677C1016.47 123.56 964.079 133.519 910.792 130.879C841.941 127.476 787.51 104.09 740.737 81.2709C693.965 58.452 644.875 33.6915 577.851 25.8598C476.837 14.0576 376.423 44.5883 272.575 49.0277C219.915 51.2747 166.274 46.7371 114.104 50.3694C61.9349 54.0017 7.12158 69.6433 2.35168 93.1712H-49V-105H1641.71L1657 130.443Z" fill="white"/>
</g>
<defs>
<filter id="filter0_d" x="-79" y="-131" width="1766" height="315" filterUnits="userSpaceOnUse" color-interpolation-filters="sRGB">
<feFlood flood-opacity="0" result="BackgroundImageFix"/>
<feColorMatrix in="SourceAlpha" type="matrix" values="0 0 0 0 0 0 0 0 0 0 0 0 0 0 0 0 0 0 127 0"/>
<feOffset dy="4"/>
<feGaussianBlur stdDeviation="15"/>
<feColorMatrix type="matrix" values="0 0 0 0 0.258824 0 0 0 0 0.258824 0 0 0 0 0.258824 0 0 0 0.1 0"/>
<feBlend mode="normal" in2="BackgroundImageFix" result="effect1_dropShadow"/>
<feBlend mode="normal" in="SourceGraphic" in2="effect1_dropShadow" result="shape"/>
</filter>
</defs>
</svg>
