<svg width="86" height="52" viewBox="0 0 86 52" fill="none" xmlns="http://www.w3.org/2000/svg">
<path d="M124.975 23.8314C122.979 22.7092 120.71 22.0797 118.431 22.2348C93.2256 22.1093 28.8417 22.1618 3.63376 22.1367C5.11745 31.0261 5.11745 40.0998 3.63376 48.9892H86.8506C99.2334 48.9572 105.994 49.0622 118.377 48.8911C120.06 48.8569 121.798 48.8478 123.353 48.1042C127.536 46.4825 130.782 42.4819 131.464 37.8837C132.459 32.4028 129.779 26.411 124.975 23.8314Z" fill="#FFF5ED"/>
<path d="M118.378 19.9547H0.00228882L0.766373 22.6644H118.378C121.772 22.7095 125.012 24.0894 127.396 26.5053C129.78 28.9212 131.116 32.1788 131.116 35.5729C131.116 38.967 129.78 42.2246 127.396 44.6405C125.012 47.0564 121.772 48.4363 118.378 48.4814H0.764099L0 51.191H118.376C122.52 51.191 126.494 49.5449 129.424 46.6149C132.354 43.6849 134 39.7109 134 35.5672C134 31.4235 132.354 27.4495 129.424 24.5195C126.494 21.5894 122.52 19.9434 118.376 19.9434L118.378 19.9547Z" fill="#E01E5A"/>
<path d="M49.2546 1.41081C41.3446 1.43134 33.4324 1.36292 25.5338 1.4724C24.4595 1.49521 23.3533 1.49976 22.3543 1.97418C20.9958 2.51892 19.8022 3.40713 18.8902 4.55183C17.9782 5.69653 17.3791 7.05846 17.1516 8.50426C16.5153 12.0008 18.2282 15.8349 21.2959 17.4771C22.5618 18.2141 24.0136 18.5698 25.4768 18.5012C41.5796 18.581 94.3584 18.5491 110.466 18.5651C109.519 12.8862 109.519 7.08974 110.466 1.41081H49.2546Z" fill="#FFF5ED"/>
<path d="M25.5234 1.73119H112.31L112.798 0H25.5234C22.9033 0.0396155 20.4039 1.10825 18.5651 2.9751C16.7262 4.84195 15.6955 7.35719 15.6955 9.97758C15.6955 12.598 16.7262 15.1132 18.5651 16.9801C20.4039 18.8469 22.9033 19.9155 25.5234 19.9552H112.798L112.31 18.224H25.5234C24.4289 18.2422 23.3417 18.0424 22.3253 17.6361C21.3088 17.2299 20.3834 16.6253 19.603 15.8578C18.8226 15.0902 18.2028 14.175 17.7797 13.1655C17.3566 12.1559 17.1387 11.0722 17.1387 9.97758C17.1387 8.88296 17.3566 7.79929 17.7797 6.78974C18.2028 5.78018 18.8226 4.86496 19.603 4.0974C20.3834 3.32985 21.3088 2.72533 22.3253 2.31908C23.3417 1.91283 24.4289 1.71298 25.5234 1.73119Z" fill="#00BCF8"/>
</svg>
