<svg width="1440" height="579" viewBox="0 0 1440 579" fill="none" xmlns="http://www.w3.org/2000/svg">
<g filter="url(#filter0_d)">
<path d="M-777.773 389.064C-765.539 329.426 -701.696 295.266 -644.456 298.883C-587.217 302.501 -535.366 334.284 -485.748 364.929C-436.131 395.575 -383.795 426.945 -326.555 429.115C-262.082 431.802 -201.783 397.746 -138.766 383.172C60.0437 337.333 273.078 486.221 463.829 411.079C563.306 371.907 633.751 279.452 705.75 196.456C777.749 113.459 865.332 31.5993 971.267 26.2764C1094.82 20.0748 1208.14 120.435 1331.26 107.981C1399.23 101.107 1460.16 60.5398 1527.45 50.204C1640.91 32.7364 1747.91 101.883 1848.65 160.074C1949.39 218.264 2072.27 268.238 2175 214.182L2175 601L-807 601L-777.773 389.064Z" fill="white"/>
</g>
<defs>
<filter id="filter0_d" x="-837" y="0" width="3042" height="635" filterUnits="userSpaceOnUse" color-interpolation-filters="sRGB">
<feFlood flood-opacity="0" result="BackgroundImageFix"/>
<feColorMatrix in="SourceAlpha" type="matrix" values="0 0 0 0 0 0 0 0 0 0 0 0 0 0 0 0 0 0 127 0"/>
<feOffset dy="4"/>
<feGaussianBlur stdDeviation="15"/>
<feColorMatrix type="matrix" values="0 0 0 0 0.258824 0 0 0 0 0.258824 0 0 0 0 0.258824 0 0 0 0.1 0"/>
<feBlend mode="normal" in2="BackgroundImageFix" result="effect1_dropShadow"/>
<feBlend mode="normal" in="SourceGraphic" in2="effect1_dropShadow" result="shape"/>
</filter>
</defs>
</svg>
