<svg width="43" height="48" viewBox="0 0 43 48" fill="none" xmlns="http://www.w3.org/2000/svg">
<path d="M36.4622 8.09859C32.8864 4.02789 28.1215 0.710492 22.737 0.100801C18.2934 -0.403016 13.7306 1.01351 10.1122 3.63969C6.49375 6.26586 3.78328 10.0408 2.07935 14.176C-0.661536 20.834 -0.79663 28.6577 2.296 35.155C5.38863 41.6523 11.8356 46.6053 19.0006 47.316C32.9874 48.7033 45.0147 33.7385 42.7168 20.3752C41.9306 15.7775 39.5122 11.5681 36.4622 8.09859Z" fill="#2EB67D"/>
<path d="M2.32814 24.1526C2.00196 28.8804 2.87582 33.8881 5.81266 37.6035C8.23711 40.6739 11.9261 42.6356 15.7928 43.2659C19.6595 43.8963 23.6662 43.2513 27.2834 41.7618C33.1096 39.3644 38.0485 34.6329 40.1845 28.7076C42.3205 22.7823 41.4138 15.7288 37.4473 10.8379C29.6944 1.29584 12.9838 3.04216 6.10113 12.7011C3.73145 16.0246 2.60808 20.1184 2.32814 24.1526Z" fill="white"/>
<path d="M23.6802 17.6319C23.7618 16.393 23.8506 15.153 23.9237 13.9129C23.9955 12.6959 24.1671 11.4169 24.0539 10.1951C24.0539 10.1744 23.9151 10.3424 23.9066 10.3825C23.4307 12.8882 23.3638 15.5034 23.1532 18.042L22.8356 21.862C22.748 22.928 22.5751 24.0282 22.5362 25.1088C21.8874 25.2305 21.229 25.4252 20.6424 25.536L17.0873 26.2053C14.6945 26.6568 12.197 27.0085 9.87112 27.7338C9.85895 27.7338 9.83096 27.7885 9.83948 27.7885C12.0412 27.7885 14.3427 27.2701 16.5201 26.9367L19.8306 26.4292C20.9758 26.254 22.2757 26.2102 23.3601 25.8037C23.4928 25.7538 23.9115 25.0309 23.836 25.0236C23.6118 25.0023 23.386 25.0023 23.1618 25.0236V25.009C23.5378 22.5958 23.5232 20.067 23.6802 17.6319Z" fill="#2E4A74"/>
<path d="M16.5524 39.5781C16.5524 39.5781 16.5183 39.6171 16.5158 39.6244C16.3652 40.1121 16.2432 40.6083 16.1507 41.1103C16.0899 41.4474 15.984 41.8088 16.0424 42.152C16.0424 42.1836 16.1738 42.0084 16.1824 41.984C16.4294 41.238 16.6071 40.3667 16.5524 39.5781Z" fill="#2E4A74"/>
<path d="M23.5361 40.219C23.4716 39.9622 23.4472 39.6543 23.2926 39.4389C23.2817 39.4231 23.2086 39.5436 23.2086 39.5606C23.188 40.1825 23.3693 40.8579 23.5993 41.4311C23.6066 41.4505 23.7016 41.3288 23.6979 41.296C23.6745 40.9331 23.6204 40.5728 23.5361 40.219Z" fill="#2E4A74"/>
<path d="M30.4842 37.3483C30.27 37.0307 30.0729 36.5792 29.6566 36.5293C29.642 36.5293 29.6201 36.5707 29.6201 36.5816C29.6372 37.0368 29.8343 37.3483 30.0704 37.7243C30.27 38.0432 30.4623 38.5032 30.8141 38.6723C30.8725 38.7016 31.0295 38.429 31.0186 38.3754C30.9467 37.9836 30.7033 37.6757 30.4842 37.3483Z" fill="#2E4A74"/>
<path d="M36.5852 33.2971C36.4123 33.0135 36.1567 32.8529 35.8792 32.6886C35.6216 32.515 35.3452 32.3709 35.0553 32.259C34.9823 32.2347 34.7547 32.5864 34.8119 32.6399C35.0399 32.85 35.2905 33.034 35.5591 33.1888C35.8342 33.364 36.0922 33.5222 36.4245 33.5539C36.4768 33.5563 36.6144 33.3457 36.5852 33.2971Z" fill="#2E4A74"/>
<path d="M39.6138 27.3506C39.2686 27.2331 38.9121 27.1516 38.5501 27.1072C38.1655 27.05 37.8734 26.9782 37.4973 27.1182C37.49 27.1182 37.4705 27.1462 37.4754 27.1535C37.6799 27.4528 38.1411 27.4322 38.4783 27.4869C38.8091 27.5431 39.1444 27.5695 39.48 27.566C39.5226 27.5685 39.6394 27.3604 39.6138 27.3506Z" fill="#2E4A74"/>
<path d="M39.3458 22.3986C39.1079 22.3179 38.8593 22.2727 38.6082 22.2648C38.4947 22.251 38.3804 22.2457 38.2662 22.249C38.0788 22.2709 37.9838 22.406 37.7891 22.4376C37.7891 22.4376 37.7623 22.4717 37.7672 22.4729C37.819 22.5208 37.8604 22.5787 37.8889 22.6433C37.911 22.6715 37.9408 22.6929 37.9746 22.7047C38.0085 22.7166 38.0451 22.7185 38.08 22.7102C38.1917 22.726 38.3043 22.7345 38.4171 22.7357C38.6672 22.7484 38.9179 22.7325 39.1644 22.6883C39.224 22.681 39.3847 22.4108 39.3458 22.3986Z" fill="#2E4A74"/>
<path d="M39.1178 17.8506C38.5799 17.7971 37.8728 17.8506 37.403 18.1244C37.403 18.1244 37.3738 18.1536 37.3811 18.1609C37.5417 18.3216 37.8679 18.2303 38.0711 18.2072C38.3882 18.1774 38.7019 18.1187 39.0083 18.0319C39.0603 17.9824 39.0981 17.9198 39.1178 17.8506Z" fill="#2E4A74"/>
<path d="M38.1279 13.2168C37.5168 13.4481 36.9428 13.7675 36.424 14.1648C36.4179 14.1648 36.3875 14.2183 36.396 14.2171C36.9717 14.1368 37.5583 13.7036 38.0391 13.392C38.0803 13.3403 38.1105 13.2806 38.1279 13.2168Z" fill="#2E4A74"/>
<path d="M34.694 10.4062C34.573 10.4707 34.4592 10.5478 34.3545 10.6363C34.2205 10.7307 34.094 10.8353 33.9759 10.949C33.9759 10.949 33.9431 11.0001 33.9516 10.9989C34.0683 10.9596 34.1756 10.8966 34.2668 10.8139C34.395 10.7306 34.517 10.6383 34.632 10.5377C34.661 10.4983 34.682 10.4537 34.694 10.4062Z" fill="#2E4A74"/>
<path d="M13.0362 38.4748C12.5299 38.8216 12.0832 39.3766 11.7193 39.867C11.7035 39.8889 11.583 40.1104 11.6584 40.0593C11.8913 39.8781 12.1024 39.6707 12.2877 39.4411C12.5384 39.1612 12.7745 38.8849 13.0021 38.5892C13.0118 38.5709 13.0788 38.4468 13.0362 38.4748Z" fill="#2E4A74"/>
<path d="M7.13471 35.406C7.08574 35.4617 7.05031 35.5279 7.03125 35.5995C7.613 35.4033 8.15982 35.1157 8.65121 34.7477C8.65851 34.7477 8.6865 34.6941 8.6792 34.6953C8.09621 34.8036 7.63007 35.0957 7.13471 35.406Z" fill="#2E4A74"/>
<path d="M7.01497 29.9864C6.55734 30.0168 6.10336 30.0813 5.64087 30.0667C5.55811 30.0667 5.32197 30.4318 5.38161 30.4658C5.97799 30.7628 6.54515 30.4537 6.9906 30.035C6.99425 30.0302 7.02471 29.9851 7.01497 29.9864Z" fill="#2E4A74"/>
<path d="M5.56611 25.1746C5.23898 25.1409 4.90872 25.1536 4.58513 25.2123C4.54618 25.2123 4.40501 25.4289 4.44152 25.4484C4.71616 25.613 5.02058 25.7217 5.33731 25.7685C5.71218 25.8196 5.99941 25.7466 6.36819 25.6468C6.37671 25.6468 6.40957 25.6017 6.40105 25.592C6.11869 25.306 5.94828 25.2367 5.56611 25.1746Z" fill="#2E4A74"/>
<path d="M6.42104 20.1181C6.30334 20.0402 6.17865 19.9734 6.0486 19.9185C5.89981 19.8755 5.74585 19.853 5.59097 19.8516C5.53499 19.8516 5.39382 20.0572 5.42547 20.1047C5.49934 20.2345 5.59158 20.3529 5.69931 20.4564C5.81385 20.5407 5.9361 20.6141 6.06444 20.6754C6.34559 20.8276 6.55978 20.8263 6.87014 20.7898C6.88109 20.7898 6.90909 20.7484 6.90422 20.7375C6.78981 20.46 6.68515 20.2775 6.42104 20.1181Z" fill="#2E4A74"/>
<path d="M7.81618 14.5039C7.78211 14.5039 7.68841 14.639 7.71031 14.6682C7.87084 14.8625 8.07212 15.0191 8.2999 15.127C8.52768 15.2349 8.77637 15.2914 9.0284 15.2925C9.03571 15.2925 9.05398 15.2633 9.05033 15.256C8.82152 14.8544 8.27624 14.5453 7.81618 14.5039Z" fill="#2E4A74"/>
<path d="M13.1938 10.4741C13.1025 10.322 12.9748 10.182 12.8689 10.0396C12.6585 9.76031 12.413 9.50918 12.1386 9.29242C12.1167 9.27416 12.0023 9.43967 12.0169 9.47375C12.1771 9.78498 12.3723 10.0769 12.5987 10.3439C12.7021 10.4656 12.8044 10.58 12.909 10.6968C13.0299 10.8192 13.1767 10.9128 13.3387 10.9706C13.346 10.9706 13.3655 10.9414 13.363 10.9353C13.3224 10.7762 13.2657 10.6217 13.1938 10.4741Z" fill="#2E4A74"/>
<path d="M17.8031 8.1122C17.7775 8.00146 17.7337 7.8895 17.6972 7.78241C17.6416 7.59917 17.5358 7.43517 17.3917 7.30901C17.3601 7.28346 17.2566 7.47209 17.2578 7.50129C17.2647 7.74237 17.315 7.98023 17.4063 8.20348C17.4426 8.30347 17.4869 8.40033 17.539 8.4931C17.5402 8.52257 17.5515 8.55073 17.571 8.57288C17.5905 8.59502 17.617 8.60981 17.6461 8.6148C17.7003 8.61459 17.7525 8.63505 17.7921 8.672C17.7921 8.672 17.8189 8.64522 17.8165 8.63792C17.7763 8.45903 17.8396 8.28988 17.8031 8.1122Z" fill="#2E4A74"/>
<path d="M21.9727 6.36719C21.9235 6.40746 21.885 6.4593 21.8607 6.51809C21.8265 6.766 21.8134 7.01639 21.8218 7.26651C21.8352 7.45879 21.8899 7.64742 21.9094 7.84091C21.9094 7.84091 21.9459 7.80562 21.9459 7.79102C21.9776 7.29937 22.053 6.8564 21.9727 6.36719Z" fill="#2E4A74"/>
<path d="M25.9568 6.38715C25.6878 6.94208 25.4115 7.53109 25.3008 8.13956C25.3008 8.16147 25.3397 8.10305 25.3434 8.09696C25.6588 7.51428 25.9075 6.89785 26.0846 6.25938C26.0968 6.19853 25.9653 6.36525 25.9568 6.38715Z" fill="#2E4A74"/>
<path d="M30.0438 7.51564C29.8138 7.61421 29.6349 7.95617 29.4925 8.14845C29.2779 8.42139 29.0819 8.70842 28.9058 9.00762C28.9058 9.01613 28.8413 9.14269 28.8961 9.10132C29.1077 8.91472 29.2954 8.70257 29.4547 8.46972C29.6775 8.21508 29.871 7.93629 30.0316 7.63855C30.0365 7.6276 30.0949 7.49617 30.0438 7.51564Z" fill="#2E4A74"/>
</svg>
