<svg width="224" height="471" viewBox="0 0 224 471" fill="none" xmlns="http://www.w3.org/2000/svg">
<path d="M128.686 53.6772C125.726 50.7875 120.09 53.1975 116.846 54.8016C108.851 58.7782 101.522 64.5089 94.9705 70.5432C88.0264 76.971 82.226 84.2571 76.8105 92.0005C72.0752 98.7731 67.3063 105.557 63.311 112.806C64.0585 111.423 55.2793 97.7461 54.1693 95.7634C50.8767 89.909 47.5204 84.1034 44.3025 78.1928C41.8396 73.6652 39.0702 69.1976 35.501 65.4721C33.3109 63.1971 27.8206 59.9851 24.6625 63.0772C24.1692 63.1746 23.8179 63.3433 23.7319 63.6056C22.5322 67.2937 22.9657 72.1211 23.3843 75.9328C23.8402 80.0931 24.9802 83.9947 26.2434 87.9789C28.7849 95.9696 32.07 103.773 35.5234 111.408C38.6553 118.345 41.5256 125.65 45.7302 132.022C47.8568 135.241 48.993 137.943 52.7453 139.338C57.3648 141.058 62.7579 140.657 67.3512 139.094C73.5926 136.969 78.9184 132.775 83.7957 128.334C88.673 123.892 94.451 119.488 98.7229 114.496C103.809 108.492 108.412 102.093 112.488 95.3587C118.931 84.7856 123.835 73.4891 129.003 62.2601C129.867 60.3861 130.749 58.3022 130.181 56.3158C129.919 55.3209 129.404 54.4116 128.686 53.6772ZM125.18 53.1225H125.001L124.915 53.0625C124.908 53.0534 124.9 53.0456 124.89 53.0398C124.88 53.034 124.87 53.0303 124.859 53.0288C125.139 52.8826 125.337 52.8526 125.18 53.1225Z" fill="url(#paint0_linear)"/>
<path d="M221.257 461.081C208.749 458.902 196.117 457.286 183.416 456.629C170.715 455.972 157.921 456.382 145.182 456.459C133.947 456.524 122.884 456.564 111.747 458.191C109.104 458.572 106.507 459.011 103.894 459.48C102.712 459.694 99.0992 459.734 98.4008 460.739C96.9963 462.747 104.668 462.715 105.468 462.744C109.495 462.899 113.534 463.012 117.584 463.085C129.046 463.281 140.493 463.001 151.94 463.179C163.489 463.357 175.027 463.72 186.569 464.047C195.781 464.388 205 464.41 214.216 464.508C216.814 464.537 221.012 464.664 223.304 463.274C225.297 462.057 222.503 461.284 221.257 461.081Z" fill="#DDD2DF"/>
<path d="M172.134 450.537C172.06 449.351 166.826 449.937 166.157 450.362C165.826 450.585 165.487 450.792 165.138 450.985C163.748 450.707 161.36 450.614 161.125 451.403C160.364 453.996 159.573 456.589 157.767 458.652C156.123 460.53 153.908 461.615 151.576 462.378C149.473 463.063 147.269 463.378 145.147 464.012C143.308 464.564 140.321 466.056 139.063 467.545C138.6 468.094 138.438 468.971 138.894 469.523C139.35 470.075 140.255 470.075 141.002 469.994C149.347 469.108 157.656 467.882 165.962 466.66C168.334 466.312 170.916 466.29 173.215 465.853C173.505 465.814 173.776 465.687 173.992 465.488C174.208 465.289 174.358 465.029 174.422 464.741C174.437 464.508 174.412 464.274 174.348 464.049C173.362 459.515 172.424 455.159 172.134 450.537Z" fill="#424242"/>
<path d="M120.722 463.958C119.622 464.539 118.06 464.335 116.761 464.411C109.251 464.847 101.832 463.858 94.3411 464.287C92.5726 464.387 88.9117 465.016 87.6651 463.197C84.2596 458.229 101.163 456.121 102.733 455.641C105.71 454.731 108.741 453.036 110.547 450.264C111.147 449.346 111.384 447.756 112.315 447.151C113.637 446.297 116.096 446.446 117.572 446.265C118.034 446.209 121.702 445.885 121.747 446.802C121.833 450.3 121.721 453.778 121.747 457.275C121.747 458.95 122.415 460.805 121.908 462.452C121.82 462.777 121.669 463.079 121.465 463.339C121.26 463.598 121.007 463.809 120.722 463.958Z" fill="#424242"/>
<path d="M150.497 191.331C150.123 220.5 147.461 249.406 143.795 278.372C139.998 307.481 135.718 336.496 132.689 365.703C131.191 380.132 129.955 394.59 129.218 409.082C128.866 416.097 128.843 423.138 128.368 430.145C127.952 436.45 126.915 442.862 124.054 448.549C123.347 449.948 120.111 449.763 118.812 449.808C116.674 449.876 114.128 449.902 112.177 448.888C104.643 444.987 101.951 436.168 100.468 428.358C98.3974 417.473 96.9146 406.418 95.6003 395.423C91.5959 362.255 90.1387 328.825 91.2418 295.431C92.3389 261.825 97.4987 228.521 101.79 195.051C102.801 187.188 103.872 179.122 107.631 172.161C113.858 160.631 139.384 150.598 147.618 165.105C150.355 169.93 150.527 175.757 150.557 181.312C150.557 184.654 150.537 187.994 150.497 191.331Z" fill="url(#paint1_linear)"/>
<path d="M181.107 228.961C180.607 218.133 179.8 207.318 178.546 196.554C178.132 192.987 177.967 188.487 177.565 183.945C177.043 178.017 176.116 172.013 173.712 167.9C167.97 158.08 146.62 153.468 139.14 163.577C136.248 167.486 135.309 172.471 134.498 177.269C127.652 217.761 123.746 259.149 123.941 300.243C124.155 345.021 129.695 390.161 146.324 432.003C148.183 436.684 149.937 441.639 152.674 445.894C155.532 450.342 159.505 452.285 164.756 452.53C167.317 452.642 171.391 452.811 173.393 450.842C175.042 449.221 175.271 446.379 175.646 444.251C176.668 438.593 177.374 432.875 177.866 427.142C178.865 415.526 178.992 403.834 179.176 392.198C179.357 380.053 179.523 367.905 179.676 355.754C180.16 314.006 183.048 271.137 181.107 228.961Z" fill="#E01E5A"/>
<path d="M156.486 4.98448C152.466 -0.138788 143.734 -0.708039 137.786 0.597445C135.657 1.09194 133.686 2.09858 132.05 3.52718C131.563 3.78467 131.102 4.0871 130.673 4.4304C129.285 5.54993 128.322 7.1097 127.497 8.69601C127.208 9.18576 126.95 9.69274 126.726 10.214C126.259 11.3184 130.326 11.4436 130.816 11.4702C132.057 11.5385 133.403 11.8079 134.636 11.5423C136.24 11.1969 137.531 11.3943 138.491 12.8402C139.1 13.7434 139.389 14.8098 139.775 15.8268C140.345 17.3448 141.147 18.4834 142.805 18.9426C143.484 19.117 144.185 19.1975 144.887 19.1816C145.388 19.1816 145.958 19.0564 146.282 19.4625C146.606 19.8685 146.46 20.6503 146.375 21.1057C145.315 27.0525 142.624 32.2327 140.083 37.6558C139.783 38.2895 143.703 38.5286 143.823 38.5324C145.295 38.5704 147.234 38.6652 148.553 37.891C151.51 36.1567 153.776 33.3712 155.954 30.7944C157.944 28.4377 159.867 25.8077 160.804 22.8514C162.882 16.3506 160.523 10.1267 156.486 4.98448Z" fill="#424242"/>
<path d="M172.837 169.145C174.049 168.278 175.149 167.261 176.109 166.119C179.649 161.959 181.645 156.709 183.279 151.486C186.785 140.195 189.967 129.994 190.476 118.034C190.986 106.074 192.54 94.4135 191.54 82.3478C191.125 77.374 190.506 72.4267 189.902 67.4793C182.679 56.3743 165.916 48.9155 153.202 47.3837C146.054 46.5251 138.676 46.5931 131.596 47.9623C129.192 48.4045 126.845 49.1162 124.599 50.0842C122.382 50.8702 120.245 51.8683 118.218 53.0647C113.516 55.8826 109.425 60.1718 106.409 64.7182C102.911 70.0135 100.628 76.0237 99.0052 82.117C97.2441 88.6941 95.8755 95.3704 94.9068 102.111C93.0022 115.368 93.2455 128.846 95.6275 142.026C97.6843 153.154 102.043 164.44 113.157 169.051C119.614 171.725 126.837 172.239 133.721 172.833C142.023 173.559 150.352 173.813 158.666 173.022C164.078 172.515 168.746 172.058 172.837 169.145Z" fill="url(#paint2_linear)"/>
<path d="M213.815 128.931C212.23 123.661 210.644 118.391 209.056 113.122C204.611 98.3462 201.354 83.5859 192.352 70.7213C190.708 68.3686 188.881 66.0534 186.414 64.5924C181.95 61.9475 174.121 63.4685 173.638 69.515C173.068 76.6329 174.469 84.4588 176.045 91.3819C178.447 101.932 182.592 112.006 188.308 121.191C193.55 129.575 199.302 139.39 208.18 144.335C209.09 144.841 216.631 145.763 216.653 144.096C216.721 138.87 215.305 133.891 213.815 128.931Z" fill="#63D4F8"/>
<path d="M215.924 139.458C211.822 130.332 199.503 126.95 190.329 126.076C178.911 125.006 167.096 126.894 155.984 129.422C150.258 130.715 144.468 132.418 139.177 134.96C134.598 137.164 125.901 144.595 135.869 146.914C144.574 148.933 153.343 150.2 162.119 151.746C172.716 153.642 183.604 153.538 194.318 152.88C199.749 152.546 206.005 152.705 211.038 150.397C215.417 148.394 218.006 144.089 215.924 139.458Z" fill="url(#paint3_linear)"/>
<path d="M134.028 140.355C134.131 142.193 132.562 143.764 130.883 144.225C130.043 144.432 129.176 144.487 128.318 144.387C127.028 144.601 125.754 144.913 124.506 145.32C121.208 146.481 117.484 148.257 113.918 147.696C113.346 147.65 112.796 147.449 112.32 147.112C111.722 146.616 111.587 145.812 110.938 145.328C110.418 144.941 109.985 145.065 109.802 144.248C109.619 143.431 110.205 142.541 110.579 141.783C109.736 141.756 108.897 141.589 108.325 141.086C106.888 139.813 108.409 138.439 109.56 137.491C108.779 137.41 108.065 137.166 107.691 136.589C106.529 134.832 109.27 133.238 110.443 132.688C113.612 131.28 117.055 130.697 120.482 130.989C119.277 127.878 118.878 124.484 119.324 121.156C119.423 120.436 120.581 117.077 121.523 119.027C121.684 119.469 121.727 119.95 121.647 120.416C121.281 126.38 125.089 132.53 129.758 135.602C130.707 136.152 131.618 136.774 132.481 137.464C132.981 137.904 133.394 138.443 133.698 139.051C133.894 139.456 134.006 139.9 134.028 140.355Z" fill="#ECD09B"/>
<path d="M31.0649 53.9179C31.4887 57.4575 36.5173 66.0351 29.4651 66.0983H29.2208C27.0444 66.0537 25.3261 65.1056 23.8256 63.5626C22.8443 62.5513 21.9661 61.447 20.7061 60.748C19.2247 59.9263 17.4912 59.8594 15.8799 59.4132C14.839 59.1553 13.8636 58.6923 13.0138 58.0528C12.164 57.4133 11.4579 56.6109 10.9391 55.6951C10.3557 54.5738 10.092 53.3206 10.1755 52.0663C10.2099 51.5606 10.4962 50.9731 10.4733 50.4823C10.4504 49.7685 10.0227 48.9542 9.96547 48.1958C9.96547 48.0099 10.5115 47.9094 10.565 47.8946H10.6566C9.96931 46.4594 10.3015 45.4592 10.6757 43.92C10.9315 42.864 11.4851 42.0274 11.6111 41.0719C8.46112 37.4059 4.0893 35.201 0 32.6281C4.78803 30.8137 10.0495 34.3384 13.5889 37.2237C13.944 37.5174 14.2953 37.8148 14.639 38.1234C14.9368 38.3019 15.2346 38.4952 15.521 38.6886C17.8845 40.3134 19.8394 42.429 22.1914 44.0686C22.955 44.5929 24.4212 45.7306 25.5972 45.8756C25.8119 45.9027 26.0301 45.8875 26.2387 45.831C27.4185 45.4592 28.3807 42.165 28.9115 41.0905C30.0569 38.6849 31.0649 35.2568 33.9859 34.3979C34.1386 34.3533 35.895 34.238 35.7995 34.4983C33.627 40.5476 30.2783 47.3517 31.0649 53.9179Z" fill="#ECD09B"/>
<path d="M153.903 53.9845C152.249 55.5215 150.394 56.8338 148.388 57.8867C147.23 58.6731 145.612 59.1924 144.627 59.5485C143.16 60.0891 141.622 60.4214 140.06 60.5351C139.236 60.6001 138.407 60.6075 137.582 60.5574C135.667 60.4461 133.406 60.064 132.112 58.5136C131.472 57.764 131.12 56.8156 131.119 55.8355C130.513 54.5927 130.263 53.2103 130.395 51.8374C130.528 50.4645 131.038 49.1535 131.872 48.046C133.192 46.2396 134.964 44.8449 136.043 42.853C137.051 40.9983 137.476 38.9397 137.721 36.8662C138.044 34.0954 138.289 30.5085 141.2 29.1027C141.95 28.7532 142.761 28.5468 143.589 28.4944C144.974 28.3475 146.369 28.6607 147.553 29.3846C149.964 31.0278 149.878 34.7408 150.766 37.2075C152.011 40.646 153.978 43.3649 156.032 46.3434C158.198 49.4741 156.314 51.7367 153.903 53.9845Z" fill="url(#paint4_linear)"/>
<path d="M150.959 17.7848C149.697 17.6942 148.485 18.0339 147.678 19.0644C147.632 16.2786 147.447 13.4023 146.333 10.8656C144.215 6.02258 136.208 2.6668 131.514 5.81874C128.187 8.05341 127.13 13.3343 126.41 16.9996C125.713 20.4029 125.585 23.8976 126.031 27.3425C126.725 32.2497 128.324 37.9119 133.806 39.2293C140.551 40.8675 146.689 33.9748 149.91 28.943C151.338 26.7121 156.15 18.1623 150.959 17.7848Z" fill="#ECD09B"/>
<path d="M127.7 11.9875C123.6 11.3449 122.23 16.6762 123.441 19.6613C123.911 20.8249 124.91 21.8402 126.151 22.0076C127.563 22.2015 128.808 21.247 129.446 20.0454C130.642 17.7752 131.192 12.5313 127.7 11.9875ZM128.907 19.4864C128.338 20.8401 127.032 22.2661 125.468 21.441C124.002 20.6804 123.949 17.9273 124.192 16.4975C124.534 14.5962 126.295 10.9723 128.565 12.9002C130.194 14.2882 129.609 17.8208 128.915 19.4864H128.907Z" fill="#424242"/>
<path d="M136.884 13.8237C132.784 13.1812 131.409 18.5148 132.62 21.499C133.095 22.6395 134.093 23.6735 135.331 23.8446C136.747 24.0346 137.988 23.0843 138.63 21.8792C139.826 19.621 140.365 14.3787 136.884 13.8237ZM138.087 21.3241C137.518 22.6737 136.212 24.1031 134.651 23.2743C133.186 22.514 133.133 19.7617 133.376 18.3323C133.718 16.4315 135.479 12.8087 137.749 14.7361C139.378 16.135 138.793 19.6629 138.087 21.3356V21.3241Z" fill="#424242"/>
<path d="M132.28 15.644C131.661 15.5533 130.87 15.5835 130.364 16.2492C130.323 16.2976 130.675 16.3702 130.908 16.3763C131.273 16.1328 131.669 16.0392 132.062 16.104C132.505 16.3037 132.782 16.9633 133.187 17.3142C133.299 17.405 133.974 17.5684 134.023 17.2779C134.166 16.2613 132.703 15.6925 132.28 15.644Z" fill="#424242"/>
<path d="M149.585 17.3357C149.148 16.4123 148.61 16.7067 147.967 16.5395C147.186 16.3432 146.402 16.1893 145.615 16.0778C144.504 15.9172 143.393 15.8436 142.281 15.857C141.688 15.857 140.099 15.2281 139.634 15.9641C139.27 16.5328 140.081 16.6331 140.245 16.6331C143.339 17.2353 146.524 17.1617 149.639 17.4428C149.623 17.4046 149.604 17.3687 149.585 17.3357Z" fill="#424242"/>
<defs>
<linearGradient id="paint0_linear" x1="76.6557" y1="52.3276" x2="76.6557" y2="140.459" gradientUnits="userSpaceOnUse">
<stop stop-color="#88E3FF"/>
<stop offset="1" stop-color="#00BCF8"/>
</linearGradient>
<linearGradient id="paint1_linear" x1="141.377" y1="449.836" x2="89.9221" y2="167.258" gradientUnits="userSpaceOnUse">
<stop stop-color="#E8505B"/>
<stop offset="1" stop-color="#E01E5A"/>
</linearGradient>
<linearGradient id="paint2_linear" x1="142.754" y1="46.8198" x2="142.754" y2="173.508" gradientUnits="userSpaceOnUse">
<stop stop-color="#8AE4FF"/>
<stop offset="1" stop-color="#36C5F0"/>
</linearGradient>
<linearGradient id="paint3_linear" x1="148.262" y1="120.262" x2="222.164" y2="161.574" gradientUnits="userSpaceOnUse">
<stop stop-color="#63D4F8"/>
<stop offset="1" stop-color="#63D4F8"/>
</linearGradient>
<linearGradient id="paint4_linear" x1="144.679" y1="60.0566" x2="141.928" y2="33.9574" gradientUnits="userSpaceOnUse">
<stop stop-color="#ECD09B"/>
<stop offset="0.41" stop-color="#E9CD99"/>
<stop offset="0.72" stop-color="#DFC593"/>
<stop offset="1" stop-color="#CFB688"/>
</linearGradient>
</defs>
</svg>
