<svg width="1434" height="232" viewBox="0 0 1434 232" fill="none" xmlns="http://www.w3.org/2000/svg">
<g filter="url(#filter0_d)">
<path d="M-105.358 69.1913C-97.973 90.3497 -59.4364 102.469 -24.8853 101.186C9.66589 99.9023 40.9642 88.6264 70.9144 77.7538C100.865 66.8812 132.456 55.7519 167.007 54.9818C205.924 54.0284 242.322 66.111 280.36 71.2814C400.366 87.5445 528.959 34.7217 644.1 61.3806C704.147 75.2784 746.669 108.08 790.129 137.525C833.589 166.971 886.456 196.013 950.4 197.902C1024.98 200.102 1093.38 164.496 1167.7 168.915C1208.73 171.353 1245.51 185.746 1286.12 189.413C1354.61 195.61 1419.2 171.078 1480.01 150.433C1540.82 129.788 1614.99 112.058 1677 131.236L1677 -6L-123 -6L-105.358 69.1913Z" fill="white"/>
</g>
<defs>
<filter id="filter0_d" x="-153" y="-32" width="1860" height="264" filterUnits="userSpaceOnUse" color-interpolation-filters="sRGB">
<feFlood flood-opacity="0" result="BackgroundImageFix"/>
<feColorMatrix in="SourceAlpha" type="matrix" values="0 0 0 0 0 0 0 0 0 0 0 0 0 0 0 0 0 0 127 0"/>
<feOffset dy="4"/>
<feGaussianBlur stdDeviation="15"/>
<feColorMatrix type="matrix" values="0 0 0 0 0.258824 0 0 0 0 0.258824 0 0 0 0 0.258824 0 0 0 0.1 0"/>
<feBlend mode="normal" in2="BackgroundImageFix" result="effect1_dropShadow"/>
<feBlend mode="normal" in="SourceGraphic" in2="effect1_dropShadow" result="shape"/>
</filter>
</defs>
</svg>
