<svg width="495" height="77" viewBox="0 0 495 77" fill="none" xmlns="http://www.w3.org/2000/svg">
<g filter="url(#filter0_d)">
<path d="M498 49.8555C484.384 48.4788 468.699 49.1347 454.599 50.2063C440.498 51.2778 426.677 52.7493 411.895 52.9702C380.911 53.4333 352.185 48.335 321.151 48.6068C305.014 48.7489 289.23 50.3501 273.175 49.9257C252.431 49.3785 236.032 45.6184 221.94 41.9494C207.847 38.2805 193.057 34.2994 172.864 33.0402C142.429 31.1426 112.176 36.0515 80.8872 36.7652C65.0213 37.1265 48.8597 36.3969 33.1416 36.981C17.4235 37.565 0.908844 40.0799 -0.52829 43.8628H-16V12H493.393L498 49.8555Z" fill="white"/>
</g>
<defs>
<filter id="filter0_d" x="-36" y="-4" width="554" height="81" filterUnits="userSpaceOnUse" color-interpolation-filters="sRGB">
<feFlood flood-opacity="0" result="BackgroundImageFix"/>
<feColorMatrix in="SourceAlpha" type="matrix" values="0 0 0 0 0 0 0 0 0 0 0 0 0 0 0 0 0 0 127 0"/>
<feOffset dy="4"/>
<feGaussianBlur stdDeviation="10"/>
<feColorMatrix type="matrix" values="0 0 0 0 0.258824 0 0 0 0 0.258824 0 0 0 0 0.258824 0 0 0 0.1 0"/>
<feBlend mode="normal" in2="BackgroundImageFix" result="effect1_dropShadow"/>
<feBlend mode="normal" in="SourceGraphic" in2="effect1_dropShadow" result="shape"/>
</filter>
</defs>
</svg>
