<svg width="594" height="550" viewBox="0 0 594 550" fill="none" xmlns="http://www.w3.org/2000/svg">
<path d="M481.545 501.744C486.547 502.087 491.548 502.469 496.546 502.891C511.768 504.179 526.961 505.836 542.125 507.863C555.93 509.71 589.732 511.787 593.792 520.489C596.514 526.329 571.746 526.268 566.27 528.097C557.537 531.015 548.728 533.615 539.843 535.898C520.235 540.935 500.354 544.177 480.361 546.464C444.751 550.537 408.777 551.374 373.121 547.482C351.173 545.086 328.946 540.619 307.71 533.492C296.759 529.834 286.04 525.418 275.62 520.273C271.372 518.169 249.338 509.086 259.779 501.949C261.606 500.699 264.141 500.631 266.233 500.606C304.105 500.145 266.912 475.552 304.626 474.049C338.559 472.703 447.653 499.424 481.545 501.744Z" fill="#DDD2DF"/>
<path d="M260.545 436.744C265.547 437.087 270.548 437.469 275.546 437.891C290.768 439.179 305.961 440.836 321.125 442.863C334.93 444.71 368.732 446.787 372.792 455.489C375.514 461.329 350.746 461.268 345.27 463.097C336.537 466.015 327.728 468.615 318.843 470.898C299.235 475.935 279.354 479.177 259.361 481.464C223.751 485.537 187.777 486.374 152.121 482.482C130.173 480.086 107.946 475.619 86.7099 468.492C75.7589 464.834 65.0398 460.418 54.6199 455.273C50.3724 453.169 28.3383 444.086 38.7793 436.949C40.6061 435.699 43.1414 435.631 45.2328 435.606C83.1047 435.145 45.9118 410.552 83.6264 409.049C117.559 407.703 226.653 434.424 260.545 436.744Z" fill="#DDD2DF"/>
<path d="M60.1862 310.1L60.0666 299.179C94.6972 297.879 129.33 294.977 163.961 294.353L164 301.696C156.831 302.304 149.698 302.933 142.418 303.844C114.852 307.419 87.4918 308.537 60.1862 310.1Z" fill="#015BA2"/>
<path d="M59.2865 310.305C86.5895 308.745 113.952 307.624 141.518 304.041C148.799 303.131 155.931 302.502 163.1 301.893L163.446 370.962C129.008 368.897 94.4944 367.697 59.9054 367.36L59.2865 310.305Z" fill="#00BCF8"/>
<path d="M56.4834 45.9342L56.0882 9.49121C67.2122 10.5781 78.2686 12.4165 89.8373 14.4318C114.363 18.2542 137.794 22.347 161.779 25.0617V27.3552C146.76 29.7318 132.121 31.7288 116.443 34.7634C95.909 38.7028 76.1806 42.6474 56.4834 45.9342Z" fill="#015BA2"/>
<path d="M162.18 103.595C126.99 106.736 92.0813 110.967 57.2557 116.383L56.98 91.041C92.2217 92.8248 127.11 95.5941 162.156 98.6676L162.18 103.595Z" fill="#015BA2"/>
<path d="M116.451 34.7607C132.128 31.7262 146.768 29.7292 161.787 27.3525L162.149 98.6679C127.102 95.5944 92.201 92.8251 56.9723 91.0413L56.4835 45.9342C76.1806 42.6474 95.909 38.7028 116.451 34.7607Z" fill="#00BCF8"/>
<path d="M57.2479 116.383C92.0735 110.967 126.982 106.736 162.172 103.595L162.492 167.042C127.58 164.939 92.6689 164.112 57.7601 163.324L57.2479 116.383Z" fill="#00BCF8"/>
<path d="M58.4856 230.079L58.0618 191.038C87.0939 185.916 115.994 182.067 146.396 176.718C151.857 175.964 157.213 175.21 162.518 174.214L162.791 228.61C127.963 230.217 93.2514 230.555 58.4856 230.079Z" fill="#00BCF8"/>
<path d="M58.561 236.982C93.3164 236.106 128.074 233.966 162.832 234.221L163.134 294.396C128.503 295.021 93.8702 297.933 59.2396 299.223L58.561 236.982Z" fill="#00BCF8"/>
<path d="M163.516 370.808L163.537 374.488C144.233 375.741 125.115 379.899 105.73 381.15C101.663 381.15 97.2272 381.15 93.1603 381.888C82.0051 383.188 71.0579 384.489 60.1757 385.677L59.9755 367.215C94.6165 367.548 129.13 368.746 163.516 370.808Z" fill="#015BA2"/>
<path d="M93.1604 381.888C97.2272 381.15 101.663 381.15 105.73 381.15C125.115 379.899 144.233 375.741 163.537 374.488L163.88 434.445L60.8987 452.166L60.1758 385.666C71.0632 384.475 82.0052 383.183 93.1604 381.888Z" fill="#00BCF8"/>
<path d="M162.801 228.609L162.83 234.22C128.074 233.96 93.3164 236.105 58.5584 236.982L58.483 230.078C93.2514 230.554 127.963 230.216 162.801 228.609Z" fill="#015BA2"/>
<path d="M58.0618 191.038L57.7601 163.332C92.669 164.112 127.58 164.946 162.492 167.05L162.528 174.214C157.213 175.21 151.851 175.964 146.406 176.718C115.994 182.067 87.094 185.915 58.0618 191.038Z" fill="#015BA2"/>
<path d="M69.1078 330.439L91.6835 364.649L86.7117 374.488L62.191 336.274L69.1078 330.439Z" fill="#E0A600"/>
<path d="M86.7118 374.488L54.0184 368.736L32.6415 330.413L62.1911 336.274L86.7118 374.488Z" fill="#FDBB00"/>
<path d="M161.722 14.2547L161.777 25.0589C137.792 22.3442 114.36 18.2514 89.8346 14.429C78.2659 12.4164 67.2121 10.578 56.0855 9.48844L55.9841 0L161.722 14.2547Z" fill="#00BCF8"/>
<path d="M55.9841 0.00439453L0 11.7421L6.92456 442.487L60.9013 452.181L55.9841 0.00439453Z" fill="#014880"/>
<path d="M103.06 174.214L100.964 230.224L89.52 230.274V174.214H103.06Z" fill="#E0A600"/>
<path d="M89.52 174.214L69.1078 178.848L71.006 230.214L89.52 230.274V174.214Z" fill="#FDBB00"/>
<path d="M55.9841 0.00292969L62.3054 0.855823L66.8273 451.158L60.9012 452.179L55.9841 0.00292969Z" fill="#00BCF8"/>
<path d="M205.028 489.818C192.52 487.64 179.887 486.024 167.186 485.367C154.486 484.71 141.691 485.12 128.953 485.196C117.717 485.262 106.655 485.302 95.5175 486.928C92.8747 487.31 90.2771 487.749 87.6645 488.217C86.4828 488.432 82.8697 488.471 82.1713 489.477C80.7668 491.485 88.4385 491.452 89.2389 491.481C93.266 491.636 97.3045 491.75 101.354 491.823C112.816 492.019 124.264 491.739 135.711 491.917C147.26 492.095 158.798 492.458 170.339 492.785C179.551 493.126 188.771 493.148 197.987 493.246C200.584 493.275 204.782 493.402 207.074 492.012C209.067 490.795 206.274 490.022 205.028 489.818Z" fill="#DDD2DF"/>
<path d="M176.63 476.233C176.015 471.985 174.758 467.855 172.901 463.984C171.962 462.039 170.85 460.182 169.581 458.435C168.476 456.919 166.297 453.431 163.989 454.635C162.703 455.308 162.391 457.375 161.96 458.629C161.4 460.324 160.919 462.043 160.516 463.784C159.698 467.145 159.218 470.578 159.081 474.034C159.004 476.944 159.395 479.943 161.283 482.289C163.287 484.707 165.825 486.627 168.697 487.897C170.521 488.728 172.641 489.867 174.686 489.926C177.801 490.014 177.104 485.785 177.125 483.535C177.152 481.092 176.986 478.651 176.63 476.233Z" fill="#002E74"/>
<path d="M148.821 458.456C148.089 465.291 148.078 473.299 143.618 479.08C141.682 481.591 139.091 483.341 136.161 484.533C135.546 484.784 130.207 486.877 130.151 485.676C129.848 479.101 131.768 472.628 134.878 466.884C136.849 463.246 141.674 453.822 146.643 454.153C149.207 454.326 149.05 456.333 148.821 458.456Z" fill="#002E74"/>
<path d="M163.371 342.298C154.269 340.434 150.661 350.784 149.258 357.644C145.765 374.583 143.215 391.704 141.62 408.926C140.699 419.149 141.021 429.43 140.584 439.672C140.177 449.277 139.613 460.621 135.184 469.326C133.104 473.408 137.006 477.485 140.776 474.59C146.299 470.359 147.591 462.671 149.297 456.373C153.936 439.235 157.67 421.732 161.118 404.316C163.445 392.522 165.184 380.686 166.846 368.788C167.645 363.028 168.462 357.228 168.851 351.426C169.152 347.296 167.815 343.206 163.371 342.298Z" fill="#F99863"/>
<path d="M190.564 338.045C187.281 334.85 181.558 341.68 180.139 343.954C177.918 347.509 176.749 351.642 175.54 355.618C172.899 364.304 170.696 373.109 168.931 382.031C165.701 398.155 163.841 414.522 163.371 430.959C163.137 439.177 163.255 447.394 163.725 455.61C164.095 461.963 163.781 470.767 167.043 476.463C168.542 479.078 172.22 480.601 174.499 477.874C177.364 474.45 175.769 467.923 175.772 463.811C175.772 458.241 175.967 452.674 176.358 447.112C177.58 429.598 181.516 412.614 184.296 395.327C185.691 386.657 187.579 377.547 189.028 368.376C190.476 359.205 191.025 350.172 191.273 340.903C191.31 339.891 191.289 338.751 190.564 338.045Z" fill="#F99863"/>
<path d="M207.186 320.113C205.351 328.032 203.226 335.941 200.819 343.773C200.521 344.75 200.212 345.725 199.906 346.702C198.188 347.274 196.457 347.796 194.713 348.281C186.312 350.595 177.673 351.935 168.966 352.275C164.163 352.464 159.354 352.358 154.565 351.958C153.923 351.905 153.289 351.849 152.653 351.783C151.559 351.674 150.466 351.542 149.375 351.386C149.279 350.955 149.191 350.523 149.108 350.089C147.54 342.417 146.377 334.668 145.625 326.874C144.003 309.908 144.135 292.819 146.019 275.88C146.962 267.422 148.24 258.952 150.24 250.678C151.228 246.569 152.264 242.45 153.593 238.429C154.464 235.806 155.278 233.05 156.439 230.491C156.668 229.99 156.911 229.497 157.166 229.013C157.947 229.252 158.732 229.479 159.518 229.694C160.977 230.094 162.447 230.445 163.957 230.722C173.489 232.47 183.29 232.093 192.66 229.617C195.083 228.979 197.471 228.217 199.815 227.332C201.012 226.88 202.192 226.397 203.357 225.884C203.748 226.632 204.111 227.396 204.451 228.177C206.049 231.809 207.178 235.715 208.179 239.425C209.706 245.063 210.848 250.799 211.599 256.592C214.379 277.773 211.99 299.401 207.186 320.113Z" fill="#4A154B"/>
<path d="M233.354 186.489C232.374 187.834 229.943 187.724 228.487 187.607C224.029 187.242 219.475 183.879 216.12 181.139C208.483 174.865 202.177 167.129 197.57 158.385C195.324 154.097 193.438 149.63 191.933 145.03C191.116 142.529 190.424 139.993 189.856 137.422C189.465 135.646 188.932 133.745 189.057 131.918C189.249 129.149 191.017 129.45 193.318 130.083C198.351 131.481 202.262 135.289 205.519 139.111C209.322 143.574 213.066 148.098 216.61 152.774C222.9 161.072 228.593 169.976 232.201 179.792C232.835 181.504 234.601 184.79 233.354 186.489Z" fill="#F5F5F5"/>
<path d="M183.478 135.111C182.318 131.72 180.927 128.412 179.316 125.21C177.114 120.862 174.022 116.929 172.718 112.162C171.869 109.072 170.781 106.053 169.464 103.132C168.665 101.329 166.971 100.187 165.131 99.6039C164.164 99.2976 160.293 98.2724 159.827 99.6545C159.752 99.9553 159.752 100.27 159.827 100.57C160.258 103.084 160.796 105.566 160.724 108.133C160.62 110.897 160.1 113.63 159.182 116.239C158.213 118.988 156.806 121.562 155.017 123.863C153.502 125.879 152.355 127.807 153.031 130.208C153.031 130.267 153.031 130.323 153.031 130.382C153.031 133.724 154.629 137.167 156.509 140.429C165.81 141.925 175.908 140.522 183.478 135.111Z" fill="url(#paint0_linear)"/>
<path d="M188.868 164.986C188.45 154.771 186.714 144.503 183.479 135.111C175.908 140.522 165.81 141.925 156.509 140.437C158.048 143.1 159.792 145.635 161.065 147.893C167.211 158.851 172.907 170.112 177.128 181.978C178.21 185.019 179.192 188.094 180.073 191.205C180.672 193.335 180.661 196.72 183.106 197.407C186.858 198.472 186.615 193.548 187.065 191.117C188.63 182.5 189.235 173.736 188.868 164.986Z" fill="#F5F5F5"/>
<path d="M172.71 154.808C169.722 148.463 166.851 142.058 163.552 135.862C161.866 132.693 160.09 129.575 158.117 126.568C157.427 125.503 156.605 123.514 155.337 123.282C153.912 123.016 151.875 125.002 150.914 125.823C145.029 130.855 139.168 135.904 133.384 141.054C131.93 142.351 129.472 143.853 129.198 145.965C129.052 147.107 129.973 148.361 130.468 149.315L132.569 153.325L136.769 161.348C138.1 163.91 139.416 166.496 140.795 169.039C141.594 170.498 142.457 171.888 143.349 173.262C144.904 177.089 146.355 180.944 147.343 184.979C148.724 190.584 149.41 196.339 149.388 202.112C149.343 219.554 142.76 236.777 131.28 249.897C138.848 257.22 150.898 258.853 160.894 257.194C171.796 255.383 181.62 248.569 186.69 238.676C193.347 225.705 189.411 211.341 186.866 197.918C184.011 182.817 179.242 168.693 172.71 154.808Z" fill="#FDBB00"/>
<path d="M201.584 189.897C200.119 180.13 199.589 170.266 199.669 160.397C199.725 153.189 200.468 145.89 199.206 138.74C198.609 135.353 198.084 131.801 195.054 130.163C189.869 127.359 183.825 126.142 179.002 122.691C178.133 122.059 177.3 121.379 176.507 120.654C177.367 122.603 178.978 126.214 179.17 126.661C180.109 129.069 180.924 131.523 181.612 134.014C183.075 139.188 184.055 144.487 184.541 149.842C185.526 160.688 185.606 171.587 185.106 182.465C184.6 193.734 183.652 205.084 184.272 216.366C184.778 225.574 186.775 235.347 194.343 241.413C201.317 247.005 211.213 248.505 219.715 246.081C219.771 246.076 219.824 246.055 219.868 246.02C219.913 245.986 219.946 245.94 219.965 245.887C210.504 228.586 204.502 209.357 201.584 189.897Z" fill="#FDBB00"/>
<path d="M165.349 208.177C167.309 206.313 167.198 203.224 166.897 200.758C166.609 198.407 165.946 196.33 165.11 194.157C164.415 192.559 163.906 190.863 163.294 189.415C161.776 185.83 160.365 182.203 158.9 178.595C156.237 172.005 153.497 165.281 149.473 159.385C145.077 152.944 139.538 146.337 131.762 144.079C128.98 143.28 128.128 146.595 128.034 148.675C127.699 156.911 129.85 164.596 133.238 172.026C136.777 179.791 140.518 187.556 145.543 194.487C149.966 200.588 155.795 207.046 163.232 209.322C164.023 209.124 164.751 208.73 165.349 208.177Z" fill="#F5F5F5"/>
<path d="M179.151 193.647C174.606 190.02 171.181 184.974 166.055 182.087C163.874 180.868 161.464 180.111 158.977 179.864C157.666 179.734 156.344 179.759 155.039 179.938C154.626 179.994 151.814 180.692 152.296 180.87C161.241 184.22 168.191 197.213 179.151 193.647Z" fill="#F99863"/>
<path d="M210.771 173.875C209.077 175.161 207.237 176.245 205.607 177.603C204.798 178.264 204.069 179.02 203.437 179.853C202.755 180.779 202.638 181.775 201.514 182.361C201.234 182.518 200.92 182.606 200.599 182.618C200.277 182.63 199.958 182.566 199.666 182.43C198.772 181.956 198.931 181.067 198.993 180.234C199.052 179.574 199.17 178.921 199.344 178.282C199.658 177.054 200.114 175.866 200.446 174.642C200.958 172.754 201.469 170.858 202.675 169.278C204.925 166.349 208.488 165.236 211.913 164.296C212.445 164.152 214.991 163.74 215.236 164.483C216.53 168.496 213.732 171.622 210.771 173.875Z" fill="#F99863"/>
<path d="M233.405 187.197C231.472 191.067 226.604 191.245 223.081 191.65C210.392 192.798 197.73 194.755 185.084 196.345C182.448 196.672 179.492 197.487 176.829 197.106C172.321 196.454 174.217 189.211 176.502 187.046C179.82 183.901 184.97 183.086 189.081 181.88C198.199 179.217 207.519 177.047 217.018 177.321C221.073 177.441 225.621 177.707 229.405 179.451C232.215 180.735 235.205 183.616 233.405 187.197Z" fill="#F5F5F5"/>
<path d="M200.627 183.743C199.227 186.845 197.073 189.75 194.9 192.347C190.25 197.904 184.402 202.175 177.932 205.395C175.606 206.574 173.192 207.571 170.713 208.377C168.268 209.15 165.387 210.047 162.841 209.397C162.293 209.293 161.791 209.022 161.403 208.622C160.428 207.475 162.016 205.784 162.679 204.894C163.703 203.527 164.774 202.196 165.893 200.9C169.443 196.838 173.384 193.135 177.66 189.846L178.336 189.314C181.449 186.96 184.853 184.941 188.264 183.056C189.877 182.164 191.523 181.346 193.193 180.566C194.458 179.975 195.802 179.157 197.203 178.968C200.422 178.518 201.983 180.731 200.627 183.743Z" fill="#F5F5F5"/>
<path d="M166.54 80.8837C166.055 82.1006 165.501 83.2803 164.993 84.4493C163.717 87.3785 161.949 90.0786 160.133 92.7042C159.502 93.6176 159.068 94.5683 158.003 94.8825C156.405 95.3485 154.541 95.3139 152.914 95.0955C149.814 94.6774 147.854 92.5285 146.568 89.8043C144.086 84.5851 143.524 77.6216 147.061 72.7379C148.784 70.3626 151.271 69.0098 154.117 68.4426C157.313 67.8222 161.262 67.7236 164.314 69.0072C168.713 70.8472 169.964 77.6056 166.54 80.8837Z" fill="#00112B"/>
<path d="M183.076 106.014C181.854 111.576 176.776 113.677 171.482 112.828C168.641 112.375 166.191 110.833 164.292 108.687C162.873 107.103 161.711 105.306 160.849 103.361C160.555 103.351 160.263 103.321 159.973 103.271C158.375 102.983 157.116 101.564 156.112 100.382C154.344 98.2912 151.46 93.5433 155.947 92.9015C158.003 92.6086 159.323 93.3276 160.141 94.651C160.407 94.888 160.644 95.1357 160.876 95.3913C161.056 93.8231 161.366 92.2724 161.802 90.7552C162.708 87.605 164.282 84.4095 167.395 82.937C172.8 80.3699 177.902 83.5095 180.632 88.2628C183.58 93.3862 184.328 100.259 183.076 106.014Z" fill="#F99863"/>
<path d="M169.762 84.1853C169.445 86.3821 167.232 87.5698 165.877 89.0956C164.953 90.1815 164.184 91.3904 163.592 92.6879C163.272 93.3509 162.982 94.0193 162.695 94.7064C162.487 95.199 162.309 96.1044 161.709 96.2641C161.448 96.3229 161.174 96.2841 160.94 96.155C160.082 95.7236 159.518 94.8661 158.647 94.4507C157.965 94.1519 157.25 93.9364 156.517 93.809C155.718 93.6465 154.89 93.4601 154.235 92.9488C152.586 91.676 152.411 89.2847 152.972 87.426C154.144 83.5648 158.32 80.3853 162.226 79.7755C165.195 79.3095 170.348 80.0178 169.762 84.1853Z" fill="#00112B"/>
<path d="M180.579 85.613C179.822 89.2025 171.33 84.3135 169.607 83.4826C167.797 82.6039 166.002 81.6692 164.26 80.6546C163.821 80.3884 163.363 80.1221 163.134 79.6561C162.37 78.1302 165.049 77.4885 166.023 77.3953C169.223 77.1036 172.433 77.8336 175.192 79.4803C176.906 80.5029 178.856 82.066 180.051 83.669C180.27 83.9381 180.43 84.2502 180.521 84.585C180.612 84.9199 180.632 85.2701 180.579 85.613Z" fill="#00112B"/>
<path d="M287.026 506.631C287.471 508.146 292.629 507.388 293.712 507.216C303.227 505.645 313.224 504.691 322.877 505.036C323.044 505.036 326.095 505.144 326.031 504.533C325.64 501.557 325.425 498.561 325.387 495.559C325.387 494.058 325.446 492.566 325.387 491.065C325.329 489.564 325.575 487.885 324.834 486.583C324.682 486.313 323.857 486.202 323.146 486.234C322.935 486.049 322.713 485.878 322.479 485.722C321.66 485.137 319.328 485.196 318.491 485.722C316.706 486.843 316.87 488.151 316.171 489.985C315.542 491.64 314.653 493.184 313.538 494.559C311.439 497.182 308.603 499.118 305.395 500.118C302.665 500.943 285.616 501.815 287.026 506.631Z" fill="#001433"/>
<path d="M295.988 378.226C296.749 372.415 298.812 367.154 304.265 362.344C309.158 358.038 314.458 354.216 320.089 350.933C331.605 344.204 343.294 341.608 355.951 338.217C369.439 334.607 382.787 331.59 396.793 330.274C412.242 328.811 428.533 325.358 443.993 328.603C448.458 329.539 453.023 332.878 453.034 337.442C453.034 339.865 451.765 342.091 450.401 344.084C434.344 367.409 402.882 369.246 377.409 374.071C365.911 376.245 351.126 376.631 341.292 383.519C328.278 392.63 331.078 410.899 331.59 424.656C331.848 431.544 332.494 438.408 332.845 445.281C333.194 452.256 333.237 459.269 333.466 466.253C333.714 474.001 335.242 481.799 332.913 489.388C332.588 490.445 329.51 490.354 328.773 490.371C327.155 490.415 324.969 490.532 323.541 489.655C319.738 487.343 315.217 485.833 310.723 486.313C310.196 486.369 304.356 486.688 304.538 485.57C305.161 481.822 306.603 476.986 305.693 473.22C304.622 468.793 301.705 464.545 300.45 460.036C297.817 450.597 297.126 440.74 296.647 431C296.003 418.173 295.661 405.336 295.622 392.489C295.59 387.384 295.412 382.647 295.988 378.226ZM394.856 337.264H394.906L394.769 337.29L394.64 337.313L394.856 337.264Z" fill="url(#paint1_linear)"/>
<path d="M230.376 503.839C231.201 504.743 232.655 504.717 233.772 504.758C237.989 504.892 242.167 505.082 246.354 505.635C250.283 506.165 254.178 506.916 258.022 507.885C261.241 508.693 264.257 509.424 267.519 508.427C270.714 507.444 270.287 504.421 270.834 501.609C271.206 499.705 271.712 497.832 272.136 495.951C272.429 494.646 272.997 493.294 273.269 491.945C273.686 491.764 274.058 491.494 274.361 491.155C274.664 490.816 274.89 490.416 275.024 489.982C275.194 489.397 271.586 489.783 271.382 489.818C270.119 490.011 268.885 490.359 267.707 490.854C267.066 490.996 266.434 491.176 265.814 491.392C264.187 491.977 263.611 493.148 262.578 494.417C260.31 497.194 257.036 498.359 253.551 498.493C246.281 498.786 237.869 497.449 231.183 501.15C230.124 501.759 229.395 502.745 230.376 503.839Z" fill="#001433"/>
<path d="M259.769 486.544C269.55 458.631 274.211 429.302 280.882 400.544C283.723 388.302 285.019 374.129 292 363.386C302.969 346.474 324.729 337.55 343.495 332.772C368.073 326.514 393.891 326.113 418.828 323.635C425.806 322.938 432.79 322.277 439.763 321.569C444.535 321.086 453.295 318.076 457.634 321.174C462.072 324.34 460.089 334.259 459.187 339.048C456.659 352.487 448.783 365.053 437.214 372.497C427.98 378.439 417.336 380.312 406.492 380.277C395.14 380.236 383.846 379.176 372.552 377.994C362.312 376.926 351.735 374.741 341.439 376.239C329.094 378.041 321.625 385.271 316.276 396.07C306.445 415.893 300.236 437.103 293.697 458.169C291.892 463.974 290.06 469.776 288.138 475.543C286.549 480.277 284.972 485.143 281.938 489.186C278.974 493.122 274.948 494.851 270.091 495.076C267.073 495.224 264.051 494.843 261.164 493.95C259.858 493.867 258.562 493.664 257.293 493.344C258.146 491.083 258.971 488.817 259.769 486.544Z" fill="url(#paint2_linear)"/>
<path d="M348.785 286.587C348.415 284.637 348.045 282.686 347.677 280.736C347.719 280.628 347.79 280.533 347.881 280.462C347.973 280.391 348.082 280.346 348.197 280.332C353.511 278.734 358.83 277.137 364.237 275.902C369.644 274.667 375.028 274.062 380.502 273.45C385.394 272.906 390.052 271.829 394.388 269.424C398.143 267.294 401.561 264.619 404.532 261.486C418.263 247.278 422.591 227.423 431.553 210.368C432.682 208.227 433.893 206.126 435.178 204.081C436.292 202.325 437.46 200.128 439.195 198.896C441.059 197.579 443.549 197.433 445.755 197.433C448.054 197.433 450.512 197.694 452.499 198.969C456.724 201.69 456.174 207.03 455.079 211.258C453.85 215.917 452.349 220.499 450.585 224.983C443.638 242.741 433.175 258.912 419.823 272.526C416.162 276.247 412.312 279.987 407.765 282.617C405.289 284.029 402.618 285.069 399.839 285.704C382.813 284.621 365.802 285.426 348.785 286.587Z" fill="url(#paint3_linear)"/>
<path d="M438.788 179.913C442.566 180.844 446.53 179.702 449.681 177.546C452.092 175.899 456.601 171.794 455.984 168.476C455.398 165.29 454.36 162.203 453.35 159.113C452.089 155.219 450.758 151.336 449.839 147.342C449.64 146.465 449.62 145.294 448.795 144.803C447.97 144.311 446.425 144.361 445.5 144.419C442.53 144.618 440.526 146.116 440.076 149.13C438.952 156.781 437.826 164.503 437.082 172.198C436.828 174.869 435.306 179.062 438.788 179.913Z" fill="url(#paint4_linear)"/>
<path d="M423.176 142.31C423.231 142.105 423.287 141.9 423.346 141.695C424.223 138.617 425.124 135.372 427.442 133.067C430.894 129.649 435.447 128.748 440.087 129.573C445.094 130.451 448.452 133.128 449.468 138.287C451.478 148.486 445.491 159.397 435.903 163.294C432.635 164.622 427.93 165.374 424.656 163.701C420.581 161.615 421.3 155.359 421.578 151.629C421.82 148.479 422.355 145.36 423.176 142.31Z" fill="#F99863"/>
<path d="M423.158 254.523C422.831 237.219 419.542 219.333 422.38 202.235C426.936 190.364 433.545 179.302 442.586 170.515C445.442 167.437 449.225 166.22 453.266 166C453.636 166.054 454.004 166.129 454.366 166.226C455.302 166.188 456.159 166.264 456.414 166.586C461.06 172.642 465.326 179.19 468.261 186.265C471.167 193.286 473.515 200.526 475.283 207.917C478.937 223.152 480.181 238.738 479.727 254.382C479.233 271.379 476.877 288.267 473.726 304.962C472.284 312.61 471.145 320.63 468.714 328.044C467.792 330.841 466.449 333.641 464.299 335.71C461.73 338.179 458.193 339.2 454.74 339.636C438.276 341.711 420.686 333.834 409.158 322.391C409.102 322.298 409.047 322.207 408.988 322.116C418.48 300.708 423.609 278.017 423.158 254.523Z" fill="#4A154B"/>
<path d="M396.632 274.679C399.113 275.902 402.484 275.832 405.144 275.492C407.133 275.276 409.016 274.484 410.562 273.213C414.073 270.308 417.23 266.776 420.282 263.403C432.729 249.604 442.844 233.758 452.742 218.09C458.008 209.733 463.415 197.585 458.231 187.98C453.813 179.787 443.894 177.236 435.268 179.202C423.471 181.905 417.88 198.864 413.354 208.461C404.951 226.282 398.724 244.873 394.043 263.988C393.136 267.724 392.495 272.634 396.632 274.679Z" fill="url(#paint5_linear)"/>
<path d="M337.088 229.144C341.749 234.5 346.678 239.617 351.858 244.473C356.51 248.832 361.355 252.975 366.393 256.899C371.227 260.659 376.002 264.474 381.163 267.775C388.021 272.163 395.807 276.362 404.239 275.353C406.381 275.095 408.526 274.282 409.989 272.699C412.821 269.63 411.326 265.677 408.763 262.988C393.8 247.372 375.484 235.136 355.989 225.917C352.896 224.454 349.652 222.587 346.202 222.21C341.284 221.669 339.677 225.276 337.088 228.691C336.877 228.84 336.877 228.992 337.088 229.144Z" fill="url(#paint6_linear)"/>
<path d="M420.247 130.82C420.54 126.966 423.673 125.261 427.187 124.866C431.869 124.345 435.587 125.521 439.643 127.704C441.808 128.874 443.955 128.582 446.319 128.962C448.006 129.212 449.635 129.758 451.132 130.574C451.858 130.978 452.832 131.452 453.374 132.119C453.915 132.786 454.149 133.825 454.687 134.559C455.153 135.197 455.738 135.633 455.986 136.405C456.317 137.432 456.226 138.69 456.004 139.723C455.524 141.935 453.558 143.732 453.21 145.821C453.052 146.778 453.233 147.828 453.172 148.802C453.058 150.073 453.04 151.35 453.119 152.623C453.26 154.18 454.339 156.72 453.017 158.025C451.89 159.133 449.251 159.084 447.82 158.99C446.466 158.902 445.14 158.578 444.479 157.267C443.601 155.511 443.601 152.878 444.324 151.093C445.275 148.752 447.147 146.93 447.147 144.258C447.147 143.059 446.434 141.73 445.234 141.289C443.546 140.665 442.583 142.675 442.308 144.016C442.305 144.035 442.294 144.053 442.279 144.065C442.308 144.375 442.323 144.688 442.34 144.993C442.364 145.373 440.117 145.335 439.897 144.993C438.896 143.427 438.03 141.564 436.535 140.499C435.83 139.998 435.102 139.536 434.382 139.059C433.726 139.163 433.065 139.229 432.401 139.258C430.11 139.396 427.693 139.164 425.572 138.249C422.403 136.876 419.972 134.524 420.247 130.82Z" fill="#424242"/>
<path d="M325.929 215.494C328.138 220.784 332.983 225.284 338.059 227.856C339.353 228.514 341.058 228.851 342.448 228.239C345.017 227.116 344.847 223.912 343.291 222.045C343.149 221.991 342.996 221.975 342.846 221.998C342.299 221.12 341.711 220.351 341.357 219.877C339.402 217.273 337.141 214.853 334.446 213.001C332.731 211.831 331.078 211.137 328.977 211.418C327.958 211.534 326.982 211.894 326.131 212.466C325.019 213.294 325.446 214.332 325.929 215.494Z" fill="#F99863"/>
<path d="M341.468 210.163C341.822 209.765 342.147 209.669 342.346 210.207C342.568 210.792 342.346 211.644 342.346 212.255C342.351 213.175 342.41 214.093 342.521 215.006C343.027 219.131 345.74 223.523 343.44 227.561C343.402 227.625 343.276 227.657 343.118 227.669C342.942 227.824 342.736 227.941 342.512 228.011C342.19 228.122 341.848 228.165 341.507 228.138C341.167 228.112 340.836 228.016 340.534 227.856C340.4 227.768 341.284 227.681 341.351 227.684C342.91 227.745 340.022 219.687 339.85 219.152C339.281 217.349 339.234 215.422 339.712 213.593C339.823 213.233 340.716 211.009 341.468 210.163Z" fill="#F99863"/>
<path d="M319.615 284.642C322.801 282.904 326.005 281.195 329.203 279.481C331.309 278.354 333.246 276.955 335.704 276.982C338.463 277.011 341.158 278.228 343.774 278.936C347.144 279.843 350.36 279.615 353.695 279.483C354.075 279.445 354.458 279.434 354.839 279.451H355.249C355.266 280.692 355.372 281.906 355.492 283.158C355.533 283.574 355.536 284.004 355.544 284.434C355.155 284.464 354.764 284.472 354.374 284.457C347.89 284.274 341.409 284.346 334.932 284.674C331.824 284.826 328.726 285.063 325.624 285.323C323.617 285.49 321.666 285.502 319.737 284.87C319.708 284.847 319.454 284.73 319.615 284.642Z" fill="#F99863"/>
<path d="M435.365 173.444C437.22 170.79 439.944 168.871 442.741 167.241C444.801 165.99 447.002 164.987 449.298 164.254C451.602 163.521 454.045 163.335 456.434 163.71C456.967 165.27 457.5 166.82 458.035 168.359C452.341 168.335 446.384 169.111 441.702 172.353C440.06 173.517 438.589 174.906 437.331 176.478C436.345 177.701 435.436 178.986 434.61 180.323C434.398 179.048 434.088 177.792 433.683 176.566C434.126 175.466 434.691 174.419 435.365 173.444Z" fill="#F5F5F5"/>
<path d="M492.531 387.021L520.543 511.572H515.18L483.048 387.021H492.531Z" fill="#8283A8"/>
<path d="M430.789 388.782L435.271 518.463H430.066L421.47 387.021L430.789 388.782Z" fill="#8283A8"/>
<path d="M348.057 381.798L316.13 507.57L321.218 508.673L357.537 382.059L348.057 381.798Z" fill="#8283A8"/>
<path d="M406.08 385.859L374.153 511.627L379.238 512.733L415.56 386.119L406.08 385.859Z" fill="#8283A8"/>
<path d="M429.145 381.798L337.805 374.176L336.833 382.105L425.432 392.243L429.145 381.798Z" fill="#999BC7"/>
<path d="M567 239.062H510.835L429.145 381.798L510.238 382.105L567 239.062Z" fill="#8283A8"/>
<path d="M510.238 382.106L505.94 392.244H425.432L429.145 381.798L510.238 382.106Z" fill="#8283A8"/>
<defs>
<linearGradient id="paint0_linear" x1="60893.2" y1="39059.9" x2="59049.7" y2="43335.3" gradientUnits="userSpaceOnUse">
<stop stop-color="#E88E5C"/>
<stop offset="0.13" stop-color="#F0935F"/>
<stop offset="0.36" stop-color="#F79762"/>
<stop offset="1" stop-color="#F99863"/>
</linearGradient>
<linearGradient id="paint1_linear" x1="374.303" y1="327.256" x2="453" y2="397.5" gradientUnits="userSpaceOnUse">
<stop stop-color="#424242"/>
<stop offset="1" stop-color="#4A154B"/>
</linearGradient>
<linearGradient id="paint2_linear" x1="358.855" y1="319.792" x2="358.855" y2="495.107" gradientUnits="userSpaceOnUse">
<stop stop-color="#424242"/>
<stop offset="1" stop-color="#4A154B"/>
</linearGradient>
<linearGradient id="paint3_linear" x1="401.769" y1="197.433" x2="427" y2="362" gradientUnits="userSpaceOnUse">
<stop stop-color="#F5F5F5"/>
<stop offset="1" stop-color="#E0E0E0"/>
</linearGradient>
<linearGradient id="paint4_linear" x1="-30991.7" y1="42734.9" x2="-29847.3" y2="42957.3" gradientUnits="userSpaceOnUse">
<stop stop-color="#E88E5C"/>
<stop offset="0.13" stop-color="#F0935F"/>
<stop offset="0.36" stop-color="#F79762"/>
<stop offset="1" stop-color="#F99863"/>
</linearGradient>
<linearGradient id="paint5_linear" x1="426.851" y1="178.571" x2="426.851" y2="275.707" gradientUnits="userSpaceOnUse">
<stop stop-color="#F5F5F5"/>
<stop offset="1" stop-color="#E0E0E0"/>
</linearGradient>
<linearGradient id="paint6_linear" x1="374.226" y1="222.156" x2="374.226" y2="275.504" gradientUnits="userSpaceOnUse">
<stop stop-color="#F5F5F5"/>
<stop offset="1" stop-color="#E0E0E0"/>
</linearGradient>
</defs>
</svg>
