<svg width="584" height="367" viewBox="0 0 584 367" fill="none" xmlns="http://www.w3.org/2000/svg">
<path d="M579.077 332.375C577.378 336.154 575.158 339.861 571.54 342.079C568.805 343.756 565.555 344.627 562.432 345.244C554.039 346.897 545.297 347.38 536.802 348.353C517.886 350.521 498.955 352.617 480.011 354.64C442.329 358.605 404.573 362.027 366.742 364.117C328.969 366.2 291.075 367.005 253.257 365.565C234.933 364.871 216.629 363.466 198.341 362.15C149.552 358.634 100.608 354.164 51.6889 356.267C48.8277 356.39 45.9121 356.38 43.0611 356.719C41.0001 356.966 37.777 358.418 35.7773 358.009C35.3338 357.941 36.6591 353.095 37.0431 352.591C41.9703 346.112 51.7076 343.256 58.8589 340.018C67.9692 335.903 77.2194 332.118 86.6095 328.663C113.917 318.62 142.117 311.985 170.723 306.879C205.48 301.458 240.589 298.845 275.651 296.291C312.294 293.622 349.031 291.309 385.749 289.882C423.264 288.426 460.856 287.898 498.364 289.763C516.998 290.688 535.604 292.212 554.117 294.521C561.917 295.494 571.967 295.54 578.364 300.742C587.919 308.541 583.342 322.913 579.077 332.375Z" fill="#C5C7FF"/>
<path d="M301.995 244.264C300.414 235.424 298.069 226.739 294.984 218.306C284.206 230.466 272.65 242.339 258.397 250.139C244.144 257.939 226.672 261.247 211.451 255.562C235.217 259.431 260.708 250.047 276.291 231.691C281.273 225.824 285.347 218.948 286.676 211.372C288.987 198.177 282.736 184.952 274.925 174.067C267.115 163.183 257.525 153.449 251.565 141.446C247.863 158.582 244.032 175.948 235.863 191.459C227.694 206.97 214.516 220.664 197.668 225.515C218.427 213.608 234.367 193.552 241.274 170.635C244.385 160.317 245.705 149.21 243.119 138.749C239.487 124.058 228.645 112.244 217.054 102.514C205.463 92.7831 192.644 84.3321 182.757 72.889C197.806 114.432 193.038 162.675 170.148 200.469C182.66 170.656 191.587 138.048 186.34 106.144C181.094 74.2414 158.739 43.5158 127.164 36.5599C140.157 65.2076 143.625 98.0774 136.9 128.805C136.39 110.739 135.845 92.3295 132.859 74.7188C131.33 65.7258 129.052 56.8193 125.236 48.5076C117.862 32.4431 103.488 18.4344 85.9214 16.5077C97.0383 38.8723 101.255 64.6095 97.8555 89.3545C94.8431 70.094 91.5521 50.4462 82.2718 33.2977C72.9916 16.1492 56.482 1.69535 37.0516 0.113536C26.6076 -0.735989 14.8144 3.15824 10.2576 12.5931C4.58107 24.3556 12.3423 37.9752 20.4145 48.2425C66.7799 107.269 133.687 150.595 167.416 217.648C128.763 157.923 75.1579 107.952 12.8792 73.5686C38.9766 94.0149 64.5575 115.598 84.9801 141.712C105.403 167.827 120.54 198.97 123.115 232.027C125.691 265.084 114.455 300.026 89.5217 321.869C153.489 310.352 219.703 298.881 282.86 314.236C285.949 314.987 289.194 315.8 292.256 314.949C298.372 313.25 300.833 306.033 301.968 299.794C305.285 281.433 305.294 262.628 301.995 244.264Z" fill="#2EB67D"/>
<path d="M218.92 227.876C221.395 217.925 223.871 207.972 230.213 199.619C232.876 196.004 236.145 193.134 239.747 190.703C227.529 179.19 213.654 169.574 198.584 162.177C195.95 168.112 194.287 174.58 192.917 181.081C191.65 187.31 192.098 193.62 193.855 199.628C189.818 192.239 186.563 184.561 185.656 176.025C184.995 169.498 184.926 162.926 185.45 156.387C170.906 150.669 155.632 147.021 140.074 145.547C139.671 156.854 142.218 168.272 147.779 178.186C140.813 169.828 136.839 159.933 132.98 149.642C132.398 148.117 131.897 146.563 131.481 144.985C129.868 144.921 128.255 144.882 126.641 144.867C115.038 144.771 91.7083 146.261 85.3012 158.485C79.8184 168.95 91.8035 192.66 99.0975 200.357C108.118 209.871 121.404 213.713 133.065 219.714C134.764 220.587 136.431 221.514 138.065 222.494C139.703 219.993 141.555 217.64 143.601 215.461C144.11 214.919 144.088 214.129 144.6 213.592C150.837 206.164 158.022 199.895 166.857 195.684L167.399 196.194C161.714 200.049 156.167 204.032 151.846 209.426C147.853 214.391 144.95 219.83 142.841 225.567C154.394 233.514 164.077 243.882 171.215 255.951C179.587 246.172 192.428 242.977 205.225 242.119C205.489 242.119 206.007 241.832 206.398 241.69C202.631 243.513 198.434 244.162 194.661 245.721C189.976 247.702 185.984 250.849 182.128 254.123C179.41 256.538 176.785 258.981 174.247 261.485C177.099 267.112 179.368 273.017 181.017 279.106C184.415 291.728 185.892 306.267 196.016 314.538C204.111 321.151 215.972 321.645 225.769 318.001C235.565 314.356 243.622 307.166 250.714 299.481C261.642 287.651 271.189 273.511 272.87 257.494C274.995 237.235 264.174 217.736 250.853 202.328C249.773 201.082 248.672 199.849 247.55 198.629C235.613 205.676 225.357 215.448 218.92 227.876Z" fill="#00BCF8"/>
<path d="M509.872 28.8852C505.546 27.2024 500.988 26.1967 496.356 25.9034C483.937 25.1117 471.641 28.87 460.287 33.9569C433.136 46.1187 410.07 65.7903 388.777 86.5646C370.891 104.016 353.839 122.584 340.818 143.919C327.796 165.254 318.917 189.57 318.494 214.554C318.071 239.539 326.719 265.159 344.573 282.64C350.915 288.852 358.619 294.102 367.369 295.6C375.389 296.975 383.581 295.109 391.439 293.003C430.161 282.611 468.787 264.771 493.022 232.829C498.986 224.969 504.146 214.69 500.377 205.571C497.051 197.524 488.037 193.583 479.649 191.226C460.979 185.992 441.42 184.733 422.233 187.529L464.077 159.14C445.136 159.581 426.188 150.814 414.263 136.1C426.586 145.615 440.258 155.604 455.832 155.215C466.891 154.938 477.264 149.258 485.339 141.697C493.415 134.136 499.519 124.756 505.543 115.476C484.084 123.291 459.607 122.454 438.734 113.182C455.604 117.448 473.415 120.525 490.3 116.322C507.186 112.118 522.897 98.9609 525.168 81.707C506.166 90.9006 484.039 93.4712 463.437 88.8804C476.598 91.813 493.591 87.8083 505.979 83.418C517.388 79.3742 528.374 75.7943 530.899 62.8221C532.175 56.262 531.069 49.1549 527.671 43.3849C523.685 36.6346 517.217 31.7634 509.872 28.8852Z" fill="#2EB67D"/>
<path d="M481.45 218.748C484.089 217.249 487.264 215.83 490.044 217.049C492.497 218.124 493.744 221.012 493.693 223.69C493.642 226.368 492.552 228.905 491.485 231.36C500.603 213.565 519.249 201.025 539.168 199.29C544.043 198.865 549.533 199.28 552.888 202.833C557.014 207.191 556.054 214.439 552.951 219.577C548.821 226.417 541.834 230.914 535.431 235.696C529.027 240.477 522.659 246.294 520.831 254.074C526.509 252.611 532.367 251.137 538.169 251.976C543.972 252.815 549.765 256.563 551.157 262.259C552.494 267.719 549.526 273.369 545.693 277.482C537.014 286.796 524.011 290.964 511.328 292.07C498.644 293.176 485.898 291.599 473.169 291.299C461.964 291.034 450.357 291.808 439.918 296.226C437.03 297.451 432.73 301.14 429.675 298.639C427.284 296.681 427.865 291.616 428.234 289.019C430.823 270.745 443.383 252.022 455.793 238.929C463.303 230.974 471.949 224.173 481.45 218.748Z" fill="#00BCF8"/>
<path d="M572.037 270.796C567.186 281.132 554.536 285.779 543.139 285.109C531.742 284.44 521.075 279.611 510.347 275.685C495.355 270.197 479.333 266.33 463.488 268.289C447.642 270.248 431.974 278.88 424.81 293.144C434.694 284.426 451.079 284.771 463.807 288.19C476.535 291.608 488.336 298.024 501.171 301.014C522.091 305.887 545.093 300.895 562.109 287.787C567.634 283.536 572.663 277.742 572.037 270.796Z" fill="#2EB67D"/>
<path d="M394.418 210.641C394.459 205.518 394.917 200.161 397.627 195.814C400.337 191.466 405.924 188.521 410.71 190.356C415.204 192.079 418.142 197.477 422.953 197.547C428.63 197.63 431.26 190.535 431.669 184.873C432.197 177.568 431.743 170.225 430.32 163.041C428.638 154.545 425.592 146.05 426.793 137.473C427.994 128.896 435.616 120.337 444.086 122.116C449.231 123.196 453.055 127.802 454.709 132.794C456.362 137.786 456.238 143.158 456.087 148.425C455.86 156.735 455.628 165.045 455.39 173.355C455.349 174.859 455.346 176.492 456.239 177.698C457.991 180.041 461.872 179.117 463.931 177.039C465.99 174.961 467.132 172.088 469.293 170.117C473.165 166.585 479.64 167.02 483.735 170.287C487.83 173.554 489.733 179.005 489.763 184.246C489.794 189.488 488.178 194.595 486.311 199.492C480.704 214.209 472.719 227.886 464.777 241.487C457.038 254.74 445.435 276.86 428.314 279.23C410.377 281.711 402.6 256.123 398.854 243.018C395.837 232.493 394.343 221.59 394.418 210.641Z" fill="#00BCF8"/>
<path d="M419.559 315.639C406.442 294.773 408.62 266.824 420.213 245.074C431.805 223.325 451.484 206.96 472.357 193.853C485.011 185.908 498.32 178.915 510.098 169.727C521.875 160.538 532.252 148.726 536.538 134.41C539.257 149.623 542.485 165.629 540.769 180.986C538.582 200.571 529.385 219.045 516.314 233.791C503.244 248.537 486.462 259.715 468.464 267.741C458.99 271.965 449.027 275.426 440.664 281.562C430.227 289.219 422.85 300.931 420.456 313.657C420.012 312.474 420.23 316.708 419.559 315.639Z" fill="#FED337"/>
<path d="M456.782 308.791C456.91 307.578 456.91 306.355 456.782 305.143C455.959 297.533 452.418 290.499 448.551 283.891C444.339 276.697 439.485 269.589 432.56 264.95C425.635 260.312 416.195 258.609 408.904 262.653C405.846 264.352 402.874 267.071 399.406 266.579C395.668 266.054 393.568 262.138 390.782 259.585C385.175 254.445 376.039 254.958 369.508 258.859C362.977 262.76 358.52 269.303 354.592 275.819C341.775 270.414 325.401 275.588 318.013 287.372C315.539 291.319 314.026 296.335 315.83 300.625C316.318 298.83 317.209 297.17 318.434 295.771C319.66 294.372 321.189 293.27 322.905 292.551C330.579 289.403 336.54 296.561 344.085 295.949C347.869 295.638 351.587 294.004 354.144 291.158C356.847 288.149 358.221 284.204 360.406 280.794C362.591 277.384 366.173 274.291 370.193 274.749C376.834 275.501 379.507 284.902 386.047 286.302C390.529 287.255 394.69 284.049 398.959 282.37C407.054 279.183 416.56 281.67 423.538 286.864C430.516 292.058 435.362 299.597 439.439 307.28C440.754 309.757 442.044 312.32 444.076 314.246C446.108 316.173 449.081 317.388 451.756 316.54C454.916 315.534 456.409 312.247 456.782 308.791Z" fill="#00686D"/>
<path d="M48.0563 287.416C46.6614 288.115 45.2665 288.348 43.8716 288.811C39.9892 290.366 36.1596 292.094 32.4488 294.022C32.0669 295.956 32.2943 297.961 33.0996 299.76C35.6482 305.367 42.847 306.835 48.9925 306.945C67.0024 307.27 84.5944 302.164 102.302 298.87C120.009 295.575 138.986 294.221 155.418 301.588C158.986 303.187 164.691 306.777 168.646 304.415C170.254 303.454 171.003 302.329 171.181 301.153C169.773 300.443 168.404 299.658 167.08 298.8C130.583 274.864 86.6469 269.983 48.0563 287.416Z" fill="#2EB67D"/>
<path d="M168.376 295.17C161.68 288.245 149.313 283.424 140.563 279.843C121.097 271.874 99.8077 268.299 78.8125 269.8C65.0825 270.78 51.0127 274.078 40.2033 282.6C36.5657 285.47 33.2372 289.68 32.4489 294.021C36.1596 292.093 39.9893 290.365 43.8716 288.81C45.2665 288.347 46.6614 288.114 48.0563 287.415C86.6469 269.981 130.583 274.863 167.08 298.799C168.404 299.657 169.773 300.442 171.181 301.152C171.491 299.11 170.057 296.908 168.376 295.17Z" fill="#0061A3"/>
<path d="M97.7111 210.897C69.7702 190.898 37.9657 181.269 8.21531 201.408C-1.44039 207.946 -3.01711 218.609 5.80096 227.013C17.9339 238.578 36.9361 240.197 52.5724 242.292C85.0464 246.642 124.582 261.201 146.589 286.406C151.287 291.784 164.09 310.023 173.139 308.236C181.87 306.508 165.153 284.335 162.316 280.171C147.896 259.004 124.599 230.148 97.7111 210.897Z" fill="#2EB67D"/>
<path d="M132.576 296.164C135.673 290.19 142.994 286.322 149.427 288.299C142.041 274.048 142.06 256.203 149.474 241.968C151.498 238.084 154.402 234.197 158.649 233.133C163.114 232.013 167.867 234.453 170.797 238.004C173.728 241.555 175.215 246.046 176.642 250.424L184.368 274.145C188.938 261.853 196.614 250.955 206.649 242.513C210.61 239.192 215.093 236.205 220.191 235.347C225.288 234.489 231.097 236.222 233.822 240.614C237.015 245.76 235.118 252.516 232.347 257.9C229.576 263.284 225.918 268.577 225.721 274.629C235.973 269.464 247.182 264.72 258.567 266.193C269.952 267.666 280.966 277.714 279.406 289.088C278.599 294.978 274.649 300.062 269.891 303.623C262.208 309.366 252.537 311.68 243.078 313.275C229.587 315.551 215.923 316.648 202.242 316.555C191.737 316.483 180.97 315.674 170.716 318.495C163.631 320.444 156.954 324.662 149.648 325.755C134.771 327.984 126.378 308.122 132.576 296.164Z" fill="#00686D"/>
<path d="M436.009 326.474C435.01 327.609 432.818 327.725 431.437 328.032C429.434 328.476 427.432 328.929 425.431 329.378C424.469 329.565 423.485 329.604 422.512 329.493C422.095 329.456 421.113 329.454 420.874 328.984C415.176 317.756 410.067 306.239 405.567 294.479C397.551 273.568 391.611 251.918 387.832 229.844C385.95 218.875 384.675 207.81 384.015 196.701C383.693 191.153 383.44 185.582 383.44 180.023C383.44 177.211 383.61 174.382 383.736 171.568C383.801 170.16 383.875 168.751 383.959 167.339C384.032 166.131 383.809 164.422 384.526 163.432C384.614 163.311 384.91 163.234 385.296 163.194C385.633 162.207 386.131 161.282 386.77 160.458C387.763 159.208 389.319 158.688 390.838 158.438C393.545 158.001 397.033 157.85 399.598 159.043C401.046 159.722 402.042 161.015 402.996 162.256C403.989 163.553 404.867 164.934 405.618 166.384C408.821 172.535 409.806 179.617 410.251 186.45C410.77 194.446 410.612 202.454 410.634 210.46C410.654 218.122 411.009 225.751 412.239 233.324C413.39 240.367 414.933 247.342 416.861 254.213C420.768 268.163 426.103 281.651 430.283 295.516C432.354 302.383 434.16 309.337 435.397 316.414C435.702 318.147 435.97 319.885 436.201 321.628C436.393 323.049 437.064 325.269 436.009 326.474Z" fill="url(#paint0_linear)"/>
<path d="M427.625 167.747C426.518 170.244 427.018 173.404 428.065 175.736C428.944 177.675 429.926 180.303 431.303 181.905C432.02 180.071 431.409 177.245 430.409 175.646C432.082 178.398 434.555 181.544 436.797 184C438.218 182.693 438.264 177.062 437.538 175.346C436.876 173.777 435.463 172.525 434.798 170.926C433.998 169.002 432.053 162.289 428.607 166.206C428.196 166.676 427.865 167.195 427.625 167.747Z" fill="#F99863"/>
<path d="M415.391 128.66C419.234 141.036 420.289 153.976 423.123 166.549C423.132 166.588 423.142 166.627 423.151 166.664C423.774 166.9 424.403 167.125 425.04 167.329C426.245 167.597 427.459 167.809 428.683 167.966C430.062 168.027 431.441 168.027 432.82 167.966C433.839 167.839 434.848 167.676 435.846 167.478C435.912 167.266 435.975 167.052 436.029 166.836C436.495 164.967 436.559 163.047 436.59 161.12C436.599 160.599 436.605 160.077 436.616 159.557C436.701 155.524 437.521 151.601 437.728 147.553C437.973 143.241 437.934 138.917 437.613 134.61C436.942 126.217 435.08 117.947 432.422 109.974C428.238 97.3753 421.79 85.3376 414.766 74.1238C412.764 70.9228 410.676 67.779 408.501 64.6924C407.004 62.5703 405.071 58.7083 402.296 58.1375C393.898 56.4146 394.95 68.0378 395.444 72.9617C395.966 78.1472 396.246 82.9419 397.814 87.9881C399.253 92.618 401.201 97.0763 403.329 101.424C407.752 110.438 412.387 118.992 415.391 128.66Z" fill="url(#paint1_linear)"/>
<path d="M391.198 343.729C390.457 344.497 388.77 344.708 387.8 344.985C381.155 346.886 373.737 347.546 366.847 346.445C366.288 346.356 365.148 346.089 365.814 345.361C366.212 344.922 367.174 344.734 367.694 344.535C368.344 344.285 368.993 344.039 369.639 343.777C372.317 342.688 375.076 341.652 377.429 339.929C378.634 339.062 379.674 337.987 380.501 336.755C380.837 336.288 381.089 335.767 381.245 335.214C381.317 334.925 381.267 333.985 381.585 333.834C382.011 333.634 382.367 332.93 382.888 332.681C383.563 332.39 384.271 332.184 384.997 332.065C386.368 331.795 387.972 331.338 389.341 331.843C390.931 332.431 391.069 334.436 391.103 335.921C391.142 337.62 391.321 339.263 391.443 340.946C391.501 341.738 391.842 343.063 391.198 343.729Z" fill="#E01E5A"/>
<path d="M436.867 335.028C436.658 335.866 436.461 336.705 436.231 337.534C435.825 339.016 435.154 340.253 433.819 341.087C432.597 341.845 431.172 342.229 429.772 342.509C426.177 343.226 422.477 343.243 418.876 342.558C418.838 342.548 418.408 342.468 418.422 342.326C418.544 340.956 420.206 340.661 421.273 340.305C422.802 339.796 424.517 339.232 425.769 338.178C428.44 335.932 428.46 331.224 427.879 328.298C426.902 325.92 426.035 323.245 428.64 322.487C429.863 322.131 432.392 321.872 433.289 322.997C433.756 323.585 433.982 324.46 434.278 325.143C434.628 325.952 434.978 326.762 435.328 327.573C435.707 328.447 436.086 329.324 436.464 330.203C436.777 330.922 437.244 331.72 437.322 332.51C437.406 333.348 437.069 334.231 436.867 335.028Z" fill="#E01E5A"/>
<path d="M406.342 171.441C406.223 168.564 406.119 165.645 405.645 162.803C405.475 159.471 404.828 156.226 402.541 153.558C400.563 151.252 397.68 150.751 394.771 150.619C391.644 150.451 388.507 150.612 385.413 151.099C383.123 151.483 380.825 152.175 378.956 153.592C377.371 154.781 376.116 156.46 375.185 158.202C373.951 160.5 373.324 163.052 373.061 165.638C372.918 167.024 372.862 168.418 372.891 169.811C372.82 170.406 372.75 171 372.668 171.592C372.289 174.426 372.096 177.282 371.861 180.133C371.392 185.828 370.954 191.527 370.546 197.229C369.734 208.631 368.759 220.098 368.696 231.538C368.635 242.906 370.125 254.244 371.263 265.534C372.412 276.94 373.561 288.345 374.712 299.749C375.842 310.939 376.931 322.177 379.043 333.234C379.147 333.798 379.259 334.361 379.373 334.923C380.444 335.115 381.526 335.245 382.613 335.314C384.594 335.437 386.582 335.409 388.56 335.231C388.937 335.198 389.316 335.161 389.696 335.122C390.598 335.022 391.514 334.894 392.432 334.731C392.432 334.191 392.421 333.652 392.418 333.114C392.377 325.843 392.625 318.571 392.98 311.303C393.587 298.959 394.324 286.617 395.099 274.281C395.865 262.047 396.939 249.915 398.82 237.792C400.689 225.783 402.826 213.817 404.379 201.758C405.239 195.078 405.909 188.366 406.219 181.631C406.366 178.245 406.483 174.832 406.342 171.441Z" fill="url(#paint2_linear)"/>
<path d="M365.437 153.937C366.309 157.702 367.279 161.615 368.601 165.386C369.695 165.994 370.798 166.583 371.909 167.153C376.437 169.306 381.13 171.089 385.945 172.487C389.467 173.36 393.042 173.999 396.649 174.4C399.648 174.582 402.655 174.582 405.654 174.4C409.605 173.958 413.522 173.246 417.377 172.269C417.498 172.235 417.618 172.196 417.741 172.161C417.267 168.168 415.418 164.449 413.595 160.848C411.014 155.751 409.037 150.606 408.095 144.95C407.132 139.174 407.076 133.278 407.516 127.45C408.45 115.108 411.631 103.082 412.963 90.7948C414.05 80.7381 413.858 68.3418 406.119 60.7216C404.281 58.9096 401.994 57.6195 399.493 56.9837C395.6 56.0237 391.532 56.0237 387.639 56.9837C385.284 57.5816 383.156 58.859 381.522 60.657C379.997 61.7243 378.597 62.9612 377.351 64.3439C375.579 66.3646 373.934 68.4924 372.424 70.7154C369.531 74.973 367.164 79.5649 365.374 84.391C361.446 94.8691 360 105.893 360.184 117.047C360.394 129.472 362.637 141.85 365.437 153.937Z" fill="url(#paint3_linear)"/>
<path d="M393.361 76.0534C393.23 79.5398 392.542 83.2013 392.092 85.6768C389.846 98.0068 383.175 110.454 375.198 120.023C370.754 125.361 365.109 129.402 358.909 132.464C346.109 138.786 331.471 140.942 317.437 142.615C315.745 142.823 314.033 142.823 312.34 142.615C312.029 142.573 309.8 142.394 309.841 141.703C309.967 139.572 310.181 137.447 310.318 135.318C310.403 134.062 309.955 129.895 310.828 129.05C311.701 128.206 313.806 128.444 314.96 128.172C331.349 124.291 344.693 112.743 351.84 97.6942C356.448 87.9892 359.506 76.5461 368.567 70.1016C374.053 66.1938 387.562 60.2998 392.184 68.6897C393.212 70.5569 393.466 73.2482 393.361 76.0534Z" fill="url(#paint4_linear)"/>
<path d="M398.569 35.8533C396.766 40.1383 393.72 43.9289 389.346 45.7503C388.152 46.2472 386.878 46.5263 385.585 46.5743C384.365 46.6287 382.739 46.6694 381.677 45.9304C379.884 44.6799 380.107 41.7286 380.433 39.8766C381.029 36.4785 381.935 32.4671 384.001 29.4632C386.946 25.1934 397.515 22.266 399.537 28.9534C400.244 31.2642 399.468 33.7176 398.569 35.8533Z" fill="#F99863"/>
<path d="M384.64 60.0871C386.796 59.2222 389.341 59.3327 391.606 58.9096C393.342 58.5969 394.994 57.9276 396.458 56.9438C397.478 56.2778 398.404 55.3518 399.54 54.905H399.554C399.098 53.3981 398.728 51.8664 398.446 50.3175C397.702 45.9408 397.145 41.3856 397.643 36.9528C397.753 35.9741 395.42 37.4829 395.22 37.6477C392.649 39.7375 390.738 42.2963 388.492 44.6903C388.229 45.0037 387.926 45.2803 387.589 45.5126C387.491 45.5738 386.245 46.0223 386.257 45.9085C386.193 46.4963 386.154 47.0978 386.098 47.6772C385.729 51.495 385.566 55.6865 383.943 59.2307C383.682 59.8016 383.603 60.0633 383.642 60.6239C383.989 60.4218 384.523 60.1329 384.64 60.0871Z" fill="url(#paint5_linear)"/>
<path d="M402.971 27.6247C402.957 26.8924 403.034 26.3912 402.616 25.7558C402.31 25.2784 401.904 24.8727 401.426 24.5664C400.122 23.7373 398.628 23.6065 397.141 23.355C396.367 23.2496 395.623 22.9809 394.96 22.5667C394.205 22.0994 393.611 21.4011 392.838 20.9882C390.52 19.7496 386.065 19.8873 384.81 22.5701C384.325 23.6048 384.288 24.8043 384.495 25.9291C384.859 27.8983 385.664 30.1274 387.112 31.5529C387.554 31.9896 389.093 33.3369 389.791 33.1161C390.068 33.0317 390.336 32.9178 390.588 32.7763C390.758 32.6777 390.928 32.569 391.086 32.4585C391.936 32.0015 392.717 31.3966 393.431 32.3702C394.047 33.2197 394.127 34.3139 394.024 35.3146C393.959 35.9437 393.787 36.557 393.514 37.1275C392.952 37.8071 392.418 38.5207 392.073 39.3465C391.563 40.5732 390.884 42.155 392.019 43.2441C392.919 44.0936 394.557 44.0308 395.692 43.9033C397.276 43.7334 398.463 43.0164 399.315 41.6708C400.166 40.3251 400.348 38.813 400.908 37.3603C401.591 35.6347 402.164 33.8676 402.623 32.0695C403 30.5471 403 29.1658 402.971 27.6247Z" fill="#00112B"/>
<path d="M220.515 338.227C211.863 338.674 203.265 337.972 194.623 337.972C193.774 337.972 192.73 338.047 192.015 337.462C191.218 336.819 191.675 335.549 191.821 334.708C192.022 333.55 192.257 332.399 192.527 331.258C193.072 328.857 193.777 326.495 194.637 324.188C195.247 322.587 196.049 320.99 197.705 320.305C198.257 320.078 200.854 319.774 201.158 320.501C202.732 324.309 205.368 327.585 208.751 329.939C212.022 332.25 215.809 333.731 219.613 334.907C220.632 335.221 221.662 335.463 222.671 335.779C223.145 335.928 223.833 336.137 224.03 336.657C224.586 338.19 221.234 338.19 220.515 338.227Z" fill="#263238"/>
<path d="M250.225 344.881C250.213 345.206 248.904 345.128 248.735 345.121C242.219 344.808 235.706 344.455 229.195 344.102C226.364 343.949 223.532 343.81 220.7 343.685C219.261 343.624 216.463 343.643 216.053 341.803C215.912 341.172 216.097 340.523 216.261 339.898C216.868 337.563 217.182 335.16 217.193 332.747C217.204 330.346 217.873 329.294 220.476 328.902C223.939 328.382 225.376 331.721 227.688 333.686C232.628 337.885 238.945 339.451 244.939 341.545C246.417 342.066 250.289 342.698 250.225 344.881Z" fill="#263238"/>
<path d="M220.719 194.681C220.564 231.496 216.502 268.277 210.994 304.764C210.168 310.238 210.127 317.542 207.098 322.284C205.312 325.078 202.303 327.179 198.997 327.417C193.981 327.776 190.255 323.596 189.533 318.922C189.006 315.5 189.703 311.956 190.19 308.568C191.302 300.909 192.196 293.221 192.873 285.505C193.481 278.702 193.953 271.888 194.287 265.064C194.635 258.077 194.616 251.099 194.696 244.106C194.849 230.413 194.548 216.724 194.591 203.031C194.628 189.779 194.069 176.526 194.785 163.296C195.191 155.692 195.923 148.016 198.013 140.666C199.372 135.893 200.85 130.331 204.063 126.43C208.846 120.624 214.657 125.58 216.397 131.569C219.115 140.962 219.115 151.999 219.742 161.707C220.462 172.683 220.765 183.683 220.719 194.681Z" fill="url(#paint6_linear)"/>
<path d="M289.498 128.98C288.603 131.681 287.708 134.381 286.812 137.08C286.642 137.573 285.595 137.61 285.215 137.664C272.487 139.486 259.473 137.564 246.966 135.102C242.231 134.169 237.522 133.063 233.474 130.313C230.135 128.044 227.456 124.947 225.228 121.607C222.955 118.198 221.212 114.457 219.562 110.716C217.649 106.373 215.934 101.92 214.188 97.5073C210.511 88.2016 207.842 78.6121 207.561 68.5487C207.468 65.086 207.492 59.8614 210.914 57.8447C214.833 55.5255 221.135 58.4376 224.156 60.9794C230.524 66.3399 235.186 76.0602 238.598 83.5122C240.01 86.5858 241.376 89.6798 242.781 92.7584C245.605 98.9532 248.276 105.483 252.296 111.016C254.159 113.627 256.561 115.809 259.338 117.413C262.193 119.05 265.326 120.215 268.379 121.421C275.156 124.103 282.051 126.486 289.019 128.632C289.123 128.64 289.223 128.677 289.308 128.739C289.392 128.8 289.458 128.884 289.498 128.98Z" fill="url(#paint7_linear)"/>
<path d="M215.505 47L220 56L206 49.8153L206.256 47.7502C206.256 47.7502 212.665 49.091 215.505 47Z" fill="#FDBB00"/>
<path d="M239.801 240.373C238.411 256.267 236.25 272.091 234.459 287.946C233.555 295.945 232.685 303.933 232.388 311.981C232.244 315.855 232.239 319.703 232.281 323.579C232.313 326.554 232.176 330.185 229.732 332.285C228.62 333.239 227.199 333.79 225.769 334.067C223.269 334.551 220.471 334.577 217.995 333.939C214.48 333.032 213.84 329.838 213.281 326.686C211.933 319.064 211.177 311.352 210.785 303.625C210.389 295.87 209.915 288.114 209.595 280.358C209.276 272.602 209.033 264.837 208.775 257.081C208.52 249.367 208.083 241.645 207.12 233.986C206.177 226.456 204.524 219.075 202.532 211.764C200.563 204.55 198.249 197.436 196.178 190.252C195.169 186.757 194.216 183.242 193.393 179.696C192.979 177.956 192.7 176.187 192.557 174.404C192.416 172.567 192.34 170.729 192.284 168.887C192.068 161.471 192.403 154.275 194.251 147.047C195.909 140.567 197.403 129.377 203.975 126.006C208.77 123.541 216.594 125.225 219.982 129.481C222.053 132.087 223.72 135.105 225.335 138.003C228.626 143.916 231.253 150.182 233.385 156.599C237.711 169.614 239.871 183.274 240.831 196.923C241.838 211.421 241.063 225.915 239.801 240.373Z" fill="url(#paint8_linear)"/>
<path d="M208.417 47H215.239L216 56L205 49.0742L208.417 47Z" fill="#FDBB00"/>
<path d="M211.78 51.9249C211.687 52.7931 211.685 54.1116 211.019 54.7844C210.113 55.707 208.209 55.5592 207.037 55.5014C205.862 55.4498 204.697 55.2593 203.567 54.9339C202.558 54.6366 201.416 54.1948 200.701 53.381C199.985 52.5672 200.444 51.1994 200.473 50.2581C200.553 47.4252 200.192 44.5969 199.403 41.875C198.993 40.458 198.553 39.0495 198.12 37.6274C198.12 37.6104 198.108 37.5917 198.103 37.573C197.267 36.0779 196.723 34.457 197.017 32.6832C197.206 31.5533 197.843 30.3232 198.924 29.8203C200.283 29.1848 202.483 29.2307 203.871 29.7166C204.955 30.0955 205.638 31.1082 206.296 31.9866C209.799 36.683 211.768 42.3468 211.931 48.204C211.966 49.4463 211.916 50.6895 211.78 51.9249Z" fill="#F99863"/>
<path d="M217.141 30.9416C215.736 25.593 212.742 19.7499 207.045 18.0832C205.263 17.5917 203.409 17.4157 201.567 17.5633C199.975 17.6703 198.196 17.9506 196.966 19.0652C195.937 19.9929 195.284 21.4779 194.807 22.7522C194.783 22.8167 194.761 22.8796 194.739 22.9441C194.544 23.3117 194.404 23.7062 194.326 24.1148C194.21 24.8821 194.168 25.6587 194.2 26.434C194.185 26.7143 194.17 26.9981 194.149 27.2835C194.101 28.0667 194.193 28.8523 194.423 29.6027C194.621 31.3307 195.024 32.9787 196.122 34.4212C197.461 36.178 199.36 37.1907 201.458 37.804C205.336 38.939 209.452 39.7189 213.506 39.4368C213.783 39.4164 216.172 39.2244 216.583 38.7725C218.979 37.4387 217.688 33.0365 217.141 30.9416Z" fill="#F99863"/>
<path d="M219.764 31.4245C218.437 30.9148 216.597 30.9997 215.239 31.2733C214.188 31.4873 213.571 32.3454 212.489 32.0905C210.56 31.6352 208.982 30.1366 208.241 28.3254C207.561 26.6637 206.933 23.9385 208.261 22.4569C208.929 21.7127 209.825 21.8979 210.73 21.8503C211.649 21.8212 212.562 21.6832 213.449 21.4392C214.725 21.062 215.936 20.2991 216.442 19.0163C217.066 17.4328 216.373 15.5622 215.742 14.0891C215.173 12.7502 213.873 11.9279 212.445 11.8191C211.738 11.7661 211.029 11.8826 210.377 12.1589C209.68 12.458 209.264 13.1665 208.527 13.3296C206.827 13.7051 205.062 13.0679 203.343 13.1597C199.907 13.3483 197.123 14.507 194.892 17.1711C193.886 18.3724 192.736 19.684 192.204 21.1809C191.606 22.8664 191.735 24.7064 192.087 26.4293C192.426 28.057 192.936 29.7424 193.786 31.1866C194.569 32.517 195.709 33.6502 195.994 35.2185C196.264 36.6932 196.355 38.0712 198.05 38.5027C199.591 38.8952 201.71 38.7797 202.808 37.4833C203.844 36.2634 204.35 34.4828 203.487 33.0658C202.602 31.5995 201.567 30.2946 200.543 28.9541C200.13 27.7528 200.12 26.5754 201.525 25.7412C202.658 25.0751 203.598 26.431 204.413 27.3502C204.62 27.7443 204.828 28.1385 205.06 28.5191C205.247 29.0033 205.456 29.4774 205.677 29.9344C205.993 30.7551 206.399 31.5553 206.768 32.3522C207.618 34.1668 208.605 36.0204 208.858 38.0168C209.084 39.8212 210.601 40.0234 212.185 40.1508C214.2 40.3207 216.646 40.4159 218.498 39.4491C219.999 38.6675 220.692 37.0263 221.015 35.441C221.293 34.0818 221.325 32.0242 219.764 31.4245Z" fill="#424242"/>
<path d="M311.864 137.551C310.658 141.447 306.36 144.687 302.212 143.727C301.12 143.474 300.413 142.76 299.611 142.028C298.802 141.281 297.923 140.616 296.984 140.041C294.741 138.672 292.356 138.071 289.795 137.603C288.006 137.277 284.996 137.017 284.224 135.029C283.438 133.014 284.963 130.442 286.989 129.893C287.658 129.716 288.364 129.728 289.028 129.929C289.678 130.127 290.373 130.211 291.036 130.406C292.378 130.804 293.737 131.446 295.137 131.607C296.497 131.765 298.026 131.098 299.375 130.901C300.705 130.715 302.054 130.707 303.386 130.875C305.547 131.166 307.644 131.818 309.588 132.805C311.492 133.774 312.529 135.405 311.864 137.551Z" fill="#F99863"/>
<path d="M234.971 124.831C231.948 132.402 225.796 139.189 217.81 140.839C208.764 142.708 199.333 137.463 194.059 129.88C188.785 122.298 187.008 112.819 186.486 103.598C185.771 90.877 187.166 77.7926 191.465 65.7582C192.573 62.6517 193.87 59.6156 195.347 56.6666C196.598 54.1673 197.817 51.4726 200.524 50.2544C202.393 49.4049 205.676 49.7821 207.674 50.0573C213.196 50.8134 218.226 54.1061 221.776 58.3079C226.533 63.9283 229.09 71.0321 231.423 78.0169C232.356 80.8033 233.266 83.605 234.099 86.4272C235.53 91.2831 236.722 96.2018 237.359 101.219C238.362 109.149 237.935 117.401 234.971 124.831Z" fill="url(#paint9_linear)"/>
<path d="M187.999 186.904C188.045 187.11 186.406 187.175 186.235 186.956C185.956 186.595 185.699 186.23 185.453 185.858C185.49 186.482 185.49 187.108 185.453 187.732C185.439 187.962 184.237 187.915 184.113 187.771C183.723 187.318 183.361 186.841 183.028 186.345C183.071 186.843 183.104 187.327 183.121 187.822C183.129 188.063 181.704 188.041 181.564 187.865C180.936 187.102 180.391 186.272 179.94 185.39C179.94 185.525 179.925 185.656 179.919 185.79C179.906 186.001 178.753 185.983 178.654 185.79C177.223 182.998 176.786 179.636 176.511 176.539C176.361 174.812 176.389 173.096 176.361 171.364C176.34 170.162 176.265 168.961 176.272 167.762C175.977 166.73 175.646 165.539 176.907 165.191C177.945 164.925 179.035 164.937 180.067 165.227C180.716 165.427 181.304 165.787 181.779 166.275C181.881 166.265 181.984 166.283 182.077 166.326C183.642 168.106 184.809 170.126 185.727 172.316C186.187 173.422 186.592 174.544 186.944 175.682C187.259 176.7 187.933 178.137 187.458 179.15C187.351 179.381 186.322 179.357 186.171 179.187C185.979 178.969 185.821 178.723 185.702 178.458C186.61 181.232 187.377 184.051 187.999 186.904Z" fill="#F99863"/>
<path d="M211.039 58.1512C210.983 56.4522 210.722 54.85 210.158 53.4822C204.44 39.5942 184.016 67.0746 181.033 71.6961C171.433 86.6205 166.204 103.934 165.936 121.677C165.833 129.217 166.891 136.659 168.038 144.093C168.777 148.882 169.722 153.607 171.144 158.241C171.87 160.612 172.655 162.966 173.499 165.3C174.213 167.273 175.298 168.528 177.463 168.797C178.977 168.99 180.795 169.075 182.249 168.535C183.438 168.095 182.986 167.155 182.929 166.112C182.794 163.606 182.84 161.076 182.781 158.567C182.661 153.542 182.494 148.521 182.28 143.505C182.086 138.776 181.884 134.002 182.589 129.301C183.292 124.64 185.103 120.379 187.309 116.243C191.762 107.884 196.993 99.9632 201.362 91.5529C204.49 85.5229 207.104 79.1974 208.744 72.5932C209.706 68.7006 211.201 62.9884 211.039 58.1512Z" fill="#FDBB00"/>
<path d="M213 48.0284C212.91 48.302 212.823 48.5779 212.74 48.8537C212.006 51.3194 211.496 53.8669 211.219 56.4547C211.125 57.3017 211.049 58.1501 210.993 59C210.346 58.2829 209.663 57.6107 208.948 56.9868C208.777 56.8369 208.602 56.6914 208.421 56.5525C206.925 55.3601 205.34 54.3258 203.683 53.4621C202.742 52.9713 201.578 52.3176 200.41 51.8615C199.637 51.5343 198.823 51.3532 198 51.3251C198.064 51.1622 198.132 51.0015 198.188 50.8473C198.305 50.5693 198.418 50.3066 198.519 50.0611C198.936 49.0361 199.306 47.99 199.631 46.923C199.725 46.6189 199.819 46.3084 199.9 46C200.608 46.2693 201.321 46.5198 202.039 46.7514C203.831 47.3355 205.662 47.7473 207.513 47.9828C208.77 48.1302 210.035 48.1795 211.298 48.1305C211.873 48.1153 212.436 48.0762 213 48.0284Z" fill="#FED337"/>
<path d="M314.356 139.484C312.799 141.044 310.097 140.586 308.367 141.989C306.889 143.181 305.918 145.269 303.929 145.736C302.214 146.131 300.174 146.027 298.446 145.788C296.435 145.511 294.897 144.767 293.601 143.209C292.885 142.357 292.792 141.707 293.413 140.746C294.042 139.805 294.736 138.906 295.489 138.057C296.965 136.354 298.671 134.805 300.679 133.723C302.41 132.79 304.242 132.141 306.216 132.02C308.581 131.881 310.83 132.501 313.169 132.683C313.211 132.685 313.253 132.691 313.294 132.7C314.678 132.589 316.099 132.61 316.754 133.863C317.721 135.741 315.605 138.226 314.356 139.484Z" fill="#F99863"/>
<path d="M404.06 60.4318C397.499 59.6677 390.947 60.7737 384.558 62.3018C383.595 62.531 382.603 62.8862 381.624 62.997C381.384 63.0238 380.111 62.8576 380 62.9798C381.188 61.6428 382.807 60.7909 384.331 59.9504C385.913 59.0775 387.537 58.2753 389.19 57.5552C392.697 56.0496 396.337 54.9114 400.056 54.1571C400.627 54.0368 402.451 53.7751 402.812 54.4073C403.884 56.3021 404.944 58.2014 405.993 60.1052C406.135 60.3611 404.082 60.4356 404.06 60.4318Z" fill="url(#paint10_linear)"/>
<defs>
<linearGradient id="paint0_linear" x1="410.014" y1="158.117" x2="354" y2="211" gradientUnits="userSpaceOnUse">
<stop stop-color="#424242"/>
<stop offset="1" stop-color="#1E2235"/>
</linearGradient>
<linearGradient id="paint1_linear" x1="340" y1="159" x2="489.5" y2="224" gradientUnits="userSpaceOnUse">
<stop stop-color="#E01E5A"/>
<stop offset="1" stop-color="#C00D45"/>
</linearGradient>
<linearGradient id="paint2_linear" x1="387.55" y1="150.555" x2="387.55" y2="335.389" gradientUnits="userSpaceOnUse">
<stop stop-color="#424242"/>
<stop offset="1" stop-color="#1E2235"/>
</linearGradient>
<linearGradient id="paint3_linear" x1="139381" y1="188241" x2="161796" y2="176845" gradientUnits="userSpaceOnUse">
<stop stop-color="#E01E5A"/>
<stop offset="1" stop-color="#F15749"/>
</linearGradient>
<linearGradient id="paint4_linear" x1="351.612" y1="64.4189" x2="351.612" y2="142.771" gradientUnits="userSpaceOnUse">
<stop stop-color="#E01E5A"/>
<stop offset="1" stop-color="#BC0B42"/>
</linearGradient>
<linearGradient id="paint5_linear" x1="386.098" y1="46.7631" x2="400.796" y2="52.878" gradientUnits="userSpaceOnUse">
<stop stop-color="#E88E5C"/>
<stop offset="0.13" stop-color="#F0935F"/>
<stop offset="0.36" stop-color="#F79762"/>
<stop offset="1" stop-color="#F99863"/>
</linearGradient>
<linearGradient id="paint6_linear" x1="205.034" y1="123.843" x2="205.034" y2="327.439" gradientUnits="userSpaceOnUse">
<stop stop-color="#4A154B"/>
<stop offset="1" stop-color="#4A154B"/>
</linearGradient>
<linearGradient id="paint7_linear" x1="296.5" y1="115.5" x2="224.173" y2="69.3659" gradientUnits="userSpaceOnUse">
<stop stop-color="#FED337"/>
<stop offset="1" stop-color="#FDBB00"/>
</linearGradient>
<linearGradient id="paint8_linear" x1="216.759" y1="124.862" x2="241" y2="445" gradientUnits="userSpaceOnUse">
<stop stop-color="#4A154B"/>
<stop offset="1" stop-color="#963298"/>
</linearGradient>
<linearGradient id="paint9_linear" x1="70757.9" y1="127613" x2="87527.5" y2="118534" gradientUnits="userSpaceOnUse">
<stop stop-color="#FED337"/>
<stop offset="1" stop-color="#FDBB00"/>
</linearGradient>
<linearGradient id="paint10_linear" x1="380" y1="58.4988" x2="406" y2="58.4988" gradientUnits="userSpaceOnUse">
<stop stop-color="#D0154F"/>
<stop offset="1" stop-color="#E01E5A"/>
</linearGradient>
</defs>
</svg>
