<svg width="186" height="296" viewBox="0 0 186 296" fill="none" xmlns="http://www.w3.org/2000/svg">
<path d="M40.026 181.414C45.9458 191.525 53.5385 200.776 63.2512 207.279C65.3062 208.66 67.5775 210.953 69.8489 208.895C71.291 207.587 72.1851 203.494 72.834 201.672C74.7635 196.21 76.0653 190.539 76.7133 184.772C79.4822 160.141 68.9043 140.434 53.8126 122.167C41.6195 107.398 27.1335 91.7978 20.7666 73.2441C20.0455 75.3016 19.4182 77.3664 18.8485 79.4532C16.1412 89.7433 15.1803 100.429 16.0075 111.05C16.9089 123.438 20.543 135.055 24.7252 146.65C29.0227 158.591 33.6158 170.487 40.026 181.414Z" fill="#2EB67D"/>
<path d="M80.8165 188.27C82.511 200.835 86.9022 212.687 91.4521 224.51C88.3505 212.114 86.093 199.514 84.6958 186.8C82.6768 167.982 82.821 148.708 90.1902 131.015C104.33 97.0081 139.532 82.2461 163.053 56.5281C170.011 48.8768 175.746 40.1587 180.048 30.6927C182.449 25.4095 183.978 19.8397 185.564 14.292C176.018 15.0268 167.062 16.5699 158.063 20.1704C139.453 27.6506 124.174 41.8101 113.012 58.5488C101.316 76.0444 94.1056 96.3836 88.9212 116.745C85.9868 128.168 83.7378 139.762 82.1865 151.464C80.6146 163.471 79.1797 176.175 80.8165 188.27Z" fill="#2EB67D"/>
<path d="M73.0719 237.523C75.2999 236.296 76.9368 232.174 78.9053 230.396L79.1936 230.139C77.7515 221.872 78.3067 212.503 78.1914 204.693C78.0255 193.759 78.1914 182.818 78.7394 171.906C79.8977 150.133 82.7526 128.489 87.2767 107.178C89.5913 96.2438 92.7567 85.457 94.545 74.413C96.2759 63.3292 96.0734 52.021 93.9465 41.009C91.2642 26.7025 85.8274 13.3954 80.5925 0C78.1868 12.3084 76.6924 24.7836 76.1219 37.3203C75.0259 61.7229 76.3167 86.1623 76.9728 110.565C77.6073 134.71 77.2251 158.577 74.4995 182.575C73.0574 195.309 70.7861 207.962 70.0146 220.785C69.8199 223.885 69.7046 226.994 69.7118 230.102C69.7262 232.541 68.6734 239.889 73.0719 237.523Z" fill="#00686D"/>
<path d="M91.5381 204.427C92.4119 200.616 94.2347 197.098 96.8307 194.214C103.854 186.564 115.405 185.683 124.952 187.85C137.52 190.738 149.014 198.226 162.317 196.337C169.052 195.382 175.628 192.546 181.403 188.93C182.866 187.995 184.268 186.964 185.6 185.844C183.58 186.108 181.541 186.189 179.507 186.087C159.873 185.132 146.115 167.717 128.644 160.744C118.859 156.82 108.88 157.804 102.549 166.982C97.0614 174.918 93.723 184.529 92.2304 194.074C91.6848 197.496 91.453 200.962 91.5381 204.427Z" fill="#00686D"/>
<path d="M79.3813 202.415C80.0158 206.346 80.3187 211.894 81.5445 216.773C81.7608 213.878 81.8185 210.954 82.0348 208.183C82.4314 203.326 82.8928 198.462 83.6139 193.656C85.1137 183.509 87.8032 172.913 93.5212 164.331C99.8377 154.852 109.384 148.268 116.595 139.575C120.921 134.329 124.757 128.686 128.615 123.079C123.048 124.806 117.331 124.806 111.483 125.452C104.176 126.198 97.3743 129.587 92.3099 135.005C81.8185 145.953 77.4993 161.134 77.2109 176.154C76.9946 184.927 77.9897 193.723 79.3813 202.415Z" fill="#2EB67D"/>
<path d="M0 163.294C0.754456 167.752 2.19254 172.062 4.26147 176.065C8.03259 183.192 13.6785 188.38 21.2928 190.834C28.0419 193.039 35.1299 193.817 41.8646 196.125C48.4622 198.388 54.5045 202.072 59.5809 206.926C57.0356 201.305 55.0455 195.287 51.296 190.276C44.1431 180.723 34.8703 177.321 23.6723 174.999C14.6374 173.133 6.40298 170.252 0 163.294Z" fill="#00686D"/>
<path d="M10.2462 204.067C12.2436 201.429 15.748 199.776 19.9589 198.762C30.8613 196.146 46.5082 197.851 52.9616 197.968C66.2723 198.211 79.6408 198.057 92.9659 198.505C103.616 198.865 114.273 199.115 124.923 199.504C131.607 199.747 144.471 197.704 149.367 203.435C151.53 205.948 151.977 209.608 151.35 212.877C147.745 231.799 139.092 259.589 124.094 277.393C117.496 285.233 109.673 291.148 100.472 293.499C89.2524 296.373 77.6146 295.91 66.1714 295.19C57.0789 294.624 45.5853 295.388 37.7113 289.87C30.5729 284.866 24.7972 275.056 20.8963 267.377C15.2864 256.355 12.4094 243.482 10.5275 231.284C9.43146 224.186 5.52332 210.342 10.2462 204.067Z" fill="#963298"/>
</svg>
