<svg width="203" height="472" viewBox="0 0 203 472" fill="none" xmlns="http://www.w3.org/2000/svg">
<path d="M150.073 269.497L148.542 323.974C105.62 324.872 62.6252 327.019 19.6767 328.747C20.1772 311.33 20.6927 293.977 21.2234 276.688C63.4057 277.154 107.888 269.032 150.073 269.497Z" fill="#00BCF8"/>
<path d="M146.176 408.255C145.624 427.97 145.071 447.685 144.517 467.399C101.125 466.304 59.0893 467.731 15.7002 466.632C16.2808 447.928 16.8378 429.125 17.3712 410.223C60.2989 409.382 103.234 408.726 146.176 408.255Z" fill="#00BCF8"/>
<path d="M19.6765 328.744C62.6248 327.01 105.62 324.869 148.541 323.97C147.755 352.059 146.967 380.148 146.175 408.238C103.236 408.785 60.3008 409.441 17.3705 410.205C18.1458 383.085 18.8983 355.862 19.6765 328.744Z" fill="#00A8DE"/>
<path d="M89.5098 193.227C91.2875 186.359 92.8069 179.451 94.3645 172.527C95.8711 165.815 97.8088 159.264 99.6335 152.642C101.356 146.34 103.078 140.029 105.639 134.03C108.2 128.031 110.687 122.026 113.099 115.948C115.431 110.084 118.026 104.35 120.885 98.748C123.522 93.5899 126.706 88.8508 129.651 83.8953C135.059 74.7893 140.08 63.4595 150.31 59.3612C150.329 59.3605 150.376 59.4424 150.365 59.4457C141.707 63.6062 136.758 73.3963 132.21 81.6069C129.587 86.3472 126.613 90.8575 124.038 95.625C121.036 101.264 118.433 107.124 116.25 113.159C114.046 119.123 112.203 125.205 109.731 131.057C107.005 137.44 104.68 144.001 102.771 150.7C100.922 157.265 98.9204 163.801 97.3172 170.435C95.6895 177.163 94.3543 183.961 92.5872 190.653C90.6684 197.929 88.8724 205.074 88.0341 212.596C87.1958 220.117 87.1574 227.594 87.1341 235.111C87.1349 235.134 86.3154 234.35 86.2673 233.989C84.9964 220.302 86.0947 206.496 89.5098 193.227Z" fill="#014880"/>
<path d="M94.294 154.016C94.0464 144.119 93.559 134.322 94.1266 124.423C94.6876 114.657 96.029 104.925 97.4834 95.2667C98.5126 88.4066 99.7493 81.5569 101.538 74.8641C101.538 74.8641 103.314 66.1582 107.624 59.7255L114.452 48.1266C115.17 46.9509 115.856 45.7361 116.504 44.462C118.494 40.5433 120.8 37.941 124.712 36.1253C126.396 35.3402 128.098 34.5921 129.504 33.3184C130.909 32.0448 131.789 30.38 132.766 28.7869C134.713 25.6296 136.935 23.9715 140.128 22.3124C144.409 20.0927 148.657 17.8252 152.775 15.303C156.826 12.8319 160.96 11.0951 165.396 9.48335C169.947 7.81882 174.239 5.70528 178.537 3.43609C180 2.66713 181.463 1.87805 182.939 1.12598C177.027 12.9118 168.344 23.8956 161.785 35.7752C157.338 43.6974 154.447 51.1671 150.013 59.4891C146.703 66.1495 140.561 70.4585 136.45 76.7257C124.878 94.7128 111.611 109.075 104.802 128.54C100.187 142.245 98.1311 155.867 95.5484 169.936C94.8429 164.658 94.4241 159.342 94.294 154.016Z" fill="#0183CC"/>
<path d="M136.434 76.7403C140.545 70.4617 146.687 66.1642 149.997 59.5037C154.431 51.1703 157.322 43.7121 161.769 35.7899C168.327 23.9103 177.011 12.9265 182.923 1.14064C183.38 5.12951 184.801 9.00246 185.905 12.8084C187.434 18.094 187.689 23.4456 187.986 28.9223C188.581 39.221 188.617 49.5449 188.094 59.8446C187.812 64.958 187.374 70.0796 186.383 75.0989C185.354 80.3411 184 85.505 182.986 90.7583C182.388 93.9617 181.571 97.1158 180.54 100.196C169.59 95.0668 156.963 94.9449 144.926 95.6985C152.955 100.748 161.766 105.783 164.072 115.924C164.583 117.929 164.789 120.004 164.683 122.073C164.266 122.505 163.853 122.941 163.444 123.378C160.111 126.977 156.907 130.695 153.725 134.437C150.655 138.047 147.9 141.994 144.661 145.451C142.67 147.537 140.355 149.259 137.814 150.544C131.218 151.63 119.046 159.941 110.032 162.56C105.766 164.468 101.645 166.659 97.7982 169.454C97.0752 169.977 96.373 170.542 95.6883 171.135C95.6309 170.742 95.5817 170.349 95.5299 169.96C98.1125 155.891 100.169 142.269 104.783 128.563C111.6 109.09 124.867 94.7273 136.434 76.7403Z" fill="#014880"/>
<path d="M36.2181 98.8489C27.4407 84.3767 19.84 69.2344 8.23434 57.7621C8.50515 57.6292 8.78747 57.5233 9.07757 57.4458C14.0947 56.0966 19.4324 61.3145 22.827 64.4675C27.4917 68.7865 31.8167 73.4879 35.7605 78.5263C40.0207 84.0698 43.9563 89.8754 47.5458 95.9112C51.0204 101.684 54.2368 107.589 58.8407 112.515C60.8873 114.7 63.1704 116.688 65.832 118.011C72.1914 121.175 74.5178 122.144 82.1192 130.481C83.2251 132.5 84.1066 134.643 84.7467 136.869C86.6438 143.395 86.9031 150.275 86.8077 157.043C86.7047 164.819 87.0544 172.579 87.039 180.329C87.076 188.169 86.3571 195.99 84.8931 203.676C84.115 207.649 83.2753 211.601 82.3328 215.536C81.8814 217.449 81.4328 219.362 80.9869 221.275C80.6003 222.926 80.0172 224.647 79.8592 226.357C79.7144 226.736 79.5808 227.118 79.4728 227.521C79.4299 227.641 79.3898 227.763 79.3524 227.885L79.2303 227.786C73.9166 206.21 70.4429 184.95 63.9008 163.001C57.242 139.885 49.0845 119.286 36.2181 98.8489Z" fill="#014880"/>
<path d="M8.23455 57.7737C19.8398 69.2346 27.4322 84.3772 36.2183 98.8606C49.0847 119.298 57.2421 139.894 63.9139 162.987C70.456 184.933 73.9353 206.196 79.2434 227.771C75.0507 224.305 70.9193 220.855 67.6777 216.335C63.4644 210.452 59.2387 204.528 53.9345 199.649C51.4447 197.352 48.6905 195.41 46.2507 193.036C42.6039 188.139 36.731 180.005 31.8434 173.863C31.1608 172.794 30.5489 171.677 30.0121 170.522C26.7297 163.315 27.9928 155.362 27.889 147.682C27.8133 142.313 26.5956 137.42 24.7703 132.613L15.7765 109.829C13.1027 101.38 10.9472 92.7646 9.32321 84.034C8.25578 78.4306 7.15494 72.8196 6.12588 67.2063C5.57507 64.0611 5.02386 59.3442 8.23455 57.7737Z" fill="#0183CC"/>
<path d="M63.8513 306.971C68.8942 310.328 75.945 310.45 81.7058 310.343C88.0078 310.223 94.2967 309.384 100.177 307.001C100.496 306.872 101.571 308.505 101.34 308.72C99.2728 310.592 96.0504 311.158 93.426 311.675C89.9141 312.319 86.3512 312.618 82.7839 312.569C79.1367 312.607 75.4939 312.267 71.909 311.556C69.2649 310.995 66.5604 310.199 64.4855 308.326C64.2719 308.138 63.5178 306.749 63.8513 306.971Z" fill="#015BA2"/>
<path d="M81.0535 369.429C84.23 369.553 87.4223 369.817 90.5934 369.776C92.4569 369.736 94.3092 369.471 96.1129 368.986C97.7569 368.571 99.3996 368.112 101.093 368.438C101.313 368.48 102.086 369.68 101.917 369.74C98.976 370.798 95.7315 371.774 92.5947 371.928C89.2069 372.097 85.7865 371.87 82.402 371.724C76.6176 371.462 70.7689 370.927 65.9143 367.337C65.7695 367.155 65.6559 366.948 65.5787 366.726C70.218 368.931 76.0507 369.232 81.0535 369.429Z" fill="#015BA2"/>
<path d="M67.5164 440.696C70.3085 441.549 72.8798 442.818 75.7962 443.342C78.2567 443.783 80.7346 443.84 83.2252 443.863C85.8177 443.921 88.4109 443.819 90.9911 443.558C93.1933 443.306 95.2238 442.385 97.393 442.053C97.6156 442.017 98.126 442.814 98.0417 443.019C97.134 445.197 93.8821 445.462 91.8988 445.73C89.4617 446.031 87.007 446.156 84.5524 446.104C78.8366 446.069 72.5715 445.644 68.0016 441.647C67.8906 441.55 67.3907 440.657 67.5164 440.696Z" fill="#015BA2"/>
<path d="M28.3931 223.057C27.9896 220.524 27.7146 217.972 27.5692 215.41C63.1513 216.169 101.158 219.841 136.57 216.28C136.108 218.972 135.546 221.657 134.906 224.313C100.015 231.369 62.6512 233.654 28.3931 223.057Z" fill="#FDC833"/>
<path d="M134.895 224.312C132.521 233.987 128.839 243.308 123.358 251.473C116.374 261.867 106.305 270.272 94.5765 273.701C78.5353 278.389 60.5064 273.121 48.0352 261.548C37.4041 251.689 30.7299 237.716 28.3932 223.059C62.6512 233.653 100.015 231.368 134.895 224.312Z" fill="#FDBB00"/>
</svg>
