<svg width="290" height="293" viewBox="0 0 290 293" fill="none" xmlns="http://www.w3.org/2000/svg">
<path d="M223.121 0H105.057V118.064H223.121V0Z" fill="#F5F5F5"/>
<path d="M215.554 7.56641H112.629V110.491H215.554V7.56641Z" fill="#EBEBEB"/>
<path d="M178.168 82.1009L167.461 81.6898L167.063 83.1047L178.032 83.514L178.168 82.1009Z" fill="#82C6FF"/>
<path d="M156.522 44.4893L172.287 99.3367L171.064 99.345L155.609 45.2009L156.522 44.4893Z" fill="#82C6FF"/>
<path d="M165.78 44.4263L151.899 103.052L153.093 103.043L167.003 44.418L165.78 44.4263Z" fill="#B4DDFF"/>
<path d="M154.911 44.5003L141.177 102.104L142.37 102.096L156.134 44.4919L154.911 44.5003Z" fill="#B4DDFF"/>
<path d="M167.003 44.4179L167.921 44.4116L154.132 103.036L153.092 103.043L167.003 44.4179Z" fill="#82C6FF"/>
<path d="M156.134 44.4919L157.093 44.4854L143.38 102.089L142.37 102.096L156.134 44.4919Z" fill="#82C6FF"/>
<path d="M163.76 53.0261L153.378 53.0968L152.98 54.5117L163.625 54.4392L163.76 53.0261Z" fill="#B4DDFF"/>
<path d="M165.779 44.4263L155.397 44.4969L154.999 45.9118L165.644 45.8394L165.779 44.4263Z" fill="#B4DDFF"/>
<path d="M161.694 62.0336L151.417 61.6195L151.019 63.0344L161.558 63.4466L161.694 62.0336Z" fill="#B4DDFF"/>
<path d="M159.318 72.2101L149.042 71.796L148.643 73.2109L159.183 73.6232L159.318 72.2101Z" fill="#B4DDFF"/>
<path d="M157.908 81.1681L146.917 80.7589L146.498 82.1739L157.766 82.5812L157.908 81.1681Z" fill="#B4DDFF"/>
<path d="M155.41 91.3443L144.418 90.9364L143.999 92.3514L155.267 92.7587L155.41 91.3443Z" fill="#B4DDFF"/>
<path d="M167.921 44.4116L183.686 99.259L182.463 99.2674L167.008 45.1233L167.921 44.4116Z" fill="#82C6FF"/>
<path d="M163.832 52.2614C163.88 52.4283 160.6 53.1903 160.566 53.6768C160.532 54.1632 161.682 53.5623 162.281 53.7966C162.88 54.031 160.782 54.4001 160.022 54.45C159.587 54.4792 159.18 54.1111 158.921 53.7957C159.12 53.735 159.304 53.6294 159.456 53.4869C159.608 53.3444 159.726 53.1689 159.8 52.9737C159.807 52.9497 159.808 52.9247 159.805 52.9C160.407 52.8679 161.438 52.096 161.998 52.1352C162.558 52.1743 163.788 52.0957 163.832 52.2614Z" fill="#F2B08A"/>
<path d="M147.013 51.6089C147.304 56.1442 148.57 58.0917 148.57 58.0917C148.57 58.0917 151.452 58.1593 151.405 59.4446C151.093 61.1549 136.324 62.4324 135.737 61.28C136.633 58.6347 144.442 58.0699 144.442 58.0699C144.442 58.0699 144.698 55.1894 144.875 51.498C145.584 51.594 146.299 51.6311 147.013 51.6089Z" fill="#4A154B"/>
<path d="M143.61 30.9873C143.673 31.2564 143.648 31.5385 143.539 31.7926C143.458 31.9607 143.354 32.1169 143.231 32.257C142.497 33.1151 140.881 33.9895 139.893 32.349C138.719 30.4012 139.08 28.3988 140.215 27.7478C141.349 27.0967 142.267 27.0655 142.267 27.0655C142.267 27.0655 141.807 25.5159 143.541 24.9067C145.276 24.2975 146.732 24.1905 147.503 26.5855C148.274 28.9806 146.344 29.2393 148.194 30.9641C150.044 32.6888 150.486 30.0003 149.731 29.628C151.677 29.4667 152.283 35.2288 148.059 34.6007C147.986 34.4071 147.868 34.2334 147.716 34.0935C147.563 33.9537 147.38 33.8516 147.18 33.7954C145.797 33.363 145.367 32.5448 145.213 31.6584C145.245 31.6552 145.278 31.6504 145.31 31.644C146.256 31.4541 146.689 29.3029 146.225 27.7337C145.817 26.9354 143.175 27.4783 143.632 28.8853C143.222 28.3467 142.596 28.6888 142.805 29.2365C142.955 29.63 143.476 30.3043 143.61 30.9873Z" fill="#E8505B"/>
<path d="M143.539 31.7925C143.648 31.5384 143.673 31.2563 143.61 30.9872C143.781 31.1328 143.965 31.2616 144.161 31.3721C144.531 31.5798 144.908 31.688 145.211 31.6601C145.367 32.5466 145.797 33.3648 147.179 33.7972C147.378 33.8533 147.562 33.9554 147.714 34.0953C147.867 34.2351 147.985 34.4088 148.058 34.6025C148.351 35.4091 147.838 36.5722 146.089 37.2324C143.535 38.1961 141.598 35.1721 141.409 33.6606C142.081 33.4987 142.885 33.195 143.225 32.2565C143.351 32.1169 143.456 31.9608 143.539 31.7925Z" fill="url(#paint0_linear)"/>
<path d="M146.227 27.7358C146.694 29.3081 146.255 31.4561 145.312 31.6461C145.279 31.6525 145.247 31.6573 145.214 31.6605C144.913 31.6885 144.539 31.5805 144.164 31.3724C143.968 31.262 143.784 31.1331 143.613 30.9876C143.479 30.3046 142.958 29.6302 142.81 29.2388C142.6 28.6911 143.227 28.349 143.637 28.8876C143.177 27.4804 145.819 26.9337 146.227 27.7358Z" fill="#FAC28D"/>
<path d="M158.926 53.7941C158.231 53.9977 157.082 53.7461 155.262 52.1217C152.113 49.3122 143.964 37.9673 147.283 33.8121C149.387 35.0176 150.277 35.5725 152.997 42.3974C155.626 48.9986 159.774 52.1021 159.815 52.8988C159.818 52.9235 159.816 52.9485 159.81 52.9725C159.735 53.1681 159.617 53.3439 159.464 53.4864C159.31 53.6289 159.126 53.7342 158.926 53.7941Z" fill="#FDBB00"/>
<path d="M149.027 91.2895C149.664 91.9258 144.906 90.8235 144.443 90.258C143.98 89.6926 144.607 89.1745 144.66 87.9945C144.928 88.3982 146.206 88.7386 146.548 88.2939C146.241 89.5253 148.391 90.6523 149.027 91.2895Z" fill="#424242"/>
<path d="M150.13 51.232C150.82 57.4388 150.633 66.065 150.24 70.8326C149.847 75.6002 146.89 87.8492 146.548 88.294C146.206 88.7387 144.928 88.3982 144.66 87.9946C144.392 87.5909 144.494 74.3187 145.637 71.251C146.78 68.1832 143.103 55.2676 144.45 51.0565C145.797 46.8454 150.13 51.232 150.13 51.232Z" fill="#963298"/>
<path d="M145.476 50.213C146.678 51.7952 148.994 67.491 148.825 69.9052C148.656 72.3193 138.992 87.79 138.188 87.7098C137.953 87.6879 137.726 87.6159 137.521 87.4987C137.317 87.3814 137.14 87.2217 137.002 87.0303C139.548 74.1107 142.115 73.5799 142.874 70.3477C143.633 67.1155 136.819 57.849 138.985 51.7206C139.896 49.1457 144.273 48.6307 145.476 50.213Z" fill="url(#paint1_linear)"/>
<path d="M139.179 90.7581C140.195 91.4613 138.631 91.3626 137.317 90.8493C136.926 90.6959 136.583 89.9445 136.28 89.1718C135.852 88.0834 136.27 87.6026 137.001 87.0301C137.139 87.2215 137.316 87.3812 137.52 87.4985C137.725 87.6157 137.952 87.6877 138.187 87.7096C137.551 88.3561 138.162 90.0558 139.179 90.7581Z" fill="#424242"/>
<path d="M158.825 53.0221C159.366 53.1783 156.007 53.7432 155.968 54.3622C155.948 54.6581 157.594 53.6963 157.932 53.9374C157.676 54.3535 156.696 54.9654 155.876 55.116C155.056 55.2665 154.165 54.8155 154.137 54.802C154.273 54.706 154.375 54.5691 154.429 54.4113C154.482 54.2535 154.484 54.0828 154.433 53.9239C155.257 54.094 156.051 52.2221 158.825 53.0221Z" fill="#F2B08A"/>
<path d="M146.979 48.4531C146.936 49.6192 146.954 50.6646 147.013 51.6089C146.299 51.6311 145.584 51.594 144.875 51.498C145.016 48.5536 145.106 45.0938 144.976 42.1709C144.883 40.0869 144.794 38.6449 144.717 37.6042C145.282 37.7219 145.866 37.7151 146.429 37.5842C146.767 40.4292 147.123 44.5755 146.979 48.4531Z" fill="url(#paint2_linear)"/>
<path d="M148.57 58.0918C148.57 58.0918 147.304 56.1442 147.013 51.6089C146.954 50.6695 146.936 49.6193 146.979 48.4532C147.123 44.5756 146.77 40.4295 146.433 37.5817C146.183 35.4328 145.944 34.0237 145.944 34.0237C146.755 33.9774 147.015 33.6675 147.015 33.6675C152.528 36.466 149.249 44.5539 150.615 50.4211C151.982 56.2883 151.405 59.4446 151.405 59.4446C151.451 58.1593 148.57 58.0918 148.57 58.0918Z" fill="url(#paint3_linear)"/>
<path d="M144.721 37.6015C144.794 38.642 144.883 40.0839 144.98 42.1682C145.11 45.094 145.015 48.5534 144.879 51.4953C144.702 55.1867 144.446 58.0672 144.446 58.0672C144.446 58.0672 136.637 58.632 135.741 61.2773C135.216 59.9088 136.629 55.5657 137.163 51.7423C137.697 47.919 136.352 45.5588 137.047 40.057C137.742 34.5552 140.623 33.7808 142.364 33.3596C143.353 33.9022 144.609 33.9899 144.609 33.9899C144.483 34.9684 144.564 35.3513 144.721 37.6015Z" fill="url(#paint4_linear)"/>
<path d="M145.944 34.0237C145.944 34.0237 146.183 35.4328 146.433 37.5817C145.87 37.7126 145.286 37.7194 144.721 37.6017C144.564 35.3515 144.483 34.9686 144.605 33.9927C144.605 33.9927 143.349 33.9049 142.36 33.3624L147.015 33.6675C147.015 33.6675 146.755 33.9774 145.944 34.0237Z" fill="#FAC28D"/>
<path d="M154.137 54.7999C153.881 54.9966 153.494 55.086 153.036 54.9559C147.434 53.3616 141.402 49.0516 138.222 44.1383C135.043 39.2251 136.999 35.81 140.213 34.1466C141.902 33.5323 142.761 38.0775 144.819 42.5121C146.877 46.9467 153.735 52.9917 154.281 53.6514C154.349 53.7311 154.4 53.8228 154.434 53.9219C154.484 54.0807 154.482 54.2514 154.429 54.4093C154.376 54.5671 154.274 54.7039 154.137 54.7999Z" fill="#FED337"/>
<path d="M289.064 52H171V170.064H289.064V52Z" fill="#F5F5F5"/>
<path d="M281.497 59.5664H178.573V162.491H281.497V59.5664Z" fill="#EBEBEB"/>
<path d="M203.977 115.166C202.205 115.18 200.453 115.26 198.693 115.468C197.016 115.667 195.36 116.001 193.714 116.372C189 117.435 184.303 118.979 179.933 121.109C179.494 121.323 179.002 121.619 178.945 122.103C180.579 121.554 182.203 120.978 183.826 120.401C189.752 118.307 195.833 116.98 201.997 115.817C202.697 115.746 203.41 115.569 204.106 115.453C204.133 115.448 204.044 115.166 203.977 115.166Z" fill="#449AD4"/>
<path d="M219.987 97.8767C219.663 97.6625 219.42 97.2241 219.157 96.9415C218.777 96.5339 218.382 96.1405 217.972 95.7614C217.155 95.0095 216.296 94.3047 215.399 93.6504C213.627 92.3469 211.741 91.2062 209.86 90.0708C204.675 86.9528 199.171 84.6013 193.273 83.1424C193.079 83.0944 192.032 82.717 191.894 82.8523C191.691 83.0524 192.573 83.5619 192.709 83.6488C193.922 84.4164 195.385 84.6871 196.719 85.1782C198.178 85.7152 199.624 86.2866 201.057 86.8926C203.924 88.1017 206.717 89.4805 209.42 91.0217C209.719 91.1941 210.016 91.3671 210.311 91.5409C213.626 93.5062 216.796 95.7185 219.987 97.8767Z" fill="#449AD4"/>
<path d="M281.175 94.6403C281.093 94.5738 280.893 94.5737 280.792 94.573C273.337 94.5204 265.929 95.7582 258.897 98.2315C257.925 98.5737 256.949 98.9222 256.002 99.3295C255.548 99.525 255.099 99.7363 254.653 99.9457C254.299 100.113 253.888 100.299 253.638 100.606C253.622 100.626 253.852 100.667 253.876 100.661C254.856 100.458 255.781 100.051 256.718 99.7101C257.582 99.397 258.437 99.0636 259.304 98.7596C261.059 98.145 262.838 97.6102 264.634 97.1276C268.105 96.2003 271.642 95.5381 275.213 95.1464C277.188 94.9271 279.175 94.7798 281.16 94.7191C281.281 94.7182 281.232 94.6863 281.175 94.6403Z" fill="#449AD4"/>
<path d="M268.152 122.745C267.928 122.936 267.679 123.104 267.446 123.282C266.995 123.626 266.545 123.97 266.096 124.316C265.764 124.572 265.361 125.029 264.913 125.028C264.528 125.027 264.321 124.841 264.04 124.607C263.381 124.06 262.542 123.867 261.862 123.384C261.485 123.116 261.683 122.982 262.099 122.775C262.409 122.62 262.746 122.571 263.058 122.75C263.399 122.945 263.529 123.15 263.966 123.17C264.338 123.187 264.73 123.09 265.079 122.973C265.588 122.803 266.064 122.553 266.566 122.364C266.951 122.218 267.366 122.092 267.783 122.088C267.967 122.085 268.355 122.108 268.397 122.34C268.424 122.502 268.262 122.651 268.152 122.745Z" fill="#68C7E8"/>
<path d="M261.134 112.864C259.868 113.381 258.499 113.679 257.156 113.909C255.735 114.152 254.297 114.284 252.855 114.304C251.336 114.324 249.818 114.228 248.313 114.018C247.539 113.91 246.769 113.806 246.011 113.597C245.849 113.551 245.684 113.507 245.519 113.468C245.082 113.365 244.637 113.301 244.195 113.37C243.122 113.535 242.651 114.623 242.231 115.5C241.601 116.817 240.916 118.099 240.118 119.323C239.373 120.465 238.569 121.646 237.549 122.563C236.588 123.43 235.381 123.909 234.094 124.022C232.523 124.153 230.945 123.858 229.527 123.167C228.458 122.643 227.927 121.795 227.421 120.758C229.094 120.289 229.882 118.945 231.047 117.799C232.412 116.457 233.781 115.117 235.098 113.727C235.631 113.164 236.165 112.598 236.64 111.984C237.094 111.399 237.485 110.771 237.897 110.157C238.621 109.075 239.404 107.829 240.804 107.65C241.528 107.557 242.259 107.636 242.984 107.694L245.294 107.876C246.859 107.999 248.424 108.126 249.99 108.247C253.181 108.494 256.386 108.693 259.548 109.202C260.115 109.293 260.689 109.386 261.252 109.51C261.461 109.556 261.667 109.607 261.872 109.664C262.36 109.8 263.021 110.001 263.309 110.46C264.016 111.578 261.905 112.549 261.134 112.864Z" fill="#FFAC00"/>
<path d="M263.323 123.363C262.992 123.831 262.129 123.704 261.657 123.654C261.239 123.607 260.826 123.52 260.424 123.395C259.45 123.099 258.533 122.62 257.613 122.173C255.985 121.384 254.413 120.488 252.851 119.577C251.723 118.919 250.651 117.991 249.347 117.716C249.132 117.67 248.914 117.644 248.695 117.637C247.033 117.59 245.522 118.789 244.042 119.404C242.364 120.102 240.619 120.623 238.873 121.122C237.556 121.497 236.278 121.788 234.894 121.691C234.401 121.656 233.909 121.594 233.422 121.506L233.416 121.505C232.172 121.284 230.969 120.868 229.853 120.274C230.514 120.02 231.155 119.792 231.754 119.408C232.761 118.763 233.727 118.066 234.628 117.276C235.567 116.453 236.436 115.555 237.48 114.853C238.503 114.163 239.614 113.615 240.714 113.066C241.737 112.556 242.778 112.056 243.874 111.721C245.426 111.246 247.06 111.193 248.642 111.474C249.96 111.712 251.23 112.165 252.402 112.815C254.495 113.971 256.45 115.462 258.246 117.032C259.118 117.796 259.946 118.607 260.728 119.462C261.507 120.318 262.205 121.249 262.929 122.151C263.179 122.464 263.613 122.95 263.323 123.363Z" fill="#FFAC00"/>
<path d="M266.261 107.415C265.816 108.757 265.384 110.104 264.947 111.451C264.909 111.572 264.867 111.698 264.778 111.788C264.549 112.022 264.12 111.769 263.851 111.752C263.531 111.733 263.225 111.811 262.931 111.929C262.737 112.007 262.524 112.05 262.323 112.099C262.11 112.151 261.471 112.494 261.433 112.068C261.424 111.965 261.466 111.866 261.506 111.771C261.638 111.462 261.77 111.154 261.902 110.845C261.969 110.689 262.04 110.524 262.16 110.399C262.307 110.246 262.463 110.263 262.664 110.275C262.855 110.285 263.045 110.248 263.219 110.169C263.571 110.016 263.86 109.736 264.097 109.439C264.427 109.025 264.723 108.581 265.012 108.138C265.168 107.901 265.32 107.661 265.468 107.419C265.595 107.212 265.703 106.967 265.861 106.78C266.117 106.478 266.24 106.574 266.288 106.778C266.326 106.99 266.316 107.207 266.261 107.415Z" fill="#68C7E8"/>
<path d="M235.334 113.299C234.889 115.317 232.64 116.979 231.109 118.093C229.263 119.435 227.137 120.962 226.233 123.145C226.031 122.854 225.878 122.531 225.78 122.191C225.66 121.74 225.705 121.239 225.699 120.776C225.687 119.887 225.706 118.984 225.58 118.102C225.458 117.244 225.313 116.388 225.161 115.534C224.851 113.788 224.521 112.041 224.261 110.287C224.137 109.457 223.9 108.651 223.781 107.822C223.662 106.992 223.783 106.205 224.317 105.539C224.814 104.921 225.527 104.413 226.243 104.081C227.827 103.346 229.685 103.338 231.353 103.771C232.199 103.987 233.007 104.329 233.752 104.784C234.587 105.3 234.738 105.819 234.796 106.799C234.831 107.366 234.811 107.933 234.787 108.499C234.762 109.073 234.758 109.652 234.867 110.22C234.967 110.732 235.155 111.223 235.295 111.727C235.438 112.239 235.452 112.78 235.334 113.299Z" fill="#FF586F"/>
<path d="M243.249 102.299C242.79 103.268 242.332 104.329 241.39 104.921C240.711 105.348 239.926 105.567 239.151 105.776C237.483 106.225 235.651 106.849 234.771 108.462C234.665 108.655 234.569 108.865 234.392 108.995C234.115 109.199 233.736 109.149 233.395 109.092C232.714 108.975 232.304 108.789 232.127 108.105C231.924 107.323 231.606 106.536 231.161 105.858C231.047 105.685 229.847 104.109 229.796 104.136C230.829 103.56 232.443 103.67 233.596 103.475C234.683 103.29 235.765 103.07 236.836 102.805C237.801 102.566 238.861 102.373 239.621 101.685C240.028 101.317 240.357 100.865 240.702 100.438C241.059 99.9955 241.415 99.5531 241.772 99.1106C242.431 98.2933 243.097 97.4531 243.523 96.4868C243.617 96.2737 244.873 96.5219 244.847 96.7195C244.587 98.6509 244.08 100.54 243.249 102.299Z" fill="#FF586F"/>
<path d="M224.964 113.567C224.905 113.136 224.965 112.399 224.946 112.251C224.859 111.566 224.493 111.324 224.437 110.636C224.358 109.659 224.328 108.659 224.557 107.699C224.789 106.728 225.263 105.801 225.991 105.109C226.318 104.799 226.69 104.548 227.059 104.293C227.058 104.277 227.058 104.261 227.056 104.245C227.049 104.13 226.618 104.114 226.542 104.139C226.392 104.189 226.242 104.241 226.09 104.289C225.171 104.37 224.29 104.664 223.413 104.954C222.623 105.216 221.892 105.373 221.132 105.718C220.186 106.148 219.208 106.53 218.175 106.695C216.75 106.923 215.441 106.48 214.191 105.83C212.95 105.185 211.756 104.215 210.399 103.84C210.188 103.782 209.967 103.74 209.752 103.776C209.538 103.812 209.327 103.939 209.239 104.14C209.074 104.529 209.6 105.408 209.817 105.705C210.185 106.198 210.631 106.626 211.137 106.974C211.642 107.328 212.225 107.586 212.674 108.015C213.123 108.443 213.361 109.034 213.821 109.445C214.396 109.957 215.148 110.232 215.866 110.47C216.751 110.756 217.659 110.96 218.58 111.082C219.209 111.171 219.894 111.279 220.528 111.25C221.252 111.218 221.982 110.937 222.702 111.172C223.364 111.387 223.843 111.949 224.168 112.54C224.433 113.018 224.539 114.069 224.952 114.401C224.888 114.348 224.998 113.807 224.964 113.567Z" fill="#FF586F"/>
<path d="M247.697 94.3266C247.548 94.9896 246.915 95.2672 246.348 95.509C245.662 95.8038 244.996 95.9878 244.661 96.9114C244.639 96.97 244.483 96.9003 244.491 96.8814C244.491 96.8779 244.492 96.874 244.492 96.8714C244.399 96.8292 244.308 96.7821 244.22 96.7304C244.079 96.6643 243.932 96.6125 243.781 96.576C243.766 96.5937 243.672 96.5838 243.674 96.5537C243.676 96.5441 243.678 96.5332 243.677 96.5232C243.757 95.5754 243.775 95.1005 244.128 94.4695C244.496 93.8154 245.123 93.3493 245.472 92.6895C245.483 92.6686 245.61 92.6914 245.608 92.7135C245.574 93.1842 245.447 93.6436 245.235 94.0653C245.517 93.8848 245.843 93.7558 246.112 93.5649C246.594 93.2221 247.002 92.7855 247.312 92.2814C247.328 92.255 247.476 92.281 247.482 92.3113C247.512 92.4613 247.515 92.6152 247.492 92.7663C247.516 92.7703 247.539 92.778 247.561 92.7891C247.746 92.8851 247.63 93.0849 247.63 93.2559C248.017 93.4224 247.475 94.1006 247.074 94.5099C247.216 94.4379 247.357 94.3639 247.497 94.2879C247.52 94.2726 247.705 94.292 247.697 94.3266Z" fill="#ECD09B"/>
<path d="M210.618 104.219C210.393 104.337 210.131 104.527 209.865 104.511C209.611 104.495 209.518 104.36 209.337 104.196C208.906 103.806 208.192 103.393 207.6 103.487C207.276 103.538 206.966 103.687 206.638 103.741C206.631 103.742 206.624 103.743 206.617 103.742C206.559 103.753 206.499 103.762 206.442 103.767C206.228 103.789 206.012 103.784 205.799 103.752C205.752 103.748 205.707 103.735 205.665 103.714C205.477 103.596 205.752 103.608 205.826 103.627C206.058 103.687 206.513 103.52 206.638 103.32C206.515 103.276 206.358 103.28 206.227 103.257C205.839 103.189 205.384 103.174 205.094 102.869C205.318 102.844 205.524 102.897 205.74 102.951C205.852 102.982 205.966 103.003 206.081 103.015C206.186 103.023 206.307 102.97 206.402 102.981C206.194 102.957 205.989 102.915 205.789 102.856C205.579 102.793 205.368 102.728 205.177 102.619C205.122 102.589 204.687 102.288 204.879 102.243C204.904 102.239 204.93 102.24 204.956 102.245C205.19 102.283 205.417 102.354 205.631 102.458C205.428 102.363 205.129 102.159 205.042 101.945C205.031 101.92 205.026 101.892 205.029 101.865C205.031 101.837 205.041 101.811 205.057 101.789C205.166 101.658 205.499 101.882 205.589 101.954C206.091 102.354 206.933 102.552 207.579 102.503C207.476 102.264 207.211 102.1 207.025 101.934C206.914 101.833 206.799 101.723 206.736 101.584C206.707 101.524 206.693 101.457 206.695 101.39C206.697 101.354 206.703 101.319 206.714 101.285C206.726 101.249 206.73 101.176 206.776 101.167C206.822 101.158 206.9 101.253 206.936 101.28C206.989 101.321 207.043 101.362 207.095 101.401C207.205 101.48 207.317 101.556 207.432 101.629C207.662 101.772 207.904 101.895 208.156 101.994C208.531 102.14 208.909 102.255 209.243 102.489C209.567 102.711 209.852 102.985 210.086 103.299C210.23 103.504 210.316 103.744 210.432 103.964C210.464 103.972 210.493 103.991 210.515 104.017C210.549 104.075 210.586 104.136 210.618 104.196C210.632 104.205 210.63 104.213 210.618 104.219Z" fill="#ECD09B"/>
<path d="M230.296 100.308C230.149 99.9857 229.974 99.6762 229.773 99.3835C229.685 99.258 229.599 99.1284 229.512 98.9972C229.458 98.8275 229.353 98.6785 229.212 98.5701L229.191 98.5417C229.182 98.5355 229.171 98.5323 229.159 98.5326C228.937 98.3794 228.648 98.2985 228.356 98.2471C228.053 98.1939 227.672 98.1389 227.385 98.283C227.159 98.3965 226.973 98.6314 226.818 98.8267C226.453 99.289 225.963 99.8955 226.195 100.487C226.389 100.983 226.928 101.428 227.259 101.842C227.652 102.326 228.475 102.454 229.061 102.443C229.557 102.433 229.987 102.226 230.28 101.821C230.636 101.328 230.536 100.826 230.296 100.308Z" fill="#ECD09B"/>
<path d="M228.892 98.9383C228.581 99.0552 228.203 99.0753 227.919 99.2487C227.625 99.4274 227.623 99.7748 227.411 100.013C227.393 100.043 227.377 100.075 227.365 100.108C227.335 100.192 227.321 100.281 227.325 100.37C227.326 100.424 227.328 100.479 227.328 100.533C227.333 100.549 227.336 100.566 227.339 100.582C227.338 100.589 227.24 100.588 227.235 100.564C227.214 100.463 227.168 100.324 227.08 100.257C226.992 100.189 226.744 100.12 226.641 100.18C226.51 100.257 226.463 100.428 226.46 100.567C226.452 100.887 226.685 101.078 226.904 101.274C227.092 101.442 227.297 101.623 227.308 101.895C227.317 102.15 227.16 102.363 226.944 102.475C226.837 102.531 226.48 102.477 226.403 102.38C226.139 102.048 225.874 101.717 225.607 101.387C225.39 101.118 225.076 100.831 224.932 100.513C224.811 100.245 224.902 99.8624 224.94 99.5825C224.99 99.2093 225.068 98.8406 225.175 98.4797C225.339 97.9303 225.625 97.4913 226.196 97.3169C226.487 97.2336 226.793 97.2203 227.09 97.2781C227.133 97.2857 227.179 97.2939 227.223 97.3056C227.606 96.9156 228.149 96.5851 228.707 96.6191C228.964 96.6311 229.211 96.7207 229.416 96.8759C229.622 97.0311 229.775 97.2448 229.857 97.4888C230.074 98.1622 229.465 98.7245 228.892 98.9383Z" fill="black"/>
<path d="M230.137 103.835C230.137 103.768 229.928 103.726 229.891 103.718C229.645 103.663 229.479 103.2 229.398 103.012C229.254 102.693 229.145 102.358 229.073 102.015C229.048 101.899 228.697 101.869 228.623 101.859C228.535 101.847 227.847 101.743 227.924 101.602C227.949 101.555 227.336 101.37 227.239 101.481C227.227 101.494 227.22 101.511 227.22 101.528C227.22 101.546 227.227 101.563 227.24 101.575C227.027 101.871 227.078 102.403 227.011 102.741C226.921 103.193 226.734 103.732 226.369 104.038C226.363 104.043 226.376 104.054 226.402 104.069C226.382 104.074 226.371 104.082 226.375 104.093C226.682 104.818 227.677 105.236 228.411 105.292C229.167 105.35 230.132 104.647 230.137 103.835Z" fill="#ECD09B"/>
<path d="M287.714 218.268C285.959 217.931 284.052 217.409 282.36 217.339C280.08 217.254 277.854 217.39 275.612 217.402C271.235 217.424 266.842 217.413 262.431 217.367C253.726 217.278 244.953 216.898 236.076 216.345C231.812 216.08 227.538 215.787 223.254 215.467C221.161 215.311 219.17 214.886 217.043 214.496C214.818 214.088 212.601 213.955 210.409 213.722C208.047 213.469 205.673 213.167 203.309 212.857C208.025 212.971 212.609 212.744 217.241 212.664C222.137 212.575 227.037 212.511 231.914 212.392C236.86 212.269 239.562 210.27 244.245 209.658C239.094 210.01 249.227 209.009 244.245 209.658C245.249 209.591 244.693 207.29 244.693 207.29C248.443 208.284 240.961 206.652 244.693 207.29C240.847 206.27 245.508 203.884 241.72 203.443C233.726 202.514 227.099 203.825 219.097 202.859C210.814 201.857 201.353 199.583 193.214 199.109C184.958 198.628 176.646 198.031 168.459 197.755C160.097 197.469 151.564 196.921 143.34 196.989L130.483 197.097C126.095 197.14 121.864 197.585 117.428 197.515C108.992 197.386 100.618 197.349 92.1181 197.059C83.8031 196.776 75.4873 196.497 67.1322 196.076C48.3832 195.127 29.6361 194.173 10.8909 193.215C9.95349 193.163 8.66619 194.475 8.30064 194.821C7.37288 195.712 6.55722 196.676 5.85985 197.706C5.63161 198.044 3.28146 202.519 4.41238 202.684C22.78 205.365 41.1502 208.048 59.4933 210.608C77.6178 213.139 95.6945 215.454 113.84 218.108C131.785 220.734 149.665 222.92 167.464 224.851C172.013 225.344 176.664 225.784 181.099 225.911C185.886 226.047 190.593 225.888 195.301 225.836C199.785 225.788 204.467 226.097 208.872 225.882C211.242 225.775 213.439 225.428 215.878 225.47C218.227 225.509 220.574 225.541 222.921 225.566C233.038 225.674 243.063 225.564 253.149 225.598C258.104 225.613 263.043 225.589 267.965 225.523C270.497 225.491 273.016 225.445 275.522 225.386C278.456 225.318 280.992 224.733 283.656 224.21C285.2 223.906 286.158 222.352 286.807 221.39C286.953 221.171 288.481 218.419 287.714 218.268Z" fill="#DDD2DF"/>
<g style="mix-blend-mode:multiply" opacity="0.5">
<path d="M102.726 87.4536H65.9374C64.4935 87.4568 63.0735 87.8223 61.8075 88.5165C60.5415 89.2107 59.4699 90.2114 58.6908 91.4271L48.5155 107.345H120.154L109.972 91.4271C109.192 90.2122 108.121 89.212 106.855 88.5179C105.589 87.8238 104.169 87.4579 102.726 87.4536Z" fill="#4361EE"/>
</g>
<path d="M142.563 100.262H8.91324C3.9906 100.262 0 104.252 0 109.175V192.673C0 197.596 3.9906 201.586 8.91324 201.586H142.563C147.486 201.586 151.477 197.596 151.477 192.673V109.175C151.477 104.252 147.486 100.262 142.563 100.262Z" fill="#424242"/>
<path d="M151.477 132.757H0V144.78H151.477V132.757Z" fill="#FED337"/>
<path d="M104.156 178.432C118.346 164.242 118.346 141.236 104.156 127.046C89.9664 112.856 66.9601 112.856 52.7703 127.046C38.5805 141.236 38.5805 164.242 52.7703 178.432C66.9601 192.622 89.9664 192.622 104.156 178.432Z" fill="#2E294E"/>
<path d="M101.424 176.618C115.614 162.429 115.614 139.422 101.424 125.233C87.2341 111.043 64.2278 111.043 50.038 125.233C35.8482 139.422 35.8482 162.429 50.038 176.618C64.2278 190.808 87.2341 190.808 101.424 176.618Z" fill="#C3D4E5"/>
<path d="M75.7383 180.403C92.0171 180.403 105.214 167.206 105.214 150.927C105.214 134.649 92.0171 121.452 75.7383 121.452C59.4596 121.452 46.2631 134.649 46.2631 150.927C46.2631 167.206 59.4596 180.403 75.7383 180.403Z" fill="#2E294E"/>
<path d="M90.4414 165.636C98.5657 157.512 98.5657 144.339 90.4414 136.215C82.3171 128.091 69.145 128.091 61.0207 136.215C52.8964 144.339 52.8964 157.512 61.0207 165.636C69.145 173.76 82.3171 173.76 90.4414 165.636Z" stroke="#963298" stroke-width="4.51" stroke-miterlimit="10"/>
<path d="M85.0013 160.196C90.1212 155.076 90.1212 146.775 85.0013 141.655C79.8815 136.535 71.5806 136.535 66.4607 141.655C61.3409 146.775 61.3409 155.076 66.4607 160.196C71.5806 165.316 79.8815 165.316 85.0013 160.196Z" stroke="#963298" stroke-width="4.51" stroke-miterlimit="10"/>
<path d="M60.2187 143.324C63.1369 143.324 65.5026 140.959 65.5026 138.041C65.5026 135.122 63.1369 132.757 60.2187 132.757C57.3004 132.757 54.9347 135.122 54.9347 138.041C54.9347 140.959 57.3004 143.324 60.2187 143.324Z" fill="white"/>
<path d="M69.6029 150.064C71.0604 150.064 72.2419 148.882 72.2419 147.425C72.2419 145.967 71.0604 144.786 69.6029 144.786C68.1455 144.786 66.964 145.967 66.964 147.425C66.964 148.882 68.1455 150.064 69.6029 150.064Z" fill="white"/>
<path d="M28.3581 112.545H14.1488C13.4084 112.545 12.8082 113.145 12.8082 113.886V122.467C12.8082 123.207 13.4084 123.807 14.1488 123.807H28.3581C29.0985 123.807 29.6987 123.207 29.6987 122.467V113.886C29.6987 113.145 29.0985 112.545 28.3581 112.545Z" fill="white"/>
<path d="M135.166 121.458C137.627 121.458 139.623 119.463 139.623 117.002C139.623 114.54 137.627 112.545 135.166 112.545C132.705 112.545 130.709 114.54 130.709 117.002C130.709 119.463 132.705 121.458 135.166 121.458Z" fill="#E01E5A"/>
<path d="M122.756 121.458C125.218 121.458 127.213 119.463 127.213 117.002C127.213 114.54 125.218 112.545 122.756 112.545C120.295 112.545 118.3 114.54 118.3 117.002C118.3 119.463 120.295 121.458 122.756 121.458Z" fill="#00BCF8"/>
<path d="M140.269 171.501H127.466C126.716 171.501 126.108 172.11 126.108 172.86V173.005C126.108 173.756 126.716 174.364 127.466 174.364H140.269C141.019 174.364 141.627 173.756 141.627 173.005V172.86C141.627 172.11 141.019 171.501 140.269 171.501Z" fill="#2E294E"/>
<path d="M140.269 177.951H127.466C126.716 177.951 126.108 178.559 126.108 179.31V179.455C126.108 180.205 126.716 180.813 127.466 180.813H140.269C141.019 180.813 141.627 180.205 141.627 179.455V179.31C141.627 178.559 141.019 177.951 140.269 177.951Z" fill="#2E294E"/>
<path d="M140.269 184.394H127.466C126.716 184.394 126.108 185.003 126.108 185.753V185.898C126.108 186.648 126.716 187.257 127.466 187.257H140.269C141.019 187.257 141.627 186.648 141.627 185.898V185.753C141.627 185.003 141.019 184.394 140.269 184.394Z" fill="#2E294E"/>
<path d="M94.1204 80.3701H57.3502C55.9057 80.3734 54.4852 80.7395 53.219 81.4349C51.9528 82.1302 50.8816 83.1325 50.1037 84.3497L39.9223 100.262H111.566L101.391 84.3436C100.61 83.1245 99.5344 82.1216 98.2638 81.4272C96.9932 80.7328 95.5683 80.3693 94.1204 80.3701Z" fill="#424242"/>
<path d="M91.0769 87.0552H60.3938L51.9516 100.262H99.5251L91.0769 87.0552Z" fill="#2E294E"/>
<path d="M13.4906 95.4128H27.6335C28.1812 95.4128 28.7065 95.6304 29.0938 96.0178C29.4811 96.4051 29.6987 96.9304 29.6987 97.4781V100.262H11.4254V97.4781C11.4254 97.2069 11.4788 96.9383 11.5826 96.6878C11.6864 96.4372 11.8385 96.2095 12.0303 96.0178C12.2221 95.826 12.4497 95.6738 12.7003 95.5701C12.9509 95.4663 13.2194 95.4128 13.4906 95.4128Z" fill="#C3D4E5"/>
<defs>
<linearGradient id="paint0_linear" x1="-19296.8" y1="1564.07" x2="-19211.1" y2="1448.71" gradientUnits="userSpaceOnUse">
<stop stop-color="#FAC28D"/>
<stop offset="0.25" stop-color="#EDB886"/>
<stop offset="0.62" stop-color="#E2AF7F"/>
<stop offset="1" stop-color="#DEAC7D"/>
</linearGradient>
<linearGradient id="paint1_linear" x1="11022.5" y1="32888.1" x2="12360.2" y2="32981.6" gradientUnits="userSpaceOnUse">
<stop stop-color="#9F40A0"/>
<stop offset="1" stop-color="#479EB0"/>
</linearGradient>
<linearGradient id="paint2_linear" x1="3528.27" y1="8356.2" x2="3639.04" y2="8363.94" gradientUnits="userSpaceOnUse">
<stop stop-color="#CFE6DC"/>
<stop offset="0.57" stop-color="#CCE4D9"/>
<stop offset="1" stop-color="#C3E0D3"/>
</linearGradient>
<linearGradient id="paint3_linear" x1="149.59" y1="33.8473" x2="147.819" y2="59.1941" gradientUnits="userSpaceOnUse">
<stop stop-color="#FED337"/>
<stop offset="1" stop-color="#FDBB00"/>
</linearGradient>
<linearGradient id="paint4_linear" x1="141.834" y1="33.3226" x2="144.611" y2="61.4418" gradientUnits="userSpaceOnUse">
<stop stop-color="#FED337"/>
<stop offset="1" stop-color="#FDBB00"/>
</linearGradient>
</defs>
</svg>
