<svg width="408" height="388" viewBox="0 0 408 388" fill="none" xmlns="http://www.w3.org/2000/svg">
<path d="M19.1037 299.931C20.4859 300.21 22.0097 300.339 23.3055 300.891C25.05 301.645 26.7225 302.624 28.4239 303.471C31.7465 305.123 35.0868 306.745 38.4447 308.335C45.0724 311.474 51.7937 314.315 58.6182 317.002C61.8961 318.293 65.1859 319.558 68.4878 320.796C70.1004 321.401 71.6745 321.669 73.347 322.027C75.0964 322.401 76.8001 323.078 78.499 323.635C80.3299 324.232 82.1776 324.779 84.0181 325.314C80.4187 323.688 76.968 321.729 73.4598 319.918C69.7524 317.998 66.0378 316.105 62.3496 314.159C58.6086 312.181 54.6108 310.413 51.141 307.992C47.448 305.417 43.563 303.176 39.6997 300.87C38.9462 300.421 38.2863 296.399 38.483 296.445C41.4106 297.124 44.3813 298.043 47.3736 298.333C50.4427 298.631 53.2431 299.651 56.185 300.57C62.3928 302.511 68.5478 304.632 74.7676 306.535C81.2057 308.503 87.4136 311.296 93.6669 313.796C100.009 316.333 106.411 318.761 112.672 321.499C119.067 324.292 125.63 326.857 131.869 329.991L141.623 334.894C144.952 336.573 148.102 338.642 151.483 340.214C157.912 343.208 164.28 346.282 170.781 349.121C177.14 351.9 183.499 354.683 189.908 357.323C204.292 363.242 218.674 369.155 233.056 375.063C233.776 375.354 234.565 377.29 234.793 377.811C235.37 379.146 235.851 380.52 236.233 381.924C236.358 382.385 237.5 388.23 236.617 387.992C222.274 384.139 207.929 380.287 193.623 376.309C179.487 372.378 165.418 368.227 151.248 364.426C137.234 360.668 123.333 356.447 109.531 351.972C106.003 350.827 102.406 349.587 99.0181 348.077C95.3611 346.448 91.8073 344.521 88.2366 342.712C84.8364 340.991 81.2346 339.592 77.9183 337.716C76.133 336.715 74.5133 335.513 72.6536 334.651C70.8635 333.821 69.0749 332.984 67.288 332.139C59.5853 328.496 51.9833 324.645 44.3141 320.93C40.5467 319.105 36.7977 317.241 33.0672 315.337C31.1475 314.359 29.2397 313.372 27.344 312.373C25.1244 311.207 23.2815 309.614 21.333 308.042C20.2028 307.13 19.6989 305.047 19.3437 303.737C19.2645 303.44 18.4991 299.814 19.1037 299.931Z" fill="#DDD2DF"/>
<path d="M33.5852 287.425C35.5481 287.604 37.5268 287.493 39.457 287.094C39.493 287.163 39.5314 287.233 39.565 287.307C40.1913 288.716 40.6065 290.187 41.1488 291.579C42.405 293.629 44.185 295.307 46.3055 296.44C48.8755 297.798 51.7167 298.725 54.4163 299.8C56.096 300.464 58.6347 300.796 59.849 302.245C62.287 305.153 57.8141 304.633 56.0096 304.551C48.8563 304.222 42.0198 302.233 35.1329 300.596C32.6301 300.001 32.119 298.11 32.0614 295.761C32.0012 292.94 32.1336 290.118 32.4574 287.314C32.8197 287.355 33.194 287.391 33.5852 287.425Z" fill="#424242"/>
<path d="M16.3631 287.4C18.2127 288.083 20.1536 288.487 22.1222 288.599C22.139 288.679 22.1582 288.753 22.1702 288.839C22.4101 290.363 22.4341 291.887 22.5997 293.375C23.2845 295.68 24.5718 297.761 26.3287 299.402C28.4596 301.377 30.9648 303.002 33.2876 304.742C34.7274 305.812 37.1078 306.791 37.9069 308.507C39.5122 311.945 35.3249 310.287 33.5876 309.74C26.7607 307.58 20.6704 303.892 14.4362 300.533C12.1734 299.314 12.1662 297.353 12.7157 295.069C13.3864 292.328 14.2426 289.636 15.2785 287.011C15.6432 287.136 15.9864 287.268 16.3631 287.4Z" fill="#424242"/>
<path d="M53.2187 51.6013C53.4155 54.3153 53.6986 57.0221 54.1401 59.7073C54.9522 64.9868 56.3867 70.1515 58.4139 75.0936C61.6629 82.8707 66.6901 90.4199 73.5746 95.4255C75.3095 96.6901 77.102 97.5084 79.2641 97.6787C81.1526 97.8251 83.8066 97.8851 85.3663 96.5821C86.8493 95.3439 86.535 93.1267 86.2014 91.4421C85.7575 89.2129 84.812 87.1228 83.7514 85.1216C81.539 80.951 79.1921 77.0037 77.5364 72.5572C75.8375 68.0243 74.4913 63.3619 72.5956 58.9034C71.3118 55.8823 69.7328 52.9619 67.7028 50.3727C66.0911 48.322 64.1497 46.5534 61.9581 45.1392C60.8518 44.4204 59.6852 43.7989 58.4715 43.2819C57.3892 42.8187 56.0167 42.0821 54.8337 42.598C53.6507 43.1139 53.5162 45.2376 53.3555 46.3438C53.1204 48.0862 53.0746 49.849 53.2187 51.6013Z" fill="#F5F5F5"/>
<path d="M57.0299 137.197C57.3323 134.318 57.6898 131.491 58.0761 128.674C58.2361 132.576 58.3961 136.477 58.556 140.377C59.1247 155.204 59.5159 170.048 59.1464 184.887C58.4265 214.717 56.0581 244.57 52.7634 274.222C52.3507 277.931 52.46 282.897 52.0488 286.606C50.3589 292.014 46.7188 291.101 46.7188 291.101C46.7188 291.101 46.7188 291.101 46.8123 291.089L46.7188 291.101C48.0242 268.984 48.7009 247.088 50.4262 224.927C52.9434 195.683 53.5721 166.753 57.0299 137.197Z" fill="url(#paint0_linear)"/>
<path d="M28.3059 208.149C30.7463 189.821 30.8687 172.057 30.0984 153.563C29.5033 139.34 26.6406 124.376 30.5783 110.403C32.3349 104.15 36.2702 96.7256 42.3364 93.6493C47.5724 91.0098 54.6632 93.6925 56.9477 99.1109C59.4193 104.971 58.6538 112.242 58.9154 118.461C59.0594 121.867 59.2057 125.273 59.3545 128.679C58.9682 131.496 58.6106 134.33 58.3083 137.202C54.8504 166.758 54.2289 195.688 51.7046 224.932C49.9792 247.093 49.3049 268.989 47.9972 291.106C44.3353 291.632 40.4935 291.553 36.8173 291.27C35.0496 291.13 33.2899 290.918 31.5382 290.634C30.1752 290.408 28.4187 290.219 27.3485 289.244C25.0472 287.157 25.1672 282.672 24.9872 279.852C24.7473 276.178 24.4521 272.524 24.3034 268.838C24.2866 268.437 24.2745 268.039 24.2625 267.638C24.2956 247.741 25.6463 227.868 28.3059 208.149Z" fill="#4A154B"/>
<path d="M8.78979 246.679L10.7407 199.27C11.3862 183.567 12.0557 167.874 12.478 152.163C12.6844 144.461 12.814 136.746 13.2123 129.048C13.5891 121.698 14.1001 114.17 15.7511 106.972C16.4542 103.905 17.6492 100.687 20.4951 99C25.8247 95.8469 35.3727 95.9213 40.1912 100.361C39.9368 115.357 39.5809 130.364 39.1233 145.382C38.4946 168.966 34.4057 192.232 31.8909 215.816C29.0113 242.06 30.3504 268.302 25.5007 294.06C23.0265 294.471 20.5221 294.674 18.0139 294.667C-0.675941 285.254 8.15389 262.126 8.78979 246.679Z" fill="#4A154B"/>
<path d="M39.1233 145.373C39.5873 130.348 39.9432 115.341 40.1912 100.351C40.7033 100.82 41.1621 101.344 41.5589 101.913C44.1601 105.681 44.7312 110.451 45.0576 115.015C45.8902 126.672 45.8615 138.505 45.4775 150.179C44.5513 178.442 37.5204 206.167 36.2582 234.454C35.9589 241.528 36.039 248.613 36.4981 255.678C36.9372 262.68 37.5252 269.706 37.0693 276.72C36.8293 280.351 36.5293 284.327 35.0511 287.699C33.7961 290.554 31.4517 292.366 28.5146 293.304C27.5271 293.618 26.5204 293.867 25.5007 294.05C30.3503 268.293 29.0065 242.051 31.8909 215.806C34.4057 192.223 38.4946 168.956 39.1233 145.373Z" fill="url(#paint1_linear)"/>
<path d="M2.8101 52.2033C4.0939 47.1497 8.08923 43.5503 12.5597 41.1963C14.1619 40.3325 15.8079 39.5524 17.4909 38.8591C27.4541 30.1653 43.1524 35.1685 53.6843 40.7188C56.955 42.4417 61.3943 43.9918 63.6787 47.0633C66.2223 50.4876 64.3986 54.6269 63.6019 58.3223C62.6997 62.4761 62.4573 66.7426 62.4861 70.9851C62.5437 79.5565 63.6859 88.1471 62.8004 96.709C62.4525 100.068 61.9078 103.843 59.5706 106.478C57.0822 109.283 52.9405 109.533 49.4466 109.7C45.4585 109.897 41.751 111.179 37.8108 111.675C33.6235 112.201 29.3282 111.831 25.4961 109.981C22.0121 108.301 18.7863 106.132 15.9168 103.538C13.3948 101.213 12.243 98.2591 11.7055 95.0101C10.5945 92.7184 9.84096 90.1556 8.9747 87.7968C7.84208 84.7061 6.028 81.925 4.92898 78.8199C3.94288 75.9571 3.26786 72.9965 2.91567 69.9893C2.57013 67.0401 2.43579 63.9902 2.29181 61.0195C2.14303 58.0896 2.08062 55.0685 2.8101 52.2033Z" fill="url(#paint2_linear)"/>
<path d="M65.895 115.244C70.2639 129.951 68.3703 190.5 68.3703 190.5C67.5452 196.148 58.733 198.895 58.733 198.895C58.733 198.895 58.0891 178.403 57 174.5C56 167 51.9177 123.429 50.6016 111.011L50.5274 110.281C50.4985 110.025 50.4738 109.773 50.449 109.518L50.3871 108.82C50.3665 108.577 50.3418 108.334 50.3253 108.09L50.2634 107.356C50.2634 107.112 50.2262 106.869 50.2097 106.626C50.1767 106.139 50.1437 105.652 50.1149 105.165L50.0777 104.472C50.0777 104.286 50.0571 104.105 50.053 103.923C50.0489 103.742 50.0282 103.478 50.02 103.259C50.02 103.119 50.02 102.975 50.02 102.847C50.02 102.719 50.02 102.463 50.02 102.269C50.02 102.075 50.02 101.786 50.02 101.547C50.02 101.308 50.02 101.064 50.02 100.825C49.9952 99.395 50.0063 97.9799 50.053 96.58C50.7296 76.7775 45.2096 52.8949 42.7384 42.6265C42.3258 40.836 41.967 39.4581 41.7731 38.5876C42.2846 38.3535 42.705 37.9577 42.9696 37.4613C43.2343 36.9648 43.3285 36.3952 43.2377 35.84C43.1687 35.1998 42.9871 34.5769 42.7013 34C42.8457 34.0413 60.1402 43.33 62.5 45.5C70.5 50 61.7529 101.324 65.895 115.244Z" fill="url(#paint3_linear)"/>
<path d="M39.5328 145.599C39.7639 147.662 37.2389 197.251 37.4906 199C28.0019 196.611 5.59202 200.122 5.09696 196.479C4.30073 189.326 9.45775 138.516 10.0518 113.655C10.6459 88.7949 2.50576 67.9063 3.50001 53.5C3.49998 46 7.47925 44.9357 12.5 41C18.2757 36.4619 27.5 34 27.5 34C27.9696 34.5255 28.9947 36.0975 29.549 36.5328C32.1893 38.5956 34.5615 38.5749 34.5615 38.5749C34.5615 38.5749 36.2117 66.7646 37.4906 95.3173C38.489 117.867 39.079 141.523 39.5328 145.599Z" fill="url(#paint4_linear)"/>
<path d="M30.1634 83.7077C31.0392 83.8973 37.9501 84.6916 38.838 84.8283C38.7492 84.3028 38.6724 83.7869 38.5764 83.3142C38.3845 82.3735 37.7942 80.845 37.9117 79.65C36.7119 79.65 27.9581 79.446 27.3798 80.7706C26.6311 82.4935 28.8988 83.4342 30.1634 83.7077Z" fill="#F99863"/>
<path d="M38.5763 83.3136C38.6723 83.7935 38.749 84.3022 38.8378 84.8277C40.0136 85.0101 41.1919 85.1781 42.3581 85.4229C43.6347 85.6892 44.9064 85.9892 46.171 86.3131C53.785 88.2616 61.1446 91.1555 68.5043 93.8911C72.6292 95.4244 76.5166 97.7929 81.2726 97.7521C82.1125 97.7521 83.8402 97.8121 84.6321 97.3105C85.4239 96.809 86.2518 96.3507 86.4894 93.2312C86.7725 89.5334 84.0897 86.2555 81.5701 83.5128C78.7146 80.4149 75.2472 77.8761 71.199 76.7002C63.2635 74.3918 54.3873 76.4603 46.3798 78.0441C45.7991 78.1608 45.224 78.2736 44.6545 78.3824L37.9212 79.6614C37.794 80.8444 38.3843 82.373 38.5763 83.3136Z" fill="url(#paint5_linear)"/>
<path d="M22.5716 70.3632C22.6811 70.1463 22.7907 68.8947 23.0099 66.4001C23.2647 63.4976 23.5577 44.5473 23.6775 41.6882C23.8329 37.9572 24.0215 33.4452 27.5407 30.9245C31.3223 28.2238 37.7337 28.7033 41.8517 30.8508C47.4884 33.7901 48.4771 39.6904 49.1397 43.6319C49.7716 47.3868 48.7192 49.5452 48.9638 51.4801C48.9918 51.6971 49.0989 52.4129 48.6733 52.6515C48.5614 52.7053 48.435 52.7336 48.3064 52.7336C48.1778 52.7336 48.0514 52.7053 47.9394 52.6515C47.3024 52.3348 47.5546 51.0723 47.7075 50.0484C47.9695 47.9634 48.018 45.8629 47.8528 43.7707C47.7512 42.6356 47.5356 41.51 47.2081 40.4062C46.5303 38.1329 45.5135 34.7294 41.9408 32.4083C41.1458 31.8942 37.8509 29.892 33.5112 30.3172C32.576 30.4083 30.2775 30.6339 28.3306 32.1111C26.3838 33.5883 25.8741 35.5211 25.3466 37.7164C24.8777 39.6687 24.916 41.5776 24.995 45.415C25.051 48.1699 24.4853 66.1007 24.0929 67.8361C23.8712 68.8187 23.4966 69.3546 23.6266 70.4023C23.6775 70.8123 23.7998 71.27 23.494 71.5108C23.336 71.6113 23.1411 71.6608 22.9442 71.6504C22.7473 71.6401 22.5611 71.5706 22.4187 71.4544C22.1409 71.1724 22.4518 70.6062 22.5716 70.3632Z" fill="#479EB0"/>
<path d="M35.5973 62.8638C35.5973 62.8638 33.0704 73.1685 40.0246 73.0011H41.9093V72.11L39.9696 72.1518C39.9696 72.1518 35.4086 72.7451 37.1674 62.8638H35.5973Z" fill="#B5D8DF"/>
<path d="M61.0642 62.8638C61.0642 62.8638 63.5895 73.1685 56.6471 73.0011H54.7525V72.11L56.6915 72.1518C56.6915 72.1518 61.2448 72.7451 59.4863 62.8638H61.0642Z" fill="#B5D8DF"/>
<path d="M47.798 51.9659C47.798 51.9659 35.4268 50.6211 35.4268 63.7056C35.4268 63.7056 36.1396 64.8788 36.9764 63.7056C36.9764 63.7056 35.4991 53.3611 47.8755 52.8186L48.547 52.5663L47.798 51.9659Z" fill="#479EB0"/>
<path d="M48.7237 52.0875C48.7237 52.0875 60.8361 50.7573 60.8361 63.7003C60.8361 63.7003 60.1382 64.8608 59.3189 63.7003C59.3189 63.7003 60.7653 53.4677 48.6504 52.9311L47.9929 52.6815L48.7237 52.0875Z" fill="#479EB0"/>
<path d="M43.2612 72.6667C43.2612 72.1194 42.8086 71.6514 42.2473 71.6514C41.686 71.6514 41.2333 72.1057 41.2333 72.6667C41.2333 73.2277 41.686 73.6792 42.2473 73.6792C42.8086 73.6792 43.2612 73.225 43.2612 72.6667Z" fill="#3B8697"/>
<path d="M56.1044 72.6667C56.1044 72.1194 55.5009 71.6514 54.7525 71.6514C54.0041 71.6514 53.4006 72.1057 53.4006 72.6667C53.4006 73.2277 54.0041 73.6792 54.7525 73.6792C55.5009 73.6792 56.1044 73.225 56.1044 72.6667Z" fill="#3B8697"/>
<path d="M27.934 34.0168C28.4331 33.1026 29.0571 32.2315 29.5178 31.3149C30.1985 29.9677 30.7682 28.5673 31.2215 27.1275C31.6231 25.7577 31.9255 24.3607 32.1261 22.9474C32.3445 21.5556 32.7141 20.1303 33.9067 19.2424C35.0993 18.3546 37.2493 18.3017 38.5259 19.0792C39.685 19.7991 39.8625 20.8933 40.2728 22.0859C40.8439 23.7297 40.8871 25.515 41.1415 27.2331C41.5095 29.5489 42.0281 31.8382 42.694 34.0864C43.1495 34.8034 43.5444 35.5571 43.8746 36.3397C42.9148 40.2774 41.4582 43.7041 39.9369 47.3203C39.7617 47.3707 39.5866 47.4139 39.409 47.4523C36.2223 42.4227 32.1477 38.0698 27.934 34.0168Z" fill="url(#paint6_linear)"/>
<path d="M38.5763 83.3142C38.6723 83.7941 38.749 84.3028 38.8378 84.8283C39.0346 85.9802 39.2866 87.1704 39.9369 88.051C41.1367 89.6516 43.6635 89.702 45.0432 88.3102C45.5722 87.7435 45.9587 87.0592 46.171 86.3137C46.4301 85.3987 46.617 84.4648 46.7302 83.5206C46.9965 81.7401 47.1261 79.8732 46.6438 78.1286C46.5526 78.0926 46.4614 78.0614 46.3702 78.0327C45.2145 77.6761 44.0138 77.4862 42.8044 77.4688C42.3988 77.4688 41.9885 77.4928 41.5782 77.5335C40.6184 77.6271 39.2433 77.7519 38.4755 78.431C38.1366 78.7489 37.9345 79.1859 37.9116 79.65C37.794 80.845 38.3843 82.3736 38.5763 83.3142Z" fill="#FAFAFA"/>
<path d="M30.8472 14.7401C30.9456 19.5393 32.6877 24.4105 36.4383 27.5516C37.9764 28.845 39.865 29.4881 41.8734 29.0082C43.8819 28.5282 44.8393 25.9439 45.5688 24.2282C46.6075 21.8098 47.2796 19.25 47.5629 16.6334C47.9348 13.0819 47.8532 9.0506 44.7289 6.71097C42.8572 5.3096 40.592 5.16082 38.3364 5.27121C36.1456 5.37679 33.8683 5.85431 32.5365 7.7596C31.2047 9.6649 30.7992 12.434 30.8472 14.7401Z" fill="#F99863"/>
<path d="M29.4002 21.6608C29.6962 22.15 30.1523 22.5217 30.6912 22.7129C31.2301 22.904 31.8184 22.9028 32.3565 22.7094C34.1802 21.9895 32.8365 19.0692 32.5605 17.7542C32.2654 16.3145 31.1711 12.8398 32.9181 11.8368C33.7435 11.3569 35.0777 11.7624 35.6824 12.4775C36.0654 12.938 36.3445 13.4758 36.5007 14.054C36.7148 14.8765 36.7798 15.7306 36.6926 16.576C36.6591 16.7871 36.6423 17.0006 36.6423 17.2143C36.6423 17.3271 37.5133 17.3751 37.5373 17.2143C38.346 12.2615 45.2425 14.2868 48.5755 12.5015C50.0729 11.6976 50.812 10.121 50.8624 8.46291C50.8848 7.66279 50.7401 6.86678 50.4376 6.12569C50.5248 5.10148 50.2421 4.07993 49.6409 3.24615C48.2444 1.29287 45.3817 0.553798 42.7781 0.738568C41.5783 -0.0940983 39.6178 -0.0413079 38.286 0.0474778C37.1152 0.102483 35.9646 0.374231 34.8929 0.848941L34.7034 0.942529C34.4298 0.880139 34.1299 0.810556 34.0579 0.798558C33.5166 0.691392 32.9692 0.617653 32.4189 0.577783C31.0463 0.484198 29.1531 0.462602 28.6587 2.01755C28.03 3.98763 27.8861 6.12569 27.6989 8.19656C27.3294 12.5975 26.8902 17.7446 29.4002 21.6608Z" fill="#424242"/>
<path d="M41.1463 42.5032C41.403 41.8769 41.6454 41.2411 41.8806 40.598C42.6269 38.5607 43.3827 36.4826 44.0594 34.395C44.0954 34.2366 44.129 34.0758 44.165 33.915C45.8447 35.2156 47.5245 36.569 49.2666 37.8768C49.2564 38.5989 49.2067 39.3198 49.1178 40.0365C49.0304 40.8904 48.8999 41.7393 48.7267 42.58C48.5086 43.8204 48.1875 45.0404 47.7668 46.2274C47.2869 47.84 46.6462 49.6925 45.66 50.9955C44.6017 48.1879 43.0204 45.6011 40.5584 43.6431C40.7624 43.2615 40.9591 42.8848 41.1463 42.5032Z" fill="url(#paint7_linear)"/>
<path d="M26.4414 31.0269C28.7835 33.5105 31.3727 35.7589 33.6571 38.3121C34.8353 39.6295 35.9871 40.9757 37.0837 42.3626C37.5205 42.9121 37.9692 43.4593 38.3795 44.0256C36.4637 46.1551 34.7994 48.4982 33.4195 51.0084C33.2756 50.5645 33.1292 50.1326 32.9732 49.7223C32.1852 47.5841 31.2578 45.4999 30.1968 43.4833C28.3125 39.934 26.2179 36.5004 23.9242 33.2009C24.7009 32.4069 25.5429 31.6797 26.4414 31.0269Z" fill="url(#paint8_linear)"/>
<path d="M66.1839 86.3837C66.0063 85.7814 65.308 85.0111 65.0056 84.428C64.5454 83.5851 64.1854 82.6911 63.933 81.7645C63.3091 79.2353 64.1729 77.7835 66.2486 76.4517C67.4534 75.6762 68.8456 75.2409 70.2776 75.1919C71.5208 75.1781 72.7616 75.3069 73.9754 75.5759C75.252 75.8302 76.1951 76.1254 77.2629 76.8669C76.543 77.6899 75.3432 78.6714 74.2321 78.8993C72.6004 79.2329 71.5926 78.6282 70.4648 80.1471C69.3033 81.7213 69.1306 83.7825 69.3466 85.6662C69.4257 86.3573 66.6421 87.7971 66.5462 87.5091C66.419 87.1372 66.2943 86.7581 66.1839 86.3837Z" fill="#F99863"/>
<path d="M0.407967 62.4779C0.55674 64.4504 0.571129 66.4277 0.575928 68.4026C0.590324 76.0814 0.544716 83.5705 5.11838 90.1359C6.89169 92.6795 9.15934 94.6952 11.6597 96.5045C14.3737 98.465 17.2652 100.526 20.2983 101.959C23.6098 103.526 27.4804 103.591 31.0558 103.159C32.9227 102.919 34.7489 102.482 36.599 102.158C38.1563 101.887 39.3345 102.182 40.8918 102.384C42.9291 102.652 45.12 102.695 47.1308 102.196C48.6042 101.827 49.9504 101.083 51.2942 100.404C54.6821 98.684 57.9736 96.7807 61.1542 94.7024C63.8129 92.9674 67.1748 91.1246 68.857 88.329C69.608 87.0812 69.9416 85.4711 68.7346 84.3816C67.7747 83.5202 66.2701 83.3354 65.0463 83.1818C57.7131 82.3036 50.7566 84.4344 43.7546 86.2413C41.9625 86.7232 40.1468 87.1125 38.3147 87.4075C36.6181 87.6619 34.984 87.9163 33.4291 87.0068C30.6119 85.3607 28.8386 82.0684 27.3748 79.2657C23.485 71.8101 22.0261 63.733 16.9485 56.7981C14.3425 53.2394 8.78983 44.8696 3.84183 48.4858C1.64858 50.0887 0.211182 53.0907 0.0336151 55.7686C-0.110367 58.0123 0.244789 60.2487 0.407967 62.4779Z" fill="url(#paint9_linear)"/>
<path d="M178.277 297.323C179.73 297.473 179.258 296.165 180.62 296.462C182.453 296.868 186.284 298.772 188.072 299.228C191.564 300.118 195.074 300.991 198.603 301.847C205.568 303.537 212.632 305.067 219.804 306.514C223.249 307.209 226.706 307.89 230.176 308.556C231.871 308.882 233.525 309.027 235.283 309.219C237.121 309.421 238.912 309.785 240.697 310.085C242.621 310.406 244.563 310.701 246.497 310.989C242.715 310.113 239.088 309.059 235.401 308.083C231.505 307.05 227.601 306.03 223.725 304.983C219.794 303.918 215.592 302.966 211.946 301.662C208.065 300.276 203.982 299.069 199.922 297.828C199.13 297.586 198.437 295.421 198.643 295.446C201.72 295.811 204.842 296.306 207.987 296.462C211.212 296.623 214.155 297.172 217.247 297.666C223.771 298.712 230.239 299.854 236.776 300.878C243.542 301.938 250.066 303.441 256.637 304.788C263.303 306.153 270.031 307.461 276.61 308.935C283.331 310.439 290.228 311.82 296.785 313.507L307.036 316.146C310.534 317.051 313.845 318.165 317.398 319.011C324.154 320.623 330.847 322.278 337.679 323.806C344.361 325.303 351.044 326.801 357.78 328.222C372.896 331.409 388.011 334.593 403.125 337.774C403.881 337.93 404.711 338.973 404.95 339.253C405.557 339.972 406.062 340.712 406.463 341.467C406.595 341.715 407.795 344.863 406.867 344.735C391.794 342.66 376.719 340.586 361.684 338.444C346.828 336.328 332.042 334.093 317.151 332.047C302.424 330.023 287.815 327.751 273.309 325.341C269.602 324.725 265.822 324.057 262.261 323.244C258.418 322.367 254.683 321.33 250.931 320.356C247.357 319.429 243.572 318.676 240.087 317.666C238.211 317.127 236.508 316.48 234.554 316.016C232.673 315.569 230.793 315.118 228.915 314.663C220.82 312.702 212.831 310.629 204.771 308.629C200.812 307.646 196.872 306.642 192.952 305.617C190.934 305.091 188.929 304.559 186.937 304.022C184.604 303.394 180.325 302.509 178.277 301.662C177.089 301.171 167.525 299.934 167.152 299.228C167.068 299.068 177.642 297.259 178.277 297.323Z" fill="#DDD2DF"/>
<path d="M165.921 295.112C162.428 296.653 159.224 298.138 159.67 298.827C160.237 299.706 167.505 299.191 171.616 298.386C175.727 297.582 180.1 298.835 180.905 296.869C181.169 296.199 180.955 294.65 180.549 292.739L180.285 292.795C174.384 295.175 167.106 296.307 165.921 295.112Z" fill="#424242"/>
<path d="M174.025 290.888C173.703 291.762 169.647 293.472 165.921 295.111C167.106 296.303 174.384 295.171 180.279 292.794L180.543 292.738C179.752 289.044 178.3 283.985 178.456 281.357C177.326 282.676 174.429 283.294 172.806 282.592C172.859 282.766 174.643 289.213 174.025 290.888Z" fill="#FCB38F"/>
<path d="M160.403 143.47C149.283 185.209 161.987 269.004 172.12 282.135C172.317 282.332 172.551 282.488 172.809 282.594C174.432 283.296 177.329 282.67 178.459 281.359C183.982 271.212 185.882 236.234 182.578 218.353C178.221 194.77 186.206 138.053 186.206 138.053C177.918 138.926 168.821 140.546 160.403 143.47Z" fill="url(#paint10_linear)"/>
<path d="M200.942 31.397C208.331 32.1122 221.607 43.1875 200.942 58.8201C180.277 74.4527 159.646 74.0938 156.429 69.27C153.213 64.4461 154.287 54.7879 163.665 51.8033C158.124 44.1718 161.699 32.0119 167.505 30.3204C163.755 40.6858 179.298 41.8021 177.332 29.7662C175.366 17.7304 203.562 10.7638 200.942 31.397Z" fill="#E8505B"/>
<path d="M178.836 60.7202C170.901 65.2511 164.111 69.8955 161.968 74.094C159.826 78.2924 150.44 98.0729 149.725 104.773C158.747 108.346 175.814 102.322 175.814 102.322C175.814 102.322 172.767 66.9083 178.836 60.7202Z" fill="url(#paint11_linear)"/>
<path d="M201.712 290.399C199.654 293.386 197.643 296.157 197.989 298.479C200.601 301.426 216.276 284.878 216.411 283.004C216.492 281.901 214.783 281.189 212.846 279.31C210.537 284.316 204.243 291.085 201.712 290.399Z" fill="#424242"/>
<path d="M201.712 290.398C204.243 291.085 210.537 284.316 212.846 279.315C211.08 277.602 209.752 275.49 208.972 273.156C208.776 272.599 208.571 271.863 208.349 270.971C207.375 273.982 203.705 274.824 203.599 274.85C203.771 275.251 203.913 275.623 204.024 275.969C204.847 278.537 205.977 280.838 205.565 282.886C205.042 285.456 203.362 287.987 201.712 290.398Z" fill="#FCB38F"/>
<path d="M182.583 138.482C162.417 177.437 157.593 195.04 160.417 208.976C163.148 222.482 198.168 262.181 203.607 274.85C203.72 274.824 207.391 273.982 208.357 270.971C205.736 260.257 201.253 227.005 189.753 211.05C185.13 193.37 223.921 168.995 214.674 137.442C205.187 136.858 195.668 137.063 186.214 138.054C185.014 138.181 183.804 138.323 182.583 138.482Z" fill="#FED337"/>
<path d="M172.463 80.0133C175.366 119.171 167.37 118.841 160.403 143.47C167.61 140.968 175.31 139.419 182.57 138.482C183.801 138.324 185.011 138.182 186.198 138.055C195.652 137.064 205.171 136.859 214.658 137.443C207.315 89.2044 225.713 61.9239 199.585 56.8995C190.542 55.427 180.29 59.8471 180.29 59.8471C173.067 63.8001 171.658 69.1596 172.463 80.0133Z" fill="#00BCF8"/>
<path d="M154.458 100.596C154.242 106.206 153.371 117.194 154.173 117.865C154.975 118.535 177.268 114.513 190.399 104.67C187.988 102.393 165.027 105.14 165.027 105.14L166.568 102.464C166.568 102.464 159.097 98.3344 154.458 100.596Z" fill="#FFB088"/>
<path d="M196.366 97.3377L191.579 103.572C191.579 103.572 169.65 89.7263 166.969 86.5992C164.288 83.4722 159.736 80.6143 158.356 82.2451C156.976 83.8759 157.68 90.4414 158.752 91.5128C159.823 92.5841 162.684 92.6739 165.803 93.1198C174.189 99.3739 191.268 117.329 195.376 117.329C198.905 117.329 205.47 109.485 208.871 103.083C201.876 99.2147 196.366 97.3377 196.366 97.3377Z" fill="#FCB38F"/>
<path d="M203.895 58.1421C218.759 68.5946 191.634 99.3656 191.634 99.3656C195.835 100.725 202.932 103.523 206.505 105.787C209.825 107.891 213.301 110.352 216.307 112.885C230.182 77.722 216.725 62.7522 203.895 58.1421Z" fill="url(#paint12_linear)"/>
<path d="M189.708 102.39L191.571 103.572C196.941 102.875 199.736 108.932 199.736 108.932L202.214 108.404C201.878 107.536 200.562 105.393 198.709 103.269C200.113 103.604 202.683 107.156 202.683 107.156L203.24 106.892C202.988 106.029 202.598 105.212 202.087 104.472C201.164 103.084 199.9 101.956 198.416 101.197C196.941 100.45 195.257 100.217 193.635 100.537C192.203 100.851 190.86 101.484 189.708 102.39Z" fill="#E89D7F"/>
<path d="M186.404 48.4173C186.404 54.6213 182.38 58.1811 180.301 59.8462C183.852 66.4803 196.58 66.8154 199.596 56.8986C196.448 54.2861 192.685 50.3146 196.712 43.2451C193.743 45.6227 189.708 47.871 186.404 48.4173Z" fill="url(#paint13_linear)"/>
<path d="M188.238 30.8135C183.858 33.9063 178.382 43.0446 181.575 47.119C182.615 48.4385 184.367 48.7578 186.404 48.4174C189.7 47.8711 193.743 45.6228 196.712 43.2399C200.733 36.173 195.711 36.0147 194.505 39.1576C195.033 33.6556 192.492 28.7183 188.243 30.8109L188.238 30.8135Z" fill="#FCAD8E"/>
<path d="M276.443 300.586C277.436 300.684 278.429 300.792 279.422 300.912C282.444 301.279 285.461 301.751 288.472 302.328C291.214 302.853 297.926 303.444 298.732 305.921C299.273 307.583 294.354 307.566 293.267 308.086C291.533 308.917 289.784 309.657 288.019 310.307C284.126 311.74 280.178 312.663 276.208 313.314C269.136 314.473 261.993 314.711 254.913 313.604C250.554 312.922 246.14 311.65 241.923 309.622C239.749 308.581 237.62 307.324 235.551 305.86C234.708 305.261 230.332 302.676 232.406 300.644C232.768 300.289 233.272 300.269 233.687 300.262C241.208 300.131 233.822 293.131 241.311 292.704C248.049 292.32 269.713 299.926 276.443 300.586Z" fill="#DDD2DF"/>
<path d="M259.463 275.891C259.463 275.891 242.302 257.507 249.134 250.743C251.621 250.92 253.407 251.552 254.677 252.309C254.99 252.502 255.352 252.601 255.719 252.595C256.087 252.589 256.446 252.478 256.752 252.275C257.059 252.072 257.301 251.785 257.45 251.449C257.598 251.112 257.648 250.74 257.592 250.376C256.904 246.069 254.814 242.109 251.646 239.11C243.932 231.714 253.092 220.796 257.14 225.255C261.187 229.715 264.069 234.632 267.472 232.142C270.876 229.651 252.726 217.49 257.311 209.536C261.895 201.581 271.938 204.817 274.761 213.305C277.585 221.794 274.63 235.478 280.158 233.091C285.686 230.704 279.758 223.323 285.924 219.661C292.09 215.998 296.912 223.467 293.463 229.526C290.014 235.585 278.439 237.743 281.049 242.245C283.659 246.747 288.317 238.442 293.762 241.409C299.208 244.376 289.3 250.471 278.317 254.903C267.335 259.335 275.265 262.479 281.461 260.239C287.658 257.998 288.466 269.271 279.172 270.846C269.877 272.421 263.794 270.739 259.463 275.891Z" fill="#1BA46A"/>
<path d="M258.181 273.885C255.235 263.284 259.628 258.828 264.286 254.109C269.594 248.727 275.61 242.626 271.483 225.532C267.82 210.411 261.673 208.668 261.612 208.653L261.85 207.67C262.125 207.737 268.648 209.477 272.466 225.294C276.721 242.934 270.497 249.249 265.006 254.82C260.373 259.518 256.371 263.577 259.161 273.616L258.181 273.885Z" fill="#008950"/>
<path d="M230.09 118.969C230.09 118.969 227.743 130.043 221.006 142.38C214.269 154.718 228.191 159.66 228.512 166.842C228.832 174.024 217.056 169.656 215.521 186.658C213.985 203.66 229.965 201.166 230.224 211.16C230.484 221.153 206.388 216.486 213.598 240.981C220.808 265.477 233.438 252.113 234.964 269.591L236.466 287.072L238.908 284.02C238.908 284.02 235.496 268.758 239.943 264.665C244.39 260.571 269.246 253.148 270.634 230.954C272.023 208.76 254.475 207.005 254.558 200.983C254.64 194.961 267.832 187.952 260.052 170.734C252.271 153.515 240.886 157.126 240.566 149.944C240.245 142.762 246.353 133.687 230.09 118.969Z" fill="#2EB67D"/>
<path d="M256.105 264.265C253.947 270.894 252.915 277.838 253.053 284.808L243.957 286.682C238.389 275.312 232.688 259.998 230.96 242.667C227.276 205.733 249.073 198.761 249.073 198.761C249.073 198.761 248.05 208.395 248.026 216.581C248.001 224.767 262.21 245.646 256.105 264.265Z" fill="#1BA46A"/>
<path d="M267.069 172.077C267.069 172.077 279.923 179.003 277.585 192.162C275.247 205.321 263.327 214.139 265.302 225.515C267.277 236.891 269.508 236.217 268.47 248.206C266.944 265.95 249.338 265.993 251.988 276.572C254.637 287.152 252.748 290.183 252.748 290.183L250.019 289.972C250.019 289.972 251.685 285.232 247.696 276.236C243.707 267.241 233.066 263.67 235.099 243.921C237.132 224.172 257.348 209.224 255.049 195.284C253.096 183.462 267.069 172.077 267.069 172.077Z" fill="#2EB67D"/>
<path d="M224.495 275.497L233.417 300.801H260.18L270.149 275.497H224.495Z" fill="#963298"/>
<defs>
<linearGradient id="paint0_linear" x1="23.6584" y1="210.223" x2="66.8462" y2="207.475" gradientUnits="userSpaceOnUse">
<stop stop-color="#963298"/>
<stop offset="1" stop-color="#4A154B"/>
</linearGradient>
<linearGradient id="paint1_linear" x1="4.73162" y1="192.648" x2="45.2735" y2="195.781" gradientUnits="userSpaceOnUse">
<stop stop-color="#963298"/>
<stop offset="1" stop-color="#4A154B"/>
</linearGradient>
<linearGradient id="paint2_linear" x1="6.4215" y1="38.1919" x2="107.139" y2="103.084" gradientUnits="userSpaceOnUse">
<stop stop-color="#FED337"/>
<stop offset="1" stop-color="#FDBB00"/>
</linearGradient>
<linearGradient id="paint3_linear" x1="12" y1="13" x2="102.5" y2="193" gradientUnits="userSpaceOnUse">
<stop stop-color="white"/>
<stop offset="1" stop-color="#ECECEC"/>
</linearGradient>
<linearGradient id="paint4_linear" x1="-5.00001" y1="7.49998" x2="43.0001" y2="202" gradientUnits="userSpaceOnUse">
<stop stop-color="white"/>
<stop offset="1" stop-color="#ECECEC"/>
</linearGradient>
<linearGradient id="paint5_linear" x1="65.9775" y1="74.0799" x2="60.2568" y2="93.4807" gradientUnits="userSpaceOnUse">
<stop stop-color="white"/>
<stop offset="1" stop-color="#EBEBEB"/>
</linearGradient>
<linearGradient id="paint6_linear" x1="-48080.7" y1="38039.2" x2="-49216.7" y2="38963.6" gradientUnits="userSpaceOnUse">
<stop stop-color="#E88E5C"/>
<stop offset="0.13" stop-color="#F0935F"/>
<stop offset="0.36" stop-color="#F79762"/>
<stop offset="1" stop-color="#F99863"/>
</linearGradient>
<linearGradient id="paint7_linear" x1="44.9125" y1="33.915" x2="44.9125" y2="50.9955" gradientUnits="userSpaceOnUse">
<stop stop-color="#FED337"/>
<stop offset="1" stop-color="#FDBB00"/>
</linearGradient>
<linearGradient id="paint8_linear" x1="31.1519" y1="31.0269" x2="31.1519" y2="51.0084" gradientUnits="userSpaceOnUse">
<stop stop-color="#FED337"/>
<stop offset="1" stop-color="#FDBB00"/>
</linearGradient>
<linearGradient id="paint9_linear" x1="-42.5" y1="79" x2="34.7661" y2="103.388" gradientUnits="userSpaceOnUse">
<stop stop-color="#EBEBEB"/>
<stop offset="1" stop-color="#F5F5F5"/>
</linearGradient>
<linearGradient id="paint10_linear" x1="128.432" y1="166.962" x2="220.362" y2="200.76" gradientUnits="userSpaceOnUse">
<stop stop-color="#FED337"/>
<stop offset="1" stop-color="#FDBB00"/>
</linearGradient>
<linearGradient id="paint11_linear" x1="165.801" y1="60.7202" x2="165.801" y2="102.534" gradientUnits="userSpaceOnUse">
<stop stop-color="#00BCF8"/>
<stop offset="1" stop-color="#2191ED"/>
</linearGradient>
<linearGradient id="paint12_linear" x1="180.819" y1="137.895" x2="219.686" y2="58.1322" gradientUnits="userSpaceOnUse">
<stop stop-color="#00BCF8"/>
<stop offset="1" stop-color="#2191ED"/>
</linearGradient>
<linearGradient id="paint13_linear" x1="189.943" y1="53.0775" x2="174.102" y2="42.0576" gradientUnits="userSpaceOnUse">
<stop stop-color="#FCAD8E"/>
<stop offset="1" stop-color="#E09A7F"/>
</linearGradient>
</defs>
</svg>
