<svg width="50" height="51" viewBox="0 0 50 51" fill="none" xmlns="http://www.w3.org/2000/svg">
<path d="M14.7023 0.882355C6.63182 0.882355 0 7.50508 0 15.5846V36.1801C0 44.2505 6.62273 50.8824 14.7023 50.8824H35.2977C43.3682 50.8824 50 44.2596 50 36.1801V15.5869C50 7.51417 43.3773 0.882355 35.2977 0.882355H14.7023ZM14.7023 5.42781H35.2977C36.632 5.42601 37.9536 5.6875 39.1867 6.1973C40.4198 6.70709 41.5402 7.45516 42.4837 8.39867C43.4272 9.34217 44.1753 10.4626 44.6851 11.6957C45.1949 12.9288 45.4563 14.2503 45.4545 15.5846V36.1801C45.4563 37.5144 45.1949 38.836 44.6851 40.069C44.1753 41.3021 43.4272 42.4225 42.4837 43.366C41.5402 44.3095 40.4198 45.0576 39.1867 45.5674C37.9536 46.0772 36.632 46.3387 35.2977 46.3369H14.7045C13.37 46.339 12.0482 46.0777 10.8149 45.5681C9.58152 45.0584 8.46086 44.3104 7.51712 43.3668C6.57337 42.4233 5.82509 41.3028 5.31516 40.0696C4.80522 38.8363 4.54366 37.5146 4.54545 36.1801V15.5869C4.54336 14.2524 4.80463 12.9306 5.31429 11.6972C5.82394 10.4639 6.57197 9.34322 7.51551 8.39947C8.45904 7.45573 9.57954 6.70745 10.8128 6.19751C12.046 5.68758 13.3678 5.42601 14.7023 5.42781ZM38.4227 10.4005C38.152 10.3993 37.8837 10.4518 37.6333 10.5548C37.383 10.6579 37.1555 10.8095 36.964 11.0009C36.7726 11.1924 36.621 11.4199 36.5179 11.6702C36.4149 11.9206 36.3624 12.1889 36.3636 12.4596C36.3636 13.6051 37.2773 14.5187 38.4227 14.5187C38.6937 14.5202 38.9622 14.468 39.2128 14.3651C39.4635 14.2622 39.6912 14.1106 39.8829 13.9191C40.0746 13.7276 40.2264 13.5001 40.3296 13.2496C40.4328 12.999 40.4853 12.7306 40.4841 12.4596C40.4853 12.1887 40.4328 11.9202 40.3296 11.6697C40.2264 11.4192 40.0746 11.1916 39.8829 11.0001C39.6912 10.8087 39.4635 10.6571 39.2128 10.5542C38.9622 10.4512 38.6937 10.399 38.4227 10.4005ZM25 12.246C17.5 12.246 11.3636 18.3824 11.3636 25.8824C11.3636 33.3824 17.5 39.5187 25 39.5187C32.5 39.5187 38.6364 33.3824 38.6364 25.8824C38.6364 18.3824 32.5 12.246 25 12.246ZM25 16.7914C30.0523 16.7914 34.0909 20.8301 34.0909 25.8824C34.0909 30.9346 30.0523 34.9733 25 34.9733C19.9477 34.9733 15.9091 30.9346 15.9091 25.8824C15.9091 20.8301 19.9477 16.7914 25 16.7914Z" fill="url(#paint0_linear)"/>
<defs>
<linearGradient id="paint0_linear" x1="0" y1="0.882355" x2="53" y2="54.8824" gradientUnits="userSpaceOnUse">
<stop stop-color="#963298"/>
<stop offset="1" stop-color="#4A154B"/>
</linearGradient>
</defs>
</svg>
