<svg width="30" height="30" viewBox="0 0 30 30" fill="none" xmlns="http://www.w3.org/2000/svg">
<rect x="1.25" y="1.25" width="27.5" height="27.5" rx="5.75" stroke="url(#paint0_linear)" stroke-width="2.5"/>
<path d="M10.158 10.051C9.766 10.443 9.297 10.639 8.751 10.639C8.205 10.639 7.729 10.443 7.323 10.051C6.931 9.645 6.735 9.169 6.735 8.623C6.735 8.077 6.931 7.608 7.323 7.216C7.729 6.824 8.205 6.628 8.751 6.628C9.297 6.628 9.766 6.824 10.158 7.216C10.564 7.608 10.767 8.077 10.767 8.623C10.767 9.169 10.564 9.645 10.158 10.051ZM7.008 22V11.5H10.494V22H7.008ZM18.9091 11.206C20.0431 11.206 20.9671 11.598 21.6811 12.382C22.4091 13.152 22.7731 14.265 22.7731 15.721V22H19.2871V16.162C19.2871 15.616 19.1401 15.203 18.8461 14.923C18.5661 14.643 18.1881 14.503 17.7121 14.503C17.1661 14.503 16.7391 14.671 16.4311 15.007C16.1371 15.329 15.9901 15.798 15.9901 16.414V22H12.5041V11.5H15.9901V12.55C16.6201 11.654 17.5931 11.206 18.9091 11.206Z" fill="url(#paint1_linear)"/>
<defs>
<linearGradient id="paint0_linear" x1="-4.78864e-07" y1="-3.6" x2="32.4" y2="39" gradientUnits="userSpaceOnUse">
<stop stop-color="#963298"/>
<stop offset="1" stop-color="#4A154B"/>
</linearGradient>
<linearGradient id="paint1_linear" x1="4.5" y1="1" x2="30.5" y2="28" gradientUnits="userSpaceOnUse">
<stop stop-color="#963298"/>
<stop offset="1" stop-color="#4A154B"/>
</linearGradient>
</defs>
</svg>
