<svg width="188" height="37" viewBox="0 0 188 37" fill="none" xmlns="http://www.w3.org/2000/svg">
<path d="M47.7893 11.9586C47.2155 11.3672 46.9285 10.5645 46.9285 9.55059C46.9285 8.53669 47.2155 7.74457 47.7893 7.17425C48.3837 6.5828 49.1933 6.28708 50.218 6.28708C51.2428 6.28708 52.0421 6.5828 52.616 7.17425C53.2103 7.74457 53.5075 8.53669 53.5075 9.55059C53.5075 10.5645 53.2103 11.3672 52.616 11.9586C52.0421 12.5289 51.2428 12.8141 50.218 12.8141C49.1933 12.8141 48.3837 12.5289 47.7893 11.9586ZM53.3538 29.8921H47.0822V14.0498H53.3538V29.8921Z" fill="url(#paint0_linear)"/>
<path d="M53.8875 18.9926V14.0498H55.732V9.29712H61.8191V14.0498H65.3546V18.9926H61.8191V23.5869C61.8191 24.6008 62.3827 25.1077 63.51 25.1077C64.2478 25.1077 65.0266 24.9071 65.8464 24.5057V29.6703C64.8012 30.135 63.3563 30.3674 61.5117 30.3674C59.8106 30.3674 58.4067 29.8816 57.2999 28.9099C56.1932 27.9382 55.6398 26.4385 55.6398 24.4107V18.9926H53.8875Z" fill="url(#paint1_linear)"/>
<path d="M89.1008 20.0065V29.8921H82.8292V20.9571C82.8292 20.4712 82.7063 20.091 82.4603 19.8164C82.2349 19.5207 81.9274 19.3728 81.538 19.3728C80.8822 19.3728 80.3596 19.6052 79.9701 20.0699C79.6012 20.5346 79.4168 21.1472 79.4168 21.9076V29.8921H73.1452V7.0792H79.2631V15.8875C79.7345 15.2327 80.3801 14.6835 81.1999 14.2399C82.0197 13.7963 82.8497 13.5745 83.69 13.5745C85.3297 13.5745 86.6414 14.1237 87.6251 15.2221C88.6089 16.2994 89.1008 17.8942 89.1008 20.0065Z" fill="url(#paint2_linear)"/>
<path d="M91.0455 20.2283V14.5568C92.5212 13.9019 94.4785 13.5745 96.9174 13.5745C99.4178 13.5745 101.324 14.1449 102.636 15.2855C103.968 16.4262 104.634 17.9998 104.634 20.0065V29.8921H99.0079L98.8849 28.8465L98.9157 27.896H98.8542C98.1369 29.5436 96.7227 30.3674 94.6117 30.3674C93.259 30.3674 92.101 29.9555 91.1377 29.1317C90.195 28.3079 89.7236 27.0827 89.7236 25.4563C89.7236 23.5552 90.5639 22.1505 92.2445 21.2422C93.9251 20.3128 95.9746 20.0276 98.3931 20.3867V20.355C98.3931 19.3623 97.5323 18.8659 95.8107 18.8659C93.9866 18.8659 92.3982 19.32 91.0455 20.2283ZM96.487 25.583C97.0199 25.583 97.44 25.3823 97.7475 24.981C98.0754 24.5797 98.2393 23.9988 98.2393 23.2383C97.3171 23.0905 96.6202 23.1539 96.1488 23.4285C95.6979 23.7031 95.4725 24.0833 95.4725 24.5691C95.4725 25.245 95.8107 25.583 96.487 25.583Z" fill="url(#paint3_linear)"/>
<path d="M121.547 28.1495C120.195 29.6281 118.534 30.3674 116.567 30.3674C114.599 30.3674 113.165 29.7865 112.263 28.6247H112.201C112.263 28.8782 112.294 29.3218 112.294 29.9555V36.8627H106.022V14.0498H111.679L111.802 15.0954L111.771 16.0459H111.832C112.14 15.3278 112.724 14.7363 113.585 14.2716C114.466 13.8069 115.409 13.5745 116.413 13.5745C118.442 13.5745 120.143 14.3244 121.517 15.8241C122.91 17.3028 123.607 19.3517 123.607 21.971C123.607 24.5902 122.92 26.6497 121.547 28.1495ZM116.997 19.753C116.505 19.1827 115.891 18.8976 115.153 18.8976C114.415 18.8976 113.79 19.1827 113.277 19.753C112.786 20.3022 112.54 21.0415 112.54 21.971C112.54 22.9004 112.786 23.6502 113.277 24.2206C113.79 24.7698 114.415 25.0444 115.153 25.0444C115.891 25.0444 116.505 24.7698 116.997 24.2206C117.51 23.6502 117.766 22.9004 117.766 21.971C117.766 21.0415 117.51 20.3022 116.997 19.753Z" fill="url(#paint4_linear)"/>
<path d="M139.892 28.1495C138.539 29.6281 136.879 30.3674 134.912 30.3674C132.944 30.3674 131.51 29.7865 130.608 28.6247H130.546C130.608 28.8782 130.638 29.3218 130.638 29.9555V36.8627H124.367V14.0498H130.024L130.147 15.0954L130.116 16.0459H130.177C130.485 15.3278 131.069 14.7363 131.93 14.2716C132.811 13.8069 133.754 13.5745 134.758 13.5745C136.787 13.5745 138.488 14.3244 139.861 15.8241C141.255 17.3028 141.952 19.3517 141.952 21.971C141.952 24.5902 141.265 26.6497 139.892 28.1495ZM135.342 19.753C134.85 19.1827 134.235 18.8976 133.498 18.8976C132.76 18.8976 132.135 19.1827 131.622 19.753C131.13 20.3022 130.884 21.0415 130.884 21.971C130.884 22.9004 131.13 23.6502 131.622 24.2206C132.135 24.7698 132.76 25.0444 133.498 25.0444C134.235 25.0444 134.85 24.7698 135.342 24.2206C135.855 23.6502 136.111 22.9004 136.111 21.971C136.111 21.0415 135.855 20.3022 135.342 19.753Z" fill="url(#paint5_linear)"/>
<path d="M150.141 13.5745C152.498 13.5745 154.312 14.2927 155.582 15.7291C156.853 17.1443 157.488 18.9081 157.488 21.0204C157.488 21.9498 157.427 22.6997 157.304 23.27H148.542C148.809 24.4318 149.874 25.0127 151.739 25.0127C153.584 25.0127 155.285 24.7275 156.843 24.1572V29.4802C155.47 30.0717 153.563 30.3674 151.125 30.3674C148.317 30.3674 146.103 29.5858 144.484 28.0227C142.865 26.4596 142.055 24.4424 142.055 21.971C142.055 19.5629 142.824 17.5668 144.361 15.9826C145.919 14.3772 147.845 13.5745 150.141 13.5745ZM151.616 20.5135C151.657 19.9009 151.545 19.4151 151.278 19.056C151.012 18.6758 150.612 18.4857 150.079 18.4857C149.567 18.4857 149.167 18.6758 148.88 19.056C148.614 19.4151 148.481 19.9009 148.481 20.5135H151.616Z" fill="url(#paint6_linear)"/>
<path d="M174.25 20.0065V29.8921H167.979V20.9571C167.979 20.4712 167.856 20.091 167.61 19.8164C167.384 19.5207 167.077 19.3728 166.687 19.3728C166.032 19.3728 165.509 19.6052 165.119 20.0699C164.751 20.5346 164.566 21.1472 164.566 21.9076V29.8921H158.295V14.0498H163.951L164.136 15.4756C164.177 15.7925 164.136 16.1199 164.013 16.4578H164.074C164.443 15.6974 165.089 15.032 166.011 14.4617C166.933 13.8703 167.876 13.5745 168.839 13.5745C170.479 13.5745 171.791 14.1237 172.774 15.2221C173.758 16.2994 174.25 17.8942 174.25 20.0065Z" fill="url(#paint7_linear)"/>
<path d="M182.559 19.9748C184.485 20.4607 185.869 21.0944 186.709 21.8759C187.57 22.6363 188 23.7559 188 25.2345C188 26.861 187.385 28.1283 186.156 29.0366C184.926 29.9238 183.204 30.3674 180.991 30.3674C178.962 30.3674 177.138 30.0294 175.519 29.3535V23.777C176.256 24.1994 177.158 24.5797 178.224 24.9176C179.29 25.2345 180.191 25.3929 180.929 25.3929C181.831 25.3929 182.282 25.2345 182.282 24.9176C182.282 24.6853 181.729 24.4212 180.622 24.1255C180.499 24.1044 180.407 24.0833 180.345 24.0621C178.665 23.6397 177.384 23.0377 176.502 22.2561C175.621 21.4534 175.18 20.2917 175.18 18.7708C175.18 17.1232 175.723 15.8453 176.81 14.937C177.896 14.0287 179.423 13.5745 181.39 13.5745C183.46 13.5745 185.325 13.9019 186.986 14.5568V19.9748C186.33 19.6157 185.5 19.2989 184.495 19.0243C183.512 18.7497 182.661 18.6124 181.944 18.6124C181.247 18.6124 180.899 18.7708 180.899 19.0877C180.899 19.4256 181.452 19.7214 182.559 19.9748Z" fill="url(#paint8_linear)"/>
<path d="M47.66 12.1336C47.0641 11.5161 46.7662 10.6781 46.7662 9.6196C46.7662 8.56108 47.0641 7.73412 47.66 7.1387C48.2772 6.52123 49.0354 6.26605 50.0995 6.26605C51.1636 6.26605 52.1588 6.52123 52.7547 7.1387C53.3719 7.73412 53.5979 8.56108 53.5979 9.6196C53.5979 10.6781 53.2893 11.5161 52.6721 12.1336C52.0762 12.729 51.2462 13.0267 50.1821 13.0267C49.1179 13.0267 48.2772 12.729 47.66 12.1336Z" fill="url(#paint9_linear)"/>
<path d="M17.1335 35.3167C26.5961 35.3167 34.2671 27.4108 34.2671 17.6584C34.2671 7.90591 26.5961 0 17.1335 0C7.67094 0 0 7.90591 0 17.6584C0 27.4108 7.67094 35.3167 17.1335 35.3167Z" fill="url(#paint10_linear)"/>
<path fill-rule="evenodd" clip-rule="evenodd" d="M10.4289 2.7155L10.1861 2.74188C9.39133 2.82818 8.87846 3.52895 8.95566 4.28572C9.70124 11.6652 9.77549 12.3149 10.186 16.33C10.2735 17.0952 10.28 17.6517 10.4599 18.1642C10.6398 18.6767 11.014 19.0927 11.5587 19.3862C12.1113 19.6839 13.2357 20.2313 14.3737 20.8667C15.5117 21.502 16.6653 22.2495 17.1503 22.7814C17.1589 22.7895 17.2048 22.8349 17.221 22.851L20.0303 25.6234C20.3622 25.9628 20.3534 26.0411 20.002 26.5471C18.8373 28.1605 17.6927 29.7874 16.531 31.4166C16.0798 32.048 16.2236 32.906 16.8187 33.3567C16.8844 33.4104 16.9338 33.4516 17.0156 33.5057C17.6553 33.9578 18.4402 33.8199 18.8978 33.2092C20.2605 31.2968 21.7418 29.2233 23.06 27.372H23.0602C23.3691 26.9278 23.4979 26.3293 23.4605 25.8378C23.4231 25.3462 23.2958 24.919 22.9907 24.5819L22.9905 24.5817C22.0724 23.5675 21.0728 22.4787 20.2578 21.585L20.2575 21.5847L20.239 21.5643C20.0822 21.3925 20.0305 21.1927 20.05 21.0395C20.0681 20.8973 20.1229 20.7872 20.2937 20.6997C21.8218 20.0247 23.4592 19.2951 24.8106 18.7137C25.1649 18.5589 25.308 18.5877 25.6355 18.8489C27.0383 20.1455 28.5186 21.4555 29.9608 22.7515C30.5174 23.2515 31.3755 23.1911 31.8606 22.6175L32.0211 22.4279C32.5062 21.8544 32.4475 20.97 31.8911 20.4699C30.168 18.9319 28.4079 17.3459 26.9232 16.0057V16.0053C26.6297 15.7704 26.2993 15.6127 25.9327 15.5243C25.7928 15.4938 25.6433 15.4731 25.4821 15.4615C25.0158 15.4282 24.588 15.5096 24.193 15.6553C22.5974 16.3224 20.8527 17.0952 19.3956 17.7421C19.1115 17.8817 18.9689 17.8905 18.6773 17.7208C17.413 16.849 16.3643 16.072 15.3523 15.2854C15.0697 15.069 15.0915 14.8523 15.2512 14.5859L19.7578 7.09001C20.1467 6.44319 19.95 5.58054 19.3224 5.17975L19.1149 5.04693C18.4877 4.64614 17.6502 4.84877 17.2613 5.49564L12.91 12.7333C12.8715 12.7972 12.8255 12.8738 12.7915 12.9305C12.781 12.8312 12.7735 12.7489 12.7679 12.6934L11.8768 3.96893C11.7864 3.24282 11.2068 2.63115 10.4289 2.71561L10.4289 2.7155Z" fill="white"/>
<path d="M9.33988 17.5712C9.00309 17.732 8.62784 17.8217 8.23227 17.8217C6.77525 17.8217 5.59412 16.6044 5.59412 15.1028C5.59412 13.6011 6.77525 12.3838 8.23227 12.3838C8.42985 12.3838 8.62237 12.4062 8.80754 12.4487" fill="white"/>
<defs>
<linearGradient id="paint0_linear" x1="45.5451" y1="-21.1231" x2="210.317" y2="54.9934" gradientUnits="userSpaceOnUse">
<stop stop-color="#963298"/>
<stop offset="1" stop-color="#4A154B"/>
</linearGradient>
<linearGradient id="paint1_linear" x1="45.5451" y1="-21.1231" x2="210.317" y2="54.9934" gradientUnits="userSpaceOnUse">
<stop stop-color="#963298"/>
<stop offset="1" stop-color="#4A154B"/>
</linearGradient>
<linearGradient id="paint2_linear" x1="45.5451" y1="-21.1231" x2="210.317" y2="54.9934" gradientUnits="userSpaceOnUse">
<stop stop-color="#963298"/>
<stop offset="1" stop-color="#4A154B"/>
</linearGradient>
<linearGradient id="paint3_linear" x1="45.5451" y1="-21.1231" x2="210.317" y2="54.9934" gradientUnits="userSpaceOnUse">
<stop stop-color="#963298"/>
<stop offset="1" stop-color="#4A154B"/>
</linearGradient>
<linearGradient id="paint4_linear" x1="45.5451" y1="-21.1231" x2="210.317" y2="54.9934" gradientUnits="userSpaceOnUse">
<stop stop-color="#963298"/>
<stop offset="1" stop-color="#4A154B"/>
</linearGradient>
<linearGradient id="paint5_linear" x1="45.5451" y1="-21.1231" x2="210.317" y2="54.9934" gradientUnits="userSpaceOnUse">
<stop stop-color="#963298"/>
<stop offset="1" stop-color="#4A154B"/>
</linearGradient>
<linearGradient id="paint6_linear" x1="45.5451" y1="-21.1231" x2="210.317" y2="54.9934" gradientUnits="userSpaceOnUse">
<stop stop-color="#963298"/>
<stop offset="1" stop-color="#4A154B"/>
</linearGradient>
<linearGradient id="paint7_linear" x1="45.5451" y1="-21.1231" x2="210.317" y2="54.9934" gradientUnits="userSpaceOnUse">
<stop stop-color="#963298"/>
<stop offset="1" stop-color="#4A154B"/>
</linearGradient>
<linearGradient id="paint8_linear" x1="45.5451" y1="-21.1231" x2="210.317" y2="54.9934" gradientUnits="userSpaceOnUse">
<stop stop-color="#963298"/>
<stop offset="1" stop-color="#4A154B"/>
</linearGradient>
<linearGradient id="paint9_linear" x1="42.0849" y1="1.94195" x2="60.2847" y2="22.1086" gradientUnits="userSpaceOnUse">
<stop stop-color="#FED337"/>
<stop offset="1" stop-color="#ECB22E"/>
</linearGradient>
<linearGradient id="paint10_linear" x1="0" y1="0" x2="34.8897" y2="37.6141" gradientUnits="userSpaceOnUse">
<stop stop-color="#FED337"/>
<stop offset="1" stop-color="#ECB22E"/>
</linearGradient>
</defs>
</svg>
