<svg width="30" height="31" viewBox="0 0 30 31" fill="none" xmlns="http://www.w3.org/2000/svg">
<path d="M14.594 30.04C22.654 30.04 29.1879 23.3153 29.1879 15.02C29.1879 6.72468 22.654 0 14.594 0C6.53394 0 0 6.72468 0 15.02C0 23.3153 6.53394 30.04 14.594 30.04Z" fill="url(#paint0_linear)"/>
<path fill-rule="evenodd" clip-rule="evenodd" d="M8.88347 2.30986L8.67666 2.3323C7.99969 2.40571 7.56284 3.00177 7.6286 3.64547C8.26367 9.92238 8.32691 10.475 8.67658 13.8902C8.75107 14.5411 8.75667 15.0144 8.9099 15.4503C9.06313 15.8862 9.38185 16.2401 9.84585 16.4898C10.3165 16.743 11.2742 17.2086 12.2436 17.749C13.2129 18.2895 14.1955 18.9252 14.6086 19.3777C14.6159 19.3846 14.655 19.4232 14.6689 19.4369L17.0617 21.795C17.3444 22.0837 17.337 22.1503 17.0377 22.5807C16.0456 23.9531 15.0707 25.3369 14.0811 26.7227C13.6968 27.2597 13.8192 27.9896 14.3262 28.3729C14.3821 28.4185 14.4242 28.4536 14.4939 28.4996C15.0387 28.8842 15.7073 28.7668 16.0971 28.2474C17.2578 26.6208 18.5195 24.8571 19.6423 23.2824H19.6425C19.9057 22.9045 20.0153 22.3955 19.9835 21.9774C19.9517 21.5593 19.8432 21.1959 19.5833 20.9092L19.5831 20.909C18.8012 20.0463 17.9497 19.1202 17.2555 18.36L17.2553 18.3598L17.2395 18.3424C17.106 18.1963 17.0619 18.0264 17.0785 17.896C17.094 17.775 17.1406 17.6815 17.2861 17.607C18.5877 17.0328 19.9824 16.4122 21.1335 15.9177C21.4353 15.7861 21.5571 15.8106 21.8361 16.0328C23.031 17.1356 24.2919 18.2499 25.5203 19.3523C25.9944 19.7776 26.7253 19.7262 27.1386 19.2382L27.2753 19.077C27.6885 18.5892 27.6384 17.8369 27.1645 17.4116C25.6968 16.1033 24.1976 14.7543 22.9329 13.6143V13.614C22.6829 13.4142 22.4015 13.2801 22.0893 13.2049C21.9701 13.1789 21.8428 13.1613 21.7055 13.1515C21.3083 13.1231 20.9439 13.1923 20.6075 13.3163C19.2483 13.8837 17.7622 14.541 16.5211 15.0913C16.2791 15.2101 16.1577 15.2176 15.9093 15.0732C14.8324 14.3317 13.9391 13.6707 13.0771 13.0016C12.8364 12.8176 12.855 12.6333 12.991 12.4067L16.8296 6.03076C17.1609 5.48059 16.9933 4.74683 16.4588 4.40592L16.282 4.29295C15.7478 3.95204 15.0344 4.12439 14.7032 4.67461L10.9968 10.8309C10.964 10.8852 10.9248 10.9504 10.8959 10.9986C10.887 10.9142 10.8806 10.8442 10.8758 10.797L10.1168 3.37601C10.0398 2.75839 9.54604 2.23811 8.88348 2.30996L8.88347 2.30986Z" fill="white"/>
<path d="M7.95521 14.9461C7.66834 15.0829 7.34871 15.1592 7.01177 15.1592C5.77072 15.1592 4.76465 14.1237 4.76465 12.8465C4.76465 11.5692 5.77072 10.5337 7.01177 10.5337C7.18006 10.5337 7.34404 10.5528 7.50177 10.5889" fill="white"/>
<defs>
<linearGradient id="paint0_linear" x1="0" y1="0" x2="29.6736" y2="32.0355" gradientUnits="userSpaceOnUse">
<stop stop-color="#FED337"/>
<stop offset="1" stop-color="#ECB22E"/>
</linearGradient>
</defs>
</svg>
