<svg width="106" height="117" viewBox="0 0 106 117" fill="none" xmlns="http://www.w3.org/2000/svg">
<path d="M33.6044 14.0421L33.6053 14.041C36.637 10.5998 40.6675 8.69409 44.9585 8.69409C45.5066 8.69409 46.0321 8.91192 46.4196 9.29958C46.807 9.68723 47.0247 10.213 47.0247 10.7611C47.0247 11.3093 46.807 11.835 46.4196 12.2227C46.0321 12.6104 45.5066 12.8282 44.9585 12.8282C38.5894 12.8282 33.1615 19.0017 33.1615 26.3756V33.5418V33.5421H32.9115C32.9121 33.7811 32.8656 34.0179 32.7747 34.2389C32.6837 34.4599 32.55 34.6608 32.3813 34.83C32.2126 34.9993 32.0122 35.1335 31.7915 35.2252C31.5708 35.3168 31.3343 35.364 31.0954 35.364C30.6137 35.364 30.1518 35.1725 29.8112 34.8318C29.4706 34.491 29.2792 34.0288 29.2792 33.5469L33.6044 14.0421ZM33.6044 14.0421C30.6288 17.4608 29.0021 21.8481 29.0292 26.3812L33.6044 14.0421Z" fill="url(#paint0_linear)" stroke="url(#paint1_linear)" stroke-width="0.5"/>
<path d="M31.017 51.0559L31.017 51.0562C31.0235 56.7967 33.3056 62.3002 37.3628 66.3593C41.4199 70.4185 46.9207 72.7018 52.6584 72.7083H52.659C58.3967 72.7018 63.8975 70.4185 67.9546 66.3593C72.0117 62.3002 74.2938 56.7967 74.3003 51.0562V51.0559V41.7284C74.3003 41.1803 74.0827 40.6545 73.6952 40.2668C73.3077 39.8791 72.7822 39.6614 72.2342 39.6614C71.6862 39.6614 71.1606 39.8791 70.7732 40.2668C70.3857 40.6545 70.1681 41.1803 70.1681 41.7284V51.0559C70.1681 53.3565 69.7151 55.6345 68.8352 57.7599C67.9553 59.8853 66.6655 61.8165 65.0396 63.4433C63.4137 65.07 61.4835 66.3604 59.3592 67.2407C57.2349 68.1211 54.958 68.5742 52.6587 68.5742C50.3593 68.5742 48.0825 68.1211 45.9582 67.2407C43.8338 66.3604 41.9036 65.07 40.2777 63.4433C38.6518 61.8165 37.3621 59.8853 36.4821 57.7599C35.6022 55.6345 35.1493 53.3565 35.1493 51.0559V41.7284C35.1493 41.1803 34.9317 40.6545 34.5442 40.2668C34.1567 39.8791 33.6312 39.6614 33.0832 39.6614C32.5352 39.6614 32.0096 39.8791 31.6221 40.2668C31.2347 40.6545 31.017 41.1803 31.017 41.7284L31.017 51.0559Z" fill="url(#paint2_linear)" stroke="url(#paint3_linear)" stroke-width="0.5"/>
<path d="M24.2522 37.0362H81.4701C82.0181 37.0362 82.5437 36.8185 82.9312 36.4308C83.3186 36.0431 83.5363 35.5173 83.5363 34.9692C83.5363 34.421 83.3186 33.8952 82.9312 33.5076C82.5437 33.1199 82.0181 32.9021 81.4701 32.9021H24.2522C23.7042 32.9021 23.1786 33.1199 22.7912 33.5076C22.4037 33.8952 22.1861 34.421 22.1861 34.9692C22.1861 35.5173 22.4037 36.0431 22.7912 36.4308C23.1787 36.8185 23.7042 37.0362 24.2522 37.0362Z" fill="url(#paint4_linear)" stroke="url(#paint5_linear)" stroke-width="0.5"/>
<path d="M71.7133 14.047L71.7124 14.0459C68.6807 10.6022 64.6476 8.69897 60.3567 8.69897C59.8087 8.69897 59.2832 8.91673 58.8957 9.3044C58.5082 9.69206 58.2906 10.2179 58.2906 10.766C58.2906 11.3142 58.5082 11.8399 58.8957 12.2276C59.2831 12.6152 59.8087 12.8331 60.3567 12.8331C66.7187 12.8331 72.1562 19.0067 72.1562 26.3805V33.547C72.1562 34.0952 72.3738 34.6209 72.7613 35.0085C73.1487 35.3962 73.6743 35.614 74.2223 35.614C74.7703 35.614 75.2959 35.3962 75.6833 35.0085C76.0708 34.6209 76.2884 34.0951 76.2884 33.547V26.3813C76.3144 21.8499 74.6878 17.4644 71.7133 14.047Z" fill="url(#paint6_linear)" stroke="url(#paint7_linear)" stroke-width="0.5"/>
<path d="M58.2159 28.6825C57.668 28.6824 57.1425 28.4646 56.7552 28.077C56.3677 27.6894 56.1501 27.1636 56.1501 26.6155V5.60318C56.1501 5.41243 56.0743 5.22952 55.9395 5.09467C55.8048 4.95983 55.622 4.88409 55.4314 4.88409H49.9709C49.7804 4.88409 49.5976 4.95983 49.4629 5.09468C49.3281 5.22953 49.2523 5.41243 49.2523 5.60318V26.6155C49.2523 27.1636 49.0347 27.6894 48.6472 28.077C48.2598 28.4647 47.7342 28.6825 47.1862 28.6825C46.6382 28.6825 46.1126 28.4647 45.7252 28.077C45.3377 27.6894 45.1201 27.1637 45.1201 26.6155V5.60318C45.1201 4.31608 45.6311 3.08166 46.5408 2.1715C47.4505 1.26134 48.6844 0.75 49.9709 0.75H55.4339C56.7204 0.75 57.9543 1.26134 58.864 2.1715C59.7737 3.08166 60.2847 4.31608 60.2847 5.60318V26.6155C60.2847 26.8871 60.2312 27.1562 60.1272 27.4071C60.0232 27.6581 59.8708 27.8861 59.6787 28.078C59.4865 28.27 59.2584 28.4222 59.0074 28.5259C58.7564 28.6296 58.4874 28.6829 58.2159 28.6825ZM58.2159 28.6825L58.2162 28.4325M58.2159 28.6825L58.2162 28.4325M58.2159 28.6825C58.216 28.6825 58.2161 28.6825 58.2162 28.6825V28.4325M58.2159 28.6825L58.2162 28.4325" fill="url(#paint8_linear)" stroke="url(#paint9_linear)" stroke-width="0.5"/>
<path d="M2.81703 116.09H2.81552C2.69609 116.089 2.57693 116.079 2.45916 116.06L2.45572 116.059C1.91658 115.963 1.43755 115.657 1.12363 115.208C0.809724 114.759 0.686539 114.204 0.781058 113.665L0.781093 113.664L6.21255 82.8036L6.21259 82.8034C6.53091 81.0033 7.27745 79.3062 8.38921 77.8555C9.50097 76.4047 10.9453 75.2428 12.6003 74.468L12.6004 74.4679L37.1521 62.9964C37.1521 62.9964 37.1521 62.9964 37.1522 62.9963C37.398 62.8814 37.664 62.8161 37.9351 62.804C38.2062 62.792 38.477 62.8335 38.732 62.9261L38.6467 63.1609L38.732 62.9261C38.9871 63.0188 39.2214 63.1607 39.4216 63.344C39.6218 63.5272 39.7839 63.7481 39.8988 63.9941C40.0136 64.24 40.0789 64.5061 40.091 64.7773C40.103 65.0485 40.0615 65.3194 39.9689 65.5745C39.8764 65.8297 39.7344 66.0641 39.5513 66.2643C39.3681 66.4646 39.1473 66.6268 38.9015 66.7418L38.9014 66.7418L14.3403 78.2133L2.81703 116.09ZM2.81703 116.09C3.30263 116.089 3.77254 115.918 4.14431 115.605C4.51607 115.293 4.76595 114.859 4.85011 114.381L4.85012 114.381M2.81703 116.09L4.85012 114.381M4.85012 114.381L10.2718 83.5205L4.85012 114.381ZM11.6589 80.3702C12.3669 79.4467 13.2865 78.707 14.34 78.2135L10.2719 83.5201C10.4752 82.3741 10.9509 81.2938 11.6589 80.3702Z" fill="url(#paint10_linear)" stroke="url(#paint11_linear)" stroke-width="0.5"/>
<path d="M103.615 116.09V116.09C103.119 116.089 102.64 115.91 102.265 115.585C101.89 115.26 101.645 114.811 101.573 114.32L101.573 114.32L97.1297 83.6604L97.1296 83.66C96.9592 82.4707 96.4949 81.3427 95.7789 80.3781C95.0629 79.4136 94.1178 78.6429 93.0291 78.1359L93.0288 78.1358L68.6394 66.749L68.6342 66.7466L68.6343 66.7465C68.1504 66.5071 67.7794 66.0877 67.6006 65.5782C67.4219 65.0686 67.4495 64.5093 67.6778 64.0199C67.906 63.5305 68.3166 63.1498 68.8218 62.9594C69.327 62.7689 69.8867 62.784 70.3809 63.0011L70.3862 63.0034L70.3861 63.0035L94.7753 74.3902L103.615 116.09ZM103.615 116.09L103.62 116.089M103.615 116.09L103.62 116.089M103.62 116.089C103.719 116.087 103.818 116.077 103.915 116.06C104.182 116.02 104.438 115.929 104.67 115.791C104.903 115.653 105.107 115.469 105.27 115.252C105.432 115.034 105.55 114.787 105.617 114.523C105.684 114.26 105.698 113.986 105.659 113.718L101.213 83.0609C101.213 83.0608 101.213 83.0606 101.213 83.0605C100.945 81.1937 100.217 79.4232 99.0926 77.9093C97.9685 76.3954 96.4847 75.1859 94.7756 74.3903L103.62 116.089Z" fill="url(#paint12_linear)" stroke="url(#paint13_linear)" stroke-width="0.5"/>
<path d="M87.6059 116.211H87.6064C87.9343 116.21 88.2575 116.132 88.5492 115.982C88.8408 115.832 89.0927 115.615 89.284 115.348C89.4752 115.082 89.6004 114.774 89.6493 114.449C89.6981 114.125 89.6692 113.794 89.5648 113.483L89.5646 113.482L81.5737 89.8607C81.4353 89.4509 81.1719 89.0947 80.8205 88.8425C80.4691 88.5904 80.0474 88.4548 79.6151 88.4551H26.0949C25.6533 88.4551 25.2235 88.5967 24.8684 88.8592C24.5133 89.1216 24.2518 89.4911 24.1221 89.9132C24.1221 89.9133 24.1221 89.9133 24.1221 89.9133L16.8584 113.532C16.772 113.793 16.7384 114.068 16.7594 114.341C16.7804 114.616 16.8561 114.883 16.9819 115.128C17.1078 115.373 17.2813 115.59 17.4923 115.767C17.7032 115.944 17.9474 116.077 18.2104 116.158C18.4735 116.239 18.7501 116.267 19.024 116.24C19.2979 116.213 19.5636 116.131 19.8055 115.999C20.0474 115.868 20.2606 115.689 20.4326 115.474C20.604 115.26 20.731 115.014 20.8063 114.75L27.621 92.5892H78.1354L85.65 114.805C85.7882 115.215 86.0512 115.57 86.402 115.822C86.7529 116.075 87.1739 116.21 87.6059 116.211Z" fill="url(#paint14_linear)" stroke="url(#paint15_linear)" stroke-width="0.5"/>
<path d="M24.6389 92.1049C25.0264 92.4925 25.5519 92.7104 26.0999 92.7104C26.648 92.7104 27.1735 92.4925 27.561 92.1049C27.9484 91.7172 28.1661 91.1915 28.1661 90.6433V70.6413C28.1661 70.0931 27.9484 69.5674 27.561 69.1797C27.1735 68.792 26.648 68.5742 26.0999 68.5742C25.5519 68.5742 25.0264 68.792 24.6389 69.1797C24.2515 69.5674 24.0338 70.0931 24.0338 70.6413V90.6433C24.0338 91.1915 24.2515 91.7172 24.6389 92.1049Z" fill="url(#paint16_linear)" stroke="url(#paint17_linear)" stroke-width="0.5"/>
<path d="M34.809 91.1358C35.1965 91.5234 35.722 91.7413 36.27 91.7413C36.818 91.7413 37.3436 91.5234 37.731 91.1358C38.1185 90.7481 38.3362 90.2224 38.3362 89.6742V66.1737C38.3362 65.6256 38.1185 65.0998 37.731 64.7122C37.3436 64.3245 36.818 64.1067 36.27 64.1067C35.722 64.1067 35.1965 64.3245 34.809 64.7122C34.4215 65.0998 34.2039 65.6256 34.2039 66.1737V89.6742C34.2039 90.2224 34.4215 90.7481 34.809 91.1358Z" fill="url(#paint18_linear)" stroke="url(#paint19_linear)" stroke-width="0.5"/>
<path d="M77.1856 91.8626C77.573 92.2502 78.0986 92.4681 78.6466 92.4681C79.1946 92.4681 79.7202 92.2502 80.1076 91.8626C80.4951 91.4749 80.7127 90.9492 80.7127 90.401V70.6413C80.7127 70.0931 80.4951 69.5674 80.1076 69.1797C79.7202 68.7921 79.1946 68.5742 78.6466 68.5742C78.0986 68.5742 77.573 68.7921 77.1856 69.1797C76.7981 69.5674 76.5804 70.0931 76.5804 70.6413V90.401C76.5804 90.9492 76.7981 91.4749 77.1856 91.8626Z" fill="url(#paint20_linear)" stroke="url(#paint21_linear)" stroke-width="0.5"/>
<path d="M67.0151 91.1358C67.4026 91.5234 67.9281 91.7413 68.4761 91.7413C69.0241 91.7413 69.5497 91.5234 69.9371 91.1358C70.3246 90.7481 70.5422 90.2224 70.5422 89.6742V66.1737C70.5422 65.6256 70.3246 65.0998 69.9371 64.7122C69.5497 64.3245 69.0241 64.1067 68.4761 64.1067C67.9281 64.1067 67.4026 64.3245 67.0151 64.7122C66.6276 65.0998 66.41 65.6256 66.41 66.1737V89.6742C66.41 90.2224 66.6276 90.7481 67.0151 91.1358Z" fill="url(#paint22_linear)" stroke="url(#paint23_linear)" stroke-width="0.5"/>
<path d="M51.2837 55.1582H54.1895C54.7375 55.1582 55.2631 54.9404 55.6505 54.5527C56.038 54.1651 56.2556 53.6393 56.2556 53.0912C56.2556 52.543 56.038 52.0172 55.6505 51.6296C55.2631 51.2419 54.7375 51.0241 54.1895 51.0241H53.3498V44.3693C53.3498 43.8211 53.1322 43.2954 52.7447 42.9077C52.3573 42.5201 51.8317 42.3022 51.2837 42.3022C50.7357 42.3022 50.2101 42.5201 49.8227 42.9077C49.4352 43.2954 49.2176 43.8211 49.2176 44.3693V53.0912C49.2176 53.6393 49.4352 54.1651 49.8227 54.5527C50.2101 54.9404 50.7357 55.1582 51.2837 55.1582Z" fill="url(#paint24_linear)" stroke="url(#paint25_linear)" stroke-width="0.5"/>
<path d="M50.3151 61.9417H54.916C55.464 61.9417 55.9896 61.7239 56.377 61.3362C56.7645 60.9486 56.9821 60.4228 56.9821 59.8747C56.9821 59.3265 56.7645 58.8008 56.377 58.4131C55.9896 58.0254 55.464 57.8076 54.916 57.8076H50.3151C49.7671 57.8076 49.2416 58.0254 48.8541 58.4131C48.4666 58.8008 48.249 59.3265 48.249 59.8747C48.249 60.4228 48.4666 60.9486 48.8541 61.3362C49.2416 61.7239 49.7671 61.9417 50.3151 61.9417Z" fill="url(#paint26_linear)" stroke="url(#paint27_linear)" stroke-width="0.5"/>
<path d="M61.4538 44.2559H63.7542H63.7591V44.2559C64.3053 44.2546 64.8289 44.0369 65.2152 43.6504C65.6027 43.2628 65.8203 42.737 65.8203 42.1889C65.8203 41.6407 65.6027 41.115 65.2152 40.7273C64.8278 40.3397 64.3022 40.1218 63.7542 40.1218H61.4538C60.9057 40.1218 60.3802 40.3397 59.9928 40.7273C59.6053 41.115 59.3876 41.6407 59.3876 42.1889C59.3876 42.737 59.6053 43.2628 59.9928 43.6504C60.3802 44.0381 60.9057 44.2559 61.4538 44.2559Z" fill="url(#paint28_linear)" stroke="url(#paint29_linear)" stroke-width="0.5"/>
<path d="M40.8712 44.2559H43.1716H43.1765V44.2559C43.7227 44.2546 44.2463 44.0369 44.6326 43.6504C45.0201 43.2628 45.2378 42.737 45.2378 42.1889C45.2378 41.6407 45.0201 41.115 44.6326 40.7273C44.2452 40.3397 43.7196 40.1218 43.1716 40.1218H40.8712C40.3232 40.1218 39.7976 40.3397 39.4102 40.7273C39.0227 41.115 38.8051 41.6407 38.8051 42.1889C38.8051 42.737 39.0227 43.2628 39.4102 43.6504C39.7976 44.0381 40.3232 44.2559 40.8712 44.2559Z" fill="url(#paint30_linear)" stroke="url(#paint31_linear)" stroke-width="0.5"/>
<path d="M71.6162 115.605C72.0036 115.993 72.5292 116.211 73.0772 116.211C73.6252 116.211 74.1507 115.993 74.5382 115.605C74.9257 115.218 75.1433 114.692 75.1433 114.144V105.18C75.1433 104.632 74.9257 104.106 74.5382 103.718C74.1507 103.331 73.6252 103.113 73.0772 103.113H33.3644C32.8163 103.113 32.2908 103.331 31.9033 103.718C31.5159 104.106 31.2982 104.632 31.2982 105.18V114.144C31.2982 114.692 31.5159 115.218 31.9033 115.605C32.2908 115.993 32.8163 116.211 33.3644 116.211C33.9124 116.211 34.4379 115.993 34.8254 115.605C35.2128 115.218 35.4305 114.692 35.4305 114.144V107.247H71.011V114.144C71.011 114.692 71.2287 115.218 71.6162 115.605Z" fill="url(#paint32_linear)" stroke="url(#paint33_linear)" stroke-width="0.5"/>
<defs>
<linearGradient id="paint0_linear" x1="2.49999" y1="-3" x2="100.5" y2="118.5" gradientUnits="userSpaceOnUse">
<stop stop-color="#963298"/>
<stop offset="1" stop-color="#4A154B"/>
</linearGradient>
<linearGradient id="paint1_linear" x1="-0.500009" y1="4.5" x2="111.5" y2="123.5" gradientUnits="userSpaceOnUse">
<stop stop-color="#963298"/>
<stop offset="1" stop-color="#4A154B"/>
</linearGradient>
<linearGradient id="paint2_linear" x1="6.49998" y1="5" x2="102.5" y2="125.5" gradientUnits="userSpaceOnUse">
<stop stop-color="#963298"/>
<stop offset="1" stop-color="#4A154B"/>
</linearGradient>
<linearGradient id="paint3_linear" x1="-1.00002" y1="11" x2="110.5" y2="126" gradientUnits="userSpaceOnUse">
<stop stop-color="#963298"/>
<stop offset="1" stop-color="#4A154B"/>
</linearGradient>
<linearGradient id="paint4_linear" x1="9.49998" y1="2.50001" x2="104.5" y2="131.5" gradientUnits="userSpaceOnUse">
<stop stop-color="#963298"/>
<stop offset="1" stop-color="#4A154B"/>
</linearGradient>
<linearGradient id="paint5_linear" x1="7.49997" y1="6.50003" x2="103.5" y2="120" gradientUnits="userSpaceOnUse">
<stop stop-color="#963298"/>
<stop offset="1" stop-color="#4A154B"/>
</linearGradient>
<linearGradient id="paint6_linear" x1="15.5" y1="0.500001" x2="91.5" y2="119" gradientUnits="userSpaceOnUse">
<stop stop-color="#963298"/>
<stop offset="1" stop-color="#4A154B"/>
</linearGradient>
<linearGradient id="paint7_linear" x1="12.5" y1="1.21363e-07" x2="88.5" y2="121.5" gradientUnits="userSpaceOnUse">
<stop stop-color="#963298"/>
<stop offset="1" stop-color="#4A154B"/>
</linearGradient>
<linearGradient id="paint8_linear" x1="21" y1="-3" x2="108" y2="125" gradientUnits="userSpaceOnUse">
<stop stop-color="#963298"/>
<stop offset="1" stop-color="#4A154B"/>
</linearGradient>
<linearGradient id="paint9_linear" x1="9.5" y1="-3.5" x2="102.5" y2="120" gradientUnits="userSpaceOnUse">
<stop stop-color="#963298"/>
<stop offset="1" stop-color="#4A154B"/>
</linearGradient>
<linearGradient id="paint10_linear" x1="-9" y1="3.5" x2="105.5" y2="116" gradientUnits="userSpaceOnUse">
<stop stop-color="#963298"/>
<stop offset="1" stop-color="#4A154B"/>
</linearGradient>
<linearGradient id="paint11_linear" x1="-11" y1="8.5" x2="102.5" y2="121.5" gradientUnits="userSpaceOnUse">
<stop stop-color="#963298"/>
<stop offset="1" stop-color="#4A154B"/>
</linearGradient>
<linearGradient id="paint12_linear" x1="18" y1="13" x2="108.5" y2="119.5" gradientUnits="userSpaceOnUse">
<stop stop-color="#963298"/>
<stop offset="1" stop-color="#4A154B"/>
</linearGradient>
<linearGradient id="paint13_linear" x1="10" y1="9.5" x2="113" y2="122" gradientUnits="userSpaceOnUse">
<stop stop-color="#963298"/>
<stop offset="1" stop-color="#4A154B"/>
</linearGradient>
<linearGradient id="paint14_linear" x1="-1.00002" y1="13.5" x2="107" y2="120" gradientUnits="userSpaceOnUse">
<stop stop-color="#963298"/>
<stop offset="1" stop-color="#4A154B"/>
</linearGradient>
<linearGradient id="paint15_linear" x1="-5.00001" y1="11.5" x2="110.5" y2="121" gradientUnits="userSpaceOnUse">
<stop stop-color="#963298"/>
<stop offset="1" stop-color="#4A154B"/>
</linearGradient>
<linearGradient id="paint16_linear" x1="-4.5" y1="9" x2="113" y2="120" gradientUnits="userSpaceOnUse">
<stop stop-color="#963298"/>
<stop offset="1" stop-color="#4A154B"/>
</linearGradient>
<linearGradient id="paint17_linear" x1="-2.50001" y1="10.5" x2="101" y2="118" gradientUnits="userSpaceOnUse">
<stop stop-color="#963298"/>
<stop offset="1" stop-color="#4A154B"/>
</linearGradient>
<linearGradient id="paint18_linear" x1="-2.50001" y1="12" x2="114" y2="125.5" gradientUnits="userSpaceOnUse">
<stop stop-color="#963298"/>
<stop offset="1" stop-color="#4A154B"/>
</linearGradient>
<linearGradient id="paint19_linear" x1="-2.50001" y1="11" x2="112" y2="119" gradientUnits="userSpaceOnUse">
<stop stop-color="#963298"/>
<stop offset="1" stop-color="#4A154B"/>
</linearGradient>
<linearGradient id="paint20_linear" x1="18" y1="13" x2="109.5" y2="120" gradientUnits="userSpaceOnUse">
<stop stop-color="#963298"/>
<stop offset="1" stop-color="#4A154B"/>
</linearGradient>
<linearGradient id="paint21_linear" x1="14" y1="11.5" x2="109.5" y2="120" gradientUnits="userSpaceOnUse">
<stop stop-color="#963298"/>
<stop offset="1" stop-color="#4A154B"/>
</linearGradient>
<linearGradient id="paint22_linear" x1="4.5" y1="9.5" x2="111" y2="119" gradientUnits="userSpaceOnUse">
<stop stop-color="#963298"/>
<stop offset="1" stop-color="#4A154B"/>
</linearGradient>
<linearGradient id="paint23_linear" x1="3.99999" y1="13" x2="112.5" y2="121" gradientUnits="userSpaceOnUse">
<stop stop-color="#963298"/>
<stop offset="1" stop-color="#4A154B"/>
</linearGradient>
<linearGradient id="paint24_linear" x1="10.5" y1="14.5" x2="101.5" y2="122.5" gradientUnits="userSpaceOnUse">
<stop stop-color="#963298"/>
<stop offset="1" stop-color="#4A154B"/>
</linearGradient>
<linearGradient id="paint25_linear" x1="12.5" y1="13" x2="104.5" y2="125.5" gradientUnits="userSpaceOnUse">
<stop stop-color="#963298"/>
<stop offset="1" stop-color="#4A154B"/>
</linearGradient>
<linearGradient id="paint26_linear" x1="45" y1="54.5" x2="57" y2="66.5" gradientUnits="userSpaceOnUse">
<stop stop-color="#963298"/>
<stop offset="1" stop-color="#4A154B"/>
</linearGradient>
<linearGradient id="paint27_linear" x1="48" y1="58" x2="57" y2="64.5" gradientUnits="userSpaceOnUse">
<stop stop-color="#963298"/>
<stop offset="1" stop-color="#4A154B"/>
</linearGradient>
<linearGradient id="paint28_linear" x1="56.5" y1="36.5" x2="67.5" y2="47" gradientUnits="userSpaceOnUse">
<stop stop-color="#963298"/>
<stop offset="1" stop-color="#4A154B"/>
</linearGradient>
<linearGradient id="paint29_linear" x1="58" y1="37.5" x2="68" y2="47.5" gradientUnits="userSpaceOnUse">
<stop stop-color="#963298"/>
<stop offset="1" stop-color="#4A154B"/>
</linearGradient>
<linearGradient id="paint30_linear" x1="35.5" y1="35.5" x2="45" y2="49.5" gradientUnits="userSpaceOnUse">
<stop stop-color="#963298"/>
<stop offset="1" stop-color="#4A154B"/>
</linearGradient>
<linearGradient id="paint31_linear" x1="37" y1="38" x2="45" y2="47.5" gradientUnits="userSpaceOnUse">
<stop stop-color="#963298"/>
<stop offset="1" stop-color="#4A154B"/>
</linearGradient>
<linearGradient id="paint32_linear" x1="-0.500014" y1="9.00001" x2="104" y2="127.5" gradientUnits="userSpaceOnUse">
<stop stop-color="#963298"/>
<stop offset="1" stop-color="#4A154B"/>
</linearGradient>
<linearGradient id="paint33_linear" x1="-5.50001" y1="5.50001" x2="105.5" y2="119" gradientUnits="userSpaceOnUse">
<stop stop-color="#963298"/>
<stop offset="1" stop-color="#4A154B"/>
</linearGradient>
</defs>
</svg>
