<svg width="21" height="30" viewBox="0 0 21 30" fill="none" xmlns="http://www.w3.org/2000/svg">
<path d="M10.0935 0C4.53421 0 0 4.53421 0 10.0935C0 11.6703 0.639252 13.4804 1.50729 15.4553C2.37421 17.4314 3.49234 19.5297 4.62617 21.4834C6.05482 23.9345 7.57477 26.3314 9.1828 28.6688L10.0935 30L11.0052 28.6677C11.0052 28.6677 13.292 25.3963 15.5607 21.4834C16.6957 19.5297 17.8127 17.4314 18.6796 15.4553C19.5477 13.4804 20.1869 11.6703 20.1869 10.0935C20.1869 4.53421 15.6527 0 10.0935 0ZM10.0935 2.24299C14.4437 2.24299 17.9439 5.74318 17.9439 10.0935C17.9439 10.9907 17.4617 12.6908 16.6475 14.5447C15.8321 16.3974 14.7073 18.452 13.5981 20.3619C11.8374 23.4022 10.7417 25.0105 10.0935 25.9693C9.44523 25.0105 8.34953 23.4022 6.58879 20.3619C5.48075 18.452 4.35477 16.3974 3.53944 14.5447C2.72523 12.6908 2.24299 10.9907 2.24299 10.0935C2.24299 5.74318 5.74318 2.24299 10.0935 2.24299ZM10.0935 7.85047C9.49858 7.85047 8.92807 8.08678 8.50742 8.50742C8.08678 8.92807 7.85047 9.49858 7.85047 10.0935C7.85047 10.6883 8.08678 11.2588 8.50742 11.6795C8.92807 12.1001 9.49858 12.3364 10.0935 12.3364C10.6883 12.3364 11.2588 12.1001 11.6795 11.6795C12.1001 11.2588 12.3364 10.6883 12.3364 10.0935C12.3364 9.49858 12.1001 8.92807 11.6795 8.50742C11.2588 8.08678 10.6883 7.85047 10.0935 7.85047Z" fill="url(#paint0_linear)"/>
<defs>
<linearGradient id="paint0_linear" x1="0" y1="0" x2="20" y2="36" gradientUnits="userSpaceOnUse">
<stop stop-color="#963298"/>
<stop offset="1" stop-color="#4A154B"/>
</linearGradient>
</defs>
</svg>
