<svg width="64" height="77" viewBox="0 0 64 77" fill="none" xmlns="http://www.w3.org/2000/svg">
<path d="M28.9169 75.4464C0 46.5 0 40.5172 0 28.875C0 12.9277 15.4314 0 32 0C48.5686 0 63.5 12.9277 63.5 28.875C63.5 40.5172 63.5 46.5 35.0831 75.4464C33.5933 77.5179 30.4066 77.5178 28.9169 75.4464ZM32 40.9062C38.9036 40.9062 44.5 35.5197 44.5 28.875C44.5 22.2303 38.9036 16.8437 32 16.8437C25.0964 16.8437 19.5 22.2303 19.5 28.875C19.5 35.5197 25.0964 40.9062 32 40.9062Z" fill="url(#paint0_linear)"/>
<path d="M55 31.5C55 43.9264 44.9264 54 32.5 54C20.0736 54 10 43.9264 10 31.5C10 19.0736 20.0736 9 32.5 9C44.9264 9 55 19.0736 55 31.5Z" fill="url(#paint1_linear)" stroke="white" stroke-width="2" stroke-linecap="round" stroke-linejoin="round"/>
<path d="M21 50H44L41.5 51H23.5L21 50Z" fill="#4A154B"/>
<rect x="19" y="49" width="27" height="1" fill="white"/>
<rect x="22" y="51" width="22" height="1" fill="white"/>
<mask id="path-6-outside-1" maskUnits="userSpaceOnUse" x="17.6729" y="21.7178" width="8" height="10" fill="black">
<rect fill="white" x="17.6729" y="21.7178" width="8" height="10"/>
<path d="M23.8105 30.3844C23.3485 30.5984 22.8339 30.7178 22.2913 30.7178C20.2929 30.7178 18.6729 29.0977 18.6729 27.0993C18.6729 25.1009 20.2929 23.4809 22.2913 23.4809C22.5623 23.4809 22.8263 23.5107 23.0803 23.5672"/>
</mask>
<path d="M23.8105 30.3844C23.3485 30.5984 22.8339 30.7178 22.2913 30.7178C20.2929 30.7178 18.6729 29.0977 18.6729 27.0993C18.6729 25.1009 20.2929 23.4809 22.2913 23.4809C22.5623 23.4809 22.8263 23.5107 23.0803 23.5672" fill="url(#paint2_linear)"/>
<path d="M23.3901 29.477C23.8913 29.2449 24.4857 29.4629 24.7178 29.964C24.95 30.4652 24.7319 31.0596 24.2308 31.2917L23.3901 29.477ZM23.2975 22.5911C23.8366 22.711 24.1764 23.2453 24.0564 23.7844C23.9365 24.3235 23.4022 24.6633 22.8631 24.5433L23.2975 22.5911ZM24.2308 31.2917C23.6398 31.5655 22.982 31.7178 22.2913 31.7178V29.7178C22.6857 29.7178 23.0572 29.6312 23.3901 29.477L24.2308 31.2917ZM22.2913 31.7178C19.7406 31.7178 17.6729 29.65 17.6729 27.0993H19.6729C19.6729 28.5455 20.8452 29.7178 22.2913 29.7178V31.7178ZM17.6729 27.0993C17.6729 24.5486 19.7406 22.4809 22.2913 22.4809V24.4809C20.8452 24.4809 19.6729 25.6532 19.6729 27.0993H17.6729ZM22.2913 22.4809C22.6358 22.4809 22.9726 22.5188 23.2975 22.5911L22.8631 24.5433C22.68 24.5026 22.4888 24.4809 22.2913 24.4809V22.4809Z" fill="white" mask="url(#path-6-outside-1)"/>
<path d="M24.025 12.0092L23.9779 11.5114L23.6459 11.5428C22.3268 11.6676 21.3706 12.7128 21.5138 13.9372C22.2049 19.895 22.4743 22.1708 22.7509 24.5077C22.8824 25.6185 23.0155 26.743 23.1963 28.2833L23.1971 28.29L23.1971 28.29C23.2262 28.5114 23.2486 28.7184 23.2701 28.9184L23.2722 28.9378C23.2928 29.1291 23.313 29.317 23.3372 29.4969C23.3874 29.8696 23.458 30.235 23.6037 30.5964C23.9079 31.3514 24.5283 31.9285 25.3576 32.3177M24.025 12.0092L33.2159 35.9089C33.2275 35.9185 33.2885 35.971 33.3116 35.9909L33.3126 35.9918L37.1541 39.2939M24.025 12.0092L23.9779 11.5114C25.3148 11.385 26.3396 12.3099 26.4999 13.4313L26.5001 13.4313L26.5015 13.4439L27.5984 22.7988L32.9562 15.0365L24.025 12.0092ZM25.3576 32.3177L25.57 31.865L25.3575 32.3177C25.3575 32.3177 25.3576 32.3177 25.3576 32.3177ZM25.3576 32.3177C25.6371 32.4489 26.0023 32.6116 26.4265 32.8006C27.2067 33.1483 28.1867 33.585 29.2005 34.078C29.9701 34.4523 30.7411 34.8577 31.3983 35.2455C32.0648 35.6387 32.5829 35.9957 32.8706 36.2705L32.8838 36.2831L32.8979 36.2948C32.8969 36.2939 32.8995 36.2961 32.9082 36.3035L32.9345 36.3261L32.9862 36.3706L32.9867 36.371L36.8247 39.6701M36.8247 39.6701C36.8236 39.6692 36.8226 39.6682 36.8215 39.6673L37.1541 39.2939M36.8247 39.6701L36.8281 39.6731L37.1541 39.2939M36.8247 39.6701C36.88 39.7195 36.9196 39.7567 36.9479 39.7851M37.1541 39.2939C37.6079 39.6981 37.5959 39.7914 37.1154 40.3941M37.1154 40.3941L36.7304 40.0751C36.7294 40.0763 36.7284 40.0775 36.7274 40.0788M37.1154 40.3941C36.0695 41.656 35.0355 42.9249 33.999 44.1969C33.4571 44.8619 32.9145 45.5278 32.3691 46.194M37.1154 40.3941L36.7244 40.0824C36.7254 40.0812 36.7264 40.08 36.7274 40.0788M36.9479 39.7851C36.9531 39.7772 36.9579 39.7696 36.9625 39.7622C36.9858 39.7244 36.9919 39.7079 36.9919 39.7079C36.992 39.7079 36.9866 39.7228 36.9856 39.7484C36.9829 39.8115 37.007 39.851 37.0067 39.8511C37.0067 39.8512 37.0059 39.8501 37.0043 39.8479C36.9939 39.8338 36.9767 39.814 36.9479 39.7851ZM36.9479 39.7851C36.9035 39.8532 36.8345 39.9443 36.7274 40.0788M36.7274 40.0788C35.6813 41.3409 34.6459 42.6116 33.6095 43.8835C33.0679 44.5481 32.526 45.213 31.9822 45.8773M32.3691 46.194L31.9826 45.8768C31.9825 45.877 31.9824 45.8771 31.9822 45.8773M32.3691 46.194C31.7521 46.946 31.9487 47.968 32.7625 48.5048M32.3691 46.194L31.9822 45.8773M31.9822 45.8773C31.164 46.875 31.4454 48.229 32.4793 48.9169M32.7625 48.5048L32.4725 48.9121C32.4748 48.9137 32.477 48.9153 32.4793 48.9169M32.7625 48.5048C32.7677 48.5084 32.7728 48.5121 32.7778 48.5157C32.8602 48.5744 32.9263 48.6215 33.0318 48.6822M32.7625 48.5048L32.4872 48.9221C32.4846 48.9204 32.4819 48.9187 32.4793 48.9169M32.4793 48.9169C32.4827 48.9193 32.486 48.9217 32.4894 48.9241C32.5708 48.9821 32.6526 49.0405 32.776 49.1119M33.0318 48.6822L32.7697 49.108C32.7718 49.1093 32.7739 49.1106 32.776 49.1119M33.0318 48.6822L32.7824 49.1156C32.7802 49.1143 32.7781 49.1131 32.776 49.1119M33.0318 48.6822L37.8108 34.1227M32.776 49.1119C33.8488 49.7683 35.1926 49.5757 35.9846 48.6552L35.9927 48.6458L35.9925 48.6457C36.8242 47.629 37.6887 46.5735 38.5513 45.5203C39.6204 44.215 40.6866 42.9132 41.684 41.693L41.6877 41.6886L41.6876 41.6885C42.197 41.0505 42.4039 40.2076 42.3427 39.5058L42.3427 39.5058C42.285 38.845 42.0811 38.2053 41.5488 37.6932C40.6899 36.8666 39.7779 35.9977 38.9312 35.191C38.5399 34.8181 38.1625 34.4586 37.8108 34.1227M37.8108 34.1227L37.4651 34.4839M37.8108 34.1227L41.8446 39.5492C41.7935 38.9638 41.6194 38.4549 41.2021 38.0535C40.3441 37.2278 39.4338 36.3605 38.5877 35.5543C38.1959 35.181 37.8179 34.8208 37.4651 34.4839M37.8108 34.1227C37.8107 34.1226 37.8106 34.1224 37.8105 34.1223M37.8108 34.1227L37.8105 34.1223M37.4651 34.4839L37.4394 34.4593L36.4295 14.5075C37.5222 15.1156 37.907 16.469 37.1929 17.5035L31.031 26.4311C31.0309 26.4311 31.0309 26.4311 31.0309 26.4312C31.0046 26.4694 30.9872 26.4989 30.976 26.521C30.9897 26.5327 31.0088 26.5474 31.0348 26.5647L31.0376 26.5667C32.4103 27.496 33.8321 28.4138 35.5454 29.4431C35.7057 29.523 35.7707 29.5319 35.8052 29.5323C35.8447 29.5328 35.9116 29.5233 36.0894 29.4472L36.0976 29.4437L36.1058 29.4405C38.0978 28.6701 40.4879 27.748 42.6752 26.9514L42.6842 26.9482L42.6933 26.9452C43.2832 26.7557 43.9309 26.6473 44.64 26.6915C44.8782 26.7063 45.1037 26.7332 45.3185 26.7741L45.3185 26.774L45.3279 26.776C45.8889 26.8938 46.4041 27.107 46.8653 27.4284L46.8771 27.4367L46.8885 27.4456C48.9186 29.0417 51.3245 30.93 53.6795 32.7611L53.6808 32.7621C54.6693 33.5359 54.7852 34.9341 53.9092 35.8362L53.909 35.8365L53.6897 36.062C53.6897 36.0621 53.6896 36.0621 53.6895 36.0622C52.8439 36.9329 51.3825 37.0163 50.4251 36.2671L50.425 36.2671C49.9068 35.8615 49.3843 35.4542 48.8606 35.046C47.4003 33.9076 45.9307 32.7621 44.5193 31.626C44.314 31.4846 44.2372 31.4596 44.1954 31.4534C44.1607 31.4483 44.0903 31.447 43.8685 31.5314L43.8661 31.5322C42.4336 32.069 40.7659 32.712 39.1129 33.3494C38.6414 33.5311 38.1712 33.7124 37.7079 33.8907C37.6937 33.8974 37.6832 33.9031 37.6757 33.9076C37.6756 33.9168 37.6772 33.9951 37.7847 34.0977L37.7851 34.0981L37.8105 34.1223M37.4651 34.4839L37.8105 34.1223M36.1457 14.3493L36.4291 14.5073L32.9563 15.0365C33.6452 14.0382 35.0801 13.7561 36.1455 14.3492L36.1457 14.3493Z" fill="url(#paint3_linear)" stroke="white"/>
<defs>
<linearGradient id="paint0_linear" x1="1.99999" y1="1.76287e-06" x2="30.0046" y2="85.8323" gradientUnits="userSpaceOnUse">
<stop stop-color="#FED337"/>
<stop offset="1" stop-color="#F0B930"/>
</linearGradient>
<linearGradient id="paint1_linear" x1="9" y1="8" x2="55.3057" y2="59.4508" gradientUnits="userSpaceOnUse">
<stop stop-color="#FED337"/>
<stop offset="1" stop-color="#ECB22E"/>
</linearGradient>
<linearGradient id="paint2_linear" x1="21.2417" y1="30.7178" x2="21.2417" y2="23.4809" gradientUnits="userSpaceOnUse">
<stop stop-color="#4A154B"/>
<stop offset="1" stop-color="#963298"/>
</linearGradient>
<linearGradient id="paint3_linear" x1="38" y1="49" x2="38" y2="12" gradientUnits="userSpaceOnUse">
<stop stop-color="#4A154B"/>
<stop offset="1" stop-color="#963298"/>
</linearGradient>
</defs>
</svg>
