<svg width="124" height="116" viewBox="0 0 124 116" fill="none" xmlns="http://www.w3.org/2000/svg">
<mask id="path-1-outside-1" maskUnits="userSpaceOnUse" x="43.9568" y="0" width="80" height="91" fill="black">
<rect fill="white" x="43.9568" width="80" height="91"/>
<path d="M122.342 88.4448L119.708 62.51C119.699 60.1929 118.954 57.9386 117.58 56.073C116.206 54.2073 114.274 52.827 112.064 52.1316L105.305 49.9598C105.28 49.873 105.245 49.7894 105.201 49.7104C105.028 49.384 100.935 42.0025 92.5794 41.5854L92.3346 38.7516C93.5042 37.3143 95.3266 34.6075 95.6077 32.4039L95.7936 30.9712C95.9273 29.9042 96.276 28.8755 96.8183 27.947C97.7826 26.2961 98.2895 24.4181 98.287 22.5061V15.6008C98.3209 13.6957 97.975 11.803 97.2694 10.0331C96.5639 8.26317 95.513 6.65157 94.1779 5.29235C92.8428 3.93312 91.2503 2.85349 89.4934 2.11652C87.7365 1.37955 85.8505 1 83.9454 1C82.0402 1 80.154 1.37955 78.3971 2.11652C76.6402 2.85349 75.048 3.93312 73.7128 5.29235C72.3777 6.65157 71.3266 8.26317 70.6211 10.0331C69.9155 11.803 69.5696 13.6957 69.6035 15.6008V22.8326C69.6048 24.5036 69.9927 26.1516 70.7368 27.6477L70.9544 28.1011C71.3573 28.9064 71.621 29.7741 71.7343 30.6674L71.9563 32.413C72.2147 34.4352 73.8649 37.006 75.0165 38.4977C74.9996 38.5587 74.9874 38.6208 74.9801 38.6836L74.7218 41.6806C67.9215 42.1023 64.8479 47.5386 64.0092 49.3386L55.2549 52.1543C53.0428 52.8475 51.1089 54.2269 49.733 56.0929C48.3572 57.9588 47.6109 60.2143 47.6024 62.5327L44.9637 88.4675C44.927 88.8317 45.0363 89.1957 45.2675 89.4796C45.4986 89.7634 45.8328 89.9441 46.197 89.9818H46.3375C46.678 89.9832 47.0066 89.8568 47.2584 89.6277C47.5102 89.3985 47.6669 89.0832 47.6976 88.744L50.3407 62.7367C50.3407 62.6914 50.3407 62.646 50.3407 62.6007C50.3332 60.8548 50.8858 59.1526 51.9172 57.744C52.9486 56.3355 54.4044 55.2948 56.0709 54.7749L63.6554 52.3356V65.8199C63.6571 65.9746 63.6848 66.1278 63.7371 66.2733C62.5598 66.6014 61.5418 67.3464 60.8731 68.3695C60.2044 69.3927 59.9304 70.624 60.1023 71.8342C60.2742 73.0443 60.8803 74.1507 61.8075 74.9471C62.7346 75.7435 63.9196 76.1756 65.1417 76.1628C66.3638 76.1501 67.5396 75.6933 68.4499 74.8777C69.3602 74.0621 69.943 72.9433 70.0896 71.7298C70.2361 70.5163 69.9364 69.2909 69.2464 68.282C68.5564 67.2731 67.5234 66.5495 66.3395 66.2461C66.3885 66.1093 66.4145 65.9653 66.4165 65.8199V51.4515L76.0456 48.3548C76.306 48.2737 76.5361 48.1162 76.7059 47.9027C76.8757 47.6893 76.9772 47.4297 76.9977 47.1578L77.7049 38.9148C77.7209 38.7975 77.7209 38.6785 77.7049 38.5612C77.798 38.333 77.8272 38.0838 77.7897 37.8403C77.7522 37.5967 77.6492 37.3679 77.4917 37.1783C76.2405 35.6685 74.8534 33.3379 74.6902 32.0593L74.4679 30.3137C74.3147 29.1125 73.9591 27.9458 73.4162 26.8633L73.203 26.4099C72.6476 25.2991 72.3576 24.0745 72.3554 22.8326V15.6053C72.3554 12.5329 73.5758 9.58632 75.7481 7.41381C77.9203 5.24129 80.8665 4.0208 83.9385 4.0208C87.0105 4.0208 89.9567 5.24129 92.1289 7.41381C94.3012 9.58632 95.5215 12.5329 95.5215 15.6053V22.5107C95.5209 23.9282 95.1456 25.3203 94.4335 26.5459C93.7002 27.798 93.2298 29.1865 93.0509 30.6266L92.8696 32.0593C92.6928 33.4558 91.1967 35.8952 89.9137 37.3597C89.7741 37.5178 89.6732 37.7061 89.6189 37.9099C89.5646 38.1137 89.5583 38.3274 89.6007 38.534C89.5756 38.6593 89.5667 38.7872 89.5737 38.9148L90.2854 47.1578C90.3058 47.4297 90.4074 47.6893 90.5772 47.9027C90.7469 48.1162 90.9771 48.2737 91.2375 48.3548L98.1602 50.5809L95.5942 65.5841C95.5942 65.5841 95.5942 65.6159 95.5942 65.634C95.4152 66.9061 95.5979 68.2029 96.1214 69.376C96.645 70.5491 97.4881 71.5511 98.5544 72.2673C98.855 72.4724 99.2249 72.5496 99.5825 72.482C99.94 72.4144 100.256 72.2075 100.461 71.9068C100.666 71.6062 100.743 71.2365 100.676 70.8789C100.608 70.5214 100.401 70.2053 100.1 70.0003C99.4651 69.5725 98.9621 68.9756 98.6481 68.2769C98.334 67.5783 98.2215 66.8058 98.3233 66.0466L100.821 51.4515L103.088 52.1815L107.264 65.702C107.717 67.2345 107.041 68.8758 105.495 69.8779L105.328 69.9867C105.176 70.0855 105.045 70.2133 104.943 70.3627C104.84 70.5121 104.768 70.6803 104.731 70.8575C104.655 71.2155 104.725 71.5889 104.924 71.8955C105.124 72.2021 105.437 72.417 105.795 72.4926C106.153 72.5683 106.526 72.4986 106.833 72.299L106.996 72.1948C109.607 70.499 110.745 67.629 109.897 64.8859L106.293 53.2152L111.221 54.7976C112.885 55.3189 114.339 56.3595 115.368 57.767C116.398 59.1745 116.949 60.8749 116.942 62.6189C116.942 62.6642 116.942 62.7096 116.942 62.7549L119.585 88.7622C119.616 89.1013 119.773 89.4166 120.025 89.6458C120.276 89.875 120.605 90.0014 120.946 90H121.091C121.278 89.987 121.46 89.9355 121.626 89.8487C121.792 89.762 121.938 89.6418 122.056 89.4958C122.173 89.3497 122.259 89.181 122.309 89.0001C122.358 88.8193 122.369 88.6302 122.342 88.4448ZM67.3912 71.1066C67.3912 71.555 67.2582 71.9933 67.0091 72.3661C66.76 72.7389 66.4061 73.0294 65.9919 73.201C65.5777 73.3726 65.1218 73.4175 64.6821 73.33C64.2424 73.2426 63.8385 73.0266 63.5215 72.7096C63.2045 72.3926 62.9887 71.9886 62.9012 71.5489C62.8138 71.1091 62.8585 70.6533 63.0301 70.2391C63.2016 69.8248 63.4923 69.4707 63.8651 69.2216C64.2378 68.9725 64.6761 68.8396 65.1244 68.8396C65.4221 68.8396 65.7169 68.8982 65.9919 69.0121C66.2669 69.1261 66.5168 69.293 66.7273 69.5036C66.9378 69.7141 67.1046 69.964 67.2185 70.2391C67.3324 70.5141 67.3912 70.8089 67.3912 71.1066ZM68.0984 47.9829C68.8769 46.9996 69.8419 46.1798 70.9381 45.5705C72.0343 44.9613 73.24 44.5746 74.4861 44.4328L74.3501 45.9744L68.0984 47.9829ZM92.9602 45.9744L92.8196 44.3466C94.998 44.5362 97.0802 45.3308 98.8311 46.6409L98.6317 47.7971L92.9602 45.9744Z"/>
</mask>
<path d="M122.342 88.4448L119.708 62.51C119.699 60.1929 118.954 57.9386 117.58 56.073C116.206 54.2073 114.274 52.827 112.064 52.1316L105.305 49.9598C105.28 49.873 105.245 49.7894 105.201 49.7104C105.028 49.384 100.935 42.0025 92.5794 41.5854L92.3346 38.7516C93.5042 37.3143 95.3266 34.6075 95.6077 32.4039L95.7936 30.9712C95.9273 29.9042 96.276 28.8755 96.8183 27.947C97.7826 26.2961 98.2895 24.4181 98.287 22.5061V15.6008C98.3209 13.6957 97.975 11.803 97.2694 10.0331C96.5639 8.26317 95.513 6.65157 94.1779 5.29235C92.8428 3.93312 91.2503 2.85349 89.4934 2.11652C87.7365 1.37955 85.8505 1 83.9454 1C82.0402 1 80.154 1.37955 78.3971 2.11652C76.6402 2.85349 75.048 3.93312 73.7128 5.29235C72.3777 6.65157 71.3266 8.26317 70.6211 10.0331C69.9155 11.803 69.5696 13.6957 69.6035 15.6008V22.8326C69.6048 24.5036 69.9927 26.1516 70.7368 27.6477L70.9544 28.1011C71.3573 28.9064 71.621 29.7741 71.7343 30.6674L71.9563 32.413C72.2147 34.4352 73.8649 37.006 75.0165 38.4977C74.9996 38.5587 74.9874 38.6208 74.9801 38.6836L74.7218 41.6806C67.9215 42.1023 64.8479 47.5386 64.0092 49.3386L55.2549 52.1543C53.0428 52.8475 51.1089 54.2269 49.733 56.0929C48.3572 57.9588 47.6109 60.2143 47.6024 62.5327L44.9637 88.4675C44.927 88.8317 45.0363 89.1957 45.2675 89.4796C45.4986 89.7634 45.8328 89.9441 46.197 89.9818H46.3375C46.678 89.9832 47.0066 89.8568 47.2584 89.6277C47.5102 89.3985 47.6669 89.0832 47.6976 88.744L50.3407 62.7367C50.3407 62.6914 50.3407 62.646 50.3407 62.6007C50.3332 60.8548 50.8858 59.1526 51.9172 57.744C52.9486 56.3355 54.4044 55.2948 56.0709 54.7749L63.6554 52.3356V65.8199C63.6571 65.9746 63.6848 66.1278 63.7371 66.2733C62.5598 66.6014 61.5418 67.3464 60.8731 68.3695C60.2044 69.3927 59.9304 70.624 60.1023 71.8342C60.2742 73.0443 60.8803 74.1507 61.8075 74.9471C62.7346 75.7435 63.9196 76.1756 65.1417 76.1628C66.3638 76.1501 67.5396 75.6933 68.4499 74.8777C69.3602 74.0621 69.943 72.9433 70.0896 71.7298C70.2361 70.5163 69.9364 69.2909 69.2464 68.282C68.5564 67.2731 67.5234 66.5495 66.3395 66.2461C66.3885 66.1093 66.4145 65.9653 66.4165 65.8199V51.4515L76.0456 48.3548C76.306 48.2737 76.5361 48.1162 76.7059 47.9027C76.8757 47.6893 76.9772 47.4297 76.9977 47.1578L77.7049 38.9148C77.7209 38.7975 77.7209 38.6785 77.7049 38.5612C77.798 38.333 77.8272 38.0838 77.7897 37.8403C77.7522 37.5967 77.6492 37.3679 77.4917 37.1783C76.2405 35.6685 74.8534 33.3379 74.6902 32.0593L74.4679 30.3137C74.3147 29.1125 73.9591 27.9458 73.4162 26.8633L73.203 26.4099C72.6476 25.2991 72.3576 24.0745 72.3554 22.8326V15.6053C72.3554 12.5329 73.5758 9.58632 75.7481 7.41381C77.9203 5.24129 80.8665 4.0208 83.9385 4.0208C87.0105 4.0208 89.9567 5.24129 92.1289 7.41381C94.3012 9.58632 95.5215 12.5329 95.5215 15.6053V22.5107C95.5209 23.9282 95.1456 25.3203 94.4335 26.5459C93.7002 27.798 93.2298 29.1865 93.0509 30.6266L92.8696 32.0593C92.6928 33.4558 91.1967 35.8952 89.9137 37.3597C89.7741 37.5178 89.6732 37.7061 89.6189 37.9099C89.5646 38.1137 89.5583 38.3274 89.6007 38.534C89.5756 38.6593 89.5667 38.7872 89.5737 38.9148L90.2854 47.1578C90.3058 47.4297 90.4074 47.6893 90.5772 47.9027C90.7469 48.1162 90.9771 48.2737 91.2375 48.3548L98.1602 50.5809L95.5942 65.5841C95.5942 65.5841 95.5942 65.6159 95.5942 65.634C95.4152 66.9061 95.5979 68.2029 96.1214 69.376C96.645 70.5491 97.4881 71.5511 98.5544 72.2673C98.855 72.4724 99.2249 72.5496 99.5825 72.482C99.94 72.4144 100.256 72.2075 100.461 71.9068C100.666 71.6062 100.743 71.2365 100.676 70.8789C100.608 70.5214 100.401 70.2053 100.1 70.0003C99.4651 69.5725 98.9621 68.9756 98.6481 68.2769C98.334 67.5783 98.2215 66.8058 98.3233 66.0466L100.821 51.4515L103.088 52.1815L107.264 65.702C107.717 67.2345 107.041 68.8758 105.495 69.8779L105.328 69.9867C105.176 70.0855 105.045 70.2133 104.943 70.3627C104.84 70.5121 104.768 70.6803 104.731 70.8575C104.655 71.2155 104.725 71.5889 104.924 71.8955C105.124 72.2021 105.437 72.417 105.795 72.4926C106.153 72.5683 106.526 72.4986 106.833 72.299L106.996 72.1948C109.607 70.499 110.745 67.629 109.897 64.8859L106.293 53.2152L111.221 54.7976C112.885 55.3189 114.339 56.3595 115.368 57.767C116.398 59.1745 116.949 60.8749 116.942 62.6189C116.942 62.6642 116.942 62.7096 116.942 62.7549L119.585 88.7622C119.616 89.1013 119.773 89.4166 120.025 89.6458C120.276 89.875 120.605 90.0014 120.946 90H121.091C121.278 89.987 121.46 89.9355 121.626 89.8487C121.792 89.762 121.938 89.6418 122.056 89.4958C122.173 89.3497 122.259 89.181 122.309 89.0001C122.358 88.8193 122.369 88.6302 122.342 88.4448ZM67.3912 71.1066C67.3912 71.555 67.2582 71.9933 67.0091 72.3661C66.76 72.7389 66.4061 73.0294 65.9919 73.201C65.5777 73.3726 65.1218 73.4175 64.6821 73.33C64.2424 73.2426 63.8385 73.0266 63.5215 72.7096C63.2045 72.3926 62.9887 71.9886 62.9012 71.5489C62.8138 71.1091 62.8585 70.6533 63.0301 70.2391C63.2016 69.8248 63.4923 69.4707 63.8651 69.2216C64.2378 68.9725 64.6761 68.8396 65.1244 68.8396C65.4221 68.8396 65.7169 68.8982 65.9919 69.0121C66.2669 69.1261 66.5168 69.293 66.7273 69.5036C66.9378 69.7141 67.1046 69.964 67.2185 70.2391C67.3324 70.5141 67.3912 70.8089 67.3912 71.1066ZM68.0984 47.9829C68.8769 46.9996 69.8419 46.1798 70.9381 45.5705C72.0343 44.9613 73.24 44.5746 74.4861 44.4328L74.3501 45.9744L68.0984 47.9829ZM92.9602 45.9744L92.8196 44.3466C94.998 44.5362 97.0802 45.3308 98.8311 46.6409L98.6317 47.7971L92.9602 45.9744Z" fill="url(#paint0_linear)"/>
<path d="M122.342 88.4448L119.708 62.51C119.699 60.1929 118.954 57.9386 117.58 56.073C116.206 54.2073 114.274 52.827 112.064 52.1316L105.305 49.9598C105.28 49.873 105.245 49.7894 105.201 49.7104C105.028 49.384 100.935 42.0025 92.5794 41.5854L92.3346 38.7516C93.5042 37.3143 95.3266 34.6075 95.6077 32.4039L95.7936 30.9712C95.9273 29.9042 96.276 28.8755 96.8183 27.947C97.7826 26.2961 98.2895 24.4181 98.287 22.5061V15.6008C98.3209 13.6957 97.975 11.803 97.2694 10.0331C96.5639 8.26317 95.513 6.65157 94.1779 5.29235C92.8428 3.93312 91.2503 2.85349 89.4934 2.11652C87.7365 1.37955 85.8505 1 83.9454 1C82.0402 1 80.154 1.37955 78.3971 2.11652C76.6402 2.85349 75.048 3.93312 73.7128 5.29235C72.3777 6.65157 71.3266 8.26317 70.6211 10.0331C69.9155 11.803 69.5696 13.6957 69.6035 15.6008V22.8326C69.6048 24.5036 69.9927 26.1516 70.7368 27.6477L70.9544 28.1011C71.3573 28.9064 71.621 29.7741 71.7343 30.6674L71.9563 32.413C72.2147 34.4352 73.8649 37.006 75.0165 38.4977C74.9996 38.5587 74.9874 38.6208 74.9801 38.6836L74.7218 41.6806C67.9215 42.1023 64.8479 47.5386 64.0092 49.3386L55.2549 52.1543C53.0428 52.8475 51.1089 54.2269 49.733 56.0929C48.3572 57.9588 47.6109 60.2143 47.6024 62.5327L44.9637 88.4675C44.927 88.8317 45.0363 89.1957 45.2675 89.4796C45.4986 89.7634 45.8328 89.9441 46.197 89.9818H46.3375C46.678 89.9832 47.0066 89.8568 47.2584 89.6277C47.5102 89.3985 47.6669 89.0832 47.6976 88.744L50.3407 62.7367C50.3407 62.6914 50.3407 62.646 50.3407 62.6007C50.3332 60.8548 50.8858 59.1526 51.9172 57.744C52.9486 56.3355 54.4044 55.2948 56.0709 54.7749L63.6554 52.3356V65.8199C63.6571 65.9746 63.6848 66.1278 63.7371 66.2733C62.5598 66.6014 61.5418 67.3464 60.8731 68.3695C60.2044 69.3927 59.9304 70.624 60.1023 71.8342C60.2742 73.0443 60.8803 74.1507 61.8075 74.9471C62.7346 75.7435 63.9196 76.1756 65.1417 76.1628C66.3638 76.1501 67.5396 75.6933 68.4499 74.8777C69.3602 74.0621 69.943 72.9433 70.0896 71.7298C70.2361 70.5163 69.9364 69.2909 69.2464 68.282C68.5564 67.2731 67.5234 66.5495 66.3395 66.2461C66.3885 66.1093 66.4145 65.9653 66.4165 65.8199V51.4515L76.0456 48.3548C76.306 48.2737 76.5361 48.1162 76.7059 47.9027C76.8757 47.6893 76.9772 47.4297 76.9977 47.1578L77.7049 38.9148C77.7209 38.7975 77.7209 38.6785 77.7049 38.5612C77.798 38.333 77.8272 38.0838 77.7897 37.8403C77.7522 37.5967 77.6492 37.3679 77.4917 37.1783C76.2405 35.6685 74.8534 33.3379 74.6902 32.0593L74.4679 30.3137C74.3147 29.1125 73.9591 27.9458 73.4162 26.8633L73.203 26.4099C72.6476 25.2991 72.3576 24.0745 72.3554 22.8326V15.6053C72.3554 12.5329 73.5758 9.58632 75.7481 7.41381C77.9203 5.24129 80.8665 4.0208 83.9385 4.0208C87.0105 4.0208 89.9567 5.24129 92.1289 7.41381C94.3012 9.58632 95.5215 12.5329 95.5215 15.6053V22.5107C95.5209 23.9282 95.1456 25.3203 94.4335 26.5459C93.7002 27.798 93.2298 29.1865 93.0509 30.6266L92.8696 32.0593C92.6928 33.4558 91.1967 35.8952 89.9137 37.3597C89.7741 37.5178 89.6732 37.7061 89.6189 37.9099C89.5646 38.1137 89.5583 38.3274 89.6007 38.534C89.5756 38.6593 89.5667 38.7872 89.5737 38.9148L90.2854 47.1578C90.3058 47.4297 90.4074 47.6893 90.5772 47.9027C90.7469 48.1162 90.9771 48.2737 91.2375 48.3548L98.1602 50.5809L95.5942 65.5841C95.5942 65.5841 95.5942 65.6159 95.5942 65.634C95.4152 66.9061 95.5979 68.2029 96.1214 69.376C96.645 70.5491 97.4881 71.5511 98.5544 72.2673C98.855 72.4724 99.2249 72.5496 99.5825 72.482C99.94 72.4144 100.256 72.2075 100.461 71.9068C100.666 71.6062 100.743 71.2365 100.676 70.8789C100.608 70.5214 100.401 70.2053 100.1 70.0003C99.4651 69.5725 98.9621 68.9756 98.6481 68.2769C98.334 67.5783 98.2215 66.8058 98.3233 66.0466L100.821 51.4515L103.088 52.1815L107.264 65.702C107.717 67.2345 107.041 68.8758 105.495 69.8779L105.328 69.9867C105.176 70.0855 105.045 70.2133 104.943 70.3627C104.84 70.5121 104.768 70.6803 104.731 70.8575C104.655 71.2155 104.725 71.5889 104.924 71.8955C105.124 72.2021 105.437 72.417 105.795 72.4926C106.153 72.5683 106.526 72.4986 106.833 72.299L106.996 72.1948C109.607 70.499 110.745 67.629 109.897 64.8859L106.293 53.2152L111.221 54.7976C112.885 55.3189 114.339 56.3595 115.368 57.767C116.398 59.1745 116.949 60.8749 116.942 62.6189C116.942 62.6642 116.942 62.7096 116.942 62.7549L119.585 88.7622C119.616 89.1013 119.773 89.4166 120.025 89.6458C120.276 89.875 120.605 90.0014 120.946 90H121.091C121.278 89.987 121.46 89.9355 121.626 89.8487C121.792 89.762 121.938 89.6418 122.056 89.4958C122.173 89.3497 122.259 89.181 122.309 89.0001C122.358 88.8193 122.369 88.6302 122.342 88.4448ZM67.3912 71.1066C67.3912 71.555 67.2582 71.9933 67.0091 72.3661C66.76 72.7389 66.4061 73.0294 65.9919 73.201C65.5777 73.3726 65.1218 73.4175 64.6821 73.33C64.2424 73.2426 63.8385 73.0266 63.5215 72.7096C63.2045 72.3926 62.9887 71.9886 62.9012 71.5489C62.8138 71.1091 62.8585 70.6533 63.0301 70.2391C63.2016 69.8248 63.4923 69.4707 63.8651 69.2216C64.2378 68.9725 64.6761 68.8396 65.1244 68.8396C65.4221 68.8396 65.7169 68.8982 65.9919 69.0121C66.2669 69.1261 66.5168 69.293 66.7273 69.5036C66.9378 69.7141 67.1046 69.964 67.2185 70.2391C67.3324 70.5141 67.3912 70.8089 67.3912 71.1066ZM68.0984 47.9829C68.8769 46.9996 69.8419 46.1798 70.9381 45.5705C72.0343 44.9613 73.24 44.5746 74.4861 44.4328L74.3501 45.9744L68.0984 47.9829ZM92.9602 45.9744L92.8196 44.3466C94.998 44.5362 97.0802 45.3308 98.8311 46.6409L98.6317 47.7971L92.9602 45.9744Z" stroke="url(#paint1_linear)" stroke-width="1.4" mask="url(#path-1-outside-1)"/>
<path d="M75.0185 54.0921L75.0186 54.0924L82.1168 76.1357C82.1154 76.1886 82.1162 76.2416 82.1193 76.2944V88.607C82.1193 89.0654 82.3016 89.5051 82.6256 89.8292L82.8731 89.5817L82.6256 89.8292C82.9497 90.1533 83.3892 90.3354 83.8476 90.3354C84.3059 90.3354 84.7456 90.1533 85.0698 89.8292L84.8223 89.5817L85.0698 89.8292C85.3939 89.505 85.5758 89.0653 85.5758 88.607V76.8644C85.5943 76.8219 85.6109 76.7787 85.6256 76.7349L85.6257 76.735L85.6282 76.727L92.6373 54.0567L92.6376 54.0558C92.7046 53.837 92.7267 53.6072 92.7033 53.3801C92.6799 53.1528 92.6113 52.9324 92.5013 52.7321C92.3912 52.5316 92.2421 52.3554 92.0629 52.2137C91.8858 52.0736 91.6828 51.97 91.4654 51.9089C91.2504 51.8396 91.0237 51.8136 90.7985 51.8325C90.5706 51.8516 90.3489 51.9162 90.1464 52.0225C89.9438 52.1288 89.7648 52.2747 89.6197 52.4514C89.4752 52.6275 89.367 52.8308 89.302 53.0494C89.3018 53.0501 89.3016 53.0508 89.3014 53.0515L83.9223 70.468L78.3099 53.0347C78.3099 53.0346 78.3099 53.0346 78.3099 53.0345C78.2404 52.8185 78.1292 52.6182 77.9824 52.4451C77.8354 52.2719 77.6557 52.1295 77.4539 52.0258C77.252 51.9221 77.0318 51.8591 76.8055 51.8406C76.5793 51.822 76.3516 51.8482 76.1355 51.9176C75.9193 51.987 75.719 52.0984 75.5459 52.2452C75.3727 52.3922 75.2304 52.5717 75.1267 52.7735C75.0231 52.9753 74.9599 53.1957 74.9414 53.4221C74.9228 53.6485 74.9491 53.8761 75.0185 54.0921Z" fill="url(#paint2_linear)" stroke="url(#paint3_linear)" stroke-width="0.7"/>
<path d="M10.9666 115.337C9.44907 115.337 7.73256 115.27 6.40161 115.164L6.40155 115.164C5.69608 115.107 5.12252 115.04 4.6944 114.965L4.68037 114.962C4.47609 114.927 4.08461 114.858 3.74063 114.668C3.36948 114.462 3.02445 114.097 3.02445 113.491V68.1906L3.00251 68.1879L2.99381 68.1869L2.99383 68.1868C2.98549 68.1856 2.97699 68.1843 2.96833 68.1831C2.6939 68.1433 2.26161 68.0807 1.89517 67.8974C1.7006 67.8001 1.50787 67.6613 1.36388 67.459C1.21704 67.2526 1.13535 67.0004 1.13535 66.7041C1.13535 66.3669 1.26916 66.0435 1.50765 65.805C1.69091 65.6217 1.92439 65.5002 2.1757 65.4537V56.7468C1.92439 56.7003 1.69091 56.5788 1.50765 56.3955C1.26914 56.157 1.13535 55.8335 1.13535 55.4964C1.13535 55.2011 1.21562 54.9493 1.36106 54.7428C1.50382 54.5402 1.69536 54.401 1.88958 54.3034C2.25824 54.118 2.69524 54.0561 2.97604 54.0162C2.98242 54.0153 2.98873 54.0144 2.99495 54.0136L2.99596 54.0134L2.99596 54.0134C3.50737 53.9423 4.21095 53.8788 5.08592 53.8225L5.08632 53.8225C6.76581 53.7162 8.97297 53.65 10.961 53.65C12.9489 53.65 14.821 53.7129 16.2394 53.8228L16.2401 53.8229C16.9492 53.8792 17.5699 53.9498 17.9471 54.0231C17.953 54.0243 17.9592 54.0255 17.9657 54.0267C18.1457 54.0616 18.5171 54.1334 18.8484 54.323C19.2086 54.5292 19.5514 54.8947 19.5514 55.4964C19.5514 55.8335 19.4176 56.157 19.1791 56.3955C18.9958 56.5788 18.7623 56.7003 18.511 56.7468V65.4537C18.7623 65.5002 18.9958 65.6217 19.1791 65.805C19.4176 66.0435 19.5514 66.3669 19.5514 66.7041C19.5514 67.3056 19.2088 67.6713 18.8486 67.8765C18.5048 68.0724 18.1207 68.1392 17.9455 68.1689L17.9444 68.1691C17.8646 68.1824 17.7763 68.1966 17.6821 68.2108V113.491C17.6821 113.838 17.5701 114.129 17.3707 114.36C17.1777 114.583 16.9198 114.732 16.654 114.835C16.1382 115.036 15.4927 115.103 14.9708 115.158L14.9507 115.16L14.9474 115.16C13.6242 115.286 12.2957 115.344 10.9666 115.337ZM10.9666 115.337C10.9663 115.337 10.966 115.337 10.9656 115.337L10.9676 114.987V115.337C10.9673 115.337 10.967 115.337 10.9666 115.337ZM10.9413 112.794L10.9444 112.794L10.9544 112.794H10.9602L10.9602 112.794C12.3479 112.816 13.7355 112.742 15.1127 112.572V106.128H9.91406C9.74728 106.128 9.5819 106.095 9.4276 106.031C9.2735 105.967 9.13342 105.873 9.01556 105.754C8.89759 105.636 8.80448 105.496 8.7411 105.341C8.67778 105.187 8.64529 105.022 8.6458 104.855M10.9413 112.794L8.9958 76.2965M10.9413 112.794C9.13841 112.809 7.33632 112.718 5.54437 112.521V68.4065C7.14618 68.4964 9.12942 68.5504 10.9444 68.5504C12.4468 68.5504 13.8884 68.515 15.1159 68.4489V75.0249H9.91406C9.74711 75.0249 9.58175 75.0579 9.42761 75.1219C9.2735 75.1859 9.13342 75.2798 9.01555 75.3981C8.89759 75.5165 8.80448 75.6569 8.7411 75.8111C8.67779 75.9651 8.64529 76.1302 8.6458 76.2971M10.9413 112.794L8.9958 76.2965M8.6458 104.855C8.6458 104.855 8.6458 104.855 8.6458 104.855L8.9958 104.856H8.6458V104.855ZM8.6458 104.855V76.2971M8.6458 76.2971C8.6458 76.2973 8.6458 76.2976 8.6458 76.2978L8.9958 76.2965M8.6458 76.2971V76.2965H8.9958M4.68884 56.415C6.19085 56.3045 8.42482 56.2132 10.9494 56.213C13.0936 56.2132 14.7897 56.2817 15.9582 56.3707V65.8496C14.7888 65.9386 13.091 66.0073 10.9444 66.0073C8.41875 66.0073 6.18371 65.9159 4.68884 65.8054V56.415ZM15.1159 103.588H11.1888V77.5681H15.1127L15.1159 103.588Z" fill="url(#paint4_linear)" stroke="url(#paint5_linear)" stroke-width="0.7"/>
<path d="M40.2214 105.135C40.5532 105.442 40.8202 105.811 41.0065 106.222C41.194 106.636 41.296 107.083 41.3067 107.537L41.3069 107.545H41.3068V110.151C41.3068 111.955 39.7484 113.249 37.7231 114.076C35.6676 114.915 32.9779 115.344 30.3878 115.344C27.7977 115.344 25.108 114.915 23.0526 114.076C21.0273 113.249 19.4689 111.955 19.4689 110.151V107.545C19.4689 105.847 20.8987 104.456 23.2013 103.55L40.2214 105.135ZM40.2214 105.135C39.3358 104.252 37.9301 103.557 36.253 103.081C34.5654 102.602 32.571 102.336 30.4804 102.336H30.1303C29.9116 102.336 29.7899 102.336 29.4522 102.353L29.4522 102.353L29.4425 102.354C29.1112 102.379 28.8031 102.534 28.5842 102.784C28.3654 103.034 28.2534 103.36 28.2718 103.692C28.2903 104.024 28.4378 104.335 28.683 104.56C28.9268 104.783 29.2476 104.902 29.5775 104.892H29.579H29.5807H29.5824H29.5841H29.5857H29.5874H29.5891H29.5908H29.5924H29.5941H29.5957H29.5974H29.599H29.6007H29.6023H29.604H29.6056H29.6072H29.6088H29.6104H29.6121H29.6137H29.6153H29.6169H29.6184H29.62H29.6216H29.6232H29.6248H29.6263H29.6279H29.6295H29.631H29.6326H29.6341H29.6356H29.6372H29.6387H29.6402H29.6418H29.6433H29.6448H29.6463H29.6478H29.6493H29.6508H29.6523H29.6538H29.6553H29.6568H29.6582H29.6597H29.6612H29.6627H29.6641H29.6656H29.667H29.6685H29.6699H29.6714H29.6728H29.6742H29.6756H29.6771H29.6785H29.6799H29.6813H29.6827H29.6841H29.6855H29.6869H29.6883H29.6897H29.6911H29.6925H29.6939H29.6952H29.6966H29.698H29.6993H29.7007H29.702H29.7034H29.7047H29.7061H29.7074H29.7088H29.7101H29.7114H29.7127H29.7141H29.7154H29.7167H29.718H29.7193H29.7206H29.7219H29.7232H29.7245H29.7258H29.7271H29.7284H29.7296H29.7309H29.7322H29.7335H29.7347H29.736H29.7373H29.7385H29.7398H29.741H29.7423H29.7435H29.7447H29.746H29.7472H29.7484H29.7497H29.7509H29.7521H29.7533H29.7545H29.7558H29.757H29.7582H29.7594H29.7606H29.7618H29.763H29.7642H29.7653H29.7665H29.7677H29.7689H29.7701H29.7712H29.7724H29.7736H29.7747H29.7759H29.7771H29.7782H29.7794H29.7805H29.7817H29.7828H29.784H29.7851H29.7862H29.7874H29.7885H29.7896H29.7907H29.7919H29.793H29.7941H29.7952H29.7963H29.7974H29.7986H29.7997H29.8008H29.8019H29.803H29.8041H29.8052H29.8062H29.8073H29.8084H29.8095H29.8106H29.8117H29.8127H29.8138H29.8149H29.8159H29.817H29.8181H29.8191H29.8202H29.8213H29.8223H29.8234H29.8244H29.8255H29.8265H29.8276H29.8286H29.8296H29.8307H29.8317H29.8328H29.8338H29.8348H29.8359H29.8369H29.8379H29.8389H29.8399H29.841H29.842H29.843H29.844H29.845H29.846H29.847H29.848H29.849H29.85H29.8511H29.852H29.853H29.854H29.855H29.856H29.857H29.858H29.859H29.86H29.861H29.8619H29.8629H29.8639H29.8649H29.8659H29.8668H29.8678H29.8688H29.8697H29.8707H29.8717H29.8726H29.8736H29.8746H29.8755H29.8765H29.8774H29.8784H29.8794H29.8803H29.8813H29.8822H29.8832H29.8841H29.8851H29.886H29.8869H29.8879H29.8888H29.8898H29.8907H29.8917H29.8926H29.8935H29.8945H29.8954H29.8963H29.8973H29.8982H29.8991H29.9001H29.901H29.9019H29.9028H29.9038H29.9047H29.9056H29.9065H29.9075H29.9084H29.9093H29.9102H29.9111H29.9121H29.913H29.9139H29.9148H29.9157H29.9166H29.9175H29.9185H29.9194H29.9203H29.9212H29.9221H29.923H29.9239H29.9248H29.9257H29.9266H29.9275H29.9285H29.9294H29.9303H29.9312H29.9321H29.933H29.9339H29.9348H29.9357H29.9366H29.9375H29.9384H29.9393H29.9402H29.9411H29.942H29.9429H29.9438H29.9447H29.9456H29.9465H29.9474H29.9483H29.9492H29.9501H29.951H29.9519H29.9527H29.9536H29.9545H29.9554H29.9563H29.9572H29.9581H29.959H29.9599H29.9608H29.9617H29.9626H29.9635H29.9644H29.9653H29.9662H29.9671H29.968H29.9689H29.9698H29.9707H29.9716H29.9725H29.9734H29.9743H29.9752H29.9761H29.977H29.9779H29.9788H29.9797H29.9806H29.9815H29.9824H29.9833H29.9842H29.9851H29.986H29.9869H29.9878H29.9887H29.9896H29.9905H29.9914H29.9923H29.9932H29.9941H29.995H29.9959H29.9968H29.9977H29.9986H29.9995H30.0005H30.0014H30.0023H30.0032H30.0041H30.005H30.0059H30.0068H30.0078H30.0087H30.0096H30.0105H30.0114H30.0124H30.0133H30.0142H30.0151H30.0161H30.017H30.0179H30.0188H30.0198H30.0207H30.0216H30.0225H30.0235H30.0244H30.0253H30.0263H30.0272H30.0282H30.0291H30.03H30.031H30.0319H30.0329H30.0338H30.0347H30.0357H30.0366H30.0376H30.0385H30.0395H30.0404H30.0414H30.0424H30.0433H30.0443H30.0452H30.0462H30.0472H30.0481H30.0491H30.0501H30.051H30.052H30.053H30.0539H30.0549H30.0559H30.0569H30.0578H30.0588H30.0598H30.0608H30.0618H30.0628H30.0638H30.0647H30.0657H30.0667H30.0677H30.0687H30.0697H30.0707H30.0717H30.0727H30.0737H30.0747H30.0758H30.0768H30.0778H30.0788H30.0798H30.0808H30.0819H30.0829H30.0839H30.0849H30.086H30.087H30.088H30.0891H30.0901H30.0911H30.0922H30.0932H30.0943H30.0953H30.0964H30.0974H30.0985H30.0995H30.1006H30.1017H30.1027H30.1038H30.1049H30.1059H30.107H30.1081H30.1091H30.1102H30.1113H30.1124H30.1135H30.1146H30.1157H30.1168H30.1179H30.119H30.1201H30.1212H30.1223H30.1234H30.1245H30.1256H30.1267H30.1278H30.129H30.1301H30.1312H30.1323H30.1335H30.1346H30.1357H30.1369H30.4968C32.5449 104.892 34.2876 105.16 35.6448 105.556C37.0116 105.954 37.9567 106.475 38.4406 106.957L38.4524 106.969L38.4654 106.98C38.6432 107.126 38.7571 107.335 38.7836 107.564V110.151C38.7836 110.3 38.6708 110.551 38.2928 110.87C37.9283 111.176 37.3728 111.496 36.6357 111.786C35.1647 112.365 33.0237 112.804 30.3912 112.804C27.7587 112.804 25.6177 112.365 24.1466 111.786C23.4095 111.496 22.8539 111.176 22.4895 110.87C22.1114 110.551 21.9986 110.3 21.9986 110.151V107.545C21.9986 107.386 22.1205 107.129 22.503 106.809C22.8709 106.502 23.4209 106.189 24.1222 105.912L24.1225 105.912C24.204 105.879 24.2938 105.875 24.378 105.899L32.0438 108.764C30.3074 108.889 28.6455 108.752 27.321 108.555C26.4798 108.43 25.7784 108.282 25.2852 108.163C25.0386 108.104 24.8446 108.052 24.7117 108.015C24.6451 107.996 24.5946 107.981 24.5609 107.971C24.5532 107.968 24.5466 107.966 24.5411 107.965L24.5359 107.962L24.5006 107.951C24.1785 107.85 23.8298 107.882 23.5311 108.039C23.2324 108.196 23.0084 108.465 22.9081 108.787C22.8079 109.109 22.8394 109.458 22.9963 109.756C23.1531 110.055 23.4222 110.279 23.7443 110.38L23.7457 110.38C23.9034 110.429 25.7111 110.977 28.2275 111.227C30.7398 111.476 33.9874 111.43 37.0097 110.267C37.2498 110.174 37.4565 110.012 37.6023 109.8C37.748 109.588 37.8259 109.336 37.8259 109.079C37.8259 108.822 37.748 108.571 37.6023 108.359C37.4565 108.147 37.2498 107.984 37.0097 107.892L37.0069 107.891L25.2457 103.494L25.1865 103.472H25.144C24.507 103.278 23.8222 103.305 23.2015 103.549L40.2214 105.135Z" fill="url(#paint6_linear)" stroke="url(#paint7_linear)" stroke-width="0.7"/>
<path d="M28.4421 100.925L28.4421 100.935L28.4428 100.946C28.4621 101.269 28.6043 101.573 28.8402 101.795C29.0761 102.017 29.388 102.141 29.712 102.141C30.0361 102.141 30.3479 102.017 30.5838 101.795C30.8197 101.573 30.9619 101.269 30.9813 100.946L30.9819 100.935L30.9819 100.924C30.978 99.4009 30.6555 97.8957 30.0354 96.5048C29.4152 95.1139 28.5111 93.8681 27.381 92.8474C26.2508 91.8268 24.9197 91.0537 23.4731 90.5781C22.0278 90.1029 20.499 89.935 18.985 90.0852C18.8174 90.0984 18.6541 90.1447 18.5044 90.2215C18.3533 90.299 18.2195 90.4061 18.1105 90.536C18.0015 90.6661 17.9197 90.8167 17.8698 90.9789C17.8199 91.141 17.8029 91.3116 17.8199 91.4805C17.837 91.6491 17.8874 91.8129 17.9688 91.962C18.0502 92.1111 18.1605 92.2422 18.2933 92.3478C18.4261 92.4535 18.5787 92.5315 18.7421 92.5773C18.904 92.6226 19.0733 92.6355 19.2403 92.6149C19.5235 92.586 19.808 92.5712 20.0926 92.5708C22.3065 92.5743 24.4287 93.4557 25.9939 95.0217C27.5593 96.5878 28.4396 98.7107 28.4421 100.925Z" fill="url(#paint8_linear)" stroke="url(#paint9_linear)" stroke-width="0.7"/>
<path d="M19.2773 102.735V102.735L19.2819 102.735C19.4527 102.733 19.6214 102.696 19.7778 102.627C19.9342 102.558 20.0752 102.459 20.1924 102.334L20.1927 102.334L25.2909 96.9049C25.4107 96.7859 25.5056 96.6441 25.5701 96.4879C25.6354 96.3295 25.6682 96.1594 25.6662 95.9878C25.6641 95.8163 25.6274 95.647 25.5582 95.4901C25.4891 95.3331 25.3888 95.1917 25.2637 95.0746C25.1384 94.9573 24.9908 94.8667 24.8298 94.808C24.6686 94.7494 24.4972 94.7239 24.326 94.7332C24.1548 94.7424 23.9872 94.7862 23.8333 94.8619C23.6817 94.9365 23.5468 95.0406 23.436 95.1677L18.3518 100.593C18.3517 100.593 18.3516 100.593 18.3515 100.593C18.237 100.715 18.1479 100.858 18.089 101.014C18.03 101.17 18.0024 101.337 18.0079 101.504C18.0134 101.671 18.0518 101.835 18.1211 101.987C18.19 102.139 18.2879 102.275 18.4095 102.389C18.6436 102.611 18.9543 102.735 19.2773 102.735Z" fill="url(#paint10_linear)" stroke="url(#paint11_linear)" stroke-width="0.7"/>
<path d="M31.2182 100.05C31.3737 100.118 31.5411 100.154 31.7105 100.156C33.5911 100.273 35.0017 100.589 35.9307 100.972C36.397 101.165 36.7259 101.368 36.9323 101.559C37.1412 101.752 37.1924 101.901 37.1924 101.992V102.544C37.1837 102.714 37.2091 102.883 37.2669 103.042C37.3259 103.205 37.4177 103.354 37.5366 103.481C37.6555 103.607 37.7989 103.708 37.9581 103.776L38.0968 103.455L37.9581 103.776C38.1171 103.845 38.2886 103.881 38.4621 103.881C38.6355 103.881 38.8072 103.845 38.9663 103.776C39.1255 103.708 39.2689 103.607 39.3878 103.481C39.5067 103.354 39.5985 103.205 39.6575 103.042C39.7153 102.883 39.7407 102.714 39.732 102.544V101.992C39.732 100.691 38.9286 99.6611 37.5716 98.9373C36.2233 98.2181 34.2832 97.771 31.8659 97.6203C31.6974 97.6015 31.5269 97.6165 31.3642 97.6646C31.198 97.7138 31.0437 97.7964 30.9107 97.9073C30.7777 98.0182 30.6686 98.1552 30.5903 98.3099C30.5121 98.4644 30.4662 98.6334 30.4557 98.8064C30.4451 98.9794 30.4701 99.1527 30.5288 99.3156C30.5876 99.4786 30.6791 99.6278 30.7977 99.7541C30.9162 99.8804 31.0592 99.9813 31.2182 100.05Z" fill="url(#paint12_linear)" stroke="url(#paint13_linear)" stroke-width="0.7"/>
<defs>
<linearGradient id="paint0_linear" x1="32.5" y1="-6" x2="119" y2="116.5" gradientUnits="userSpaceOnUse">
<stop stop-color="#963298"/>
<stop offset="1" stop-color="#4A154B"/>
</linearGradient>
<linearGradient id="paint1_linear" x1="39.5" y1="-5" x2="118.5" y2="125" gradientUnits="userSpaceOnUse">
<stop stop-color="#963298"/>
<stop offset="1" stop-color="#4A154B"/>
</linearGradient>
<linearGradient id="paint2_linear" x1="40.5" y1="13.5" x2="124" y2="97" gradientUnits="userSpaceOnUse">
<stop stop-color="#963298"/>
<stop offset="1" stop-color="#4A154B"/>
</linearGradient>
<linearGradient id="paint3_linear" x1="39.5" y1="20.5" x2="120" y2="99.5" gradientUnits="userSpaceOnUse">
<stop stop-color="#963298"/>
<stop offset="1" stop-color="#4A154B"/>
</linearGradient>
<linearGradient id="paint4_linear" x1="-8.5" y1="49" x2="48.5" y2="122.5" gradientUnits="userSpaceOnUse">
<stop stop-color="#963298"/>
<stop offset="1" stop-color="#4A154B"/>
</linearGradient>
<linearGradient id="paint5_linear" x1="-4.5" y1="47.5" x2="36" y2="121.5" gradientUnits="userSpaceOnUse">
<stop stop-color="#963298"/>
<stop offset="1" stop-color="#4A154B"/>
</linearGradient>
<linearGradient id="paint6_linear" x1="-10.5" y1="57.5" x2="46" y2="120" gradientUnits="userSpaceOnUse">
<stop stop-color="#963298"/>
<stop offset="1" stop-color="#4A154B"/>
</linearGradient>
<linearGradient id="paint7_linear" x1="-6.5" y1="57.5" x2="44.5" y2="124.5" gradientUnits="userSpaceOnUse">
<stop stop-color="#963298"/>
<stop offset="1" stop-color="#4A154B"/>
</linearGradient>
<linearGradient id="paint8_linear" x1="-4" y1="54" x2="44.5" y2="119" gradientUnits="userSpaceOnUse">
<stop stop-color="#963298"/>
<stop offset="1" stop-color="#4A154B"/>
</linearGradient>
<linearGradient id="paint9_linear" x1="-4.5" y1="62" x2="40.5" y2="117.5" gradientUnits="userSpaceOnUse">
<stop stop-color="#963298"/>
<stop offset="1" stop-color="#4A154B"/>
</linearGradient>
<linearGradient id="paint10_linear" x1="-6" y1="56.5" x2="37" y2="125" gradientUnits="userSpaceOnUse">
<stop stop-color="#963298"/>
<stop offset="1" stop-color="#4A154B"/>
</linearGradient>
<linearGradient id="paint11_linear" x1="-2" y1="68.5" x2="39.5" y2="119" gradientUnits="userSpaceOnUse">
<stop stop-color="#963298"/>
<stop offset="1" stop-color="#4A154B"/>
</linearGradient>
<linearGradient id="paint12_linear" x1="23.5" y1="82" x2="46" y2="116" gradientUnits="userSpaceOnUse">
<stop stop-color="#963298"/>
<stop offset="1" stop-color="#4A154B"/>
</linearGradient>
<linearGradient id="paint13_linear" x1="28.5" y1="89.5" x2="51.5" y2="116" gradientUnits="userSpaceOnUse">
<stop stop-color="#963298"/>
<stop offset="1" stop-color="#4A154B"/>
</linearGradient>
</defs>
</svg>
