<svg width="552" height="561" viewBox="0 0 552 561" fill="none" xmlns="http://www.w3.org/2000/svg">
<path d="M378.812 508.934C386.517 509.304 394.218 509.717 401.915 510.172C425.359 511.562 448.757 513.35 472.11 515.536C493.37 517.529 545.428 519.77 551.679 529.16C555.871 535.46 517.727 535.394 509.294 537.368C495.844 540.516 482.278 543.322 468.594 545.785C438.398 551.219 407.78 554.717 376.99 557.184C322.148 561.58 266.746 562.482 211.834 558.283C178.031 555.698 143.801 550.879 111.096 543.188C94.231 539.242 77.723 534.478 61.6758 528.926C55.1344 526.656 21.2006 516.856 37.2802 509.155C40.0937 507.807 43.9982 507.734 47.2191 507.706C105.544 507.209 48.2648 480.674 106.348 479.053C158.606 477.6 326.616 506.431 378.812 508.934Z" fill="#DDD2DF"/>
<path d="M33.0598 515.952L62.4398 384.047H68.8262L37.15 516.337L33.0598 515.952Z" fill="#53546B"/>
<path d="M88.1171 508.286L115.451 384.59H121.837L92.2073 508.67L88.1171 508.286Z" fill="#53546B"/>
<path d="M144.843 393.986L186.067 526.408H180.65L134.501 392.33L144.843 393.986Z" fill="#53546B"/>
<path d="M193.745 392.157L230.771 516.563H226.473L185.536 390.842L193.745 392.157Z" fill="#53546B"/>
<path d="M24.8911 302.704C18.9482 284.206 10.9235 266.779 5.55307 248.319C3.71204 248.29 1.86509 248.269 0.000576019 248.257C14.0732 294.667 30.7381 340.25 49.9168 384.793L56.1182 384.59C52.7415 375.914 49.7553 367.193 45.7473 358.643C37.4143 340.693 31.1512 321.907 24.8911 302.704Z" fill="#999BC7"/>
<path d="M47.1739 249.329C32.9477 249.247 19.5731 248.545 5.55255 248.319C10.9229 266.779 18.9477 284.22 24.8906 302.704C31.1507 321.907 37.4137 340.693 45.7615 358.642C49.7695 367.193 52.7557 375.913 56.1323 384.59C75.5967 383.944 95.0082 383.377 114.484 382.711C88.9772 340.056 65.5489 295.504 47.1739 249.329Z" fill="#8283A8"/>
<path d="M235.314 381.889C227.651 383.166 217.541 384.652 207.229 386.094C184.141 389.323 160.029 392.33 160.029 392.33C160.029 392.33 118.584 387.791 82.1011 383.439C69.716 381.971 57.9005 380.503 48.4752 379.255C69.0671 379.055 90.487 376.847 111.079 376.642C150.14 376.257 196.274 380.682 235.314 381.889Z" fill="#53546B"/>
<path d="M161.482 397.862C161.482 397.862 87.122 389.723 49.9286 384.793L48.4751 379.252C57.9005 380.5 69.7159 381.957 82.101 383.437C118.584 387.788 160.029 392.328 160.029 392.328L161.482 397.862Z" fill="#999BC7"/>
<path d="M236.759 387.429C211.93 391.567 161.473 397.865 161.473 397.865L160.005 392.33C160.005 392.33 184.118 389.32 207.205 386.093C217.518 384.652 227.627 383.157 235.291 381.889L236.759 387.429Z" fill="#8283A8"/>
<path d="M142.673 532.712C143.28 533.793 144.875 533.887 145.964 534.107C147.547 534.401 149.141 534.694 150.736 534.947C154.056 535.472 157.389 535.869 160.739 536.157C167.459 536.733 174.21 536.831 180.944 536.45C184.265 536.262 187.588 535.977 190.883 535.511C191.649 535.402 192.439 535.308 193.232 535.199C194.507 535.045 195.764 534.761 196.981 534.351L196.438 533.866L195.874 533.37C194.013 531.708 191.846 530.434 189.62 529.33C184.717 526.875 179.373 525.433 174.02 524.323C172.525 524.03 171.034 523.736 169.533 523.443C168.247 523.205 166.691 523.114 165.702 522.165C163.543 520.11 165.129 516.833 166.436 514.825C168.045 512.361 169.742 509.948 171.395 507.513L171.539 507.314C171.9 506.788 172.335 506.224 172.778 505.628C171.366 505.159 169.942 504.727 168.515 504.316L167.977 504.163C166.304 503.688 164.6 503.215 162.877 502.76C161.758 502.466 160.631 502.172 159.497 501.905C159.345 501.926 159.199 501.982 159.072 502.07C158.772 502.381 158.499 502.717 158.255 503.074C157.568 504.04 157.043 505.129 156.408 506.145C155.51 507.59 154.55 508.987 153.578 510.379C151.757 512.969 149.869 515.518 148.143 518.172C146.685 520.351 145.415 522.649 144.346 525.043C143.583 526.805 141.607 530.833 142.673 532.712Z" fill="#424242"/>
<path d="M239.989 502.099C238.888 505.217 236.829 509.202 238.482 512.478C239.865 515.221 247.561 515.529 250.198 516.272C258.625 518.645 263.793 520.348 272.513 520.935C276.847 521.228 281.322 521.478 285.671 521.149C286.282 521.105 290.683 520.121 289.881 519.311C285.497 514.883 279.898 512.757 274.495 509.698C271.791 508.168 268.855 506.961 266.039 505.655C263.388 504.435 260.61 503.511 257.756 502.9C257.882 501.99 258.414 494.591 258.367 493.965C258.105 490.615 258.346 487.418 257.177 484.179C255.436 479.363 252.024 477.449 247.25 476.891C244.801 476.597 240.326 476.228 238.177 477.828C236.239 479.272 239.918 485.92 240.341 487.837C241.383 492.48 241.583 497.586 239.989 502.099Z" fill="#424242"/>
<path d="M113.321 205.864L117.689 221.922C120.348 231.706 123.319 241.24 125.552 251.111C128.734 265.195 132.169 282.629 144.353 291.718C149.118 295.262 154.709 297.69 160.342 299.428C163.571 300.428 166.841 301.273 170.143 302.025C171.13 302.249 172.087 302.425 173.082 302.59H173.129C173.14 302.593 173.151 302.593 173.162 302.59C173.204 302.6 173.246 302.607 173.289 302.611C173.295 302.608 173.303 302.608 173.31 302.611L173.469 302.634L173.572 302.652L176.018 303.047C176.025 303.049 176.032 303.049 176.039 303.047C176.08 303.047 176.127 303.047 176.178 303.067H176.219H176.237C177.867 303.336 179.498 303.595 181.128 303.844C195.602 306.059 210.016 307.961 224.676 308C225.042 308 231.148 308 230.997 306.659C230.25 300.034 222.242 299.043 217.076 298.395C210.572 297.575 204.126 296.342 197.776 294.704C192.13 293.303 186.59 291.5 181.196 289.309C176.792 287.472 171.877 284.266 169.183 280.259C165.733 275.123 163.349 268.68 160.98 262.977C156.154 251.371 152.665 239.263 149.139 227.21C145.966 216.35 142.773 204.449 134.759 196.05C129.989 191.048 119.104 186.704 113.734 193.497C110.857 197.14 112.187 201.687 113.271 205.682C113.288 205.751 113.303 205.807 113.321 205.864Z" fill="url(#paint0_linear)"/>
<path d="M129.407 258.294C131.189 259.145 135.705 245.914 136.101 244.085C137.141 239.284 137.276 233.676 136.818 228.79C135.914 219.787 134.293 210.871 131.97 202.126C131.383 199.897 131.11 197.369 129.724 195.546C128.018 201.104 129.518 208.04 129.057 213.806C128.47 221.311 128.646 228.908 128.294 236.392C128.056 241.46 127.354 246.481 127.357 251.546C127.357 254.021 128.22 255.736 129.257 257.935C129.248 257.689 129.263 257.436 129.407 258.294Z" fill="#E01E5A"/>
<path d="M133.403 343.427C136.871 346.219 141.578 347.112 145.815 348.016C153.743 349.711 161.806 351.07 169.572 353.475C177.042 355.783 183.842 359.089 189.897 364.069C201.868 373.92 209.57 387.723 214.952 402.043C220.904 417.87 225.003 434.451 228.608 450.952C230.446 459.37 232.157 467.811 233.741 476.278C234.915 482.611 235.937 488.971 237 495.325C237.1 495.936 237.235 496.535 237.329 497.145H239.208C240.941 497.145 242.673 497.145 244.405 497.119C250.9 497.084 257.395 497.032 263.89 496.963C264.56 496.963 271.941 496.884 271.941 496.84C271.583 490.395 271.102 483.953 270.426 477.531C270.253 475.89 270.062 474.252 269.865 472.613C268.767 463.605 266.967 454.737 264.874 445.893C261.08 429.826 256.338 414.006 251.3 398.294C248.88 390.753 246.722 383.131 244.211 375.626C241.98 368.975 239.035 362.454 234.031 357.421C229.11 352.447 222.836 349.2 216.517 346.349C209.411 343.16 202.153 340.241 194.885 337.44C180.897 332.049 166.645 328.188 151.723 327.727C147.877 327.207 143.976 327.237 140.139 327.818C136.249 328.405 132.194 329.906 130.332 333.646C128.588 337.149 130.576 341.151 133.403 343.427Z" fill="#F5B500"/>
<path d="M58.7897 204.181C59.697 199.469 61.4676 195.766 64.9059 192.419C67.6954 189.706 71.2218 187.597 74.8069 186.135C83.557 182.571 93.0851 181.082 102.505 181.261H102.563C118.302 200.347 128.746 223.605 131.996 247.808C134.028 230.191 137.434 212.309 136.641 194.368C139.91 197.888 142.716 201.81 144.992 206.04C150.712 216.534 152.101 228.819 151.784 240.608C151.126 264.73 143.359 289.318 149.388 313.295C150.716 318.531 152.636 323.598 155.11 328.399C152.5 330.752 149.677 332.857 146.677 334.689C143.864 336.423 140.961 338.009 137.98 339.44C129.172 343.715 119.899 346.845 110.87 350.597C104.9 353.022 99.106 355.86 93.5314 359.092C91.294 360.401 89.1065 361.8 86.9689 363.288C85.3677 364.4 83.8017 365.559 82.2709 366.767C82.0096 366.35 81.7694 365.92 81.5515 365.478C80.3212 362.971 79.825 360.193 79.6694 357.412C79.5901 356.073 79.596 354.734 79.6283 353.413C79.7546 348.877 80.1627 344.422 79.9777 339.874C79.7718 334.766 79.259 329.675 78.442 324.629C76.7596 314.22 73.6677 304.131 70.5611 294.092C64.4537 274.325 60.0288 254.362 58.5959 233.676C58.2436 228.522 58.0567 223.359 58.0351 218.187C58.0087 213.516 57.9088 208.768 58.7897 204.181Z" fill="#4A154B"/>
<path d="M127.823 189.028C132.907 191.359 134.962 196.81 136.694 201C138.611 193.388 131.17 186.197 124 182C124.856 184.394 127.013 186.447 127.446 189.014C127.732 188.969 127.508 188.851 127.823 189.028Z" fill="#C2EEEE"/>
<path d="M197.525 298.094C198.849 295.008 203.647 295.778 206.275 295.957C209.645 296.149 212.996 296.595 216.299 297.29C223.339 298.881 230.228 301.075 236.891 303.849C237.695 304.184 238.303 305.318 238.708 306.031C238.823 306.234 239.657 307.793 239.084 307.696C231.394 306.592 223.455 306.36 215.618 306.642C212.658 306.935 209.745 307.414 206.768 307.778C202.898 308.257 199.404 305.579 197.789 302.199C197.202 300.937 196.973 299.43 197.495 298.141L197.525 298.094Z" fill="#F99863"/>
<path d="M59.997 203.556C62.8657 197.883 68.1685 195.27 74.32 194.856C80.9383 194.413 87.6506 195.587 91.5763 201.354C94.8796 206.205 96.2185 212.13 97.8628 217.677C100.094 225.208 101.783 232.892 103.612 240.532C105.104 246.766 105.885 253.123 107.588 259.324C110.647 270.444 115.439 281.346 126.656 286.144C135.42 289.897 146.622 290.443 157.219 291.52C168.756 292.695 187.947 295.226 201.357 295.754C198.438 298.224 202.017 306.401 202.552 308.536C202.064 308.536 201.706 308.509 201.612 308.504C186.361 307.188 171.075 306.266 155.763 306.031C148.081 305.914 140.397 305.961 132.716 306.131C125.695 306.29 118.511 306.111 111.927 303.38C100.382 298.597 92.4631 288.147 85.5012 278.216C77.7877 267.205 70.9433 255.507 65.9076 243.019C63.4034 236.711 61.343 230.236 59.7415 223.64C58.1676 217.21 56.8904 209.737 59.997 203.556Z" fill="#E8E8E8"/>
<path d="M84.4173 370.103C87.882 373.474 92.5037 375.84 96.8141 377.937C101.263 380.068 105.902 381.778 110.67 383.046C121.106 385.903 131.896 387.157 142.675 387.914C154.109 388.707 165.622 389.089 177.079 388.995C188.71 388.904 201.127 388.431 211.768 383.21C216.064 381.102 220.104 378.304 223.02 374.451C225.677 370.928 227.753 366.192 225.842 361.846C224.15 358.008 220.386 355.859 216.686 354.306C192.592 344.191 166.162 337.311 139.677 336.583C120.886 336.066 94.0159 339.055 82.7143 356.396C79.6254 361.13 80.4299 366.218 84.4173 370.103Z" fill="#FDBB00"/>
<path d="M148.554 505.115C149.84 505.827 151.146 506.507 152.474 507.155C154.456 508.13 156.476 509.026 158.514 509.854C163.61 511.93 168.89 513.525 174.284 514.619C175.72 514.913 177.188 515.206 178.689 515.45C180.324 515.744 181.983 515.973 183.639 516.143L184.261 514.983C189.594 504.985 194.665 494.779 199.134 484.382C207.702 464.468 214.989 443.997 219.981 422.888C222.383 412.542 224.218 402.072 225.478 391.526C226.15 386.062 226.731 380.6 226.89 375.083C227.072 368.708 227.477 357.759 219.699 357.956C213.292 358.111 205.605 362.704 200.54 366.28C189.523 374.061 181.78 385.739 176.613 398.03C173.16 406.251 170.514 414.655 168.197 423.243C165.655 432.683 163.138 442.135 160.895 451.648C156.922 468.541 152.6 485.371 149.123 502.378C148.912 503.3 148.727 504.21 148.554 505.115Z" fill="#FDBB00"/>
<path d="M110.5 175.553C111.17 173.997 112.191 172.585 112.922 171.052C113.718 169.352 114.374 167.59 114.884 165.784C116.044 161.797 116.792 157.892 116.716 153.725C116.696 152.512 122.219 153.041 122.926 153.185C128.696 154.359 129.386 161.345 130.214 166.104C131.682 174.619 130.49 182.917 131.019 191.406C122.885 189.588 115.371 182.691 110.5 175.553Z" fill="url(#paint1_linear)"/>
<path d="M115.818 199.999C114.956 200.08 112.605 196.73 111.905 195.98C110.032 193.973 107.989 192.093 106.739 189.569C105.42 186.93 104.461 184.046 103 181.519C103.973 180.314 105.424 179.441 106.521 178.338C107.054 177.808 108.633 175.221 109.222 175.027C110.655 174.546 115.52 180.681 116.621 181.674C119.412 184.191 121.964 186.816 125.059 188.891C126.475 189.842 128.501 190.393 130 191.054C126.461 191.616 122.656 194.174 119.994 196.585C118.938 197.525 116.749 199.553 115.818 199.999Z" fill="#E0E0E0"/>
<path d="M130.557 188.924C131.594 188.801 132.636 190.072 133.091 190.98C133.412 191.596 133.601 192.272 133.648 192.966C133.694 193.659 133.597 194.354 133.362 195.008C132.842 196.33 131.632 197.105 130.246 197.26C125.886 197.754 121.164 193.17 125.164 189.653C127.357 187.735 128.167 189.212 130.557 188.924Z" fill="#E01E5A"/>
<path d="M117.794 145.266C120.304 139.496 126.843 137.907 132.551 139.1C140.115 140.679 144.17 145.956 145.292 153.446C145.929 157.709 145.638 162.698 144.085 166.744C142.734 170.25 140.194 172.74 136.433 173.36C131.964 174.097 126.917 173.606 123.499 170.379C120.269 167.334 118.554 162.836 117.626 158.599C116.699 154.362 116.003 149.379 117.794 145.266Z" fill="#F99863"/>
<path d="M111.789 154.415C112.432 156.737 113.257 159.001 114.006 161.289C114.435 162.625 114.937 163.106 116.355 163.271C119.967 163.696 122.254 161.06 122.959 157.692C123.405 155.563 122.665 153.616 122.665 151.505C122.665 150.287 123.097 148.774 124.374 148.346C126.558 147.612 127.862 150.31 128.191 152.019C128.235 152.26 129.527 152.183 129.512 152.019C129.383 150.289 129.219 148.231 129.545 146.528C129.768 145.354 130.525 144.097 131.691 143.686C132.49 143.407 134.627 145.55 135.244 145.953C137.63 147.528 140.473 148.265 143.324 148.046C145.524 147.849 147.834 146.848 148.157 144.408C148.654 140.656 147.773 136.953 143.865 135.761C139.443 134.41 134.401 134.34 129.826 133.758C122.609 132.845 111.56 131.028 109.792 140.735C109.014 145.084 110.641 150.24 111.789 154.415Z" fill="#424242"/>
<path d="M451.068 389.301L459.51 514.473H455.29L443.939 390.064L451.068 389.301Z" fill="#8283A8"/>
<path d="M366.698 388.247L358.256 513.419H362.479L373.827 389.01L366.698 388.247Z" fill="#8283A8"/>
<path d="M462.478 388.155L473.312 522.718H467.895L453.328 389.048L462.478 388.155Z" fill="#8283A8"/>
<path d="M354.19 386.919L343.352 521.481H348.772L363.339 387.812L354.19 386.919Z" fill="#8283A8"/>
<path d="M482.024 385.169L335.042 381.725V393.347L482.024 394.583V385.169Z" fill="#999BC7"/>
<path d="M447.568 374.557L482.024 385.169L335.042 381.725L373.982 372.901L447.568 374.557Z" fill="#8283A8"/>
<path d="M447.567 374.558L437.766 248.044L382.013 247.512L373.982 372.902L447.567 374.558Z" fill="#8283A8"/>
<path d="M453.023 0H172V258H453.023V0Z" fill="#E8E8E8"/>
<path d="M445.228 14.3003H180.547V247.871H445.228V14.3003Z" fill="#F1F1F1"/>
<path d="M180.5 148.26H215.905V178.756H228.49V123.093H263.348V167.71L279.827 152.678C279.827 152.678 285.575 152.678 287 152.678C288.472 152.678 287 116.032 287 116.032H314.922V171.262H317.581V126.212H333.586V169.486H336.008V98.3584H370.39V122.226H395.56V170.395H405.723V136.781H444V247.674H180.5C180.5 247.674 180.5 151.093 180.5 148.26Z" fill="#DDD2DF"/>
<path d="M312.857 0.819336H300.789V252.935H312.857V0.819336Z" fill="#E8E8E8"/>
<path d="M382.923 146.191C384.362 143.71 386.538 142.254 389.324 141.666C392.751 140.941 396.926 141.026 400.153 142.497C403.174 143.877 405.379 146.426 407.937 148.458C410.762 150.704 414.764 151.338 417.271 153.981C417.838 154.55 418.258 155.248 418.495 156.015C418.732 156.782 418.78 157.596 418.634 158.385C419.021 160.505 418.384 162.731 417.55 164.845C417.489 165.3 417.418 165.749 417.315 166.193C416.687 168.879 415.554 171.546 414.379 174.033C413.281 176.399 412.262 178.83 411.055 181.144C410.157 182.862 408.73 184.538 406.604 183.989C405.318 183.658 404.701 181.021 404.367 179.926C404.278 179.632 403.33 175.145 403.95 175.307C404.313 175.413 404.694 175.445 405.071 175.402C405.447 175.358 405.811 175.239 406.14 175.051C406.313 173.542 406.481 172.03 406.657 170.521C406.868 168.721 406.578 167.091 406.578 165.33C405.814 162.017 403.706 158.65 401.357 156.227C399.833 154.659 398.127 153.905 395.898 154.037C393.925 154.151 392.375 155.073 390.484 155.505C388.161 156.048 383.951 156.439 382.292 154.272C380.574 152.031 381.652 148.379 382.923 146.191Z" fill="#424242"/>
<path d="M416.091 484.855C416.111 482.179 416.552 479.522 417.397 476.983C417.717 476.026 418.075 474.317 418.939 473.688C419.717 473.125 421.129 472.916 421.972 473.453C422.762 473.958 423.214 474.851 423.54 475.732C425.445 480.856 424.421 486.778 426.635 491.773C428.062 494.979 430.69 497.46 432.945 500.15C435.165 502.796 437.062 505.697 438.597 508.791C439.084 509.778 439.539 510.958 439.04 511.942C438.661 512.69 437.801 513.116 436.961 513.149C436.12 513.154 435.287 512.978 434.518 512.635C429.333 510.638 425.034 506.727 421.86 502.167C418.442 497.255 416.193 491.423 416.094 485.43C416.091 485.245 416.088 485.049 416.091 484.855Z" fill="#424242"/>
<path d="M398.23 367.996C398.923 371.267 400.676 374.342 402.676 376.981C404.804 379.797 407.256 381.524 410.451 382.957C416.956 385.857 423.906 387.634 431.005 388.213C444.464 389.325 459.175 386.521 469.372 377.096C472.773 373.954 476.126 369.697 476.152 364.84C476.179 358.492 471.915 353.582 466.463 350.846C463.728 349.488 460.791 348.583 457.765 348.168C453.89 347.619 450.111 346.483 446.223 346.004C439.267 345.144 432.236 345.061 425.261 345.757C418.073 346.486 410.313 347.813 404.511 352.434C399.842 356.172 396.956 361.971 398.23 367.996Z" fill="#2E4A74"/>
<path d="M362.59 357.119L362.687 356.984C368.762 348.654 379.817 338.486 390.998 340.048C398.518 341.105 402.602 349.15 404.123 355.848C405.885 363.547 405.177 371.63 404.27 379.394C403.518 385.836 402.141 392.26 401.11 398.388C398.706 412.676 396.55 428.705 397.781 443.187C398.794 455.096 399.998 467.085 400.94 478.636C401.748 488.51 402.373 498.429 403.409 508.277C403.964 513.589 405.271 519.403 404.681 524.75C404.226 528.86 401.818 533.2 397.602 533.485C396.371 533.567 395.209 531.659 394.58 530.801C393.247 528.978 391.902 526.864 391.18 524.664C381.696 495.775 370.661 467.549 362.857 438.045C358.549 421.755 353.658 404.49 353.188 387.454C352.916 376.586 356.219 365.929 362.59 357.119Z" fill="#2E4A74"/>
<path d="M385.122 200.89C387.266 206.037 392.988 208.363 398.121 209.355C403.406 210.38 411.531 210.932 415.151 205.976C416.619 203.959 418.381 200.925 417.163 198.494C416.596 197.378 415.653 196.489 414.922 195.482C410.186 188.96 409.214 180.416 409.373 172.579C409.414 170.509 409.373 169.863 407.2 170.148C405.564 170.362 403.864 170.776 402.255 171.143C399.134 171.854 396.212 173.105 394.815 176.193C393.775 178.493 393.573 181.071 393.329 183.587C392.698 190.023 390.035 196.269 385.219 200.714L385.122 200.89Z" fill="url(#paint2_linear)"/>
<path d="M379.001 204.5C378.001 203.5 385.001 200.5 385.001 200.5C385.001 200.5 393.391 205.935 399.98 206.087C403.997 206.178 417.001 198 417.001 198C418.501 198.5 426.501 203 423.501 212.5C422.649 225.273 416.585 243.368 415.31 256.103C414.136 267.922 413.898 281.006 410.815 292.451C410.113 296.562 409.364 300.673 408.448 304.725C407.808 307.543 406.34 313.827 402.869 313.939C399.399 314.05 398.11 308.263 397.505 305.52C392.993 285.061 389.206 264.442 386.144 243.665C385.381 238.474 384.663 233.277 383.989 228.074C383.522 224.407 378.375 208.19 379.001 204.5Z" fill="#963298"/>
<path d="M367.173 342.92C367.324 334.651 366.755 326.384 365.47 318.214C363.67 306.704 361.374 295.258 360.108 283.672C358.711 270.864 356.23 258.212 353.989 245.533C353.922 245.154 353.854 244.776 353.79 244.394C352.065 234.606 350.695 224.774 349.679 214.896C349.594 214.062 352.028 213.572 352.233 213.525C361.042 211.402 371.698 209.121 379.285 203.386C379.825 205.242 380.37 207.096 380.92 208.947C381.828 211.989 382.585 215.075 383.352 218.156C384.561 223.039 385.674 227.948 386.761 232.866C388.904 242.506 390.93 252.169 393.22 261.782C397.17 278.39 400.452 295.273 401.95 312.286C402.581 319.444 402.831 326.629 403.124 333.808C403.262 337.391 403.353 340.982 403.594 344.561C403.794 347.527 403.773 350.616 402.458 353.37C400.99 356.453 397.956 356.893 394.909 357.116C393.303 357.228 391.849 357.621 390.211 357.41C386.981 356.981 383.751 356.438 380.685 355.313C380.098 355.096 379.482 354.876 378.874 354.638C374.763 354.259 370.652 353.91 366.542 353.637C366.896 350.072 367.106 346.5 367.173 342.92Z" fill="url(#paint3_linear)"/>
<path d="M398.705 314.262C398.952 312.767 399.251 311.275 399.586 309.795C399.959 307.446 400.385 305.068 401.324 302.928C402.766 297.76 404.413 292.651 405.744 287.48C408.037 278.598 409.317 269.516 410.735 260.466C412.121 251.658 413.34 242.802 415.11 234.064C416.845 225.516 420.102 217.38 421.455 208.739C421.822 206.541 421.752 204.293 421.25 202.123C421.109 201.536 420.821 200.908 420.663 200.273C423.39 201.806 432.358 205.468 437.191 207.32C441.369 208.924 445.914 210.019 449.881 212.156C457.283 216.144 456.737 224.527 456.893 232.123C457.075 241.113 456.723 250.106 455.839 259.054C454.585 271.733 451.666 283.874 449.159 296.303C447.006 306.938 444.861 317.574 442.726 328.209C441.909 332.261 441.093 336.316 440.045 340.309C439.261 343.295 438.756 346.789 436.43 348.798C431.324 353.202 424.9 353.049 418.78 354.415C413.865 355.513 408.783 356.541 403.782 355.357C402.02 354.946 401.172 354.421 400.893 352.547C400.599 350.583 400.376 348.601 400.132 346.628C399.191 339.255 398.647 331.837 398.503 324.406C397.898 321.079 398.171 317.535 398.705 314.262Z" fill="url(#paint4_linear)"/>
<path d="M439.14 259.736C436.09 248.825 435.103 237.42 437.341 225.94C438.133 221.864 439.425 217.607 442.188 214.406C446.393 209.535 452.791 213.754 456.112 217.287C458.819 220.206 461.105 223.488 462.906 227.038C466.809 234.569 469.196 242.756 471.322 251.012C473.58 259.792 475.488 268.697 477.159 277.621C478.803 286.385 480.495 295.564 480.456 304.537C480.456 307.55 480.28 313.146 476.933 314.148C474.913 314.735 472.361 314.679 470.323 314.148C468.385 313.657 467.017 311.837 465.766 310.307C460.331 303.68 456.271 295.593 451.825 288.22C446.461 279.321 441.933 269.728 439.14 259.736Z" fill="url(#paint5_linear)"/>
<path d="M328.317 292.851C328.317 289.474 328.47 286.097 328.684 282.759C329.324 272.72 330.422 262.74 331.914 252.809C332.668 247.759 333.462 242.712 334.298 237.667C334.982 233.556 335.907 229.487 337.742 225.758C340.949 219.236 347.138 214.43 353.956 213.044C357.403 212.342 366.482 211.393 366.515 217.207C366.515 219.53 365.481 221.946 364.938 224.166C364.365 226.515 363.904 228.864 363.47 231.213C363.549 234.044 363.534 236.883 363.379 239.699C362.838 249.389 360.921 258.84 358.44 268.18C356.385 275.879 353.971 283.593 350.541 290.748C349.138 295.103 347.937 299.54 347.776 304.082C347.558 310.081 349.948 314.509 352.336 319.826C353.528 322.469 356.153 330.124 352.923 332.54C352.732 333.641 352.127 334.563 350.765 334.642C347.2 334.854 343.718 331.371 341.662 328.879C340.08 326.976 338.635 324.932 336.806 323.247C335.226 321.779 333.438 321.192 332.257 319.254C330.135 315.786 329.953 311.434 329.339 307.509C328.613 302.657 328.271 297.756 328.317 292.851Z" fill="url(#paint6_linear)"/>
<path d="M330.713 308.36C329.148 311.59 329.33 315.175 330.308 317.959C332.502 324.18 336.257 329.798 340.08 334.566C348.281 344.802 359.271 351.872 371.401 355.689C371.8 355.816 374.099 356.723 374.601 355.88C376.069 353.414 374.328 350.116 373.662 348.084C372.869 345.677 371.995 343.322 371.04 341.02C369.125 336.397 366.841 331.937 364.21 327.68C361.434 323.161 358.186 318.948 354.52 315.113C350.897 311.364 347.08 307.723 342.226 305.926C339.228 304.819 333.03 303.574 330.713 308.36Z" fill="#963298"/>
<path d="M377.08 516.252C379.814 515.791 383.076 518.557 385.193 519.934C387.888 521.696 390.607 523.408 393.256 525.22C393.341 524.163 393.491 522.806 394.157 522.336C395.038 521.714 396.947 522.518 397.681 523.035C400.212 524.797 401.792 528.176 402.672 531.045C403.195 532.751 404.989 538.812 402.179 539.375C400.74 540.617 397.052 537.763 396.042 537.026C393.693 535.3 391.212 533.99 388.658 532.622C385.13 530.767 382.002 528.236 379.453 525.173C378.71 524.573 378.045 523.882 377.474 523.117C376.261 521.479 373.269 516.898 377.08 516.252Z" fill="#424242"/>
<path d="M418.146 468.38C418.181 470.558 418.331 472.693 419.294 474.675C420.031 476.19 421.211 478.278 422.765 479.126C424.852 480.265 426.664 477.388 427.806 476.052C429.26 474.349 430.613 472.567 431.893 470.734C437.737 462.378 442.822 453.411 447.849 444.549C452.773 435.861 457.395 426.999 461.511 417.9C465.534 409.006 469.096 399.903 471.867 390.543C473.317 385.592 474.484 380.563 475.362 375.48C475.755 373.225 475.805 370.987 476.013 368.712C476.245 366.198 476.307 363.641 475.687 361.171C474.469 356.206 470.452 352.885 465.305 352.882C460.158 352.879 455.392 356.177 451.71 359.468C447.177 363.526 443.735 368.712 441.307 374.264C439.29 378.877 437.863 383.713 436.38 388.52C434.786 393.681 433.221 398.858 431.764 404.061C428.793 414.664 426.329 425.446 423.895 436.184C422.674 441.563 421.481 446.948 420.372 452.351C419.309 457.615 418.067 462.974 418.146 468.38Z" fill="#2E4A74"/>
<path d="M401.245 298.603C398.095 304.552 406.906 307.476 412.638 309.54C414.229 310.128 415.724 310.556 416.913 310.882C423.285 312.644 429.809 313.959 436.219 315.566C442.755 317.204 449.335 318.713 456.012 319.676C464.166 320.851 473.13 322.8 478.539 313.954C479.346 312.632 479.972 311.144 480.06 309.59C480.339 304.481 474.381 303.01 470.855 301.627C460.038 297.384 448.445 295.399 436.838 294.985C430.994 294.788 425.144 294.957 419.321 295.49C414.173 295.954 407.629 296.615 402.481 297.082C401.665 297.164 401.418 298.289 401.245 298.603Z" fill="#963298"/>
<path d="M162 306H500V317H162V306Z" fill="#999BC7"/>
<path d="M383.387 182.474C380.078 176.754 381.443 170.435 382.506 164.346C383.055 161.221 384.001 158.253 385.716 155.76C386.937 154.732 388.223 153.884 389.97 153.622C392.501 153.244 395.311 153.605 397.801 154.081C400.555 154.609 403.498 155.549 405.233 157.898C406.381 159.457 406.821 161.301 406.824 163.183C406.637 163.993 406.497 164.814 406.404 165.641C406.404 165.758 406.628 165.737 406.669 165.664C407.423 164.246 407.397 161.445 408.877 160.484C409.805 159.88 411.563 159.971 412.38 160.669C412.744 160.98 413.071 161.333 413.352 161.721C413.944 162.49 414.297 163.418 414.365 164.387C414.529 166.489 413.898 168.665 412.973 170.532C412.092 172.294 410.685 173.563 409.664 175.192C405.8 181.358 400.232 188.573 391.958 188.226C388.185 188.056 385.205 185.613 383.387 182.474Z" fill="#F99863"/>
<path d="M400.758 305.465C399.824 305.406 398.887 305.265 397.948 305.171C394.231 304.763 390.663 304.484 386.919 304.678C383.918 304.834 380.894 304.916 377.902 305.192C376.455 305.327 375.03 305.468 373.574 305.485C373.195 305.485 372.834 305.485 372.488 305.527C371.689 304.939 370.608 302.678 370.858 302.605C376.648 300.967 382.541 299.871 388.476 298.935C391.168 298.512 393.872 298.159 396.58 297.834C399.193 297.519 402.062 296.818 404.687 297.226C406.51 297.519 407.72 299.311 407.72 301.09C407.72 303.733 405.479 305.027 403.127 305.406C402.342 305.516 401.547 305.536 400.758 305.465Z" fill="#F99863"/>
<path d="M368.779 356.653C371.032 359.791 373.615 362.679 376.484 365.268C378.809 367.323 382.532 370.377 385.938 369.117C389.253 367.898 386.479 363.582 385.413 361.638C383.787 358.655 381.869 355.84 379.687 353.235C380.709 354.039 381.71 354.873 382.656 355.781C384.265 357.328 382.756 354.142 382.421 353.631C379.752 349.582 370.18 340.418 366.301 348.499C364.862 351.494 367.091 354.327 368.779 356.653Z" fill="#F99863"/>
<path d="M111.172 13.4779C105.664 7.20597 98.323 2.09469 90.028 1.15531C83.1823 0.379054 76.1529 2.56157 70.5785 6.60784C65.0041 10.6541 60.8284 16.4704 58.2034 22.8417C53.9809 33.0999 53.7727 45.1543 58.5371 55.165C63.3015 65.1757 73.2335 72.807 84.2717 73.902C105.819 76.0395 124.348 52.9825 120.808 32.393C119.597 25.3092 115.871 18.8235 111.172 13.4779Z" fill="#2EB67D"/>
<path d="M58.5866 38.2135C58.0841 45.4979 59.4304 53.2136 63.9548 58.938C67.6898 63.6687 73.373 66.6912 79.3299 67.6624C85.2868 68.6337 91.4593 67.6399 97.0318 65.3449C106.008 61.6512 113.616 54.3611 116.907 45.2317C120.198 36.1023 118.801 25.2347 112.69 17.699C100.746 2.99703 75.0024 5.68768 64.3992 20.5696C60.7485 25.6903 59.0179 31.9978 58.5866 38.2135Z" fill="white"/>
<path d="M91.4813 28.1645C91.607 26.2558 91.7438 24.3451 91.8563 22.4345C91.967 20.5595 92.2313 18.5888 92.057 16.7063C92.057 16.6744 91.8432 16.9332 91.8301 16.9951C91.0969 20.8557 90.9938 24.8851 90.6694 28.7964L90.1801 34.6821C90.0451 36.3246 89.7788 38.0196 89.7188 39.6846C88.7194 39.8721 87.7051 40.1721 86.8013 40.3427L81.3244 41.374C77.6381 42.0696 73.7906 42.6115 70.2074 43.729C70.1887 43.729 70.1456 43.8134 70.1587 43.8134C73.5506 43.8134 77.0962 43.0146 80.4506 42.5009L85.5506 41.719C87.315 41.449 89.3175 41.3815 90.9882 40.7552C91.1926 40.6783 91.8376 39.5646 91.7213 39.5533C91.3759 39.5205 91.028 39.5205 90.6826 39.5533V39.5308C91.2619 35.8127 91.2395 31.9164 91.4813 28.1645Z" fill="#2E4A74"/>
<path d="M80.5003 61.9785C80.5003 61.9785 80.4478 62.0385 80.4441 62.0498C80.2119 62.8012 80.0241 63.5657 79.8816 64.3392C79.7878 64.8585 79.6247 65.4154 79.7147 65.9442C79.7147 65.9929 79.9172 65.7229 79.9303 65.6854C80.3109 64.536 80.5847 63.1935 80.5003 61.9785Z" fill="#2E4A74"/>
<path d="M91.2588 62.9653C91.1595 62.5697 91.122 62.0953 90.8838 61.7634C90.867 61.7391 90.7544 61.9247 90.7544 61.9509C90.7226 62.9091 91.0019 63.9497 91.3563 64.8328C91.3676 64.8628 91.5138 64.6753 91.5082 64.6247C91.4721 64.0655 91.3887 63.5104 91.2588 62.9653Z" fill="#2E4A74"/>
<path d="M101.964 58.5417C101.634 58.0523 101.33 57.3567 100.689 57.2798C100.667 57.2798 100.633 57.3435 100.633 57.3604C100.659 58.0617 100.963 58.5417 101.327 59.121C101.634 59.6123 101.93 60.3211 102.472 60.5817C102.562 60.6267 102.804 60.2067 102.787 60.1242C102.677 59.5204 102.302 59.0461 101.964 58.5417Z" fill="#2E4A74"/>
<path d="M111.362 52.3C111.096 51.8631 110.702 51.6156 110.275 51.3625C109.878 51.095 109.452 50.873 109.005 50.7006C108.893 50.6631 108.542 51.205 108.63 51.2875C108.982 51.6111 109.368 51.8947 109.782 52.1331C110.205 52.4031 110.603 52.6469 111.115 52.6956C111.195 52.6994 111.407 52.375 111.362 52.3Z" fill="#2E4A74"/>
<path d="M116.028 43.1388C115.496 42.9578 114.947 42.8321 114.389 42.7638C113.797 42.6757 113.347 42.5651 112.767 42.7807C112.756 42.7807 112.726 42.8238 112.734 42.8351C113.049 43.2963 113.759 43.2644 114.279 43.3488C114.788 43.4353 115.305 43.4761 115.822 43.4707C115.887 43.4744 116.067 43.1538 116.028 43.1388Z" fill="#2E4A74"/>
<path d="M115.614 35.5113C115.248 35.3869 114.865 35.3174 114.478 35.3051C114.303 35.2839 114.127 35.2757 113.951 35.2807C113.663 35.3145 113.516 35.5226 113.216 35.5713C113.216 35.5713 113.175 35.6238 113.183 35.6257C113.262 35.6995 113.326 35.7888 113.37 35.8882C113.404 35.9318 113.45 35.9647 113.502 35.983C113.554 36.0012 113.611 36.0041 113.664 35.9913C113.837 36.0157 114.01 36.0289 114.184 36.0307C114.569 36.0503 114.955 36.0258 115.335 35.9576C115.427 35.9463 115.674 35.5301 115.614 35.5113Z" fill="#2E4A74"/>
<path d="M115.262 28.5042C114.434 28.4217 113.344 28.5042 112.621 28.9261C112.621 28.9261 112.576 28.9711 112.587 28.9824C112.834 29.2299 113.337 29.0892 113.65 29.0536C114.138 29.0077 114.622 28.9173 115.094 28.7836C115.174 28.7072 115.232 28.6107 115.262 28.5042Z" fill="#2E4A74"/>
<path d="M113.74 21.3643C112.798 21.7206 111.914 22.2127 111.115 22.8249C111.105 22.8249 111.059 22.9074 111.072 22.9055C111.959 22.7818 112.862 22.1143 113.603 21.6343C113.666 21.5545 113.713 21.4626 113.74 21.3643Z" fill="#2E4A74"/>
<path d="M108.448 17.0327C108.261 17.132 108.086 17.2508 107.925 17.3871C107.718 17.5327 107.523 17.6938 107.341 17.869C107.341 17.869 107.291 17.9477 107.304 17.9458C107.484 17.8853 107.649 17.7883 107.79 17.6608C107.987 17.5325 108.175 17.3903 108.352 17.2352C108.397 17.1745 108.429 17.1058 108.448 17.0327Z" fill="#2E4A74"/>
<path d="M75.0843 60.2797C74.3043 60.8141 73.6162 61.6691 73.0555 62.4248C73.0312 62.4585 72.8455 62.7998 72.9618 62.721C73.3205 62.4419 73.6458 62.1223 73.9311 61.7685C74.3174 61.3372 74.6812 60.9116 75.0318 60.456C75.0468 60.4279 75.1499 60.2366 75.0843 60.2797Z" fill="#2E4A74"/>
<path d="M65.9924 55.5531C65.9169 55.6388 65.8624 55.7408 65.833 55.8512C66.7292 55.5488 67.5717 55.1058 68.3287 54.5387C68.3399 54.5387 68.383 54.4562 68.3718 54.458C67.4737 54.6249 66.7555 55.0749 65.9924 55.5531Z" fill="#2E4A74"/>
<path d="M65.8054 47.1997C65.1004 47.2466 64.401 47.346 63.6885 47.3235C63.561 47.3235 63.1972 47.886 63.2891 47.9385C64.2079 48.396 65.0816 47.9197 65.7679 47.2747C65.7735 47.2672 65.8204 47.1979 65.8054 47.1997Z" fill="#2E4A74"/>
<path d="M63.5747 39.79C63.0707 39.7381 62.562 39.7577 62.0635 39.8481C62.0035 39.8481 61.786 40.1819 61.8422 40.2119C62.2653 40.4654 62.7343 40.633 63.2222 40.705C63.7997 40.7837 64.2422 40.6712 64.8104 40.5175C64.8235 40.5175 64.8741 40.4481 64.861 40.4331C64.426 39.9925 64.1635 39.8856 63.5747 39.79Z" fill="#2E4A74"/>
<path d="M64.8914 31.9975C64.71 31.8775 64.518 31.7746 64.3176 31.69C64.0884 31.6238 63.8512 31.5891 63.6126 31.5869C63.5263 31.5869 63.3089 31.9038 63.3576 31.9769C63.4714 32.1769 63.6135 32.3594 63.7795 32.5188C63.956 32.6488 64.1443 32.7618 64.342 32.8563C64.7751 33.0907 65.1051 33.0888 65.5832 33.0326C65.6001 33.0326 65.6432 32.9688 65.6357 32.9519C65.4595 32.5244 65.2982 32.2432 64.8914 31.9975Z" fill="#2E4A74"/>
<path d="M67.0402 23.3467C66.9877 23.3467 66.8434 23.5548 66.8771 23.5998C67.1244 23.8991 67.4345 24.1405 67.7854 24.3067C68.1363 24.4729 68.5195 24.5599 68.9077 24.5617C68.919 24.5617 68.9471 24.5167 68.9415 24.5054C68.589 23.8867 67.749 23.4104 67.0402 23.3467Z" fill="#2E4A74"/>
<path d="M75.3258 17.1358C75.1852 16.9014 74.9884 16.6858 74.8252 16.4664C74.5011 16.036 74.123 15.6491 73.7002 15.3151C73.6665 15.287 73.4902 15.542 73.5127 15.5945C73.7595 16.0741 74.0602 16.5238 74.409 16.9352C74.5684 17.1227 74.7259 17.2989 74.8871 17.4789C75.0732 17.6675 75.2995 17.8117 75.549 17.9008C75.5603 17.9008 75.5902 17.8558 75.5865 17.8464C75.524 17.6013 75.4366 17.3632 75.3258 17.1358Z" fill="#2E4A74"/>
<path d="M82.426 13.4965C82.3866 13.3259 82.3191 13.1534 82.2628 12.9884C82.1772 12.7061 82.0142 12.4534 81.7922 12.259C81.7435 12.2197 81.5841 12.5103 81.586 12.5553C81.5966 12.9267 81.6741 13.2932 81.8147 13.6372C81.8706 13.7912 81.9389 13.9405 82.0191 14.0834C82.021 14.1288 82.0384 14.1722 82.0684 14.2063C82.0985 14.2404 82.1393 14.2632 82.1841 14.2709C82.2676 14.2706 82.348 14.3021 82.4091 14.359C82.4091 14.359 82.4504 14.3178 82.4466 14.3065C82.3847 14.0309 82.4822 13.7703 82.426 13.4965Z" fill="#2E4A74"/>
<path d="M88.8505 10.8101C88.7747 10.8721 88.7154 10.952 88.678 11.0426C88.6253 11.4245 88.6052 11.8103 88.618 12.1957C88.6386 12.4919 88.723 12.7826 88.753 13.0807C88.753 13.0807 88.8093 13.0263 88.8093 13.0038C88.858 12.2463 88.9743 11.5638 88.8505 10.8101Z" fill="#2E4A74"/>
<path d="M94.9891 10.8399C94.5747 11.6949 94.1491 12.6024 93.9785 13.5399C93.9785 13.5737 94.0385 13.4837 94.0441 13.4743C94.5301 12.5765 94.9132 11.6267 95.186 10.643C95.2048 10.5493 95.0023 10.8061 94.9891 10.8399Z" fill="#2E4A74"/>
<path d="M101.285 12.5797C100.93 12.7316 100.655 13.2584 100.435 13.5547C100.105 13.9752 99.8027 14.4175 99.5314 14.8785C99.5314 14.8916 99.432 15.0866 99.5164 15.0228C99.8424 14.7353 100.132 14.4084 100.377 14.0497C100.72 13.6574 101.018 13.2278 101.266 12.7691C101.273 12.7522 101.363 12.5497 101.285 12.5797Z" fill="#2E4A74"/>
<defs>
<linearGradient id="paint0_linear" x1="192" y1="261" x2="128.5" y2="297" gradientUnits="userSpaceOnUse">
<stop stop-color="#E0E0E0"/>
<stop offset="1" stop-color="#E6E6E6"/>
</linearGradient>
<linearGradient id="paint1_linear" x1="-67591.2" y1="44160.5" x2="-69150.4" y2="44857.4" gradientUnits="userSpaceOnUse">
<stop stop-color="#E88E5C"/>
<stop offset="0.13" stop-color="#F0935F"/>
<stop offset="0.36" stop-color="#F79762"/>
<stop offset="1" stop-color="#F99863"/>
</linearGradient>
<linearGradient id="paint2_linear" x1="397.167" y1="186.021" x2="409.058" y2="201.803" gradientUnits="userSpaceOnUse">
<stop stop-color="#E88E5C"/>
<stop offset="0.13" stop-color="#F0935F"/>
<stop offset="0.36" stop-color="#F79762"/>
<stop offset="1" stop-color="#F99863"/>
</linearGradient>
<linearGradient id="paint3_linear" x1="341.5" y1="207" x2="411.5" y2="290.5" gradientUnits="userSpaceOnUse">
<stop stop-color="#963298"/>
<stop offset="1" stop-color="#4A154B"/>
</linearGradient>
<linearGradient id="paint4_linear" x1="394" y1="200" x2="496" y2="316" gradientUnits="userSpaceOnUse">
<stop stop-color="#963298"/>
<stop offset="1" stop-color="#4A154B"/>
</linearGradient>
<linearGradient id="paint5_linear" x1="458.29" y1="212.202" x2="458.29" y2="314.567" gradientUnits="userSpaceOnUse">
<stop stop-color="#963298"/>
<stop offset="1" stop-color="#4A154B"/>
</linearGradient>
<linearGradient id="paint6_linear" x1="347.414" y1="212.517" x2="347.414" y2="334.652" gradientUnits="userSpaceOnUse">
<stop stop-color="#963298"/>
<stop offset="1" stop-color="#4A154B"/>
</linearGradient>
</defs>
</svg>
