<svg width="254" height="236" viewBox="0 0 254 236" fill="none" xmlns="http://www.w3.org/2000/svg">
<path d="M205.913 214.551C208.052 214.697 210.19 214.861 212.328 215.041C218.837 215.592 225.334 216.301 231.818 217.167C237.721 217.957 252.175 218.845 253.911 222.567C255.075 225.064 244.484 225.037 242.142 225.82C238.408 227.067 234.641 228.179 230.842 229.156C222.457 231.309 213.956 232.695 205.407 233.673C190.18 235.415 174.797 235.773 159.55 234.109C150.165 233.084 140.66 231.174 131.58 228.126C126.897 226.562 122.313 224.674 117.858 222.474C116.041 221.574 106.619 217.69 111.084 214.638C111.865 214.104 112.949 214.075 113.844 214.064C130.038 213.867 114.134 203.351 130.261 202.708C144.771 202.133 191.42 213.559 205.913 214.551Z" fill="#DDD2DF"/>
<path d="M111.411 186.758C113.55 186.904 115.688 187.068 117.826 187.248C124.335 187.799 130.832 188.508 137.316 189.374C143.219 190.164 157.673 191.052 159.409 194.774C160.573 197.271 149.982 197.244 147.64 198.027C143.906 199.274 140.139 200.386 136.34 201.363C127.955 203.516 119.454 204.902 110.905 205.88C95.6779 207.622 80.2948 207.98 65.0482 206.316C55.6627 205.291 46.1583 203.381 37.0776 200.333C32.3948 198.769 27.8113 196.881 23.3556 194.681C21.5393 193.781 12.1174 189.897 16.582 186.846C17.3632 186.311 18.4473 186.282 19.3416 186.271C35.536 186.074 19.632 175.558 35.7591 174.915C50.2691 174.34 96.9184 185.766 111.411 186.758Z" fill="#DDD2DF"/>
<path d="M25.7367 132.603L25.6855 127.933C40.4939 127.377 55.3034 126.136 70.1118 125.869L70.1285 129.009C67.0629 129.269 64.013 129.538 60.8996 129.928C49.1123 131.456 37.4128 131.935 25.7367 132.603Z" fill="#015BA2"/>
<path d="M25.3516 132.691C37.0266 132.024 48.7272 131.544 60.5145 130.012C63.6278 129.623 66.6778 129.354 69.7433 129.094L69.8912 158.628C55.1651 157.745 40.4068 157.232 25.6162 157.088L25.3516 132.691Z" fill="#00BCF8"/>
<path d="M24.1524 19.642L23.9834 4.05859C28.7401 4.52337 33.468 5.30949 38.4148 6.17122C48.9023 7.80572 58.9217 9.55585 69.178 10.7167V11.6974C62.7556 12.7137 56.4955 13.5676 49.7919 14.8652C41.0111 16.5498 32.5751 18.2365 24.1524 19.642Z" fill="#015BA2"/>
<path d="M69.3496 44.298C54.3022 45.6412 39.3749 47.4502 24.4831 49.7663L24.3652 38.9297C39.4349 39.6925 54.3534 40.8766 69.3396 42.1909L69.3496 44.298Z" fill="#015BA2"/>
<path d="M49.7961 14.8631C56.4998 13.5655 62.7598 12.7116 69.1822 11.6953L69.3368 42.1905C54.3505 40.8762 39.4265 39.692 24.3624 38.9292L24.1533 19.641C32.576 18.2355 41.012 16.5488 49.7961 14.8631Z" fill="#00BCF8"/>
<path d="M24.4795 49.7672C39.3713 47.4511 54.2986 45.642 69.346 44.2988L69.4828 71.4293C54.5543 70.5298 39.6259 70.1762 24.6985 69.8393L24.4795 49.7672Z" fill="#00BCF8"/>
<path d="M25.0094 98.3843L24.8281 81.6901C37.2426 79.4997 49.6003 77.8541 62.6007 75.5669C64.9357 75.2444 67.2262 74.922 69.4945 74.4961L69.6113 97.7561C54.7184 98.4432 39.8756 98.5878 25.0094 98.3843Z" fill="#00BCF8"/>
<path d="M25.041 101.336C39.9028 100.962 54.7656 100.046 69.6285 100.155L69.7575 125.887C54.9491 126.154 40.1396 127.399 25.3312 127.951L25.041 101.336Z" fill="#00BCF8"/>
<path d="M69.9215 158.562L69.9304 160.135C61.6756 160.671 53.5009 162.449 45.2116 162.984C43.4726 162.984 41.5757 162.984 39.8366 163.3C35.0665 163.856 30.3854 164.412 25.7321 164.92L25.6465 157.025C40.4593 157.168 55.2176 157.68 69.9215 158.562Z" fill="#015BA2"/>
<path d="M39.836 163.299C41.575 162.983 43.4719 162.983 45.2109 162.983C53.5002 162.449 61.6749 160.671 69.9297 160.135L70.0765 185.773L26.0406 193.351L25.7314 164.915C30.387 164.406 35.0659 163.853 39.836 163.299Z" fill="#00BCF8"/>
<path d="M69.6153 97.7559L69.6275 100.155C54.7658 100.044 39.9029 100.961 25.0401 101.336L25.0078 98.3841C39.8751 98.5876 54.718 98.443 69.6153 97.7559Z" fill="#015BA2"/>
<path d="M24.8272 81.6892L24.6982 69.8418C39.6256 70.1754 54.554 70.5323 69.4825 71.4318L69.4981 74.4951C67.2253 74.921 64.9326 75.2434 62.6042 75.5659C49.5994 77.8531 37.2417 79.4987 24.8272 81.6892Z" fill="#015BA2"/>
<path d="M29.5514 141.299L39.205 155.927L37.079 160.135L26.5938 143.794L29.5514 141.299Z" fill="#E0A600"/>
<path d="M37.079 160.134L23.099 157.674L13.958 141.287L26.5937 143.793L37.079 160.134Z" fill="#FDBB00"/>
<path d="M69.154 6.09547L69.1774 10.7154C58.9211 9.55461 48.9018 7.80447 38.4143 6.16997C33.4674 5.30935 28.7407 4.52324 23.9828 4.05735L23.9395 0L69.154 6.09547Z" fill="#00BCF8"/>
<path d="M23.9394 0.00195312L0 5.0211L2.96101 189.212L26.042 193.357L23.9394 0.00195312Z" fill="#014880"/>
<path d="M44.069 74.4961L43.1728 98.4466L38.2793 98.4677V74.4961H44.069Z" fill="#E0A600"/>
<path d="M38.2792 74.4961L29.5508 76.4775L30.3625 98.4421L38.2792 98.4677V74.4961Z" fill="#FDBB00"/>
<path d="M23.9395 0.00195312L26.6425 0.366658L28.5761 192.92L26.0421 193.357L23.9395 0.00195312Z" fill="#00BCF8"/>
<path d="M87.6713 209.453C82.3228 208.521 76.9209 207.831 71.49 207.55C66.0592 207.269 60.5879 207.444 55.1409 207.477C50.3364 207.505 45.6062 207.522 40.8437 208.217C39.7136 208.38 38.6029 208.568 37.4857 208.768C36.9804 208.86 35.4354 208.877 35.1367 209.307C34.5361 210.166 37.8166 210.152 38.1589 210.164C39.8809 210.23 41.6078 210.279 43.3395 210.31C48.2409 210.394 53.1358 210.274 58.0307 210.35C62.9692 210.426 67.9028 210.582 72.8381 210.721C76.7773 210.867 80.7196 210.877 84.6604 210.919C85.7711 210.931 87.5664 210.985 88.5463 210.391C89.3987 209.871 88.2041 209.54 87.6713 209.453Z" fill="#DDD2DF"/>
<path d="M75.5283 203.643C75.2656 201.826 74.7281 200.06 73.9341 198.405C73.5323 197.573 73.0571 196.779 72.5142 196.032C72.0416 195.384 71.1102 193.892 70.1229 194.407C69.573 194.695 69.4397 195.579 69.2553 196.115C69.0162 196.84 68.8104 197.575 68.6381 198.319C68.2884 199.756 68.0828 201.224 68.0244 202.702C67.9913 203.947 68.1587 205.229 68.9661 206.232C69.8229 207.266 70.9081 208.087 72.1361 208.63C72.9161 208.985 73.8225 209.473 74.697 209.498C76.0293 209.535 75.731 207.727 75.7401 206.765C75.7516 205.72 75.6808 204.676 75.5283 203.643Z" fill="#002E74"/>
<path d="M63.6364 196.041C63.3232 198.964 63.3187 202.388 61.4114 204.86C60.5836 205.934 59.4756 206.682 58.2231 207.192C57.96 207.299 55.677 208.194 55.6531 207.681C55.5233 204.869 56.3443 202.101 57.6742 199.645C58.5169 198.089 60.5802 194.06 62.7049 194.201C63.8015 194.275 63.7343 195.133 63.6364 196.041Z" fill="#002E74"/>
<path d="M69.8584 146.372C65.9664 145.575 64.4235 150.001 63.8234 152.934C62.3299 160.177 61.2396 167.498 60.5577 174.863C60.1637 179.234 60.3015 183.631 60.1148 188.01C59.9406 192.117 59.6991 196.968 57.8055 200.69C56.9162 202.436 58.5844 204.179 60.1967 202.941C62.5584 201.132 63.1106 197.845 63.8405 195.152C65.8241 187.823 67.4205 180.339 68.8951 172.892C69.8903 167.848 70.6339 162.787 71.3444 157.699C71.686 155.236 72.0356 152.756 72.2018 150.275C72.3305 148.509 71.7589 146.76 69.8584 146.372Z" fill="#F99863"/>
<path d="M81.4868 144.553C80.0828 143.187 77.6357 146.107 77.0288 147.08C76.0792 148.6 75.5793 150.367 75.0623 152.067C73.9328 155.781 72.9907 159.546 72.2361 163.362C70.8551 170.256 70.0598 177.255 69.8586 184.284C69.7584 187.798 69.8088 191.311 70.01 194.825C70.1683 197.541 70.0339 201.306 71.4288 203.742C72.0699 204.86 73.6424 205.511 74.6171 204.345C75.8423 202.881 75.1603 200.09 75.1614 198.332C75.1614 195.95 75.2449 193.569 75.4119 191.191C75.9346 183.702 77.6175 176.439 78.8063 169.047C79.403 165.34 80.2103 161.444 80.8297 157.523C81.4492 153.601 81.6838 149.739 81.7897 145.775C81.8056 145.342 81.7965 144.855 81.4868 144.553Z" fill="#F99863"/>
<path d="M88.5943 136.885C87.8098 140.272 86.9011 143.653 85.8717 147.002C85.7442 147.42 85.6121 147.837 85.4812 148.255C84.7467 148.5 84.0066 148.723 83.2607 148.93C79.6683 149.919 75.9741 150.492 72.2509 150.638C70.1974 150.719 68.1408 150.674 66.0929 150.503C65.8185 150.48 65.5474 150.456 65.2753 150.427C64.8077 150.381 64.3404 150.325 63.8736 150.258C63.8326 150.073 63.795 149.889 63.7597 149.703C63.0889 146.423 62.5917 143.109 62.2703 139.776C61.5765 132.521 61.633 125.214 62.4388 117.97C62.8419 114.354 63.3885 110.732 64.2437 107.194C64.6661 105.437 65.1091 103.676 65.6773 101.956C66.0496 100.835 66.398 99.656 66.8945 98.5617C66.9924 98.3476 67.096 98.137 67.2054 97.9297C67.539 98.0322 67.8749 98.129 68.2108 98.2212C68.8348 98.392 69.4634 98.5423 70.109 98.6608C74.1852 99.4081 78.3761 99.2467 82.3828 98.1882C83.4188 97.9155 84.4401 97.5894 85.4425 97.2112C85.9541 97.0177 86.4589 96.8112 86.9569 96.5918C87.1243 96.9118 87.2791 97.2386 87.4249 97.5722C88.1081 99.1254 88.5909 100.796 89.019 102.382C89.6716 104.793 90.1601 107.246 90.4811 109.723C91.6699 118.78 90.6485 128.028 88.5943 136.885Z" fill="#4A154B"/>
<path d="M99.7839 79.744C99.3648 80.319 98.3252 80.2723 97.7024 80.2222C95.7962 80.0662 93.8491 78.6281 92.4144 77.4564C89.1487 74.7737 86.4519 71.4656 84.4823 67.7264C83.5218 65.8931 82.7155 63.983 82.0717 62.0159C81.7225 60.9463 81.4265 59.8619 81.1835 58.7627C81.0162 58.0032 80.7884 57.1902 80.8419 56.4091C80.9239 55.2248 81.68 55.3535 82.6638 55.6245C84.8159 56.2223 86.4887 57.8506 87.8813 59.4846C89.5073 61.3931 91.1083 63.3277 92.6239 65.3272C95.3134 68.8753 97.7479 72.6831 99.2908 76.8802C99.5618 77.6124 100.317 79.0175 99.7839 79.744Z" fill="#F5F5F5"/>
<path d="M78.4561 57.7752C77.96 56.3251 77.3653 54.9106 76.6764 53.5415C75.7347 51.6821 74.4127 50.0003 73.8547 47.962C73.4919 46.6407 73.0267 45.3497 72.4633 44.1008C72.1217 43.3299 71.3975 42.8414 70.6106 42.592C70.1973 42.4611 68.5417 42.0227 68.3424 42.6136C68.3106 42.7423 68.3106 42.8767 68.3424 43.0053C68.5268 44.0803 68.7569 45.1415 68.7261 46.2392C68.6815 47.4211 68.4592 48.5896 68.0668 49.7053C67.6523 50.8807 67.051 51.9815 66.2859 52.9654C65.638 53.8274 65.1473 54.6518 65.4365 55.6788C65.4365 55.7039 65.4365 55.7278 65.4365 55.7529C65.4365 57.1819 66.1197 58.6542 66.9236 60.0491C70.901 60.689 75.2189 60.089 78.4561 57.7752Z" fill="url(#paint0_linear)"/>
<path d="M80.7611 70.5502C80.5823 66.1823 79.8399 61.7915 78.4564 57.7754C75.2191 60.0892 70.9012 60.6893 66.9238 60.0527C67.582 61.1914 68.3278 62.2754 68.8721 63.241C71.5002 67.9267 73.9358 72.7422 75.7406 77.8161C76.2037 79.1165 76.6235 80.4317 77 81.7617C77.2562 82.6726 77.2516 84.1199 78.297 84.4136C79.9014 84.8691 79.7977 82.7637 79.9902 81.7241C80.6592 78.0394 80.9177 74.2919 80.7611 70.5502Z" fill="#F5F5F5"/>
<path d="M73.8519 66.1983C72.5743 63.4848 71.3468 60.7463 69.936 58.0966C69.2152 56.7415 68.4557 55.4081 67.612 54.1226C67.3171 53.6671 66.9652 52.8165 66.4232 52.7175C65.814 52.6036 64.9429 53.453 64.5318 53.8037C62.0154 55.9559 59.5091 58.1148 57.0359 60.317C56.4142 60.8715 55.3632 61.5137 55.2459 62.4167C55.1833 62.9052 55.5773 63.4415 55.7891 63.8492L56.6875 65.564L58.4832 68.9949C59.0525 70.0903 59.615 71.1959 60.2049 72.2834C60.5465 72.9074 60.9154 73.5018 61.2969 74.0893C61.9619 75.7256 62.5824 77.3744 63.0049 79.0995C63.5953 81.4966 63.889 83.9571 63.8794 86.4258C63.86 93.8841 61.0452 101.249 56.1364 106.859C59.3725 109.991 64.525 110.689 68.7996 109.979C73.4614 109.205 77.6619 106.291 79.83 102.061C82.6767 96.5145 80.9937 90.3724 79.9051 84.6323C78.6845 78.1749 76.6451 72.1353 73.8519 66.1983Z" fill="#FDBB00"/>
<path d="M86.1985 81.2028C85.5723 77.0261 85.3457 72.8085 85.3798 68.5885C85.4037 65.5061 85.7214 62.385 85.1817 59.3277C84.9266 57.8793 84.7023 56.3603 83.4065 55.66C81.1895 54.4609 78.6047 53.9406 76.5425 52.4648C76.171 52.1945 75.8148 51.9037 75.4756 51.5938C75.8434 52.4273 76.5323 53.9713 76.6143 54.1626C77.0159 55.192 77.3644 56.2414 77.6584 57.3065C78.284 59.5191 78.7033 61.7849 78.911 64.0748C79.3323 68.7126 79.3665 73.3733 79.1524 78.0248C78.936 82.8437 78.5307 87.6967 78.796 92.5213C79.0123 96.4588 79.8663 100.638 83.1025 103.232C86.0847 105.623 90.316 106.264 93.9518 105.228C93.9757 105.225 93.9983 105.216 94.0173 105.202C94.0362 105.187 94.0506 105.167 94.0588 105.145C90.0131 97.7467 87.4465 89.5243 86.1985 81.2028Z" fill="#FDBB00"/>
<path d="M70.7044 89.0198C71.5425 88.2227 71.4946 86.9019 71.366 85.8474C71.243 84.842 70.9595 83.9538 70.6019 83.0247C70.3047 82.3415 70.0872 81.6161 69.8253 80.9967C69.1763 79.464 68.5728 77.9131 67.9465 76.3702C66.8078 73.552 65.6361 70.6768 63.9156 68.1558C62.0356 65.4013 59.6672 62.5763 56.3422 61.6107C55.1523 61.2691 54.7879 62.6867 54.7481 63.576C54.6046 67.098 55.5247 70.3842 56.9731 73.5611C58.4864 76.8815 60.0862 80.2019 62.2349 83.1659C64.1262 85.7746 66.6188 88.5359 69.7991 89.5094C70.1372 89.4247 70.4485 89.2563 70.7044 89.0198Z" fill="#F5F5F5"/>
<path d="M76.6059 82.8056C74.6622 81.2547 73.1978 79.0969 71.0059 77.8626C70.073 77.3412 69.0427 77.0175 67.9792 76.9118C67.4186 76.8564 66.8533 76.8671 66.2951 76.9437C66.1186 76.9676 64.9162 77.266 65.1223 77.3423C68.9471 78.7747 71.9191 84.3303 76.6059 82.8056Z" fill="#F99863"/>
<path d="M90.1267 74.3507C89.4025 74.9007 88.6157 75.3642 87.9188 75.9449C87.5726 76.2279 87.2611 76.5508 86.9908 76.9071C86.6993 77.3033 86.6492 77.7292 86.1687 77.9797C86.0487 78.0468 85.9145 78.0845 85.7771 78.0896C85.6397 78.0948 85.5031 78.0672 85.3784 78.0093C84.9958 77.8066 85.0641 77.4263 85.0903 77.0699C85.1158 76.7878 85.1661 76.5085 85.2406 76.2353C85.375 75.7103 85.5697 75.2025 85.712 74.6787C85.9307 73.8714 86.1493 73.0606 86.6651 72.3854C87.6273 71.1328 89.1509 70.6569 90.6152 70.2549C90.8429 70.1934 91.9315 70.0169 92.0363 70.3346C92.5897 72.0506 91.3929 73.3874 90.1267 74.3507Z" fill="#F99863"/>
<path d="M99.8052 80.0478C98.9785 81.7023 96.897 81.7786 95.3905 81.9517C89.9647 82.4425 84.5503 83.2794 79.1427 83.9592C78.0154 84.0993 76.7515 84.4477 75.6128 84.2849C73.685 84.0059 74.4958 80.9087 75.4728 79.9829C76.8916 78.6382 79.0938 78.2897 80.8519 77.7739C84.7507 76.6352 88.7361 75.7072 92.7978 75.8245C94.532 75.8757 96.4768 75.9896 98.0949 76.7354C99.2962 77.2843 100.575 78.5163 99.8052 80.0478Z" fill="#F5F5F5"/>
<path d="M85.7894 78.5705C85.1905 79.897 84.2693 81.1393 83.3401 82.2495C81.352 84.6259 78.8515 86.4524 76.0845 87.8291C75.09 88.3333 74.0579 88.7597 72.9975 89.1044C71.9522 89.4346 70.7202 89.8183 69.6316 89.5405C69.3974 89.4958 69.1828 89.3801 69.0167 89.2091C68.5999 88.7184 69.2786 87.9953 69.5621 87.615C70.0001 87.0305 70.4583 86.4611 70.9365 85.907C72.4545 84.17 74.1399 82.5868 75.9683 81.1803L76.2575 80.9526C77.5887 79.946 79.0439 79.0829 80.5025 78.2767C81.1926 77.8952 81.8963 77.5456 82.6102 77.212C83.1511 76.9592 83.7262 76.6096 84.3251 76.5288C85.7018 76.3364 86.369 77.2826 85.7894 78.5705Z" fill="#F5F5F5"/>
<path d="M71.2133 34.5873C71.0061 35.1077 70.7692 35.6121 70.5517 36.112C70.0063 37.3645 69.2502 38.5192 68.4736 39.6419C68.2038 40.0325 68.0182 40.439 67.5627 40.5733C66.8795 40.7726 66.0824 40.7578 65.3867 40.6644C64.0613 40.4857 63.2232 39.5667 62.6732 38.4019C61.612 36.1701 61.3717 33.1924 62.8839 31.1041C63.6206 30.0884 64.6841 29.5099 65.9014 29.2674C67.2678 29.0021 68.9564 28.96 70.2614 29.5088C72.1425 30.2956 72.6776 33.1856 71.2133 34.5873Z" fill="#00112B"/>
<path d="M78.285 45.3332C77.7623 47.7119 75.5908 48.6103 73.3271 48.2471C72.1122 48.0535 71.0646 47.3942 70.2527 46.4764C69.6456 45.7991 69.1488 45.0306 68.7804 44.1991C68.6548 44.1947 68.5296 44.1818 68.4058 44.1604C67.7226 44.0374 67.184 43.4305 66.7547 42.9249C65.9986 42.031 64.7654 40.0008 66.6841 39.7263C67.5632 39.6011 68.1279 39.9085 68.4775 40.4745C68.5914 40.5758 68.6927 40.6817 68.7918 40.791C68.869 40.1204 69.0016 39.4573 69.188 38.8086C69.5752 37.4615 70.2482 36.0951 71.5793 35.4654C73.8908 34.3677 76.0725 35.7102 77.2396 37.7428C78.5002 39.9336 78.8201 42.8725 78.285 45.3332Z" fill="#F99863"/>
<path d="M72.591 35.9995C72.4555 36.9389 71.5092 37.4468 70.9297 38.0992C70.5344 38.5635 70.2056 39.0805 69.9527 39.6353C69.816 39.9188 69.6919 40.2046 69.5689 40.4984C69.4801 40.7091 69.4038 41.0962 69.1476 41.1645C69.0359 41.1897 68.9189 41.1731 68.8185 41.1179C68.4519 40.9334 68.2105 40.5667 67.8381 40.3891C67.5466 40.2613 67.2408 40.1692 66.9272 40.1147C66.5856 40.0452 66.2315 39.9655 65.9513 39.7469C65.2465 39.2026 65.1714 38.1801 65.4116 37.3853C65.9126 35.7342 67.6981 34.3746 69.3685 34.1138C70.6381 33.9146 72.8415 34.2175 72.591 35.9995Z" fill="#00112B"/>
<path d="M77.2166 36.6092C76.8932 38.1441 73.2619 36.0535 72.5252 35.6982C71.7509 35.3224 70.9834 34.9228 70.2387 34.4889C70.0509 34.3751 69.855 34.2612 69.7571 34.0619C69.4303 33.4095 70.5758 33.135 70.9925 33.0952C72.3608 32.9705 73.7333 33.2826 74.913 33.9868C75.6463 34.424 76.4798 35.0924 76.9911 35.7779C77.0848 35.893 77.1532 36.0264 77.1921 36.1696C77.2309 36.3128 77.2392 36.4625 77.2166 36.6092Z" fill="#00112B"/>
<path d="M122.735 216.64C122.925 217.289 125.131 216.965 125.594 216.891C129.662 216.219 133.937 215.811 138.065 215.959C138.136 215.959 139.441 216.005 139.414 215.743C139.246 214.471 139.154 213.19 139.138 211.906C139.138 211.264 139.163 210.626 139.138 209.984C139.113 209.343 139.218 208.624 138.902 208.068C138.837 207.953 138.484 207.905 138.18 207.919C138.09 207.84 137.995 207.766 137.895 207.7C137.544 207.45 136.547 207.475 136.189 207.7C135.426 208.179 135.496 208.738 135.197 209.523C134.928 210.23 134.548 210.89 134.071 211.478C133.174 212.6 131.961 213.428 130.589 213.855C129.422 214.208 122.132 214.581 122.735 216.64Z" fill="#001433"/>
<path d="M126.566 161.733C126.892 159.248 127.774 156.998 130.106 154.941C132.198 153.1 134.464 151.466 136.872 150.062C141.796 147.184 146.795 146.075 152.207 144.625C157.975 143.081 163.682 141.791 169.671 141.228C176.277 140.602 183.244 139.126 189.855 140.513C191.764 140.914 193.716 142.341 193.721 144.293C193.721 145.329 193.178 146.281 192.595 147.133C185.728 157.107 172.275 157.893 161.383 159.956C156.466 160.885 150.144 161.051 145.939 163.996C140.374 167.892 141.571 175.704 141.79 181.587C141.9 184.532 142.177 187.467 142.327 190.406C142.476 193.389 142.494 196.388 142.592 199.374C142.698 202.687 143.351 206.021 142.356 209.267C142.217 209.718 140.9 209.68 140.585 209.687C139.893 209.706 138.959 209.756 138.348 209.381C136.722 208.392 134.789 207.747 132.867 207.952C132.642 207.976 130.145 208.112 130.222 207.634C130.489 206.031 131.105 203.963 130.716 202.353C130.258 200.46 129.011 198.643 128.474 196.715C127.348 192.679 127.053 188.464 126.848 184.299C126.573 178.814 126.427 173.325 126.41 167.832C126.396 165.649 126.32 163.623 126.566 161.733ZM168.843 144.217H168.864L168.806 144.228L168.751 144.238L168.843 144.217Z" fill="url(#paint1_linear)"/>
<path d="M98.5097 215.448C98.8626 215.834 99.4844 215.823 99.9623 215.84C101.765 215.898 103.552 215.979 105.342 216.216C107.022 216.442 108.688 216.763 110.332 217.178C111.708 217.523 112.998 217.836 114.393 217.409C115.759 216.989 115.576 215.696 115.81 214.494C115.969 213.68 116.186 212.879 116.367 212.074C116.492 211.516 116.735 210.938 116.851 210.362C117.03 210.284 117.189 210.169 117.318 210.024C117.448 209.879 117.545 209.708 117.602 209.522C117.675 209.272 116.132 209.437 116.044 209.452C115.504 209.535 114.977 209.684 114.473 209.895C114.199 209.956 113.929 210.033 113.663 210.125C112.968 210.375 112.721 210.876 112.28 211.419C111.31 212.606 109.91 213.104 108.42 213.162C105.311 213.287 101.714 212.715 98.8551 214.298C98.4021 214.558 98.0906 214.98 98.5097 215.448Z" fill="#001433"/>
<path d="M111.079 208.051C115.262 196.115 117.255 183.574 120.107 171.276C121.322 166.042 121.876 159.981 124.862 155.387C129.552 148.156 138.857 144.34 146.882 142.297C157.391 139.62 168.431 139.449 179.094 138.389C182.078 138.091 185.065 137.809 188.046 137.506C190.087 137.3 193.833 136.012 195.688 137.337C197.586 138.691 196.738 142.932 196.353 144.98C195.272 150.727 191.903 156.1 186.957 159.283C183.008 161.824 178.456 162.625 173.82 162.61C168.965 162.592 164.136 162.139 159.307 161.634C154.928 161.177 150.405 160.243 146.002 160.883C140.723 161.654 137.529 164.746 135.242 169.364C131.038 177.84 128.384 186.909 125.587 195.917C124.815 198.4 124.032 200.881 123.21 203.347C122.531 205.371 121.856 207.452 120.559 209.181C119.292 210.864 117.57 211.603 115.493 211.699C114.202 211.763 112.91 211.6 111.676 211.218C111.117 211.182 110.563 211.095 110.021 210.959C110.385 209.992 110.738 209.023 111.079 208.051Z" fill="url(#paint2_linear)"/>
<path d="M144.714 117.847C144.676 117.676 144.712 117.57 144.894 117.619C145.093 117.67 145.278 117.892 145.441 118.008C145.687 118.181 145.944 118.34 146.209 118.484C147.407 119.131 149.101 119.234 149.736 120.623C149.746 120.646 149.73 120.686 149.703 120.731C149.711 120.807 149.702 120.885 149.678 120.959C149.646 121.067 149.591 121.168 149.519 121.255C149.446 121.341 149.357 121.413 149.256 121.464C149.207 121.483 149.353 121.228 149.367 121.21C149.684 120.801 146.977 120.048 146.801 119.993C146.211 119.804 145.687 119.45 145.291 118.973C145.217 118.875 144.795 118.211 144.714 117.847Z" fill="#EB996E"/>
<path d="M141.182 121.373C143.654 122.092 144.959 122.51 148.412 122.977C149.029 122.912 149.719 122.635 150.075 122.092C150.734 121.09 149.926 119.981 148.933 119.675C148.87 119.689 148.811 119.719 148.762 119.762C148.362 119.575 147.972 119.436 147.734 119.348C146.427 118.871 145.052 118.53 143.654 118.494C142.766 118.474 142.012 118.611 141.325 119.202C140.986 119.481 140.72 119.837 140.548 120.241C140.343 120.797 140.738 121.069 141.182 121.373Z" fill="#F99863"/>
<path d="M149.449 122.725C149.29 121.891 149.179 120.566 149.021 119.732C149.039 119.686 149.196 119.549 149.235 119.518C149.274 119.488 149.613 119.311 149.663 119.305C151.935 118.621 153.438 118.508 155.751 117.98C158.063 117.452 160.365 117.193 162.706 116.931C164.797 116.699 166.789 116.238 168.643 115.21C170.249 114.299 171.711 113.155 172.981 111.816C178.853 105.74 180.703 97.2499 184.535 89.957C185.018 89.0412 185.536 88.1429 186.085 87.2683C186.562 86.5177 187.061 85.5781 187.803 85.0513C188.6 84.4883 189.665 84.4258 190.608 84.4258C191.592 84.4258 192.643 84.5371 193.492 85.0826C195.299 86.2462 195.064 88.5295 194.596 90.3374C194.07 92.3295 193.428 94.2892 192.674 96.2064C189.703 103.8 186.588 110.704 180.878 116.525C179.313 118.117 177.05 120.318 175.105 121.443C174.046 122.046 172.981 122.549 170.188 122.939C162.439 124.022 156.596 124.399 149.449 122.725Z" fill="url(#paint3_linear)"/>
<path d="M187.629 76.9331C189.245 77.331 190.94 76.843 192.287 75.921C193.318 75.2166 195.246 73.4612 194.982 72.0425C194.732 70.68 194.288 69.36 193.856 68.0388C193.317 66.3736 192.748 64.7133 192.355 63.0055C192.27 62.6302 192.261 62.1297 191.908 61.9196C191.555 61.7094 190.895 61.7306 190.499 61.7556C189.23 61.8407 188.373 62.4813 188.18 63.77C187.699 67.0417 187.218 70.3434 186.9 73.6339C186.791 74.7762 186.141 76.569 187.629 76.9331Z" fill="url(#paint4_linear)"/>
<path d="M180.954 60.8535C180.977 60.766 181.001 60.6784 181.026 60.5908C181.402 59.2746 181.787 57.8871 182.778 56.9012C184.254 55.4399 186.201 55.0545 188.185 55.4074C190.326 55.7827 191.762 56.9275 192.196 59.1332C193.056 63.4947 190.496 68.1601 186.396 69.8266C184.999 70.3947 182.987 70.7162 181.587 70.0005C179.844 69.1085 180.152 66.4336 180.271 64.8384C180.374 63.4918 180.603 62.1577 180.954 60.8535Z" fill="#F99863"/>
<path d="M180.946 108.837C180.806 101.438 179.4 93.79 180.614 86.4784C182.562 81.4025 185.388 76.672 189.254 72.9149C190.475 71.5987 192.093 71.0782 193.82 70.9844C193.979 71.0071 194.136 71.0393 194.291 71.0807C194.691 71.0644 195.058 71.097 195.167 71.2346C197.153 73.8244 198.978 76.6245 200.232 79.6497C201.475 82.6521 202.479 85.7478 203.235 88.9081C204.798 95.4227 205.33 102.087 205.136 108.777C204.924 116.045 203.917 123.267 202.57 130.406C201.953 133.676 201.466 137.105 200.426 140.276C200.032 141.472 199.458 142.669 198.538 143.554C197.44 144.61 195.927 145.046 194.451 145.233C187.411 146.12 179.889 142.752 174.96 137.859C174.936 137.819 174.912 137.78 174.887 137.741C178.946 128.586 181.139 118.884 180.946 108.837Z" fill="#4A154B"/>
<path d="M169.604 117.456C170.665 117.979 172.106 117.949 173.243 117.804C174.094 117.711 174.899 117.373 175.56 116.829C177.062 115.587 178.412 114.077 179.716 112.634C185.039 106.734 189.364 99.9576 193.597 93.2578C195.849 89.6846 198.161 84.4899 195.944 80.3825C194.054 76.8793 189.813 75.7883 186.125 76.6291C181.08 77.7851 178.689 85.0367 176.754 89.1404C173.161 96.761 170.498 104.711 168.496 112.884C168.108 114.482 167.834 116.581 169.604 117.456Z" fill="url(#paint5_linear)"/>
<path d="M138.515 91.7206C139.459 93.9827 141.531 95.9069 143.702 97.0067C144.255 97.2882 144.984 97.4321 145.579 97.1706C146.677 96.6901 146.605 95.3201 145.939 94.5219C145.878 94.4989 145.813 94.492 145.749 94.5019C145.515 94.1266 145.263 93.7975 145.112 93.5948C144.276 92.4813 143.309 91.4466 142.157 90.6547C141.424 90.1542 140.717 89.8577 139.818 89.9778C139.383 90.0274 138.965 90.181 138.601 90.4257C138.126 90.7798 138.308 91.2239 138.515 91.7206Z" fill="#F99863"/>
<path d="M145.159 89.4397C145.311 89.2695 145.449 89.2283 145.535 89.4585C145.63 89.7087 145.535 90.0728 145.535 90.3343C145.537 90.7274 145.562 91.12 145.61 91.5103C145.826 93.2744 146.986 95.1524 146.002 96.8789C145.986 96.9064 145.932 96.9202 145.865 96.9252C145.79 96.9915 145.701 97.0414 145.606 97.0716C145.468 97.1189 145.322 97.1374 145.176 97.126C145.031 97.1146 144.889 97.0735 144.76 97.0053C144.703 96.9677 145.08 96.9302 145.109 96.9315C145.776 96.9577 144.541 93.5121 144.467 93.2832C144.224 92.5121 144.204 91.6881 144.409 90.906C144.456 90.7521 144.838 89.8013 145.159 89.4397Z" fill="#F99863"/>
<path d="M144.141 97.9845C146.134 100.275 148.242 102.462 150.457 104.539C152.446 106.403 154.518 108.175 156.672 109.853C158.739 111.46 160.781 113.092 162.988 114.503C165.921 116.38 169.25 118.175 172.856 117.744C173.772 117.633 174.689 117.286 175.314 116.609C176.525 115.296 175.886 113.606 174.79 112.456C168.392 105.779 160.56 100.547 152.223 96.6045C150.901 95.9789 149.513 95.1807 148.038 95.0193C145.935 94.7878 145.248 96.3305 144.141 97.7905C144.051 97.8543 144.051 97.9194 144.141 97.9845Z" fill="url(#paint6_linear)"/>
<path d="M179.701 55.9402C179.826 54.2925 181.166 53.5631 182.668 53.3942C184.67 53.1715 186.26 53.6744 187.995 54.6078C188.92 55.1082 189.839 54.9831 190.85 55.1458C191.571 55.2528 192.268 55.4861 192.908 55.8351C193.218 56.0078 193.635 56.2105 193.866 56.4957C194.098 56.781 194.198 57.2251 194.428 57.5392C194.627 57.8119 194.877 57.9983 194.983 58.3286C195.125 58.7678 195.086 59.3058 194.991 59.7474C194.786 60.6933 193.945 61.4615 193.796 62.3548C193.728 62.7639 193.806 63.2131 193.78 63.6297C193.731 64.173 193.723 64.7192 193.757 65.2637C193.817 65.9293 194.279 67.0152 193.713 67.5732C193.232 68.0474 192.103 68.0262 191.491 67.9861C190.912 67.9486 190.345 67.8097 190.063 67.2492C189.687 66.4985 189.687 65.3725 189.996 64.6093C190.403 63.6084 191.204 62.829 191.204 61.6867C191.204 61.1737 190.898 60.6057 190.385 60.4168C189.664 60.1503 189.252 61.0098 189.134 61.5828C189.133 61.5912 189.128 61.5988 189.122 61.6041C189.134 61.7367 189.141 61.8706 189.148 62.0007C189.158 62.1634 188.197 62.1471 188.103 62.0007C187.676 61.3314 187.305 60.5344 186.666 60.079C186.364 59.865 186.053 59.6673 185.745 59.4634C185.465 59.5077 185.182 59.5361 184.898 59.5485C183.918 59.6073 182.885 59.5085 181.978 59.1168C180.623 58.5301 179.583 57.5242 179.701 55.9402Z" fill="#424242"/>
<path d="M186.166 74.1668C186.959 73.032 188.124 72.2113 189.32 71.5144C190.201 70.9794 191.142 70.5506 192.124 70.237C193.109 69.9238 194.154 69.8441 195.175 70.0043C195.403 70.6716 195.631 71.3342 195.859 71.9923C193.425 71.9823 190.877 72.3139 188.876 73.7001C188.173 74.1981 187.544 74.7919 187.006 75.4642C186.584 75.9873 186.196 76.5364 185.843 77.1082C185.752 76.5633 185.62 76.0262 185.446 75.5018C185.636 75.0316 185.877 74.5839 186.166 74.1668Z" fill="#F5F5F5"/>
<path d="M210.611 165.496L222.589 218.755H220.296L206.556 165.496H210.611Z" fill="#8283A8"/>
<path d="M184.209 166.249L186.126 221.702H183.9L180.224 165.496L184.209 166.249Z" fill="#8283A8"/>
<path d="M148.832 163.262L135.18 217.043L137.355 217.514L152.886 163.373L148.832 163.262Z" fill="#8283A8"/>
<path d="M173.644 164.998L159.991 218.778L162.166 219.251L177.697 165.109L173.644 164.998Z" fill="#8283A8"/>
<path d="M183.506 163.261L144.448 160.002L144.033 163.393L181.918 167.728L183.506 163.261Z" fill="#999BC7"/>
<path d="M242.454 102.227H218.437L183.506 163.262L218.182 163.393L242.454 102.227Z" fill="#8283A8"/>
<path d="M218.182 163.393L216.344 167.728H181.918L183.505 163.262L218.182 163.393Z" fill="#8283A8"/>
<defs>
<linearGradient id="paint0_linear" x1="26038.5" y1="16702.4" x2="25250.2" y2="18530.6" gradientUnits="userSpaceOnUse">
<stop stop-color="#E88E5C"/>
<stop offset="0.13" stop-color="#F0935F"/>
<stop offset="0.36" stop-color="#F79762"/>
<stop offset="1" stop-color="#F99863"/>
</linearGradient>
<linearGradient id="paint1_linear" x1="160.054" y1="139.937" x2="193.706" y2="169.974" gradientUnits="userSpaceOnUse">
<stop stop-color="#424242"/>
<stop offset="1" stop-color="#4A154B"/>
</linearGradient>
<linearGradient id="paint2_linear" x1="153.449" y1="136.746" x2="153.449" y2="211.713" gradientUnits="userSpaceOnUse">
<stop stop-color="#424242"/>
<stop offset="1" stop-color="#4A154B"/>
</linearGradient>
<linearGradient id="paint3_linear" x1="171.799" y1="84.4258" x2="182.589" y2="154.796" gradientUnits="userSpaceOnUse">
<stop stop-color="#F5F5F5"/>
<stop offset="1" stop-color="#E0E0E0"/>
</linearGradient>
<linearGradient id="paint4_linear" x1="-13252.3" y1="18273.9" x2="-12763" y2="18368.9" gradientUnits="userSpaceOnUse">
<stop stop-color="#E88E5C"/>
<stop offset="0.13" stop-color="#F0935F"/>
<stop offset="0.36" stop-color="#F79762"/>
<stop offset="1" stop-color="#F99863"/>
</linearGradient>
<linearGradient id="paint5_linear" x1="182.525" y1="76.3594" x2="182.525" y2="117.895" gradientUnits="userSpaceOnUse">
<stop stop-color="#F5F5F5"/>
<stop offset="1" stop-color="#E0E0E0"/>
</linearGradient>
<linearGradient id="paint6_linear" x1="160.022" y1="94.9961" x2="160.022" y2="117.808" gradientUnits="userSpaceOnUse">
<stop stop-color="#F5F5F5"/>
<stop offset="1" stop-color="#E0E0E0"/>
</linearGradient>
</defs>
</svg>
