<svg width="312" height="271" viewBox="0 0 312 271" fill="none" xmlns="http://www.w3.org/2000/svg">
<path d="M198.567 255.126C202.635 255.239 206.701 255.365 210.764 255.504C223.141 255.927 235.494 256.472 247.823 257.139C259.047 257.747 286.53 258.43 289.831 261.293C292.044 263.214 271.906 263.193 267.454 263.795C260.353 264.755 253.191 265.61 245.967 266.361C230.025 268.018 213.861 269.084 197.605 269.837C168.653 271.177 139.403 271.452 110.413 270.172C92.5676 269.383 74.4961 267.914 57.23 265.57C48.3262 264.366 39.611 262.914 31.1391 261.221C27.6856 260.529 9.77064 257.541 18.2597 255.194C19.745 254.783 21.8064 254.76 23.5068 254.752C54.2988 254.6 24.0589 246.51 54.723 246.016C82.3124 245.573 171.011 254.363 198.567 255.126Z" fill="#DDD2DF"/>
<path d="M294.483 125.348L292.839 150.873C271.854 150.617 250.812 150.945 229.8 151.077C230.331 142.916 230.869 134.785 231.412 126.686C252.014 127.57 273.881 124.463 294.483 125.348Z" fill="#00BCF8"/>
<path d="M290.297 190.365C289.703 199.603 289.108 208.84 288.513 218.078C267.331 216.879 246.77 216.884 225.589 215.684C226.181 206.921 226.762 198.111 227.334 189.254C248.321 189.537 269.309 189.908 290.297 190.365Z" fill="#00BCF8"/>
<path d="M229.8 151.075C250.812 150.94 271.854 150.615 292.839 150.871C291.993 164.032 291.145 177.194 290.297 190.355C269.308 189.934 248.321 189.564 227.334 189.244C228.158 176.537 228.974 163.781 229.8 151.075Z" fill="#00A8DE"/>
<path d="M266.149 88.6204C267.131 85.4274 267.987 82.2114 268.861 78.9886C269.708 75.8644 270.762 72.8226 271.763 69.7457C272.708 66.8173 273.653 63.8848 275.003 61.1116C276.353 58.3385 277.667 55.5613 278.945 52.749C280.181 50.0352 281.544 47.3872 283.032 44.8048C284.405 42.4273 286.039 40.2549 287.559 37.9773C290.351 33.7919 292.991 28.5574 298.057 26.7969C298.066 26.7969 298.088 26.836 298.082 26.8374C293.783 28.6519 291.205 33.1654 288.847 36.9444C287.488 39.1262 285.961 41.1946 284.624 43.3899C283.065 45.9872 281.697 48.6946 280.531 51.4907C279.356 54.253 278.355 57.0761 277.051 59.7818C275.614 62.7322 274.371 65.7727 273.328 68.8843C272.316 71.9342 271.231 74.968 270.338 78.0543C269.433 81.1839 268.668 84.3513 267.695 87.462C266.638 90.8441 265.643 94.1667 265.109 97.6811C264.576 101.195 264.434 104.702 264.299 108.227C264.299 108.238 263.912 107.857 263.894 107.687C263.499 101.248 264.262 94.7897 266.149 88.6204Z" fill="#014880"/>
<path d="M269.131 70.3064C269.173 65.6606 269.096 61.058 269.537 56.4244C269.971 51.8529 270.787 47.3097 271.656 42.803C272.272 39.6019 272.989 36.4088 273.973 33.2981C273.973 33.2981 274.984 29.243 277.195 26.2942L280.722 20.962C281.092 20.422 281.447 19.863 281.785 19.2757C282.822 17.4693 283.991 16.2852 285.932 15.4954C286.768 15.1538 287.612 14.8298 288.319 14.2546C289.027 13.6795 289.485 12.9126 289.988 12.1808C290.991 10.7308 292.104 9.98821 293.692 9.2605C295.819 8.28706 297.932 7.29067 299.986 6.17276C302.006 5.07781 304.054 4.3285 306.248 3.64263C308.498 2.93382 310.63 2.01034 312.768 1.01394C313.495 0.676414 314.223 0.32943 314.956 0C311.874 5.43425 307.451 10.4486 304.051 15.9166C301.748 19.5619 300.213 23.0196 297.909 26.8526C296.183 29.9242 293.111 31.8481 290.999 34.7225C285.049 42.9758 278.331 49.5023 274.685 58.5238C272.204 64.8789 270.976 71.2353 269.483 77.7928C269.225 75.3059 269.107 72.8065 269.131 70.3064Z" fill="#0183CC"/>
<path d="M290.991 34.7303C293.103 31.8505 296.174 29.932 297.901 26.8604C300.204 23.022 301.739 19.5698 304.043 15.9244C307.442 10.4564 311.865 5.44206 314.948 0.0078125C315.106 1.88584 315.736 3.72471 316.213 5.52712C316.873 8.03025 316.909 10.5442 316.965 13.1175C317.086 17.957 316.933 22.7996 316.508 27.6219C316.287 30.0157 315.988 32.4108 315.421 34.7492C314.833 37.1916 314.086 39.5921 313.504 42.0399C313.16 43.5329 312.708 44.9993 312.154 46.4278C306.889 43.849 300.721 43.5925 294.828 43.7559C298.668 46.2509 302.89 48.7513 303.85 53.5443C304.066 54.4924 304.133 55.4688 304.047 56.4376C303.836 56.6338 303.627 56.8314 303.42 57.0303C301.733 58.6653 300.106 60.3584 298.49 62.0636C296.93 63.708 295.519 65.5158 293.88 67.086C292.873 68.033 291.714 68.8038 290.451 69.3664C287.211 69.7714 281.127 73.4773 276.68 74.563C274.564 75.3907 272.514 76.3533 270.589 77.6035C270.227 77.8371 269.875 78.0909 269.531 78.3582C269.509 78.1733 269.492 77.9883 269.473 77.8047C270.966 71.2471 272.195 64.8907 274.675 58.5357C278.325 49.5101 285.044 42.9836 290.991 34.7303Z" fill="#014880"/>
<path d="M241.664 43.5164C237.613 36.5902 234.149 29.3684 228.667 23.8046C228.802 23.7465 228.942 23.7013 229.085 23.6695C231.558 23.116 234.08 25.6475 235.687 27.1799C237.895 29.2791 239.931 31.5524 241.774 33.9777C243.765 36.6449 245.592 39.4299 247.246 42.3175C248.849 45.0798 250.323 47.9002 252.492 50.2832C253.456 51.3403 254.539 52.3084 255.817 52.9713C258.872 54.5553 259.993 55.0467 263.569 59.0765C264.077 60.041 264.472 61.0602 264.748 62.1143C265.568 65.2048 265.581 68.4356 265.423 71.6084C265.245 75.2537 265.288 78.8991 265.153 82.5336C265.042 86.211 264.562 89.8679 263.721 93.4494C263.275 95.3004 262.8 97.1406 262.275 98.9714C262.023 99.8616 261.772 100.752 261.523 101.642C261.307 102.41 260.993 103.208 260.888 104.007C260.811 104.183 260.74 104.36 260.68 104.547C260.657 104.603 260.636 104.659 260.615 104.716L260.557 104.668C258.316 94.4647 256.969 84.4386 254.133 74.0413C251.26 63.0945 247.614 53.3048 241.664 43.5164Z" fill="#014880"/>
<path d="M228.668 23.8086C234.149 29.3671 237.61 36.5889 241.664 43.5204C247.614 53.3088 251.261 63.0972 254.141 74.0332C256.976 84.4292 258.326 94.4566 260.564 104.659C258.573 102.968 256.611 101.284 255.102 99.1131C253.14 96.2873 251.173 93.4426 248.662 91.0704C247.483 89.9539 246.169 88.9993 245.016 87.8477C243.315 85.4931 240.58 81.5855 238.293 78.6277C237.977 78.1155 237.696 77.5823 237.453 77.0318C235.968 73.5998 236.716 69.8897 236.791 66.2862C236.843 63.7669 236.328 61.4528 235.516 59.1697L231.496 48.3417C230.329 44.3371 229.418 40.2623 228.768 36.142C228.338 33.4971 227.893 30.8481 227.482 28.1992C227.265 26.7154 227.073 24.4945 228.668 23.8086Z" fill="#0183CC"/>
<path d="M251.741 141.563C254.15 143.217 257.593 143.386 260.409 143.426C263.49 143.469 266.576 143.175 269.488 142.15C269.646 142.095 270.145 142.878 270.029 142.975C268.988 143.82 267.404 144.035 266.113 144.236C264.387 144.482 262.641 144.567 260.899 144.487C259.116 144.447 257.342 144.231 255.602 143.841C254.32 143.535 253.012 143.12 252.029 142.208C251.927 142.116 251.582 141.454 251.741 141.563Z" fill="#015BA2"/>
<path d="M259.119 171.127C260.669 171.235 262.224 171.41 263.774 171.441C264.685 171.451 265.594 171.356 266.484 171.157C267.294 170.988 268.104 170.799 268.926 170.979C269.033 171.002 269.39 171.577 269.307 171.603C267.853 172.052 266.251 172.459 264.716 172.482C263.058 172.507 261.391 172.347 259.74 172.225C256.918 172.01 254.069 171.667 251.757 169.907C251.689 169.819 251.637 169.721 251.603 169.615C253.833 170.722 256.678 170.956 259.119 171.127Z" fill="#015BA2"/>
<path d="M251.333 204.337C252.683 204.781 253.918 205.417 255.334 205.708C256.529 205.954 257.739 206.02 258.955 206.07C260.221 206.138 261.49 206.132 262.755 206.05C263.835 205.966 264.842 205.567 265.907 205.445C266.017 205.432 266.253 205.814 266.208 205.908C265.729 206.915 264.136 206.988 263.162 207.083C261.967 207.186 260.765 207.205 259.567 207.142C256.775 207.036 253.721 206.737 251.554 204.79C251.501 204.743 251.272 204.316 251.333 204.337Z" fill="#015BA2"/>
<path d="M235.798 101.646C235.642 100.452 235.55 99.2507 235.521 98.0469C252.893 98.965 271.402 101.287 288.762 100.176C288.492 101.432 288.173 102.682 287.817 103.917C270.654 106.676 252.361 107.158 235.798 101.646Z" fill="#FDC833"/>
<path d="M287.812 103.916C286.492 108.416 284.54 112.73 281.728 116.472C278.145 121.237 273.087 125.02 267.3 126.443C259.386 128.388 250.664 125.633 244.761 120.008C239.73 115.217 236.699 108.558 235.798 101.646C252.361 107.156 270.654 106.674 287.812 103.916Z" fill="#FDBB00"/>
<path d="M16.2477 257.02L30.6874 192.191H33.8262L18.258 257.209L16.2477 257.02Z" fill="#53546B"/>
<path d="M43.3083 253.251L56.7421 192.457H59.8809L45.3185 253.44L43.3083 253.251Z" fill="#53546B"/>
<path d="M71.1871 197.076L91.4482 262.158H88.7857L66.1044 196.262L71.1871 197.076Z" fill="#53546B"/>
<path d="M95.2224 196.178L113.42 257.321H111.307L91.1874 195.531L95.2224 196.178Z" fill="#53546B"/>
<path d="M12.2336 152.213C9.31277 143.121 5.36878 134.556 2.72934 125.483C1.82451 125.469 0.916775 125.459 0.000402451 125.453C6.91682 148.262 15.1073 170.666 24.5332 192.558L27.5811 192.458C25.9215 188.194 24.4538 183.908 22.484 179.705C18.3885 170.884 15.3103 161.651 12.2336 152.213Z" fill="#999BC7"/>
<path d="M23.1848 125.981C16.193 125.94 9.61966 125.595 2.72883 125.484C5.36827 134.557 9.31226 143.129 12.2331 152.214C15.3098 161.651 18.388 170.884 22.4907 179.706C24.4605 183.909 25.9282 188.195 27.5878 192.459C37.1541 192.141 46.6945 191.863 56.2666 191.535C43.7303 170.571 32.2158 148.675 23.1848 125.981Z" fill="#8283A8"/>
<path d="M115.652 191.131C111.886 191.759 106.917 192.489 101.849 193.198C90.5019 194.785 78.6511 196.263 78.6511 196.263C78.6511 196.263 58.2817 194.032 40.3511 191.893C34.2641 191.172 28.457 190.45 23.8246 189.837C33.9451 189.739 44.4726 188.654 54.5931 188.553C73.7907 188.364 96.4648 190.538 115.652 191.131Z" fill="#53546B"/>
<path d="M79.3652 198.98C79.3652 198.98 42.8186 194.98 24.5388 192.557L23.8244 189.834C28.4568 190.447 34.2639 191.163 40.3509 191.89C58.2815 194.029 78.6509 196.26 78.6509 196.26L79.3652 198.98Z" fill="#999BC7"/>
<path d="M116.362 193.854C104.159 195.887 79.3611 198.983 79.3611 198.983L78.6395 196.263C78.6395 196.263 90.4903 194.783 101.837 193.197C106.906 192.489 111.874 191.754 115.641 191.131L116.362 193.854Z" fill="#8283A8"/>
<path d="M70.1208 265.256C70.4195 265.787 71.2031 265.834 71.7385 265.942C72.5164 266.086 73.3 266.23 74.0836 266.355C75.7157 266.613 77.3537 266.808 79.0003 266.949C82.3027 267.232 85.621 267.281 88.9302 267.093C90.5624 267.001 92.196 266.861 93.8152 266.632C94.1918 266.578 94.58 266.532 94.9697 266.479C95.5966 266.403 96.2141 266.263 96.8125 266.062L96.5455 265.823L96.2684 265.58C95.3535 264.763 94.2885 264.136 93.1946 263.594C90.7846 262.387 88.1582 261.679 85.5274 261.133C84.7929 260.989 84.0598 260.845 83.3223 260.7C82.6903 260.584 81.9254 260.539 81.4391 260.073C80.3784 259.062 81.1577 257.452 81.7999 256.465C82.5907 255.254 83.4248 254.068 84.2373 252.872L84.308 252.773C84.4855 252.515 84.6991 252.238 84.917 251.945C84.2229 251.714 83.5229 251.502 82.8216 251.3L82.5575 251.225C81.7349 250.991 80.8979 250.759 80.0508 250.535C79.501 250.391 78.9469 250.247 78.3898 250.115C78.3147 250.125 78.243 250.153 78.1805 250.196C78.0333 250.349 77.8991 250.514 77.7794 250.69C77.4417 251.164 77.1834 251.7 76.8717 252.199C76.4301 252.909 75.9582 253.596 75.4805 254.28C74.5858 255.553 73.6579 256.805 72.8093 258.11C72.0929 259.181 71.4687 260.311 70.9434 261.487C70.5682 262.353 69.597 264.333 70.1208 265.256Z" fill="#424242"/>
<path d="M117.95 250.212C117.408 251.744 116.397 253.702 117.209 255.313C117.889 256.661 121.671 256.812 122.967 257.177C127.109 258.343 129.649 259.18 133.935 259.469C136.065 259.613 138.264 259.736 140.401 259.574C140.702 259.553 142.865 259.069 142.471 258.671C140.316 256.495 137.564 255.45 134.909 253.946C133.58 253.194 132.137 252.601 130.753 251.959C129.45 251.36 128.084 250.906 126.682 250.606C126.744 250.158 127.005 246.522 126.982 246.214C126.854 244.568 126.972 242.996 126.397 241.404C125.542 239.038 123.865 238.097 121.518 237.822C120.315 237.678 118.116 237.496 117.059 238.283C116.107 238.993 117.915 242.26 118.123 243.202C118.635 245.484 118.733 247.993 117.95 250.212Z" fill="#424242"/>
<path d="M55.6953 104.617L57.8424 112.509C59.149 117.318 60.6094 122.004 61.7069 126.855C63.2704 133.777 64.9588 142.346 70.9472 146.813C73.2888 148.555 76.0369 149.748 78.8054 150.602C80.3921 151.093 81.9992 151.509 83.6223 151.879C84.1072 151.989 84.5775 152.075 85.0667 152.156H85.09C85.0952 152.157 85.1007 152.157 85.1059 152.156C85.1265 152.161 85.1473 152.164 85.1684 152.166C85.1716 152.165 85.1753 152.165 85.1785 152.166L85.2569 152.178L85.3077 152.187L86.5098 152.38C86.513 152.382 86.5167 152.382 86.5199 152.38C86.5403 152.38 86.5635 152.38 86.5882 152.391H86.6085H86.6172C87.4185 152.523 88.2199 152.65 89.0213 152.772C96.1348 153.861 103.219 154.796 110.424 154.815C110.604 154.815 113.605 154.815 113.531 154.156C113.164 150.9 109.228 150.413 106.689 150.094C103.492 149.691 100.324 149.085 97.2032 148.28C94.4286 147.591 91.7057 146.705 89.0547 145.629C86.8901 144.726 84.4744 143.15 83.1505 141.181C81.4548 138.657 80.2833 135.49 79.119 132.687C76.7469 126.983 75.0324 121.032 73.299 115.108C71.7398 109.771 70.1705 103.922 66.232 99.7936C63.8874 97.3356 58.5378 95.2004 55.8985 98.5389C54.4846 100.329 55.1378 102.564 55.6706 104.528C55.6793 104.561 55.6866 104.589 55.6953 104.617Z" fill="url(#paint0_linear)"/>
<path d="M63.6011 130.386C64.4771 130.805 66.6966 124.302 66.8914 123.403C67.4023 121.043 67.4686 118.287 67.2435 115.886C66.7991 111.461 66.0024 107.079 64.861 102.781C64.5723 101.686 64.4381 100.443 63.757 99.5469C62.9185 102.279 63.656 105.687 63.4294 108.522C63.1408 112.21 63.2274 115.943 63.0542 119.622C62.9373 122.113 62.5924 124.58 62.5938 127.07C62.5938 128.286 63.0181 129.129 63.5275 130.21C63.5232 130.089 63.5304 129.965 63.6011 130.386Z" fill="#E01E5A"/>
<path d="M65.5647 172.228C67.269 173.6 69.5823 174.039 71.6647 174.483C75.5611 175.316 79.5238 175.984 83.3409 177.166C87.0121 178.3 90.3544 179.925 93.33 182.373C99.2136 187.214 102.999 193.998 105.644 201.036C108.569 208.815 110.584 216.964 112.356 225.074C113.259 229.211 114.1 233.36 114.879 237.521C115.456 240.634 115.958 243.759 116.48 246.882C116.529 247.182 116.596 247.477 116.642 247.777H117.566C118.417 247.777 119.268 247.777 120.12 247.764C123.312 247.747 126.504 247.721 129.696 247.687C130.025 247.687 133.653 247.649 133.653 247.627C133.477 244.459 133.241 241.293 132.909 238.137C132.824 237.33 132.73 236.525 132.633 235.72C132.093 231.292 131.209 226.934 130.18 222.588C128.315 214.691 125.985 206.915 123.508 199.193C122.319 195.487 121.258 191.741 120.025 188.053C118.928 184.784 117.48 181.579 115.021 179.105C112.603 176.661 109.519 175.065 106.413 173.663C102.921 172.096 99.3536 170.662 95.7819 169.285C88.9069 166.635 81.9021 164.738 74.5682 164.511C72.6781 164.256 70.7611 164.271 68.8752 164.556C66.9631 164.845 64.9701 165.582 64.0552 167.421C63.198 169.142 64.175 171.109 65.5647 172.228Z" fill="#F5B500"/>
<path d="M28.8938 103.791C29.3397 101.475 30.2099 99.6555 31.8998 98.0104C33.2707 96.677 35.0039 95.6408 36.7659 94.9222C41.0664 93.1702 45.7493 92.4386 50.3787 92.5266H50.4076C58.1426 101.907 63.2758 113.338 64.8733 125.233C65.8719 116.575 67.5459 107.786 67.1563 98.9686C68.7628 100.698 70.142 102.626 71.2605 104.705C74.0716 109.863 74.7542 115.901 74.5984 121.695C74.2751 133.55 70.4581 145.634 73.4208 157.419C74.0735 159.992 75.0172 162.482 76.2334 164.842C74.9503 165.998 73.5629 167.033 72.0888 167.933C70.7058 168.786 69.2791 169.565 67.8143 170.268C63.485 172.369 58.9277 173.908 54.4901 175.752C51.5559 176.943 48.7084 178.338 45.9686 179.927C44.8689 180.57 43.7939 181.258 42.7433 181.989C41.9563 182.535 41.1866 183.106 40.4343 183.699C40.3059 183.494 40.1878 183.283 40.0807 183.066C39.4761 181.833 39.2322 180.468 39.1557 179.101C39.1167 178.443 39.1196 177.785 39.1355 177.136C39.1976 174.906 39.3981 172.717 39.3072 170.482C39.206 167.971 38.954 165.469 38.5525 162.989C37.7256 157.873 36.206 152.915 34.6792 147.981C31.6775 138.266 29.5028 128.454 28.7985 118.287C28.6254 115.754 28.5335 113.217 28.5229 110.675C28.5099 108.379 28.4608 106.046 28.8938 103.791Z" fill="#4A154B"/>
<path d="M62.8226 96.3429C65.3212 97.4886 66.3311 100.168 67.1827 102.227C68.125 98.4857 64.4678 94.9513 60.9438 92.8887C61.3647 94.0651 62.4248 95.0742 62.6372 96.336C62.7782 96.3138 62.6681 96.2558 62.8226 96.3429Z" fill="#C2EEEE"/>
<path d="M97.079 149.948C97.7299 148.431 100.088 148.809 101.38 148.897C103.036 148.992 104.683 149.211 106.306 149.552C109.766 150.334 113.152 151.413 116.427 152.776C116.822 152.941 117.121 153.498 117.32 153.849C117.376 153.948 117.786 154.714 117.505 154.667C113.725 154.124 109.823 154.01 105.971 154.149C104.517 154.293 103.085 154.528 101.622 154.707C99.72 154.942 98.0027 153.626 97.2089 151.965C96.9203 151.345 96.8078 150.604 97.0646 149.971L97.079 149.948Z" fill="#F99863"/>
<path d="M29.487 103.484C30.8969 100.695 33.5032 99.4111 36.5265 99.2076C39.7793 98.9897 43.0782 99.5669 45.0076 102.401C46.6311 104.785 47.2892 107.697 48.0973 110.423C49.1941 114.125 50.0239 117.902 50.9229 121.657C51.656 124.72 52.0399 127.845 52.8769 130.892C54.3806 136.357 56.7358 141.716 62.2484 144.074C66.5561 145.918 72.0615 146.186 77.2697 146.716C82.9397 147.293 92.3718 148.537 98.9625 148.797C97.528 150.011 99.2872 154.03 99.5498 155.079C99.3102 155.079 99.1342 155.066 99.088 155.063C91.5925 154.417 84.0797 153.963 76.5539 153.848C72.7787 153.79 69.0021 153.813 65.227 153.897C61.7765 153.975 58.2453 153.887 55.0098 152.545C49.3355 150.194 45.4435 145.058 42.0219 140.177C38.2308 134.766 34.8669 129.016 32.392 122.879C31.1612 119.779 30.1486 116.596 29.3615 113.354C28.588 110.194 27.9602 106.521 29.487 103.484Z" fill="#E8E8E8"/>
<path d="M41.4898 185.339C43.1926 186.995 45.4641 188.158 47.5826 189.189C49.7693 190.236 52.0493 191.077 54.3926 191.7C59.5214 193.104 64.8248 193.72 70.1225 194.092C75.7419 194.482 81.4003 194.67 87.0313 194.624C92.7475 194.579 98.8503 194.346 104.08 191.781C106.191 190.744 108.177 189.369 109.61 187.476C110.916 185.744 111.936 183.416 110.997 181.281C110.166 179.394 108.316 178.338 106.497 177.575C94.6552 172.603 81.6659 169.222 68.6491 168.864C59.4132 168.61 46.2073 170.079 40.6528 178.602C39.1347 180.928 39.53 183.429 41.4898 185.339Z" fill="#FDBB00"/>
<path d="M73.0114 251.694C73.6435 252.044 74.2856 252.379 74.9379 252.697C75.912 253.176 76.9049 253.616 77.9064 254.023C80.4114 255.044 83.0063 255.828 85.6573 256.365C86.363 256.51 87.0845 256.654 87.822 256.774C88.6258 256.918 89.4411 257.031 90.255 257.114L90.561 256.544C93.1816 251.631 95.6739 246.614 97.8703 241.504C102.081 231.717 105.663 221.656 108.116 211.281C109.297 206.196 110.199 201.051 110.818 195.868C111.148 193.182 111.434 190.498 111.512 187.786C111.601 184.653 111.801 179.272 107.978 179.368C104.829 179.445 101.051 181.702 98.5615 183.46C93.147 187.284 89.3415 193.023 86.8017 199.064C85.1046 203.105 83.8044 207.235 82.6657 211.456C81.416 216.096 80.1793 220.741 79.0767 225.417C77.1242 233.719 75 241.991 73.2913 250.349C73.1874 250.802 73.0965 251.25 73.0114 251.694Z" fill="#FDBB00"/>
<path d="M54.3082 89.7202C54.6372 88.9554 55.1394 88.2612 55.4987 87.5079C55.8895 86.6724 56.2119 85.8066 56.4627 84.919C57.0327 82.9593 57.4007 81.0399 57.3632 78.9922C57.3531 78.3962 60.0676 78.6559 60.4154 78.7266C63.2511 79.3039 63.5902 82.737 63.9972 85.0763C64.7187 89.2613 64.1328 93.3395 64.3926 97.5115C60.3952 96.6183 56.7023 93.2284 54.3082 89.7202Z" fill="url(#paint1_linear)"/>
<path d="M56.9224 101.735C56.4986 101.775 55.3432 100.129 54.9994 99.7606C54.0788 98.774 53.0748 97.85 52.4605 96.6098C51.8121 95.3123 51.3407 93.895 50.6226 92.6531C51.1008 92.0608 51.8138 91.6318 52.3533 91.0899C52.6153 90.8293 53.3913 89.5579 53.6806 89.4624C54.3851 89.2262 56.776 92.2415 57.3172 92.7295C58.6888 93.9662 59.9429 95.2568 61.4642 96.2763C62.1602 96.7436 63.1557 97.0145 63.8926 97.3393C62.1534 97.6155 60.2833 98.873 58.9746 100.058C58.4556 100.52 57.3801 101.517 56.9224 101.735Z" fill="#E0E0E0"/>
<path d="M64.167 96.2929C64.6764 96.2323 65.1887 96.8571 65.4124 97.303C65.5699 97.606 65.663 97.9384 65.6859 98.2791C65.7087 98.6199 65.6608 98.9617 65.5451 99.283C65.2897 99.9324 64.6951 100.313 64.014 100.39C61.871 100.632 59.5505 98.3796 61.516 96.6508C62.594 95.7084 62.9923 96.4343 64.167 96.2929Z" fill="#E01E5A"/>
<path d="M57.8936 74.8357C59.1275 72 62.3413 71.2193 65.1467 71.8052C68.8641 72.5815 70.857 75.1748 71.4083 78.8562C71.7215 80.9516 71.5786 83.4034 70.8152 85.392C70.1513 87.1151 68.9031 88.3388 67.0545 88.6433C64.8581 89.0055 62.3774 88.7645 60.6976 87.1786C59.1102 85.6821 58.2674 83.4712 57.8114 81.3888C57.3553 79.3064 57.0133 76.8575 57.8936 74.8357Z" fill="#F99863"/>
<path d="M54.9418 79.3316C55.2578 80.4731 55.6634 81.5858 56.0314 82.7099C56.2421 83.3666 56.4888 83.6032 57.1858 83.684C58.9609 83.8933 60.085 82.5974 60.4314 80.9421C60.6507 79.8959 60.2871 78.9391 60.2871 77.9015C60.2871 77.3026 60.4992 76.5594 61.127 76.3487C62.2006 75.988 62.8414 77.3142 63.003 78.1541C63.0247 78.2724 63.6596 78.2349 63.6524 78.1541C63.5889 77.3041 63.5081 76.2925 63.6683 75.4555C63.778 74.8782 64.1503 74.2606 64.7232 74.0585C65.1157 73.9214 66.1663 74.9749 66.4694 75.1726C67.6422 75.947 69.0395 76.309 70.4408 76.2015C71.5217 76.1048 72.6574 75.6128 72.8161 74.4135C73.06 72.5692 72.6271 70.7495 70.7063 70.1636C68.533 69.4998 66.0552 69.4651 63.8068 69.1794C60.2597 68.7306 54.8293 67.8373 53.9605 72.6082C53.5781 74.7454 54.3776 77.2795 54.9418 79.3316Z" fill="#424242"/>
<path d="M221.691 194.773L225.84 256.293H223.766L218.187 195.149L221.691 194.773Z" fill="#8283A8"/>
<path d="M180.225 194.256L176.076 255.775H178.151L183.729 194.631L180.225 194.256Z" fill="#8283A8"/>
<path d="M227.299 194.211L232.624 260.346H229.962L222.802 194.65L227.299 194.211Z" fill="#8283A8"/>
<path d="M174.078 193.604L168.751 259.738H171.415L178.574 194.042L174.078 193.604Z" fill="#8283A8"/>
<path d="M236.905 192.744L164.666 191.051V196.763L236.905 197.37V192.744Z" fill="#999BC7"/>
<path d="M219.97 187.527L236.905 192.742L164.666 191.049L183.805 186.713L219.97 187.527Z" fill="#8283A8"/>
<path d="M219.971 187.528L215.154 125.349L187.752 125.088L183.805 186.714L219.971 187.528Z" fill="#8283A8"/>
<path d="M188.199 75.29C188.907 74.0706 189.976 73.3548 191.345 73.0662C193.03 72.7097 195.082 72.7516 196.668 73.4746C198.153 74.1529 199.236 75.4055 200.493 76.4041C201.881 77.5081 203.848 77.8198 205.081 79.1186C205.359 79.3983 205.566 79.7414 205.682 80.1184C205.799 80.4955 205.822 80.8952 205.75 81.2832C205.941 82.3252 205.628 83.419 205.218 84.4581C205.188 84.6818 205.153 84.9025 205.103 85.1205C204.794 86.4409 204.237 87.7512 203.659 88.9735C203.12 90.1367 202.619 91.3316 202.026 92.4688C201.584 93.313 200.883 94.137 199.838 93.8671C199.206 93.704 198.903 92.4081 198.738 91.8699C198.695 91.7255 198.229 89.5205 198.533 89.5999C198.712 89.6521 198.9 89.6679 199.085 89.6464C199.269 89.6248 199.448 89.5663 199.61 89.4743C199.695 88.7326 199.777 87.9893 199.864 87.2476C199.968 86.363 199.825 85.562 199.825 84.6962C199.45 83.0684 198.414 81.4131 197.259 80.2226C196.51 79.4519 195.672 79.0811 194.576 79.146C193.607 79.2023 192.845 79.6554 191.915 79.8675C190.774 80.1345 188.704 80.3265 187.889 79.2614C187.045 78.1604 187.575 76.3651 188.199 75.29Z" fill="#424242"/>
<path d="M204.501 241.735C204.511 240.42 204.728 239.114 205.143 237.866C205.3 237.396 205.477 236.556 205.901 236.247C206.283 235.97 206.977 235.868 207.392 236.132C207.78 236.38 208.002 236.819 208.162 237.252C209.099 239.77 208.595 242.681 209.683 245.135C210.384 246.711 211.676 247.931 212.784 249.252C213.875 250.553 214.808 251.979 215.562 253.5C215.802 253.984 216.026 254.565 215.78 255.048C215.594 255.416 215.171 255.625 214.759 255.641C214.345 255.644 213.936 255.557 213.558 255.389C211.009 254.407 208.897 252.485 207.337 250.244C205.657 247.83 204.551 244.964 204.502 242.018C204.501 241.927 204.5 241.831 204.501 241.735Z" fill="#424242"/>
<path d="M195.722 184.302C196.063 185.91 196.924 187.421 197.907 188.718C198.953 190.102 200.158 190.95 201.729 191.655C204.926 193.08 208.341 193.954 211.83 194.238C218.446 194.785 225.675 193.407 230.687 188.774C232.358 187.23 234.006 185.138 234.019 182.751C234.032 179.631 231.937 177.218 229.257 175.873C227.913 175.205 226.47 174.761 224.983 174.557C223.078 174.287 221.221 173.728 219.31 173.493C215.891 173.071 212.436 173.03 209.008 173.372C205.475 173.73 201.661 174.382 198.809 176.654C196.515 178.491 195.096 181.341 195.722 184.302Z" fill="#2E4A74"/>
<path d="M178.206 178.957L178.254 178.891C181.24 174.797 186.673 169.799 192.168 170.567C195.864 171.087 197.872 175.041 198.619 178.332C199.485 182.116 199.137 186.089 198.691 189.905C198.322 193.071 197.645 196.228 197.138 199.24C195.957 206.262 194.897 214.14 195.502 221.258C196 227.111 196.591 233.003 197.055 238.68C197.452 243.533 197.759 248.408 198.268 253.248C198.541 255.859 199.183 258.716 198.893 261.344C198.67 263.365 197.486 265.497 195.414 265.637C194.809 265.678 194.238 264.74 193.929 264.318C193.274 263.422 192.613 262.383 192.258 261.302C187.597 247.104 182.173 233.231 178.338 218.731C176.221 210.724 173.816 202.239 173.586 193.866C173.452 188.525 175.075 183.287 178.206 178.957Z" fill="#2E4A74"/>
<path d="M189.28 102.174C190.333 104.704 193.146 105.847 195.669 106.334C198.266 106.838 202.259 107.109 204.039 104.673C204.76 103.682 205.626 102.191 205.027 100.996C204.749 100.448 204.285 100.011 203.926 99.5156C201.598 96.3105 201.121 92.1111 201.199 88.2594C201.219 87.242 201.199 86.9245 200.131 87.0645C199.327 87.1699 198.491 87.3733 197.7 87.5537C196.166 87.903 194.731 88.5177 194.044 90.0359C193.533 91.1658 193.433 92.4329 193.313 93.6696C193.003 96.8329 191.694 99.9024 189.328 102.087L189.28 102.174Z" fill="url(#paint2_linear)"/>
<path d="M186.272 103.948C185.78 103.457 189.221 101.982 189.221 101.982C189.221 101.982 193.344 104.654 196.583 104.729C198.557 104.773 204.948 100.754 204.948 100.754C205.685 101 209.617 103.211 208.143 107.88C207.724 114.158 204.744 123.051 204.117 129.311C203.54 135.119 203.423 141.549 201.908 147.175C201.563 149.195 201.195 151.215 200.745 153.207C200.43 154.592 199.709 157.681 198.003 157.735C196.297 157.79 195.664 154.946 195.366 153.598C193.149 143.542 191.288 133.409 189.783 123.198C189.408 120.646 189.055 118.092 188.724 115.535C188.494 113.732 185.964 105.762 186.272 103.948Z" fill="#963298"/>
<path d="M180.459 171.978C180.533 167.914 180.253 163.851 179.622 159.836C178.737 154.179 177.608 148.554 176.986 142.859C176.3 136.564 175.08 130.346 173.979 124.115C173.946 123.929 173.913 123.742 173.881 123.555C173.033 118.744 172.36 113.912 171.861 109.057C171.819 108.648 173.015 108.407 173.116 108.383C177.445 107.34 182.682 106.219 186.411 103.4C186.677 104.312 186.945 105.224 187.215 106.134C187.661 107.629 188.033 109.145 188.41 110.659C189.005 113.059 189.552 115.472 190.086 117.889C191.139 122.627 192.135 127.376 193.26 132.101C195.201 140.263 196.815 148.561 197.551 156.922C197.861 160.441 197.984 163.972 198.128 167.5C198.196 169.261 198.241 171.026 198.359 172.785C198.457 174.242 198.447 175.761 197.8 177.114C197.079 178.629 195.588 178.846 194.09 178.956C193.301 179.01 192.586 179.204 191.781 179.1C190.194 178.889 188.606 178.622 187.1 178.07C186.811 177.963 186.508 177.855 186.209 177.738C184.189 177.551 182.169 177.38 180.148 177.246C180.322 175.494 180.426 173.738 180.459 171.978Z" fill="url(#paint3_linear)"/>
<path d="M195.956 157.892C196.077 157.157 196.225 156.424 196.389 155.697C196.572 154.542 196.782 153.374 197.244 152.322C197.952 149.782 198.762 147.271 199.415 144.729C200.542 140.364 201.172 135.9 201.869 131.453C202.55 127.123 203.149 122.771 204.019 118.476C204.872 114.276 206.472 110.277 207.137 106.03C207.318 104.95 207.283 103.845 207.036 102.778C206.967 102.49 206.826 102.181 206.748 101.869C208.088 102.622 212.496 104.422 214.871 105.333C216.925 106.121 219.159 106.659 221.108 107.709C224.746 109.669 224.478 113.789 224.554 117.523C224.644 121.941 224.471 126.361 224.036 130.759C223.42 136.99 221.986 142.957 220.753 149.066C219.695 154.293 218.641 159.52 217.591 164.747C217.19 166.738 216.789 168.731 216.274 170.694C215.888 172.161 215.64 173.879 214.497 174.866C211.988 177.03 208.83 176.955 205.823 177.626C203.407 178.166 200.909 178.671 198.451 178.09C197.586 177.888 197.168 177.629 197.031 176.709C196.887 175.743 196.777 174.769 196.658 173.799C196.195 170.176 195.928 166.53 195.857 162.878C195.559 161.243 195.694 159.501 195.956 157.892Z" fill="url(#paint4_linear)"/>
<path d="M215.829 131.095C214.33 125.732 213.845 120.127 214.945 114.484C215.334 112.481 215.969 110.389 217.327 108.816C219.394 106.422 222.539 108.496 224.171 110.232C225.501 111.666 226.625 113.279 227.51 115.024C229.428 118.726 230.601 122.749 231.646 126.807C232.756 131.122 233.694 135.499 234.515 139.885C235.323 144.192 236.154 148.703 236.135 153.113C236.135 154.594 236.049 157.345 234.404 157.837C233.411 158.125 232.157 158.098 231.155 157.837C230.203 157.596 229.53 156.701 228.916 155.949C226.244 152.692 224.249 148.718 222.064 145.094C219.427 140.72 217.202 136.005 215.829 131.095Z" fill="url(#paint5_linear)"/>
<path d="M161.362 147.371C161.362 145.712 161.437 144.052 161.543 142.411C161.857 137.477 162.397 132.572 163.13 127.692C163.501 125.21 163.891 122.729 164.302 120.25C164.638 118.229 165.093 116.229 165.995 114.396C167.571 111.191 170.613 108.829 173.964 108.148C175.658 107.803 180.12 107.337 180.136 110.194C180.136 111.336 179.628 112.523 179.361 113.614C179.079 114.769 178.853 115.923 178.639 117.078C178.678 118.469 178.671 119.864 178.595 121.248C178.329 126.01 177.387 130.656 176.167 135.246C175.157 139.03 173.971 142.821 172.285 146.338C171.595 148.478 171.005 150.659 170.926 152.891C170.819 155.839 171.994 158.016 173.167 160.629C173.753 161.928 175.043 165.69 173.456 166.878C173.362 167.419 173.065 167.872 172.395 167.911C170.643 168.015 168.931 166.303 167.921 165.078C167.143 164.143 166.433 163.139 165.534 162.31C164.758 161.589 163.879 161.3 163.299 160.348C162.256 158.643 162.166 156.505 161.865 154.575C161.508 152.191 161.34 149.782 161.362 147.371Z" fill="url(#paint6_linear)"/>
<path d="M162.539 154.993C161.77 156.58 161.859 158.342 162.34 159.71C163.418 162.768 165.264 165.529 167.143 167.872C171.173 172.903 176.575 176.378 182.536 178.254C182.733 178.316 183.863 178.762 184.109 178.348C184.831 177.136 183.975 175.515 183.647 174.516C183.258 173.333 182.828 172.176 182.359 171.044C181.418 168.772 180.295 166.58 179.002 164.488C177.638 162.267 176.041 160.196 174.24 158.312C172.459 156.469 170.583 154.679 168.198 153.796C166.724 153.252 163.678 152.64 162.539 154.993Z" fill="#963298"/>
<path d="M185.328 257.168C186.671 256.941 188.274 258.301 189.315 258.977C190.64 259.843 191.976 260.685 193.278 261.575C193.32 261.055 193.393 260.389 193.721 260.158C194.154 259.852 195.092 260.247 195.452 260.501C196.696 261.367 197.473 263.028 197.906 264.438C198.163 265.277 199.044 268.255 197.663 268.532C196.956 269.143 195.144 267.74 194.647 267.378C193.493 266.529 192.273 265.886 191.018 265.213C189.284 264.301 187.747 263.057 186.494 261.552C186.128 261.257 185.802 260.918 185.521 260.542C184.925 259.736 183.454 257.485 185.328 257.168Z" fill="#424242"/>
<path d="M205.511 233.64C205.528 234.71 205.602 235.759 206.075 236.734C206.437 237.478 207.017 238.504 207.781 238.921C208.807 239.481 209.697 238.067 210.259 237.41C210.973 236.573 211.638 235.697 212.267 234.797C215.139 230.69 217.639 226.283 220.109 221.927C222.529 217.657 224.801 213.302 226.824 208.83C228.801 204.459 230.552 199.985 231.914 195.384C232.626 192.951 233.2 190.479 233.631 187.981C233.824 186.873 233.849 185.773 233.951 184.655C234.065 183.419 234.096 182.163 233.791 180.949C233.192 178.509 231.218 176.876 228.688 176.875C226.159 176.874 223.817 178.494 222.007 180.112C219.779 182.106 218.087 184.655 216.894 187.384C215.903 189.651 215.201 192.028 214.472 194.39C213.689 196.927 212.92 199.471 212.204 202.028C210.743 207.239 209.533 212.538 208.336 217.816C207.736 220.46 207.15 223.106 206.605 225.762C206.082 228.349 205.472 230.983 205.511 233.64Z" fill="#2E4A74"/>
<path d="M197.205 150.198C195.656 153.122 199.987 154.559 202.804 155.573C203.586 155.862 204.321 156.073 204.905 156.233C208.037 157.099 211.243 157.745 214.394 158.535C217.606 159.34 220.84 160.082 224.122 160.555C228.129 161.132 232.535 162.091 235.193 157.742C235.59 157.093 235.897 156.361 235.941 155.598C236.078 153.087 233.15 152.364 231.417 151.684C226.1 149.599 220.403 148.623 214.698 148.42C211.826 148.323 208.95 148.406 206.089 148.668C203.559 148.896 200.342 149.221 197.812 149.45C197.411 149.491 197.29 150.043 197.205 150.198Z" fill="#963298"/>
<path d="M79.441 153.594H316.998V159.45H79.441V153.594Z" fill="#999BC7"/>
<path d="M188.427 93.1229C186.801 90.3117 187.472 87.2062 187.995 84.2132C188.264 82.6777 188.729 81.2187 189.572 79.9935C190.172 79.4884 190.804 79.0714 191.663 78.9429C192.907 78.7568 194.288 78.9343 195.512 79.1681C196.865 79.4278 198.311 79.8896 199.164 81.0441C199.728 81.8104 199.945 82.7167 199.946 83.6417C199.855 84.04 199.786 84.4433 199.74 84.8496C199.74 84.9073 199.85 84.8972 199.87 84.8611C200.241 84.1641 200.228 82.7874 200.955 82.3155C201.411 82.0182 202.276 82.0629 202.677 82.4064C202.856 82.5589 203.016 82.7324 203.154 82.923C203.446 83.3013 203.619 83.7571 203.652 84.2334C203.733 85.2666 203.423 86.336 202.968 87.2538C202.535 88.1196 201.844 88.7431 201.342 89.544C199.443 92.5745 196.707 96.1202 192.64 95.9499C190.786 95.8662 189.321 94.6656 188.427 93.1229Z" fill="#F99863"/>
<path d="M196.965 153.569C196.506 153.541 196.046 153.471 195.584 153.425C193.757 153.224 192.004 153.087 190.164 153.183C188.689 153.259 187.202 153.3 185.732 153.435C185.021 153.502 184.321 153.571 183.605 153.579C183.419 153.579 183.241 153.579 183.071 153.6C182.678 153.311 182.147 152.2 182.27 152.164C185.116 151.359 188.012 150.82 190.929 150.36C192.252 150.152 193.581 149.979 194.912 149.819C196.196 149.664 197.606 149.319 198.896 149.52C199.792 149.664 200.387 150.545 200.387 151.419C200.387 152.718 199.286 153.354 198.13 153.541C197.744 153.594 197.353 153.604 196.965 153.569Z" fill="#F99863"/>
<path d="M181.248 178.727C182.356 180.27 183.625 181.689 185.035 182.961C186.178 183.971 188.008 185.472 189.682 184.853C191.311 184.254 189.947 182.133 189.424 181.178C188.624 179.711 187.682 178.328 186.61 177.047C187.112 177.443 187.604 177.853 188.068 178.299C188.859 179.059 188.118 177.493 187.953 177.242C186.641 175.252 181.937 170.748 180.03 174.72C179.323 176.192 180.419 177.584 181.248 178.727Z" fill="#F99863"/>
<defs>
<linearGradient id="paint0_linear" x1="94.3645" y1="131.715" x2="63.1556" y2="149.409" gradientUnits="userSpaceOnUse">
<stop stop-color="#E0E0E0"/>
<stop offset="1" stop-color="#E6E6E6"/>
</linearGradient>
<linearGradient id="paint1_linear" x1="-33219.7" y1="21707.4" x2="-33986" y2="22049.9" gradientUnits="userSpaceOnUse">
<stop stop-color="#E88E5C"/>
<stop offset="0.13" stop-color="#F0935F"/>
<stop offset="0.36" stop-color="#F79762"/>
<stop offset="1" stop-color="#F99863"/>
</linearGradient>
<linearGradient id="paint2_linear" x1="195.2" y1="94.8659" x2="201.044" y2="102.623" gradientUnits="userSpaceOnUse">
<stop stop-color="#E88E5C"/>
<stop offset="0.13" stop-color="#F0935F"/>
<stop offset="0.36" stop-color="#F79762"/>
<stop offset="1" stop-color="#F99863"/>
</linearGradient>
<linearGradient id="paint3_linear" x1="167.841" y1="105.176" x2="202.245" y2="146.215" gradientUnits="userSpaceOnUse">
<stop stop-color="#963298"/>
<stop offset="1" stop-color="#4A154B"/>
</linearGradient>
<linearGradient id="paint4_linear" x1="193.644" y1="101.735" x2="243.775" y2="158.746" gradientUnits="userSpaceOnUse">
<stop stop-color="#963298"/>
<stop offset="1" stop-color="#4A154B"/>
</linearGradient>
<linearGradient id="paint5_linear" x1="225.241" y1="107.732" x2="225.241" y2="158.043" gradientUnits="userSpaceOnUse">
<stop stop-color="#963298"/>
<stop offset="1" stop-color="#4A154B"/>
</linearGradient>
<linearGradient id="paint6_linear" x1="170.748" y1="107.889" x2="170.748" y2="167.916" gradientUnits="userSpaceOnUse">
<stop stop-color="#963298"/>
<stop offset="1" stop-color="#4A154B"/>
</linearGradient>
</defs>
</svg>
