<svg width="1440" height="809" viewBox="0 0 1440 809" fill="none" xmlns="http://www.w3.org/2000/svg">
<g filter="url(#filter0_d)">
<path d="M-308 690.559C-251.232 653.589 -185.836 671.203 -127.048 699.978C-68.2606 728.754 -10.6368 768.267 50.9928 774.201C180.175 786.634 299.942 649.727 429.33 657.027C496.609 660.842 562.416 703.84 629.353 692.443C715.84 677.749 784.214 576.776 842.968 478.252C901.722 379.728 963.386 272.821 1047.58 239.006C1174.47 188.049 1300.6 319.87 1431.05 339.037C1497.2 348.739 1564.58 329.147 1630.12 344.83C1695.65 360.513 1764.5 428.048 1770.49 529.633H1835V-326H-288.792L-308 690.559Z" fill="white"/>
</g>
<defs>
<filter id="filter0_d" x="-338" y="-352" width="2203" height="1161" filterUnits="userSpaceOnUse" color-interpolation-filters="sRGB">
<feFlood flood-opacity="0" result="BackgroundImageFix"/>
<feColorMatrix in="SourceAlpha" type="matrix" values="0 0 0 0 0 0 0 0 0 0 0 0 0 0 0 0 0 0 127 0"/>
<feOffset dy="4"/>
<feGaussianBlur stdDeviation="15"/>
<feColorMatrix type="matrix" values="0 0 0 0 0.258824 0 0 0 0 0.258824 0 0 0 0 0.258824 0 0 0 0.1 0"/>
<feBlend mode="normal" in2="BackgroundImageFix" result="effect1_dropShadow"/>
<feBlend mode="normal" in="SourceGraphic" in2="effect1_dropShadow" result="shape"/>
</filter>
</defs>
</svg>
