<svg width="26" height="26" viewBox="0 0 26 26" fill="none" xmlns="http://www.w3.org/2000/svg">
<path d="M25.5222 20.3664L19.5894 14.9722C19.309 14.7174 18.9405 14.5814 18.5617 14.5931C18.1829 14.6048 17.8235 14.7633 17.5593 15.035L14.0668 18.6268C13.2261 18.4662 11.5361 17.9394 9.79637 16.204C8.05668 14.4629 7.52982 12.7685 7.37365 11.9336L10.9625 8.43966C11.2346 8.17569 11.3932 7.81621 11.4049 7.43731C11.4167 7.05841 11.2805 6.68982 11.0252 6.40954L5.6325 0.478257C5.37716 0.1971 5.02227 0.026557 4.64321 0.00284858C4.26414 -0.0208599 3.89077 0.104134 3.60238 0.351283L0.435334 3.06736C0.183008 3.3206 0.0324024 3.65764 0.0120873 4.01455C-0.00980477 4.37942 -0.427213 13.0224 6.27467 19.7272C12.1213 25.5724 19.4449 26 21.4619 26C21.7567 26 21.9377 25.9912 21.9859 25.9883C22.3427 25.9683 22.6796 25.8171 22.9316 25.5636L25.6462 22.3951C25.8943 22.1076 26.0203 21.7346 25.9971 21.3555C25.9739 20.9765 25.8035 20.6215 25.5222 20.3664Z" fill="#963298"/>
</svg>
