<svg width="58" height="58" viewBox="0 0 58 58" fill="none" xmlns="http://www.w3.org/2000/svg">
    <path fill-rule="evenodd" clip-rule="evenodd" d="M58 29C58 36.6913 54.9447 44.0675 49.5061 49.5061C44.0675 54.9447 36.6913 58 29 58C21.3087 58 13.9325 54.9447 8.4939 49.5061C3.05535 44.0675 0 36.6913 0 29C0 21.3087 3.05535 13.9325 8.4939 8.4939C13.9325 3.05535 21.3087 0 29 0C36.6913 0 44.0675 3.05535 49.5061 8.4939C54.9447 13.9325 58 21.3087 58 29ZM30.8125 14.5C30.8125 14.0193 30.6215 13.5583 30.2816 13.2184C29.9417 12.8785 29.4807 12.6875 29 12.6875C28.5193 12.6875 28.0583 12.8785 27.7184 13.2184C27.3785 13.5583 27.1875 14.0193 27.1875 14.5V27.1875H14.5C14.0193 27.1875 13.5583 27.3785 13.2184 27.7184C12.8785 28.0583 12.6875 28.5193 12.6875 29C12.6875 29.4807 12.8785 29.9417 13.2184 30.2816C13.5583 30.6215 14.0193 30.8125 14.5 30.8125H27.1875V43.5C27.1875 43.9807 27.3785 44.4417 27.7184 44.7816C28.0583 45.1215 28.5193 45.3125 29 45.3125C29.4807 45.3125 29.9417 45.1215 30.2816 44.7816C30.6215 44.4417 30.8125 43.9807 30.8125 43.5V30.8125H43.5C43.9807 30.8125 44.4417 30.6215 44.7816 30.2816C45.1215 29.9417 45.3125 29.4807 45.3125 29C45.3125 28.5193 45.1215 28.0583 44.7816 27.7184C44.4417 27.3785 43.9807 27.1875 43.5 27.1875H30.8125V14.5Z" fill="url(#paint0_linear)"/>
    <defs>
        <linearGradient id="paint0_linear" x1="0" y1="0" x2="54.5" y2="59.5" gradientUnits="userSpaceOnUse">
            <stop stop-color="#FED337"/>
            <stop offset="1" stop-color="#ECB22E"/>
        </linearGradient>
    </defs>
</svg>


