<svg width="1440" height="486" viewBox="0 0 1440 486" fill="none" xmlns="http://www.w3.org/2000/svg">
<g filter="url(#filter0_d)">
<path d="M-1536.3 311.817C-1523.87 262.239 -1459 233.842 -1400.84 236.849C-1342.68 239.856 -1289.99 266.277 -1239.58 291.753C-1189.16 317.229 -1135.98 343.307 -1077.82 345.111C-1012.31 347.345 -951.041 319.034 -887.01 306.919C-685 268.812 -468.536 392.583 -274.715 330.118C-173.636 297.554 -102.057 220.696 -28.8997 151.701C44.2579 82.705 133.251 14.6547 240.891 10.2297C366.438 5.0744 481.576 88.5046 606.679 78.151C675.742 72.4372 737.653 38.7131 806.025 30.1208C921.311 15.6 1030.04 73.0818 1132.4 121.456C1234.76 169.83 1359.62 211.374 1464 166.436L1464 488L-1566 488L-1536.3 311.817Z" fill="white"/>
</g>
<defs>
<filter id="filter0_d" x="-1596" y="-16" width="3090" height="538" filterUnits="userSpaceOnUse" color-interpolation-filters="sRGB">
<feFlood flood-opacity="0" result="BackgroundImageFix"/>
<feColorMatrix in="SourceAlpha" type="matrix" values="0 0 0 0 0 0 0 0 0 0 0 0 0 0 0 0 0 0 127 0"/>
<feOffset dy="4"/>
<feGaussianBlur stdDeviation="15"/>
<feColorMatrix type="matrix" values="0 0 0 0 0.258824 0 0 0 0 0.258824 0 0 0 0 0.258824 0 0 0 0.1 0"/>
<feBlend mode="normal" in2="BackgroundImageFix" result="effect1_dropShadow"/>
<feBlend mode="normal" in="SourceGraphic" in2="effect1_dropShadow" result="shape"/>
</filter>
</defs>
</svg>
