<svg width="36" height="30" viewBox="0 0 36 30" fill="none" xmlns="http://www.w3.org/2000/svg">
<path d="M24.3662 3.50692C23.0343 3.50669 21.7556 4.02932 20.8053 4.96234C19.8549 5.89536 19.3087 7.1642 19.2844 8.4958L19.2353 11.2557C19.2325 11.4039 19.1983 11.5498 19.1351 11.6839C19.0718 11.8179 18.981 11.9371 18.8685 12.0335C18.756 12.13 18.6243 12.2016 18.4822 12.2436C18.34 12.2856 18.1906 12.2971 18.0438 12.2773L15.3084 11.9058C11.7091 11.4152 8.26049 9.75748 4.95209 7.00106C3.90419 12.8013 5.95092 16.8194 10.8802 19.9192L13.9415 21.8433C14.087 21.9347 14.2078 22.0604 14.2935 22.2093C14.3791 22.3582 14.427 22.5258 14.4329 22.6975C14.4388 22.8692 14.4025 23.0397 14.3272 23.1942C14.2519 23.3486 14.14 23.4822 14.0011 23.5834L11.2114 25.6213C12.8709 25.7247 14.4462 25.6511 15.7535 25.3918C24.0209 23.7411 29.518 17.5203 29.518 7.25865C29.518 6.42104 27.7447 3.50692 24.3662 3.50692ZM15.7797 8.43096C15.8103 6.74181 16.3385 5.09921 17.2982 3.70882C18.2579 2.31844 19.6065 1.24206 21.175 0.61446C22.7436 -0.0131414 24.4624 -0.164078 26.1163 0.180549C27.7702 0.525176 29.2857 1.35005 30.473 2.5519C31.7189 2.54313 32.7791 2.85855 35.15 1.42164C34.563 4.29546 34.2738 5.54312 33.0227 7.25865C33.0227 20.65 24.792 27.1616 16.4404 28.8281C10.7137 29.9706 2.38667 28.0939 0 25.6021C1.21612 25.5074 6.15769 24.9765 9.01399 22.8859C6.59753 21.2931 -3.02102 15.633 3.29964 0.415804C6.26633 3.88016 9.27509 6.2388 12.3241 7.48996C14.3533 8.32232 14.851 8.3048 15.7815 8.43272L15.7797 8.43096Z" fill="url(#paint0_linear)"/>
<defs>
<linearGradient id="paint0_linear" x1="1.45854" y1="-1.94472" x2="38.8944" y2="33.0603" gradientUnits="userSpaceOnUse">
<stop stop-color="#963298"/>
<stop offset="1" stop-color="#4A154B"/>
</linearGradient>
</defs>
</svg>
