<svg width="60" height="46" viewBox="0 0 60 46" fill="none" xmlns="http://www.w3.org/2000/svg">
<path d="M30 0C21.3092 0 13.6292 0.894706 8.94231 1.57835C5.06538 2.14271 1.93846 5.04476 1.22538 8.8897C0.623077 12.1611 0 16.9466 0 22.9412C0 28.9357 0.623077 33.7235 1.22538 36.9926C1.93846 40.8376 5.06538 43.7488 8.94231 44.3063C13.65 44.9853 21.3554 45.8823 30 45.8823C38.6446 45.8823 46.3523 44.9876 51.0577 44.304C54.9346 43.7488 58.0615 40.8376 58.7746 36.9926C59.3769 33.7121 60 28.9174 60 22.9412C60 16.965 59.3862 12.1703 58.7746 8.8897C58.0615 5.04476 54.9346 2.14271 51.0577 1.57606C46.3708 0.896999 38.6885 0 30 0ZM30 4.58823C38.3838 4.58823 45.8746 5.43935 50.4092 6.09318C51.3516 6.22709 52.2277 6.65228 52.9136 7.30856C53.5994 7.96484 54.0602 8.81896 54.2308 9.75C54.7892 12.7782 55.3846 17.2678 55.3846 22.9412C55.3846 28.6054 54.7892 33.1041 54.2308 36.1324C54.0632 37.0647 53.6033 37.9205 52.9169 38.5773C52.2305 39.2341 51.3528 39.6583 50.4092 39.7892C45.8538 40.443 38.3285 41.2941 30 41.2941C21.6692 41.2941 14.1346 40.443 9.59077 39.7892C8.64787 39.6566 7.77103 39.2318 7.08494 38.5753C6.39886 37.9188 5.93846 37.064 5.76923 36.1324C5.21077 33.1041 4.61538 28.6237 4.61538 22.9412C4.61538 17.2518 5.21077 12.7782 5.76923 9.75C5.93846 8.81839 6.39886 7.96354 7.08494 7.30702C7.77103 6.65051 8.64787 6.22576 9.59077 6.09318C14.1162 5.43935 21.6162 4.58823 30 4.58823ZM23.0769 9.82112V36.0635L26.5385 34.1273L42.6923 24.9508L46.1538 22.9412L42.6923 20.9338L26.5385 11.7574L23.0769 9.82112ZM27.6923 17.7083L36.8515 22.9412L27.6923 28.1741V17.7083Z" fill="url(#paint0_linear)"/>
<defs>
<linearGradient id="paint0_linear" x1="0" y1="0" x2="60" y2="45.8824" gradientUnits="userSpaceOnUse">
<stop stop-color="#963298"/>
<stop offset="1" stop-color="#4A154B"/>
</linearGradient>
</defs>
</svg>
