<svg width="34" height="26" viewBox="0 0 34 26" fill="none" xmlns="http://www.w3.org/2000/svg">
    <path d="M17 0C12.0752 0 7.72323 0.507 5.06731 0.8944C2.87038 1.2142 1.09846 2.8587 0.694384 5.0375C0.353077 6.8913 0 9.6031 0 13C0 16.3969 0.353077 19.11 0.694384 20.9625C1.09846 23.1413 2.87038 24.791 5.06731 25.1069C7.735 25.4917 12.1014 26 17 26C21.8986 26 26.2663 25.493 28.9327 25.1056C31.1296 24.791 32.9015 23.1413 33.3056 20.9625C33.6469 19.1035 34 16.3865 34 13C34 9.6135 33.6522 6.8965 33.3056 5.0375C32.9015 2.8587 31.1296 1.2142 28.9327 0.8931C26.2768 0.5083 21.9235 0 17 0ZM17 2.6C21.7508 2.6 25.9956 3.0823 28.5652 3.4528C29.0992 3.52868 29.5957 3.76962 29.9844 4.14152C30.373 4.51341 30.6341 4.99741 30.7308 5.525C31.0472 7.241 31.3846 9.7851 31.3846 13C31.3846 16.2097 31.0472 18.759 30.7308 20.475C30.6358 21.0033 30.3752 21.4883 29.9863 21.8605C29.5973 22.2326 29.0999 22.473 28.5652 22.5472C25.9838 22.9177 21.7195 23.4 17 23.4C12.2792 23.4 8.00962 22.9177 5.43477 22.5472C4.90046 22.4721 4.40358 22.2314 4.0148 21.8594C3.62602 21.4873 3.36513 21.0029 3.26923 20.475C2.95277 18.759 2.61538 16.2201 2.61538 13C2.61538 9.776 2.95277 7.241 3.26923 5.525C3.36513 4.99709 3.62602 4.51267 4.0148 4.14065C4.40358 3.76862 4.90046 3.52793 5.43477 3.4528C7.99915 3.0823 12.2492 2.6 17 2.6ZM13.0769 5.5653V20.436L15.0385 19.3388L24.1923 14.1388L26.1538 13L24.1923 11.8625L15.0385 6.6625L13.0769 5.5653ZM15.6923 10.0347L20.8825 13L15.6923 15.9653V10.0347Z" fill="url(#paint0_linear)"/>
    <defs>
        <linearGradient id="paint0_linear" x1="0" y1="0" x2="34" y2="26" gradientUnits="userSpaceOnUse">
            <stop stop-color="#963298"/>
            <stop offset="1" stop-color="#4A154B"/>
        </linearGradient>
    </defs>
</svg>
