<svg width="157" height="118" viewBox="0 0 157 118" fill="none" xmlns="http://www.w3.org/2000/svg">
<path d="M10.4701 98.4253C10.8632 97.6397 19.7314 100.201 24.0554 92.7217C28.3952 85.2425 49.1191 10.5296 49.1191 10.5296L48.4744 1.00781C48.4744 1.00781 35.2822 40.7604 32.3261 42.9288C29.37 45.0971 12.4355 53.9432 9.87257 66.7489C7.3096 79.5546 10.4701 98.4253 10.4701 98.4253Z" fill="#E0E0E0"/>
<path d="M2.3877 97.4357V103.532H16.7592L28.3791 89.9565L13.4101 97.4828C13.4258 97.4671 2.3877 96.8386 2.3877 97.4357Z" fill="url(#paint0_linear)"/>
<path d="M10.5173 54.7605C9.49523 54.9177 8.50463 55.2791 7.6241 55.829C5.32843 57.2588 1.38176 60.4485 0.42261 65.9478C-0.961082 73.8198 1.41321 96.4615 2.38808 97.4357C3.37868 98.4256 11.6494 98.1113 13.4104 97.4828C15.1872 96.8543 11.6337 72.4528 12.6243 68.509C13.6149 64.5651 15.1872 59.2543 19.1182 56.3004C23.0648 53.3464 32.1217 44.4846 32.9079 43.9032C33.6941 43.3218 48.4745 2.04511 48.4745 2.04511L49.072 10.4356C49.072 10.4356 50.4557 -0.186069 48.2858 0.0024809C46.1159 0.206743 30.172 41.1378 28.977 42.5205C27.7977 43.9032 21.4925 50.7853 18.1433 52.5608C15.7847 53.8178 12.3255 54.4777 10.5173 54.7605Z" fill="url(#paint1_linear)"/>
<path d="M100.489 98.4257C100.095 97.6401 91.2273 100.201 86.9032 92.722C82.5635 85.2272 61.8867 10.4357 61.8867 10.4357L62.7987 0.851074C62.7987 0.851074 64.0409 4.43352 65.7548 9.52437C69.7329 21.3873 76.5727 41.3893 78.6325 42.8977C81.5886 45.066 98.5231 53.9122 101.086 66.7179C103.649 79.5235 100.489 98.4257 100.489 98.4257Z" fill="#E0E0E0"/>
<path d="M108.571 97.4354V103.532H94.1833L85.5195 89.1707L97.5325 97.4826C97.5325 97.4669 108.571 96.8383 108.571 97.4354Z" stroke="black" stroke-miterlimit="10"/>
<path d="M101.668 54.9177C101.668 54.9177 109.152 58.0602 110.536 65.9321C111.92 73.8041 109.546 96.4458 108.571 97.42C107.58 98.4099 99.3093 98.0956 97.5483 97.4671C95.7715 96.8386 99.3251 72.4371 98.3345 68.4932C97.3439 64.5494 95.7715 59.2386 91.8405 56.2846C87.8939 53.3307 78.837 44.4688 78.0508 43.8875C77.2646 43.2904 62.9403 1.51088 62.9403 1.51088L61.9025 10.4356C61.9025 10.4356 60.5188 -0.186069 62.6887 0.0024809C64.8586 0.206743 80.8025 41.1378 81.9975 42.5205C83.1767 43.9032 89.482 50.7853 92.8311 52.5608C96.1646 54.3363 101.668 54.9177 101.668 54.9177Z" fill="url(#paint2_linear)"/>
<path d="M21.8857 85.2424V96.8383H86.8878V86.0123L85.6142 85.4938L21.8857 85.2424Z" fill="#9898BF"/>
<path d="M83.5386 84.6454L81.0228 75.1865V70.2842L78.5699 66.906V62.5065L76.1956 58.6255V54.0689L73.9943 51.2721V47.3125L71.9817 45.0342L72.0288 41.3575L70.2835 39.3777L70.2678 35.7796L68.6168 33.4855L68.5853 30.3745L67.3589 29.196L67.296 26.4149L66.2268 25.3307L66.3054 22.8953L65.2833 22.0783L65.3462 20.0828L64.4972 19.3757L64.3714 17.9302L63.8839 17.3017L63.821 15.8875L63.2235 15.4476L63.1606 14.0178L62.799 13.5778L62.7518 12.2108L62.2487 11.8494L61.887 10.4353H49.0721L48.6633 11.8494L48.0815 12.2265L48.1759 13.5464L47.7199 14.0335L47.7513 15.4005L47.0281 15.8404L47.0909 17.2702L46.3991 17.8673L46.4777 19.3914L45.6915 20.1142V22.0625L44.528 23.021L44.4965 25.3465L43.6003 26.4778V29.306L42.2795 30.4059L42.3738 33.517L40.6128 35.7324L40.6756 39.362L38.836 41.3104L38.9146 45.0028L37.1378 47.3911L37.2321 51.2407L34.6063 54.1318L34.5277 58.6255L31.32 62.5065L31.3986 67.0631L29.213 70.3471L29.1816 75.2494L26.4614 77.6691L26.4928 83.3727L21.8857 85.2268V85.2425L94.5767 86.4052L83.5386 84.6454Z" fill="#7F7EA4"/>
<path d="M77.5012 99.0071C77.5012 99.0071 60.5038 101.898 59.7019 105.041C54.9847 108.45 61.4786 115.804 69.6865 116.589C78.8849 116.322 92.3444 113.635 98.2408 114.233C104.153 114.83 120.899 118.365 130.931 117.768C140.978 117.171 142.755 114.028 145.9 113.635C149.044 113.243 155.743 115.6 156.34 111.279C156.938 106.942 154.312 105.968 153.117 105.575C151.937 105.182 158.494 103.799 155.538 98.3001C152.582 92.785 140.758 92.5964 136.827 92.9892C132.88 93.382 113.713 94.5605 108.996 96.1317C104.294 97.703 77.5012 99.0071 77.5012 99.0071Z" fill="url(#paint3_linear)"/>
<path d="M85.4097 77.5439H26.4141V83.3733H85.4097V77.5439Z" fill="#9898BF"/>
<path d="M81.0071 70.2842H29.1973V75.1865H81.0071V70.2842Z" fill="#9898BF"/>
<path d="M78.5693 62.5063H31.3193V66.9058H78.5693V62.5063Z" fill="#9898BF"/>
<path d="M76.1953 54.0691H34.5273V58.6257H76.1953V54.0691Z" fill="#9898BF"/>
<path d="M73.9937 47.3132H37.0586V51.2885H73.9937V47.3132Z" fill="#9898BF"/>
<path d="M72.0603 41.3103H38.8359V45.0342H72.0603V41.3103Z" fill="#9898BF"/>
<path d="M70.284 35.7327H40.6133V39.3623H70.284V35.7327Z" fill="#9898BF"/>
<path d="M68.5846 30.3279H42.2158V33.5332H68.5846V30.3279Z" fill="#9898BF"/>
<path d="M67.327 26.3677H43.5684V29.2431H67.327V26.3677Z" fill="#9898BF"/>
<path d="M66.305 22.8953H44.4961V25.3464H66.305V22.8953Z" fill="#9898BF"/>
<path d="M65.3933 20.0359H45.6914V22.0628H65.3933V20.0359Z" fill="#9898BF"/>
<path d="M64.4651 19.3918H46.4613L46.3984 17.8677H46.8702H64.4022L64.4651 19.3918Z" fill="#9898BF"/>
<path d="M63.9147 17.2709H47.0902L47.0273 15.8411H63.8675L63.9147 17.2709Z" fill="#9898BF"/>
<path d="M63.255 15.4003H47.7514L47.6885 13.9705H63.2078L63.255 15.4003Z" fill="#9898BF"/>
<path d="M62.8142 13.5941H48.1282L48.0811 12.1643H62.7513L62.8142 13.5941Z" fill="#9898BF"/>
<path d="M62.2487 11.85H48.6634L48.6162 10.4202H62.1858L62.2487 11.85Z" fill="#9898BF"/>
<path d="M103.759 40.226C103.759 40.226 101.259 45.2855 102.438 45.6783C103.617 46.0711 113.272 46.2754 113.272 46.2754C113.272 46.2754 123.508 39.0005 124.105 38.5919C124.703 38.1991 139.861 93.1143 139.468 93.8999C139.074 94.6856 126.857 95.2826 126.857 93.8999C126.857 92.5172 126.857 89.3747 124.294 88.5891C121.731 87.8035 95.1423 85.6352 94.1517 85.2423C93.1611 84.8495 87.2646 70.284 87.2646 70.284L90.0949 39.9746L103.759 40.226Z" fill="#FFA100"/>
<path d="M87.8784 38.5764L76.3214 103.171C76.0698 104.553 77.029 105.873 78.4127 106.062L88.0828 107.46C88.0828 107.46 88.869 101.364 90.4413 99.7766C92.0137 98.2054 101.731 98.8653 104.687 100.829C107.643 102.793 106.59 107.853 106.59 107.853L117.754 108.717C118.665 108.78 119.452 108.104 119.515 107.193L124.137 38.5764H87.8784ZM113.854 44.5315C113.791 45.7727 112.753 46.7469 111.495 46.7155L95.8031 46.2284C94.3408 46.1813 93.2873 44.7829 93.6647 43.3687L94.0735 41.8132C94.1836 41.389 94.5767 41.0904 95.0169 41.0904L113.005 41.1533C113.555 41.1533 113.996 41.6246 113.98 42.1746L113.854 44.5315Z" fill="#FCBB00"/>
<path d="M94.026 49.5754C94.0731 49.5754 94.1046 49.5754 94.1518 49.5754L112.501 50.2982C113.382 50.3296 114.184 50.7224 114.781 51.3823C115.363 52.0423 115.646 52.8907 115.568 53.7706L112.454 88.7152C112.313 90.3493 110.913 91.622 109.278 91.622C109.137 91.622 108.995 91.6063 108.853 91.5906L89.4346 88.9981C87.705 88.7624 86.4628 87.1597 86.683 85.4313L90.8655 52.3565C91.0542 50.7853 92.4222 49.5754 94.026 49.5754ZM94.026 48.0042C91.636 48.0042 89.5919 49.7797 89.2931 52.168L85.1106 85.2428C84.7804 87.8353 86.6201 90.2236 89.2145 90.5693L108.649 93.1776C108.869 93.209 109.074 93.2247 109.294 93.2247C111.731 93.2247 113.822 91.3706 114.042 88.8724L117.14 53.9278C117.376 51.2095 115.3 48.8526 112.58 48.7426L94.2304 48.0199C94.1518 48.0042 94.0889 48.0042 94.026 48.0042Z" fill="white"/>
<path d="M103.602 77.4338C100.111 77.4338 95.8811 77.1824 92.6577 76.5382C91.6986 76.4597 90.8495 75.9097 90.3935 75.0612C89.9375 74.1971 89.9533 73.1757 90.4721 72.3273L90.6451 71.9816C92.7364 67.9121 95.5824 62.3656 98.4441 59.0031C98.9944 58.1232 99.985 57.6204 101.023 57.6989C102.076 57.7775 102.973 58.4217 103.381 59.3802C105.646 63.2297 107.91 68.792 109.183 73.5686C109.529 74.4485 109.404 75.4383 108.853 76.2083C108.303 76.9782 107.407 77.4181 106.448 77.371C105.614 77.4024 104.639 77.4338 103.602 77.4338ZM100.818 58.846C100.252 58.846 99.7335 59.1288 99.4347 59.6316L99.3718 59.7101C96.6044 62.9469 93.7741 68.462 91.6986 72.5001L91.4942 72.8772C91.1797 73.3957 91.164 73.9928 91.4313 74.4956C91.6986 74.9984 92.186 75.3126 92.7678 75.3598L92.8464 75.3755C96.9189 76.1925 102.737 76.3654 106.416 76.1925H106.448H106.479C107.045 76.224 107.564 75.9726 107.894 75.5169C108.224 75.0612 108.287 74.4799 108.083 73.9614L108.051 73.8828C106.793 69.1848 104.561 63.7011 102.344 59.9144L102.312 59.8358C102.076 59.2545 101.557 58.8774 100.944 58.846C100.913 58.846 100.866 58.846 100.818 58.846Z" fill="white"/>
<path d="M99.797 71.5891C100.049 71.6048 100.253 71.7148 100.41 71.9033C100.568 72.0919 100.63 72.3119 100.615 72.5476C100.599 72.799 100.489 73.0032 100.3 73.1603C100.112 73.3175 99.8914 73.3803 99.6398 73.3646C99.404 73.3489 99.1995 73.2389 99.0423 73.0504C98.8851 72.8618 98.8064 72.6418 98.8379 72.4061C98.8536 72.1547 98.9637 71.9662 99.1524 71.7934C99.3411 71.6362 99.5612 71.5734 99.797 71.5891ZM99.5612 70.8506V64.4556C99.5612 64.2671 99.5612 64.1571 99.5612 64.1099C99.5926 63.7643 99.687 63.5129 99.8599 63.3715C100.033 63.2143 100.253 63.1515 100.552 63.1829C100.803 63.1986 101.008 63.2929 101.149 63.4657C101.291 63.6386 101.354 63.8585 101.338 64.1099C101.338 64.1885 101.307 64.3299 101.259 64.5342L100.143 70.882L99.5612 70.8506Z" fill="white"/>
<defs>
<linearGradient id="paint0_linear" x1="2.3877" y1="72.0368" x2="37.1944" y2="78.9969" gradientUnits="userSpaceOnUse">
<stop stop-color="#A237A4"/>
<stop offset="1" stop-color="#4A154B"/>
</linearGradient>
<linearGradient id="paint1_linear" x1="7.37412e-07" y1="-129.453" x2="68.7574" y2="-125.828" gradientUnits="userSpaceOnUse">
<stop stop-color="#A237A4"/>
<stop offset="1" stop-color="#4A154B"/>
</linearGradient>
<linearGradient id="paint2_linear" x1="61.4678" y1="-129.432" x2="130.203" y2="-125.808" gradientUnits="userSpaceOnUse">
<stop stop-color="#A237A4"/>
<stop offset="1" stop-color="#4A154B"/>
</linearGradient>
<linearGradient id="paint3_linear" x1="58.1111" y1="105.342" x2="156.438" y2="105.342" gradientUnits="userSpaceOnUse">
<stop offset="0.00396825" stop-color="#FCEFFF"/>
<stop offset="0.2807" stop-color="#EDE1F0"/>
<stop offset="0.6443" stop-color="#E1D6E4"/>
<stop offset="1" stop-color="#DDD2E0"/>
</linearGradient>
</defs>
</svg>
