<svg width="194" height="118" viewBox="0 0 194 118" fill="none" xmlns="http://www.w3.org/2000/svg">
<path d="M6.00488 85.6231C6.00488 85.6231 21.9353 100.652 83.9128 114.771C90.9866 116.531 131.724 119.181 142.344 117.421C152.964 115.661 186.608 114.771 191.918 100.632C197.228 86.4935 183.1 84.4046 175.135 75.5655C167.15 66.7263 83.0407 67.9255 74.2034 66.7263C65.3661 65.5271 92.9633 45.934 87.0912 49.4348C81.2384 52.9357 6.00488 85.6231 6.00488 85.6231Z" fill="url(#paint0_linear)"/>
<path d="M103.72 13.5167C103.72 13.5167 79.3203 35.5082 67.5178 36.6881C55.7153 37.8679 1.02472 75.5649 1.02472 75.5649C1.02472 75.5649 -0.15747 82.6246 5.34647 85.3905C10.8504 88.137 67.324 102.082 80.8901 107.769C89.146 113.262 93.4871 109.742 94.6693 107.382C95.6577 105.39 123.081 82.3732 131.55 75.2748C133.1 73.9789 134.302 72.3348 135.057 70.4587C137.79 63.6697 145.891 46.1462 158.972 39.3766C161.55 38.042 161.298 34.2704 158.546 33.3033L146.608 29.1448C144.612 28.4485 142.422 28.6419 140.581 29.667L99.7856 52.3742L120.173 23.4584C121.201 21.9884 120.58 19.9575 118.914 19.3192L103.72 13.5167Z" fill="#FCBB00"/>
<path d="M160.386 33.9229L152.905 31.1764L93.0985 79.8788L49.0669 67.4614L113.951 17.0376L107.653 15.0841L41.2568 65.2565L23.4659 60.2276L10.0742 69.6664L93.0985 93.6114L105.696 97.1509L116.316 87.7315L103.544 84.3467L160.386 33.9229Z" fill="#9898BF"/>
<path d="M76.0251 75.0628C76.4708 74.8307 76.9166 74.6179 77.3623 74.3858C85.1725 70.3241 100.773 62.2199 101.355 59.4734C101.936 56.7269 86.6066 48.4873 84.436 47.6943C83.6221 47.4042 79.4554 47.5202 74.2809 47.8877L49.0674 67.4615L76.0251 75.0628Z" fill="#FFA100"/>
<path d="M9.2998 71.4268C9.2998 71.4268 38.0211 82.4129 44.7072 81.8326C47.4786 82.2001 50.2306 82.2388 52.9631 82.026L11.7417 70.1309C10.1913 70.9432 9.2998 71.4268 9.2998 71.4268Z" fill="#FFA100"/>
<path d="M62.9428 48.8547C57.8071 49.4156 53.2334 50.0539 51.1985 50.6148C48.3496 51.3885 37.9231 56.5721 28.1943 61.5622L41.2565 65.2371L62.9428 48.8547Z" fill="#FFA100"/>
<path d="M23.467 60.2285L10.0947 69.6479L11.742 70.1315C15.0948 68.352 21.4902 65.0059 28.1957 61.5631L23.467 60.2285Z" fill="#9898BF"/>
<path d="M49.0674 67.4613L74.3003 47.8682C70.7344 48.1196 66.7033 48.4678 62.963 48.8739L41.2766 65.2563L28.2144 61.5814C21.5089 65.0243 15.1135 68.3704 11.7607 70.1498L53.0016 82.0449C61.3544 81.4067 69.3778 78.4087 76.0639 75.0626L49.0674 67.4613Z" fill="#7F7EA4"/>
<path d="M17.3623 58.0801C17.3623 58.0801 19.9205 25.8762 39.0099 19.9963C52.7891 15.2769 65.7738 16.4568 76.3941 23.5358C83.4678 29.435 88.9911 48.6607 89.3787 56.1266C89.7663 63.5925 51.2193 70.4588 41.3742 69.6658C31.5292 68.8728 17.3623 58.0801 17.3623 58.0801Z" fill="#E8E8E8"/>
<path d="M58.1952 66.0485C33.2142 66.6481 21.121 60.6909 16.528 57.5382C16.2566 57.867 18.5629 53.96 18.3497 53.96C16.1791 55.2365 11.0628 60.4394 7.92319 63.3794C6.39217 64.6172 7.41931 70.0329 9.29918 70.6518C17.9621 73.4564 33.2917 80.168 52.7687 80.4581C75.5985 74.172 89.3583 56.1069 89.3583 56.1069C86.1606 60.0333 62.5557 66.8609 58.1952 66.0485Z" fill="#F1F1F1"/>
<path d="M58.1945 66.049C57.7488 65.9717 57.4968 65.7976 57.4968 65.5462C57.4968 62.7996 53.1751 53.4769 49.6285 49.4539C48.834 40.4213 57.9813 27.9459 73.8343 21.9693C67.1481 18.836 57.71 13.9232 39.0082 19.9965C32.3221 22.743 28.7756 46.7073 26.8182 47.0942C21.0623 47.7711 18.2134 55.4305 16.5273 57.5387C21.1204 60.6721 33.1942 66.6293 58.1945 66.049Z" fill="#F1F1F1"/>
<path d="M118.488 52.9742C115.93 50.8079 115.348 54.7343 112.984 54.5409C110.62 54.3475 95.8714 56.5138 95.0769 56.7072C94.2823 56.9006 87.4023 61.4266 87.4023 61.4266C87.4023 61.4266 90.29 67.1904 104.825 70.3431L121.802 56.5331C120.31 54.7923 119.089 53.4964 118.488 52.9742Z" fill="#FFA100"/>
<path d="M117.44 72.026C121.859 72.3355 126.879 72.4128 132.634 72.2194C133.41 71.6392 130.638 67.5387 127.324 63.2449L117.44 72.026Z" fill="#FFA100"/>
<path d="M121.801 56.4939L104.824 70.3039C108.313 71.0582 112.479 71.6578 117.441 72.0059L127.325 63.2248C125.483 60.8651 123.487 58.4281 121.801 56.4939Z" fill="#717196"/>
<path d="M109.224 44.9275C109.224 44.9275 87.0918 48.7571 87.0918 59.3564C87.0918 69.9557 126.336 72.6055 128.701 69.3754C131.065 66.126 114.553 45.5077 109.224 44.9275Z" fill="#7F7EA4"/>
<path d="M107.751 52.8772C107.751 52.8772 100.367 53.4574 100.076 48.4673C99.8242 49.3763 99.5335 27.1527 94.4753 20.1897C90.0567 16.9596 92.7118 14.0004 94.766 14.5999C96.8397 15.1802 103.332 43.7479 102.731 46.7072C105.406 49.3376 109.534 51.9875 107.751 52.8772Z" fill="#717196"/>
<path d="M74.3196 1.83475C71.2382 7.52121 87.0136 20.983 93.1958 19.5131C100.87 17.753 88.7772 6.264 86.4128 4.19444C84.0484 2.12488 78.1569 -2.5945 74.3196 1.83475Z" fill="#E01E5A"/>
<path d="M55.2884 67.5968C32.8075 67.5968 16.315 59.0671 16.1406 58.9898L16.6833 57.9453C16.8577 58.042 33.6409 66.7264 56.3931 66.417L56.4125 67.5968C56.0442 67.5968 55.6566 67.5968 55.2884 67.5968Z" fill="#E8E8E8"/>
<defs>
<linearGradient id="paint0_linear" x1="6.00136" y1="83.5146" x2="193.063" y2="83.5146" gradientUnits="userSpaceOnUse">
<stop offset="0.00396825" stop-color="#FCEFFF"/>
<stop offset="0.2807" stop-color="#EDE1F0"/>
<stop offset="0.6443" stop-color="#E1D6E4"/>
<stop offset="1" stop-color="#DDD2E0"/>
</linearGradient>
</defs>
</svg>
