<svg width="171" height="117" viewBox="0 0 171 117" fill="none" xmlns="http://www.w3.org/2000/svg">
<path d="M10.3998 84.4947C6.28103 85.4442 22.0698 105.487 45.2208 113.134C45.2723 113.151 83.6973 125.477 169.677 106.022C175.392 98.3569 113.078 81.5772 94.9897 82.544C83.7488 83.1309 38.871 85.3751 10.3998 84.4947Z" fill="url(#paint0_linear)"/>
<path d="M30.067 1.42432H28.1621V13.3186H30.067V1.42432Z" fill="#7F7EA4"/>
<path d="M50.8493 1.42432H48.9443V13.3186H50.8493V1.42432Z" fill="#7F7EA4"/>
<path d="M18.0202 79.0562H10.4004V84.4768H18.0202V79.0562Z" fill="#651F66"/>
<path d="M69.7282 79.3843H62.1084V84.8049H69.7282V79.3843Z" fill="#651F66"/>
<path d="M78.9779 80.5753H3.20923C1.44158 80.5753 0 79.1425 0 77.3644V16.1496C0 14.3715 1.44158 12.9214 3.20923 12.9214H78.9779C80.7456 12.9214 82.1871 14.3715 82.1871 16.1496V77.3644C82.17 79.1425 80.7456 80.5753 78.9779 80.5753Z" fill="#9898BF"/>
<path d="M70.9282 73.9466H11.2571C9.48943 73.9466 8.04785 72.4965 8.04785 70.7184V22.7616C8.04785 20.9835 9.48943 19.5334 11.2571 19.5334H70.9282C72.6958 19.5334 74.1374 20.9835 74.1374 22.7616V70.7184C74.1202 72.5138 72.6958 73.9466 70.9282 73.9466Z" fill="#C9CCE2"/>
<path d="M45.8553 7.41444C41.7536 7.41444 35.6956 7.32813 26.6685 7.19002C24.7121 7.1555 23.1332 5.53277 23.1675 3.54752C23.1847 1.56227 24.8322 -0.00867097 26.7887 0.00859209C36.1074 0.146697 49.8539 0.267538 52.1021 0.0949074C53.2691 -0.181302 54.5219 0.146696 55.4315 1.06164C56.8216 2.45995 56.8216 4.73867 55.4315 6.13698C54.5047 7.06918 54.1615 7.41444 45.8553 7.41444ZM50.3859 1.04438C50.3859 1.06164 50.3859 1.06164 50.3859 1.04438C50.3859 1.06164 50.3859 1.06164 50.3859 1.04438ZM50.4031 1.04438C50.3859 1.04438 50.3859 1.04438 50.4031 1.04438C50.3859 1.04438 50.3859 1.04438 50.4031 1.04438Z" fill="#651F66"/>
<path d="M54.884 40.8529H46.9553V32.8601H35.2168V40.8529H27.2881V52.6608H35.2168V60.6364H46.9553V52.6608H54.884V40.8529Z" fill="#E01E5A"/>
<path d="M140.434 44.9417C131.201 29.2496 102.798 28.9907 76.97 44.3548C51.1417 59.7189 37.687 84.8884 46.9028 100.581C56.1358 116.273 88.0221 117.913 113.85 102.549C139.679 87.1844 149.65 60.6338 140.434 44.9417ZM97.0492 78.9327C84.7957 86.2177 72.1304 87.4952 68.7668 81.7638C66.2612 77.9832 73.5205 66.4342 85.774 59.1492C98.0274 51.8642 110.212 51.6571 113.147 55.3686C116.51 61.0827 109.303 71.6477 97.0492 78.9327Z" fill="#F1F1F1"/>
<path d="M141.619 66.4847C141.619 65.8633 134.875 54.1244 113.989 58.4401C114.058 62.0826 111.552 66.6574 107.228 71.0767C119.55 76.808 125.059 86.3545 127.375 92.224C135.579 84.2139 140.813 74.9954 142.855 66.2085C142.066 66.4675 141.619 66.571 141.619 66.4847Z" fill="#E01E5A"/>
<path d="M90.8894 56.5072C97.6167 53.5034 103.932 52.5712 108.223 53.1755C108.6 49.2913 111.054 37.1899 126.654 34.7212C116.409 31.5448 102.662 32.805 88.7098 38.5019C88.0748 44.613 89.6366 51.898 90.8894 56.5072Z" fill="#E01E5A"/>
<path d="M69.0246 76.5669C70.1401 73.7876 72.4398 70.404 75.6662 67.0895C68.3725 61.3409 66.0385 56.0584 65.4207 52.5022C55.0207 61.2028 47.8815 71.4743 45.1699 81.1244C49.958 78.017 57.5435 75.3067 69.0246 76.5669Z" fill="#E01E5A"/>
<path d="M88.6744 82.9885C81.621 85.6298 75.2025 86.0959 71.4269 84.1797C65.3689 87.0453 56.5993 93.6571 54.6943 108.158C64.0989 113.734 78.7206 114.839 93.7028 110.955C88.7259 98.4735 88.2969 88.4782 88.6744 82.9885Z" fill="#E01E5A"/>
<defs>
<linearGradient id="paint0_linear" x1="9.74005" y1="99.7486" x2="170.043" y2="99.7486" gradientUnits="userSpaceOnUse">
<stop offset="0.00396825" stop-color="#FCEFFF"/>
<stop offset="0.2807" stop-color="#EDE1F0"/>
<stop offset="0.6443" stop-color="#E1D6E4"/>
<stop offset="1" stop-color="#DDD2E0"/>
</linearGradient>
</defs>
</svg>
