<svg width="112" height="118" viewBox="0 0 112 118" fill="none" xmlns="http://www.w3.org/2000/svg">
<path d="M0.343856 93.8927C0.343856 93.8927 2.28958 98.8215 6.41586 101.571C10.5421 104.32 37.6034 117.62 43.5635 115.776C49.5237 113.932 90.8089 115.318 101.354 109.361C111.899 103.404 114.65 93.3115 109.148 89.6457C91.7258 82.3252 4.47013 89.3104 1.71928 88.8522C-1.03157 88.394 0.343856 93.8927 0.343856 93.8927Z" fill="url(#paint0_linear)"/>
<path d="M73.061 14.261H18.167V90.696H73.061V14.261Z" fill="#F1F1F1"/>
<path d="M55.8407 8.9299C55.0355 7.6558 53.6266 6.79522 52.0051 6.79522H51.6026C51.6026 3.03997 48.2031 0 44.0098 0C39.8164 0 36.417 3.03997 36.417 6.79522H34.6837C33.0623 6.79522 31.6421 7.64462 30.8482 8.9299H12.0283V16.1163H30.1437V17.7145H56.5228V16.1163H76.2596V8.9299H55.8407ZM43.7414 11.3328C42.12 11.3328 40.8116 10.0252 40.8116 8.40461C40.8116 6.78404 42.12 5.47641 43.7414 5.47641C45.3628 5.47641 46.6712 6.78404 46.6712 8.40461C46.6712 10.0252 45.3628 11.3328 43.7414 11.3328Z" fill="#963298"/>
<path d="M66.1288 38.6924H24.0273V41.4865H66.1288V38.6924Z" fill="#BFC1DD"/>
<path d="M63.1986 45.8899H31.7539V48.684H63.1986V45.8899Z" fill="#BFC1DD"/>
<path d="M65.3241 60.0054H29.3506V62.7995H65.3241V60.0054Z" fill="#BFC1DD"/>
<path d="M67.1902 68.7905H30.9482V71.5846H67.1902V68.7905Z" fill="#BFC1DD"/>
<path d="M4.30078 55.2783V94.6973C4.30078 94.6973 12.0278 98.9555 24.8203 96.0273V55.8036L4.30078 55.2783Z" fill="#00BCF8"/>
<path d="M27.5493 48.0803H1.2373V57.4014H27.5493V48.0803Z" fill="#E8E8E8"/>
<path d="M59.1844 108.455C57.1828 108.455 55.2035 107.762 53.4703 106.388C51.5581 106.757 49.5229 106.879 47.689 106.801C40.9908 106.522 33.7223 100.934 33.4092 100.688L34.8852 98.8101C34.9523 98.866 41.863 104.175 47.7896 104.421C49.0197 104.477 50.2498 104.421 51.4239 104.287C50.0261 102.375 49.4223 100.207 49.959 98.5195L50.0038 98.3743L50.082 98.2513C51.2562 96.396 53.4367 95.4013 55.7626 95.6584C58.0662 95.9155 59.9672 97.3796 60.7164 99.4807C61.1637 100.744 60.9848 101.984 60.1797 103.08C59.4193 104.119 58.1445 104.924 56.6237 105.516C58.0998 106.153 60.202 106.488 62.595 105.114C68.8012 101.537 68.3987 95.3902 68.3987 95.3231L70.7917 95.1443C70.8141 95.4572 71.2949 102.867 63.8027 107.192C62.3155 108.042 60.75 108.455 59.1844 108.455ZM52.2067 99.3913C51.9718 100.453 52.6763 102.286 54.1412 103.795C56.0758 103.303 57.5965 102.554 58.2563 101.66C58.5806 101.213 58.6477 100.8 58.4688 100.297C58.0215 99.0448 56.9144 98.1954 55.5166 98.0501C54.1636 97.8937 52.9112 98.4078 52.2067 99.3913Z" fill="#7F7EA4"/>
<path d="M3.77637 63.5378C3.77637 63.5378 22.6969 64.3314 25.0899 63.5378L25.28 86.9747C25.28 86.9747 5.85628 88.3494 3.98883 86.2147L3.77637 63.5378Z" fill="#E8E8E8"/>
<path d="M28.5562 92.831C28.5562 92.831 17.3626 93.8927 19.4985 99.7603C21.6343 105.617 30.4236 103.493 31.7543 103.225C33.085 102.957 36.9541 100.699 35.7464 96.5639C33.2192 92.4286 28.5562 92.831 28.5562 92.831Z" fill="#651F66"/>
<path d="M27.2246 99.4807C30.6089 99.4807 33.3525 97.6943 33.3525 95.4907C33.3525 93.2871 30.6089 91.5007 27.2246 91.5007C23.8402 91.5007 21.0967 93.2871 21.0967 95.4907C21.0967 97.6943 23.8402 99.4807 27.2246 99.4807Z" fill="#983299"/>
<path d="M79.9614 102.912C79.3911 102.912 78.8879 102.878 78.4518 102.8L78.3511 102.778C72.3574 101.213 63.2438 93.0876 64.1496 86.7953C64.7311 82.7272 71.7312 77.5078 74.7169 75.4625C79.4246 72.2214 85.6644 68.8908 88.9967 68.7232C91.8706 68.5891 93.738 69.0808 94.6997 70.2208C95.4936 71.1596 95.3259 72.1208 95.2812 72.3108L92.9441 71.7967C92.9329 71.8637 92.9329 71.8973 92.9329 71.8973C92.9329 71.8861 92.9217 71.819 92.8211 71.7184C92.631 71.5508 91.8147 70.992 89.1197 71.1261C83.741 71.3832 67.2136 82.403 66.5314 87.1418C65.8493 91.9365 73.9565 99.1117 78.9214 100.453C84.9263 101.436 104.227 94.4176 107.492 90.07C108.599 87.9689 108.543 85.7112 107.313 84.0236C106.553 82.973 105.435 82.3472 104.596 82.4925L104.171 80.1342C105.938 79.8101 107.94 80.7825 109.259 82.6154C111.048 85.0854 111.16 88.3265 109.561 91.2771L109.483 91.4112C105.848 96.4294 87.543 102.912 79.9614 102.912Z" fill="#7F7EA4"/>
<path d="M91.523 75.1607C92.0821 75.7866 92.8648 76.1554 93.7035 76.2001C94.8217 76.2448 96.3425 76.0548 96.5103 74.7248C96.7786 72.5901 94.3744 69.9302 91.7131 71.7966C90.0693 72.9366 90.7514 74.2889 91.523 75.1607Z" fill="#651F66"/>
<path d="M102.773 79.2517C102.773 79.2517 97.9754 79.2517 98.7805 81.6435C99.5745 84.0352 102.515 85.6334 103.846 84.0352C105.177 82.437 106.776 81.9005 106.239 80.5705C105.702 79.2517 102.773 79.2517 102.773 79.2517Z" fill="#651F66"/>
<path d="M49.2994 118C52.9802 118 55.9641 116.094 55.9641 113.742C55.9641 111.39 52.9802 109.484 49.2994 109.484C45.6186 109.484 42.6348 111.39 42.6348 113.742C42.6348 116.094 45.6186 118 49.2994 118Z" fill="#BFC1DD"/>
<path d="M49.6344 116.525C53.3152 116.525 56.2991 114.618 56.2991 112.266C56.2991 109.915 53.3152 108.008 49.6344 108.008C45.9536 108.008 42.9697 109.915 42.9697 112.266C42.9697 114.618 45.9536 116.525 49.6344 116.525Z" fill="#F7F7F7"/>
<path d="M76.0018 105.404L70.7014 105.784C68.7893 105.918 67.3579 107.572 67.4921 109.483C67.6263 111.395 69.2813 112.825 71.1935 112.691L77.6233 112.233C78.2383 108.656 77.0753 106.544 76.0018 105.404Z" fill="#F1F1F1"/>
<path d="M86.3568 108.131C86.2226 106.22 84.5676 104.79 82.6554 104.924L76.002 105.404C77.0755 106.544 78.2384 108.657 77.6234 112.233L83.1474 111.842C85.0596 111.697 86.491 110.043 86.3568 108.131Z" fill="#2EB67D"/>
<path d="M51.3679 114.96C51.189 114.96 51.0101 114.881 50.8983 114.736L46.9062 109.673C46.7049 109.416 46.7496 109.036 47.0068 108.835C47.264 108.634 47.6442 108.679 47.8455 108.936L51.8376 113.999C52.0389 114.256 51.9942 114.636 51.737 114.837C51.6363 114.915 51.5021 114.96 51.3679 114.96Z" fill="#BFC1DD"/>
<path d="M24.5869 23.8062H26.5215C27.5838 23.8062 28.333 23.8956 28.7803 24.0856C29.2276 24.2756 29.5854 24.5885 29.865 25.0244C30.1333 25.4603 30.2787 25.9855 30.2787 26.5779C30.2787 27.2038 30.1222 27.7291 29.8202 28.1538C29.5183 28.5785 29.0598 28.9026 28.456 29.1149L30.726 33.3731H28.7355L26.5774 29.3161H26.4096V33.3731H24.5869V23.8062ZM26.4096 27.5502H26.9799C27.5614 27.5502 27.964 27.472 28.1764 27.3267C28.4001 27.1702 28.5007 26.9244 28.5007 26.5667C28.5007 26.3544 28.4448 26.1755 28.333 26.0191C28.2212 25.8626 28.0758 25.7508 27.8969 25.6838C27.718 25.6167 27.3825 25.5832 26.9017 25.5832H26.3984V27.5502H26.4096Z" fill="#CA3541"/>
<path d="M31.5753 23.8059H33.6329L35.6457 26.8794L37.6697 23.8059H39.716L36.6744 28.4553L39.9061 33.3952H37.8486L35.6457 30.0311L33.4428 33.3952H31.374L34.6169 28.4553L31.5753 23.8059Z" fill="#CA3541"/>
<defs>
<linearGradient id="paint0_linear" x1="-0.00279497" y1="101.12" x2="111.923" y2="101.12" gradientUnits="userSpaceOnUse">
<stop offset="0.00396825" stop-color="#FCEFFF"/>
<stop offset="0.2807" stop-color="#EDE1F0"/>
<stop offset="0.6443" stop-color="#E1D6E4"/>
<stop offset="1" stop-color="#DDD2E0"/>
</linearGradient>
</defs>
</svg>
