<svg width="101" height="68" viewBox="0 0 101 68" fill="none" xmlns="http://www.w3.org/2000/svg">
<path d="M97.1958 59.9548C89.0695 53.2719 63.7036 55.8809 58.6285 55.6802C55.8089 55.5698 47.7732 56.1417 41.0969 56.8843C31.5709 55.7002 11.0184 56.8943 9.6791 56.8943C7.84639 56.8943 6.1748 58.4095 6.1748 58.4095C6.1748 58.4095 19.1649 60.4264 30.292 61.0184C29.8187 62.9249 29.3756 65.1927 29.3756 65.1927C29.3756 65.1927 83.6922 68.1026 88.9688 67.7012C94.2554 67.2898 105.322 66.6276 97.1958 59.9548Z" fill="url(#paint0_linear)"/>
<path d="M76.9049 28.3466H29.0733C28.4892 28.3466 28.0059 29.2698 28.0059 28.6778V19.687C28.0059 14.7502 32.0338 10.7264 36.9982 10.7264H68.99C73.9443 10.7264 77.9823 14.7401 77.9823 21.4731V29.0591C77.9723 27.875 77.499 28.3466 76.9049 28.3466ZM30.1407 26.2194H75.8375V19.6971C75.8375 15.9342 72.7662 12.8637 68.9799 12.8637H36.9982C33.222 12.8637 30.1407 15.9242 30.1407 19.6971V26.2194Z" fill="#C9CCE2"/>
<path d="M72.8763 27.5343H33.1006V17.2592C33.1006 15.8143 34.2687 14.6503 35.7187 14.6503H70.2582C71.7082 14.6503 72.8763 15.8143 72.8763 17.2592V27.5343Z" fill="#963298"/>
<path d="M27.5528 42.5152C28.0059 42.0637 78.3348 42.5152 78.3348 42.5152L78.1334 36.1535L71.2255 26.5206L34.0579 26.922L27.0996 35.1701C27.0996 35.1802 27.15 42.9166 27.5528 42.5152Z" fill="#963298"/>
<path d="M77.5289 42.6556H27.5424C27.2101 42.6556 26.9482 42.3947 26.9482 42.0636V34.9493C26.9482 34.6181 27.2101 34.3573 27.5424 34.3573H77.539C77.8713 34.3573 78.1331 34.6181 78.1331 34.9493V42.0636C78.123 42.3947 77.8612 42.6556 77.5289 42.6556Z" fill="#4A154B"/>
<path d="M73.6318 28.126C76.8239 28.126 79.4219 30.7148 79.4219 33.8957V42.4148H26.4043V33.8957C26.4043 30.7148 29.0023 28.126 32.1945 28.126H73.6318ZM73.6318 25.9987H32.1945C27.8242 25.9987 24.2695 29.5308 24.2695 33.8957V44.5421H81.5466V33.8957C81.5466 29.5308 78.0021 25.9987 73.6318 25.9987Z" fill="#9898BF"/>
<path d="M78.9387 44.4418H25.7197V47.8835H78.9387V44.4418Z" fill="#7F7EA4"/>
<path d="M32.0135 44.6422H29.1738V61.8409H32.0135V44.6422Z" fill="#7F7EA4"/>
<path d="M75.7166 44.6422H72.877V61.8409H75.7166V44.6422Z" fill="#7F7EA4"/>
<path d="M31.8218 66.6077C33.5625 66.6077 34.9736 65.2015 34.9736 63.4669C34.9736 61.7324 33.5625 60.3262 31.8218 60.3262C30.0811 60.3262 28.6699 61.7324 28.6699 63.4669C28.6699 65.2015 30.0811 66.6077 31.8218 66.6077Z" fill="#9898BF"/>
<path d="M72.8462 66.4067C74.5869 66.4067 75.998 65.0005 75.998 63.2659C75.998 61.5314 74.5869 60.1252 72.8462 60.1252C71.1055 60.1252 69.6943 61.5314 69.6943 63.2659C69.6943 65.0005 71.1055 66.4067 72.8462 66.4067Z" fill="#9898BF"/>
<path d="M18.4187 20.2492H7.85547V55.8709H18.4187V20.2492Z" fill="#E2E2E2"/>
<path d="M26.4448 16.8275H1.08901C0.535173 16.8275 0.0820312 16.3759 0.0820312 15.824V0H27.4518V15.824C27.4518 16.3759 26.9986 16.8275 26.4448 16.8275Z" fill="#E2E2E2"/>
<path d="M24.3505 22.3963H3.18374C2.6299 22.3963 2.17676 21.9448 2.17676 21.3929V16.8273H25.3575V21.3929C25.3575 21.9448 24.9043 22.3963 24.3505 22.3963Z" fill="#C9CCE2"/>
<path d="M25.3577 2.43842H5.20801V14.5096H25.3577V2.43842Z" fill="#9898BF"/>
<path d="M25.3577 11.9104H5.20801V14.4993H25.3577V11.9104Z" fill="#00BCF8"/>
<path d="M3.18366 14.9208C3.84547 14.9208 4.38197 14.3862 4.38197 13.7267C4.38197 13.0673 3.84547 12.5327 3.18366 12.5327C2.52185 12.5327 1.98535 13.0673 1.98535 13.7267C1.98535 14.3862 2.52185 14.9208 3.18366 14.9208Z" fill="#B7B7B7"/>
<path d="M6.1748 58.0785L20.2423 58.0083C16.6474 52.048 10.1423 51.9075 6.41648 57.7173C6.29564 57.8979 6.21508 58.0183 6.1748 58.0785Z" fill="#C9CCE2"/>
<path d="M37.461 27.1328H35.3262V43.9803H37.461V27.1328Z" fill="#9898BF"/>
<path d="M48.2764 27.3333H46.1416V44.1808H48.2764V27.3333Z" fill="#9898BF"/>
<path d="M59.6944 27.183H57.5596V44.0305H59.6944V27.183Z" fill="#9898BF"/>
<path d="M70.9737 27.3333H68.8389V44.1808H70.9737V27.3333Z" fill="#9898BF"/>
<defs>
<linearGradient id="paint0_linear" x1="6.17598" y1="61.5349" x2="100.085" y2="61.5349" gradientUnits="userSpaceOnUse">
<stop offset="0.00396825" stop-color="#FCEFFF"/>
<stop offset="0.2807" stop-color="#EDE1F0"/>
<stop offset="0.6443" stop-color="#E1D6E4"/>
<stop offset="1" stop-color="#DDD2E0"/>
</linearGradient>
</defs>
</svg>
