<svg width="774" height="649" viewBox="0 0 774 649" fill="none" xmlns="http://www.w3.org/2000/svg">
<path d="M746.154 49.9235L743.863 78.9621L213.043 42.5384L215.761 8.08961C215.944 5.76854 217.042 3.61542 218.813 2.10354C220.584 0.591657 222.882 -0.155262 225.203 0.0269597L738.091 40.4807C740.412 40.6645 742.565 41.7624 744.077 43.5331C745.589 45.3038 746.336 47.6023 746.154 49.9235Z" fill="#00BCF8"/>
<g filter="url(#filter0_d)">
<path d="M743.863 78.9621L716.418 426.911C716.234 429.231 715.136 431.384 713.366 432.896C711.596 434.408 709.298 435.155 706.977 434.973L194.087 394.52C191.766 394.335 189.614 393.237 188.103 391.466C186.591 389.696 185.845 387.397 186.027 385.077L213.043 42.546L743.863 78.9621Z" fill="white"/>
</g>
<path d="M306.83 18.0073L284.858 16.2742L283.26 36.5348L305.232 38.2679L306.83 18.0073Z" fill="white"/>
<path d="M677.541 45.5608L380.239 22.1105L378.641 42.371L675.943 65.8214L677.541 45.5608Z" fill="white"/>
<path d="M297.072 35.7882L289.421 26.8272L298.382 19.1761L299.694 20.7118L292.269 27.0505L298.608 34.4758L297.072 35.7882Z" fill="#FAFAFA"/>
<path d="M307.107 38.4129L329.079 40.146L330.677 19.8854L308.706 18.1524L307.107 38.4129Z" fill="white"/>
<path d="M315.554 37.2461L324.515 29.595L316.864 20.634L315.328 21.9464L321.667 29.3692L314.244 35.7104L315.554 37.2461Z" fill="#FAFAFA"/>
<path d="M395.807 40.5033L392.72 35.1709C393.691 34.4108 394.338 33.3105 394.53 32.092C394.722 30.8736 394.444 29.6278 393.753 28.6062C393.062 27.5845 392.009 26.8631 390.807 26.5875C389.605 26.3119 388.343 26.5026 387.275 27.1212C386.208 27.7398 385.416 28.7403 385.058 29.9205C384.699 31.1008 384.802 32.3729 385.346 33.4803C385.889 34.5876 386.832 35.4476 387.985 35.8867C389.137 36.3257 390.413 36.3112 391.556 35.8459L394.642 41.1783L395.807 40.5033ZM386.256 31.0931C386.312 30.4048 386.57 29.7485 386.999 29.207C387.427 28.6656 388.007 28.2633 388.664 28.051C389.321 27.8388 390.026 27.826 390.691 28.0144C391.355 28.2029 391.949 28.584 392.396 29.1096C392.844 29.6353 393.126 30.2818 393.207 30.9677C393.287 31.6535 393.163 32.3479 392.849 32.9629C392.535 33.578 392.046 34.0862 391.443 34.4234C390.84 34.7605 390.151 34.9115 389.463 34.8572C388.539 34.783 387.682 34.3448 387.08 33.639C386.479 32.9332 386.182 32.0175 386.256 31.0931Z" fill="#FAFAFA"/>
<path d="M391.917 174.462L246.598 163L245.888 171.992L391.208 183.454L391.917 174.462Z" fill="#FAFAFA"/>
<path d="M427.197 198.023L244.97 183.649L244.752 186.406L426.979 200.78L427.197 198.023Z" fill="#FAFAFA"/>
<path d="M426.822 202.806L244.595 188.433L244.377 191.189L426.604 205.563L426.822 202.806Z" fill="#FAFAFA"/>
<path d="M415.665 207.593L244.203 194.069L243.986 196.826L415.448 210.35L415.665 207.593Z" fill="#FAFAFA"/>
<path d="M426.321 214.79L243.528 200.166L243.307 202.932L426.1 217.555L426.321 214.79Z" fill="#FAFAFA"/>
<path d="M381.717 216.045L243.146 204.959L242.925 207.725L381.496 218.81L381.717 216.045Z" fill="#FAFAFA"/>
<path d="M425.311 224.64L243.084 210.266L242.867 213.023L425.093 227.396L425.311 224.64Z" fill="#FAFAFA"/>
<path d="M424.933 229.423L242.706 215.049L242.489 217.806L424.715 232.18L424.933 229.423Z" fill="#FAFAFA"/>
<path d="M424.176 233.607L241.949 219.233L241.732 221.99L423.959 236.364L424.176 233.607Z" fill="#FAFAFA"/>
<path d="M399.589 236.235L241.222 223.565L241 226.331L399.368 239L399.589 236.235Z" fill="#FAFAFA"/>
<path d="M644.917 191.462L499.598 180L498.751 190.732L644.071 202.194L644.917 191.462Z" fill="#FAFAFA"/>
<path d="M680.197 215.023L497.97 200.649L497.752 203.406L679.979 217.78L680.197 215.023Z" fill="#FAFAFA"/>
<path d="M679.822 219.806L497.595 205.433L497.377 208.189L679.604 222.563L679.822 219.806Z" fill="#FAFAFA"/>
<path d="M668.665 224.593L497.203 211.069L496.986 213.826L668.448 227.35L668.665 224.593Z" fill="#FAFAFA"/>
<path d="M679.321 231.79L496.528 217.166L496.307 219.932L679.1 234.555L679.321 231.79Z" fill="#FAFAFA"/>
<path d="M634.717 233.045L496.146 221.959L495.925 224.725L634.496 235.81L634.717 233.045Z" fill="#FAFAFA"/>
<path d="M678.311 241.64L496.084 227.266L495.867 230.023L678.093 244.396L678.311 241.64Z" fill="#FAFAFA"/>
<path d="M677.933 246.423L495.706 232.049L495.489 234.806L677.715 249.18L677.933 246.423Z" fill="#FAFAFA"/>
<path d="M677.176 250.607L494.949 236.233L494.732 238.99L676.959 253.364L677.176 250.607Z" fill="#FAFAFA"/>
<path d="M652.589 253.235L494.222 240.565L494 243.331L652.368 256L652.589 253.235Z" fill="#FAFAFA"/>
<path d="M382.917 275.462L237.598 264L236.854 273.426L382.174 284.888L382.917 275.462Z" fill="#FAFAFA"/>
<path d="M418.197 299.023L235.97 284.649L235.752 287.406L417.979 301.78L418.197 299.023Z" fill="#FAFAFA"/>
<path d="M417.822 303.806L235.595 289.433L235.377 292.189L417.604 306.563L417.822 303.806Z" fill="#FAFAFA"/>
<path d="M406.665 308.593L235.203 295.069L234.986 297.826L406.448 311.35L406.665 308.593Z" fill="#FAFAFA"/>
<path d="M417.321 315.79L234.528 301.166L234.307 303.932L417.1 318.555L417.321 315.79Z" fill="#FAFAFA"/>
<path d="M372.717 317.045L234.146 305.959L233.925 308.725L372.496 319.81L372.717 317.045Z" fill="#FAFAFA"/>
<path d="M416.311 325.64L234.084 311.266L233.867 314.023L416.093 328.396L416.311 325.64Z" fill="#FAFAFA"/>
<path d="M415.933 330.423L233.706 316.049L233.489 318.806L415.715 333.18L415.933 330.423Z" fill="#FAFAFA"/>
<path d="M415.176 334.607L232.949 320.233L232.732 322.99L414.959 337.364L415.176 334.607Z" fill="#FAFAFA"/>
<path d="M390.589 337.235L232.222 324.565L232 327.331L390.368 340L390.589 337.235Z" fill="#FAFAFA"/>
<path d="M633.917 300.462L488.598 289L487.871 298.208L633.191 309.671L633.917 300.462Z" fill="#FAFAFA"/>
<path d="M669.197 324.023L486.97 309.649L486.752 312.406L668.979 326.78L669.197 324.023Z" fill="#FAFAFA"/>
<path d="M668.822 328.806L486.595 314.433L486.377 317.189L668.604 331.563L668.822 328.806Z" fill="#FAFAFA"/>
<path d="M657.665 333.593L486.203 320.069L485.986 322.826L657.448 336.35L657.665 333.593Z" fill="#FAFAFA"/>
<path d="M668.321 340.79L485.528 326.166L485.307 328.932L668.1 343.555L668.321 340.79Z" fill="#FAFAFA"/>
<path d="M623.717 342.045L485.146 330.959L484.925 333.725L623.496 344.81L623.717 342.045Z" fill="#FAFAFA"/>
<path d="M667.311 350.64L485.084 336.266L484.867 339.023L667.093 353.396L667.311 350.64Z" fill="#FAFAFA"/>
<path d="M666.933 355.423L484.706 341.049L484.489 343.806L666.715 358.18L666.933 355.423Z" fill="#FAFAFA"/>
<path d="M666.176 359.607L483.949 345.233L483.732 347.99L665.959 362.364L666.176 359.607Z" fill="#FAFAFA"/>
<path d="M641.589 362.235L483.222 349.565L483 352.331L641.368 365L641.589 362.235Z" fill="#FAFAFA"/>
<path opacity="0.5" d="M260.415 559.24C254.148 559.563 247.86 559.478 241.585 559.875C235.416 560.246 229.273 560.961 223.184 562.017C212.396 563.912 202.036 567.528 191.24 569.382C184.035 570.621 176.752 571.35 169.445 571.562C164.138 571.716 154.307 573.197 149.76 569.692C144.266 565.459 152.379 559.639 156.173 558.407C163.49 556.03 170.972 554.196 178.558 552.917C182.09 552.322 187.15 551.626 186.727 547.023C177.426 546.708 166.72 549.65 157.651 551.875C149.099 553.973 140.44 556.216 132.144 559.195C124.435 561.962 117.724 566.337 110.396 569.927C100.36 574.842 92.6005 569.972 82.5638 568.486C72.3366 566.97 61.4772 568.909 52.7976 574.655C43.5386 580.781 37.2849 586.377 25.8646 587.9C21.1822 588.527 16.4046 588.988 12.0132 590.739C5.63245 593.284 1.47386 598.823 0.394527 605.553C-0.790619 612.942 0.566479 622.24 6.21444 627.64C13.0317 634.166 23.4096 635.333 32.7903 634.356C59.6571 631.573 87.0531 625.97 111.952 615.418C127.078 609.011 142.019 602.188 156.773 594.95C164.147 591.331 171.466 587.612 178.73 583.792C185.754 580.102 192.677 578.557 200.422 576.7C209.374 574.551 218.395 572.686 227.482 571.2C237.691 569.533 247.868 566.885 258.241 566.353C260.003 566.261 260.809 559.221 260.415 559.24Z" fill="#BFAAC5"/>
<path d="M339.155 326.524C339.48 326.398 339.279 325.345 339.245 325.101C339.21 324.858 339.115 323.808 338.755 323.763C337.903 323.66 337.071 323.436 336.282 323.099C335.56 322.786 334.896 322.384 334.187 322.064C333.949 321.956 334.044 323.57 334.046 323.599C334.075 323.863 334.107 324.141 334.163 324.424C334.128 324.358 334.142 324.424 334.202 324.601C334.263 324.904 334.391 325.19 334.575 325.437C334.736 325.66 334.931 325.855 335.155 326.014C335.542 326.295 335.966 326.523 336.414 326.691C337.316 327.009 338.29 326.855 339.155 326.524Z" fill="#424242"/>
<path d="M330.105 348.667C330.697 348.513 330.962 347.757 331.137 347.251C332.486 343.344 333.708 339.397 334.938 335.45C336.036 331.926 337.721 327.974 336.734 324.234C336.8 324.498 335.737 325.924 335.584 326.236C335.192 327.03 334.856 327.845 334.525 328.665C333.07 332.368 331.457 335.99 330.219 339.775C329.859 340.873 326.933 349.481 330.105 348.667Z" fill="#424242"/>
<path d="M345.485 324.556C353.77 322.271 355.273 312.887 353.112 305.721C352.384 303.316 351.138 301.044 349.165 299.446C348.99 299.303 348.807 299.16 348.617 299.023C348.514 298.93 348.405 298.843 348.297 298.758C347.807 298.39 347.28 298.072 346.725 297.811C345.776 297.324 344.774 296.948 343.739 296.689C341.744 296.195 339.456 296.409 337.496 296.954C333.528 298.07 330.385 301.361 328.946 305.155C328.183 307.255 327.862 309.491 328.002 311.721C328.142 313.951 328.741 316.129 329.76 318.117C332.747 323.866 339.776 326.133 345.485 324.556ZM340.641 322.495C338.508 322.515 336.408 321.967 334.557 320.908C333.975 320.577 333.42 320.2 332.898 319.781C330.618 317.953 328.946 315.263 328.734 312.35C328.488 308.996 330.194 305.713 332.636 303.401C335.768 300.435 340.281 298.888 344.54 299.798C348.8 300.708 351.895 304.403 352.702 308.631C354.204 316.461 347.649 322.445 340.641 322.495Z" fill="#424242"/>
<path d="M343.376 320.34C345.103 319.751 346.536 318.519 347.376 316.901C347.38 316.857 347.371 316.812 347.35 316.774C345.186 319.509 341.144 321.123 337.792 319.773C338.656 320.168 339.579 320.418 340.525 320.514C341.437 320.612 342.498 320.623 343.376 320.34Z" fill="#424242"/>
<path d="M237.451 396.7C236.83 394.157 235.089 391.888 234.068 389.523C232.327 385.494 230.393 381.586 228.608 377.586C226.92 373.789 225.133 370.059 223.246 366.396C222.716 365.37 222.187 364.338 221.658 363.285C216.008 366.724 208.28 365.957 202.802 362.034C203.651 364.203 204.74 366.27 206.048 368.198C211.447 376.333 217.576 383.822 223.272 391.665C225.968 395.369 228.536 400.271 232.719 401.797C232.917 401.871 233.124 401.935 233.33 401.993C234.388 402.287 235.608 402.16 236.467 401.356C237.597 400.3 237.843 398.329 237.451 396.7Z" fill="#FBB9A7"/>
<path d="M269.726 566.16C259.715 565.212 249.713 564.234 239.721 563.086C238.475 562.943 236.6 562.956 236.251 561.456C236.036 560.53 236.515 559.213 236.679 558.329C236.899 557.16 237.113 555.998 237.333 554.829C237.795 552.369 238.221 549.89 238.795 547.451C239.06 546.282 239.325 545.107 239.668 543.954C239.877 543.29 240.142 542.646 240.462 542.028C240.462 541.525 240.462 541.028 240.462 540.528C240.438 539.494 245.242 539.909 245.853 540.057C249.61 540.962 250.417 544.128 250.668 547.615C250.956 551.583 252.306 554.446 255.647 556.702C261.202 560.453 268.609 560.721 273.551 565.538C274.048 566.04 270.144 566.199 269.726 566.16Z" fill="#424242"/>
<path d="M260.038 459.031C258.827 465.843 254.893 471.639 250.425 476.755C240.97 487.601 228.785 495.464 216.685 503.021C210.601 506.82 204.479 510.566 198.598 514.661C194.146 517.767 177.377 532.2 176.057 517.746C175.774 514.59 177.514 511.661 179.102 509.069C182.642 503.378 186.613 497.966 190.98 492.882C196.85 486.003 203.305 479.628 209.982 473.528C215.458 468.525 222.029 464.726 222.793 456.647C223.537 448.78 220.463 439.981 218.384 432.463C215.148 420.765 211.241 408.998 211.172 396.75C211.138 390.078 212.124 382.922 214.542 376.52C217.717 368.118 224.381 359.873 234.412 364.38C244.359 368.846 248.065 382.48 250.078 392.157C253.102 406.678 256.34 421.225 258.7 435.913C259.917 443.489 261.406 451.383 260.038 459.031Z" fill="url(#paint0_linear)"/>
<path d="M188.918 548.565C185.881 548.642 182.881 548.226 180.736 545.888C178.308 543.242 176.503 539.803 174.533 536.83C173.644 535.491 172.792 534.129 171.935 532.769C171.141 531.528 170.347 530.301 169.554 529.081C169.141 528.457 168.726 527.835 168.308 527.211C168.022 526.785 167.779 526.179 168.342 525.849C168.588 525.701 168.871 525.624 169.136 525.494C169.4 525.365 169.689 525.195 169.956 525.026C171.337 524.142 172.613 523.105 173.76 521.934C175.112 520.545 176.125 518.936 177.276 517.415C178.157 515.677 180.366 515.648 182.011 516.135C185.487 517.161 185.186 521.637 183.286 524.211C182.313 527.409 181.318 530.192 181.911 533.695C182.344 536.284 183.461 538.71 185.148 540.722C186.835 542.733 189.029 544.256 191.503 545.134C192.352 545.43 194.058 545.631 194.487 546.613C195.37 548.631 189.876 548.528 188.918 548.565Z" fill="#424242"/>
<path d="M278.778 455.06C277.85 463.308 275.374 471.385 273.366 479.416C271.323 487.604 269.429 495.818 267.421 504.019C265.414 512.219 263.318 520.386 261.3 528.581C259.763 534.803 259.419 542.501 253.932 546.776C250.893 549.157 247.253 548.02 244.144 546.419C242.483 545.56 240.906 544.544 239.266 543.642C238.502 543.224 235.354 542.356 235.068 541.65C232.968 536.504 236.623 531.314 237.227 526.261C238.272 517.516 237.772 508.778 238.073 500.003C238.451 488.99 238.981 477.969 238.602 466.935C238.449 462.531 238.264 460.642 241.679 457.729C244.274 455.515 247.829 454.026 249.279 450.724C250.337 448.325 249.38 445.981 248.245 443.804C244.221 436.09 238.457 429.563 233.96 422.175C225.875 408.948 220.889 392.678 222.711 377.078C220.727 372.454 222.939 366.655 227.589 364.274C238.436 358.719 250.269 364.01 256.766 373.375C263.498 383.086 267.395 396.451 270.786 407.673C273.072 415.246 275.149 422.934 276.831 430.666C278.561 438.658 279.699 446.901 278.778 455.06Z" fill="#FDBB00"/>
<path d="M224.753 365.177C223.237 362.502 222.01 359.693 222.108 356.524C222.269 351.881 223.695 347.146 224.367 342.545C225.073 337.713 225.618 332.863 226.005 327.995C226.735 318.649 227.465 308.684 225.793 299.393C224.785 293.785 218.735 291.692 213.672 293.261C208.796 294.772 205.735 299.515 204.471 304.229C201.807 314.197 202.04 324.654 197.495 334.154C196.619 335.979 196.27 337.395 197.654 339C199.505 341.146 203.132 342.135 201.77 345.614C200.103 349.892 198.995 353.865 199.691 358.516C199.972 360.365 200.506 362.166 201.278 363.87C208.106 367.994 217.716 368.804 224.753 365.177Z" fill="#E0E0E0"/>
<path d="M270.289 334.302C269.985 320.591 268.747 303.824 257.776 294.036C255.868 292.327 253.752 290.866 251.478 289.687C241.002 287.674 230.224 285.534 219.767 287.949C216.452 289.383 213.198 291.325 209.915 293.658C206.508 296.084 203.212 298.745 202.244 303.025C201.276 307.306 202.495 311.755 204.024 315.7C205.767 320.197 207.966 324.533 209.878 328.964C213.508 337.368 216.463 346.952 213.847 356.09C212.696 360.084 209.722 364.134 211.008 368.46C212.331 372.925 217.378 373.248 221.325 373.306C233.148 373.475 245.015 373.042 256.843 372.904C259.988 372.87 261.308 371.433 262.628 368.634C264.553 364.603 266.157 360.426 267.424 356.143C269.507 349.055 270.473 341.687 270.289 334.302Z" fill="#4A154B"/>
<path d="M282.622 345.722C278.675 344.191 274.786 340.961 275.006 336.831C275.159 334.487 274.948 332.133 274.381 329.852C273.821 327.736 272.418 326.011 271.826 323.89C271.157 321.488 271.016 319.128 271.032 316.639C271.032 313.774 270.934 310.922 270.736 308.073C270.609 307.702 270.471 307.335 270.35 306.962C269.125 303.589 267.763 300.028 265.829 296.996C263.472 293.293 257.099 291.687 253.66 294.663C251.882 296.187 250.85 298.388 249.993 300.568C242.613 319.374 244.036 357.865 270.167 362.261C273.974 362.904 277.913 362.682 281.876 361.931C283.662 356.748 282.381 351.241 282.622 345.722Z" fill="#E0E0E0"/>
<path d="M321.142 344.484C320.417 343.341 319.099 342.916 317.83 342.659C310.108 341.088 302.179 344.127 294.814 345.942C291.873 346.669 288.748 347.037 285.735 346.574C284.67 346.401 283.626 346.116 282.622 345.722C282.381 351.241 283.661 356.748 281.854 361.931C291.727 360.058 301.753 354.865 310.25 351.349C313.531 349.995 316.824 348.667 320.089 347.28C321.483 346.693 322.07 345.95 321.142 344.484Z" fill="#FBB9A7"/>
<path d="M247.578 272.328C246.192 269.529 244.589 267.019 241.711 265.585C239.452 264.458 236.904 264.109 234.402 264.262C233.555 264.315 231.828 264.209 231.373 265.132C231.026 265.844 231.108 266.812 231.05 267.587C230.976 268.889 230.835 270.193 230.695 271.489C230.423 274.172 229.902 276.823 229.14 279.41C228.769 280.648 228.328 281.865 227.817 283.052C227.561 283.65 227.286 284.24 226.992 284.822C226.902 284.999 226.021 286.409 226.084 286.494C226.105 286.523 226.121 286.552 226.14 286.579C228.047 287.827 231.01 288.002 233.203 288.367C236.113 288.854 239.023 289.161 241.975 289.372C242.015 289.372 245.414 289.264 245.187 288.859C243.668 286.214 242.883 282.679 244.877 280.092C245.806 278.888 247.351 278.222 248.166 276.941C249.126 275.442 248.298 273.762 247.578 272.328Z" fill="url(#paint1_linear)"/>
<path d="M337.101 333.662C337.398 333.575 338.043 336.392 338.078 336.678C338.183 337.543 338.038 338.357 337.982 339.212C337.984 339.534 337.892 339.849 337.718 340.119C337.374 340.58 336.355 340.453 335.826 340.561C335.093 340.72 334.378 340.955 333.694 341.265C332.308 341.922 331.018 342.764 329.858 343.767C327.758 345.519 326.327 347.548 323.433 347.839C321.216 348.061 319.184 347.902 316.991 348.561C314.692 349.249 311.965 349.857 309.661 348.825C307.589 347.894 307.497 345.122 306.856 343.241C306.888 343.328 313.774 341.601 314.414 341.408C316.909 340.659 319.425 339.672 321.028 337.529C323.409 334.791 324.467 331.207 328.451 330.511C330.036 330.272 331.648 330.285 333.229 330.551C334.551 330.741 336.424 330.86 337.543 331.678C338.771 332.569 338.12 333.358 337.101 333.662Z" fill="#FBB9A7"/>
<path d="M309.637 344.648C309.547 343.831 309.597 343.024 309.56 342.209C309.536 341.717 308.356 342.048 308.118 342.103C307.364 342.281 306.795 342.307 306.795 343.132C306.768 344.134 306.968 345.129 307.38 346.042C307.582 346.494 307.89 346.89 308.277 347.198C308.679 347.487 309.74 347.463 309.994 346.981C310.274 346.455 309.697 345.214 309.637 344.648Z" fill="#424242"/>
<path d="M311.399 347.077C310.746 346.677 310.001 346.452 309.235 346.423C306.524 346.423 307.463 350.524 308.891 351.598C309.91 352.365 312.05 352.452 312.928 351.426C314.293 349.828 313.037 348.018 311.399 347.077Z" fill="#424242"/>
<path d="M312.597 350.383C312.502 349.293 311.748 348.217 310.663 347.928C309.785 347.696 308.399 347.825 308.311 348.95C308.224 350.074 309.007 351.066 310.004 351.516C310.558 351.734 311.163 351.79 311.748 351.674C312.43 351.563 312.655 351.053 312.597 350.383Z" fill="#A03A31"/>
<path d="M249.004 290.518C248.955 290.659 248.879 290.789 248.781 290.901C248.326 291.43 247.517 291.37 246.834 291.277L232.61 289.319C231.097 289.11 229.536 288.904 228.004 288.698C227.211 288.587 226.399 288.478 225.597 288.364C224.959 288.274 224.044 288.301 223.481 287.983C223.378 287.904 223.297 287.8 223.247 287.68C223.196 287.56 223.178 287.43 223.192 287.301C223.107 285.586 223.486 283.88 224.288 282.362C224.62 281.639 225.177 281.043 225.875 280.661C226.638 280.268 227.48 280.051 228.338 280.026C229.539 279.97 230.734 280.195 231.914 280.418L238.303 281.629C240.718 282.087 243.186 282.566 245.3 283.817C247.414 285.068 249.139 287.272 249.123 289.729C249.128 289.997 249.087 290.264 249.004 290.518Z" fill="#EBEBEB"/>
<path d="M250.546 262.543C249.655 261.106 248.393 259.984 247.239 258.765C246.837 258.339 246.47 257.918 246.107 257.511C245.742 256.789 245.314 256.048 244.747 255.622C244.327 255.329 243.848 255.13 243.343 255.04C243.076 254.882 242.8 254.742 242.515 254.619C242.078 254.432 240.623 254.281 240.25 254.68C240.152 254.783 240.068 254.879 239.999 254.966L239.488 255.006C233.893 255.445 231.206 261.778 231.251 266.791C231.262 269.975 232.148 273.095 233.811 275.809C234.494 276.889 235.094 277.984 236.309 278.481C237.692 279.047 239.367 279.076 240.84 279.145C245.882 279.378 253.274 278.24 253.377 271.775C253.422 268.73 252.144 265.111 250.546 262.543Z" fill="#FBB9A7"/>
<path d="M243.677 262.99C243.47 266.164 245.952 269.103 246.147 272.304C246.28 274.484 245.465 276.918 243.452 278.005C241.071 279.285 237.952 278.881 235.373 278.743C233.306 278.629 230.013 279.111 229.024 276.828C227.71 273.708 226.872 270.408 226.537 267.04C226.505 266.698 226.484 266.362 226.476 266.027C225.919 265.33 225.443 264.572 225.058 263.767C224.167 261.818 224.854 259.839 226.116 258.233C227.439 256.545 229.275 254.749 231.375 254.117C232.237 253.878 233.127 253.76 234.021 253.768H234.105C235 252.871 235.634 251.315 236.394 250.403C237.517 249.04 238.858 247.872 240.362 246.945C241.909 246.003 244.885 245.487 246.446 246.749C248.391 248.337 247.441 252.305 246.941 254.284C246.526 255.916 245.945 257.501 245.206 259.014C244.594 260.281 243.772 261.537 243.677 262.99Z" fill="#424242"/>
<path d="M287.302 350.423C287.037 348.307 286.709 344.548 284.656 343.302C283.426 342.553 280.72 342.421 279.471 343.212C278.593 343.767 278.307 344.958 277.982 345.857C277.428 347.402 276.927 348.964 276.477 350.542C274.855 356.217 273.54 362.915 275.025 368.811C279.351 367.718 283.398 365.721 286.897 362.952C287.059 361.986 287.183 361.026 287.305 360.129C287.725 356.907 287.724 353.645 287.302 350.423Z" fill="#EBEBEB"/>
<path opacity="0.5" d="M507.65 589.344C503.651 589.682 499.684 590.205 495.707 590.735C491.91 591.241 488.135 591.501 484.367 592.161C476.495 593.537 468.586 594.831 460.76 596.451C456.933 597.242 453.167 598.051 449.294 598.588C445.565 599.105 441.88 599.611 438.118 599.881C434.243 600.162 430.377 600.468 426.511 600.847C422.773 601.215 419.081 601.894 415.352 602.308C407.748 603.152 400.044 603.706 392.56 605.28C385.076 606.855 377.601 608.388 370.167 610.134C372.639 609.262 375.11 608.405 377.581 607.563C383.114 605.673 388.354 603.019 393.908 601.168C399.577 599.279 405.16 597.46 410.635 595.077C411.17 594.844 411.957 591.616 411.586 591.614C406.946 591.588 402.545 592.242 397.981 593.04C393.384 593.843 388.781 594.377 384.149 594.964C379.518 595.55 374.947 596.893 370.427 598.006C365.802 599.144 361.255 600.428 356.711 601.861C347.301 604.822 338.036 608.259 328.835 611.816C319.712 615.342 310.605 618.996 301.695 623.035C298.917 624.293 296.309 626.022 293.67 627.547C291.174 628.992 288.67 630.312 286.073 631.57C281.025 634.019 276.088 636.751 270.985 639.078C270.425 639.333 269.851 640.748 269.653 641.184C269.209 642.207 268.844 643.261 268.563 644.34C268.462 644.697 267.564 649.163 268.266 648.995C270.004 648.546 271.792 648.326 273.587 648.341C275.475 648.367 277.473 647.672 279.32 647.266C283.089 646.435 286.862 645.616 290.637 644.811C298.248 643.186 305.756 641.18 313.316 639.285C320.769 637.414 328.362 636.036 335.901 634.529C343.655 632.976 351.34 631.018 359.057 629.296C366.641 627.601 374.206 625.831 381.786 624.125C385.667 623.253 389.723 622.638 393.5 621.382C397.458 620.074 401.477 618.983 405.472 617.775C413.307 615.422 421.26 613.508 429.086 611.118C436.912 608.728 444.906 606.159 453.047 604.96C461.675 603.686 470.274 602.177 478.876 600.795C481.085 600.439 483.305 600.14 485.508 599.739C487.789 599.334 490.015 598.629 492.298 598.198C496.801 597.347 501.306 596.531 505.781 595.537C507.212 595.221 508.001 589.316 507.65 589.344Z" fill="#BFAAC5"/>
<path d="M466.076 321.873C465.993 322.938 464.97 323.297 464.405 323.529C460.982 324.922 456.786 323.389 454.776 318.877C452.99 314.869 452.421 306.572 456.472 305.22C458.114 304.67 460.192 304.745 461.723 305.874C463.3 307.032 463.117 309.217 463.138 311.476C463.158 313.816 463.917 316.069 464.678 318.136C465.023 319.069 466.163 320.722 466.076 321.873Z" fill="url(#paint2_linear)"/>
<path d="M510.155 589.891C509.629 591.001 508.192 591.477 507.133 591.854C502.457 593.55 497.446 594.2 492.492 594.183C488.479 594.17 482.173 594.429 478.902 591.675C477.352 590.367 478.841 586.62 478.994 584.989C479.236 582.423 478.981 579.856 478.802 577.292C478.66 575.281 477.587 572.669 478.584 570.75C480.184 567.657 483.346 570.152 484.471 572.294C486.351 575.881 487.912 579.424 490.782 582.392C494.472 586.204 499.701 586.487 504.644 586.899C505.986 587.011 507.44 587.032 508.72 587.493C509.754 587.872 510.713 588.705 510.155 589.891Z" fill="#36C5F0"/>
<path d="M454.301 326.35C454.488 333.823 451.52 341.27 449.75 348.427C447.314 358.264 446.043 368.053 445.456 378.125C444.976 385.877 444.819 393.826 445.487 401.574C445.811 405.35 446.265 409.114 446.688 412.878C447.092 416.494 447.327 420.177 445.916 423.613C445.524 424.562 440.683 424.409 440.201 423.613C436.092 417.019 433.659 409.635 431.696 402.16C427.854 387.495 425.396 372.538 427.677 357.396C428.676 350.607 430.648 343.998 433.53 337.77C435.246 334.052 437.463 330.585 440.118 327.467C442.591 324.601 446.128 319.907 450.498 321.006C453.452 321.754 454.24 323.919 454.301 326.35Z" fill="#36C5F0"/>
<path d="M468.274 474.847C466.612 499.473 461.549 526.347 442.76 544.024C438.181 548.33 432.836 551.634 427.843 555.415C425.4 557.239 423.11 559.26 420.998 561.458C419.201 563.351 417.321 565.35 414.748 566.131C411.946 566.975 407.807 567.062 405.328 565.259C403.291 563.776 402.438 561.059 402.344 558.647C402.209 555.287 403.295 552.024 404.61 548.98C405.951 545.868 407.493 542.835 409.056 539.822C415.018 528.378 421.905 517.394 426.953 505.492C432.267 492.96 434.504 479.708 435.492 466.195C436.456 452.893 436.46 439.519 438.31 426.289C439.976 414.378 442.954 402.215 450.412 392.57C450.429 392.54 450.45 392.514 450.475 392.491C450.785 392.094 451.097 391.702 451.42 391.314C451.742 390.926 454.036 391.235 453.964 391.388C453.947 391.423 453.934 391.46 453.916 391.492C456.751 391.087 459.911 391.39 462.148 392.722C464.678 394.227 465.419 397.256 465.932 399.949C466.64 403.584 467.227 407.243 467.718 410.913C468.656 417.903 469.218 424.939 469.401 431.989C469.783 446.279 469.231 460.608 468.274 474.847Z" fill="#002E74"/>
<path d="M496.057 569.685C495.839 572.206 495.351 574.932 493.674 576.932C491.565 579.448 487.893 579.466 484.879 579.42C481.626 579.372 478.054 579.328 475.099 577.791C472.199 576.28 470.681 573.294 469.597 570.342C466.981 563.246 465.694 555.732 464.758 548.248C463.795 540.543 463.095 532.811 462.122 525.111C460.118 509.269 457.615 493.492 455.554 477.658C453.506 461.934 451.936 446.131 451.784 430.26C451.714 423.11 451.941 415.957 452.536 408.831C452.111 404.23 452.582 399.423 454.671 395.383C454.693 395.306 454.708 395.226 454.73 395.145C455.066 393.837 455.264 393.132 456.256 392.908C457.961 390.832 460.275 389.517 462.968 388.926C466.514 388.147 471.18 388.025 474.458 389.831C477.155 391.32 478.575 394.312 479.796 396.999C481.296 400.325 482.607 403.734 483.721 407.208C485.967 414.186 487.468 421.369 488.453 428.618C490.521 443.797 490.137 459.273 489.895 474.553C489.644 490.69 489.402 506.877 491.678 522.902C493.892 538.332 497.483 554.009 496.057 569.685Z" fill="#002E74"/>
<path d="M420.195 590.184C418.507 593.204 413.653 593.145 410.685 593.042C407.366 592.927 403.548 593.14 401.498 590.122C399.065 586.535 396.886 582.303 395.159 578.327C394.549 576.919 394.998 575.78 395.877 574.607C396.84 573.318 397.944 572.158 398.86 570.824C399.874 569.343 400.801 567.803 401.636 566.214C402.866 563.878 404.148 561.589 405.103 559.12C405.28 558.667 405.471 558.176 405.881 557.914C407.438 556.918 409.807 559.105 410.65 560.219C411.817 561.774 411.32 563.588 411.18 565.387C410.997 567.491 410.639 569.576 410.11 571.62C408.956 576.26 407.571 583.578 413.034 586.012C414.678 586.732 422.125 586.725 420.195 590.184Z" fill="#36C5F0"/>
<path d="M469.537 307.18C468.963 307.963 467.642 308.319 466.782 308.639C465.718 309.037 464.61 309.305 463.481 309.437C461.05 309.719 458.352 309.627 456.141 308.476C452.687 306.681 449.882 302.987 447.95 299.69C446.873 297.849 446.424 295.357 447.732 293.68C448.605 292.563 450.094 292.071 451.514 292.064C457.942 292.04 465.973 295.065 468.854 301.133C469.547 302.597 470.625 305.697 469.537 307.18Z" fill="#FBB9A7"/>
<path d="M486.209 376.93C485.61 379.826 484.881 382.936 483.198 385.422L483.152 385.491C482.549 387.496 481.742 389.433 480.743 391.272C478.981 394.524 476.525 397.928 473.451 400.058C471.453 401.445 468.697 401.519 466.359 401.249C464.427 401.031 462.87 400.285 461.226 399.269C459.462 398.178 457.935 397.624 455.855 397.524C453.62 397.426 451.361 397.334 449.197 396.713C440.638 394.251 438.881 384.521 437.684 376.967C436.19 367.534 435.041 357.828 436.319 348.303C436.87 344.186 437.723 339.925 439.286 336.056C440.813 330.507 444.199 325.519 448.742 321.81C452.471 318.757 457.211 317.713 461.948 318.321C463.084 318.441 464.185 318.785 465.188 319.333C466.666 319.609 468.103 320.075 469.462 320.718C475.526 323.642 478.254 329.484 480.28 335.587C482.526 342.365 484.746 349.326 485.963 356.382C487.141 363.197 487.622 370.12 486.209 376.93Z" fill="url(#paint3_linear)"/>
<path d="M495.552 425.486C493.714 426.38 491.191 426.359 489.228 425.957C487.418 425.582 486.829 424.453 486.201 422.85C484.616 418.816 483.118 414.742 481.585 410.691C478.445 402.389 474.718 394.312 471.436 386.065C469.925 382.268 468.734 378.319 468.3 374.244C467.827 369.843 468.551 365.379 468.913 360.996C469.626 352.385 469.596 343.693 468.095 335.164C467.688 332.838 467.194 330.536 466.613 328.258C466.176 326.562 465.119 324.348 466.863 323.04C467.53 322.577 468.281 322.251 469.075 322.081C470.649 321.703 472.306 321.727 473.911 321.841C478.041 322.129 481.245 324.021 483.421 327.552C488.02 335.005 489.607 344.275 490.294 352.865C490.959 361.227 490.914 369.688 491.106 378.075C491.302 386.737 492.174 395.302 494.376 403.682C495.489 407.9 496.662 412.091 497.543 416.369C498.184 419.464 499.041 423.788 495.552 425.486Z" fill="#36C5F0"/>
<path d="M502.475 441.3C501.677 443.392 500.948 446.826 498.24 447.188C497.882 447.234 497.573 447.291 497.422 446.998C497.272 446.706 497.523 445.69 497.531 445.328C497.613 442.115 497.044 438.918 495.859 435.93C494.659 432.907 492.479 430.323 491.611 427.168C491.208 425.705 490.599 423.79 492.457 423.149C493.348 422.883 494.297 422.872 495.194 423.118C496.746 423.541 497.972 424.88 499.119 425.953C500.36 427.081 501.429 428.385 502.29 429.824C504.413 433.431 503.918 437.524 502.475 441.3Z" fill="#FBB9A7"/>
<path d="M460.976 362.773C459.519 365.002 457.308 366.454 454.754 367.135C449.154 368.661 442.325 367.484 438.871 362.459C434.762 356.474 436.127 349.36 437.562 342.751C437.95 340.963 438.164 339.085 437.344 337.384C436.729 336.113 435.643 335.134 434.529 334.305C432.13 332.528 429.256 331.379 427.363 328.989C425.527 326.673 425.505 323.986 427.328 321.658C428.242 320.491 429.468 319.654 430.488 318.605C431.561 317.493 432.621 316.343 433.72 315.266C435.846 313.177 438.696 311.457 440.196 308.811C441.053 307.302 441.232 305.486 441.069 303.779C440.907 302.174 440.543 300.824 440.938 299.199C441.729 295.946 444.028 293.769 446.913 292.271C447.872 291.783 448.902 291.451 449.966 291.288L449.979 291.273C450.386 290.891 451.662 291.007 452.159 291.054C452.43 291.078 452.711 291.109 452.988 291.15C453.88 291.188 454.842 291.331 455.465 291.896C456.156 292.241 456.743 292.763 457.166 293.41C458.283 295.154 458.132 297.876 457.748 299.816C457.672 300.204 456.198 300.034 455.936 299.973C453.773 299.483 451.708 301.897 452.665 303.916C453.411 305.488 455.64 305.717 457.112 306.203C460.202 307.226 461.394 309.867 461.373 312.996C461.344 316.947 458.843 320.33 457.273 323.786C455.746 327.113 454.907 331.036 455.389 334.689C455.871 338.342 457.692 341.416 459.728 344.419C461.54 347.09 463.455 349.899 463.898 353.174C464.343 356.55 462.781 360.011 460.976 362.773Z" fill="#E01E5A"/>
<path d="M332.453 95.9727C331.557 94.9122 331.18 93.5435 331.321 91.8666C331.462 90.1896 332.061 88.9207 333.118 88.0597C334.214 87.1667 335.635 86.7936 337.382 86.9405C339.129 87.0875 340.45 87.6912 341.346 88.7517C342.28 89.7802 342.676 91.1329 342.535 92.8098C342.394 94.4868 341.776 95.7717 340.68 96.6647C339.623 97.5258 338.221 97.8828 336.474 97.7359C334.727 97.5889 333.387 97.0012 332.453 95.9727ZM339.443 126.431L328.753 125.532L330.957 99.33L341.647 100.229L339.443 126.431ZM341.869 108.481L342.557 100.306L345.701 100.57L346.362 92.7095L356.738 93.5823L356.077 101.443L362.104 101.95L361.416 110.125L355.39 109.618L354.751 117.217C354.609 118.894 355.5 119.813 357.421 119.975C358.679 120.08 360.034 119.86 361.488 119.314L360.769 127.856C358.923 128.474 356.428 128.652 353.283 128.387C350.384 128.143 348.058 127.138 346.307 125.373C344.555 123.607 343.821 121.047 344.103 117.693L344.856 108.732L341.869 108.481ZM401.753 115.206L400.378 131.557L389.687 130.657L390.93 115.879C390.998 115.076 390.841 114.429 390.46 113.94C390.117 113.419 389.613 113.13 388.95 113.074C387.832 112.98 386.909 113.289 386.18 114.002C385.487 114.718 385.087 115.705 384.981 116.962L383.87 130.168L373.18 129.269L376.354 91.5378L386.782 92.415L385.557 106.983C386.451 105.968 387.628 105.152 389.087 104.536C390.546 103.92 391.992 103.672 393.425 103.793C396.22 104.028 398.379 105.124 399.903 107.082C401.43 109.005 402.047 111.713 401.753 115.206ZM405.037 115.852L405.826 106.472C408.433 105.6 411.815 105.339 415.972 105.689C420.234 106.048 423.404 107.264 425.481 109.339C427.593 111.416 428.51 114.115 428.231 117.434L426.856 133.784L417.266 132.977L417.201 131.23L417.386 129.662L417.281 129.654C415.829 132.276 413.304 133.436 409.706 133.133C407.4 132.939 405.483 132.092 403.956 130.591C402.463 129.093 401.83 126.999 402.057 124.309C402.321 121.165 403.949 118.962 406.94 117.701C409.934 116.405 413.467 116.227 417.54 117.168L417.544 117.115C417.682 115.473 416.284 114.529 413.349 114.282C410.24 114.02 407.469 114.544 405.037 115.852ZM413.568 125.489C414.476 125.565 415.22 125.293 415.8 124.674C416.415 124.057 416.775 123.12 416.881 121.862C415.33 121.485 414.133 121.49 413.291 121.877C412.484 122.266 412.047 122.863 411.98 123.666C411.886 124.784 412.415 125.392 413.568 125.489ZM455.929 133.326C453.417 135.578 450.484 136.563 447.131 136.281C443.777 135.999 441.412 134.832 440.036 132.781L439.932 132.773C440.001 133.201 439.992 133.939 439.904 134.987L438.943 146.411L428.252 145.512L431.426 107.781L441.068 108.592L441.132 110.339L440.948 111.906L441.053 111.915C441.677 110.771 442.755 109.877 444.286 109.232C445.853 108.589 447.493 108.34 449.205 108.484C452.663 108.775 455.459 110.259 457.591 112.937C459.761 115.582 460.664 119.071 460.299 123.403C459.935 127.735 458.478 131.043 455.929 133.326ZM449.341 118.787C448.582 117.773 447.573 117.213 446.316 117.108C445.058 117.002 443.953 117.384 443 118.254C442.085 119.091 441.563 120.279 441.434 121.816C441.304 123.353 441.619 124.629 442.378 125.643C443.175 126.624 444.203 127.168 445.46 127.274C446.718 127.38 447.804 127.014 448.719 126.176C449.672 125.306 450.213 124.103 450.342 122.565C450.472 121.028 450.138 119.769 449.341 118.787ZM487.199 135.957C484.688 138.208 481.755 139.193 478.401 138.911C475.047 138.629 472.683 137.462 471.307 135.412L471.202 135.403C471.272 135.831 471.263 136.569 471.174 137.617L470.213 149.041L459.523 148.142L462.697 110.411L472.339 111.222L472.403 112.969L472.218 114.536L472.323 114.545C472.947 113.402 474.025 112.507 475.557 111.862C477.124 111.22 478.763 110.97 480.475 111.114C483.934 111.405 486.729 112.89 488.862 115.567C491.032 118.212 491.934 121.701 491.57 126.033C491.206 130.365 489.749 133.673 487.199 135.957ZM480.612 121.417C479.852 120.403 478.844 119.843 477.586 119.738C476.329 119.632 475.223 120.014 474.271 120.884C473.356 121.722 472.834 122.909 472.704 124.446C472.575 125.983 472.89 127.259 473.649 128.273C474.446 129.255 475.473 129.798 476.731 129.904C477.989 130.01 479.075 129.644 479.99 128.806C480.943 127.936 481.484 126.733 481.613 125.196C481.742 123.658 481.409 122.399 480.612 121.417ZM506.697 113.32C510.714 113.658 513.706 115.106 515.673 117.664C517.642 120.187 518.479 123.195 518.186 126.688C518.056 128.226 517.847 129.457 517.558 130.383L502.623 129.127C502.916 131.086 504.651 132.2 507.831 132.467C510.975 132.732 513.914 132.504 516.649 131.784L515.908 140.588C513.485 141.369 510.195 141.585 506.038 141.235C501.251 140.833 497.587 139.223 495.044 136.405C492.502 133.588 491.403 130.135 491.746 126.048C492.081 122.065 493.669 118.874 496.51 116.474C499.388 114.042 502.784 112.991 506.697 113.32ZM508.247 125.008C508.402 124.001 508.277 123.181 507.873 122.549C507.472 121.882 506.817 121.51 505.909 121.434C505.035 121.36 504.328 121.617 503.786 122.205C503.282 122.761 502.987 123.545 502.902 124.559L508.247 125.008ZM546.899 127.415L545.524 143.765L534.833 142.866L536.076 128.088C536.144 127.284 535.987 126.638 535.606 126.148C535.263 125.627 534.759 125.338 534.096 125.282C532.978 125.188 532.054 125.498 531.326 126.21C530.633 126.926 530.233 127.913 530.127 129.171L529.016 142.376L518.326 141.477L520.53 115.275L530.172 116.086L530.288 118.471C530.314 119.001 530.199 119.536 529.942 120.078L530.047 120.086C530.781 118.882 531.974 117.874 533.626 117.063C535.28 116.217 536.929 115.863 538.571 116.001C541.365 116.236 543.525 117.332 545.049 119.29C546.576 121.213 547.193 123.921 546.899 127.415ZM561.066 128.554C564.283 129.633 566.553 130.88 567.876 132.293C569.238 133.674 569.816 135.587 569.61 138.033C569.384 140.723 568.159 142.731 565.937 144.057C563.717 145.348 560.721 145.835 556.948 145.517C553.489 145.227 550.427 144.406 547.761 143.056L548.537 133.833C549.736 134.637 551.22 135.395 552.989 136.107C554.762 136.784 556.277 137.175 557.535 137.281C559.072 137.41 559.863 137.213 559.907 136.689C559.939 136.305 559.033 135.789 557.187 135.141C556.981 135.088 556.826 135.04 556.724 134.996C553.918 134.057 551.819 132.877 550.425 131.458C549.034 130.004 548.445 128.02 548.657 125.504C548.886 122.779 549.989 120.744 551.967 119.397C553.945 118.05 556.611 117.518 559.965 117.8C563.494 118.097 566.627 118.906 569.366 120.227L568.612 129.188C567.544 128.5 566.173 127.857 564.5 127.259C562.861 126.664 561.43 126.315 560.208 126.212C559.02 126.112 558.404 126.324 558.36 126.848C558.313 127.407 559.215 127.976 561.066 128.554Z" fill="url(#paint4_linear)"/>
<path d="M332.193 96.4404C331.263 95.3337 330.872 93.905 331.019 92.1543C331.166 90.4036 331.789 89.0785 332.888 88.1792C334.026 87.2464 335.353 86.9331 337.167 87.0856C338.981 87.2382 340.642 87.8029 341.572 88.9096C342.541 89.9829 342.812 91.3831 342.664 93.1338C342.517 94.8845 341.874 96.2263 340.736 97.159C339.638 98.0584 338.182 98.4317 336.368 98.2792C334.554 98.1266 333.162 97.5137 332.193 96.4404Z" fill="url(#paint5_linear)"/>
<path d="M276.681 133.396C292.811 134.752 306.986 122.776 308.343 106.646C309.7 90.5162 297.724 76.3405 281.594 74.9838C265.464 73.6271 251.288 85.6032 249.931 101.733C248.574 117.863 260.551 132.039 276.681 133.396Z" fill="url(#paint6_linear)"/>
<path fill-rule="evenodd" clip-rule="evenodd" d="M269.787 78.5139L269.37 78.5227C268.003 78.5515 267.031 79.6369 267.057 80.8997C267.302 93.2118 267.338 94.297 267.479 100.997C267.522 102.275 267.456 103.196 267.691 104.069C267.926 104.943 268.506 105.685 269.394 106.248C270.294 106.82 272.135 107.886 273.986 109.1C275.838 110.314 277.7 111.716 278.453 112.665C278.467 112.68 278.538 112.762 278.564 112.791L282.967 117.779C283.486 118.388 283.46 118.516 282.79 119.302C280.58 121.804 278.403 124.331 276.196 126.859C275.339 127.838 275.465 129.278 276.417 130.109C276.521 130.207 276.6 130.282 276.732 130.383C277.759 131.223 279.116 131.107 279.981 130.163C282.57 127.195 285.384 123.978 287.888 121.105L287.889 121.105C288.477 120.415 288.78 119.443 288.784 118.625C288.789 117.807 288.631 117.082 288.158 116.481L288.158 116.48C286.734 114.671 285.182 112.727 283.917 111.132L283.916 111.132L283.887 111.095C283.644 110.788 283.584 110.451 283.638 110.2C283.689 109.967 283.798 109.793 284.101 109.673C286.8 108.776 289.692 107.804 292.077 107.036C292.702 106.831 292.942 106.899 293.464 107.378C295.675 109.723 298.016 112.102 300.294 114.453C301.173 115.359 302.644 115.383 303.551 114.503L303.851 114.213C304.758 113.334 304.781 111.863 303.902 110.956C301.179 108.165 298.399 105.289 296.054 102.86L296.055 102.859C295.587 102.429 295.046 102.12 294.433 101.922C294.199 101.851 293.947 101.795 293.674 101.753C292.884 101.631 292.143 101.705 291.449 101.889C288.637 102.763 285.555 103.791 282.981 104.653C282.478 104.843 282.233 104.837 281.76 104.514C279.726 102.891 278.047 101.456 276.431 100.01C275.979 99.6111 276.047 99.256 276.356 98.8382L285.081 87.0865C285.834 86.0725 285.618 84.6175 284.604 83.8647L284.269 83.6152C283.256 82.8624 281.8 83.0775 281.047 84.0916L272.623 95.4384C272.548 95.5385 272.459 95.6587 272.393 95.7475C272.389 95.5819 272.388 95.4447 272.386 95.3521L272.081 80.7945C272.028 79.5806 271.125 78.4859 269.787 78.514L269.787 78.5139Z" fill="white"/>
<path d="M265.864 102.928C265.268 103.146 264.616 103.24 263.941 103.184C261.458 102.975 259.614 100.792 259.823 98.3083C260.031 95.8247 262.214 93.9807 264.698 94.1896C265.035 94.2179 265.36 94.2825 265.669 94.3793" fill="white"/>
<defs>
<filter id="filter0_d" x="156" y="16.546" width="617.863" height="452.454" filterUnits="userSpaceOnUse" color-interpolation-filters="sRGB">
<feFlood flood-opacity="0" result="BackgroundImageFix"/>
<feColorMatrix in="SourceAlpha" type="matrix" values="0 0 0 0 0 0 0 0 0 0 0 0 0 0 0 0 0 0 127 0"/>
<feOffset dy="4"/>
<feGaussianBlur stdDeviation="15"/>
<feColorMatrix type="matrix" values="0 0 0 0 0.258824 0 0 0 0 0.258824 0 0 0 0 0.258824 0 0 0 0.1 0"/>
<feBlend mode="normal" in2="BackgroundImageFix" result="effect1_dropShadow"/>
<feBlend mode="normal" in="SourceGraphic" in2="effect1_dropShadow" result="shape"/>
</filter>
<linearGradient id="paint0_linear" x1="186.408" y1="433.661" x2="261.774" y2="471.996" gradientUnits="userSpaceOnUse">
<stop stop-color="#FDBB00"/>
<stop offset="0.41" stop-color="#FAB900"/>
<stop offset="0.76" stop-color="#EFB100"/>
<stop offset="1" stop-color="#E3A800"/>
</linearGradient>
<linearGradient id="paint1_linear" x1="28379.9" y1="34131.6" x2="26464.5" y2="34043.2" gradientUnits="userSpaceOnUse">
<stop stop-color="#E88E5C"/>
<stop offset="0.13" stop-color="#F0935F"/>
<stop offset="0.36" stop-color="#F79762"/>
<stop offset="1" stop-color="#F99863"/>
</linearGradient>
<linearGradient id="paint2_linear" x1="458.265" y1="312.167" x2="464.401" y2="323.247" gradientUnits="userSpaceOnUse">
<stop stop-color="#E88E5C"/>
<stop offset="0.13" stop-color="#F0935F"/>
<stop offset="0.36" stop-color="#F79762"/>
<stop offset="1" stop-color="#F99863"/>
</linearGradient>
<linearGradient id="paint3_linear" x1="436" y1="338" x2="481.087" y2="404.001" gradientUnits="userSpaceOnUse">
<stop stop-color="#8AE4FF"/>
<stop offset="1" stop-color="#36C5F0"/>
</linearGradient>
<linearGradient id="paint4_linear" x1="333.125" y1="42.1801" x2="447.548" y2="169.082" gradientUnits="userSpaceOnUse">
<stop stop-color="#963298"/>
<stop offset="1" stop-color="#4A154B"/>
</linearGradient>
<linearGradient id="paint5_linear" x1="324.107" y1="78.7847" x2="351.221" y2="115.563" gradientUnits="userSpaceOnUse">
<stop stop-color="#FED337"/>
<stop offset="1" stop-color="#ECB22E"/>
</linearGradient>
<linearGradient id="paint6_linear" x1="252.388" y1="72.5273" x2="304.558" y2="141.311" gradientUnits="userSpaceOnUse">
<stop stop-color="#FED337"/>
<stop offset="1" stop-color="#ECB22E"/>
</linearGradient>
</defs>
</svg>
