<svg width="408" height="443" viewBox="0 0 408 443" fill="none" xmlns="http://www.w3.org/2000/svg">
<path d="M14.2308 354.487C15.613 354.766 17.1367 354.895 18.4325 355.447C20.177 356.2 21.8496 357.18 23.5509 358.027C26.8736 359.679 30.2138 361.3 33.5717 362.891C40.1994 366.029 46.9208 368.87 53.7453 371.558C57.0232 372.849 60.313 374.114 63.6149 375.352C65.2274 375.957 66.8015 376.225 68.4741 376.583C70.2234 376.957 71.9271 377.634 73.626 378.191C75.4569 378.788 77.3047 379.335 79.1452 379.87C75.5457 378.243 72.0951 376.285 68.5869 374.474C64.8795 372.554 61.1648 370.661 57.4766 368.714C53.7356 366.737 51.9698 363.512 48.5 361.091C52.3633 363.397 44.807 358.516 48.5 361.091C47.7465 360.642 48.5 358.293 48.5 358.293C45.5076 358.003 51.4275 358.972 48.5 358.293C51.5691 358.591 48.3701 354.206 51.312 355.125C57.5198 357.067 62.3671 360.988 68.5869 362.891C75.025 364.858 82.5406 365.852 88.794 368.352C95.1362 370.889 101.538 373.317 107.799 376.055C114.194 378.848 120.757 381.413 126.996 384.547L136.75 389.45C140.079 391.129 143.229 393.198 146.61 394.77C153.039 397.764 159.407 400.838 165.908 403.677C172.267 406.456 178.626 409.239 185.035 411.879C199.419 417.798 213.801 423.711 228.183 429.619C228.903 429.909 229.692 431.846 229.92 432.367C230.497 433.702 230.978 435.076 231.36 436.48C231.485 436.94 232.627 442.786 231.744 442.548C217.401 438.694 203.056 434.843 188.75 430.864C174.614 426.934 160.545 422.783 146.375 418.982C132.361 415.224 118.46 411.003 104.658 406.528C101.13 405.383 97.5334 404.142 94.1451 402.633C90.4881 401.004 86.9343 399.077 83.3637 397.268C79.9634 395.547 76.3616 394.148 73.0453 392.271C71.26 391.271 69.6403 390.069 67.7806 389.207C65.9905 388.377 64.202 387.539 62.4151 386.695C54.7123 383.052 47.1103 379.201 39.4411 375.486C35.6738 373.661 31.9248 371.796 28.1942 369.893C26.2745 368.915 24.3668 367.927 22.4711 366.929C20.2514 365.763 18.4085 364.17 16.46 362.598C15.3298 361.686 14.8259 359.603 14.4707 358.293C14.3916 357.995 13.6261 354.37 14.2308 354.487Z" fill="#DDD2DF"/>
<path d="M171 358.5C163.874 356.623 178.139 359.203 179.5 359.5C181.334 359.906 186.633 361.327 188.421 361.783C191.913 362.673 195.423 363.546 198.952 364.402C205.917 366.092 212.981 367.621 220.153 369.068C223.598 369.763 227.055 370.444 230.525 371.111C232.22 371.437 233.874 371.581 235.632 371.774C237.47 371.975 239.261 372.34 241.046 372.639C242.97 372.961 244.912 373.256 246.846 373.544C243.064 372.668 239.437 371.614 235.751 370.638C231.854 369.605 227.951 368.585 224.074 367.537C220.143 366.473 215.942 365.521 212.295 364.217C208.414 362.831 204.331 361.624 200.271 360.383C199.479 360.141 198.786 357.976 198.993 358C202.069 358.366 205.191 358.861 208.336 359.017C211.561 359.177 214.504 359.726 217.596 360.221C224.12 361.266 230.588 362.408 237.125 363.433C243.891 364.492 250.415 365.996 256.987 367.342C263.652 368.708 270.38 370.015 276.959 371.49C283.68 372.993 290.577 374.374 297.134 376.062L307.385 378.701C310.883 379.606 314.194 380.719 317.747 381.565C324.503 383.178 331.196 384.833 338.028 386.361C344.711 387.857 351.393 389.356 358.129 390.777C373.245 393.964 388.36 397.148 403.474 400.328C404.23 400.485 405.06 401.527 405.3 401.808C405.906 402.527 406.411 403.267 406.813 404.022C406.944 404.27 408.144 407.417 407.216 407.29C392.143 405.215 377.068 403.141 362.033 400.999C347.177 398.883 332.391 396.648 317.5 394.601C302.773 392.578 288.164 390.306 273.658 387.896C269.951 387.28 266.171 386.612 262.61 385.799C258.767 384.922 255.032 383.885 251.28 382.91C247.706 381.984 243.921 381.231 240.436 380.221C238.56 379.682 236.858 379.035 234.903 378.571C233.022 378.124 231.142 377.673 229.264 377.218C221.169 375.257 213.18 373.183 205.121 371.183C201.161 370.201 197.221 369.197 193.301 368.172C191.283 367.646 189.279 367.114 187.286 366.576C184.954 365.948 179.048 365.248 177 364.402C175.813 363.911 164.874 362.488 164.5 361.783C164.417 361.623 170.365 358.437 171 358.5Z" fill="#DDD2DF"/>
<path d="M190.374 355.915C188.724 357.185 209.991 362.515 214.166 361.129C218.341 359.743 215.759 357.899 216.229 350.502H208.593C208.031 355.197 192.029 354.64 190.374 355.915Z" fill="#424242"/>
<path d="M193.369 217.215C191.459 253.462 208.584 350.502 208.584 350.502H216.237C226.675 298.826 218.201 287.278 217.718 269.229C216.782 234.216 233.164 196.282 219.323 172.866C192.722 159.862 195.284 180.968 193.369 217.215Z" fill="#4A154B"/>
<path d="M149.041 359.046C147.258 360.193 163.179 363.629 170.18 363.757C177.181 363.885 173.616 360.7 174.128 352.808C172.478 354.974 167.89 352.808 167.89 352.808C162.543 357.272 150.823 357.907 149.041 359.046Z" fill="#424242"/>
<path d="M187.491 183.419C169.417 216.629 155.493 231.902 155.671 256.152C155.832 278.561 167.89 352.817 167.89 352.817C167.89 352.817 172.474 354.982 174.128 352.817C175.783 350.651 181.505 301.594 176.987 278.487C173.745 261.878 179.875 254.621 187.491 246.221C195.106 237.822 225.672 204.966 216.893 181.311C208.114 157.655 187.491 183.419 187.491 183.419Z" fill="url(#paint0_linear)"/>
<path d="M190.246 99.4189C189.38 99.7908 188.482 100.086 187.565 100.302C189.004 104.708 187.977 110.859 186.459 113.532C185.304 115.558 194.297 114.807 198.79 110.389C197.73 105.166 192.441 102.682 190.246 99.4189Z" fill="#F2B08A"/>
<path d="M211.745 138.508C218.68 152.918 229.963 164.94 231.593 161.144C232.752 158.446 232.728 146.705 229.761 135.083C224.146 133.38 212.706 134.654 211.745 138.508Z" fill="#F2B08A"/>
<path d="M230.783 161.846C222.788 164.206 200.09 151.532 195.716 143.331C191.343 135.129 230.165 137.769 230.783 161.846Z" fill="#F2B08A"/>
<path d="M174.697 191.62C189.211 184.169 201.616 184.553 211.353 189.145C212.794 189.823 214.31 190.33 215.87 190.655C224.063 192.359 231.774 188.761 234.848 186.661C234.848 186.661 219.765 170.815 219.191 151.343C218.618 131.87 227.389 115.269 211.353 109.914C201.938 106.767 186.344 107.468 178.138 114.609C169.932 121.75 170.881 140.076 175.844 153.253C180.807 166.43 176.797 186.273 174.697 191.62Z" fill="#963298"/>
<path d="M141.541 114.04L138.108 115.822C138.108 115.822 140.485 163.1 155.522 164.915C155.522 164.915 158.975 163.183 159.932 159.734C161.578 153.793 146.76 116.403 141.541 114.04Z" fill="#F2B08A"/>
<path d="M141.528 113.784C141.236 115.768 140.91 116.156 139.986 118.759H139.899C139.899 118.759 131.4 118.008 129.998 115.459C128.595 112.909 131.033 107.389 132.778 107.959C135.951 108.998 137.692 109.514 138.967 109.172C141.417 108.507 141.533 105.871 142.267 105.871C143.397 105.879 142.032 110.368 141.528 113.784Z" fill="#F2B08A"/>
<path d="M189.781 94.3777C193.217 86.1679 189.781 80.9904 183.757 81.5432C183.01 82.8841 182.368 84.2814 181.839 85.7224C179.574 91.8447 179.211 98.6146 182.252 100.125C183.543 100.772 185.511 100.789 187.615 100.302C188.533 100.086 189.43 99.791 190.296 99.4191C189.681 98.572 189.348 97.5532 189.343 96.5065C189.35 95.7753 189.499 95.0524 189.781 94.3777Z" fill="#F2B08A"/>
<path d="M190.247 99.4192C192.429 102.682 197.718 105.166 198.791 110.389C199.154 112.142 199.038 114.205 198.172 116.713C193.589 129.952 204.662 145.068 219.299 146.863C233.936 148.657 243.355 134.024 231.898 121.548C220.442 109.073 221.337 102.348 214.208 98.4456C207.079 94.5428 203.135 88.1029 200.334 83.2472C197.533 78.3914 182.219 72.5208 181.191 80.8255C181.002 82.3643 186.361 83.5318 186.361 92.4306C186.373 95.7145 189.657 98.5281 190.247 99.4192Z" fill="#424242"/>
<path d="M162.836 133.611C154.927 147.477 150.088 163.009 155.521 164.915C158.764 166.054 175.171 152.035 183.352 139.482C180.757 135.806 167.589 129.378 162.836 133.611Z" fill="#F2B08A"/>
<path d="M181.904 112.014C175.716 114.613 168.5 123.681 162.836 133.611C167.589 129.378 180.745 135.806 183.348 139.478C185.823 135.691 187.527 132.052 187.911 128.97C189.569 115.735 181.904 112.014 181.904 112.014Z" fill="#963298"/>
<g filter="url(#filter0_d)">
<path d="M37.3709 31.9665C19.3548 67.1943 55.4036 79.5296 93.3006 70.7753C97.5953 69.7851 102.377 80.5486 93.6843 87.925C136.445 77.1987 160.542 38.2414 133.788 18.7566C107.034 -0.728221 53.2459 0.921981 37.3709 31.9665Z" fill="white"/>
</g>
<path d="M78.0318 46.7646H76.2166V46.2159C76.206 45.6671 76.2812 45.1201 76.4394 44.5945C76.5761 44.1615 76.7793 43.7523 77.0417 43.3816C77.2838 43.0369 77.5679 42.7237 77.8874 42.4493C78.201 42.177 78.5269 41.9171 78.8569 41.6654C79.187 41.4138 79.517 41.1662 79.8305 40.9146C80.1436 40.6641 80.4273 40.379 80.6763 40.0647C80.9318 39.7468 81.1351 39.3903 81.2786 39.0086C81.4359 38.5609 81.5114 38.0886 81.5014 37.6142V37.346C81.5061 36.9123 81.4204 36.4824 81.2497 36.0836C81.0848 35.7012 80.8481 35.3539 80.5525 35.0605C80.255 34.7682 79.9051 34.5344 79.5211 34.3715C79.1225 34.1999 78.6927 34.1128 78.2587 34.1157H77.8462C77.4205 34.1156 76.9993 34.2027 76.6085 34.3715C76.2246 34.5344 75.8747 34.7682 75.5772 35.0605C75.2802 35.3528 75.0433 35.7003 74.8799 36.0836C74.7079 36.4821 74.6208 36.912 74.6241 37.346V38.1711L72.8048 37.8741V37.3542C72.8009 36.6909 72.9329 36.0339 73.1926 35.4235C73.4435 34.8338 73.8047 34.2975 74.257 33.8434C74.7122 33.3888 75.2517 33.0273 75.8453 32.7791C76.4583 32.5186 77.1183 32.3866 77.7843 32.3913H78.3619C79.0253 32.3862 79.6826 32.5182 80.2926 32.7791C80.8839 33.027 81.4208 33.3886 81.8727 33.8434C82.3264 34.2963 82.6879 34.8329 82.9371 35.4235C83.1987 36.0333 83.3307 36.6908 83.3248 37.3542V37.6224C83.3347 38.1982 83.2596 38.7723 83.1021 39.3262C82.9654 39.7863 82.7624 40.2241 82.4997 40.6258C82.2671 40.9915 81.99 41.3268 81.6746 41.6242C81.3611 41.9171 81.0352 42.1894 80.701 42.4493C80.3669 42.7092 80.0451 42.9526 79.7274 43.196C79.4263 43.4361 79.1499 43.7056 78.9023 44.0005C78.6549 44.2915 78.4533 44.6184 78.3041 44.97C78.1463 45.3703 78.0691 45.798 78.0772 46.2282L78.0318 46.7646ZM76.0474 52.8827V50.7127H78.201V52.8827H76.0474Z" fill="#00BCF8"/>
<path d="M91.4242 46.7646H89.6049V46.2159C89.5943 45.6671 89.6694 45.1201 89.8276 44.5946C89.9644 44.1615 90.1676 43.7523 90.43 43.3817C90.6657 43.0382 90.9428 42.725 91.2551 42.4493C91.5686 42.177 91.8945 41.9171 92.2246 41.6654C92.5546 41.4138 92.8846 41.1663 93.1982 40.9146C93.504 40.6629 93.7808 40.3779 94.0233 40.0647C94.2788 39.7469 94.4821 39.3904 94.6256 39.0086C94.7829 38.5609 94.8583 38.0886 94.8484 37.6142V37.346C94.8531 36.9123 94.7674 36.4824 94.5967 36.0836C94.4318 35.7012 94.1951 35.3539 93.8995 35.0605C93.602 34.7682 93.2521 34.5345 92.8681 34.3715C92.4697 34.1995 92.0397 34.1124 91.6057 34.1157H91.1932C90.7592 34.1124 90.3292 34.1995 89.9308 34.3715C89.5468 34.5345 89.1969 34.7682 88.8994 35.0605C88.6024 35.3528 88.3656 35.7004 88.2022 36.0836C88.0301 36.4821 87.943 36.912 87.9464 37.346V38.1711L86.127 37.8741V37.3543C86.1232 36.691 86.2552 36.0339 86.5149 35.4235C86.7658 34.8329 87.1286 34.2963 87.5834 33.8435C88.0456 33.3807 88.5949 33.014 89.1996 32.7648C89.8043 32.5155 90.4524 32.3886 91.1065 32.3913H91.6841C92.3475 32.3859 93.0049 32.5179 93.6149 32.7791C94.8067 33.2831 95.7553 34.2317 96.2593 35.4235C96.5209 36.0333 96.653 36.6908 96.6471 37.3543V37.6224C96.6569 38.1982 96.5819 38.7723 96.4243 39.3263C96.2876 39.7864 96.0847 40.2241 95.822 40.6258C95.5894 40.9915 95.3122 41.3269 94.9969 41.6242C94.6834 41.9171 94.3574 42.1894 94.0233 42.4493L93.0538 43.196C92.7433 43.4339 92.4585 43.7035 92.2039 44.0005C91.9566 44.2915 91.7549 44.6184 91.6057 44.97C91.4493 45.3706 91.3736 45.7983 91.3829 46.2283L91.4242 46.7646ZM89.4357 52.8827V50.7127H91.5933V52.8827H89.4357Z" fill="#00BCF8"/>
<path d="M104.819 46.7646H103V46.2159C102.989 45.6672 103.064 45.1201 103.223 44.5946C103.359 44.1615 103.563 43.7524 103.825 43.3817C104.061 43.0382 104.338 42.725 104.65 42.4493C104.964 42.177 105.29 41.9171 105.624 41.6655C105.958 41.4138 106.28 41.1663 106.593 40.9146C106.907 40.6631 107.192 40.3781 107.443 40.0648C108.003 39.3732 108.296 38.5035 108.268 37.6142V37.3461C108.273 36.9123 108.187 36.4824 108.016 36.0836C107.853 35.7004 107.616 35.3528 107.319 35.0605C107.022 34.7682 106.672 34.5345 106.288 34.3716C105.889 34.1995 105.46 34.1124 105.025 34.1158H104.613C104.179 34.1124 103.749 34.1995 103.351 34.3716C102.967 34.5345 102.617 34.7682 102.319 35.0605C102.022 35.3528 101.785 35.7004 101.622 36.0836C101.45 36.4821 101.363 36.912 101.366 37.3461V38.1712L99.5509 37.8741V37.3543C99.5458 36.6913 99.6763 36.0342 99.9346 35.4236C100.186 34.8329 100.548 34.2963 101.003 33.8435C101.465 33.3807 102.015 33.0141 102.619 32.7648C103.224 32.5156 103.872 32.3886 104.526 32.3913H105.104C105.767 32.3854 106.425 32.5175 107.035 32.7791C108.226 33.2831 109.175 34.2317 109.679 35.4236C109.941 36.0333 110.073 36.6908 110.067 37.3543V37.6225C110.077 38.1983 110.002 38.7724 109.844 39.3263C109.707 39.7864 109.504 40.2242 109.242 40.6258C109.009 40.9915 108.732 41.3269 108.417 41.6242C108.103 41.9171 107.777 42.1894 107.447 42.4493C107.117 42.7092 106.787 42.9526 106.474 43.196C106.171 43.434 105.894 43.7037 105.648 44.0005C105.398 44.2903 105.195 44.6174 105.046 44.97C104.89 45.3707 104.814 45.7983 104.823 46.2283L104.819 46.7646ZM102.831 52.8828V50.7127H104.988V52.8828H102.831Z" fill="#00BCF8"/>
<path d="M58.0208 221.853C53.0207 222.76 46.8819 223.845 40.6936 224.881C39.6664 215.648 38.8289 203.403 38.1523 190.503C43.9033 191.547 51.7666 190.292 51.7666 190.292C53.0661 202.71 56.0529 214.806 58.0208 221.853Z" fill="#FDC517"/>
<path d="M60.3808 358.369C67.3364 360.655 72.5758 363.32 60.4716 362.47C51.4614 361.831 47.7608 361.451 47.5628 359.17C47.3648 356.888 49.3491 350.873 48.6849 344.565C49.3945 347.804 52.9054 349.648 55.2157 347.198C54.2214 351.913 53.4252 356.084 60.3808 358.369Z" fill="#424242"/>
<path d="M63.2605 201.287C69.4488 229.935 74.9851 255.538 68.4297 291.702C61.8742 327.866 57.6002 345.655 55.228 348.193C52.9177 350.643 49.407 348.799 48.6974 345.56C48.6726 345.453 48.652 345.342 48.6355 345.226C48.1033 341.782 43.1361 300.448 48.6355 281.57C54.1348 262.691 39.4273 224.732 41.4158 209.233C43.4043 193.733 60.4098 188.118 63.2605 201.287Z" fill="url(#paint1_linear)"/>
<path d="M22.026 357.88C26.8983 360.767 27.0922 361.386 19.2455 360.66C12.7849 360.066 12.0588 354.059 11.4606 350.491C10.8624 346.922 13.5935 348.209 15.7842 340.062C15.8432 340.386 15.9518 340.699 16.106 340.99C17.455 343.37 20.4377 343.671 22.026 343.172C16.3617 348.638 17.1579 355 22.026 357.88Z" fill="#424242"/>
<path d="M47.1663 204.955C52.5294 212.996 66.5561 258.913 65.6485 270.551C63.8044 294.479 23.6177 342.685 22.0253 343.18C20.4328 343.676 17.4543 343.379 16.1052 340.998C15.951 340.707 15.8425 340.394 15.7834 340.07C15.1605 336.943 16.9427 329.653 19.3437 319.335C26.7697 287.486 34.9423 285.155 38.2633 271.743C41.5844 258.331 11.4062 225.884 16.4641 204.963C19.7398 191.382 41.799 196.914 47.1663 204.955Z" fill="#FED337"/>
<path d="M67.6577 149.042C68.8005 157.895 68.7922 167.05 67.1048 173.758C63.4208 188.411 54.1343 168.807 52.8389 147.47C56.7911 146.282 64.3284 145.16 67.6577 149.042Z" fill="#FAC28D"/>
<path d="M56.7218 121.994C60.7772 126.676 69.295 153.2 70.743 164.376C67.4137 160.494 56.692 158.089 52.7398 159.277C52.7398 169.492 52.7645 145.906 52.7398 145.122C52.0054 122.91 56.7218 121.994 56.7218 121.994Z" fill="#2191ED"/>
<path d="M32.9867 104.709C33.3339 105.844 33.3122 107.06 32.9249 108.182C32.6267 108.927 32.2283 109.628 31.7408 110.266C28.853 114.164 22.182 118.397 17.4542 111.66C11.8434 103.661 12.7841 94.9684 17.4542 91.8371C22.1242 88.7058 26.0517 88.3098 26.0517 88.3098C26.0517 88.3098 23.6177 81.7997 30.8704 78.6726C38.1231 75.5454 44.3319 74.6461 48.3584 84.6834C52.3849 94.7208 44.1834 96.4082 52.6284 103.248C61.0733 110.088 62.1706 98.4297 58.8372 97.0394C67.1336 95.7605 71.4573 120.287 53.1606 118.859C52.7887 118.051 52.232 117.341 51.5355 116.787C50.8389 116.233 50.022 115.851 49.1505 115.67C43.0942 114.226 41.0026 110.852 40.0744 107.093C40.2137 107.074 40.3515 107.045 40.4869 107.007C44.4887 105.905 45.7016 96.5567 43.2387 89.9682C41.2502 86.6678 30.0865 89.7826 32.471 95.6821C30.5486 93.4956 27.966 95.1499 29.0263 97.4354C29.773 99.0856 32.2029 101.817 32.9867 104.709Z" fill="#E8505B"/>
<path d="M32.9249 108.182C33.3123 107.06 33.3339 105.844 32.9868 104.708C33.7625 105.282 34.5914 105.779 35.4621 106.194C37.1123 106.973 38.7626 107.32 40.058 107.11C40.9862 110.868 43.0778 114.243 49.1341 115.686C50.0056 115.867 50.8224 116.249 51.519 116.803C52.2155 117.357 52.7722 118.067 53.1441 118.876C54.6458 122.246 52.7893 127.382 45.4912 130.736C34.8268 135.638 25.6186 123.253 24.3604 116.829C27.1905 115.934 30.5486 114.391 31.7243 110.266C32.2176 109.629 32.6216 108.928 32.9249 108.182Z" fill="#FAC28D"/>
<path d="M43.2099 89.9847C45.6852 96.5855 44.4476 105.922 40.4582 107.023C40.3228 107.061 40.185 107.09 40.0457 107.11C38.7585 107.32 37.1206 106.974 35.4498 106.194C34.5791 105.779 33.7502 105.282 32.9745 104.709C32.1906 101.821 29.7608 99.0856 29.0017 97.4519C27.9414 95.1663 30.5239 93.512 32.4464 95.6985C30.0742 89.799 41.2379 86.6677 43.2099 89.9847Z" fill="#FAC28D"/>
<path d="M67.0399 194.526C71.4088 209.233 69.5152 219.716 69.5152 219.716C68.6901 225.364 59.8779 228.111 59.8779 228.111C59.8779 228.111 59.1023 225.756 58.0132 221.853C56.0453 214.807 53.0626 202.711 51.7465 190.293L51.6723 189.563C51.6434 189.307 51.6187 189.055 51.5939 188.799L51.532 188.102C51.5114 187.859 51.4867 187.615 51.4702 187.372L51.4083 186.638C51.4083 186.394 51.3711 186.151 51.3546 185.907C51.3216 185.421 51.2886 184.934 51.2598 184.447L51.2226 183.754C51.2226 183.568 51.202 183.387 51.1979 183.205C51.1938 183.024 51.1731 182.76 51.1649 182.541C51.1649 182.401 51.1649 182.256 51.1649 182.128C51.1649 182 51.1649 181.745 51.1649 181.551C51.1649 181.357 51.1649 181.068 51.1649 180.829C51.1649 180.59 51.1649 180.346 51.1649 180.107C51.1401 178.677 51.1512 177.262 51.1979 175.862C51.8745 156.059 46.3545 132.177 43.8833 121.908C43.4707 120.118 43.1119 118.74 42.918 117.869C43.4295 117.635 43.8499 117.239 44.1145 116.743C44.3792 116.247 44.4734 115.677 44.3825 115.122C44.3136 114.482 44.132 113.859 43.8462 113.282C43.9906 113.323 50.8885 115.365 53.2483 117.535C68.4797 128.257 62.8978 180.606 67.0399 194.526Z" fill="#4A154B"/>
<path d="M51.7544 190.292C51.7544 190.292 43.8911 191.53 38.1401 190.503C38.1071 189.834 38.07 189.166 38.037 188.498C38.004 187.829 37.9627 187.087 37.9297 186.377C37.7977 183.696 37.674 181.014 37.5502 178.295L37.476 176.575C37.4471 175.841 37.414 175.106 37.3851 174.376C37.348 173.518 37.311 172.664 37.278 171.806C37.2491 171.055 37.2201 170.304 37.1871 169.557C37.1541 168.811 37.1335 168.114 37.1046 167.4C37.0716 166.525 37.0386 165.656 37.0056 164.793C37.0056 164.528 37.0056 164.269 36.9767 164.005C36.9437 163.031 36.9066 162.061 36.8736 161.117C36.8076 159.235 36.7443 157.382 36.6838 155.555C36.6838 155.238 36.6633 154.924 36.6509 154.615C36.6509 154.178 36.6261 153.749 36.6096 153.319C36.5931 152.89 36.5848 152.494 36.5683 152.061L36.5188 150.411C36.5188 150.176 36.5188 149.945 36.4982 149.71C36.4652 148.678 36.4363 147.647 36.4033 146.661L36.3785 145.704C36.3785 145.031 36.3373 144.371 36.3208 143.715L36.296 142.89C36.296 142.845 36.296 142.803 36.296 142.762C36.296 142.539 36.296 142.321 36.296 142.098C36.296 141.607 36.2671 141.116 36.2548 140.633C36.2548 140.258 36.2548 139.887 36.2259 139.52C36.2259 139.284 36.2259 139.053 36.2053 138.827C36.1847 138.6 36.2053 138.29 36.1847 138.026C36.1847 138.026 36.1847 137.993 36.1847 137.981C36.1847 137.725 36.1847 137.469 36.1847 137.222C36.164 136.508 36.1476 135.815 36.1311 135.13C36.1311 134.862 36.131 134.602 36.1104 134.338C36.0898 134.074 36.1104 133.814 36.1104 133.554V132.997C36.1104 132.259 36.0732 131.545 36.0567 130.852V130.361C36.0567 130.171 36.0567 129.986 36.0567 129.808C36.0567 129.631 36.0567 129.396 36.0567 129.21C36.0567 128.752 36.0362 128.306 36.0238 127.869C36.0114 127.432 36.0238 127.044 35.999 126.631C35.999 126.429 35.999 126.219 35.999 126.033C35.999 125.848 35.999 125.645 35.999 125.452V124.89C35.999 124.746 35.999 124.602 35.999 124.478C35.999 124.354 35.999 124.23 35.999 124.107C35.999 123.983 35.999 123.847 35.999 123.723C35.999 123.599 35.999 123.5 35.999 123.393C35.999 123.174 35.999 122.96 35.999 122.749C38.6967 123.246 41.4797 122.97 44.0273 121.953C46.5026 132.222 52.0184 156.104 51.3418 175.907C51.2978 177.307 51.2868 178.722 51.3088 180.152C51.3088 180.395 51.3088 180.634 51.3088 180.874C51.3088 181.113 51.3088 181.356 51.3088 181.596C51.3088 181.835 51.3088 181.979 51.3088 182.173C51.3088 182.367 51.3088 182.458 51.3088 182.586C51.3088 182.805 51.3088 183.027 51.3418 183.25C51.3748 183.473 51.3418 183.613 51.3666 183.799L51.4037 184.492C51.4326 184.979 51.4656 185.465 51.4986 185.952C51.4986 186.196 51.5357 186.439 51.5522 186.683L51.6142 187.417C51.6142 187.66 51.6554 187.904 51.676 188.147L51.7378 188.844C51.7626 189.1 51.7874 189.352 51.8163 189.607C51.8452 189.863 51.7255 190.049 51.7544 190.292Z" fill="#00BCF8"/>
<path d="M44.3242 115.096C44.415 115.652 44.3209 116.221 44.0562 116.718C43.7916 117.214 43.3711 117.61 42.8596 117.844C43.0535 118.715 43.3918 120.092 43.825 121.883C41.2774 122.9 38.4944 123.176 35.7967 122.679C35.7967 122.477 35.7967 122.267 35.7967 122.089C35.7967 122.023 35.7967 121.953 35.7967 121.887V121.784C35.7967 121.734 35.7967 121.681 35.7967 121.631C35.7967 121.429 35.7967 121.219 35.7967 121.045C35.7967 120.988 35.7967 120.93 35.7967 120.872V120.687C35.7967 120.629 35.7967 120.571 35.7967 120.513C35.7967 120.332 35.7967 120.163 35.7967 119.998C35.7967 119.923 35.7967 119.853 35.7967 119.787C35.7967 119.564 35.7967 119.375 35.7967 119.172C35.7947 119.142 35.7947 119.112 35.7967 119.082C35.7967 118.991 35.7967 118.904 35.7967 118.826V118.748C35.7967 118.583 35.7967 118.438 35.7967 118.314C35.7947 118.29 35.7947 118.265 35.7967 118.24C35.7967 117.98 35.7967 117.828 35.7967 117.828C35.7967 117.828 33.4245 117.848 30.7842 115.785C34.6168 115.303 39.7696 114.837 44.3242 115.096Z" fill="#FAC28D"/>
<path d="M40.6773 224.881C40.9083 226.944 41.1517 228.883 41.4034 230.632C31.9147 228.243 9.50483 231.754 9.00977 228.111C8.21354 220.958 10.6022 217.797 11.1963 192.937C11.7904 168.077 4.24066 155.279 5.23491 140.873C5.87024 131.669 8.57246 125.712 13.5932 121.776L13.6758 121.714C19.4515 117.176 29.1547 114.371 29.1547 114.371C29.6243 114.896 30.1392 115.379 30.6935 115.815C33.3338 117.877 35.706 117.857 35.706 117.857C35.706 117.857 37.3562 146.046 38.6351 174.599C39.6335 197.149 40.2235 220.805 40.6773 224.881Z" fill="#4A154B"/>
<path d="M4.50488 165.247C5.0084 161.231 5.30579 157.193 5.39596 153.147C5.5321 149.099 5.56097 145.044 5.74662 140.985C5.84563 138.951 5.99007 136.921 6.25823 134.891C6.49253 132.843 6.97604 130.832 7.69803 128.901C8.07956 127.916 8.61418 126.997 9.28221 126.178C9.62543 125.764 10.0159 125.392 10.4456 125.068C10.8818 124.748 11.3574 124.484 11.8607 124.284C12.3599 124.083 12.8824 123.944 13.416 123.872C13.9419 123.796 14.4732 123.766 15.0043 123.781C16.0781 123.818 17.1317 124.084 18.0943 124.561C19.039 125.051 19.8884 125.707 20.6026 126.496C20.9563 126.88 21.287 127.285 21.5928 127.709C21.8981 128.121 22.1744 128.571 22.4384 129.016C23.455 130.805 24.2845 132.693 24.9138 134.652C26.1458 138.537 27.1013 142.505 27.7728 146.525C29.1961 154.529 30.1037 162.615 30.9742 170.659L30.4379 170.721C29.9634 166.695 29.4725 162.672 28.9197 158.658C28.3669 154.644 27.7811 150.634 27.0467 146.657C26.6754 144.669 26.2711 142.684 25.8091 140.721C25.347 138.757 24.823 136.805 24.1835 134.899C23.5703 132.993 22.7645 131.155 21.7784 129.412C21.5268 129 21.2586 128.567 20.9533 128.175C20.6676 127.775 20.3561 127.395 20.021 127.036C19.3736 126.315 18.6005 125.719 17.7395 125.275C16.8779 124.85 15.9356 124.613 14.9754 124.581C14.4927 124.568 14.0096 124.595 13.5315 124.664C13.0597 124.729 12.5971 124.849 12.1536 125.023C11.7137 125.198 11.2978 125.428 10.9159 125.708C10.5329 125.991 10.1852 126.319 9.88039 126.685C9.26335 127.441 8.76914 128.289 8.41587 129.198C7.7107 131.067 7.23685 133.015 7.00492 134.998C6.73676 136.991 6.59236 139.004 6.47684 141.026C6.25819 145.065 6.19632 149.12 6.02717 153.175C5.88561 157.238 5.53312 161.291 4.97107 165.317L4.50488 165.247Z" fill="#B55A3D"/>
<path d="M32.6117 174.781C32.9954 180.556 32.6695 187.157 32.1125 193.185C30.7717 207.793 10.0533 202.875 3.49376 198.106C-2.00143 194.109 0.13149 184.051 2.18187 172.503C1.70744 183.052 3.23385 185.585 15.6599 186.943C27.9457 188.255 32.7313 177.615 32.6117 174.781Z" fill="#B55A3D"/>
<path d="M32.6117 174.781C32.7313 177.615 27.9374 188.255 15.6599 186.926C3.23384 185.585 1.70743 183.052 2.18186 172.487C2.59441 170.251 2.97395 167.949 3.30812 165.647C4.40138 158.114 17.3349 157.251 25.4085 159.021C30.1075 160.057 32.063 166.542 32.6076 174.665C32.6117 174.704 32.6131 174.742 32.6117 174.781Z" fill="#F27851"/>
<path d="M18.1522 128.192C24.39 132.969 33.2558 157.545 39.4152 158.898C36.1643 161.052 40.7485 179.58 46.2066 177.761C44.0159 178.772 36.328 178.038 32.1854 176.805C18.7816 172.816 10.7387 145.659 9.28236 139.244C7.82605 132.829 8.79142 121.022 18.1522 128.192Z" fill="url(#paint2_linear)"/>
<path d="M73.9868 118.397C80.0472 118.847 74.1271 121.31 70.4802 125.163C70.2053 127.347 69.4409 129.442 68.2441 131.289L62.9346 129.949C64.0815 125.514 67.9223 117.985 73.9868 118.397Z" fill="#FAC28D"/>
<path d="M62.9345 129.949L68.2439 131.298C66.7876 145.279 56.4656 169.22 45.2855 174.372C39.8274 176.192 36.164 161.047 39.4149 158.893C45.5743 160.255 62.9345 129.949 62.9345 129.949Z" fill="#FAC28D"/>
<defs>
<filter id="filter0_d" x="22.5918" y="0" width="132.428" height="101.925" filterUnits="userSpaceOnUse" color-interpolation-filters="sRGB">
<feFlood flood-opacity="0" result="BackgroundImageFix"/>
<feColorMatrix in="SourceAlpha" type="matrix" values="0 0 0 0 0 0 0 0 0 0 0 0 0 0 0 0 0 0 127 0"/>
<feOffset dy="4"/>
<feGaussianBlur stdDeviation="5"/>
<feColorMatrix type="matrix" values="0 0 0 0 0.258824 0 0 0 0 0.258824 0 0 0 0 0.258824 0 0 0 0.1 0"/>
<feBlend mode="normal" in2="BackgroundImageFix" result="effect1_dropShadow"/>
<feBlend mode="normal" in="SourceGraphic" in2="effect1_dropShadow" result="shape"/>
</filter>
<linearGradient id="paint0_linear" x1="-174269" y1="149805" x2="-183827" y2="149805" gradientUnits="userSpaceOnUse">
<stop stop-color="#4A154B"/>
<stop offset="1" stop-color="#963298"/>
</linearGradient>
<linearGradient id="paint1_linear" x1="56.3063" y1="193.922" x2="56.3063" y2="349.321" gradientUnits="userSpaceOnUse">
<stop stop-color="#FED337"/>
<stop offset="1" stop-color="#FDBB00"/>
</linearGradient>
<linearGradient id="paint2_linear" x1="73893.3" y1="27266.6" x2="77133.3" y2="27266.6" gradientUnits="userSpaceOnUse">
<stop stop-color="#00BCF8"/>
<stop offset="1" stop-color="#2191ED"/>
</linearGradient>
</defs>
</svg>
