<svg width="174" height="119" viewBox="0 0 174 119" fill="none" xmlns="http://www.w3.org/2000/svg">
<path d="M168.977 104.475C154.837 92.8468 110.701 97.3863 101.87 97.0372C96.9639 96.8451 82.9818 97.8403 71.365 99.1323C54.7897 97.0721 19.0284 99.1498 16.6981 99.1498C13.5092 99.1498 10.6006 101.786 10.6006 101.786C10.6006 101.786 33.2033 105.296 52.5645 106.326C51.741 109.643 50.9701 113.589 50.9701 113.589C50.9701 113.589 145.481 118.652 154.662 117.954C163.861 117.238 183.117 116.086 168.977 104.475Z" fill="url(#paint0_linear)"/>
<path d="M133.671 49.4767H50.4442C49.4279 49.4767 48.5869 51.083 48.5869 50.0529V34.4091C48.5869 25.8189 55.5955 18.8176 64.2336 18.8176H119.899C128.52 18.8176 135.546 25.8015 135.546 37.5169V50.7164C135.528 48.6561 134.705 49.4767 133.671 49.4767ZM52.3015 45.7753H131.814V34.4265C131.814 27.8792 126.47 22.5365 119.882 22.5365H64.2336C57.663 22.5365 52.3015 27.8617 52.3015 34.4265V45.7753Z" fill="#C9CCE2"/>
<path d="M126.663 48.0632H57.4531V30.1845C57.4531 27.6703 59.4856 25.645 62.0087 25.645H122.107C124.63 25.645 126.663 27.6703 126.663 30.1845V48.0632Z" fill="url(#paint1_linear)"/>
<path d="M47.7992 74.13C48.5877 73.3443 136.16 74.13 136.16 74.13L135.81 63.0606L123.79 46.2993L59.1181 46.9977L47.0107 61.3495C47.0107 61.367 47.0983 74.8283 47.7992 74.13Z" fill="#2EB67D"/>
<path d="M134.758 74.3744H47.7818C47.2036 74.3744 46.748 73.9205 46.748 73.3443V60.9654C46.748 60.3893 47.2036 59.9353 47.7818 59.9353H134.776C135.354 59.9353 135.81 60.3893 135.81 60.9654V73.3443C135.792 73.9205 135.337 74.3744 134.758 74.3744Z" fill="#00686D"/>
<path d="M127.977 49.0928C133.531 49.0928 138.052 53.5974 138.052 59.1321V73.9553H45.8015V59.1321C45.8015 53.5974 50.322 49.0928 55.8763 49.0928H127.977ZM127.977 45.3914H55.8763C48.272 45.3914 42.0869 51.5371 42.0869 59.1321V77.6567H141.749V59.1321C141.749 51.5371 135.582 45.3914 127.977 45.3914Z" fill="#9898BF"/>
<path d="M137.21 77.4822H44.6094V83.4708H137.21V77.4822Z" fill="#7F7EA4"/>
<path d="M55.5602 77.8311H50.6191V107.757H55.5602V77.8311Z" fill="#7F7EA4"/>
<path d="M131.604 77.8311H126.663V107.757H131.604V77.8311Z" fill="#7F7EA4"/>
<path d="M55.2274 116.051C58.2562 116.051 60.7116 113.604 60.7116 110.586C60.7116 107.568 58.2562 105.121 55.2274 105.121C52.1985 105.121 49.7432 107.568 49.7432 110.586C49.7432 113.604 52.1985 116.051 55.2274 116.051Z" fill="#9898BF"/>
<path d="M126.61 115.701C129.639 115.701 132.094 113.255 132.094 110.236C132.094 107.218 129.639 104.771 126.61 104.771C123.581 104.771 121.126 107.218 121.126 110.236C121.126 113.255 123.581 115.701 126.61 115.701Z" fill="#9898BF"/>
<path d="M31.9064 35.3872H13.5264V97.3689H31.9064V35.3872Z" fill="#E2E2E2"/>
<path d="M45.8712 29.4334H1.75215C0.788466 29.4334 0 28.6477 0 27.6874V0.153564H47.6234V27.6874C47.6234 28.6477 46.8349 29.4334 45.8712 29.4334Z" fill="#E2E2E2"/>
<path d="M42.2268 39.1232H5.39668C4.433 39.1232 3.64453 38.3375 3.64453 37.3772V29.4331H43.979V37.3772C43.979 38.3375 43.1905 39.1232 42.2268 39.1232Z" fill="#C9CCE2"/>
<path d="M43.9794 4.39636H8.91895V25.4003H43.9794V4.39636Z" fill="#9898BF"/>
<path d="M43.9794 20.8777H8.91895V25.3823H43.9794V20.8777Z" fill="#00BCF8"/>
<path d="M5.39658 26.1157C6.54812 26.1157 7.48163 25.1855 7.48163 24.038C7.48163 22.8905 6.54812 21.9603 5.39658 21.9603C4.24503 21.9603 3.31152 22.8905 3.31152 24.038C3.31152 25.1855 4.24503 26.1157 5.39658 26.1157Z" fill="#B7B7B7"/>
<path d="M10.6006 101.21L35.0781 101.088C28.8229 90.7169 17.504 90.4725 11.0211 100.582C10.8108 100.896 10.6707 101.105 10.6006 101.21Z" fill="#C9CCE2"/>
<path d="M65.0398 47.3647H61.3252V76.6795H65.0398V47.3647Z" fill="#9898BF"/>
<path d="M83.8581 47.7134H80.1436V77.0281H83.8581V47.7134Z" fill="#9898BF"/>
<path d="M103.726 47.4519H100.012V76.7666H103.726V47.4519Z" fill="#9898BF"/>
<path d="M123.351 47.7134H119.637V77.0281H123.351V47.7134Z" fill="#9898BF"/>
<defs>
<linearGradient id="paint0_linear" x1="10.6026" y1="107.224" x2="174.005" y2="107.224" gradientUnits="userSpaceOnUse">
<stop offset="0.00396825" stop-color="#FCEFFF"/>
<stop offset="0.2807" stop-color="#EDE1F0"/>
<stop offset="0.6443" stop-color="#E1D6E4"/>
<stop offset="1" stop-color="#DDD2E0"/>
</linearGradient>
<linearGradient id="paint1_linear" x1="73.5" y1="8" x2="78.5" y2="56.5" gradientUnits="userSpaceOnUse">
<stop stop-color="#FAFAFA"/>
<stop offset="0.953125" stop-color="#E0E0E0"/>
</linearGradient>
</defs>
</svg>
