<svg width="149" height="118" viewBox="0 0 149 118" fill="none" xmlns="http://www.w3.org/2000/svg">
<path d="M25.2529 101.412L30.2323 104.429C30.2323 104.429 113.385 124.486 130.709 115.833C148.048 107.18 153.339 100.938 142.743 97.0924C132.147 93.2466 32.4701 96.6191 29.5803 96.6191C26.6904 96.6191 25.2529 101.412 25.2529 101.412Z" fill="url(#paint0_linear)"/>
<path d="M29.4767 82.8772C29.4767 82.8772 24.7344 92.5953 24.7344 94.4294C24.7344 96.2636 34.7376 101.263 36.0566 99.6804C37.3755 98.0977 40.7989 89.6961 40.7989 89.6961L29.4767 82.8772Z" fill="#263238"/>
<path d="M94.4901 89.8439C94.4901 89.8439 93.7046 98.5118 95.5423 98.778C97.3799 99.0443 106.598 99.562 107.116 97.7278C107.65 95.8937 107.116 87.2258 107.116 87.2258L94.4901 89.8439Z" fill="#263238"/>
<path d="M34.4846 51.7559C34.4846 51.7559 27.2527 48.9307 24.3777 51.2974C22.7475 52.6434 25.667 57.214 26.4524 57.214C27.2378 57.214 34.1438 56.3265 34.1438 56.3265C34.1438 56.3265 35.0033 53.8563 34.4846 51.7559Z" fill="#00BCF8"/>
<path d="M101.857 52.3769C101.857 52.3769 107.888 49.4925 111.86 52.0219C113.727 53.22 112.66 55.2464 111.815 56.4002C111.4 56.9623 110.748 57.3173 110.052 57.3764C108.244 57.5391 104.554 57.7166 103.176 56.7404C101.338 55.4239 101.857 52.3769 101.857 52.3769Z" fill="#00BCF8"/>
<path d="M46.5938 32.8373C46.5938 32.8373 42.6518 32.8373 40.5474 36.7718C38.443 40.7064 34.2343 54.3738 34.2343 54.3738C34.2343 54.3738 26.6021 59.6248 26.3354 62.2577C26.0686 64.8906 28.7065 77.493 28.4398 81.1761C28.173 84.8592 29.7587 91.9443 34.2343 92.2106C38.7098 92.4768 45.0229 91.9443 45.0229 91.9443C45.0229 91.9443 100.819 91.1604 103.724 90.8941C106.613 90.6279 107.932 89.06 108.199 86.9596C108.466 84.8592 108.851 66.7247 109.385 64.8906C109.918 63.0564 106.095 57.5392 104.509 56.2227C102.923 54.9063 99.7667 34.6862 95.2912 33.3698C90.8008 32.0533 53.1737 31.7871 46.5938 32.8373Z" fill="url(#paint1_linear)"/>
<path d="M37.2715 54.6402H99.2917C100.181 54.6402 100.803 53.7823 100.551 52.9392L95.6164 37.1122C95.2607 35.9733 94.2085 35.2041 93.023 35.2041H46.3707C45.1111 35.2041 43.9848 35.9881 43.555 37.1714L37.2715 54.6402Z" fill="#E8E8E8"/>
<path d="M38.9601 66.9915C38.9601 66.9915 35.0181 61.208 32.1134 62.5245C29.2236 63.8409 31.0613 67.2578 30.5277 68.8257C29.9942 70.4084 34.4698 74.3429 35.522 73.8104C36.5742 73.2779 37.3596 71.1775 37.3596 71.1775L34.203 71.4438V68.2932L36.8409 69.0771L34.7365 66.4442V65.1278L39.7307 70.645L41.0497 68.8109L38.9601 66.9915Z" fill="#F1F1F1"/>
<path d="M46.0596 68.8251C46.0596 68.8251 47.3785 69.3576 49.4829 68.5589C51.5873 67.7749 53.4249 66.4585 53.4249 66.4585C53.4249 66.4585 58.6859 70.5114 61.8425 70.393C68.3631 70.1564 79.137 71.1326 78.1589 71.2805C78.1589 71.2805 57.2336 70.5853 54.2104 72.2272C52.2245 73.307 47.0969 74.8601 47.0969 74.8601L46.0596 68.8251Z" fill="#263238"/>
<path d="M89.1842 72.0793L74.083 71.2954L74.498 70.9996L89.3917 71.7835C90.2068 70.7185 98.5651 59.7136 99.306 58.2345C99.4987 57.8499 99.5283 57.4949 99.4098 57.1695C99.1578 56.5038 98.3576 56.1488 98.3428 56.134L98.5058 55.7791C98.5502 55.7938 99.4691 56.208 99.7803 57.0363C99.9433 57.4653 99.8988 57.9386 99.6617 58.4119C98.8763 59.9799 90.0141 71.606 89.6436 72.1089L89.1842 72.0793Z" fill="#00BCF8"/>
<path d="M49.4814 77.2417H89.2277L85.5376 86.9598H52.9048L49.4814 77.2417Z" fill="white"/>
<path d="M95.7792 77.4932H104.478C105.071 77.4932 105.575 77.9517 105.619 78.5434C105.782 80.5846 104.819 84.8889 103.619 85.0812C102.404 85.2883 98.2393 85.1996 96.4016 85.1404C95.8533 85.1256 95.3642 84.7854 95.1716 84.2677C94.7566 83.1583 94.0898 81.1467 94.0305 79.2977C94.0157 78.3215 94.8011 77.4932 95.7792 77.4932Z" fill="#E01E5A"/>
<path d="M40.0124 76.709L36.3223 79.0756L33.1657 77.7592C33.1657 77.7592 31.58 75.6588 31.3281 78.5431C31.0613 81.4275 33.1657 84.8443 33.1657 84.8443C33.1657 84.8443 37.1077 85.1106 39.7456 84.3118C42.3835 83.5279 35.8036 81.679 35.8036 81.679L40.5459 80.3625L41.3313 77.9959L38.6934 78.7798L40.0124 76.709Z" fill="#E01E5A"/>
<path d="M62.3759 50.6318C61.5905 50.6318 59.0712 48.5906 58.3895 48.0285L50.8611 50.3656L50.7129 49.9958C51.6465 49.5668 54.151 48.2356 54.566 47.215C55.0995 45.8985 56.6259 43.3544 56.6852 43.2508L56.7297 43.1917L60.9384 41.8752L62.4797 39.05L62.8205 39.2423L61.2052 42.2006L56.9964 43.5171C56.7593 43.9313 55.4107 46.1944 54.9365 47.3629C54.6549 48.0581 53.6472 48.8125 52.6987 49.3893L58.4784 47.5996L58.5673 47.6735C59.7677 48.6646 61.8721 50.262 62.3908 50.262C62.8353 50.262 65.0731 48.2948 66.9848 46.3719L67.2664 46.6529C66.5847 47.3037 63.2058 50.6318 62.3759 50.6318Z" fill="#D1D1D3"/>
<path d="M64.4976 48.3946L64.4727 48.7932L68.6882 49.0563L68.7132 48.6577L64.4976 48.3946Z" fill="#D1D1D3"/>
<path d="M45.8668 52.1995L45.7334 51.8297L50.4905 50.0695L46.1632 43.4577L46.4892 43.2358L51.0981 50.2766L45.8668 52.1995Z" fill="#D1D1D3"/>
<path d="M23.4297 35.7216C23.4297 35.7216 41.3318 66.1922 42.384 70.393C43.4362 74.5938 43.703 101.396 43.703 101.396L49.4974 101.662C49.4974 101.662 48.4452 70.9255 46.3409 66.7247C44.2365 62.5239 28.7055 32.3047 27.92 31.2545C27.105 30.2043 23.4297 35.7216 23.4297 35.7216Z" fill="#7F7EA4"/>
<path d="M35.5381 105.863C35.5381 105.863 38.176 99.0292 46.3268 99.2954C54.4924 99.5617 56.5968 106.395 56.5968 106.395L35.5381 105.863Z" fill="#7F7EA4"/>
<path d="M20.6586 41.2389C32.068 41.2389 41.3172 32.0072 41.3172 20.6194C41.3172 9.23163 32.068 0 20.6586 0C9.24916 0 0 9.23163 0 20.6194C0 32.0072 9.24916 41.2389 20.6586 41.2389Z" fill="#E01E5A"/>
<path d="M29.8471 11.3311L6.33203 21.9307L10.1261 30.3159L33.6411 19.7163L29.8471 11.3311Z" fill="#F1F1F1"/>
<path d="M71.1798 35.2041L61.2803 54.6402H65.3705L75.4479 35.2041H71.1798Z" fill="white"/>
<path d="M82.589 35.2041L72.6895 54.6402H81.7146L91.703 35.2041H82.589Z" fill="white"/>
<path d="M94.4902 71.1919C94.4902 71.1919 98.1803 63.8405 100.803 63.5743C101.93 63.4559 102.967 63.5003 103.782 63.5743C104.894 63.6778 105.857 64.4174 106.198 65.4824C106.805 67.3313 107.354 70.2452 105.279 71.4582C102.122 73.2923 94.4902 71.1919 94.4902 71.1919Z" fill="#F1F1F1"/>
<defs>
<linearGradient id="paint0_linear" x1="25.2595" y1="106.624" x2="148.208" y2="106.624" gradientUnits="userSpaceOnUse">
<stop offset="0.00396825" stop-color="#FCEFFF"/>
<stop offset="0.2807" stop-color="#EDE1F0"/>
<stop offset="0.6443" stop-color="#E1D6E4"/>
<stop offset="1" stop-color="#DDD2E0"/>
</linearGradient>
<linearGradient id="paint1_linear" x1="50.1438" y1="-5.06751" x2="130.684" y2="6.47141" gradientUnits="userSpaceOnUse">
<stop stop-color="#00BCF8"/>
<stop offset="1" stop-color="#015BA2"/>
</linearGradient>
</defs>
</svg>
