<svg width="25" height="25" viewBox="0 0 25 25" fill="none" xmlns="http://www.w3.org/2000/svg">
<path d="M7.35114 0C3.31591 0 0 3.31136 0 7.35114V17.6489C0 21.6841 3.31136 25 7.35114 25H17.6489C21.6841 25 25 21.6886 25 17.6489V7.35227C25 3.31591 21.6886 0 17.6489 0H7.35114ZM7.35114 2.27273H17.6489C18.316 2.27183 18.9768 2.40257 19.5933 2.65747C20.2099 2.91237 20.7701 3.2864 21.2418 3.75816C21.7136 4.22991 22.0876 4.79011 22.3425 5.40665C22.5974 6.0232 22.7282 6.68398 22.7273 7.35114V17.6489C22.7282 18.316 22.5974 18.9768 22.3425 19.5933C22.0876 20.2099 21.7136 20.7701 21.2418 21.2418C20.7701 21.7136 20.2099 22.0876 19.5933 22.3425C18.9768 22.5974 18.316 22.7282 17.6489 22.7273H7.35227C6.68502 22.7283 6.02412 22.5977 5.40744 22.3429C4.79076 22.088 4.23043 21.714 3.75856 21.2422C3.28669 20.7705 2.91255 20.2102 2.65758 19.5936C2.40261 18.977 2.27183 18.3161 2.27273 17.6489V7.35227C2.27168 6.68502 2.40231 6.02412 2.65714 5.40744C2.91197 4.79076 3.28599 4.23043 3.75775 3.75856C4.22952 3.28669 4.78977 2.91255 5.40639 2.65758C6.02301 2.40261 6.68388 2.27183 7.35114 2.27273ZM19.2114 4.75909C19.076 4.75849 18.9418 4.78471 18.8167 4.83624C18.6915 4.88776 18.5777 4.96357 18.482 5.0593C18.3863 5.15502 18.3105 5.26875 18.259 5.39394C18.2074 5.51912 18.1812 5.65327 18.1818 5.78864C18.1818 6.36136 18.6386 6.81818 19.2114 6.81818C19.3468 6.81893 19.4811 6.79283 19.6064 6.74137C19.7317 6.68991 19.8456 6.61412 19.9414 6.51838C20.0373 6.42264 20.1132 6.30886 20.1648 6.1836C20.2164 6.05834 20.2426 5.9241 20.242 5.78864C20.2426 5.65317 20.2164 5.51893 20.1648 5.39367C20.1132 5.26841 20.0373 5.15463 19.9414 5.05889C19.8456 4.96315 19.7317 4.88736 19.6064 4.83591C19.4811 4.78445 19.3468 4.75834 19.2114 4.75909ZM12.5 5.68182C8.75 5.68182 5.68182 8.75 5.68182 12.5C5.68182 16.25 8.75 19.3182 12.5 19.3182C16.25 19.3182 19.3182 16.25 19.3182 12.5C19.3182 8.75 16.25 5.68182 12.5 5.68182ZM12.5 7.95455C15.0261 7.95455 17.0455 9.97386 17.0455 12.5C17.0455 15.0261 15.0261 17.0455 12.5 17.0455C9.97386 17.0455 7.95455 15.0261 7.95455 12.5C7.95455 9.97386 9.97386 7.95455 12.5 7.95455Z" fill="url(#paint0_linear)"/>
<defs>
<linearGradient id="paint0_linear" x1="0" y1="0" x2="26.5" y2="27" gradientUnits="userSpaceOnUse">
<stop stop-color="#963298"/>
<stop offset="1" stop-color="#4A154B"/>
</linearGradient>
</defs>
</svg>
