<svg width="650" height="448" viewBox="0 0 650 448" fill="none" xmlns="http://www.w3.org/2000/svg">
<path d="M467.933 323.903C470.694 324.174 473.454 324.476 476.212 324.809C484.614 325.826 493 327.134 501.369 328.734C508.988 330.192 527.645 331.832 529.885 338.702C531.387 343.312 517.717 343.264 514.695 344.708C509.875 347.012 505.013 349.065 500.109 350.867C489.287 354.843 478.314 357.403 467.28 359.208C447.625 362.424 427.77 363.085 408.091 360.012C395.977 358.12 383.709 354.594 371.988 348.967C365.944 346.079 360.028 342.593 354.277 338.531C351.933 336.87 339.771 329.7 345.534 324.065C346.542 323.078 347.942 323.025 349.096 323.005C369.998 322.641 349.471 303.225 370.286 302.039C389.015 300.976 449.227 322.071 467.933 323.903Z" fill="#DDD2DF"/>
<path d="M439.673 202.723C433.058 214.021 424.573 224.359 413.72 231.625C411.424 233.169 408.885 235.731 406.347 233.432C404.736 231.97 403.737 227.397 403.012 225.36C400.855 219.257 399.401 212.92 398.677 206.475C395.583 178.952 407.403 156.93 424.267 136.517C437.892 120.013 454.08 102.581 461.195 81.8477C462 84.1467 462.702 86.4541 463.338 88.7861C466.363 100.285 467.437 112.226 466.513 124.094C465.506 137.937 461.445 150.919 456.771 163.876C451.969 177.219 446.836 190.513 439.673 202.723Z" fill="#2EB67D"/>
<path d="M394.091 210.384C392.198 224.425 387.291 237.669 382.207 250.881C385.672 237.028 388.195 222.948 389.756 208.742C392.012 187.713 391.851 166.175 383.617 146.403C367.816 108.402 328.479 91.9065 302.196 63.1678C294.42 54.6177 288.011 44.8756 283.204 34.2978C280.521 28.3941 278.813 22.17 277.04 15.9707C287.708 16.7918 297.716 18.5161 307.771 22.5395C328.568 30.8984 345.642 46.7211 358.115 65.4258C371.184 84.9763 379.241 107.705 385.035 130.457C388.314 143.222 390.827 156.179 392.56 169.255C394.317 182.671 395.92 196.868 394.091 210.384Z" fill="#2EB67D"/>
<path d="M402.745 265.422C400.255 264.051 398.426 259.444 396.227 257.457L395.904 257.17C397.516 247.933 396.895 237.463 397.024 228.735C397.21 216.517 397.024 204.291 396.412 192.097C395.117 167.768 391.927 143.581 386.872 119.766C384.285 107.548 380.748 95.4945 378.75 83.1533C376.816 70.7677 377.042 58.1312 379.419 45.8258C382.416 29.8389 388.491 14.9687 394.341 0C397.029 13.7541 398.699 27.6946 399.337 41.7038C400.562 68.9727 399.119 96.2827 398.386 123.552C397.677 150.533 398.104 177.203 401.15 204.02C402.761 218.25 405.299 232.389 406.161 246.717C406.379 250.182 406.508 253.656 406.5 257.129C406.484 259.855 407.66 268.066 402.745 265.422Z" fill="#00686D"/>
<path d="M382.11 228.439C381.134 224.18 379.097 220.249 376.196 217.026C368.348 208.478 355.44 207.493 344.772 209.915C330.727 213.142 317.884 221.509 303.018 219.399C295.492 218.331 288.144 215.162 281.69 211.122C280.055 210.077 278.488 208.925 277 207.673C279.257 207.967 281.536 208.058 283.809 207.944C305.749 206.877 321.123 187.417 340.646 179.624C351.58 175.24 362.732 176.34 369.806 186.595C375.938 195.463 379.669 206.203 381.337 216.87C381.946 220.693 382.205 224.566 382.11 228.439Z" fill="#00686D"/>
<path d="M395.695 226.19C394.986 230.583 394.648 236.782 393.278 242.234C393.036 238.999 392.972 235.731 392.73 232.635C392.287 227.208 391.771 221.772 390.966 216.402C389.29 205.063 386.284 193.223 379.895 183.632C372.836 173.04 362.168 165.683 354.111 155.969C349.276 150.106 344.989 143.8 340.679 137.535C346.899 139.465 353.289 139.465 359.823 140.187C367.988 141.02 375.589 144.807 381.248 150.862C392.972 163.096 397.798 180.06 398.121 196.844C398.362 206.648 397.25 216.476 395.695 226.19Z" fill="#2EB67D"/>
<path d="M484.4 182.474C483.557 187.456 481.95 192.271 479.638 196.744C475.424 204.709 469.115 210.506 460.607 213.249C453.065 215.712 445.144 216.582 437.619 219.161C430.246 221.69 423.494 225.806 417.821 231.231C420.666 224.949 422.889 218.225 427.079 212.625C435.072 201.95 445.434 198.148 457.948 195.554C468.044 193.468 477.245 190.249 484.4 182.474Z" fill="#00686D"/>
<path d="M472.951 228.037C470.719 225.089 466.803 223.242 462.097 222.109C449.914 219.186 432.43 221.091 425.218 221.222C410.344 221.493 395.405 221.321 380.515 221.821C368.614 222.224 356.705 222.503 344.804 222.938C337.335 223.209 322.96 220.926 317.489 227.331C315.072 230.139 314.573 234.228 315.274 237.882C319.302 259.026 328.971 290.08 345.731 309.975C353.104 318.736 361.846 325.346 372.127 327.974C384.665 331.184 397.67 330.667 410.457 329.862C420.617 329.23 433.461 330.084 442.26 323.918C450.237 318.326 456.691 307.364 461.05 298.784C467.319 286.467 470.534 272.081 472.637 258.451C473.861 250.519 478.228 235.049 472.951 228.037Z" fill="#963298"/>
<path d="M472.078 399.744C482.529 400.087 492.976 400.469 503.417 400.891C535.217 402.179 566.955 403.836 598.632 405.863C627.471 407.71 698.085 409.787 706.565 418.489C712.251 424.329 660.511 424.268 649.071 426.097C630.827 429.015 612.425 431.615 593.864 433.898C552.904 438.935 511.372 442.177 469.607 444.464C395.217 448.537 320.065 449.374 245.58 445.482C199.729 443.086 153.297 438.619 108.934 431.492C86.0571 427.834 63.6648 423.418 41.8975 418.273C33.0243 416.169 -13.0054 407.086 8.80594 399.949C12.6223 398.699 17.9185 398.631 22.2876 398.606C101.403 398.145 23.706 373.552 102.493 372.049C173.379 370.703 401.277 397.424 472.078 399.744Z" fill="#DDD2DF"/>
<path d="M354.406 328.578C348.747 325.396 342.311 323.611 335.849 324.051C264.37 323.695 81.7892 323.844 10.304 323.772C14.5114 348.981 14.5114 374.713 10.304 399.921H246.292C281.407 399.831 300.579 400.128 335.694 399.643C340.467 399.546 345.396 399.52 349.807 397.412C361.67 392.813 370.874 381.468 372.808 368.428C375.628 352.885 368.028 335.894 354.406 328.578Z" fill="#FFF5ED"/>
<path d="M335.7 317.583H0.00646973L2.17328 325.267H335.7C345.324 325.395 354.511 329.308 361.272 336.159C368.032 343.01 371.823 352.248 371.823 361.873C371.823 371.498 368.032 380.736 361.272 387.587C354.511 394.439 345.324 398.352 335.7 398.479H2.16684L0 406.164H335.694C347.444 406.164 358.714 401.496 367.023 393.186C375.332 384.877 380 373.608 380 361.857C380 350.106 375.332 338.837 367.023 330.528C358.714 322.219 347.444 317.551 335.694 317.551L335.7 317.583Z" fill="#E01E5A"/>
<path d="M139.679 264.997C117.247 265.055 94.8096 264.861 72.4106 265.171C69.3641 265.236 66.2271 265.249 63.3941 266.594C59.5418 268.139 56.1568 270.658 53.5705 273.904C50.9843 277.15 49.2854 281.012 48.6404 285.112C46.8358 295.028 51.6933 305.901 60.3929 310.558C63.9826 312.648 68.0996 313.656 72.2489 313.462C117.914 313.688 267.585 313.598 313.263 313.643C310.578 297.539 310.578 281.101 313.263 264.997H139.679Z" fill="#FFF5ED"/>
<path d="M72.3782 265.902H318.489L319.873 260.993H72.3782C64.9481 261.106 57.8603 264.136 52.6457 269.43C47.4311 274.724 44.5081 281.857 44.5081 289.288C44.5081 296.719 47.4311 303.852 52.6457 309.146C57.8603 314.44 64.9481 317.47 72.3782 317.582H319.873L318.489 312.673H72.3782C69.2745 312.725 66.1915 312.158 63.3091 311.006C60.4266 309.854 57.8023 308.14 55.5891 305.963C53.376 303.786 51.6183 301.191 50.4185 298.328C49.2186 295.465 48.6007 292.392 48.6007 289.288C48.6007 286.184 49.2186 283.111 50.4185 280.248C51.6183 277.385 53.376 274.789 55.5891 272.613C57.8023 270.436 60.4266 268.722 63.3091 267.57C66.1915 266.418 69.2745 265.851 72.3782 265.902Z" fill="#963298"/>
<path d="M300.344 222.626C290.619 255.471 263.031 258.04 234.501 236.525C205.972 215.011 168.642 171.879 175.906 157.181C183.17 142.483 277.338 182.126 300.344 222.626Z" fill="#E01E5A"/>
<path d="M186.618 156.977C193.366 156.245 200.948 155.542 207.86 155.1C215.436 154.606 222.218 154.436 226.239 154.867C225.315 137.793 244.555 78.0918 255.681 85.1178C261.352 88.6337 265.389 96.4592 266.087 105.697C267.538 125.074 245.508 176.013 238.692 178.423C235.289 179.614 226.278 177.289 216.139 173.887C206 170.484 194.551 166.101 186.652 163.283C187.328 162.369 187.69 161.261 187.684 160.124C187.678 158.987 187.304 157.883 186.618 156.977Z" fill="#FED337"/>
<path d="M103.088 229.817C96.2834 241.056 95.8695 250.135 92.7109 250.197C89.5524 250.26 50.2544 234.2 53.464 231.053C56.6737 227.906 79.6853 235.312 87.0856 228.598C88.3955 227.407 89.6317 226.522 90.6071 223.817C93.9641 227.282 103.78 228.683 103.088 229.817Z" fill="#424242"/>
<path d="M86.8985 226.817C86.8985 226.817 142.874 176.994 177.856 155.293C183.34 151.89 201.809 159.704 178.871 192.764C165.086 212.612 99.7936 236.332 99.7936 236.332C98.4326 236.99 86.7227 227.163 86.8985 226.817Z" fill="#E01E5A"/>
<path d="M239.536 157.98C240.527 167.526 240.953 177.123 240.812 186.719C245.916 191.069 253.73 193.144 262.117 193.688C260.087 147.83 272.239 100.06 276.787 80.5582C276.787 80.5582 261.266 77.2522 253.662 82.8945C241.578 103.388 236.083 123.633 239.536 157.98Z" fill="white"/>
<path d="M262.4 64.9131C259.128 69.1831 256.611 69.7332 252.414 70.6405C257.654 78.5454 255.068 84.6755 253.741 88.3898C253.325 89.5088 253.233 90.723 253.478 91.8917C253.723 93.0605 254.294 94.1361 255.124 94.994C255.955 95.8519 257.011 96.4571 258.172 96.7394C259.332 97.0218 260.548 96.9698 261.68 96.5896C267.583 94.6105 273.804 90.176 276.521 80.5132C272.744 78.2335 265.151 70.4647 262.4 64.9131Z" fill="#FBA483"/>
<path d="M240.274 209.908C240.274 209.908 241.408 205.116 242.117 195.89C242.332 192.969 242.497 189.595 242.57 185.79C242.708 176.194 242.282 166.598 241.294 157.051C237.841 122.721 243.427 102.238 255.511 81.7275C243.909 87.8802 238.051 100.611 235.584 115.95C235.584 115.95 235.584 116.001 235.584 116.03C228.411 157.375 235.635 183.885 228.121 200.806C226.59 204.277 240.274 209.908 240.274 209.908Z" fill="#FDBB00"/>
<path d="M271.389 45.4395C268.843 55.8395 282.316 55.5333 287.363 65.3436C292.41 75.1539 282.736 92.1093 295.489 99.1183C308.243 106.127 332.916 96.1752 328.425 79.3559C323.933 62.5366 300.321 67.5835 301.341 56.1061C302.362 44.6286 273.924 35.1358 271.389 45.4395Z" fill="#424242"/>
<path d="M258.091 53.6401C259.793 48.7803 255.755 42.707 245.661 44.3005C249.211 31.4053 271.82 37.1951 276.124 49.251C279.334 58.2617 271.361 69.3366 268.554 71.2986C268.126 71.5771 267.616 71.7029 267.108 71.6559C265.475 71.5651 263.359 70.2665 262.038 68.4803C260.626 66.5749 260.11 64.1082 262.038 61.9533C265.015 58.5849 266.382 56.2486 266.008 54.3546C265.801 53.4381 265.279 52.6233 264.533 52.0523C261.828 49.7386 256.407 58.5225 258.091 53.6401Z" fill="#424242"/>
<path d="M245.661 44.3229C255.755 42.7294 259.77 48.8027 258.091 53.6625C256.413 58.5223 261.828 49.7384 264.533 52.0747C265.279 52.6457 265.801 53.4605 266.007 54.377C266.359 56.271 264.992 58.6073 262.038 61.9757C260.133 64.1306 260.649 66.5973 262.038 68.5027C260.034 70.3927 257.753 71.9647 255.273 73.164C252.177 74.5987 249.205 74.9502 247.158 73.4702C240.71 68.7975 241.181 54.1275 245.661 44.3229Z" fill="#FBAC8D"/>
<path d="M107.426 240.636C100.621 251.876 100.207 260.954 97.0488 261.017C93.8902 261.079 54.5923 245.025 57.8019 241.878C61.0115 238.731 84.0289 246.131 91.4235 239.417C92.7334 238.226 93.9696 237.347 94.945 234.637C98.302 238.107 108.118 239.502 107.426 240.636Z" fill="#424242"/>
<path d="M304.682 233.446C294.956 266.296 267.374 268.859 238.839 247.351C210.304 225.842 172.98 182.705 180.244 168.006C187.508 153.308 281.676 192.952 304.682 233.446Z" fill="#E01E5A"/>
<path d="M91.2368 237.637C91.2368 237.637 147.212 187.814 182.195 166.113C187.678 162.71 206.153 170.53 183.21 203.59C169.424 223.438 104.132 247.158 104.132 247.158C102.765 247.816 91.061 237.966 91.2368 237.637Z" fill="#E01E5A"/>
<path d="M256.248 192.651C256.684 202.444 256.764 231.5 257.654 234.614C289.705 237.562 299.498 247.214 306.087 230.576C312.677 213.938 299.283 203.516 301.381 155.859C303.388 133.052 303.95 111.458 303.263 104.006C301.851 88.6955 289.92 86.5066 276.787 80.541C269.636 96.9293 254.218 146.797 256.248 192.651Z" fill="#FDBB00"/>
<path d="M162.495 161.848V165.38H227.985V161.848H166.147H162.495Z" fill="#424242"/>
<path d="M145.721 98.5401L162.495 161.848H166.146L149.134 97.6328L145.721 98.5401Z" fill="#424242"/>
<path d="M191.488 154.907C187.683 155.428 180.601 158.99 181.661 161.037C182.909 163.435 191.341 161.099 194.953 161.36C198.565 161.621 199.858 162.046 201.996 160.152C202.698 159.446 203.151 158.531 203.287 157.545C203.423 156.559 203.235 155.555 202.75 154.686C194.136 154.379 193.042 154.691 191.488 154.907Z" fill="#FBAC8D"/>
<path d="M202.122 154.578C209.754 155.428 218.266 155.4 226.007 156.614C234.513 157.941 242.015 159.415 246.347 160.884C249.529 141.813 285.475 80.6547 296.011 91.1342C301.41 96.4136 303.95 106.048 302.425 116.408C299.266 138.15 262.395 188.993 254.286 189.929C250.249 190.405 240.875 185.591 230.515 179.393C220.058 173.155 208.909 166.021 200.891 160.969C202.825 157.169 202.207 154.686 202.122 154.578Z" fill="#FDBB00"/>
</svg>
