<svg width="336" height="524" viewBox="0 0 336 524" fill="none" xmlns="http://www.w3.org/2000/svg">
<path d="M295.889 407.382C294.011 407.76 291.942 407.936 290.182 408.685C287.812 409.709 285.54 411.039 283.23 412.189C278.717 414.434 274.18 416.636 269.619 418.796C260.617 423.059 251.488 426.918 242.218 430.568C237.766 432.322 233.298 434.039 228.813 435.721C226.623 436.542 224.485 436.908 222.213 437.393C219.837 437.902 217.523 438.821 215.215 439.577V439.577C214.559 439.791 214.132 438.709 214.744 438.388C217.187 437.108 219.613 435.792 222.06 434.528C227.095 431.921 232.141 429.349 237.15 426.706C242.231 424.02 247.661 421.618 252.374 418.33C257.39 414.832 262.667 411.788 267.914 408.656C268.938 408.047 269.834 402.584 269.567 402.646C265.591 403.568 261.556 404.817 257.491 405.211C253.323 405.615 249.519 407 245.523 408.249C237.092 410.885 228.732 413.767 220.283 416.351C211.539 419.024 203.107 422.818 194.613 426.214C185.999 429.659 177.303 432.957 168.8 436.676C160.114 440.47 151.2 443.954 142.726 448.211L129.477 454.869C124.956 457.151 120.677 459.96 116.085 462.095C107.353 466.163 98.7028 470.338 89.8735 474.194C81.2364 477.968 72.5994 481.748 63.8939 485.334C45.7321 492.808 27.5712 500.275 9.41124 507.736C6.6789 508.859 4.11385 510.455 2.9292 513.161V513.161C2.50673 514.139 2.12206 515.133 1.77594 516.139C1.18692 517.852 0.775742 519.428 1.60034 521.041V521.041C2.96971 523.72 6.79636 523.586 9.71097 522.84C27.0554 518.401 40.9143 516.108 58.8485 511.121C78.0489 505.782 97.1579 500.144 116.404 494.981C135.438 489.877 154.319 484.144 173.066 478.066C177.858 476.511 182.743 474.826 187.345 472.776C192.312 470.563 197.139 467.946 201.989 465.488C206.608 463.151 211.5 461.251 216.004 458.702C218.429 457.343 220.629 455.71 223.155 454.54C225.586 453.412 228.016 452.275 230.443 451.128C240.905 446.18 251.23 440.949 261.647 435.904C266.764 433.424 271.856 430.892 276.923 428.306C279.53 426.979 282.122 425.637 284.696 424.281C287.711 422.697 290.214 420.533 292.861 418.398C294.396 417.16 295.08 414.331 295.563 412.551C295.67 412.147 296.71 407.222 295.889 407.382Z" fill="#DDD2DF"/>
<path d="M276.219 390.395C273.553 390.638 270.865 390.487 268.244 389.945C268.195 390.039 268.143 390.134 268.097 390.235C267.246 392.148 266.682 394.146 265.946 396.036C264.239 398.821 261.822 401.1 258.942 402.64C255.451 404.484 251.592 405.742 247.925 407.203C245.644 408.105 242.195 408.555 240.546 410.524C237.235 414.474 243.31 413.767 245.761 413.656C255.477 413.209 264.763 410.508 274.117 408.285C277.516 407.476 278.21 404.908 278.289 401.717C278.37 397.885 278.191 394.052 277.751 390.245C277.259 390.3 276.75 390.349 276.219 390.395Z" fill="#424242"/>
<path d="M299.611 390.359C297.098 391.287 294.462 391.836 291.788 391.988C291.766 392.096 291.74 392.197 291.723 392.314C291.397 394.384 291.365 396.453 291.14 398.474C290.21 401.605 288.461 404.431 286.075 406.661C283.181 409.344 279.778 411.55 276.623 413.913C274.667 415.367 271.434 416.697 270.349 419.027C268.168 423.698 273.856 421.446 276.216 420.702C285.488 417.769 293.76 412.76 302.228 408.197C305.301 406.541 305.311 403.878 304.565 400.775C303.654 397.052 302.491 393.396 301.084 389.831C300.588 390 300.122 390.179 299.611 390.359Z" fill="#424242"/>
<path d="M246.031 186.348C245.621 182.437 241.749 178.597 241.224 174.771C241.007 180.071 240.79 185.369 240.572 190.666C239.8 210.805 239.268 230.967 239.77 251.123C240.748 291.639 243.965 332.187 248.44 372.462C249.001 377.499 249.56 382.536 250.119 387.575C250.314 389.325 250.412 391.138 251.341 392.689C252.449 394.537 254.506 395.075 256.523 395.371L256.65 395.388C254.877 365.347 257.344 335.606 255.001 305.507C251.582 265.786 250.728 226.492 246.031 186.348Z" fill="url(#paint0_linear)"/>
<path d="M283.389 282.718C280.075 257.824 279.909 233.695 280.955 208.576C281.763 189.259 285.651 168.934 280.303 149.955C277.917 141.461 272.572 131.377 264.332 127.199C257.221 123.614 247.59 127.257 244.487 134.617C241.13 142.576 242.169 152.452 241.814 160.9C241.619 165.526 241.42 170.152 241.218 174.778C241.743 178.604 242.228 182.453 242.639 186.355C247.335 226.499 248.18 265.793 251.608 305.513C253.952 335.613 254.868 365.354 256.644 395.394C261.617 396.108 266.836 396.001 271.829 395.616C274.23 395.427 276.62 395.139 278.999 394.752C280.85 394.446 283.236 394.188 284.69 392.865C287.816 390.03 287.653 383.938 287.897 380.108C288.223 375.118 288.624 370.155 288.826 365.148C288.849 364.604 288.865 364.063 288.881 363.519C288.836 336.493 287.002 309.501 283.389 282.718Z" fill="#2E4A74"/>
<path d="M309.897 335.052L307.247 270.659C306.37 249.33 305.461 228.015 304.887 206.676C304.607 196.214 304.431 185.735 303.89 175.28C303.378 165.297 302.684 155.072 300.442 145.294C299.487 141.129 297.864 136.758 293.998 134.467C286.759 130.184 273.791 130.285 267.246 136.315C267.592 156.683 268.075 177.067 268.696 197.466C269.55 229.498 275.104 261.1 278.52 293.132C282.431 328.778 280.612 364.422 287.199 399.407C290.56 399.965 293.962 400.241 297.368 400.231C302.882 400.304 308.386 399.745 313.772 398.566C313.824 398.566 314.903 398.344 314.844 398.021C311.057 377.306 310.761 356.032 309.897 335.052Z" fill="#2E4A74"/>
<path d="M268.696 197.452C268.066 177.045 267.583 156.662 267.246 136.302C266.55 136.939 265.927 137.65 265.388 138.424C261.855 143.541 261.079 150.02 260.636 156.219C259.505 172.053 259.544 188.124 260.066 203.981C261.324 242.368 270.874 280.026 272.588 318.446C272.994 328.055 272.885 337.678 272.262 347.275C271.666 356.785 270.867 366.328 271.486 375.855C271.812 380.786 272.22 386.187 274.227 390.766C275.932 394.645 279.116 397.106 283.106 398.38C284.447 398.806 285.814 399.144 287.199 399.394C280.612 364.409 282.437 328.765 278.52 293.119C275.104 261.086 269.55 229.485 268.696 197.452Z" fill="url(#paint1_linear)"/>
<path d="M258.955 54.1287C256.621 51.8562 252.176 53.7514 249.617 55.0129C243.313 58.1401 237.533 62.6467 232.366 67.3921C226.89 72.4469 222.315 78.1767 218.045 84.2661C214.31 89.5921 210.549 94.9269 207.399 100.627C207.988 99.5397 201.065 88.7845 200.189 87.2253C197.592 82.6214 194.946 78.0559 192.408 73.4078C190.466 69.8473 188.282 66.334 185.467 63.4042C183.74 61.6151 179.41 59.0892 176.919 61.5208C176.53 61.5974 176.253 61.7301 176.185 61.9364C175.239 64.8367 175.581 68.633 175.911 71.6305C176.271 74.9021 177.17 77.9704 178.166 81.1035C180.17 87.3874 182.761 93.5239 185.484 99.5278C187.954 104.984 190.218 110.728 193.534 115.739C195.211 118.271 196.107 120.396 199.066 121.492C202.709 122.845 206.962 122.53 210.585 121.3C215.507 119.629 219.707 116.331 223.553 112.838C227.4 109.346 231.956 105.883 235.325 101.957C239.337 97.2354 242.967 92.203 246.181 86.907C251.262 78.5923 255.129 69.7087 259.205 60.8783C259.886 59.4045 260.582 57.7658 260.134 56.2036C259.928 55.4213 259.521 54.7062 258.955 54.1287ZM256.19 53.6925H256.049L255.981 53.6453C255.976 53.6381 255.969 53.632 255.962 53.6274C255.954 53.6229 255.946 53.6199 255.937 53.6188C256.158 53.5038 256.314 53.4802 256.19 53.6925Z" fill="url(#paint2_linear)"/>
<path d="M181.885 54.4323C182.213 57.2383 186.094 64.038 180.651 64.0881H180.462C178.782 64.0527 177.456 63.3011 176.297 62.0779C175.54 61.2762 174.862 60.4008 173.889 59.8467C172.746 59.1953 171.407 59.1423 170.164 58.7886C169.36 58.5842 168.607 58.2172 167.951 57.7102C167.295 57.2032 166.75 56.5671 166.35 55.8412C165.899 54.9523 165.696 53.9589 165.76 52.9645C165.787 52.5636 166.008 52.0979 165.99 51.7089C165.972 51.143 165.642 50.4975 165.598 49.8962C165.598 49.7489 166.02 49.6693 166.061 49.6575H166.132C165.601 48.5198 165.857 47.7269 166.146 46.5067C166.344 45.6696 166.771 45.0065 166.868 44.249C164.437 41.3428 161.062 39.595 157.905 37.5554C161.601 36.117 165.663 38.9112 168.395 41.1984C168.669 41.4312 168.94 41.667 169.206 41.9117C169.436 42.0531 169.665 42.2064 169.887 42.3597C171.711 43.6477 173.22 45.3248 175.036 46.6246C175.625 47.0402 176.757 47.9421 177.665 48.057C177.831 48.0785 177.999 48.0664 178.16 48.0217C179.071 47.7269 179.813 45.1155 180.223 44.2637C181.107 42.3567 181.886 39.6392 184.14 38.9583C184.258 38.923 185.614 38.8316 185.54 39.0379C183.863 43.8334 181.278 49.2272 181.885 54.4323Z" fill="#ECD09B"/>
<path d="M318.019 70.9049C316.275 64.0409 310.848 59.152 304.776 55.9546C302.6 54.7814 300.365 53.7218 298.079 52.7801C284.546 40.9717 263.224 47.7673 248.919 55.306C244.477 57.6462 238.447 59.7516 235.344 63.9235C231.889 68.5745 234.366 74.1967 235.448 79.216C236.674 84.8578 237.003 90.6528 236.964 96.4152C236.886 108.057 235.334 119.725 236.537 131.355C237.01 135.918 237.749 141.044 240.924 144.623C244.304 148.433 249.929 148.772 254.675 149C260.092 149.268 265.127 151.008 270.479 151.683C276.167 152.396 282.001 151.895 287.206 149.382C291.938 147.1 296.319 144.153 300.217 140.63C303.642 137.472 305.207 133.46 305.937 129.047C307.446 125.934 308.469 122.453 309.646 119.25C311.184 115.052 313.648 111.274 315.141 107.057C316.48 103.168 317.397 99.1472 317.875 95.0626C318.345 91.0569 318.527 86.9144 318.723 82.8794C318.925 78.8999 319.01 74.7965 318.019 70.9049Z" fill="url(#paint3_linear)"/>
<path d="M283.894 46.2028C283.217 44.961 282.369 43.7779 281.743 42.5328C280.819 40.703 280.045 38.8009 279.429 36.8454C278.884 34.9849 278.473 33.0874 278.201 31.1678C277.904 29.2774 277.402 27.3414 275.782 26.1355C274.162 24.9295 271.242 24.8578 269.508 25.9138C267.934 26.8916 267.693 28.3778 267.135 29.9977C266.36 32.2303 266.301 34.6552 265.955 36.9889C265.456 40.1342 264.751 43.2436 263.847 46.2973C263.228 47.2711 262.692 48.2948 262.243 49.3578C263.547 54.7062 265.525 59.3605 267.592 64.2722C267.83 64.3406 268.067 64.3993 268.309 64.4514C272.637 57.62 278.171 51.7077 283.894 46.2028Z" fill="url(#paint4_linear)"/>
<path d="M270.878 127.576C269.779 131.1 267.645 134.271 265.174 137.129C264.578 137.82 257.267 144.626 257.423 144.864C253.838 139.486 249.953 133.378 249.702 126.938C249.565 123.333 250.406 119.741 251.198 116.228C252.013 112.61 252.893 109.002 253.838 105.404C255.615 98.6374 257.583 91.907 259.803 85.2483C261.934 78.8634 263.851 71.856 267.423 65.9958C268.775 79.8999 269.766 93.83 271.037 107.741C271.631 114.213 272.885 121.162 270.878 127.576Z" fill="#E01E5A"/>
<path d="M332.675 113.375C331.324 108.866 329.972 104.357 328.62 99.8479C324.833 87.2052 322.057 74.5754 314.387 63.5676C312.986 61.5545 311.43 59.5735 309.327 58.3233C305.524 56.0602 298.853 57.3617 298.441 62.5354C297.956 68.6259 299.15 75.3223 300.493 81.2461C302.539 90.2731 306.071 98.8936 310.941 106.753C315.408 113.927 320.309 122.325 327.873 126.556C328.648 126.989 335.074 127.778 335.093 126.351C335.15 121.88 333.945 117.619 332.675 113.375Z" fill="#00BCF8"/>
<path d="M268.193 123.313C268.281 124.859 266.932 126.181 265.488 126.568C264.765 126.743 264.019 126.789 263.281 126.705C262.171 126.885 261.075 127.147 260.002 127.489C257.164 128.466 253.961 129.96 250.893 129.488C250.402 129.449 249.928 129.28 249.519 128.996C249.005 128.58 248.888 127.903 248.33 127.496C247.882 127.17 247.51 127.274 247.353 126.588C247.195 125.901 247.7 125.152 248.021 124.514C247.296 124.491 246.574 124.351 246.082 123.928C244.846 122.857 246.155 121.701 247.145 120.904C246.473 120.836 245.858 120.631 245.537 120.145C244.537 118.668 246.896 117.326 247.904 116.864C250.63 115.679 253.592 115.189 256.54 115.435C255.504 112.818 255.16 109.963 255.544 107.164C255.629 106.558 256.625 103.733 257.435 105.373C257.574 105.745 257.611 106.149 257.543 106.542C257.227 111.558 260.503 116.731 264.52 119.315C265.336 119.778 266.119 120.301 266.862 120.881C267.292 121.252 267.647 121.705 267.909 122.216C268.078 122.557 268.174 122.931 268.193 123.313Z" fill="#ECD09B"/>
<path d="M335.079 121.973C331.604 114.185 321.168 111.299 313.397 110.553C303.725 109.639 293.716 111.251 284.304 113.408C279.454 114.512 274.549 115.965 270.067 118.135C266.188 120.016 258.82 126.358 267.265 128.337C274.638 130.06 282.066 131.141 289.501 132.461C298.477 134.079 307.701 133.99 316.776 133.429C321.377 133.143 326.676 133.28 330.94 131.31C334.649 129.6 336.842 125.926 335.079 121.973Z" fill="url(#paint5_linear)"/>
<path d="M271.226 62.9196C271.016 62.2384 270.593 61.6423 270.02 61.2182C269.14 60.599 267.97 60.5436 266.93 60.6087C264.743 60.7456 263.345 63.0238 263.72 65.0609C263.846 65.8399 264.225 66.5557 264.799 67.0972C265.373 67.6388 266.109 67.9759 266.894 68.0562C267.955 68.2109 269.036 68.0042 269.965 67.4695C271.363 66.5927 271.764 64.5362 271.226 62.9196Z" fill="#E01E5A"/>
<path d="M265.949 59.3334C265.601 58.4827 265.271 57.619 264.952 56.7455C263.938 53.9784 262.912 51.1559 261.993 48.3203C261.944 48.1052 261.898 47.8868 261.849 47.6685C259.568 49.435 257.286 51.2732 254.92 53.0495C254.934 54.0302 255.001 55.0095 255.122 55.9829C255.241 57.1427 255.418 58.2958 255.653 59.4377C255.95 61.1224 256.386 62.7795 256.957 64.3918C257.609 66.582 258.479 69.0981 259.819 70.8679C261.256 67.0546 263.404 63.5411 266.748 60.8815C266.471 60.3633 266.204 59.8516 265.949 59.3334Z" fill="url(#paint6_linear)"/>
<path d="M279.938 20.0211C279.805 26.5396 277.438 33.156 272.344 37.4223C270.255 39.1791 267.69 40.0526 264.962 39.4007C262.234 38.7488 260.933 35.2386 259.943 32.9083C258.532 29.6236 257.619 26.1468 257.234 22.5927C256.729 17.7689 256.84 12.2934 261.083 9.11558C263.626 7.21217 266.702 7.01009 269.766 7.16002C272.742 7.30343 275.835 7.95202 277.644 10.5399C279.453 13.1277 280.003 16.8889 279.938 20.0211Z" fill="#ECD09B"/>
<path d="M281.903 29.4207C281.501 30.0852 280.881 30.5901 280.15 30.8497C279.418 31.1093 278.618 31.1077 277.888 30.845C275.411 29.8672 277.236 25.9007 277.611 24.1147C278.011 22.1591 279.498 17.4397 277.125 16.0773C276.004 15.4254 274.192 15.9762 273.37 16.9475C272.85 17.573 272.471 18.3034 272.259 19.0888C271.968 20.2059 271.88 21.3661 271.998 22.5143C272.044 22.8011 272.066 23.091 272.067 23.3813C272.067 23.5345 270.883 23.5997 270.851 23.3813C269.752 16.6542 260.385 19.405 255.858 16.9801C253.824 15.8883 252.821 13.7469 252.752 11.4947C252.722 10.408 252.918 9.32679 253.329 8.3202C253.211 6.92907 253.595 5.54155 254.411 4.40908C256.308 1.75603 260.196 0.752194 263.733 1.00316C265.362 -0.127809 268.025 -0.0561064 269.834 0.0644866C271.424 0.139198 272.987 0.508298 274.443 1.15307L274.7 1.28019C275.072 1.19545 275.479 1.10094 275.577 1.08464C276.312 0.939081 277.055 0.838926 277.803 0.784773C279.667 0.657661 282.239 0.628328 282.91 2.74034C283.764 5.4162 283.96 8.32021 284.214 11.133C284.716 17.1105 285.312 24.1016 281.903 29.4207Z" fill="#424242"/>
<path d="M284.922 43.7444C281.741 47.1177 278.224 50.1717 275.121 53.6395C273.521 55.4289 271.956 57.2573 270.467 59.1412C269.874 59.8876 269.264 60.6307 268.707 61.3999C271.309 64.2923 273.57 67.4748 275.444 70.8843C275.639 70.2814 275.838 69.6947 276.05 69.1374C277.12 66.2332 278.38 63.4024 279.821 60.6633C282.381 55.8425 285.225 51.1789 288.341 46.6973C287.286 45.6189 286.142 44.6311 284.922 43.7444Z" fill="url(#paint7_linear)"/>
<defs>
<linearGradient id="paint0_linear" x1="269.544" y1="288.875" x2="231.042" y2="281.802" gradientUnits="userSpaceOnUse">
<stop stop-color="#2E4A74"/>
<stop offset="1" stop-color="#1E2235"/>
</linearGradient>
<linearGradient id="paint1_linear" x1="287.652" y1="269.036" x2="260.343" y2="265.92" gradientUnits="userSpaceOnUse">
<stop stop-color="#2E4A74"/>
<stop offset="1" stop-color="#1E2235"/>
</linearGradient>
<linearGradient id="paint2_linear" x1="217.923" y1="53.0674" x2="217.923" y2="122.374" gradientUnits="userSpaceOnUse">
<stop stop-color="#00BCF8"/>
<stop offset="1" stop-color="#015BA2"/>
</linearGradient>
<linearGradient id="paint3_linear" x1="270" y1="185" x2="291.5" y2="46" gradientUnits="userSpaceOnUse">
<stop stop-color="#015BA2"/>
<stop offset="1" stop-color="#00BCF8"/>
</linearGradient>
<linearGradient id="paint4_linear" x1="245.897" y1="9.9444" x2="273.069" y2="64.4514" gradientUnits="userSpaceOnUse">
<stop stop-color="#D3B98A"/>
<stop offset="1" stop-color="#ECD09B"/>
</linearGradient>
<linearGradient id="paint5_linear" x1="319.001" y1="103" x2="276.001" y2="140.5" gradientUnits="userSpaceOnUse">
<stop stop-color="#00BCF8"/>
<stop offset="1" stop-color="#015BA2"/>
</linearGradient>
<linearGradient id="paint6_linear" x1="260.834" y1="47.6685" x2="260.834" y2="70.8679" gradientUnits="userSpaceOnUse">
<stop stop-color="#00BCF8"/>
<stop offset="1" stop-color="#015BA2"/>
</linearGradient>
<linearGradient id="paint7_linear" x1="278.524" y1="43.7444" x2="278.524" y2="70.8843" gradientUnits="userSpaceOnUse">
<stop stop-color="#00BCF8"/>
<stop offset="1" stop-color="#015BA2"/>
</linearGradient>
</defs>
</svg>
