<svg width="188" height="37" viewBox="0 0 188 37" fill="none" xmlns="http://www.w3.org/2000/svg">
<path d="M47.7895 12.0032C47.2156 11.4095 46.9287 10.6038 46.9287 9.58616C46.9287 8.56847 47.2156 7.77341 47.7895 7.20096C48.3839 6.60731 49.1934 6.31049 50.2182 6.31049C51.243 6.31049 52.0423 6.60731 52.6161 7.20096C53.2105 7.77341 53.5077 8.56847 53.5077 9.58616C53.5077 10.6038 53.2105 11.4095 52.6161 12.0032C52.0423 12.5756 51.243 12.8618 50.2182 12.8618C49.1934 12.8618 48.3839 12.5756 47.7895 12.0032ZM53.354 30.0034H47.0824V14.1021H53.354V30.0034Z" fill="url(#paint0_linear)"/>
<path d="M53.8876 19.0633V14.1021H55.7322V9.33173H61.8193V14.1021H65.3547V19.0633H61.8193V23.6747C61.8193 24.6924 62.3829 25.2012 63.5102 25.2012C64.248 25.2012 65.0268 24.9998 65.8466 24.597V29.7808C64.8014 30.2473 63.3565 30.4805 61.5119 30.4805C59.8108 30.4805 58.4068 29.9928 57.3001 29.0176C56.1934 28.0423 55.64 26.5369 55.64 24.5016V19.0633H53.8876Z" fill="url(#paint1_linear)"/>
<path d="M89.101 20.081V30.0034H82.8294V21.0351C82.8294 20.5475 82.7064 20.1658 82.4605 19.8902C82.2351 19.5934 81.9276 19.445 81.5382 19.445C80.8824 19.445 80.3597 19.6782 79.9703 20.1446C79.6014 20.6111 79.417 21.2259 79.417 21.9892V30.0034H73.1454V7.10555H79.2632V15.9467C79.7346 15.2894 80.3802 14.7382 81.2 14.2929C82.0199 13.8477 82.8499 13.6251 83.6902 13.6251C85.3298 13.6251 86.6415 14.1763 87.6253 15.2788C88.6091 16.3601 89.101 17.9608 89.101 20.081Z" fill="url(#paint2_linear)"/>
<path d="M91.0457 20.3036V14.611C92.5213 13.9537 94.4786 13.6251 96.9176 13.6251C99.418 13.6251 101.324 14.1975 102.636 15.3424C103.968 16.4873 104.634 18.0669 104.634 20.081V30.0034H99.0081L98.8851 28.9539L98.9159 27.9999H98.8544C98.137 29.6536 96.7229 30.4805 94.6119 30.4805C93.2592 30.4805 92.1012 30.067 91.1379 29.2402C90.1951 28.4133 89.7237 27.1836 89.7237 25.5511C89.7237 23.6429 90.5641 22.233 92.2447 21.3213C93.9253 20.3884 95.9748 20.1022 98.3932 20.4627V20.4308C98.3932 19.4344 97.5324 18.9361 95.8108 18.9361C93.9868 18.9361 92.3984 19.392 91.0457 20.3036ZM96.4872 25.6783C97.0201 25.6783 97.4402 25.4769 97.7476 25.074C98.0756 24.6712 98.2395 24.0881 98.2395 23.3249C97.3172 23.1765 96.6204 23.2401 96.149 23.5157C95.6981 23.7913 95.4727 24.173 95.4727 24.6606C95.4727 25.3391 95.8108 25.6783 96.4872 25.6783Z" fill="url(#paint3_linear)"/>
<path d="M121.547 28.2543C120.195 29.7384 118.535 30.4805 116.567 30.4805C114.6 30.4805 113.165 29.8974 112.263 28.7313H112.202C112.263 28.9858 112.294 29.431 112.294 30.067V37H106.022V14.1021H111.679L111.802 15.1516L111.771 16.1057H111.833C112.14 15.3848 112.724 14.7912 113.585 14.3247C114.466 13.8583 115.409 13.6251 116.413 13.6251C118.442 13.6251 120.144 14.3777 121.517 15.8831C122.91 17.3672 123.607 19.4238 123.607 22.0528C123.607 24.6818 122.921 26.749 121.547 28.2543ZM116.997 19.8266C116.506 19.2542 115.891 18.9679 115.153 18.9679C114.415 18.9679 113.79 19.2542 113.278 19.8266C112.786 20.3778 112.54 21.1199 112.54 22.0528C112.54 22.9857 112.786 23.7383 113.278 24.3108C113.79 24.862 114.415 25.1376 115.153 25.1376C115.891 25.1376 116.506 24.862 116.997 24.3108C117.51 23.7383 117.766 22.9857 117.766 22.0528C117.766 21.1199 117.51 20.3778 116.997 19.8266Z" fill="url(#paint4_linear)"/>
<path d="M139.892 28.2543C138.54 29.7384 136.879 30.4805 134.912 30.4805C132.944 30.4805 131.51 29.8974 130.608 28.7313H130.546C130.608 28.9858 130.639 29.431 130.639 30.067V37H124.367V14.1021H130.024L130.147 15.1516L130.116 16.1057H130.178C130.485 15.3848 131.069 14.7912 131.93 14.3247C132.811 13.8583 133.754 13.6251 134.758 13.6251C136.787 13.6251 138.488 14.3777 139.862 15.8831C141.255 17.3672 141.952 19.4238 141.952 22.0528C141.952 24.6818 141.265 26.749 139.892 28.2543ZM135.342 19.8266C134.85 19.2542 134.236 18.9679 133.498 18.9679C132.76 18.9679 132.135 19.2542 131.622 19.8266C131.131 20.3778 130.885 21.1199 130.885 22.0528C130.885 22.9857 131.131 23.7383 131.622 24.3108C132.135 24.862 132.76 25.1376 133.498 25.1376C134.236 25.1376 134.85 24.862 135.342 24.3108C135.855 23.7383 136.111 22.9857 136.111 22.0528C136.111 21.1199 135.855 20.3778 135.342 19.8266Z" fill="url(#paint5_linear)"/>
<path d="M150.141 13.6251C152.498 13.6251 154.312 14.3459 155.582 15.7877C156.853 17.2082 157.488 18.9785 157.488 21.0987C157.488 22.0316 157.427 22.7842 157.304 23.3567H148.542C148.809 24.5228 149.875 25.1058 151.74 25.1058C153.584 25.1058 155.285 24.8196 156.843 24.2472V29.59C155.47 30.1836 153.564 30.4805 151.125 30.4805C148.317 30.4805 146.103 29.696 144.484 28.1271C142.865 26.5581 142.056 24.5334 142.056 22.0528C142.056 19.6358 142.824 17.6322 144.361 16.0421C145.919 14.4308 147.845 13.6251 150.141 13.6251ZM151.617 20.5899C151.658 19.975 151.545 19.4874 151.278 19.1269C151.012 18.7453 150.612 18.5545 150.079 18.5545C149.567 18.5545 149.167 18.7453 148.88 19.1269C148.614 19.4874 148.481 19.975 148.481 20.5899H151.617Z" fill="url(#paint6_linear)"/>
<path d="M174.25 20.081V30.0034H167.979V21.0351C167.979 20.5475 167.856 20.1658 167.61 19.8902C167.384 19.5934 167.077 19.445 166.688 19.445C166.032 19.445 165.509 19.6782 165.12 20.1446C164.751 20.6111 164.566 21.2259 164.566 21.9892V30.0034H158.295V14.1021H163.951L164.136 15.5332C164.177 15.8513 164.136 16.1799 164.013 16.5191H164.074C164.443 15.7559 165.089 15.088 166.011 14.5156C166.934 13.9219 167.876 13.6251 168.84 13.6251C170.479 13.6251 171.791 14.1763 172.775 15.2788C173.758 16.3601 174.25 17.9608 174.25 20.081Z" fill="url(#paint7_linear)"/>
<path d="M182.559 20.0492C184.485 20.5369 185.869 21.1729 186.709 21.9574C187.57 22.7206 188 23.8443 188 25.3284C188 26.961 187.385 28.2331 186.156 29.1448C184.926 30.0352 183.204 30.4805 180.991 30.4805C178.962 30.4805 177.138 30.1412 175.519 29.4628V23.8655C176.257 24.2896 177.158 24.6712 178.224 25.0104C179.29 25.3284 180.192 25.4875 180.929 25.4875C181.831 25.4875 182.282 25.3284 182.282 25.0104C182.282 24.7772 181.729 24.5122 180.622 24.2154C180.499 24.1942 180.407 24.173 180.345 24.1518C178.665 23.7277 177.384 23.1235 176.502 22.339C175.621 21.5333 175.181 20.3672 175.181 18.8407C175.181 17.187 175.724 15.9043 176.81 14.9926C177.896 14.0809 179.423 13.6251 181.391 13.6251C183.461 13.6251 185.326 13.9537 186.986 14.611V20.0492C186.33 19.6888 185.5 19.3708 184.496 19.0951C183.512 18.8195 182.661 18.6817 181.944 18.6817C181.247 18.6817 180.899 18.8407 180.899 19.1587C180.899 19.498 181.452 19.7948 182.559 20.0492Z" fill="url(#paint8_linear)"/>
<path d="M47.6605 12.1788C47.0646 11.559 46.7666 10.7179 46.7666 9.65543C46.7666 8.59297 47.0646 7.76293 47.6605 7.1653C48.2777 6.54553 49.0358 6.2894 50.0999 6.2894C51.1641 6.2894 52.1592 6.54553 52.7552 7.1653C53.3724 7.76293 53.5984 8.59297 53.5984 9.65543C53.5984 10.7179 53.2898 11.559 52.6726 12.1788C52.0766 12.7764 51.2466 13.0752 50.1825 13.0752C49.1183 13.0752 48.2777 12.7764 47.6605 12.1788Z" fill="url(#paint9_linear)"/>
<path d="M17.1335 35.4483C26.5961 35.4483 34.2671 27.5129 34.2671 17.7241C34.2671 7.93536 26.5961 0 17.1335 0C7.67094 0 0 7.93536 0 17.7241C0 27.5129 7.67094 35.4483 17.1335 35.4483Z" fill="url(#paint10_linear)"/>
<path fill-rule="evenodd" clip-rule="evenodd" d="M10.4282 2.72563L10.1854 2.7521C9.39059 2.83873 8.87773 3.5421 8.95493 4.30169C9.70051 11.7087 9.77476 12.3608 10.1853 16.3909C10.2727 17.1589 10.2793 17.7175 10.4592 18.2319C10.6391 18.7463 11.0133 19.1639 11.558 19.4584C12.1106 19.7573 13.235 20.3066 14.373 20.9444C15.511 21.5821 16.6646 22.3324 17.1496 22.8663C17.1582 22.8744 17.204 22.92 17.2203 22.9361L20.0296 25.7188C20.3615 26.0595 20.3527 26.1381 20.0013 26.646C18.8366 28.2654 17.692 29.8984 16.5303 31.5336C16.0791 32.1674 16.2228 33.0286 16.818 33.4809C16.8836 33.5348 16.9331 33.5762 17.0149 33.6305C17.6545 34.0843 18.4395 33.9458 18.8971 33.3329C20.2597 31.4134 21.741 29.3322 23.0593 27.4739H23.0595C23.3684 27.0281 23.4971 26.4274 23.4598 25.934C23.4224 25.4406 23.2951 25.0118 22.99 24.6735L22.9897 24.6733C22.0717 23.6553 21.0721 22.5624 20.257 21.6654L20.2568 21.6651L20.2382 21.6447C20.0815 21.4721 20.0297 21.2717 20.0493 21.1179C20.0674 20.9751 20.1221 20.8647 20.2929 20.7768C21.821 20.0993 23.4584 19.3669 24.8098 18.7834C25.1642 18.6281 25.3072 18.6569 25.6348 18.9192C27.0375 20.2206 28.5179 21.5355 29.9601 22.8363C30.5166 23.3381 31.3747 23.2775 31.8599 22.7017L32.0204 22.5115C32.5055 21.9358 32.4468 21.0481 31.8903 20.5462C30.1673 19.0024 28.4072 17.4105 26.9224 16.0653V16.0649C26.6289 15.8292 26.2985 15.6709 25.932 15.5821C25.792 15.5515 25.6426 15.5307 25.4814 15.5191C25.0151 15.4857 24.5873 15.5673 24.1923 15.7136C22.5967 16.3832 20.852 17.1588 19.3949 17.8082C19.1107 17.9483 18.9682 17.9572 18.6766 17.7868C17.4122 16.9118 16.3635 16.1319 15.3516 15.3423C15.069 15.1251 15.0908 14.9077 15.2505 14.6403L19.7571 7.11642C20.1459 6.46719 19.9493 5.60134 19.3217 5.19905L19.1141 5.06574C18.487 4.66346 17.6494 4.86684 17.2606 5.51612L12.9092 12.7807C12.8708 12.8448 12.8247 12.9218 12.7908 12.9786C12.7803 12.879 12.7728 12.7964 12.7671 12.7407L11.8761 3.98372C11.7857 3.25491 11.206 2.64095 10.4282 2.72574L10.4282 2.72563Z" fill="white"/>
<path d="M9.33952 17.6367C9.00273 17.7981 8.62748 17.8881 8.2319 17.8881C6.77489 17.8881 5.59375 16.6663 5.59375 15.159C5.59375 13.6518 6.77489 12.4299 8.2319 12.4299C8.42948 12.4299 8.622 12.4524 8.80717 12.495" fill="white"/>
<defs>
<linearGradient id="paint0_linear" x1="45.5453" y1="-21.2017" x2="210.532" y2="54.7312" gradientUnits="userSpaceOnUse">
<stop stop-color="#963298"/>
<stop offset="1" stop-color="#4A154B"/>
</linearGradient>
<linearGradient id="paint1_linear" x1="45.5453" y1="-21.2017" x2="210.532" y2="54.7312" gradientUnits="userSpaceOnUse">
<stop stop-color="#963298"/>
<stop offset="1" stop-color="#4A154B"/>
</linearGradient>
<linearGradient id="paint2_linear" x1="45.5453" y1="-21.2017" x2="210.532" y2="54.7312" gradientUnits="userSpaceOnUse">
<stop stop-color="#963298"/>
<stop offset="1" stop-color="#4A154B"/>
</linearGradient>
<linearGradient id="paint3_linear" x1="45.5453" y1="-21.2017" x2="210.532" y2="54.7312" gradientUnits="userSpaceOnUse">
<stop stop-color="#963298"/>
<stop offset="1" stop-color="#4A154B"/>
</linearGradient>
<linearGradient id="paint4_linear" x1="45.5453" y1="-21.2017" x2="210.532" y2="54.7312" gradientUnits="userSpaceOnUse">
<stop stop-color="#963298"/>
<stop offset="1" stop-color="#4A154B"/>
</linearGradient>
<linearGradient id="paint5_linear" x1="45.5453" y1="-21.2017" x2="210.532" y2="54.7312" gradientUnits="userSpaceOnUse">
<stop stop-color="#963298"/>
<stop offset="1" stop-color="#4A154B"/>
</linearGradient>
<linearGradient id="paint6_linear" x1="45.5453" y1="-21.2017" x2="210.532" y2="54.7312" gradientUnits="userSpaceOnUse">
<stop stop-color="#963298"/>
<stop offset="1" stop-color="#4A154B"/>
</linearGradient>
<linearGradient id="paint7_linear" x1="45.5453" y1="-21.2017" x2="210.532" y2="54.7312" gradientUnits="userSpaceOnUse">
<stop stop-color="#963298"/>
<stop offset="1" stop-color="#4A154B"/>
</linearGradient>
<linearGradient id="paint8_linear" x1="45.5453" y1="-21.2017" x2="210.532" y2="54.7312" gradientUnits="userSpaceOnUse">
<stop stop-color="#963298"/>
<stop offset="1" stop-color="#4A154B"/>
</linearGradient>
<linearGradient id="paint9_linear" x1="42.0853" y1="1.94919" x2="60.3597" y2="22.1234" gradientUnits="userSpaceOnUse">
<stop stop-color="#FED337"/>
<stop offset="1" stop-color="#ECB22E"/>
</linearGradient>
<linearGradient id="paint10_linear" x1="0" y1="0" x2="35.0292" y2="37.6243" gradientUnits="userSpaceOnUse">
<stop stop-color="#FED337"/>
<stop offset="1" stop-color="#ECB22E"/>
</linearGradient>
</defs>
</svg>
