<svg width="262" height="52" viewBox="0 0 262 52" fill="none" xmlns="http://www.w3.org/2000/svg">
<path d="M66.6 16.6657C65.8003 15.8414 65.4004 14.7228 65.4004 13.3098C65.4004 11.8968 65.8003 10.7929 66.6 9.99809C67.4283 9.17384 68.5565 8.76172 69.9847 8.76172C71.4128 8.76172 72.5267 9.17384 73.3265 9.99809C74.1548 10.7929 74.569 11.8968 74.569 13.3098C74.569 14.7228 74.1548 15.8414 73.3265 16.6657C72.5267 17.4605 71.4128 17.8579 69.9847 17.8579C68.5565 17.8579 67.4283 17.4605 66.6 16.6657ZM74.3547 41.6581H65.6146V19.58H74.3547V41.6581Z" fill="white"/>
<path d="M75.0985 26.4683V19.58H77.6691V12.9566H86.1522V19.58H91.0792V26.4683H86.1522V32.871C86.1522 34.284 86.9376 34.9905 88.5086 34.9905C89.5368 34.9905 90.6222 34.7108 91.7647 34.1515V41.349C90.308 41.9966 88.2944 42.3204 85.7237 42.3204C83.353 42.3204 81.3965 41.6434 79.8541 40.2892C78.3118 38.9351 77.5406 36.845 77.5406 34.0191V26.4683H75.0985Z" fill="white"/>
<path d="M124.172 27.8813V41.6581H115.432V29.206C115.432 28.529 115.261 27.9991 114.918 27.6164C114.604 27.2043 114.175 26.9982 113.633 26.9982C112.719 26.9982 111.99 27.322 111.448 27.9697C110.934 28.6173 110.677 29.471 110.677 30.5307V41.6581H101.936V9.86562H110.462V22.141C111.119 21.2285 112.019 20.4631 113.161 19.8449C114.304 19.2267 115.461 18.9176 116.632 18.9176C118.917 18.9176 120.745 19.683 122.116 21.2138C123.487 22.7151 124.172 24.9376 124.172 27.8813Z" fill="white"/>
<path d="M126.883 28.1904V20.2865C128.939 19.3739 131.667 18.9176 135.066 18.9176C138.55 18.9176 141.207 19.7125 143.035 21.3021C144.891 22.8917 145.819 25.0848 145.819 27.8813V41.6581H137.979L137.808 40.2009L137.851 38.8762H137.765C136.765 41.1724 134.794 42.3204 131.852 42.3204C129.967 42.3204 128.353 41.7464 127.011 40.5983C125.697 39.4503 125.04 37.7429 125.04 35.4762C125.04 32.8268 126.211 30.8692 128.553 29.6034C130.896 28.3082 133.752 27.9108 137.122 28.4112V28.3671C137.122 26.9835 135.923 26.2917 133.523 26.2917C130.981 26.2917 128.768 26.9246 126.883 28.1904ZM134.466 35.6528C135.208 35.6528 135.794 35.3732 136.222 34.8139C136.679 34.2546 136.908 33.445 136.908 32.3853C135.623 32.1792 134.652 32.2675 133.995 32.6502C133.366 33.0329 133.052 33.5628 133.052 34.2398C133.052 35.1818 133.523 35.6528 134.466 35.6528Z" fill="white"/>
<path d="M169.39 39.2295C167.505 41.2901 165.192 42.3204 162.45 42.3204C159.708 42.3204 157.708 41.5109 156.451 39.8918H156.366C156.451 40.2451 156.494 40.8633 156.494 41.7464V51.3724H147.754V19.58H155.637L155.809 21.0371L155.766 22.3618H155.852C156.28 21.3609 157.094 20.5367 158.294 19.8891C159.522 19.2415 160.836 18.9176 162.235 18.9176C165.063 18.9176 167.434 19.9627 169.347 22.0527C171.29 24.1133 172.261 26.9688 172.261 30.619C172.261 34.2693 171.304 37.1394 169.39 39.2295ZM163.049 27.5281C162.364 26.7333 161.507 26.3359 160.479 26.3359C159.45 26.3359 158.579 26.7333 157.865 27.5281C157.18 28.2935 156.837 29.3238 156.837 30.619C156.837 31.9143 157.18 32.9593 157.865 33.7541C158.579 34.5195 159.45 34.9022 160.479 34.9022C161.507 34.9022 162.364 34.5195 163.049 33.7541C163.763 32.9593 164.12 31.9143 164.12 30.619C164.12 29.3238 163.763 28.2935 163.049 27.5281Z" fill="white"/>
<path d="M194.956 39.2295C193.071 41.2901 190.757 42.3204 188.015 42.3204C185.273 42.3204 183.274 41.5109 182.017 39.8918H181.931C182.017 40.2451 182.06 40.8633 182.06 41.7464V51.3724H173.32V19.58H181.203L181.374 21.0371L181.332 22.3618H181.417C181.846 21.3609 182.66 20.5367 183.859 19.8891C185.088 19.2415 186.401 18.9176 187.801 18.9176C190.629 18.9176 192.999 19.9627 194.913 22.0527C196.855 24.1133 197.826 26.9688 197.826 30.619C197.826 34.2693 196.87 37.1394 194.956 39.2295ZM188.615 27.5281C187.93 26.7333 187.073 26.3359 186.044 26.3359C185.016 26.3359 184.145 26.7333 183.431 27.5281C182.745 28.2935 182.403 29.3238 182.403 30.619C182.403 31.9143 182.745 32.9593 183.431 33.7541C184.145 34.5195 185.016 34.9022 186.044 34.9022C187.073 34.9022 187.93 34.5195 188.615 33.7541C189.329 32.9593 189.686 31.9143 189.686 30.619C189.686 29.3238 189.329 28.2935 188.615 27.5281Z" fill="white"/>
<path d="M209.239 18.9176C212.523 18.9176 215.051 19.9185 216.822 21.9203C218.593 23.8926 219.478 26.3506 219.478 29.2943C219.478 30.5896 219.393 31.6346 219.221 32.4294H207.011C207.382 34.0485 208.867 34.858 211.466 34.858C214.037 34.858 216.408 34.4606 218.579 33.6658V41.084C216.665 41.9083 214.009 42.3204 210.61 42.3204C206.697 42.3204 203.612 41.2312 201.355 39.0529C199.099 36.8745 197.971 34.0632 197.971 30.619C197.971 27.2632 199.042 24.4813 201.184 22.2735C203.355 20.0363 206.04 18.9176 209.239 18.9176ZM211.295 28.5878C211.352 27.7342 211.195 27.0571 210.824 26.5567C210.453 26.0268 209.896 25.7618 209.153 25.7618C208.439 25.7618 207.882 26.0268 207.482 26.5567C207.111 27.0571 206.925 27.7342 206.925 28.5878H211.295Z" fill="white"/>
<path d="M242.838 27.8813V41.6581H234.098V29.206C234.098 28.529 233.926 27.9991 233.584 27.6164C233.269 27.2043 232.841 26.9982 232.298 26.9982C231.384 26.9982 230.656 27.322 230.113 27.9697C229.599 28.6173 229.342 29.471 229.342 30.5307V41.6581H220.602V19.58H228.485L228.742 21.567C228.799 22.0086 228.742 22.4649 228.571 22.9359H228.657C229.171 21.8761 230.07 20.9488 231.356 20.154C232.641 19.3298 233.955 18.9176 235.297 18.9176C237.582 18.9176 239.41 19.683 240.781 21.2138C242.152 22.7151 242.838 24.9376 242.838 27.8813Z" fill="white"/>
<path d="M254.417 27.8372C257.102 28.5142 259.03 29.3974 260.201 30.4866C261.4 31.5463 262 33.1065 262 35.1671C262 37.4338 261.143 39.2 259.429 40.4659C257.716 41.7022 255.316 42.3204 252.232 42.3204C249.404 42.3204 246.862 41.8494 244.605 40.9074V33.1359C245.634 33.7247 246.89 34.2546 248.376 34.7256C249.861 35.1671 251.118 35.3879 252.146 35.3879C253.403 35.3879 254.031 35.1671 254.031 34.7256C254.031 34.4017 253.26 34.0338 251.718 33.6216C251.546 33.5922 251.418 33.5628 251.332 33.5333C248.99 32.9446 247.205 32.1056 245.976 31.0164C244.748 29.8978 244.134 28.2787 244.134 26.1593C244.134 23.8631 244.891 22.0822 246.405 20.8164C247.919 19.5505 250.047 18.9176 252.789 18.9176C255.673 18.9176 258.273 19.3739 260.586 20.2865V27.8372C259.672 27.3368 258.515 26.8952 257.116 26.5125C255.745 26.1298 254.559 25.9385 253.56 25.9385C252.589 25.9385 252.103 26.1593 252.103 26.6008C252.103 27.0718 252.874 27.4839 254.417 27.8372Z" fill="white"/>
<path d="M66.4195 16.9095C65.5891 16.049 65.1738 14.8811 65.1738 13.406C65.1738 11.9308 65.5891 10.7783 66.4195 9.94856C67.2797 9.08804 68.3362 8.73242 69.8192 8.73242C71.3022 8.73242 72.6891 9.08804 73.5196 9.94856C74.3797 10.7783 74.6947 11.9308 74.6947 13.406C74.6947 14.8811 74.2646 16.049 73.4045 16.9095C72.574 17.7393 71.4172 18.1542 69.9342 18.1542C68.4513 18.1542 67.2797 17.7393 66.4195 16.9095Z" fill="url(#paint0_linear)"/>
<path d="M23.8776 49.218C37.0648 49.218 47.7551 38.2001 47.7551 24.609C47.7551 11.0178 37.0648 0 23.8776 0C10.6903 0 0 11.0178 0 24.609C0 38.2001 10.6903 49.218 23.8776 49.218Z" fill="url(#paint1_linear)"/>
<path fill-rule="evenodd" clip-rule="evenodd" d="M14.5335 3.78587L14.1952 3.82263C13.0876 3.94291 12.3728 4.9195 12.4804 5.97415C13.5195 16.2583 13.6229 17.1638 14.195 22.7593C14.3169 23.8257 14.3261 24.6012 14.5768 25.3154C14.8275 26.0296 15.3489 26.6095 16.1081 27.0184C16.8782 27.4333 18.4451 28.1961 20.0311 29.0816C21.6171 29.9671 23.2247 31.0088 23.9006 31.75C23.9126 31.7614 23.9765 31.8246 23.9992 31.847L27.9142 35.7107C28.3767 36.1836 28.3645 36.2928 27.8748 36.998C26.2516 39.2464 24.6565 41.5138 23.0376 43.7842C22.4087 44.6641 22.6091 45.8599 23.4385 46.4879C23.53 46.5627 23.5988 46.6202 23.7129 46.6955C24.6043 47.3256 25.6982 47.1334 26.336 46.2824C28.235 43.6172 30.2993 40.7276 32.1364 38.1475H32.1367C32.5672 37.5284 32.7466 36.6944 32.6946 36.0094C32.6425 35.3244 32.4651 34.729 32.0399 34.2593L32.0395 34.2589C30.7602 32.8455 29.3671 31.3282 28.2312 30.0827L28.2309 30.0823L28.205 30.0539C27.9866 29.8144 27.9144 29.536 27.9417 29.3225C27.9669 29.1242 28.0432 28.9709 28.2812 28.8489C30.4108 27.9082 32.6927 26.8914 34.5761 26.0812C35.0698 25.8655 35.2692 25.9056 35.7257 26.2697C37.6806 28.0766 39.7436 29.9023 41.7535 31.7084C42.5291 32.4052 43.725 32.321 44.4012 31.5216L44.6248 31.2574C45.3008 30.4581 45.219 29.2257 44.4435 28.5287C42.0423 26.3853 39.5894 24.175 37.5202 22.3073V22.3067C37.1112 21.9794 36.6507 21.7596 36.1399 21.6364C35.9449 21.5938 35.7365 21.565 35.5119 21.549C34.8621 21.5025 34.2659 21.6159 33.7155 21.8189C31.4917 22.7486 29.0603 23.8256 27.0297 24.7272C26.6337 24.9218 26.435 24.934 26.0287 24.6975C24.2667 23.4826 22.8052 22.3997 21.3949 21.3034C21.001 21.0019 21.0314 20.7 21.254 20.3287L27.5344 9.88225C28.0764 8.98083 27.8023 7.77863 26.9277 7.22009L26.6384 7.03499C25.7644 6.47644 24.5972 6.75882 24.0553 7.66031L17.9912 17.7468C17.9376 17.8358 17.8735 17.9427 17.8261 18.0216C17.8115 17.8833 17.801 17.7686 17.7932 17.6913L16.5514 5.53267C16.4254 4.52075 15.6176 3.66831 14.5336 3.78603L14.5335 3.78587Z" fill="#4A154B"/>
<path d="M13.0161 24.4888C12.5467 24.7128 12.0238 24.8379 11.4725 24.8379C9.44195 24.8379 7.7959 23.1414 7.7959 21.0487C7.7959 18.956 9.44195 17.2595 11.4725 17.2595C11.7478 17.2595 12.0161 17.2907 12.2742 17.3499" fill="#4A154B"/>
<defs>
<linearGradient id="paint0_linear" x1="69.9342" y1="8.73242" x2="69.9342" y2="43.0761" gradientUnits="userSpaceOnUse">
<stop stop-color="#FED337"/>
<stop offset="1" stop-color="#FDBB00"/>
</linearGradient>
<linearGradient id="paint1_linear" x1="23.8776" y1="0" x2="23.8776" y2="49.218" gradientUnits="userSpaceOnUse">
<stop stop-color="#FED337"/>
<stop offset="1" stop-color="#FDBB00"/>
</linearGradient>
</defs>
</svg>
