<svg width="549" height="300" viewBox="0 0 549 300" fill="none" xmlns="http://www.w3.org/2000/svg">
<path d="M150.044 46.8H6.62891V207.814H150.044V46.8Z" fill="#DDD2E0"/>
<path d="M305.223 6.9856H150.045V207.814H305.223V6.9856Z" fill="#DDD2E0"/>
<path d="M312.066 0H143.244V13.6285H312.066V0Z" fill="#9898BF"/>
<path d="M150.045 44.5713H0V54.8998H150.045V44.5713Z" fill="#9898BF"/>
<path d="M133.492 103.2H27.2031V207.685H133.492V103.2Z" fill="#9898BF"/>
<path d="M227.593 140.785H162.279V92.4856H227.721L227.593 140.785Z" fill="#9898BF"/>
<path d="M279.858 99.5142H234.605V207.471H279.858V99.5142Z" fill="#9898BF"/>
<path d="M292.349 25.8H161.809V65.9571H292.349V25.8Z" fill="#E7E9E6"/>
<path d="M133.492 103.2H27.2031V116.657H133.492V103.2Z" fill="#E7E9E6"/>
<path d="M125.409 194.571H34.2188V197.528H125.409V194.571Z" fill="#7575A0"/>
<path d="M44.4825 197.314H38.9648V207.642H44.4825V197.314Z" fill="#7575A0"/>
<path d="M119.548 197.528H114.672V207.471H119.548V197.528Z" fill="#7575A0"/>
<path d="M351.46 25.8H305.395V71.9571H351.46V25.8Z" fill="#E7E9E6"/>
<path d="M337.775 62.3144H313.267C311.47 62.3144 310.059 60.8573 310.059 59.1001V49.5002C310.059 47.7002 311.513 46.2859 313.267 46.2859H337.775C339.571 46.2859 340.983 47.743 340.983 49.5002V59.1001C340.983 60.8573 339.529 62.3144 337.775 62.3144Z" fill="#9898BF"/>
<path d="M320.153 67.9714H316.133C314.935 67.9714 313.951 66.9856 313.951 65.7856V62.3142H322.292V65.7856C322.292 66.9856 321.351 67.9714 320.153 67.9714Z" fill="#9898BF"/>
<path d="M337.561 46.2858H313.951L315.02 39.043C315.32 37.0287 317.031 35.5715 318.784 35.5715H335.679L337.561 46.2858Z" fill="#9898BF"/>
<path d="M334.225 46.5002H315.961L316.56 40.9288C316.774 39.3859 318.356 38.2288 319.939 38.2288H332.984L334.225 46.5002Z" fill="#E7E9E6"/>
<path d="M317.031 58.4142C319.157 58.4142 320.881 56.6873 320.881 54.5571C320.881 52.4268 319.157 50.7 317.031 50.7C314.905 50.7 313.182 52.4268 313.182 54.5571C313.182 56.6873 314.905 58.4142 317.031 58.4142Z" fill="#E7E9E6"/>
<path d="M335.251 53.3572H322.291V55.2429H335.251V53.3572Z" fill="#E7E9E6"/>
<path d="M338.755 69.857C334.905 69.857 331.825 66.7284 331.825 62.9141V44.6999C329.858 42.8142 328.703 40.1999 328.703 37.4142C328.703 33.9856 330.927 28.9285 335.675 28.9285C336.744 28.9285 337.6 29.7856 337.6 30.857V34.5427C337.6 35.0999 338.027 35.5285 338.583 35.5285C339.14 35.5285 339.567 35.0999 339.567 34.5427V30.857C339.567 29.7856 340.423 28.9285 341.492 28.9285C346.582 28.9285 348.849 33.8999 348.849 37.4142C348.849 40.1999 347.737 42.7713 345.726 44.6999V62.9141C345.726 66.7713 342.604 69.857 338.755 69.857Z" fill="#E7E9E6"/>
<path d="M343.547 62.9143V43.8C345.429 42.3 346.669 39.9857 346.669 37.4143C346.669 34.7143 344.958 30.8572 341.237 30.8572V34.5429C341.237 36.1286 339.954 37.4572 338.329 37.4572C336.746 37.4572 335.42 36.1715 335.42 34.5429V30.8572C332.811 30.8572 330.373 34.7143 330.373 37.4143C330.373 40.0286 331.571 42.3 333.495 43.8V62.9143C333.495 65.7 335.762 67.9714 338.543 67.9714C341.28 67.9714 343.547 65.7 343.547 62.9143Z" fill="#9898BF"/>
<path d="M192.646 292.671C192.646 292.671 182.466 282.471 206.632 281.356C230.756 280.242 235.033 285.342 237.3 282.085C239.567 278.828 241.492 279.728 248.293 276.642C255.093 273.556 308.345 278.742 315.317 278.099C322.289 277.456 317.712 273.556 328.918 271.585C340.125 269.614 502.36 267.556 504.199 281.356C505.995 295.156 413.393 302.356 391.58 299.056C369.809 295.714 204.922 306.642 192.646 292.671Z" fill="url(#paint0_linear)"/>
<path d="M40.2912 152.186C40.2912 152.186 48.204 123.428 53.5506 121.586C58.8971 119.743 105.947 120.771 105.947 120.771C110.352 120.471 117.538 144.343 119.548 151.543C124.51 153.214 125.451 158.571 125.451 159.9C125.066 160.457 125.451 179.614 123.996 188.271H36.7839C34.2175 184.585 33.9609 168.385 35.1157 160.8C36.0567 153.471 40.2912 152.186 40.2912 152.186Z" fill="#6B6B91"/>
<path d="M41.7441 151.285C41.7441 151.285 48.9299 124.757 52.7794 124.028C56.6289 123.3 106.202 123.128 106.202 123.128C109.966 123.985 118.135 149.4 118.478 151.628C99.1872 143.1 60.3073 144.814 41.7441 151.285Z" fill="#E7E9E6"/>
<path d="M38.9662 156.428C39.8644 156.428 41.7036 156.428 41.7036 156.428C41.7036 156.428 44.441 160.285 45.382 160.671C46.2802 161.057 47.3923 158.571 47.3923 158.571C47.3923 158.571 51.7978 157.757 52.3539 159.385C52.9099 161.057 53.2521 165.3 53.2521 165.3C53.2521 165.3 39.9927 167.7 38.9234 165.3C37.8541 162.9 38.9662 156.428 38.9662 156.428Z" fill="#E7E9E6"/>
<path d="M107.743 165.257C107.743 165.257 107.572 158.828 115.485 157.328C123.398 155.828 122.457 158.228 122.457 158.228L122.5 166.286C122.5 166.328 107.273 167.743 107.743 165.257Z" fill="#E7E9E6"/>
<path d="M92.6864 181.285H68.2207V185.7H92.6864V181.285Z" fill="#545470"/>
<path d="M113.261 173.657H99.2749L99.3177 173.485L103.381 166.328C103.381 166.328 96.0242 173.743 95.126 173.485C94.2278 173.228 81.3534 171.728 80.4979 172.285C79.6852 172.843 73.7827 173.485 73.7827 173.485L69.206 170.871C69.206 170.871 65.3565 173.014 64.0734 173.485C62.7902 173.957 56.5455 168.257 56.5455 168.257C56.5455 168.257 49.1886 173.228 48.2904 173.4C47.3922 173.571 40.9336 173.4 40.9336 173.4L41.8318 175.628L99.1894 174.728L99.2749 174.257H113.347V173.657H113.261Z" fill="#022042"/>
<path d="M62.7051 164.7H97.265L95.2547 168.214H65.2714L62.7051 164.7Z" fill="#545470"/>
<path d="M122.926 194.571H112.875L111.164 188.314H123.825L122.926 194.571Z" fill="#022042"/>
<path d="M48.8463 194.571H38.7949L37.084 188.314H49.7873L48.8463 194.571Z" fill="#022042"/>
<path d="M42.7286 144.043C42.7286 144.043 38.5797 142.028 35.1151 142.114C31.6934 142.243 30.5813 146.914 33.6181 148.5C33.6609 148.5 33.6609 148.543 33.7037 148.543C34.6874 149.014 35.7567 149.228 36.8688 149.228H41.1033L42.7286 144.043Z" fill="#545470"/>
<path d="M117.066 144.557C117.066 144.557 121.173 142.414 124.423 142.243C127.973 142.071 129.385 146.871 126.22 148.543C126.177 148.543 126.177 148.586 126.134 148.586C125.15 149.057 124.081 149.271 122.969 149.271H118.735L117.066 144.557Z" fill="#545470"/>
<path d="M88.9668 145.971C88.9668 145.971 93.5862 139.5 100.387 140.786C107.188 142.071 109.027 148.543 109.027 148.543C109.027 148.543 97.2646 146.571 88.9668 145.971Z" fill="#545470"/>
<path d="M66.0399 134.957C69.8038 134.914 72.1991 132.428 72.2846 132.343L71.8997 131.957C71.8997 132 69.9749 133.928 67.0236 134.314C68.2212 133.071 69.4616 130.286 69.761 129.643L69.2478 129.428C68.3496 131.443 66.767 134.314 65.9543 134.443C64.8422 134.614 61.6771 134.486 60.9927 134.443L56.4589 128.1L56.0312 128.4L60.4367 134.571C59.068 135.214 53.7215 137.871 53.0371 139.757L53.5504 139.928C54.1064 138.471 58.4692 136.114 60.565 135.128V142.243H61.1211V135.128C62.4898 135.857 66.9808 138.171 68.0929 138.686L68.3496 138.171C67.4086 137.7 63.9012 135.9 62.1048 134.957C62.7036 134.957 63.4308 135 64.1151 135C64.885 135.043 65.5694 135.043 66.0399 134.957Z" fill="#7F7E97"/>
<path d="M304.41 215.914C304.41 215.914 280.415 221.999 276.993 209.828C273.571 197.614 275.068 193.8 275.068 193.8C275.068 193.8 274.298 180.814 287.258 176.271C300.218 171.685 350.091 157.585 350.091 157.585C350.091 157.585 398.423 132.428 412.153 131.271C425.84 130.114 505.055 128.614 512.283 129.728C519.512 130.885 537.775 157.971 538.93 161.4C540.085 164.828 544.277 164.828 544.277 167.871C544.277 170.914 544.277 183.128 544.277 183.128C544.277 183.128 546.929 184.285 548.083 186.557C549.238 188.828 548.083 202.971 548.083 202.971C548.083 202.971 547.698 209.828 541.625 212.528C535.551 215.185 530.59 213.299 530.59 213.299L352.828 214.457L304.41 215.914Z" fill="url(#paint1_linear)"/>
<path d="M359.969 165.942C359.969 165.942 363.775 157.928 368.352 155.271C372.929 152.614 404.152 135.042 407.959 135.042C411.766 135.042 478.02 130.457 492.477 136.971C506.934 143.485 499.706 157.199 499.706 157.199C499.706 157.199 394.657 162.942 390.465 164.057C386.274 165.171 364.16 167.442 359.969 165.942Z" fill="url(#paint2_linear)"/>
<path d="M480.673 213.557C480.673 213.557 477.807 184.628 501.503 182.357C525.199 180.085 532.043 207.9 530.546 213.257L480.673 213.557Z" fill="#00122C"/>
<path d="M304.409 215.914C304.409 215.914 297.95 185.914 324.213 182.228C350.475 178.542 351.287 214.114 351.287 214.114L304.409 215.914Z" fill="#00122C"/>
<path d="M279.002 181.928C278.403 183.343 279.644 185.4 283.066 186.514C286.487 187.671 296.026 184.2 296.026 184.2C296.026 184.2 304.024 176.571 300.217 173.314C296.411 170.143 281.226 176.657 279.002 181.928Z" fill="#E7E9E6"/>
<path d="M274.767 196.071C274.767 196.071 287.684 196.071 289.181 196.071C290.721 196.071 290.721 205.971 286.915 206.742C283.108 207.514 277.034 209.785 277.034 209.785C277.034 209.785 274.425 198.342 274.767 196.071Z" fill="#022042"/>
<path d="M529.391 166.285C529.776 165.557 530.503 165.042 531.315 164.957C533.582 164.657 538.116 164.142 539.399 165.171C541.11 166.5 543.548 173.142 541.239 175.285C538.972 177.385 526.012 178.5 526.012 175.285C526.012 172.8 528.279 168.342 529.391 166.285Z" fill="#CA3541"/>
<path d="M515.062 133.457C515.062 133.457 516.175 132.685 516.175 132.385C516.175 132.299 516.26 132.257 516.346 132.257C520.537 133.071 535.123 153.985 536.791 157.414L531.615 159.428C531.615 159.428 520.152 137.828 515.062 133.457Z" fill="#E7E9E6"/>
<path d="M491.325 172.028H477.253C476.611 172.028 476.098 171.514 476.098 170.871C476.098 170.228 476.611 169.714 477.253 169.714H491.325C491.966 169.714 492.479 170.228 492.479 170.871C492.479 171.514 491.966 172.028 491.325 172.028Z" fill="#983299"/>
<path d="M428.876 174.514H411.639C410.998 174.514 410.484 174 410.484 173.357C410.484 172.714 410.998 172.2 411.639 172.2H428.876C429.518 172.2 430.031 172.714 430.031 173.357C430.031 174 429.518 174.514 428.876 174.514Z" fill="#983299"/>
<path d="M326.007 227.4C337.629 227.4 347.051 217.959 347.051 206.314C347.051 194.669 337.629 185.228 326.007 185.228C314.385 185.228 304.963 194.669 304.963 206.314C304.963 217.959 314.385 227.4 326.007 227.4Z" fill="#022042"/>
<path d="M326.008 221.7C334.465 221.7 341.32 214.83 341.32 206.357C341.32 197.883 334.465 191.014 326.008 191.014C317.551 191.014 310.695 197.883 310.695 206.357C310.695 214.83 317.551 221.7 326.008 221.7Z" fill="#767587"/>
<path d="M505.31 228.942C516.932 228.942 526.354 219.502 526.354 207.857C526.354 196.211 516.932 186.771 505.31 186.771C493.687 186.771 484.266 196.211 484.266 207.857C484.266 219.502 493.687 228.942 505.31 228.942Z" fill="#022042"/>
<path d="M505.311 223.242C513.767 223.242 520.623 216.373 520.623 207.899C520.623 199.426 513.767 192.557 505.311 192.557C496.854 192.557 489.998 199.426 489.998 207.899C489.998 216.373 496.854 223.242 505.311 223.242Z" fill="#767587"/>
<path d="M332.041 266.871C332.041 266.871 331.485 270 330.373 270.557C329.261 271.114 323.957 271.457 323.744 273.857C323.573 276.257 329.988 276.257 331.1 275.7C331.571 275.485 332.298 275.228 332.982 275.057C334.223 274.714 335.121 273.685 335.335 272.443C335.634 270.643 335.934 268.157 335.677 266.871C335.335 264.643 332.041 266.871 332.041 266.871Z" fill="#444039"/>
<path d="M384.266 274.885C384.266 274.885 385.721 279.128 384.266 281.314C382.812 283.542 382.812 288.685 384.266 289.414C385.721 290.142 390.169 287.014 386.662 274.843C383.154 262.714 384.266 274.885 384.266 274.885Z" fill="#444039"/>
<path d="M347.481 144.214C347.481 144.214 333.88 170.014 333.495 214.243C333.11 258.471 329.773 266.528 329.773 266.528C329.773 266.528 331.869 268.414 335.719 267.514C339.568 266.614 350.047 239.528 349.705 231.771C349.32 224.014 352.657 204.514 353.769 202.671C354.881 200.828 360.569 180.128 360.569 180.128C360.569 180.128 368.653 222.557 370.15 227.914C371.647 233.271 379.902 275.314 381.357 276.685C382.811 278.057 386.917 276.771 387.986 274.714C389.056 272.7 390.04 250.071 387.986 235.028C385.933 219.985 395.685 177.257 374.171 146.486C360.698 133.928 347.481 144.214 347.481 144.214Z" fill="#E01E5A"/>
<path d="M295.428 144.986C295.428 144.986 297.438 141.686 302.956 141.686C308.473 141.686 324.171 130.8 329.731 124.543C335.291 118.286 336.96 125.657 337.131 126.214C337.302 126.771 321.519 143.357 311.04 145.029C300.56 146.614 295.428 149.957 295.428 144.986Z" fill="#EF8854"/>
<path d="M381.314 128.785C381.314 128.785 391.409 158.828 392.906 161.957C394.36 165.085 396.413 173.228 399.15 174.128C401.888 174.985 401.888 166.971 398.252 162.814C394.574 158.657 389.142 128.785 389.185 125.657C389.227 122.485 381.314 128.785 381.314 128.785Z" fill="#FB9A67"/>
<path d="M348.208 99.2999C348.208 99.2999 345.599 94.7142 346.754 88.8428C347.909 85.4999 348.465 87.0428 350.603 80.7428C351.288 78.7714 351.245 69.3857 361.681 68.1C369.723 67.2 376.352 71.1857 377.635 76.1571C378.919 81.1285 377.721 83.6571 378.748 85.7142C379.817 87.7285 384.351 89.4857 385.89 94.1142C387.345 100.2 385.89 105.214 385.805 105.9C385.762 106.586 348.208 99.2999 348.208 99.2999Z" fill="#001226"/>
<path d="M329.775 122.014C327.508 123.129 334.053 129.857 335.55 130.414C337.004 130.971 345.131 120.471 345.131 120.471L348.253 99.3C348.253 99.3 342.479 96.9 339.014 100.971C335.55 105.043 333.753 120.043 329.775 122.014Z" fill="url(#paint3_linear)"/>
<path d="M346.197 144.214C346.197 144.214 347.309 133.714 346.197 127.114C345.085 120.471 339.097 109.414 346.667 100.2C353.297 92.8286 361.809 92.3572 366.77 94.1143C372.374 96.0429 377.421 99.0857 378.704 100.543C379.987 102 379.987 121.371 378.319 123.6C376.651 125.829 372.93 144.686 374.127 146.443C375.325 148.2 350.218 156.343 346.197 144.214Z" fill="url(#paint4_linear)"/>
<path d="M377.252 100.757C377.252 100.757 380.203 98.1856 384.438 102.214C388.672 106.286 391.196 125.4 389.57 129.214C387.945 132.986 381.315 131.871 381.315 131.871C381.315 131.871 378.364 122.271 377.252 120.814C376.183 119.357 374.857 107.014 377.252 100.757Z" fill="url(#paint5_linear)"/>
<path d="M357.576 88.8001C357.576 88.8001 357.661 93.3001 356.678 94.1572C355.694 95.0144 356.549 96.9858 358.859 97.0715C361.169 97.1572 365.275 96.0001 365.703 93.9001C364.591 91.7144 364.548 85.1572 364.548 85.1572L357.576 88.8001Z" fill="#EF8854"/>
<path d="M358.048 74.6143C358.048 74.6143 352.915 84.0857 356.294 87.9857C359.673 91.8856 364.207 85.9714 364.549 85.2428C364.934 84.5142 364.763 83.3142 365.747 83.2285C365.961 83.2285 366.132 83.1857 366.346 83.0999C367.501 82.7999 368.27 81.6857 368.185 80.4857C368.142 79.7142 367.714 78.9857 366.303 78.6857C361.726 80.3142 357.962 77.1 358.048 74.6143Z" fill="#FB9A67"/>
<path d="M232.297 278.999C232.297 278.999 232.938 281.742 232.297 283.585C231.655 285.428 233.323 286.242 234.521 286.328C235.718 286.414 244.872 288.214 245.043 285.728C245.214 283.242 237.301 282.942 237.301 282.942C237.301 282.942 237.558 277.456 237.301 277.199C237.001 276.942 232.297 278.999 232.297 278.999Z" fill="#444039"/>
<path d="M202.955 278.999C202.955 278.999 203.596 281.742 202.955 283.585C202.313 285.428 203.981 286.242 205.179 286.328C206.419 286.971 213.562 292.156 215.145 288.642C215.958 285.085 207.916 282.985 207.916 282.985C207.916 282.985 208.173 277.499 207.916 277.242C207.617 276.942 202.955 278.999 202.955 278.999Z" fill="#444039"/>
<path d="M206.419 149.228C194.999 168.214 201.8 175.071 200.474 216.557C194.785 239.828 200.474 278.656 200.474 278.656C200.474 278.656 206.547 282.814 211.124 280.242C216.385 257.956 218.053 241.414 220.277 220.885C221.389 210.514 221.603 200.871 221.56 194.099C221.56 193.628 222.245 193.585 222.287 194.057C223.442 205.628 225.239 224.571 225.453 228.771C223.314 257.528 229.986 278.185 229.986 278.185C240.123 282.471 240.423 278.099 240.423 278.099C240.423 278.099 243.93 226.885 244.144 222.985C242.476 162.685 235.034 152.185 230.842 149.142C223.528 142.8 211.509 144.771 206.419 149.228Z" fill="#424242"/>
<path d="M250.773 159.599C250.773 159.599 250.046 170.828 252.612 171.042C255.178 171.214 254.622 162.385 253.895 159.599C253.168 156.857 250.773 159.599 250.773 159.599Z" fill="#EF8854"/>
<path d="M276.053 144.085L275.924 143.957C275.625 143.614 268.781 135.6 269.894 130.928C270.193 129.728 271.006 128.828 272.289 128.314C273.529 127.8 274.641 127.885 275.539 128.528C279.175 131.185 278.491 142.457 278.491 142.971V143.142L276.053 144.085ZM273.187 128.614C272.973 128.657 272.717 128.742 272.46 128.828C271.348 129.3 270.663 130.028 270.407 131.057C269.423 135.085 275.24 142.328 276.181 143.442L277.892 142.757C277.978 141.299 278.362 131.271 275.197 129C274.641 128.571 273.957 128.442 273.187 128.614Z" fill="#444039"/>
<path d="M278.618 147.599C278.105 147.728 277.548 147.428 277.377 146.914L276.137 143.785C275.923 143.228 276.18 142.585 276.779 142.371C277.335 142.156 277.976 142.414 278.19 143.014L279.43 146.142C279.644 146.699 279.388 147.342 278.789 147.556C278.746 147.556 278.661 147.599 278.618 147.599Z" fill="#444039"/>
<path d="M279.603 153.599C279.603 153.599 274.984 155.699 274.556 152.957C274.129 150.214 273.145 147.599 275.797 147.042C278.449 146.485 283.282 145.457 283.282 145.457C283.282 145.457 284.437 145.542 285.207 146.614C285.976 147.685 286.704 149.228 284.993 150.942C283.239 152.657 279.603 153.599 279.603 153.599Z" fill="#444039"/>
<path d="M282.852 163.157L279.559 153.642L282.253 152.657L285.803 162.557C285.803 162.557 286.06 165.471 284.991 165.857C284.007 166.242 282.852 163.157 282.852 163.157Z" fill="#767587"/>
<path d="M262.451 134.4C262.451 134.4 267.669 129.257 273.315 130.928C278.961 132.6 265.616 137.742 263.52 137.742C261.382 137.742 259.414 135.171 259.414 135.171L262.451 134.4Z" fill="#FB9A67"/>
<path d="M235.504 87.6853C235.504 87.6853 243.631 87.6853 247.309 97.071C250.218 104.571 251.33 153.171 255.906 160.114C254.965 163.885 249.49 162.342 249.49 162.342C249.49 162.342 237.343 139.457 236.787 130.585C236.231 121.714 235.504 87.6853 235.504 87.6853Z" fill="#E8E8E8"/>
<path d="M209.412 88.9711L227.633 115.114L232.98 113.271L235.546 87.6425C235.503 87.6854 221.517 81.5997 209.412 88.9711Z" fill="#E8E8E8"/>
<path d="M225.41 93.0425L222.459 107.742L229.089 114.6L231.484 111.985V102.6L226.95 93.0425H225.41Z" fill="#CA3541"/>
<path d="M201.756 93.2138C201.756 93.2138 206.076 87.5138 211.808 87.6852C214.545 88.2424 226.949 113.185 228.703 113.314C231.91 107.442 230.371 86.1424 230.371 86.1424C230.371 86.1424 237.471 86.0567 240.422 93.0424C243.373 100.028 241.62 109.928 241.021 115.157C239.738 126.257 234.391 148.714 234.562 152.399C234.733 156.085 207.53 161.528 204.493 152.657C205.306 145.114 208.471 133.757 204.066 125.099C199.66 116.442 201.756 93.2138 201.756 93.2138Z" fill="url(#paint6_linear)"/>
<path d="M206.462 94.5424C206.462 94.5424 199.105 88.4138 195.426 102.6C191.021 119.185 206.633 144.942 262.921 140.142C264.888 136.157 262.921 130.585 262.921 130.585C262.921 130.585 225.025 122.999 221.261 117.942C217.497 112.885 209.114 95.7424 206.462 94.5424Z" fill="#D4D4D6"/>
<path d="M217.754 80.3571C217.754 80.3571 218.566 85.1999 217.198 86.9142C215.829 88.6285 226.65 88.4999 227.035 86.0142C225.453 85.4571 224.084 82.0285 224.512 79.5428C224.94 77.0142 217.754 80.3571 217.754 80.3571Z" fill="#EF8854"/>
<path d="M218.866 80.1854C218.866 80.1854 210.012 76.7139 212.065 70.9711C212.749 69.2568 213.476 69.0425 215.529 67.6283C217.582 65.7854 216.085 60.514 223.998 60.2568C231.098 60.2568 227.42 73.9282 227.42 73.9282L218.866 80.1854Z" fill="#001226"/>
<path d="M223.442 82.0708C223.442 82.0708 225.709 81.6422 226.864 77.8708C228.062 74.0994 227.335 67.5851 225.025 66.7708C222.758 65.9994 218.78 67.2851 218.823 68.6137C218.866 69.8994 218.566 74.0137 217.326 73.8422C216.085 73.6708 215.187 73.3708 214.76 74.6137C214.503 75.9851 215.829 77.0137 215.829 77.0137C215.829 77.0137 215.572 77.6994 216.128 79.1994C216.684 80.6565 221.346 82.5422 223.442 82.0708Z" fill="#FB9A67"/>
<path d="M225.496 93.771C227.173 93.771 228.533 92.4087 228.533 90.7282C228.533 89.0476 227.173 87.6853 225.496 87.6853C223.819 87.6853 222.459 89.0476 222.459 90.7282C222.459 92.4087 223.819 93.771 225.496 93.771Z" fill="#CA3541"/>
<path d="M338.373 64.4141C339.531 64.4141 340.469 63.4739 340.469 62.3141C340.469 61.1543 339.531 60.2141 338.373 60.2141C337.216 60.2141 336.277 61.1543 336.277 62.3141C336.277 63.4739 337.216 64.4141 338.373 64.4141Z" fill="#E7E9E6"/>
<path d="M191.02 53.4428C189.309 54.4285 187.171 54.9428 184.604 54.9428C181.781 54.9428 179.557 54.1713 177.889 52.5856C176.264 50.9999 175.451 48.8571 175.451 46.1142C175.451 43.3285 176.349 41.0999 178.146 39.3428C179.942 37.5857 182.295 36.7285 185.246 36.7285C187.128 36.7285 188.753 36.9857 190.165 37.4999V41.2285C188.796 40.4571 187.128 40.0285 185.203 40.0285C183.578 40.0285 182.209 40.5428 181.183 41.6142C180.156 42.6856 179.643 44.0999 179.643 45.8999C179.643 47.6999 180.113 49.1142 181.054 50.0999C181.995 51.0856 183.236 51.5999 184.818 51.5999C185.759 51.5999 186.529 51.4713 187.085 51.2142V47.7856H183.578V44.6142H191.063V53.4428H191.02Z" fill="#9898BF"/>
<path d="M209.926 54.6428H205.606L204.366 50.7H198.121L196.881 54.6428H192.604L199.019 37.0286H203.724L209.926 54.6428ZM203.468 47.6571L201.586 41.7428C201.457 41.3143 201.329 40.7571 201.286 40.1571H201.201C201.158 40.6714 201.072 41.1857 200.901 41.7L198.977 47.6571H203.468Z" fill="#9898BF"/>
<path d="M226.905 54.6428H222.371L219.634 50.1C219.42 49.7571 219.249 49.4571 219.035 49.1571C218.864 48.9 218.65 48.6428 218.479 48.4714C218.308 48.3 218.094 48.1285 217.88 48.0428C217.666 47.9571 217.452 47.8714 217.196 47.8714H216.126V54.6428H212.148V37.0286H218.436C222.713 37.0286 224.852 38.6143 224.852 41.8286C224.852 42.4286 224.766 43.0286 224.552 43.5428C224.339 44.0571 224.082 44.5285 223.74 44.9571C223.398 45.3857 222.97 45.7285 222.499 46.0285C222.029 46.3285 221.473 46.5857 220.874 46.7571V46.8C221.131 46.8857 221.387 47.0143 221.644 47.1857C221.901 47.3571 222.114 47.5714 222.371 47.8285C222.585 48.0857 222.799 48.3428 223.013 48.6428C223.226 48.9428 223.398 49.2 223.569 49.4571L226.905 54.6428ZM216.083 39.9857V44.8714H217.794C218.65 44.8714 219.334 44.6143 219.847 44.1428C220.361 43.6286 220.617 43.0286 220.617 42.3C220.617 40.7571 219.676 39.9857 217.837 39.9857H216.083Z" fill="#9898BF"/>
<path d="M244.014 54.6428H239.694L238.454 50.7H232.209L230.969 54.6428H226.691L233.107 37.0286H237.812L244.014 54.6428ZM237.556 47.6571L235.674 41.7428C235.545 41.3143 235.417 40.7571 235.374 40.1571H235.246C235.203 40.6714 235.118 41.1857 234.946 41.7L233.022 47.6571H237.556Z" fill="#9898BF"/>
<path d="M260.653 53.4428C258.942 54.4285 256.804 54.9428 254.237 54.9428C251.414 54.9428 249.19 54.1713 247.522 52.5856C245.897 50.9999 245.084 48.8571 245.084 46.1142C245.084 43.3285 245.982 41.0999 247.779 39.3428C249.575 37.5857 251.928 36.7285 254.879 36.7285C256.761 36.7285 258.386 36.9857 259.798 37.4999V41.2285C258.429 40.4571 256.761 40.0285 254.836 40.0285C253.211 40.0285 251.842 40.5428 250.815 41.6142C249.789 42.6856 249.276 44.0999 249.276 45.8999C249.276 47.6999 249.746 49.1142 250.687 50.0999C251.628 51.0856 252.869 51.5999 254.451 51.5999C255.392 51.5999 256.162 51.4713 256.718 51.2142V47.7856H253.211V44.6142H260.696V53.4428H260.653Z" fill="#9898BF"/>
<path d="M274.639 54.6428H264.074V37.0286H274.211V40.2428H268.009V44.1857H273.783V47.4H268.009V51.4285H274.596V54.6428H274.639Z" fill="#9898BF"/>
<path d="M440.469 163.371L436.619 162.943L440.041 132.085L443.89 132.514L440.469 163.371Z" fill="url(#paint7_linear)"/>
<path d="M441.726 131.939L438.43 161.671L440.98 161.955L444.276 132.223L441.726 131.939Z" fill="#4A154B"/>
<defs>
<linearGradient id="paint0_linear" x1="190.543" y1="285.082" x2="504.271" y2="285.082" gradientUnits="userSpaceOnUse">
<stop offset="0.00396825" stop-color="#FCEFFF"/>
<stop offset="0.2807" stop-color="#EDE1F0"/>
<stop offset="0.6443" stop-color="#E1D6E4"/>
<stop offset="1" stop-color="#DDD2E0"/>
</linearGradient>
<linearGradient id="paint1_linear" x1="412.189" y1="220.44" x2="410.191" y2="121.379" gradientUnits="userSpaceOnUse">
<stop stop-color="#983299"/>
<stop offset="0.0542797" stop-color="#862B87"/>
<stop offset="0.1399" stop-color="#702371"/>
<stop offset="0.2406" stop-color="#5F1D60"/>
<stop offset="0.3646" stop-color="#531854"/>
<stop offset="0.5371" stop-color="#4C164D"/>
<stop offset="1" stop-color="#4A154B"/>
</linearGradient>
<linearGradient id="paint2_linear" x1="430.256" y1="95.8482" x2="431" y2="188.777" gradientUnits="userSpaceOnUse">
<stop offset="0.2388" stop-color="#DCF9FA"/>
<stop offset="0.4338" stop-color="#D1ECEE"/>
<stop offset="0.726" stop-color="#C6DFE1"/>
<stop offset="1" stop-color="#C2DBDD"/>
</linearGradient>
<linearGradient id="paint3_linear" x1="334.735" y1="78.8577" x2="353.403" y2="80.0087" gradientUnits="userSpaceOnUse">
<stop stop-color="#00BCF8"/>
<stop offset="1" stop-color="#015BA2"/>
</linearGradient>
<linearGradient id="paint4_linear" x1="353.426" y1="57.6194" x2="389.583" y2="60.012" gradientUnits="userSpaceOnUse">
<stop stop-color="#00BCF8"/>
<stop offset="1" stop-color="#015BA2"/>
</linearGradient>
<linearGradient id="paint5_linear" x1="379.967" y1="80.061" x2="393.94" y2="80.7" gradientUnits="userSpaceOnUse">
<stop stop-color="#00BCF8"/>
<stop offset="1" stop-color="#015BA2"/>
</linearGradient>
<linearGradient id="paint6_linear" x1="201.263" y1="121.771" x2="242.103" y2="121.771" gradientUnits="userSpaceOnUse">
<stop stop-color="#983299"/>
<stop offset="0.0542797" stop-color="#862B87"/>
<stop offset="0.1399" stop-color="#702371"/>
<stop offset="0.2406" stop-color="#5F1D60"/>
<stop offset="0.3646" stop-color="#531854"/>
<stop offset="0.5371" stop-color="#4C164D"/>
<stop offset="1" stop-color="#4A154B"/>
</linearGradient>
<linearGradient id="paint7_linear" x1="440.13" y1="132.069" x2="440.38" y2="163.379" gradientUnits="userSpaceOnUse">
<stop stop-color="#4A154B"/>
<stop offset="0.1419" stop-color="#4A154B"/>
<stop offset="0.9921" stop-color="#4A154B"/>
</linearGradient>
</defs>
</svg>
