<svg width="398" height="400" viewBox="0 0 398 400" fill="none" xmlns="http://www.w3.org/2000/svg">
<path d="M202.011 31.6626H37.0527V267.157H202.011V31.6626Z" fill="#E8E8E8"/>
<path d="M63.1244 316.53C63.1244 316.53 53.8616 317.673 48.5441 331.388C43.2265 345.103 0 340.874 0 359.789C0 378.704 177.881 422.191 330.431 386.133C482.982 350.074 328.716 316.073 316.709 316.473C308.875 316.302 235.573 326.016 189.602 323.216C143.631 320.416 76.8471 310.473 63.1244 316.53Z" fill="url(#paint0_linear)"/>
<path d="M50.4309 326.531L48.4297 326.016L58.5502 266.071L65.0113 267.614L50.4309 326.531Z" fill="#7F7EA4"/>
<path d="M83.9944 354.246H81.5358L80.2207 274.986L85.2524 275.043L83.9944 354.246Z" fill="#7F7EA4"/>
<path d="M12.7512 342.874L10.75 342.246L36.137 263.614L41.2258 266.7L12.7512 342.874Z" fill="#7F7EA4"/>
<path d="M146.433 30.0054C142.774 20.1765 131.281 21.3194 131.281 21.3194C132.653 13.7191 130.995 -0.281418 117.673 0.00430679C104.35 0.290032 102.12 17.3764 104.922 21.6051C94.8014 23.548 91.1992 30.0054 91.1992 30.0054C91.1992 30.0054 147.519 40.6344 146.433 30.0054ZM119.502 17.3764C117.044 17.3764 115.042 15.3763 115.042 12.9191C115.042 10.4618 117.044 8.46176 119.502 8.46176C121.961 8.46176 123.962 10.4618 123.962 12.9191C123.962 15.3763 121.961 17.3764 119.502 17.3764Z" fill="#2EB67D"/>
<path d="M207.041 27.7767H31.1621V36.7485H207.041V27.7767Z" fill="#00686D"/>
<path d="M91.1428 59.4351H53.291V113.837H91.1428V59.4351Z" fill="#DDD2E0"/>
<path d="M181.195 62.2352H108.064V67.8354H181.195V62.2352Z" fill="#DDD2E0"/>
<path d="M181.195 85.7789H108.064V91.3791H181.195V85.7789Z" fill="#DDD2E0"/>
<path d="M181.082 112.123H102.348V117.723H181.082V112.123Z" fill="#DDD2E0"/>
<path d="M183.999 148.581H60.0371V154.182H183.999V148.581Z" fill="#DDD2E0"/>
<path d="M334.32 335.56L319.396 262.7L323.113 259.557L335.349 334.817L334.32 335.56Z" fill="#7F7EA4"/>
<path d="M300.298 319.845L285.889 256.642L289.72 255.842L301.555 319.559L300.298 319.845Z" fill="#7F7EA4"/>
<path d="M279.255 355.903H277.94L276.854 274.757H280.799L279.255 355.903Z" fill="#7F7EA4"/>
<path d="M9.83398 185.84L42.0823 171.839L76.8465 239.156L35.6212 265.5L9.83398 185.84Z" fill="#8183A9"/>
<path d="M37.0525 267.157L82.7377 281.443L114.986 254.014L76.8483 239.156L35.623 265.5L37.0525 267.157Z" fill="#555368"/>
<path d="M302.93 176.068L349.473 185.04L323.114 261.842L278.801 242.242L302.93 176.068Z" fill="#8183A9"/>
<path d="M239.52 272.186L274.284 289.843L323.114 261.785L278.801 242.185C278.801 242.185 236.432 260.414 234.774 261.785C233.116 263.214 239.52 272.186 239.52 272.186Z" fill="#7F7EA4"/>
<path d="M34.8789 263.214L82.7368 277.443L86.8536 279.1L82.7368 281.443L34.9361 267.157L34.8789 263.214Z" fill="#8183A9"/>
<path d="M9.83398 185.84L12.7501 184.583L37.794 264.071L34.9351 267.157L34.8779 263.214L9.83398 185.84Z" fill="#9A9BC6"/>
<path d="M274.511 283.043L321.169 257.728L322.198 262.471L274.34 289.844L274.511 283.043Z" fill="#9A9BC6"/>
<path d="M349.471 185.04L345.697 184.811L321.168 257.728V262.185L323.112 261.843L325.056 256.3L349.471 185.04Z" fill="#9A9BC6"/>
<path d="M211.845 347.846V353.732C211.845 353.732 199.78 355.675 199.494 358.76C199.209 361.846 209.043 360.418 209.043 360.418C209.043 360.418 215.218 360.132 216.876 358.189C218.535 356.246 215.733 347.789 216.876 346.703C218.02 345.56 214.647 342.76 214.647 342.76L211.845 347.846Z" fill="#424242"/>
<path d="M248.494 370.589C248.494 370.589 242.605 383.504 245.692 385.733C248.78 387.961 254.155 380.704 254.669 378.19C255.813 372.589 254.669 366.703 254.669 366.703L248.494 370.589Z" fill="#424242"/>
<path d="M206.014 347.617C208.53 350.417 217.106 352.475 220.651 350.589C221.909 349.846 243.065 298.415 241.521 275.043C277.143 260.3 277.143 250.642 277.143 250.642L278.801 239.156C278.801 239.156 289.036 230.07 267.88 234.699C267.594 233.042 226.083 240.299 219.336 256.3C212.589 272.186 206.014 347.617 206.014 347.617Z" fill="#424242"/>
<path d="M244.835 369.218C246.894 372.532 256.785 374.361 260.045 372.304C270.165 362.818 276.855 303.616 282.23 289.901C287.547 276.186 307.216 257.1 304.415 244.471C301.613 231.841 278.913 237.442 278.913 237.442C278.913 237.442 253.869 265.614 251.411 278.186C248.952 290.758 242.891 359.675 244.835 369.218Z" fill="#424242"/>
<path d="M281.888 149.439L294.639 148.296C294.639 148.296 302.072 149.439 306.017 151.953C309.963 154.467 306.017 169.954 306.017 169.954C306.017 169.954 290.008 186.183 289.207 185.897C288.349 185.611 278.801 178.868 278.801 178.868L281.888 149.439Z" fill="#E8E8E8"/>
<path d="M285.548 167.096L291.723 155.324H293.267V169.668L291.151 177.439L283.604 178.868L285.548 167.096Z" fill="#C93640"/>
<path d="M263.646 167.096C263.646 167.096 276.168 152.981 278.798 150.81C281.886 148.296 285.545 149.096 285.545 149.096L285.831 176.068L306.015 151.953C306.015 151.953 317.222 156.182 318.365 160.353C319.509 164.582 302.356 234.927 297.324 239.099C292.292 243.328 269.192 235.785 267.877 234.642C268.163 224.298 257.757 180.811 263.646 167.096Z" fill="url(#paint1_linear)"/>
<path d="M221.336 123.895C221.336 123.895 214.875 117.152 216.018 113.78C217.162 110.408 224.138 116.866 224.71 122.18C225.224 127.552 221.336 123.895 221.336 123.895Z" fill="#FB9A67"/>
<path d="M281.888 149.438C281.888 149.438 276.284 144.124 267.593 146.924C258.902 149.724 250.04 151.953 244.436 146.181C236.889 137.781 229.741 124.523 227.74 122.58C225.796 120.637 218.191 125.209 218.191 125.209C218.191 125.209 223.509 176.239 262.79 169.725C267.593 167.096 281.888 149.438 281.888 149.438Z" fill="#E8E8E8"/>
<path d="M279.885 249.156C279.885 249.156 270.736 254.185 270.851 257.842C270.908 261.5 276.797 259.957 276.797 259.957C276.797 259.957 284.116 256.185 284.116 253.385C284.116 250.585 279.885 249.156 279.885 249.156Z" fill="#FB9A67"/>
<path d="M278.801 247.842C278.058 249.042 281.831 257.099 286.348 256.242C290.866 255.385 331.29 239.442 330.433 178.868C326.487 145.61 308.762 159.21 309.105 172.411C309.391 179.211 306.246 212.298 304.645 218.298C302.987 224.298 280.516 245.042 278.801 247.842Z" fill="#E8E8E8"/>
<path d="M291.892 141.552C291.321 141.724 291.378 148.695 289.262 150.181C287.204 151.667 297.324 154.981 300.298 152.753C299.726 150.181 299.554 143.21 300.298 140.409C301.041 137.609 292.235 139.495 292.235 139.495L291.892 141.552Z" fill="#F08855"/>
<path d="M292.064 122.58C290.863 122.98 282.287 141.838 291.035 142.924C299.84 144.067 300.584 141.61 300.584 141.61C300.584 141.61 302.356 139.152 303.328 136.352C304.3 133.552 305.615 126.638 304.872 124.98C304.129 123.323 292.064 122.58 292.064 122.58Z" fill="#FB9A67"/>
<path d="M299.154 126.523C299.154 126.523 286.69 126.123 289.034 118.98C291.435 111.323 296.124 114.637 299.898 117.723C301.899 122.009 310.075 124.237 310.819 127.609C311.562 130.981 310.533 133.095 308.474 134.752C306.416 136.409 302.413 143.095 300.355 140.467C298.297 137.838 302.528 132.981 302.528 132.981C302.528 132.981 304.014 130.295 301.384 129.952C298.754 129.552 299.211 132.009 299.211 132.009L296.982 130.752C296.867 130.695 300.298 128.409 299.154 126.523Z" fill="#01122C"/>
<path d="M292.406 156.639C293.669 156.639 294.693 155.615 294.693 154.353C294.693 153.09 293.669 152.067 292.406 152.067C291.143 152.067 290.119 153.09 290.119 154.353C290.119 155.615 291.143 156.639 292.406 156.639Z" fill="#C93640"/>
<path d="M89.9419 363.789C89.9419 363.789 87.712 367.332 88.7984 370.304C89.8847 373.275 92.5149 379.79 96.1171 379.675C98.8045 379.618 100.12 376.075 97.2607 371.789C96.0028 369.904 92.4006 367.161 93.3154 364.703C94.2302 362.303 89.9419 363.789 89.9419 363.789Z" fill="#01122C"/>
<path d="M157.696 347.16C157.696 347.16 154.494 355.96 156.038 357.789C157.525 359.675 171.533 360.589 172.334 358.932C173.134 357.275 171.933 355.16 166.73 353.503C161.47 351.846 162.042 344.931 162.27 344.817C162.442 344.703 157.582 343.788 157.582 343.788L157.696 347.16Z" fill="#01122C"/>
<path d="M88.5119 232.013C88.5119 232.013 136.541 244.128 145.29 268.186C154.038 292.244 152.208 310.473 167.932 347.503C164.101 351.274 152.208 347.503 152.208 347.503C152.208 347.503 132.939 317.045 132.367 296.587C132.196 283.386 102.406 266.414 101.491 265.443C100.576 264.528 78.906 250.128 78.1627 248.071C77.4194 246.07 88.5119 232.013 88.5119 232.013Z" fill="#4A154B"/>
<path d="M44.0846 243.613L74.2746 236.242C74.2746 236.242 125.678 266.643 127.393 275.043C134.883 287.215 101.949 360.646 96.7455 364.589C91.4851 368.532 85.1384 360.646 85.1384 360.646C85.1384 360.646 94.5156 294.472 103.836 285.901C57.4071 275.957 43.6844 251.099 44.0846 243.613Z" fill="#4A154B"/>
<path d="M104.349 162.639C104.349 162.639 106.408 160.467 108.466 171.896C110.524 183.325 113.498 196.583 114.07 197.154C114.641 197.726 104.349 200.697 104.349 200.697C104.349 200.697 93.3139 198.64 92.5706 198.069C91.8273 197.497 91.084 188.983 91.084 188.983L94.8005 180.868L104.349 162.639Z" fill="url(#paint2_linear)"/>
<path d="M135.912 175.096L141.744 171.839L159.584 204.355H155.524L135.912 175.096Z" fill="#4A154B"/>
<path d="M94.2281 156.524C94.2281 156.524 78.7329 151.496 62.0369 171.839C45.341 192.183 31.6183 221.727 45.2266 245.842C62.2656 265.443 92.7415 239.785 94.2281 236.184C95.7147 232.584 93.6563 226.241 91.0261 220.412C88.3959 214.584 88.5675 205.44 91.0261 202.526C93.4848 199.669 107.379 175.096 108.008 169.611C108.637 164.125 104.349 159.896 100.575 159.096C96.8583 158.41 94.2281 156.524 94.2281 156.524Z" fill="url(#paint3_linear)"/>
<path d="M143.974 199.383C143.974 199.383 138.542 194.297 122.99 194.297C107.437 194.297 101.891 197.269 99.4323 194.297C89.1402 187.726 91.7132 156.81 78.1049 159.21C64.4965 161.61 60.2082 180.868 71.9868 195.326C80.392 205.612 97.8885 205.783 97.8885 205.783H143.974V199.383Z" fill="url(#paint4_linear)"/>
<path d="M91.0839 159.21C91.0839 159.21 95.3723 157.667 95.7725 154.124C96.1728 150.581 95.7725 143.267 95.7725 143.267C95.7725 143.267 96.1728 138.809 99.3176 137.838C102.462 136.866 106.065 136.352 108.123 137.095C110.181 137.838 114.127 141.21 114.127 141.21V146.124C114.127 146.124 108.866 156.581 105.493 157.096C103.549 157.267 101.948 156.581 101.948 156.581C101.948 156.581 100.404 160.867 101.948 162.582C103.492 164.296 98.5171 167.325 95.2007 165.953C91.0839 164.353 90.1691 159.61 91.0839 159.21Z" fill="#FB9A67"/>
<path d="M103.663 133.495C106.75 133.666 119.615 131.495 118.415 140.524C117.214 145.895 114.069 146.124 114.069 146.124C114.069 146.124 113.726 142.752 110.696 141.152C109.152 140.352 104.635 139.952 104.52 140.067C104.006 140.752 104.863 142.124 103.548 143.438C102.233 144.753 101.09 144.581 100.918 143.838C100.747 143.095 100.346 140.81 98.8598 141.381C97.3732 141.952 97.2588 145.095 98.1165 146.238C98.9742 147.381 97.6591 151.096 95.8294 150.924C93.9997 150.753 94.9145 149.381 94.5143 145.095C94.114 140.81 92.2272 139.952 94.0569 136.809C96.0581 133.552 97.7734 132.981 103.663 133.495Z" fill="#662C30"/>
<path d="M172.22 205.783L169.418 178.011C169.418 178.011 169.99 171.268 176.737 170.182C183.484 169.039 223.851 170.182 223.851 170.182C223.851 170.182 232.828 172.125 233.114 180.811C233.4 189.497 230.027 205.783 230.027 205.783H172.22Z" fill="#555368"/>
<path d="M185.941 155.324L189.029 169.668L213.73 169.953L214.873 155.324H185.941Z" fill="#8183A9"/>
<path d="M215.673 192.869H188.171C187.084 192.869 186.227 192.011 186.227 190.926C186.227 189.84 187.084 188.983 188.171 188.983H215.673C216.76 188.983 217.617 189.84 217.617 190.926C217.674 192.011 216.76 192.869 215.673 192.869Z" fill="#8183A9"/>
<path d="M221.335 182.754C222.408 182.754 223.279 181.884 223.279 180.811C223.279 179.738 222.408 178.868 221.335 178.868C220.261 178.868 219.391 179.738 219.391 180.811C219.391 181.884 220.261 182.754 221.335 182.754Z" fill="#F7B403"/>
<path d="M287.777 205.783H97.8887V213.612H287.777V205.783Z" fill="#7F7EA4"/>
<path d="M154.668 202.583C154.668 202.583 173.766 201.383 175.995 192.411C178.454 195.326 185.144 198.412 185.144 198.412L172.222 205.783L152.781 205.669L154.668 202.583Z" fill="#DDD2E0"/>
<path d="M145.288 200.64C145.288 200.64 149.577 197.84 155.18 200.64C160.784 203.44 159.64 205.783 159.64 205.783H143.916V200.64H145.288Z" fill="#FB9A67"/>
<defs>
<linearGradient id="paint0_linear" x1="0" y1="357.307" x2="397.381" y2="357.307" gradientUnits="userSpaceOnUse">
<stop offset="0.00396825" stop-color="#FCEFFF"/>
<stop offset="0.2807" stop-color="#EDE1F0"/>
<stop offset="0.6443" stop-color="#E1D6E4"/>
<stop offset="1" stop-color="#DDD2E0"/>
</linearGradient>
<linearGradient id="paint1_linear" x1="265.811" y1="148.975" x2="329.111" y2="155.962" gradientUnits="userSpaceOnUse">
<stop stop-color="#FED337"/>
<stop offset="1" stop-color="#ECB22E"/>
</linearGradient>
<linearGradient id="paint2_linear" x1="97.6798" y1="138.776" x2="120.344" y2="140.189" gradientUnits="userSpaceOnUse">
<stop stop-color="#00BCF8"/>
<stop offset="1" stop-color="#015BA2"/>
</linearGradient>
<linearGradient id="paint3_linear" x1="59.2904" y1="95.7276" x2="126.554" y2="100.631" gradientUnits="userSpaceOnUse">
<stop stop-color="#00BCF8"/>
<stop offset="1" stop-color="#015BA2"/>
</linearGradient>
<linearGradient id="paint4_linear" x1="87.7339" y1="130.12" x2="163.384" y2="143.348" gradientUnits="userSpaceOnUse">
<stop stop-color="#00BCF8"/>
<stop offset="1" stop-color="#015BA2"/>
</linearGradient>
</defs>
</svg>
