<svg width="515" height="368" viewBox="0 0 515 368" fill="none" xmlns="http://www.w3.org/2000/svg">
<path d="M369.498 132.085L352.043 75.1496L284.276 73.9404C289.008 85.8743 305.831 131.875 305.831 131.875C305.831 131.875 347.89 132.032 369.498 132.085Z" fill="#011029"/>
<path d="M389.003 137.342L388.582 132.716L382.063 132.821C382.063 133.715 381.853 135.397 381.59 137.395L389.003 137.342Z" fill="#011029"/>
<path d="M382.062 132.821C382.062 132.4 382.062 132.138 381.957 132.138C381.799 132.138 376.805 132.138 369.444 132.085L369.707 132.979L382.062 132.821Z" fill="#0E2444"/>
<path d="M300.153 129.194L300.889 138.026L381.589 137.447C381.852 135.45 382.062 133.715 382.062 132.874L369.76 133.031L369.497 132.138C347.89 132.085 305.831 131.98 305.831 131.98C305.831 131.98 289.008 85.927 284.276 74.0457L281.595 73.9932L300.153 129.194Z" fill="#0E2444"/>
<path d="M290.639 78.8291L349.048 79.5651L364.504 126.354L307.725 127.721L290.639 78.8291Z" fill="url(#paint0_linear)"/>
<path d="M97.7476 292.483C97.7476 292.483 24.1975 312.513 36.0791 325.182C48.0132 337.905 158.47 321.555 176.187 325.34C193.904 329.125 290.692 336.853 322.972 350.627C355.252 364.401 453.301 379.752 489.997 354.412C526.694 329.073 524.17 306.309 472.28 294.953C420.39 283.545 344.842 296.688 318.924 280.444C274.657 265.25 269.61 272.295 225.343 265.986C141.804 268.615 117.988 292.483 97.7476 292.483Z" fill="url(#paint1_linear)"/>
<path d="M380.382 145.753H371.497V305.624H380.382V145.753Z" fill="#7F7EA4"/>
<path d="M72.7201 198.378L48.2734 313.143L54.1617 313.984L79.502 199.219L72.7201 198.378Z" fill="#8183A9"/>
<path d="M113.99 183.816L97.167 299.58L99.7957 299.79L120.772 184.237L113.99 183.816Z" fill="#8183A9"/>
<path d="M142.538 202.585L161.359 309.201H163.988L153.526 200.062L142.538 202.585Z" fill="#8183A9"/>
<path d="M127.345 200.639L64.0464 201.27L32.9756 92.4463H71.985L127.345 200.639Z" fill="#9A9BC6"/>
<path d="M37.9688 92.4463L68.7767 200.324L126.87 199.746L71.9837 92.4463H37.9688Z" fill="#8183A9"/>
<path d="M155.156 214.571L64.0461 201.271L61.5752 192.176L66.5697 192.071L111.888 176.982L208.097 185.867L208.991 198.116L155.156 214.571Z" fill="#9A9BC6"/>
<path d="M66.5693 192.071L157.258 205.319L208.36 189.652L208.097 185.867L111.888 176.982L66.5693 192.071Z" fill="#555368"/>
<path d="M230.759 187.076L218.93 265.829L223.609 266.302L236.069 187.497L230.759 187.076Z" fill="#7F7EA4"/>
<path d="M274.025 198.799L297.683 283.387L299.839 282.914L280.176 195.96L274.025 198.799Z" fill="#7F7EA4"/>
<path d="M252.995 191.807L193.745 191.597L166.039 89.3447L202.578 89.8179L252.995 191.807Z" fill="#8183A9"/>
<path d="M170.72 89.3965L198.216 190.755L252.576 190.965L202.579 89.8171L170.72 89.3965Z" fill="#9A9BC6"/>
<path d="M259.777 207.631L194.692 186.97L192.536 174.353L238.853 169.464L299.838 189.546V192.911L259.777 207.631Z" fill="#9A9BC6"/>
<path d="M246.266 281.338C243.953 281.653 239.063 283.967 240.903 290.959C242.218 295.848 247.002 300.842 249.736 303.418C250.84 304.47 252.575 304.627 253.889 303.839L253.942 304.943C255.098 304.207 254.783 301.578 254.572 300.264L252.575 287.436C252.575 287.489 250.84 280.076 246.266 281.338Z" fill="#78D7DD"/>
<path d="M299.575 190.126C299.575 190.126 302.256 199.484 297.157 213.205C292.688 225.401 267.926 270.929 254.152 284.597C252.627 284.86 250.472 277.132 250.472 277.132C250.472 277.132 257.359 241.541 264.666 234.234C271.974 226.926 282.541 203.321 282.384 195.961C282.226 188.654 284.907 190.178 287.01 189.495C289.166 188.811 299.575 190.126 299.575 190.126Z" fill="#EF8854"/>
<path d="M273.499 187.549C273.499 187.549 292.478 194.646 277.705 229.712C260.934 266.039 252.891 284.439 253.942 289.906C253.889 293.429 254.731 296.951 254.31 297.897C251.524 300.736 243.743 293.166 243.638 287.909C243.427 286.121 248.948 281.653 248.948 281.653C248.948 281.653 249.158 252.265 252.996 239.91C256.834 227.556 260.724 223.508 262.669 214.834C261.302 197.222 251.208 200.008 251.839 198.747C244.899 196.223 251.839 188.916 251.839 188.916L273.499 187.549Z" fill="#FA9862"/>
<path d="M214.301 136.555C214.301 136.555 201 156.374 207.572 172.829C214.091 189.284 260.776 208.368 260.776 208.368C260.776 208.368 273.867 196.171 301.047 197.012C301.047 183.291 298.629 169.833 279.072 157.215C264.929 148.068 244.005 136.975 244.005 136.975L214.301 136.555Z" fill="url(#paint2_linear)"/>
<path d="M233.702 18.793C233.702 18.793 223.818 12.1164 214.355 21.6319C207.1 31.1474 213.514 35.1429 209.045 38.4023C197.794 44.5532 193.22 59.0631 202.684 71.3649C212.199 83.7193 235.595 63.6894 239.432 64.3203C243.218 64.9512 254.942 39.3486 245.11 24.4708C239.117 17.5313 233.702 18.793 233.702 18.793Z" fill="#662C30"/>
<path d="M239.8 159.791C239.8 159.791 230.284 162.946 230.284 169.097C235.752 172.671 245.268 160.002 245.268 160.002L241.062 157.058L239.8 159.791Z" fill="#FA9862"/>
<path d="M240.746 66.6333C240.746 66.6333 252.628 66.9488 257.307 79.198C261.618 90.5536 264.036 120.414 263.195 125.304C262.512 132.874 248.422 157.635 245.215 160.895C243.27 161.894 239.747 159.055 239.169 157.373C237.907 156.794 249.999 126.46 252.523 123.043C253.627 116.314 247.896 106.378 246.74 102.645C242.324 87.925 240.694 66.1076 240.746 66.6333Z" fill="url(#paint3_linear)"/>
<path d="M221.241 61.7451C221.241 61.7451 205.049 67.4755 203.103 71.9966C196.321 87.9259 219.349 131.666 213.04 139.289C220.19 148.384 248.054 139.499 248.054 139.499C248.054 139.499 243.427 131.508 247.843 113.528C250.577 102.12 256.518 89.7134 247.423 71.7864C243.007 66.5292 236.435 62.0605 236.435 62.0605L221.241 61.7451Z" fill="#00BCF8"/>
<path d="M223.502 48.2334C223.502 48.2334 222.45 60.2198 219.664 62.533C220.085 65.7924 234.122 70.3136 236.488 62.1124C234.805 59.5889 233.175 51.3351 234.227 48.8117C230.757 52.1763 223.502 48.2334 223.502 48.2334Z" fill="#EF8854"/>
<path d="M221.03 42.9236C221.03 42.9236 222.502 51.598 229.442 51.8083C241.061 53.07 243.164 33.2504 235.54 26.1006C233.858 33.8812 225.814 36.8778 219.926 36.247C214.091 35.511 216.614 42.503 221.03 42.9236Z" fill="#FA9862"/>
<path d="M200.58 71.4167C203.314 70.3652 211.357 73.3092 214.301 90.1848C216.615 111.056 215.143 124.567 219.769 125.198C224.395 125.829 258.989 126.459 264.719 133.609C264.93 135.081 264.719 137.605 264.719 137.605L213.46 137.394C206.1 136.343 196.794 111.003 194.692 86.3471C194.481 77.515 196.689 72.9412 200.58 71.4167Z" fill="url(#paint4_linear)"/>
<path d="M264.877 134.136C264.877 134.136 272.448 131.034 279.072 137.395C278.652 137.974 264.72 137.553 264.72 137.553L264.877 134.136Z" fill="#FA9862"/>
<path d="M148.27 83.4033C148.27 83.4033 158.838 118.206 163.885 120.099C175.503 125.987 187.49 130.455 190.487 132.768C193.431 135.082 195.324 135.082 195.324 135.082L193.641 137.184L143.854 134.661C143.854 134.661 132.656 118.206 136.073 102.382C139.386 86.5576 148.27 83.4033 148.27 83.4033Z" fill="#EF8854"/>
<path d="M230.81 284.859C230.81 284.859 228.181 293.061 231.388 296.162C243.743 306.204 256.886 304.889 262.301 303.312C264.667 299.422 256.624 295.584 246.529 291.431C242.639 287.856 242.639 280.128 242.639 280.128L230.81 284.859Z" fill="#263238"/>
<path d="M161.781 291.955C161.781 291.955 151.371 301.681 151.371 307.096C151.371 312.564 178.604 322.552 188.488 313.773C188.225 307.149 171.664 304.257 167.406 303.574C166.985 303.521 166.828 302.995 167.091 302.68C168.51 301.103 171.875 297.423 173.662 295.53C175.975 293.112 171.349 288.275 170.455 287.644C169.614 287.119 161.781 291.955 161.781 291.955Z" fill="#263238"/>
<path d="M218.824 172.251C230.232 188.391 249.211 275.345 248.58 283.598C248.107 289.749 236.331 287.331 230.232 286.647C228.077 286.385 226.184 285.123 225.185 283.178C218.876 271.034 195.376 224.507 189.12 192.807C154.001 183.606 121.09 167.204 121.09 167.204C121.09 167.204 132.183 156.742 153.685 153.903C162.518 154.219 212.515 166.205 218.824 172.251Z" fill="#383838"/>
<path d="M136.283 158.319C136.283 158.319 192.905 164.628 209.36 177.298C226.447 196.592 181.602 293.85 176.87 298.266C173.4 301.105 153.159 295.9 152.213 291.484C152.844 246.535 176.765 206.107 174.241 202.9C171.718 199.746 103.057 205.108 97.6944 184.868C93.2783 166.521 98.6407 162.735 98.6407 162.735C98.6407 162.735 109.05 154.219 136.283 158.319Z" fill="#424242"/>
<path d="M96.1696 171.776C96.485 166.099 93.8564 131.086 86.9167 111.476C79.9244 91.867 61.5763 42.2917 114.413 41.2402C164.883 41.8711 148.27 108.953 148.27 114C148.27 119.047 148.585 149.854 153.632 153.849C147.639 155.427 142.855 156.373 140.647 158.896C138.491 161.472 123.35 153.113 96.1696 171.776Z" fill="url(#paint5_linear)"/>
<path d="M109.154 40.7135C109.154 40.7135 114.359 54.4874 124.926 58.1674C125.189 52.1217 129.71 50.1765 129.71 50.1765C129.71 50.1765 133.811 50.8599 136.598 55.644C138.701 56.2223 136.86 47.2325 136.86 47.2325L114.412 40.293L109.154 40.7135Z" fill="white"/>
<path d="M122.666 25.417C122.666 25.417 121.089 39.664 114.465 41.2412C113.781 48.3384 125.715 51.2298 129.711 51.1247C134.653 50.7567 136.335 48.6012 136.335 48.6012C136.335 48.6012 133.128 35.5634 135.336 32.0937C137.544 28.6239 129.658 21.6318 129.658 21.6318L122.666 25.417Z" fill="#EF8854"/>
<path d="M123.928 19.423C123.35 21.7887 126.136 34.3009 135.652 34.3009C145.168 34.3009 149.584 17.5304 148.007 11.8526C146.429 6.17487 133.444 8.06746 132.497 8.06746C131.551 8.06746 123.77 11.9052 123.928 19.423Z" fill="#FA9862"/>
<path d="M119.407 10.2236C120.406 7.12181 122.562 1.7069 128.608 1.02347C134.653 0.340032 139.385 3.54692 146.956 2.28519C154.526 1.02347 152.739 12.2739 148.953 13.2202C145.168 14.1665 140.542 14.7973 136.178 12.6944C134.285 13.3253 135.547 16.7951 133.339 17.1105C130.29 17.5311 129.869 12.0636 126.505 14.7973C124.507 18.5825 128.923 19.4237 128.502 22.2625C127.556 26.0477 126.399 27.2569 123.876 26.626C121.352 25.9951 117.567 15.8488 119.407 10.2236Z" fill="#01122C"/>
<path d="M88.1779 51.0725C95.1176 49.4953 106.526 45.3947 118.565 87.4523C130.605 129.51 161.886 125.725 186.595 133.348C191.169 132.927 198.004 130.509 204.628 136.817L122.351 137.764C122.351 137.764 98.64 128.564 86.2853 94.4443C76.4541 64.3732 79.293 56.4348 88.1779 51.0725Z" fill="#FA9862"/>
<path d="M118.565 87.4523C106.526 45.3947 95.1702 49.4953 88.1779 51.0725C79.293 56.4348 76.4541 64.3732 86.2853 94.3918C86.811 95.8638 87.3893 97.2832 87.9676 98.7027C90.386 95.9689 100.217 86.7688 118.565 87.4523Z" fill="url(#paint6_linear)"/>
<path d="M418.287 20.6318C418.287 20.6318 410.716 37.6126 415.5 44.2366C420.232 50.8607 423.386 41.976 421.651 51.3864C420.39 59.2722 418.024 57.7476 417.551 58.6414C423.649 62.7945 436.162 61.0071 438.685 58.1682C435.583 57.1693 435.794 49.1258 438.948 43.1326C442.102 37.1394 434.584 21.3153 434.584 21.3153L418.287 20.6318Z" fill="#FA9862"/>
<path d="M418.391 22.1571C417.76 22.4725 416.971 22.052 416.866 21.316C416.498 19.2131 416.445 15.3753 420.231 11.853C425.383 7.12153 433.532 6.8061 437.738 8.06782C438.158 8.17297 438.579 7.96268 438.684 7.5421C440.945 0.0243147 456.138 -4.12887 461.29 6.07009C467.179 17.7411 454.929 25.8371 449.882 25.8897C449.356 25.8897 448.936 26.3629 448.936 26.8886C449.146 34.6692 446.044 43.3962 437.475 44.8682C433.216 45.7619 430.009 43.7642 428.748 40.2944C428.169 38.6121 428.748 36.7721 430.167 35.7207C431.324 34.8795 432.323 33.6704 431.271 30.9892C429.746 27.7297 426.224 31.8303 425.383 29.044C424.542 26.5206 428.169 24.6806 423.963 21.5788C421.913 20.6325 419.389 21.7365 418.391 22.1571Z" fill="#01122C"/>
<path d="M373.651 325.392C376.858 325.813 378.908 320.03 383.85 321.239C383.377 314.51 382.115 303.207 383.272 283.387C388.109 241.172 375.701 210.154 375.807 207.894C371.601 202.479 358.983 209.366 358.983 209.366C358.983 209.366 353.726 236.388 357.932 246.902C367.027 273.504 372.705 310.199 369.971 319.241C369.55 319.925 366.922 324.183 373.651 325.392Z" fill="#EF8854"/>
<path d="M361.296 321.765C361.296 326.391 375.438 333.804 381.326 330.65C384.008 329.23 384.218 326.812 383.85 321.292C378.908 320.083 376.858 325.866 373.651 325.445C366.921 324.236 369.55 319.978 369.971 319.294C368.13 320.556 361.296 317.139 361.296 321.765Z" fill="#014880"/>
<path d="M316.979 326.443C316.979 326.443 323.025 323.499 323.971 306.098C324.917 288.697 334.538 221.983 334.538 221.983L362.823 218.986C362.823 218.986 360.51 248.111 350.047 272.557C339.585 296.951 329.912 325.234 329.912 326.338C329.912 327.442 328.86 336.222 326.915 337.589C324.917 338.956 321.5 340.217 313.667 337.221C305.886 334.224 299.156 331.228 300.471 327.6C301.785 323.973 316.979 326.443 316.979 326.443Z" fill="#FA9862"/>
<path d="M391.264 172.566C391.264 172.566 344 188.495 337.692 206.001C333.906 213.992 333.591 223.613 333.591 223.613L437.844 221.195C437.844 221.195 448.621 190.598 445.887 179.19C443.154 167.782 391.264 172.566 391.264 172.566Z" fill="#4A154B"/>
<path d="M402.989 65.9498C404.566 62.3749 413.661 59.4834 417.499 58.6948C427.645 61.2183 438.633 58.2217 438.633 58.2217C438.633 58.2217 446.151 62.2697 451.566 64.7932C456.298 69.2092 464.499 76.4641 459.768 99.5432C455.036 122.622 442.524 147.279 446.94 161.841C451.356 176.403 444.732 192.858 444.732 192.858C444.732 192.858 394.419 194.436 391.265 172.618C401.411 169.464 405.512 155.532 405.512 146.332C402.989 132.085 397.311 102.698 397.311 102.698C397.311 102.698 393.578 86.9785 402.989 65.9498Z" fill="url(#paint7_linear)"/>
<path d="M322.603 129.192C322.603 129.192 362.139 118.73 365.924 117.784C369.709 116.838 378.279 103.853 383.956 87.7129C389.634 71.5733 395.68 65.2647 403.882 66.211C412.083 67.1573 405.459 98.8056 398.204 105.745C393.157 114.63 384.903 134.555 370.971 138.655C358.932 140.863 321.92 138.971 321.92 138.971L322.603 129.192Z" fill="#EDEDED"/>
<path d="M302.678 138.709C302.678 138.709 310.248 132.4 322.918 131.139C323.865 132.4 321.972 139.024 321.972 139.024L302.678 138.709Z" fill="#FA9862"/>
<path d="M318.87 330.805C316.294 329.386 316.242 327.493 316.557 326.389C314.034 326.021 301.679 324.339 300.47 327.598C299.155 331.226 305.885 334.222 313.666 337.219C321.447 340.216 324.916 338.954 326.914 337.587C328.281 336.641 329.227 331.962 329.648 328.913C327.808 330.648 322.34 332.75 318.87 330.805Z" fill="#014880"/>
<path d="M361.349 220.09L333.695 340.69L338.847 340.532L368.762 219.249L361.349 220.09Z" fill="#7F7EA4"/>
<path d="M416.604 195.854L391.526 315.719L395.469 315.771L424.174 194.908L416.604 195.854Z" fill="#7F7EA4"/>
<path d="M409.297 212.047L430.063 344.633L434.48 344.212L417.393 210.68L409.297 212.047Z" fill="#7F7EA4"/>
<path d="M447.359 209.523L476.485 332.279L480.533 331.438L456.192 206.369L447.359 209.523Z" fill="#7F7EA4"/>
<path d="M453.3 79.251H506.137L465.182 222.825L402.62 224.087L350.151 223.508L350.782 216.201L396.731 216.096L453.3 79.251Z" fill="#8183A9"/>
<path d="M396.521 136.975H111.311V147.962H396.521V136.975Z" fill="#7F7EA4"/>
<path d="M134.968 145.753H126.083V305.624H134.968V145.753Z" fill="#7F7EA4"/>
<path d="M0.643583 132.663C4.74431 121.728 35.71 141.758 37.3398 175.194C34.3957 199.903 48.1699 223.613 48.1699 223.613L51.2717 242.801L37.8655 237.439C37.8655 237.439 29.6641 229.711 16.1527 209.944C9.21304 196.853 11.9469 177.665 12.2097 169.831C12.5777 160.526 -3.35199 143.493 0.643583 132.663Z" fill="#2EB67D"/>
<path d="M50.7462 230.658C50.7462 230.658 32.6083 213.783 36.3936 200.692C40.1789 187.602 52.4285 180.032 52.4285 171.567C52.4285 163.103 43.123 128.511 59.5785 124.305C76.0339 120.099 92.91 148.751 70.5663 177.876C49.4844 198.537 81.5541 201.481 65.5193 226.821C54.5314 236.967 47.3815 235.232 47.3815 235.232L50.7462 230.658Z" fill="#00686D"/>
<path d="M43.9115 249.374C43.9115 248.112 34.1854 225.874 50.1677 208.788C66.15 191.702 73.9309 184.868 76.7698 175.983C79.6088 167.099 95.5385 159.318 104.476 163.419C113.361 167.519 122.509 191.019 101.637 208.157C83.6044 222.93 78.0316 211.417 71.0919 230.027C67.7272 239.07 47.2762 251.424 47.2762 251.424L43.9115 249.374Z" fill="#2EB67D"/>
<path d="M133.548 79.4079C132.865 79.4079 132.392 78.8822 132.444 78.2514C132.76 69.3141 128.922 52.6488 128.869 52.4911C128.712 51.8602 129.132 51.282 129.711 51.1242C130.341 50.9665 130.92 51.3871 131.077 51.9654C131.235 52.6488 135.02 69.1038 134.705 78.3039C134.652 78.9348 134.179 79.4079 133.548 79.4079Z" fill="white"/>
<path d="M50.5352 227.555C50.062 227.555 49.6415 227.239 49.4837 226.819C49.4312 226.714 46.119 217.198 44.1213 205.895V205.79C43.3327 195.696 48.4848 189.02 53.9525 181.975C58.0006 176.77 62.1539 171.408 63.9414 164.363V164.311C67.6741 151.799 61.155 132.873 61.0499 132.663C60.8396 132.084 61.155 131.453 61.7333 131.243C62.3116 131.033 62.9425 131.348 63.1528 131.927C63.4157 132.715 69.9873 151.694 66.0969 164.942C64.2043 172.407 59.8933 177.98 55.6874 183.342C50.4826 190.019 45.5933 196.327 46.3293 205.527C48.2745 216.673 51.5341 225.978 51.5867 226.03C51.797 226.609 51.4815 227.239 50.9032 227.45C50.7981 227.555 50.6403 227.555 50.5352 227.555Z" fill="#2EB67D"/>
<path d="M52.0596 234.128C52.007 234.128 51.9544 234.128 51.9019 234.128C51.271 234.023 50.8504 233.497 50.9556 232.866C50.9556 232.708 51.5339 228.45 54.4254 222.51C57.0541 217.042 62.1537 209.051 71.6695 201.954C80.0286 195.698 86.6003 189.757 91.1216 184.237C94.9595 179.611 97.2727 175.405 98.0613 171.725C98.1664 171.094 98.7973 170.726 99.3756 170.831C100.007 170.936 100.375 171.567 100.269 172.146C99.0076 178.191 93.2771 188.601 73.0364 203.689C63.8886 210.523 58.9993 218.146 56.5283 223.351C53.7945 228.976 53.2162 233.076 53.2162 233.129C53.1111 233.707 52.5853 234.128 52.0596 234.128Z" fill="#00686D"/>
<path d="M40.9673 229.816C40.7044 229.816 40.4415 229.711 40.2312 229.5C35.6574 225.295 32.3978 219.144 30.3475 210.68C28.56 203.372 27.8765 195.329 27.2982 188.231C26.8776 183.132 26.457 178.295 25.6684 174.352C22.882 159.948 9.26555 147.12 9.10783 146.962C8.63467 146.542 8.63467 145.806 9.05525 145.385C9.47584 144.912 10.2119 144.912 10.6325 145.333C10.7902 145.49 14.26 148.697 18.0979 153.849C21.6729 158.633 26.2993 165.993 27.8239 173.932C28.6125 177.98 29.0331 182.869 29.4537 188.021C30.6103 201.847 32.0824 219.091 41.7033 227.818C42.1765 228.239 42.1765 228.975 41.7559 229.395C41.5982 229.658 41.2827 229.816 40.9673 229.816Z" fill="#00686D"/>
<path d="M22.934 224.77L80.7121 226.662C80.7121 226.662 104.738 272.032 60.4713 321.134C59.6302 323.026 41.0718 322.238 37.7071 321.134C-11.2387 248.374 22.934 224.77 22.934 224.77Z" fill="#FED337"/>
<defs>
<linearGradient id="paint0_linear" x1="290.663" y1="103.264" x2="364.491" y2="103.264" gradientUnits="userSpaceOnUse">
<stop offset="0.00396825" stop-color="#153869"/>
<stop offset="0.2685" stop-color="#12305B"/>
<stop offset="0.6855" stop-color="#0F274A"/>
<stop offset="1" stop-color="#0E2444"/>
</linearGradient>
<linearGradient id="paint1_linear" x1="34.7937" y1="317.072" x2="514.805" y2="317.072" gradientUnits="userSpaceOnUse">
<stop offset="0.00396825" stop-color="#FCEFFF"/>
<stop offset="0.2807" stop-color="#EDE1F0"/>
<stop offset="0.6443" stop-color="#E1D6E4"/>
<stop offset="1" stop-color="#DDD2E0"/>
</linearGradient>
<linearGradient id="paint2_linear" x1="233.067" y1="92.0304" x2="325.557" y2="104.744" gradientUnits="userSpaceOnUse">
<stop stop-color="#00BCF8"/>
<stop offset="1" stop-color="#015BA2"/>
</linearGradient>
<linearGradient id="paint3_linear" x1="251.219" y1="66.624" x2="239" y2="186" gradientUnits="userSpaceOnUse">
<stop stop-color="#00BCF8"/>
<stop offset="1" stop-color="#015BA2"/>
</linearGradient>
<linearGradient id="paint4_linear" x1="195" y1="64.5" x2="265" y2="157" gradientUnits="userSpaceOnUse">
<stop stop-color="#00BCF8"/>
<stop offset="1" stop-color="#015BA2"/>
</linearGradient>
<linearGradient id="paint5_linear" x1="78.0984" y1="106.525" x2="153.665" y2="106.525" gradientUnits="userSpaceOnUse">
<stop stop-color="#E8505B"/>
<stop offset="1" stop-color="#E01E5A"/>
</linearGradient>
<linearGradient id="paint6_linear" x1="-18" y1="159.5" x2="89" y2="37" gradientUnits="userSpaceOnUse">
<stop stop-color="#E8505B"/>
<stop offset="1" stop-color="#E01E5A"/>
</linearGradient>
<linearGradient id="paint7_linear" x1="396.175" y1="58.2217" x2="474.681" y2="65.4908" gradientUnits="userSpaceOnUse">
<stop stop-color="#FED337"/>
<stop offset="1" stop-color="#ECB22E"/>
</linearGradient>
</defs>
</svg>
