<svg width="521" height="340" viewBox="0 0 521 340" fill="none" xmlns="http://www.w3.org/2000/svg">
<path d="M290.258 164.609C289.321 164.553 289.045 163.286 289.872 162.9C300.563 157.665 328.007 140.691 305.909 111.815C278.905 76.4899 267.057 56.5957 239.558 71.971C219.553 83.158 214.208 102.336 206.327 115.727C198.447 129.119 197.896 162.735 207.705 185.88C217.514 209.026 207.044 220.489 212.775 244.075C218.506 267.662 239.393 267.496 257.799 263.033C276.26 258.569 302.106 262.041 306.68 238.84C311.144 215.97 318.143 189.903 307.782 171.552C304.696 166.041 295.714 164.829 290.258 164.609Z" fill="#2EB67D"/>
<path d="M254.988 236.415C253.501 236.415 252.178 235.257 252.068 233.714C248.155 188.801 252.013 121.954 252.068 121.238C252.178 119.64 253.556 118.372 255.209 118.482C256.807 118.592 258.075 119.97 257.964 121.623C257.909 122.285 254.107 188.746 257.964 233.218C258.13 234.817 256.917 236.249 255.264 236.415C255.154 236.415 255.099 236.415 254.988 236.415Z" fill="#00686D"/>
<path d="M216.906 62.8786H11.6264L9.14648 199.107H214.151L216.906 62.8786Z" fill="#DDD2E0"/>
<path d="M213.82 214.978L214.151 199.107H9.14664L8.87109 214.427L213.82 214.978Z" fill="#767587"/>
<path d="M77.041 71.5863H30.5293V113.744H77.041V71.5863Z" fill="#9899C8"/>
<path d="M52.4641 74.0118H33.3965V110.714H52.4641V74.0118Z" fill="#E7E9E6"/>
<path d="M73.7355 74.0667H54.668V110.769H73.7355V74.0667Z" fill="#E7E9E6"/>
<path d="M129.891 77.4825H83.3789V119.641H129.891V77.4825Z" fill="#9899C8"/>
<path d="M105.366 79.8522H86.2988V116.555H105.366V79.8522Z" fill="#E7E9E6"/>
<path d="M126.64 79.907H107.572V116.609H126.64V79.907Z" fill="#E7E9E6"/>
<path d="M77.8144 133.142H31.3027V187.92H77.8144V133.142Z" fill="#9899C8"/>
<path d="M53.2902 136.229H34.2227V183.953H53.2902V136.229Z" fill="#E7E9E6"/>
<path d="M74.5617 136.339H55.4941V184.063H74.5617V136.339Z" fill="#E7E9E6"/>
<path d="M188.967 214.758H151.162L152.981 147.084L190.399 144.77L188.967 214.758Z" fill="#9899C8"/>
<path d="M181.307 14.5489L35.0491 15.9817L0 56.707L0.330651 62.8791L226.772 63.2098V57.0376L181.307 14.5489Z" fill="#767587"/>
<path d="M226.772 63.2096H0V56.7068H13.0607L83.214 0L151.879 56.7068H226.772V63.2096Z" fill="#9899C8"/>
<path d="M82.4977 8.3761L18.1309 62.8785L148.959 63.9807L82.4977 8.3761Z" fill="#E7E9E6"/>
<path d="M171.718 125.096C183.679 125.096 193.376 115.918 193.376 104.596C193.376 93.2739 183.679 84.0955 171.718 84.0955C159.757 84.0955 150.061 93.2739 150.061 104.596C150.061 115.918 159.757 125.096 171.718 125.096Z" fill="#9899C8"/>
<path d="M171.774 120.798C181.148 120.798 188.748 113.618 188.748 104.761C188.748 95.9047 181.148 88.7249 171.774 88.7249C162.4 88.7249 154.801 95.9047 154.801 104.761C154.801 113.618 162.4 120.798 171.774 120.798Z" fill="#E7E9E6"/>
<path d="M187.976 267.771C187.976 267.771 252.342 279.619 344.429 279.619C436.515 279.619 510.692 281.217 514.439 259.945C518.186 238.729 326.519 248.373 300.232 245.231C273.89 242.09 176.678 248.703 187.976 267.771Z" fill="url(#paint0_linear)"/>
<path d="M178.662 240.934C178.662 240.934 180.205 265.457 194.368 266.174C203.351 266.614 211.121 266.559 215.64 266.449C218.561 266.394 221.261 265.071 223.19 262.922C226.992 258.624 232.448 250.578 231.511 240.658L178.662 240.934Z" fill="#00122C"/>
<path d="M231.566 181.361C231.566 181.361 230.134 172.653 233.385 172.268C236.636 171.882 247.217 171.165 247.217 171.165L231.566 181.361Z" fill="url(#paint1_linear)"/>
<path d="M228.314 252.727L422.076 251.073L474.815 249.585C478.066 249.475 481.042 247.657 482.585 244.736L487.49 234.706H216.906L228.314 252.727Z" fill="#00122C"/>
<path d="M232.945 179.378C232.945 179.378 270.584 144.494 310.373 137.385C350.161 130.276 435.194 136.283 449.357 142.29C463.519 148.296 475.533 170.064 475.533 170.064C475.533 170.064 486.996 180.976 485.894 188.03C484.791 195.139 488.594 199.492 486.996 207.097C485.342 214.702 485.342 218.56 485.342 218.56C485.342 218.56 490.798 218.009 489.696 225.669C488.594 233.274 486.996 236.029 486.996 236.029H474.982C474.982 236.029 474.982 213.655 454.261 213.655C433.54 213.655 428.911 236.525 428.911 236.525L307.066 238.179C307.066 238.179 308.168 215.308 281.992 216.356C255.815 217.458 255.099 243.414 255.099 243.414L174.585 242.036C174.585 242.036 166.98 236.58 168.578 215.86C170.231 195.139 177.285 191.887 177.285 191.887C177.285 191.887 184.394 178.827 232.945 179.378Z" fill="url(#paint2_linear)"/>
<path d="M243.305 178C243.305 178 281.715 145.816 302.987 142.289L340.351 143.392C340.351 143.392 314.174 151.823 290.753 178.826L243.305 178Z" fill="url(#paint3_linear)"/>
<path d="M313.072 179.377C313.072 179.377 331.423 133.417 397.94 145.926L394.302 178.826L313.072 179.377Z" fill="url(#paint4_linear)"/>
<path d="M405.158 178.275L410.063 146.642C410.063 146.642 428.579 140.636 446.6 150.445C464.565 160.254 458.614 175.519 458.614 175.519L405.158 178.275Z" fill="url(#paint5_linear)"/>
<path d="M466.219 185.879C466.219 185.879 470.572 176.621 482.035 177.723C489.144 182.628 485.837 192.823 485.837 192.823L469.47 192.988L466.219 185.879Z" fill="#E7E9E6"/>
<path d="M241.43 213.489H236.746C233.495 213.489 230.794 210.899 230.684 207.648C230.574 204.672 231.511 201.255 235.809 199.326C244.516 195.303 257.963 191.721 262.702 191.335C267.166 191.005 256.144 208.033 245.123 212.773C243.965 213.269 242.698 213.489 241.43 213.489Z" fill="#E7E9E6"/>
<path d="M253.168 241.154C253.168 241.154 253.168 268.047 273.503 270.582C298.026 273.393 303.647 259.671 305.466 254.601C307.285 249.531 308.387 238.784 308.387 238.784C308.387 238.784 308.387 218.064 284.966 215.639C258.789 215.859 253.168 241.154 253.168 241.154Z" fill="#022042"/>
<path d="M423.014 236.414C423.014 236.414 420.093 266.944 450.293 266.558C480.437 266.173 474.982 236.579 474.982 236.579C474.982 236.579 475.698 214.205 453.93 212.772C432.052 211.34 423.014 236.414 423.014 236.414Z" fill="#022042"/>
<path d="M178.937 219.166L222.362 220.433C222.362 220.433 225.008 238.785 198.39 238.619C177.614 236.856 178.937 219.166 178.937 219.166Z" fill="#022042"/>
<path d="M183.842 204.782C183.842 206.987 185.66 208.805 187.865 208.805H219.607C221.867 208.805 223.74 206.876 223.63 204.617V204.341C223.52 202.192 221.757 200.484 219.607 200.484L187.865 200.759C185.66 200.759 183.842 202.578 183.842 204.782Z" fill="#00122C"/>
<path d="M310.536 176.511C309.599 179.983 308.662 185.659 311.087 188.084C312.189 188.47 335.445 188.8 336.547 188.084C341.617 185.88 342.003 176.456 339.468 173.535C337.484 172.378 321.172 173.039 314.394 173.37C312.52 173.48 310.977 174.748 310.536 176.511Z" fill="url(#paint6_linear)"/>
<path d="M299.928 247.165C300.544 239.153 295.042 232.196 287.637 231.626C280.232 231.056 273.729 237.089 273.113 245.101C272.496 253.113 277.999 260.069 285.404 260.639C292.808 261.209 299.311 255.177 299.928 247.165Z" fill="#767587"/>
<path d="M455.417 255.703C462.996 255.703 469.139 249.189 469.139 241.154C469.139 233.119 462.996 226.606 455.417 226.606C447.839 226.606 441.695 233.119 441.695 241.154C441.695 249.189 447.839 255.703 455.417 255.703Z" fill="#767587"/>
<path d="M179.488 191.997C179.488 191.997 182.74 199.271 180.921 203.239C179.103 207.262 173.647 214.151 171.112 210.128C168.577 206.16 174.418 193.044 179.488 191.997Z" fill="#E7E9E6"/>
<path d="M420.81 197.067H406.978C405.765 197.067 404.773 196.075 404.773 194.862C404.773 193.65 405.765 192.658 406.978 192.658H420.81C422.022 192.658 423.014 193.65 423.014 194.862C423.014 196.075 422.022 197.067 420.81 197.067Z" fill="url(#paint7_linear)"/>
<path d="M68.7742 320.621C68.7742 320.621 104.264 339.413 155.35 339.413C206.436 339.413 242.973 342.554 245.067 321.668C247.161 300.782 144.879 308.111 130.275 304.97C115.727 301.829 62.547 301.829 68.7742 320.621Z" fill="url(#paint8_linear)"/>
<path d="M76.4343 131.929C76.4343 131.929 69.4906 153.642 68.1129 164.608C66.7352 175.575 66.9005 188.801 64.09 191.06C61.3346 193.32 56.7605 195.579 56.4299 198.886C56.0992 202.192 58.8547 202.192 58.8547 202.192C58.8547 202.192 67.3965 194.863 68.7742 195.745C70.1519 196.626 71.0337 200.264 71.9154 198.169C72.7971 196.075 71.7501 193.099 71.9154 190.509C72.0807 187.919 84.5904 142.675 86.6845 142.014C88.7786 141.352 76.4343 131.929 76.4343 131.929Z" fill="#FB9A67"/>
<path d="M130.551 137.716C130.551 137.716 140.636 174.914 139.423 180.48C138.211 186.046 137.66 186.818 138.211 187.865C138.762 188.967 139.533 187.369 139.533 187.369C139.533 187.369 141.021 184.999 144.659 185.55C148.296 186.046 151.988 188.967 152.815 187.259C153.696 185.495 147.745 182.244 146.532 181.031C145.32 179.819 143.226 142.235 140.25 136.008C137.329 129.67 130.551 137.716 130.551 137.716Z" fill="#EF8854"/>
<path d="M109.335 309.82C109.335 309.82 110.272 312.575 108.673 314.118C107.13 315.661 107.13 318.692 108.563 319.96C109.996 321.283 122.891 323.762 125.371 322.054C127.19 318.252 119.916 318.913 117.821 316.598C115.727 314.229 113.909 312.686 114.405 310.206" fill="#022042"/>
<path d="M78.8594 239.06C78.8594 239.06 77.4817 256.805 74.6711 260.608C71.9157 264.41 82.4966 267.551 83.5436 267.386C84.5907 267.221 88.0625 262.536 88.0625 262.536C88.0625 262.536 92.9121 246.004 93.9592 242.036C95.0613 238.013 78.8594 239.06 78.8594 239.06Z" fill="#EF8854"/>
<path d="M81.559 178.661C81.559 178.661 78.9689 204.617 77.5361 207.593C76.1033 210.569 74.2847 228.479 74.2847 230.408C74.2847 232.337 72.3559 231.18 71.6946 235.864C71.0333 240.548 71.9701 242.642 74.1745 243.414C76.3788 244.185 93.4625 247.437 96.2179 246.941C98.9734 246.445 101.563 239.005 100.902 236.139C98.808 234.045 106.468 211.836 106.137 213.545C104.87 220.378 100.792 301.223 102.721 305.797C104.705 310.371 104.925 310.646 107.791 311.142C110.656 311.638 116.388 312.299 118.096 311.418C119.804 310.481 137.66 216.576 130.11 179.818C119.915 174.748 81.559 178.661 81.559 178.661Z" fill="#4A154B"/>
<path d="M75.1655 254.215C75.1655 254.215 72.9612 253.554 71.5284 255.923C70.0956 258.293 58.3574 296.759 58.3574 301.333C58.3574 305.907 64.0887 321.282 74.2838 321.172C80.2906 320.015 71.4182 304.584 74.394 300.947C77.3699 297.31 91.7532 264.961 91.4777 261.93C91.2573 258.954 75.1655 254.215 75.1655 254.215Z" fill="#E8E8E8"/>
<path d="M70.8691 130.056C70.8691 130.056 79.7416 102.061 102.006 100.848C105.808 101.014 111.65 102.061 112.697 102.391C116.72 102.391 134.85 108.453 138.708 118.042C141.629 125.262 142.621 133.307 142.896 136.779C143.006 137.771 142.29 138.653 141.298 138.818C138.873 139.204 134.409 139.92 131.378 140.361C130.552 140.472 129.946 141.298 130.111 142.125C131.213 148.958 130.442 175.741 132.425 178.717C131.929 183.952 120.246 185.661 113.799 183.787C107.351 181.858 99.0296 178.717 93.629 180.15C88.2284 181.527 79.3559 180.15 80.0723 179.103C84.2605 169.183 86.8506 151.603 86.52 145.046C86.1893 138.377 71.9162 137 70.8691 130.056Z" fill="#E01E5A"/>
<path d="M114.183 105.423C114.183 105.423 112.254 100.077 113.522 99.9669C114.844 99.8566 116.773 100.628 117.545 99.5811C118.316 98.534 122.89 89.8269 121.733 86.7959C120.576 83.82 119.253 78.8603 114.404 79.246C109.554 79.6318 106.578 81.8361 106.468 82.4974C106.358 83.1587 106.137 91.8659 105.311 95.2826C104.264 97.8176 103.272 100.683 102.004 100.849C100.737 101.014 106.082 108.674 114.183 105.423Z" fill="#FB9A67"/>
<path d="M47.2266 317.645L45.6836 317.149L63.5388 201.586L66.9004 202.137L47.2266 317.645Z" fill="#444039"/>
<path d="M114.46 81.5601C114.956 81.4499 119.089 82.0561 121.845 87.1812C125.372 88.9997 127.797 82.2765 126.639 79.9068C125.317 77.0412 123.718 78.8046 119.916 76.6003C115.232 73.3489 109.225 72.6876 105.422 75.1675C100.077 78.97 106.469 91.7552 105.312 92.9124C105.478 93.9595 109.225 92.1409 108.288 90.157C107.351 88.2282 106.194 85.9688 107.627 85.1972C110.107 84.04 109.831 87.4016 111.154 86.3545C113.689 84.9768 110.548 82.3316 114.46 81.5601Z" fill="#444039"/>
<path d="M162.679 310.867H161.853L146.092 189.463L149.564 189.022L162.679 310.867Z" fill="#444039"/>
<path d="M70.7588 197.784C71.0895 198.666 70.5935 200.649 66.5155 202.137C62.4374 203.57 58.9105 204.066 58.5798 203.184C58.2492 202.303 61.5006 197.729 65.5786 196.241C69.6015 194.753 70.4282 196.902 70.7588 197.784Z" fill="#022042"/>
<path d="M155.129 188.636C155.129 189.794 151.767 190.73 147.579 190.73C143.391 190.73 140.029 190.345 138.982 189.187C138.156 188.25 140.029 184.889 144.218 184.889C148.351 184.834 155.129 187.479 155.129 188.636Z" fill="#022042"/>
<path d="M158.766 185.329C157.774 185.329 156.947 184.503 156.947 183.511V171.166C156.947 170.174 157.774 169.348 158.766 169.348C159.758 169.348 160.584 170.174 160.584 171.166V183.511C160.584 184.503 159.758 185.329 158.766 185.329Z" fill="#767587"/>
<path d="M336.218 325.416C336.218 325.416 348.673 335.666 386.037 338.697C423.4 341.728 490.798 340.13 512.456 326.794C545.466 306.569 473.935 291.083 403.286 309.324C360.742 320.291 334.565 319.464 336.218 325.416Z" fill="url(#paint9_linear)"/>
<path d="M350.933 317.811C350.933 317.811 351.76 322.991 346.579 323.267C341.399 323.542 336.495 322.44 336.219 325.471C335.943 328.447 349.555 330.1 358.593 327.676C362.12 326.022 358.042 315.662 358.042 315.662L350.933 317.811Z" fill="#022042"/>
<path d="M394.026 311.529C394.026 311.529 395.955 315.607 394.577 318.086C393.199 320.566 387.468 329.825 390.774 331.423C394.026 333.076 401.686 328.722 402.513 316.984C403.339 305.246 398.434 304.695 398.434 304.695L394.026 311.529Z" fill="#022042"/>
<path d="M397.003 234.928C397.83 227.819 397.83 182.575 393.201 177.119C388.847 172.049 353.908 174.529 349.279 174.915C355.286 175.356 366.528 176.623 368.843 179.599C364.765 195.856 364.765 209.192 366.198 230.189C366.363 227.213 366.473 225.339 366.528 225.119C366.804 223.465 381.793 309.325 384.769 312.08C387.745 314.78 400.861 313.733 403.286 309.38C405.711 305.026 396.177 242.037 397.003 234.928Z" fill="#424242"/>
<path d="M368.843 179.599C366.528 176.623 355.286 175.356 349.279 174.915C348.949 174.915 348.783 174.97 348.783 174.97C348.232 175.796 333.243 232.228 342.777 314.505C352.586 321.614 362.12 313.678 362.12 313.678C362.12 313.678 365.151 248.981 366.198 230.133C364.71 209.247 364.765 195.856 368.843 179.599Z" fill="#383838"/>
<path d="M349.553 104.927C349.553 104.927 359.087 98.9199 365.369 98.3688C371.652 97.8177 376.281 95.3929 381.737 97.5422C387.192 99.7465 394.522 101.345 395.624 104.651C396.726 107.903 395.899 128.623 398.324 131.654C400.749 134.685 396.947 177.174 393.695 179.874C390.444 182.575 350.655 183.677 348.451 177.67C346.247 171.663 348.726 137.331 347.9 134.079C350.104 131.379 352.584 110.382 349.553 104.927Z" fill="url(#paint10_linear)"/>
<path d="M370 130.827C370 130.827 380.085 103.052 380.36 98.3681C379.203 92.7471 371.653 104.375 371.653 104.375C371.653 104.375 368.071 97.0455 366.087 98.0375C361.734 100.021 368.402 125.647 370 130.827Z" fill="#E8E8E9"/>
<path d="M367.188 120.577C367.188 120.577 369.557 109.611 371.431 107.957C373.36 106.304 375.509 115.507 373.525 121.018C371.431 128.182 369.998 130.827 369.998 130.827L367.188 120.577Z" fill="#CA3541"/>
<path d="M365.645 137.386V168.026L407.362 160.09V129.946L365.645 137.386Z" fill="#FCBB00"/>
<path d="M318.528 96.495L322.992 95.7786C322.992 95.7786 334.069 118.042 334.62 124.6C335.171 131.158 342.886 105.257 350.766 104.431C353.246 106.911 349.885 133.583 348.507 135.787C347.129 137.992 336.493 151.328 328.613 145.872C320.677 140.361 317.15 101.4 318.528 96.495Z" fill="#E8E8E8"/>
<path d="M365.645 137.386L407.362 129.946L397.001 145.211C395.293 147.691 392.703 149.399 389.727 149.95C386.751 150.501 383.665 149.84 381.185 148.132L365.645 137.386Z" fill="#FFA100"/>
<path d="M382.289 164.774C382.289 164.774 372.81 159.925 372.535 161.523C372.259 163.176 371.928 164.884 375.235 166.813C378.486 168.742 383.336 168.577 383.336 168.577L382.289 164.774Z" fill="#EF8854"/>
<path d="M389.783 148.627C390.788 148.627 391.602 147.813 391.602 146.809C391.602 145.804 390.788 144.99 389.783 144.99C388.779 144.99 387.965 145.804 387.965 146.809C387.965 147.813 388.779 148.627 389.783 148.627Z" fill="#921D21"/>
<path d="M382.289 163.562C382.289 163.562 382.565 170.12 383.942 170.671C385.32 171.222 428.911 160.586 431.391 143.943C433.871 127.3 407.143 102.942 395.295 104.044C392.043 108.674 395.901 130.827 395.901 130.827C395.901 130.827 408.686 142.565 410.946 144.163C409.568 146.092 386.643 156.453 382.289 163.562Z" fill="#E8E8E8"/>
<path d="M318.803 96.4401C318.803 96.4401 317.977 95.1175 317.591 92.9132C316.434 91.2048 315.552 89.772 315.717 89.1107C316.268 88.78 317.866 91.0395 317.701 90.4333C317.315 88.6147 316.268 86.1348 316.93 85.694C317.977 85.5837 318.969 89.0005 318.969 89.0005C318.969 89.0005 317.756 84.2611 318.969 84.0407C320.181 83.8203 320.401 88.78 320.401 88.78C320.401 88.78 320.126 84.4265 321.173 84.6469C322.22 84.8673 322 88.5596 322.055 89.8271C322.165 91.811 324.755 87.9534 325.857 89.4965C326.463 90.3782 323.157 91.2599 323.818 92.7479C323.928 94.6216 323.267 95.7237 322.936 96.0544C322.165 96.7157 318.803 96.4401 318.803 96.4401Z" fill="#F99863"/>
<path d="M365.646 77.1518C365.646 77.1518 361.016 90.4881 366.197 93.5191C370.55 94.6213 366.307 98.8095 366.307 98.8095C366.307 98.8095 369.724 104.32 371.652 104.431C374.077 104.541 379.037 98.1482 379.037 98.1482C379.037 98.1482 377.384 90.5432 378.761 88.3389C380.139 86.1345 383.666 82.6076 382.013 79.0806C380.36 75.5537 375.179 72.5227 372.203 73.3493C369.228 74.1209 365.646 77.1518 365.646 77.1518Z" fill="#FB9A67"/>
<path d="M364.928 76.7107C364.928 76.7107 358.315 68.2791 365.59 65.4686C371.652 63.0989 373.029 70.0977 375.509 70.9243C377.989 71.751 385.594 71.7509 385.594 75.829C385.594 79.907 382.122 88.8346 379.422 88.8346C376.722 88.8346 377.714 84.8668 379.036 84.5913C380.304 84.3157 381.736 81.7807 379.477 80.7888C377.218 79.7968 375.73 83.1584 375.73 83.1584C375.73 83.1584 376.832 76.4352 374.627 75.333C372.478 74.1206 367.133 78.3089 364.928 76.7107Z" fill="#022042"/>
<path d="M364.103 80.5688C363.332 80.7341 368.016 84.4815 375.621 81.7261C378.211 80.7892 374.905 89.8821 374.905 89.8821C374.905 89.8821 370.165 95.3379 366.197 93.4091C361.293 91.5905 362.395 82.3323 364.103 80.5688Z" fill="#E8E8E8"/>
<path d="M372.202 108.178C373.846 108.178 375.178 106.722 375.178 104.926C375.178 103.13 373.846 101.675 372.202 101.675C370.559 101.675 369.227 103.13 369.227 104.926C369.227 106.722 370.559 108.178 372.202 108.178Z" fill="#CA3541"/>
<defs>
<linearGradient id="paint0_linear" x1="514.478" y1="262.101" x2="187.052" y2="262.101" gradientUnits="userSpaceOnUse">
<stop offset="0.00396825" stop-color="#FCEFFF"/>
<stop offset="0.2807" stop-color="#EDE1F0"/>
<stop offset="0.6443" stop-color="#E1D6E4"/>
<stop offset="1" stop-color="#DDD2E0"/>
</linearGradient>
<linearGradient id="paint1_linear" x1="235.829" y1="164.845" x2="251.211" y2="167.34" gradientUnits="userSpaceOnUse">
<stop stop-color="#00BCF8"/>
<stop offset="1" stop-color="#015BA2"/>
</linearGradient>
<linearGradient id="paint2_linear" x1="260.517" y1="66.4216" x2="551.399" y2="155.081" gradientUnits="userSpaceOnUse">
<stop stop-color="#00BCF8"/>
<stop offset="1" stop-color="#015BA2"/>
</linearGradient>
<linearGradient id="paint3_linear" x1="243.281" y1="160.549" x2="340.313" y2="160.549" gradientUnits="userSpaceOnUse">
<stop stop-color="#DCF9FA"/>
<stop offset="0.2445" stop-color="#D1EDEE"/>
<stop offset="0.6424" stop-color="#C4E0E1"/>
<stop offset="1" stop-color="#C0DBDD"/>
</linearGradient>
<linearGradient id="paint4_linear" x1="355.485" y1="179.355" x2="355.485" y2="143.755" gradientUnits="userSpaceOnUse">
<stop stop-color="#DCF9FA"/>
<stop offset="0.2445" stop-color="#D1EDEE"/>
<stop offset="0.6424" stop-color="#C4E0E1"/>
<stop offset="1" stop-color="#C0DBDD"/>
</linearGradient>
<linearGradient id="paint5_linear" x1="432.372" y1="178.265" x2="432.372" y2="144.834" gradientUnits="userSpaceOnUse">
<stop stop-color="#DCF9FA"/>
<stop offset="0.2445" stop-color="#D1EDEE"/>
<stop offset="0.6424" stop-color="#C4E0E1"/>
<stop offset="1" stop-color="#C0DBDD"/>
</linearGradient>
<linearGradient id="paint6_linear" x1="318.562" y1="163.192" x2="348.367" y2="169.405" gradientUnits="userSpaceOnUse">
<stop stop-color="#00BCF8"/>
<stop offset="1" stop-color="#015BA2"/>
</linearGradient>
<linearGradient id="paint7_linear" x1="410.003" y1="189.924" x2="425.241" y2="196.455" gradientUnits="userSpaceOnUse">
<stop stop-color="#00BCF8"/>
<stop offset="1" stop-color="#015BA2"/>
</linearGradient>
<linearGradient id="paint8_linear" x1="245.16" y1="321.499" x2="68.2892" y2="321.499" gradientUnits="userSpaceOnUse">
<stop offset="0.00396825" stop-color="#FCEFFF"/>
<stop offset="0.2807" stop-color="#EDE1F0"/>
<stop offset="0.6443" stop-color="#E1D6E4"/>
<stop offset="1" stop-color="#DDD2E0"/>
</linearGradient>
<linearGradient id="paint9_linear" x1="520.754" y1="320.635" x2="336.152" y2="320.635" gradientUnits="userSpaceOnUse">
<stop offset="0.00396825" stop-color="#FCEFFF"/>
<stop offset="0.2807" stop-color="#EDE1F0"/>
<stop offset="0.6443" stop-color="#E1D6E4"/>
<stop offset="1" stop-color="#DDD2E0"/>
</linearGradient>
<linearGradient id="paint10_linear" x1="347.559" y1="139.391" x2="399.148" y2="139.391" gradientUnits="userSpaceOnUse">
<stop stop-color="#983299"/>
<stop offset="0.0857362" stop-color="#8B2D8C"/>
<stop offset="0.3172" stop-color="#6F2370"/>
<stop offset="0.5483" stop-color="#5A1B5B"/>
<stop offset="0.7768" stop-color="#4E174F"/>
<stop offset="1" stop-color="#4A154B"/>
</linearGradient>
</defs>
</svg>
