<svg width="408" height="388" viewBox="0 0 408 388" fill="none" xmlns="http://www.w3.org/2000/svg">
<path d="M19.1038 299.931C20.486 300.21 22.0098 300.339 23.3056 300.891C25.0501 301.645 26.7226 302.624 28.424 303.471C31.7466 305.123 35.0869 306.745 38.4447 308.335C45.0725 311.474 51.7938 314.315 58.6183 317.002C61.8962 318.293 65.186 319.558 68.4879 320.796C70.1004 321.401 71.6746 321.669 73.3471 322.027C75.0965 322.401 76.8002 323.078 78.4991 323.635C80.33 324.232 82.1777 324.779 84.0182 325.314C80.4188 323.688 76.9681 321.729 73.4599 319.918C69.7525 317.998 66.0379 316.105 62.3497 314.159C58.6087 312.181 54.6109 310.413 51.1411 307.992C47.4481 305.417 43.5631 303.176 39.6998 300.87C38.9463 300.421 38.2864 296.399 38.4831 296.445C41.4107 297.124 44.3814 298.043 47.3737 298.333C50.4428 298.631 53.2431 299.651 56.1851 300.57C62.3929 302.511 68.5479 304.632 74.7677 306.535C81.2058 308.503 87.4137 311.296 93.667 313.796C100.009 316.333 106.411 318.761 112.672 321.499C119.067 324.292 125.63 326.857 131.869 329.991L141.623 334.894C144.952 336.573 148.102 338.642 151.483 340.214C157.912 343.208 164.281 346.282 170.781 349.121C177.14 351.9 183.499 354.683 189.908 357.323C204.292 363.242 218.674 369.155 233.056 375.063C233.776 375.354 234.565 377.29 234.793 377.811C235.37 379.146 235.851 380.52 236.233 381.924C236.358 382.385 237.5 388.23 236.617 387.992C222.274 384.139 207.929 380.287 193.623 376.309C179.487 372.378 165.418 368.227 151.248 364.426C137.234 360.668 123.333 356.447 109.531 351.972C106.003 350.827 102.406 349.587 99.0182 348.077C95.3612 346.448 91.8074 344.521 88.2367 342.712C84.8365 340.991 81.2347 339.592 77.9184 337.716C76.1331 336.715 74.5134 335.513 72.6537 334.651C70.8636 333.821 69.075 332.984 67.2881 332.139C59.5853 328.496 51.9834 324.645 44.3142 320.93C40.5468 319.105 36.7978 317.241 33.0672 315.337C31.1476 314.359 29.2398 313.372 27.3441 312.373C25.1245 311.207 23.2816 309.614 21.3331 308.042C20.2029 307.13 19.6989 305.047 19.3438 303.737C19.2646 303.44 18.4991 299.814 19.1038 299.931Z" fill="#DDD2DF"/>
<path d="M33.5852 287.425C35.5481 287.604 37.5268 287.493 39.457 287.094C39.493 287.163 39.5314 287.233 39.565 287.307C40.1913 288.716 40.6065 290.187 41.1488 291.579C42.405 293.629 44.185 295.307 46.3055 296.44C48.8755 297.798 51.7167 298.725 54.4163 299.8C56.096 300.464 58.6347 300.796 59.849 302.245C62.287 305.153 57.8141 304.633 56.0096 304.551C48.8563 304.222 42.0198 302.233 35.1329 300.596C32.6301 300.001 32.119 298.11 32.0614 295.761C32.0012 292.94 32.1336 290.118 32.4574 287.314C32.8197 287.355 33.194 287.391 33.5852 287.425Z" fill="#424242"/>
<path d="M16.3632 287.4C18.2127 288.083 20.1537 288.487 22.1222 288.599C22.139 288.679 22.1582 288.753 22.1702 288.839C22.4102 290.363 22.4342 291.887 22.5998 293.375C23.2846 295.68 24.5718 297.761 26.3288 299.402C28.4596 301.377 30.9648 303.002 33.2877 304.742C34.7274 305.812 37.1078 306.791 37.9069 308.507C39.5123 311.945 35.3249 310.287 33.5876 309.74C26.7607 307.58 20.6705 303.892 14.4363 300.533C12.1734 299.314 12.1663 297.353 12.7158 295.069C13.3865 292.328 14.2427 289.636 15.2785 287.011C15.6433 287.136 15.9864 287.268 16.3632 287.4Z" fill="#424242"/>
<path d="M53.2184 51.6013C53.4152 54.3153 53.6983 57.0221 54.1398 59.7073C54.9519 64.9868 56.3864 70.1515 58.4136 75.0936C61.6626 82.8707 66.6898 90.4199 73.5743 95.4255C75.3092 96.6901 77.1017 97.5084 79.2638 97.6787C81.1523 97.8251 83.8063 97.8851 85.366 96.5821C86.849 95.3439 86.5347 93.1267 86.2011 91.4421C85.7572 89.2129 84.8117 87.1228 83.7511 85.1216C81.5387 80.951 79.1918 77.0037 77.5361 72.5572C75.8371 68.0243 74.491 63.3619 72.5953 58.9034C71.3115 55.8823 69.7325 52.9619 67.7025 50.3727C66.0908 48.322 64.1494 46.5534 61.9578 45.1392C60.8515 44.4204 59.6849 43.7989 58.4712 43.2819C57.3889 42.8187 56.0164 42.0821 54.8334 42.598C53.6503 43.1139 53.5159 45.2376 53.3552 46.3438C53.1201 48.0862 53.0743 49.849 53.2184 51.6013Z" fill="#F5F5F5"/>
<path d="M57.0301 137.197C57.3325 134.318 57.69 131.491 58.0763 128.674C58.2363 132.576 58.3962 136.477 58.5562 140.377C59.1249 155.204 59.5161 170.048 59.1466 184.887C58.4267 214.717 56.0583 244.57 52.7636 274.222C52.3508 277.931 52.4601 282.897 52.049 286.606C50.3591 292.014 46.719 291.101 46.719 291.101C46.719 291.101 46.719 291.101 46.8125 291.089L46.719 291.101C48.0244 268.984 48.701 247.088 50.4264 224.927C52.9436 195.683 53.5723 166.753 57.0301 137.197Z" fill="url(#paint0_linear)"/>
<path d="M28.3059 208.149C30.7463 189.821 30.8687 172.057 30.0984 153.563C29.5033 139.34 26.6406 124.376 30.5783 110.403C32.3349 104.15 36.2702 96.7256 42.3364 93.6493C47.5724 91.0098 54.6632 93.6925 56.9477 99.1109C59.4193 104.971 58.6538 112.242 58.9154 118.461C59.0594 121.867 59.2057 125.273 59.3545 128.679C58.9682 131.496 58.6106 134.33 58.3083 137.202C54.8504 166.758 54.2289 195.688 51.7046 224.932C49.9792 247.093 49.3049 268.989 47.9972 291.106C44.3353 291.632 40.4935 291.553 36.8173 291.27C35.0496 291.13 33.2899 290.918 31.5382 290.634C30.1752 290.408 28.4187 290.219 27.3485 289.244C25.0472 287.157 25.1672 282.672 24.9872 279.852C24.7473 276.178 24.4521 272.524 24.3034 268.838C24.2866 268.437 24.2745 268.039 24.2625 267.638C24.2956 247.741 25.6463 227.868 28.3059 208.149Z" fill="#4A154B"/>
<path d="M8.79003 246.679L10.7409 199.27C11.3864 183.567 12.0559 167.874 12.4783 152.163C12.6846 144.461 12.8142 136.746 13.2126 129.048C13.5893 121.698 14.1004 114.17 15.7513 106.972C16.4544 103.905 17.6494 100.687 20.4954 99C25.8249 95.8469 35.373 95.9213 40.1914 100.361C39.937 115.357 39.5811 130.364 39.1236 145.382C38.4949 168.966 34.4059 192.232 31.8911 215.816C29.0116 242.06 30.3506 268.302 25.501 294.06C23.0267 294.471 20.5223 294.674 18.0141 294.667C-0.675697 285.254 8.15413 262.126 8.79003 246.679Z" fill="#4A154B"/>
<path d="M39.1238 145.373C39.5878 130.348 39.9437 115.341 40.1916 100.351C40.7038 100.82 41.1625 101.344 41.5594 101.913C44.1606 105.681 44.7317 110.451 45.0581 115.015C45.8907 126.672 45.8619 138.505 45.478 150.179C44.5518 178.442 37.5208 206.167 36.2586 234.454C35.9594 241.528 36.0395 248.613 36.4986 255.678C36.9377 262.68 37.5257 269.706 37.0697 276.72C36.8298 280.351 36.5298 284.327 35.0516 287.699C33.7966 290.554 31.4522 292.366 28.5151 293.304C27.5276 293.618 26.5209 293.867 25.5012 294.05C30.3508 268.293 29.007 242.051 31.8914 215.806C34.4062 192.223 38.4951 168.956 39.1238 145.373Z" fill="url(#paint1_linear)"/>
<path d="M2.81004 52.2033C4.09384 47.1497 8.08916 43.5503 12.5596 41.1963C14.1619 40.3325 15.8078 39.5524 17.4909 38.8591C27.4541 30.1653 43.1524 35.1685 53.6843 40.7188C56.9549 42.4417 61.3942 43.9918 63.6786 47.0633C66.2222 50.4876 64.3986 54.6269 63.6019 58.3223C62.6996 62.4761 62.4572 66.7426 62.486 70.9851C62.5436 79.5565 63.6858 88.1471 62.8004 96.709C62.4524 100.068 61.9077 103.843 59.5705 106.478C57.0821 109.283 52.9404 109.533 49.4466 109.7C45.4584 109.897 41.7509 111.179 37.8108 111.675C33.6235 112.201 29.3282 111.831 25.496 109.981C22.012 108.301 18.7862 106.132 15.9167 103.538C13.3947 101.213 12.2429 98.2591 11.7054 95.0101C10.5944 92.7184 9.8409 90.1556 8.97464 87.7968C7.84202 84.7061 6.02794 81.925 4.92892 78.8199C3.94282 75.9571 3.2678 72.9965 2.91561 69.9893C2.57007 67.0401 2.43573 63.9902 2.29175 61.0195C2.14297 58.0896 2.08056 55.0685 2.81004 52.2033Z" fill="url(#paint2_linear)"/>
<path d="M65.8953 115.244C70.2643 129.951 68.3706 190.5 68.3706 190.5C67.5455 196.148 58.7334 198.895 58.7334 198.895C58.7334 198.895 58.0895 178.403 57.0004 174.5C56.0004 167 51.918 123.429 50.602 111.011L50.5278 110.281C50.4989 110.025 50.4742 109.773 50.4494 109.518L50.3875 108.82C50.3668 108.577 50.3421 108.334 50.3256 108.09L50.2638 107.356C50.2638 107.112 50.2266 106.869 50.2101 106.626C50.1771 106.139 50.1441 105.652 50.1152 105.165L50.0781 104.472C50.0781 104.286 50.0575 104.105 50.0534 103.923C50.0493 103.742 50.0286 103.478 50.0203 103.259C50.0203 103.119 50.0203 102.975 50.0203 102.847C50.0203 102.719 50.0203 102.463 50.0203 102.269C50.0203 102.075 50.0203 101.786 50.0203 101.547C50.0203 101.308 50.0203 101.064 50.0203 100.825C49.9956 99.395 50.0066 97.9799 50.0534 96.58C50.73 76.7775 45.2099 52.8949 42.7387 42.6265C42.3262 40.836 41.9673 39.4581 41.7734 38.5876C42.285 38.3535 42.7054 37.9577 42.97 37.4613C43.2346 36.9648 43.3288 36.3952 43.238 35.84C43.1691 35.1998 42.9875 34.5769 42.7017 34C42.8461 34.0413 60.1406 43.33 62.5004 45.5C70.5004 50 61.7533 101.324 65.8953 115.244Z" fill="url(#paint3_linear)"/>
<path d="M39.5331 145.599C39.7642 147.662 37.2392 197.251 37.4909 199C28.0022 196.611 5.59233 200.122 5.09726 196.479C4.30104 189.326 9.45806 138.516 10.0521 113.655C10.6462 88.7949 2.50607 67.9063 3.50032 53.5C3.50028 46 7.47956 44.9357 12.5003 41C18.276 36.4619 27.5003 34 27.5003 34C27.9699 34.5255 28.995 36.0975 29.5493 36.5328C32.1896 38.5956 34.5618 38.5749 34.5618 38.5749C34.5618 38.5749 36.212 66.7646 37.4909 95.3173C38.4893 117.867 39.0793 141.523 39.5331 145.599Z" fill="url(#paint4_linear)"/>
<path d="M30.1633 83.7077C31.0392 83.8973 37.95 84.6916 38.8379 84.8283C38.7491 84.3028 38.6724 83.7869 38.5764 83.3142C38.3844 82.3735 37.7941 80.845 37.9117 79.65C36.7119 79.65 27.958 79.446 27.3797 80.7706C26.6311 82.4935 28.8987 83.4342 30.1633 83.7077Z" fill="#F99863"/>
<path d="M38.5761 83.3136C38.672 83.7935 38.7488 84.3022 38.8376 84.8277C40.0134 85.0101 41.1916 85.1781 42.3579 85.4229C43.6345 85.6892 44.9062 85.9892 46.1708 86.3131C53.7848 88.2616 61.1444 91.1555 68.504 93.8911C72.629 95.4244 76.5163 97.7929 81.2724 97.7521C82.1122 97.7521 83.84 97.8121 84.6318 97.3105C85.4237 96.809 86.2516 96.3507 86.4891 93.2312C86.7723 89.5334 84.0895 86.2555 81.5699 83.5128C78.7144 80.4149 75.247 77.8761 71.1988 76.7002C63.2633 74.3918 54.3871 76.4603 46.3796 78.0441C45.7989 78.1608 45.2238 78.2736 44.6542 78.3824L37.921 79.6614C37.7938 80.8444 38.3841 82.373 38.5761 83.3136Z" fill="url(#paint5_linear)"/>
<path d="M22.5717 70.3632C22.6813 70.1463 22.7908 68.8947 23.01 66.4001C23.2648 63.4976 23.5579 44.5473 23.6776 41.6882C23.8331 37.9572 24.0216 33.4452 27.5408 30.9245C31.3224 28.2238 37.7338 28.7033 41.8518 30.8508C47.4885 33.7901 48.4772 39.6904 49.1398 43.6319C49.7717 47.3868 48.7193 49.5452 48.9639 51.4801C48.992 51.6971 49.099 52.4129 48.6735 52.6515C48.5615 52.7053 48.4351 52.7336 48.3065 52.7336C48.1779 52.7336 48.0515 52.7053 47.9396 52.6515C47.3025 52.3348 47.5548 51.0723 47.7077 50.0484C47.9696 47.9634 48.0182 45.8629 47.8529 43.7707C47.7513 42.6356 47.5357 41.51 47.2082 40.4062C46.5304 38.1329 45.5136 34.7294 41.941 32.4083C41.1459 31.8942 37.851 29.892 33.5114 30.3172C32.5761 30.4083 30.2776 30.6339 28.3307 32.1111C26.3839 33.5883 25.8742 35.5211 25.3467 37.7164C24.8779 39.6687 24.9161 41.5776 24.9951 45.415C25.0511 48.1699 24.4854 66.1007 24.093 67.8361C23.8713 68.8187 23.4967 69.3546 23.6267 70.4023C23.6776 70.8123 23.7999 71.27 23.4942 71.5108C23.3361 71.6113 23.1412 71.6608 22.9443 71.6504C22.7474 71.6401 22.5612 71.5706 22.4188 71.4544C22.141 71.1724 22.4519 70.6062 22.5717 70.3632Z" fill="#479EB0"/>
<path d="M35.597 62.8638C35.597 62.8638 33.0701 73.1685 40.0243 73.0011H41.909V72.11L39.9693 72.1518C39.9693 72.1518 35.4083 72.7451 37.1671 62.8638H35.597Z" fill="#B5D8DF"/>
<path d="M61.0647 62.8638C61.0647 62.8638 63.5899 73.1685 56.6475 73.0011H54.7529V72.11L56.692 72.1518C56.692 72.1518 61.2452 72.7451 59.4867 62.8638H61.0647Z" fill="#B5D8DF"/>
<path d="M47.798 51.9659C47.798 51.9659 35.4268 50.6211 35.4268 63.7056C35.4268 63.7056 36.1396 64.8788 36.9764 63.7056C36.9764 63.7056 35.4991 53.3611 47.8755 52.8186L48.547 52.5663L47.798 51.9659Z" fill="#479EB0"/>
<path d="M48.724 52.0875C48.724 52.0875 60.8364 50.7573 60.8364 63.7003C60.8364 63.7003 60.1385 64.8608 59.3192 63.7003C59.3192 63.7003 60.7656 53.4677 48.6506 52.9311L47.9932 52.6815L48.724 52.0875Z" fill="#479EB0"/>
<path d="M43.2613 72.6667C43.2613 72.1194 42.8086 71.6514 42.2473 71.6514C41.686 71.6514 41.2334 72.1057 41.2334 72.6667C41.2334 73.2277 41.686 73.6792 42.2473 73.6792C42.8086 73.6792 43.2613 73.225 43.2613 72.6667Z" fill="#3B8697"/>
<path d="M56.1042 72.6667C56.1042 72.1194 55.5007 71.6514 54.7523 71.6514C54.0039 71.6514 53.4004 72.1057 53.4004 72.6667C53.4004 73.2277 54.0039 73.6792 54.7523 73.6792C55.5007 73.6792 56.1042 73.225 56.1042 72.6667Z" fill="#3B8697"/>
<path d="M27.9344 34.0168C28.4335 33.1026 29.0574 32.2315 29.5181 31.3149C30.1988 29.9677 30.7686 28.5673 31.2218 27.1275C31.6235 25.7577 31.9258 24.3607 32.1265 22.9474C32.3449 21.5556 32.7144 20.1303 33.9071 19.2424C35.0997 18.3546 37.2497 18.3017 38.5263 19.0792C39.6853 19.7991 39.8628 20.8933 40.2732 22.0859C40.8443 23.7297 40.8875 25.515 41.1419 27.2331C41.5099 29.5489 42.0285 31.8382 42.6944 34.0864C43.1499 34.8034 43.5448 35.5571 43.875 36.3397C42.9152 40.2774 41.4586 43.7041 39.9373 47.3203C39.7621 47.3707 39.5869 47.4139 39.4094 47.4523C36.2227 42.4227 32.1481 38.0698 27.9344 34.0168Z" fill="url(#paint6_linear)"/>
<path d="M38.5761 83.3142C38.6721 83.7941 38.7488 84.3028 38.8376 84.8283C39.0344 85.9802 39.2864 87.1704 39.9367 88.051C41.1365 89.6516 43.6633 89.702 45.0431 88.3102C45.572 87.7435 45.9585 87.0592 46.1709 86.3137C46.4299 85.3987 46.6168 84.4648 46.73 83.5206C46.9964 81.7401 47.1259 79.8732 46.6436 78.1286C46.5524 78.0926 46.4612 78.0614 46.3701 78.0327C45.2143 77.6761 44.0136 77.4862 42.8042 77.4688C42.3987 77.4688 41.9884 77.4928 41.578 77.5335C40.6182 77.6271 39.2432 77.7519 38.4753 78.431C38.1364 78.7489 37.9343 79.1859 37.9114 79.65C37.7938 80.845 38.3841 82.3736 38.5761 83.3142Z" fill="#FAFAFA"/>
<path d="M30.8475 14.7401C30.9458 19.5393 32.6879 24.4105 36.4385 27.5516C37.9767 28.845 39.8652 29.4881 41.8737 29.0082C43.8821 28.5282 44.8396 25.9439 45.5691 24.2282C46.6078 21.8098 47.2799 19.25 47.5631 16.6334C47.9351 13.0819 47.8535 9.0506 44.7292 6.71097C42.8575 5.3096 40.5923 5.16082 38.3366 5.27121C36.1458 5.37679 33.8685 5.85431 32.5367 7.7596C31.205 9.6649 30.7995 12.434 30.8475 14.7401Z" fill="#F99863"/>
<path d="M29.3999 21.6608C29.6958 22.15 30.152 22.5217 30.6908 22.7129C31.2297 22.904 31.8181 22.9028 32.3562 22.7094C34.1799 21.9895 32.8361 19.0692 32.5601 17.7542C32.265 16.3145 31.1708 12.8398 32.9177 11.8368C33.7432 11.3569 35.0773 11.7624 35.682 12.4775C36.065 12.938 36.3441 13.4758 36.5003 14.054C36.7144 14.8765 36.7795 15.7306 36.6923 16.576C36.6588 16.7871 36.6419 17.0006 36.6419 17.2143C36.6419 17.3271 37.5129 17.3751 37.5369 17.2143C38.3456 12.2615 45.2421 14.2868 48.5752 12.5015C50.0725 11.6976 50.8116 10.121 50.862 8.46291C50.8844 7.66279 50.7397 6.86678 50.4373 6.12569C50.5244 5.10148 50.2418 4.07993 49.6406 3.24615C48.244 1.29287 45.3813 0.553798 42.7777 0.738568C41.5779 -0.0940983 39.6174 -0.0413079 38.2856 0.0474778C37.1148 0.102483 35.9643 0.374231 34.8926 0.848941L34.703 0.942529C34.4294 0.880139 34.1295 0.810556 34.0575 0.798558C33.5162 0.691392 32.9689 0.617653 32.4185 0.577783C31.046 0.484198 29.1527 0.462602 28.6584 2.01755C28.0297 3.98763 27.8857 6.12569 27.6985 8.19656C27.329 12.5975 26.8899 17.7446 29.3999 21.6608Z" fill="#424242"/>
<path d="M41.1463 42.5032C41.403 41.8769 41.6454 41.2411 41.8806 40.598C42.6269 38.5607 43.3827 36.4826 44.0594 34.395C44.0954 34.2366 44.129 34.0758 44.165 33.915C45.8447 35.2156 47.5245 36.569 49.2666 37.8768C49.2564 38.5989 49.2067 39.3198 49.1178 40.0365C49.0304 40.8904 48.8999 41.7393 48.7267 42.58C48.5086 43.8204 48.1875 45.0404 47.7668 46.2274C47.2869 47.84 46.6462 49.6925 45.66 50.9955C44.6017 48.1879 43.0204 45.6011 40.5584 43.6431C40.7624 43.2615 40.9591 42.8848 41.1463 42.5032Z" fill="url(#paint7_linear)"/>
<path d="M26.4418 31.0269C28.7838 33.5105 31.373 35.7589 33.6575 38.3121C34.8357 39.6295 35.9875 40.9757 37.0841 42.3626C37.5208 42.9121 37.9695 43.4593 38.3799 44.0256C36.464 46.1551 34.7998 48.4982 33.4199 51.0084C33.2759 50.5645 33.1295 50.1326 32.9735 49.7223C32.1856 47.5841 31.2581 45.4999 30.1972 43.4833C28.3129 39.934 26.2183 36.5004 23.9246 33.2009C24.7012 32.4069 25.5433 31.6797 26.4418 31.0269Z" fill="url(#paint8_linear)"/>
<path d="M66.1837 86.3837C66.0061 85.7814 65.3078 85.0111 65.0054 84.428C64.5452 83.5851 64.1852 82.6911 63.9328 81.7645C63.3089 79.2353 64.1728 77.7835 66.2484 76.4517C67.4532 75.6762 68.8454 75.2409 70.2774 75.1919C71.5206 75.1781 72.7614 75.3069 73.9752 75.5759C75.2518 75.8302 76.1949 76.1254 77.2627 76.8669C76.5428 77.6899 75.343 78.6714 74.232 78.8993C72.6002 79.2329 71.5924 78.6282 70.4646 80.1471C69.3032 81.7213 69.1304 83.7825 69.3464 85.6662C69.4256 86.3573 66.642 87.7971 66.546 87.5091C66.4188 87.1372 66.2941 86.7581 66.1837 86.3837Z" fill="#F99863"/>
<path d="M0.408028 62.4779C0.556801 64.4504 0.57119 66.4277 0.575989 68.4026C0.590385 76.0814 0.544777 83.5705 5.11844 90.1359C6.89175 92.6795 9.1594 94.6952 11.6598 96.5045C14.3738 98.465 17.2653 100.526 20.2984 101.959C23.6099 103.526 27.4805 103.591 31.0559 103.159C32.9228 102.919 34.7489 102.482 36.599 102.158C38.1564 101.887 39.3346 102.182 40.8919 102.384C42.9292 102.652 45.12 102.695 47.1309 102.196C48.6043 101.827 49.9505 101.083 51.2943 100.404C54.6821 98.684 57.9736 96.7807 61.1542 94.7024C63.813 92.9674 67.1749 91.1246 68.857 88.329C69.6081 87.0812 69.9416 85.4711 68.7346 84.3816C67.7748 83.5202 66.2702 83.3354 65.0464 83.1818C57.7132 82.3036 50.7567 84.4344 43.7546 86.2413C41.9626 86.7232 40.1469 87.1125 38.3147 87.4075C36.6182 87.6619 34.9841 87.9163 33.4291 87.0068C30.612 85.3607 28.8386 82.0684 27.3749 79.2657C23.4851 71.8101 22.0261 63.733 16.9486 56.7981C14.3426 53.2394 8.78989 44.8696 3.84189 48.4858C1.64864 50.0887 0.211243 53.0907 0.0336761 55.7686C-0.110306 58.0123 0.24485 60.2487 0.408028 62.4779Z" fill="url(#paint9_linear)"/>
<path d="M178.277 297.323C179.729 297.473 179.258 296.165 180.62 296.462C182.453 296.868 186.284 298.772 188.072 299.228C191.563 300.118 195.074 300.991 198.603 301.847C205.568 303.537 212.631 305.067 219.804 306.514C223.248 307.209 226.706 307.89 230.176 308.556C231.87 308.882 233.525 309.027 235.282 309.219C237.121 309.421 238.911 309.785 240.697 310.085C242.621 310.406 244.563 310.701 246.497 310.989C242.714 310.113 239.088 309.059 235.401 308.083C231.505 307.05 227.601 306.03 223.725 304.983C219.793 303.918 215.592 302.966 211.946 301.662C208.064 300.276 203.982 299.069 199.922 297.828C199.13 297.586 198.436 295.421 198.643 295.446C201.72 295.811 204.842 296.306 207.986 296.462C211.212 296.623 214.155 297.172 217.246 297.666C223.77 298.712 230.239 299.854 236.775 300.878C243.541 301.938 250.065 303.441 256.637 304.788C263.302 306.153 270.03 307.461 276.61 308.935C283.331 310.439 290.228 311.82 296.784 313.507L307.036 316.146C310.533 317.051 313.844 318.165 317.398 319.011C324.154 320.623 330.846 322.278 337.678 323.806C344.361 325.303 351.044 326.801 357.779 328.222C372.895 331.409 388.01 334.593 403.124 337.774C403.881 337.93 404.71 338.973 404.95 339.253C405.556 339.972 406.062 340.712 406.463 341.467C406.594 341.715 407.795 344.863 406.867 344.735C391.794 342.66 376.718 340.586 361.683 338.444C346.827 336.328 332.042 334.093 317.151 332.047C302.423 330.023 287.814 327.751 273.309 325.341C269.602 324.725 265.822 324.057 262.261 323.244C258.417 322.367 254.683 321.33 250.93 320.356C247.357 319.429 243.572 318.676 240.086 317.666C238.21 317.127 236.508 316.48 234.554 316.016C232.672 315.569 230.793 315.118 228.915 314.663C220.82 312.702 212.831 310.629 204.771 308.629C200.812 307.646 196.872 306.642 192.951 305.617C190.934 305.091 188.929 304.559 186.937 304.022C184.604 303.394 180.324 302.509 178.277 301.662C177.089 301.171 167.525 299.934 167.151 299.228C167.068 299.068 177.641 297.259 178.277 297.323Z" fill="#DDD2DF"/>
<path d="M165.921 295.112C162.427 296.653 159.223 298.138 159.669 298.827C160.237 299.706 167.504 299.191 171.615 298.386C175.727 297.582 180.099 298.835 180.904 296.869C181.168 296.199 180.954 294.65 180.548 292.739L180.284 292.795C174.384 295.175 167.106 296.307 165.921 295.112Z" fill="#424242"/>
<path d="M174.025 290.888C173.703 291.762 169.647 293.472 165.921 295.111C167.106 296.303 174.384 295.171 180.279 292.794L180.543 292.738C179.751 289.044 178.3 283.985 178.456 281.357C177.326 282.676 174.429 283.294 172.806 282.592C172.859 282.766 174.642 289.213 174.025 290.888Z" fill="#FCB38F"/>
<path d="M160.403 143.47C149.283 185.209 161.987 269.004 172.12 282.135C172.316 282.332 172.551 282.488 172.809 282.594C174.431 283.296 177.329 282.67 178.458 281.359C183.981 271.212 185.881 236.234 182.578 218.353C178.221 194.77 186.206 138.053 186.206 138.053C177.917 138.926 168.821 140.546 160.403 143.47Z" fill="url(#paint10_linear)"/>
<path d="M200.941 31.397C208.33 32.1122 221.606 43.1875 200.941 58.8201C180.276 74.4527 159.646 74.0938 156.429 69.27C153.212 64.4461 154.286 54.7879 163.665 51.8033C158.123 44.1718 161.699 32.0119 167.504 30.3204C163.754 40.6858 179.297 41.8021 177.331 29.7662C175.365 17.7304 203.562 10.7638 200.941 31.397Z" fill="#E8505B"/>
<path d="M178.835 60.7202C170.9 65.2511 164.11 69.8955 161.967 74.094C159.825 78.2924 150.439 98.0729 149.724 104.773C158.746 108.346 175.813 102.322 175.813 102.322C175.813 102.322 172.766 66.9083 178.835 60.7202Z" fill="url(#paint11_linear)"/>
<path d="M201.712 290.399C199.653 293.386 197.643 296.157 197.988 298.479C200.601 301.426 216.276 284.878 216.41 283.004C216.492 281.901 214.782 281.189 212.845 279.31C210.536 284.316 204.242 291.085 201.712 290.399Z" fill="#424242"/>
<path d="M201.711 290.398C204.242 291.085 210.536 284.316 212.845 279.315C211.079 277.602 209.751 275.49 208.971 273.156C208.776 272.599 208.57 271.863 208.348 270.971C207.374 273.982 203.704 274.824 203.598 274.85C203.77 275.251 203.912 275.623 204.023 275.969C204.846 278.537 205.976 280.838 205.564 282.886C205.042 285.456 203.361 287.987 201.711 290.398Z" fill="#FCB38F"/>
<path d="M182.582 138.482C162.416 177.437 157.592 195.04 160.416 208.976C163.147 222.482 198.167 262.181 203.606 274.85C203.719 274.824 207.39 273.982 208.356 270.971C205.735 260.257 201.252 227.005 189.752 211.05C185.129 193.37 223.92 168.995 214.673 137.442C205.186 136.858 195.667 137.063 186.213 138.054C185.013 138.181 183.803 138.323 182.582 138.482Z" fill="#FED337"/>
<path d="M172.463 80.0133C175.366 119.171 167.37 118.841 160.403 143.47C167.61 140.968 175.31 139.419 182.57 138.482C183.801 138.324 185.011 138.182 186.198 138.055C195.652 137.064 205.171 136.859 214.658 137.443C207.314 89.2044 225.712 61.9239 199.585 56.8995C190.542 55.427 180.29 59.8471 180.29 59.8471C173.067 63.8001 171.658 69.1596 172.463 80.0133Z" fill="#00BCF8"/>
<path d="M154.457 100.596C154.241 106.206 153.37 117.194 154.172 117.865C154.974 118.535 177.267 114.513 190.398 104.67C187.987 102.393 165.026 105.14 165.026 105.14L166.567 102.464C166.567 102.464 159.096 98.3344 154.457 100.596Z" fill="#FFB088"/>
<path d="M196.365 97.3377L191.578 103.572C191.578 103.572 169.649 89.7263 166.968 86.5992C164.287 83.4722 159.735 80.6143 158.355 82.2451C156.975 83.8759 157.679 90.4414 158.751 91.5128C159.822 92.5841 162.683 92.6739 165.802 93.1198C174.188 99.3739 191.267 117.329 195.375 117.329C198.903 117.329 205.469 109.485 208.87 103.083C201.874 99.2147 196.365 97.3377 196.365 97.3377Z" fill="#FCB38F"/>
<path d="M203.894 58.1421C218.759 68.5946 191.634 99.3656 191.634 99.3656C195.835 100.725 202.932 103.523 206.505 105.787C209.825 107.891 213.3 110.352 216.306 112.885C230.181 77.722 216.724 62.7522 203.894 58.1421Z" fill="url(#paint12_linear)"/>
<path d="M189.707 102.39L191.57 103.572C196.94 102.875 199.735 108.932 199.735 108.932L202.213 108.404C201.878 107.536 200.561 105.393 198.708 103.269C200.112 103.604 202.682 107.156 202.682 107.156L203.239 106.892C202.987 106.029 202.597 105.212 202.086 104.472C201.163 103.084 199.899 101.956 198.415 101.197C196.94 100.45 195.257 100.217 193.634 100.537C192.202 100.851 190.859 101.484 189.707 102.39Z" fill="#E89D7F"/>
<path d="M186.404 48.4173C186.404 54.6213 182.38 58.1811 180.3 59.8462C183.852 66.4803 196.579 66.8154 199.596 56.8986C196.448 54.2861 192.685 50.3146 196.711 43.2451C193.743 45.6227 189.708 47.871 186.404 48.4173Z" fill="url(#paint13_linear)"/>
<path d="M188.237 30.8135C183.857 33.9063 178.381 43.0446 181.574 47.119C182.614 48.4385 184.366 48.7578 186.403 48.4174C189.699 47.8711 193.742 45.6228 196.711 43.2399C200.732 36.173 195.71 36.0147 194.504 39.1576C195.032 33.6556 192.491 28.7183 188.242 30.8109L188.237 30.8135Z" fill="#FCAD8E"/>
<path d="M276.443 300.586C277.436 300.684 278.429 300.792 279.421 300.912C282.444 301.279 285.461 301.751 288.472 302.328C291.214 302.853 297.926 303.444 298.732 305.921C299.273 307.583 294.354 307.566 293.267 308.086C291.533 308.917 289.783 309.657 288.019 310.307C284.125 311.74 280.178 312.663 276.208 313.314C269.136 314.473 261.993 314.711 254.912 313.604C250.554 312.922 246.14 311.65 241.923 309.622C239.749 308.581 237.62 307.324 235.551 305.86C234.708 305.261 230.332 302.676 232.405 300.644C232.768 300.289 233.272 300.269 233.687 300.262C241.207 300.131 233.822 293.131 241.311 292.704C248.049 292.32 269.712 299.926 276.443 300.586Z" fill="#DDD2DF"/>
<path d="M259.462 275.891C259.462 275.891 242.302 257.507 249.133 250.743C251.621 250.92 253.407 251.552 254.676 252.309C254.989 252.502 255.351 252.601 255.719 252.595C256.087 252.589 256.445 252.478 256.752 252.275C257.058 252.072 257.3 251.785 257.449 251.449C257.598 251.112 257.647 250.74 257.591 250.376C256.904 246.069 254.814 242.109 251.645 239.11C243.932 231.714 253.092 220.796 257.14 225.255C261.187 229.715 264.068 234.632 267.472 232.142C270.875 229.651 252.726 217.49 257.311 209.536C261.895 201.581 271.937 204.817 274.761 213.305C277.584 221.794 274.63 235.478 280.158 233.091C285.685 230.704 279.758 223.323 285.923 219.661C292.089 215.998 296.912 223.467 293.463 229.526C290.014 235.585 278.439 237.743 281.049 242.245C283.659 246.747 288.317 238.442 293.762 241.409C299.207 244.376 289.299 250.471 278.317 254.903C267.335 259.335 275.265 262.479 281.461 260.239C287.657 257.998 288.466 269.271 279.172 270.846C269.877 272.421 263.794 270.739 259.462 275.891Z" fill="#1BA46A"/>
<path d="M258.181 273.885C255.235 263.284 259.628 258.828 264.286 254.109C269.594 248.727 275.61 242.626 271.483 225.532C267.82 210.411 261.673 208.668 261.612 208.653L261.85 207.67C262.125 207.737 268.647 209.477 272.466 225.294C276.721 242.934 270.497 249.249 265.006 254.82C260.373 259.518 256.371 263.577 259.161 273.616L258.181 273.885Z" fill="#008950"/>
<path d="M230.09 118.969C230.09 118.969 227.743 130.043 221.006 142.38C214.269 154.718 228.191 159.66 228.512 166.842C228.832 174.024 217.056 169.656 215.521 186.658C213.986 203.66 229.965 201.166 230.224 211.16C230.484 221.153 206.388 216.486 213.598 240.981C220.808 265.477 233.438 252.113 234.964 269.591L236.466 287.072L238.908 284.02C238.908 284.02 235.496 268.758 239.943 264.665C244.39 260.571 269.246 253.148 270.634 230.954C272.023 208.76 254.475 207.005 254.558 200.983C254.64 194.961 267.832 187.952 260.052 170.734C252.271 153.515 240.886 157.126 240.566 149.944C240.245 142.762 246.353 133.687 230.09 118.969Z" fill="#2EB67D"/>
<path d="M256.105 264.265C253.946 270.894 252.915 277.838 253.053 284.808L243.957 286.682C238.389 275.312 232.687 259.998 230.959 242.667C227.275 205.733 249.072 198.761 249.072 198.761C249.072 198.761 248.05 208.395 248.025 216.581C248.001 224.767 262.21 245.646 256.105 264.265Z" fill="#1BA46A"/>
<path d="M267.07 172.077C267.07 172.077 279.923 179.003 277.585 192.162C275.247 205.321 263.328 214.139 265.303 225.515C267.277 236.891 269.509 236.217 268.471 248.206C266.945 265.95 249.339 265.993 251.988 276.572C254.638 287.152 252.748 290.183 252.748 290.183L250.019 289.972C250.019 289.972 251.686 285.232 247.696 276.236C243.707 267.241 233.066 263.67 235.099 243.921C237.132 224.172 257.348 209.224 255.05 195.284C253.096 183.462 267.07 172.077 267.07 172.077Z" fill="#2EB67D"/>
<path d="M224.495 275.497L233.417 300.801H260.18L270.149 275.497H224.495Z" fill="#963298"/>
<defs>
<linearGradient id="paint0_linear" x1="23.6586" y1="210.223" x2="66.8464" y2="207.475" gradientUnits="userSpaceOnUse">
<stop stop-color="#963298"/>
<stop offset="1" stop-color="#4A154B"/>
</linearGradient>
<linearGradient id="paint1_linear" x1="4.73211" y1="192.648" x2="45.274" y2="195.781" gradientUnits="userSpaceOnUse">
<stop stop-color="#963298"/>
<stop offset="1" stop-color="#4A154B"/>
</linearGradient>
<linearGradient id="paint2_linear" x1="6.42144" y1="38.1919" x2="107.139" y2="103.084" gradientUnits="userSpaceOnUse">
<stop stop-color="#FED337"/>
<stop offset="1" stop-color="#FDBB00"/>
</linearGradient>
<linearGradient id="paint3_linear" x1="12.0004" y1="13" x2="102.5" y2="193" gradientUnits="userSpaceOnUse">
<stop stop-color="white"/>
<stop offset="1" stop-color="#ECECEC"/>
</linearGradient>
<linearGradient id="paint4_linear" x1="-4.9997" y1="7.49998" x2="43.0004" y2="202" gradientUnits="userSpaceOnUse">
<stop stop-color="white"/>
<stop offset="1" stop-color="#ECECEC"/>
</linearGradient>
<linearGradient id="paint5_linear" x1="65.9772" y1="74.0799" x2="60.2566" y2="93.4807" gradientUnits="userSpaceOnUse">
<stop stop-color="white"/>
<stop offset="1" stop-color="#EBEBEB"/>
</linearGradient>
<linearGradient id="paint6_linear" x1="-48080.7" y1="38039.2" x2="-49216.7" y2="38963.6" gradientUnits="userSpaceOnUse">
<stop stop-color="#E88E5C"/>
<stop offset="0.13" stop-color="#F0935F"/>
<stop offset="0.36" stop-color="#F79762"/>
<stop offset="1" stop-color="#F99863"/>
</linearGradient>
<linearGradient id="paint7_linear" x1="44.9125" y1="33.915" x2="44.9125" y2="50.9955" gradientUnits="userSpaceOnUse">
<stop stop-color="#FED337"/>
<stop offset="1" stop-color="#FDBB00"/>
</linearGradient>
<linearGradient id="paint8_linear" x1="31.1522" y1="31.0269" x2="31.1522" y2="51.0084" gradientUnits="userSpaceOnUse">
<stop stop-color="#FED337"/>
<stop offset="1" stop-color="#FDBB00"/>
</linearGradient>
<linearGradient id="paint9_linear" x1="-42.4999" y1="79" x2="34.7661" y2="103.388" gradientUnits="userSpaceOnUse">
<stop stop-color="#EBEBEB"/>
<stop offset="1" stop-color="#F5F5F5"/>
</linearGradient>
<linearGradient id="paint10_linear" x1="128.432" y1="166.962" x2="220.362" y2="200.76" gradientUnits="userSpaceOnUse">
<stop stop-color="#FED337"/>
<stop offset="1" stop-color="#FDBB00"/>
</linearGradient>
<linearGradient id="paint11_linear" x1="165.8" y1="60.7202" x2="165.8" y2="102.534" gradientUnits="userSpaceOnUse">
<stop stop-color="#00BCF8"/>
<stop offset="1" stop-color="#2191ED"/>
</linearGradient>
<linearGradient id="paint12_linear" x1="180.818" y1="137.895" x2="219.686" y2="58.1322" gradientUnits="userSpaceOnUse">
<stop stop-color="#00BCF8"/>
<stop offset="1" stop-color="#2191ED"/>
</linearGradient>
<linearGradient id="paint13_linear" x1="189.943" y1="53.0775" x2="174.102" y2="42.0576" gradientUnits="userSpaceOnUse">
<stop stop-color="#FCAD8E"/>
<stop offset="1" stop-color="#E09A7F"/>
</linearGradient>
</defs>
</svg>
