<svg width="465" height="293" viewBox="0 0 465 293" fill="none" xmlns="http://www.w3.org/2000/svg">
<path d="M313.168 270.777C319.923 270.935 326.675 271.111 333.423 271.305C353.975 271.898 374.488 272.661 394.961 273.595C413.6 274.445 459.238 275.402 464.719 279.41C468.394 282.099 434.954 282.071 427.56 282.913C415.769 284.257 403.876 285.454 391.88 286.506C365.406 288.825 338.564 290.318 311.571 291.371C263.492 293.247 214.921 293.633 166.781 291.84C137.147 290.737 107.138 288.68 78.4659 285.397C63.6804 283.713 49.2081 281.679 35.1397 279.31C29.4049 278.341 -0.34438 274.158 13.7524 270.871C16.219 270.296 19.642 270.264 22.4657 270.253C73.5983 270.04 23.3825 258.715 74.3028 258.023C120.117 257.403 267.409 269.708 313.168 270.777Z" fill="#DDD2DF"/>
<path d="M150.936 250.798L142.879 263.07C142.879 263.07 144.83 267.616 149.317 267.752L155.668 256.154C155.668 256.154 150.927 250.427 150.936 250.798Z" fill="#424242"/>
<path d="M152.06 260.875C152.06 260.875 149.436 263.948 150.801 265.957C152.167 267.967 154.274 268.464 157.63 269.264C161.941 270.298 166.009 278.473 158.215 274.873C157.064 274.337 150.743 271.244 148.665 267.528C147.689 265.713 149.016 262.884 149.787 262.231L152.06 260.875Z" fill="#424242"/>
<path d="M241.062 66.4009L243.726 65.006L246.428 63.055L248.866 62.177C248.954 62.1431 249.048 62.1321 249.141 62.1452C249.234 62.1583 249.321 62.1951 249.396 62.2519C249.47 62.3087 249.529 62.3837 249.566 62.4697C249.603 62.5556 249.618 62.6497 249.608 62.7428C249.54 63.4452 248.827 63.7183 247.988 64.2451C247.988 64.2451 250.583 63.4452 251.442 63.0257C252.572 62.7205 253.747 62.6116 254.914 62.7038C255.279 62.7319 255.634 62.8328 255.959 63.0003C256.284 63.1678 256.572 63.3987 256.807 63.6793C257.48 64.2353 256.222 66.2741 255.666 66.8789C255.065 67.502 254.412 68.0731 253.715 68.586C252.422 69.1982 251.093 69.7292 249.735 70.1761C248.554 70.5077 246.886 70.1273 246.184 70.1761C245.481 70.2248 241.862 70.8004 241.862 70.8004L241.062 66.4009Z" fill="#D88E92"/>
<path d="M245.338 74.6052C245.795 74.2881 246.137 73.8317 246.312 73.3042C246.488 72.7767 246.489 72.2064 246.314 71.6787C245.475 69.4253 242.412 64.9479 241.056 65.0747C236.178 65.5332 214.952 65.7868 202.436 69.9521C202.758 71.4056 190.438 78.2243 190.438 78.2243C193.481 83.7651 203.119 87.5305 214.278 86.2916C214.249 86.3111 235.964 81.8433 245.338 74.6052Z" fill="#015BA2"/>
<path d="M156.965 261.022C165.92 253.667 181.899 235.659 194.141 220.158C194.176 220.121 194.209 220.082 194.239 220.041L199.975 212.833C206.647 204.512 208.754 195.108 204.608 191.82L203.233 190.718C199.126 187.431 186.825 187.265 186.796 187.304C163.852 215.593 152.927 237.278 147.23 248.76C146.754 249.714 146.593 250.793 146.768 251.845C146.943 252.896 147.446 253.865 148.205 254.613C150.888 257.227 154.917 260.846 156.965 261.022Z" fill="url(#paint0_linear)"/>
<path d="M216.352 107.478C213.894 95.1184 199.925 93.821 189.487 94.7965L186.561 95.0794C178.416 96.4158 172.085 117.516 174.124 133.533C175.665 145.649 179.781 193.536 184.932 201.525C186.971 204.685 192.551 208.353 197.857 207.973C199.35 207.866 205.456 203.144 206.637 199.564C210.539 187.644 212.255 171.441 213.953 159.081C215.309 148.829 219.172 121.661 216.352 107.478Z" fill="url(#paint1_linear)"/>
<path d="M206.306 264.279L205.867 278.912C205.867 278.912 209.915 281.76 213.798 279.536L213.144 266.328C213.144 266.328 206.111 263.957 206.306 264.279Z" fill="#424242"/>
<path d="M212.538 272.278C212.538 272.278 211.914 276.268 214.119 277.263C216.323 278.258 218.391 277.585 221.649 276.521C225.864 275.156 233.609 279.984 225.083 280.999C223.825 281.145 216.811 281.818 213.094 279.74C211.29 278.765 210.978 275.595 211.29 274.639L212.538 272.278Z" fill="#424242"/>
<path d="M225.261 183.312C225.261 183.312 227.212 134.431 219.408 105.615C218.091 101.147 203.674 103.088 203.674 103.088C188.788 104.346 180.174 112.531 186.778 143.171C188.437 150.877 192.173 183.166 196.367 191.175C198.465 208.587 199.791 248.816 201.879 263.995C202.07 265.347 202.722 266.591 203.724 267.517C204.727 268.443 206.018 268.994 207.381 269.077C211.146 269.321 213.78 269.624 215.37 268.58C217.272 258.279 226.373 200.988 225.261 183.312Z" fill="url(#paint2_linear)"/>
<path d="M208.667 40.0037C216.841 53.6606 221.455 75.853 223.855 100.884C223.855 101.362 225.435 112.59 223.084 114.931C220.158 117.858 215.076 116.775 203.145 116.882C192.503 116.989 184.153 110.551 182.065 106.015L181.938 105.693C181.473 104.391 181.303 103.001 181.441 101.625C182.26 91.9583 182.416 82.7204 184.279 74.6239C190.513 37.448 195.322 32.7265 195.732 32.8241C197.536 31.4877 196.883 30.9999 200.024 31.556C203.594 32.1998 207.057 37.3212 208.667 40.0037Z" fill="#D2D2D2"/>
<path d="M196.179 11.2086C196.179 11.2086 192.54 23.0511 191.418 26.475C191.292 26.8457 193.984 29.4015 196.598 31.0695C197.944 31.9085 202.627 33.2742 202.588 32.9328C201.895 26.4165 205.212 19.8807 205.212 19.8807L196.071 11.3842" fill="#FFBE9D"/>
<path d="M202.567 32.8635C202.567 26.796 202.899 26.8643 202.899 26.8643C202.899 26.8643 197.836 21.5284 197.817 21.782C196.51 26.0449 196.695 27.6934 202.567 32.8635Z" fill="#D88E92"/>
<path d="M253.141 68.0783C254.196 67.8914 255.241 67.6505 256.272 67.3564C256.643 67.1613 258.808 65.3079 259.315 65.0152C259.823 64.7226 260.857 64.4105 260.447 65.5518C260.037 66.6931 257.579 68.9758 257.579 68.9758L253.141 68.0783Z" fill="#C07FAF"/>
<path d="M246.602 70.2258C246.524 69.9429 246.407 69.4551 247.226 68.6845C248.046 67.9138 250.484 65.1337 251.304 64.724C252.688 64.144 254.117 63.6775 255.576 63.329C256.132 63.2608 256.298 63.7876 256.152 64.2168C255.756 64.8323 255.238 65.3602 254.63 65.7678C254.298 65.9795 254.045 66.2953 253.911 66.6659C253.777 67.0364 253.769 67.4409 253.889 67.8163C253.889 67.8163 255.84 67.9138 257.332 67.9626C257.332 67.9626 259.069 66.3726 260.083 65.6702C261.098 64.9679 261.917 64.4119 262.327 64.8216C262.736 65.2313 259.751 68.2748 259.4 68.7235C258.832 69.4893 258.213 70.2161 257.547 70.8989C256.895 71.3271 256.161 71.6129 255.391 71.7378C253.183 72.3382 250.899 72.6142 248.611 72.5572C247.766 71.95 247.078 71.151 246.602 70.2258Z" fill="#DBA0C8"/>
<path d="M250.048 68.177L252.799 71.5619C252.905 71.6905 253.058 71.7719 253.225 71.7883C253.391 71.8048 253.557 71.755 253.687 71.6497L266.651 61.0949C266.722 61.0354 266.78 60.9608 266.82 60.8765C266.859 60.7922 266.88 60.7003 266.88 60.6072C266.88 60.5141 266.859 60.4221 266.82 60.3378C266.78 60.2535 266.722 60.1789 266.651 60.1194L263.042 57.349C262.93 57.262 262.793 57.2148 262.651 57.2148C262.51 57.2148 262.373 57.262 262.261 57.349L250.136 67.2893C250.071 67.3413 250.017 67.4057 249.978 67.4787C249.938 67.5518 249.914 67.632 249.905 67.7147C249.897 67.7973 249.906 67.8808 249.93 67.9602C249.955 68.0396 249.995 68.1133 250.048 68.177Z" fill="#424242"/>
<path d="M251.637 66.5963L254.905 69.7276L265.723 60.8213L262.055 58.0607L251.637 66.5963Z" fill="#999999"/>
<path d="M246.602 70.2258C246.524 69.9429 246.407 69.4551 247.226 68.6845C248.046 67.9138 250.484 65.1337 251.304 64.724C252.688 64.144 254.117 63.6775 255.576 63.329C256.132 63.2608 256.298 63.7876 256.152 64.2168C255.756 64.8323 255.238 65.3602 254.63 65.7678C254.298 65.9795 254.045 66.2953 253.911 66.6659C253.777 67.0364 253.769 67.4409 253.889 67.8163C253.889 67.8163 255.84 67.9138 257.332 67.9626C257.332 67.9626 259.069 66.3726 260.083 65.6702C261.098 64.9679 261.917 64.4119 262.327 64.8216C262.736 65.2313 259.751 68.2748 259.4 68.7235C258.832 69.4893 258.213 70.2161 257.547 70.8989C256.895 71.3271 256.161 71.6129 255.391 71.7378C253.183 72.3382 250.899 72.6142 248.611 72.5572C247.766 71.95 247.078 71.151 246.602 70.2258Z" fill="#FFBE9D"/>
<path d="M223.39 83.0921C225.926 101.783 231.008 112.357 223.702 115.722C214.669 119.917 168.469 122.024 172.001 111.128C173.55 106.276 174.814 101.338 175.786 96.3393C175.786 96.3393 174.81 75.6101 177.151 58.9975C179.015 45.7113 180.595 31.1375 191.364 26.2601C192.076 26.5625 192.34 29.1866 200.144 32.4447C200.905 32.7569 202.28 33.0982 202.699 31.8496C214.103 44.5798 217.644 59.6804 223.39 83.0921Z" fill="#00BCF8"/>
<path d="M185.413 42.5019C186.515 40.2875 187.871 37.6732 190.359 36.5709C197.421 33.4688 202.064 41.0581 202.825 49.5644C204.776 72.4787 208.493 77.4927 210.366 79.2485C212.688 81.4239 206.649 93.7541 205.176 94.0955C203.703 94.437 199.967 93.7541 197.519 91.4324C193.217 87.3549 190.515 81.4336 188.369 76.1172C185.311 68.7501 183.822 60.8264 183.998 52.8518C184.076 49.6034 183.911 45.5259 185.413 42.5019Z" fill="url(#paint3_linear)"/>
<path d="M249.724 76.8783C250.114 76.4823 250.365 75.9706 250.439 75.42C250.513 74.8694 250.406 74.3097 250.134 73.825C248.915 71.7569 245.14 67.8842 243.784 68.2647C239.082 69.5816 218.226 73.6006 206.657 79.9706C207.222 81.346 196.316 90.2425 196.316 90.2425C200.296 95.1199 210.481 97.1392 221.211 93.9396C221.25 93.9201 241.833 85.6577 249.724 76.8783Z" fill="url(#paint4_linear)"/>
<path d="M212.957 10.4961C217.834 9.02309 218.81 6.4478 217.981 2.76045C217.561 0.926526 214.342 -2.46818 213.757 3.06285C213.68 3.72159 213.412 4.34334 212.985 4.85128C212.559 5.35923 211.993 5.73112 211.357 5.92103L209.406 6.55506C210.626 7.83295 211.825 9.14015 212.957 10.4961Z" fill="#424242"/>
<path d="M193.022 13.5682C193.734 7.44208 200.035 2.67193 204.601 3.19869C209.166 3.72546 212.463 5.06189 212.668 11.2562C212.766 14.5534 212.668 17.4896 211.927 19.7235C211.927 20.5722 211.927 22.1427 212.687 22.4452C213.663 22.8646 213.458 23.4206 212.873 23.5084C212.108 23.381 211.366 23.1445 210.668 22.8061C208.269 27.6835 205.284 29.4882 203.186 28.8248C196.65 26.7665 192.31 19.6845 193.022 13.5682Z" fill="#FFBE9D"/>
<path d="M216.434 3.91126C217.175 2.17489 216.58 -2.45869 212.844 1.65788C212.395 2.14601 211.814 2.49204 211.17 2.65326C210.527 2.81448 209.851 2.78382 209.225 2.56508C206.456 1.58587 203.632 0.768328 200.768 0.116591C198.556 0.185507 196.434 1.00419 194.749 2.43826C193.89 3.11135 190.398 6.79868 190.067 8.21315C189.793 9.35447 191.374 16.9048 192.115 19.7337C192.147 19.8533 192.209 19.9625 192.296 20.0507C192.383 20.1388 192.491 20.2028 192.611 20.2362C192.73 20.2697 192.856 20.2716 192.976 20.2416C193.096 20.2116 193.206 20.1509 193.295 20.0654C194.604 18.7434 195.795 17.3106 196.856 15.783C195.929 15.2464 194.69 14.2417 196.68 10.7592C198.222 8.03754 200.582 11.6761 200.582 11.6761C201.195 11.1415 201.585 10.3967 201.675 9.58862C201.997 6.81823 203.821 4.71117 207.372 6.05735C212.659 8.13514 214.873 7.54984 216.434 3.91126Z" fill="#023A4C"/>
<path d="M4.92621 248.31L0 258.982C0 258.982 1.61931 263.528 5.96999 263.928L10.1549 253.275C10.1549 253.275 4.94572 247.949 4.92621 248.31Z" fill="#00414F"/>
<path d="M8.49502 257.011C8.49502 257.011 6.31967 260.523 7.11957 262.747C7.91947 264.971 9.79243 265.947 12.7482 267.498C16.5721 269.517 18.4645 278.228 11.958 272.941C10.9825 272.16 5.76365 267.722 4.69061 263.713C4.1736 261.762 6.14411 259.411 7.02205 258.982L8.49502 257.011Z" fill="#00414F"/>
<path d="M68.8536 33.7418C68.8536 33.7418 45.445 40.4981 48.9581 45.9197L59.1885 60.2921C59.2049 60.3174 59.2232 60.3413 59.2434 60.3633C67.0857 72.8177 83.3799 85.1341 86.7707 86.5264C88.6432 87.2912 95.0066 79.1844 90.5181 73.3509C86.1696 68.1134 72.6218 41.3764 68.8536 33.7418Z" fill="url(#paint5_linear)"/>
<path d="M72.7114 34.5605C78.0131 39.6852 82.1949 45.8533 84.9928 52.6754C86.8072 57.2504 88.807 67.9125 89.5679 75.7945C90.1922 82.2523 95.5476 96.9626 98.2985 103.011C101.049 109.059 103.683 117.35 103.771 123.155C103.859 128.959 73.9308 123.437 73.9308 123.437C73.9308 123.437 59.435 122.813 57.8157 117.185C56.1963 111.556 63.6686 31.5853 63.6686 31.5853C63.6686 31.5853 69.502 31.9657 72.7114 34.5605Z" fill="url(#paint6_linear)"/>
<path d="M80.1957 259.402L81.6004 271.108C81.6004 271.108 85.3658 274.122 89.2775 272.181L87.2485 260.914C87.2485 260.914 79.9908 259.08 80.1957 259.402Z" fill="#00414F"/>
<path d="M87.796 264.943C87.796 264.943 87.7959 269.069 89.6201 270.542C91.4443 272.015 93.5806 271.869 96.9168 271.635C101.228 271.342 107.394 277.761 99.0921 276.688C97.863 276.522 91.0834 275.488 88.0691 272.639C86.5961 271.244 87.0448 268.211 87.5716 267.391L87.796 264.943Z" fill="#00414F"/>
<path d="M11.083 259.05C19.2381 252.387 51.0781 212.509 51.0781 212.509C57.1554 204.959 57.5652 198.853 53.8486 195.868L52.5999 194.892C48.8736 191.897 37.7042 191.722 37.6749 191.751C23.2612 209.225 11.0599 228.412 1.34768 248.876C1.08177 249.41 0.958227 250.005 0.988985 250.601C1.01974 251.197 1.20376 251.776 1.52326 252.28C3.13282 254.836 6.64457 259.352 11.083 259.05Z" fill="url(#paint7_linear)"/>
<path d="M90.926 131.925C87.8825 120.015 86.2144 110.543 79.5713 105.353L42.7661 110.991C39.2348 126.199 53.555 138.383 63.7976 165.502C65.5633 170.174 70.3042 189.45 72.9282 200.102C75.4938 210.511 84.6341 213.544 88.9848 211.867C96.1839 209.106 96.4473 201.322 96.5936 199.829C98.1154 184.329 93.5793 142.304 90.926 131.925Z" fill="url(#paint8_linear)"/>
<path d="M89.3238 263.616C95.9864 248.691 97.7716 204.462 96.523 195.956C96.523 195.956 72.9648 194.385 72.9648 194.424C72.9648 209.057 75.15 247.257 77.5497 259.87C77.6869 260.564 78.0154 261.205 78.4981 261.723C78.9807 262.24 79.5982 262.612 80.281 262.796C83.0514 263.557 87.6167 264.601 89.3238 263.616Z" fill="url(#paint9_linear)"/>
<path d="M65.1827 112.912C62.8122 100.796 21.1686 88.5243 27.9287 140.03C29.4797 151.863 35.5278 196.413 40.6101 204.412C42.6293 207.573 52.0916 211.182 52.9403 209.953C54.4833 207.939 55.7924 205.756 56.8422 203.447C61.3685 193.048 60.5101 174.972 62.305 163.032C63.8267 153.102 67.9043 126.851 65.1827 112.912Z" fill="#4A154B"/>
<path d="M61.5521 39.8476C59.315 39.3295 57.2593 38.2174 55.6016 36.6285L55.7284 38.5209L59.9035 46.5687L63.5518 39.9842C62.8822 40.0151 62.2112 39.9693 61.5521 39.8476Z" fill="#C080B1"/>
<path d="M128.606 83.472L128.621 81.2326C128.594 80.0967 128.146 79.0179 127.375 78.2288C126.605 77.4397 125.572 77.0035 124.501 77.0142C96.8464 76.3556 88.3415 72.5818 88.3415 72.5818C71.1462 68.9015 81.0527 87.5756 90.4329 87.328C90.4329 87.328 120.812 88.2126 125.183 87.5058C126.113 87.3764 126.969 86.8989 127.597 86.1593C128.224 85.4197 128.582 84.4667 128.606 83.472Z" fill="url(#paint10_linear)"/>
<path d="M64.2838 33.2047C66.1665 33.2047 73.6875 39.3991 77.6967 51.5928C81.1305 62.0695 83.5497 89.4808 84.2325 108.571C84.4276 113.624 72.7803 113.897 59.7185 113.839C47.4566 113.839 28.6198 113.234 28.4345 108.669C28.0443 99.3429 36.814 62.8206 38.2479 54.9582C47.0273 35.9068 54.5971 34.2583 55.4068 33.9461L64.2838 33.2047Z" fill="white"/>
<path d="M57.3027 33.0101L58.1904 31.2054C58.1904 31.2054 53.8788 30.4348 47.6844 33.5856C44.5191 35.151 41.2614 36.5225 37.9295 37.6925C34.6421 37.9559 31.1596 38.4338 29.8622 39.4581C23.3557 46.7353 31.3352 60.2068 31.3352 69.1325C31.3352 78.0582 30.9548 77.7363 25.5896 86.3304C13.3374 107.167 6.07979 126.013 9.89396 128.989C13.7081 131.964 22.5265 131.466 31.9107 131.3C41.295 131.135 38.4173 127.33 38.4173 124.852C38.4173 122.375 37.0028 117.702 37.8417 109.479C38.2514 105.518 41.2267 98.6508 44.9238 92.9442C50.8255 83.7941 53.1862 77.5119 54.2592 73.8831C57.4296 63.0844 52.3082 47.9741 52.3082 47.9741C51.1962 45.0476 50.9718 42.9894 52.0936 38.2192C52.269 37.5205 52.5698 36.8595 52.9813 36.2682C53.9471 34.6649 55.4956 33.4974 57.3027 33.0101Z" fill="url(#paint11_linear)"/>
<path d="M95.1602 68.2521L99.2201 72.0684L112.661 61.2138L108.104 57.8493L95.1602 68.2521Z" fill="#999999"/>
<path d="M87.5723 72.3049C87.4752 71.9366 87.3295 71.3015 88.3494 70.2983C89.3692 69.295 92.4045 65.6755 93.4244 65.1421C95.147 64.387 96.9255 63.7796 98.7422 63.326C99.4343 63.2371 99.6407 63.9229 99.4586 64.4817C98.9658 65.2831 98.3212 65.9703 97.5646 66.501C97.1509 66.7767 96.8361 67.1878 96.6692 67.6702C96.5023 68.1526 96.4926 68.6793 96.6418 69.168C96.6418 69.168 99.07 69.295 100.928 69.3585C100.928 69.3585 103.089 67.2884 104.351 66.374C105.614 65.4596 106.634 64.7357 107.144 65.2691C107.654 65.8025 103.939 69.7649 103.502 70.3491C102.794 71.3461 102.023 72.2922 101.195 73.1812C100.384 73.7386 99.4694 74.1108 98.5115 74.2733C95.7632 75.055 92.9207 75.4144 90.0734 75.3402C89.0219 74.5496 88.1647 73.5094 87.5723 72.3049Z" fill="#FFBE9D"/>
<path d="M26.5847 44.8007C27.687 42.5863 29.043 39.972 31.5305 38.8697C38.593 35.7676 43.2364 43.3569 43.9972 51.8632C45.9482 74.7775 49.6648 79.7915 51.5378 81.5473C53.8594 83.7227 47.8211 96.0529 46.3481 96.3943C44.8751 96.7358 41.139 96.0529 38.6906 93.7312C34.3887 89.6537 31.6865 83.7324 29.5405 78.416C26.4824 71.0489 24.994 63.1252 25.1703 55.1506C25.2483 51.9022 25.0825 47.8247 26.5847 44.8007Z" fill="url(#paint12_linear)"/>
<path d="M90.8964 79.177C91.286 78.7811 91.5366 78.2693 91.6105 77.7187C91.6844 77.1681 91.5775 76.6084 91.306 76.1238C90.0867 74.0557 86.3115 70.183 84.9556 70.5634C80.2537 71.8804 59.3978 75.8994 47.8285 82.2693C48.3943 83.6448 37.4883 92.5413 37.4883 92.5413C41.4683 97.4187 51.6524 99.438 62.3828 96.2383C62.4218 96.2188 83.0046 87.9564 90.8964 79.177Z" fill="url(#paint13_linear)"/>
<path d="M67.307 36.0234C67.307 36.0234 60.4201 40.5301 55.2305 34.6577L56.6352 29.8876L56.7425 25.0979L68.9849 29.0486C68.9849 29.0486 66.9266 30.8338 67.307 36.0234Z" fill="#FBB9A7"/>
<path d="M60.5558 30.5035C61.4728 32.0838 62.7214 34.942 64.4578 35.6833C64.8905 35.89 65.3622 36.0021 65.8416 36.0122C66.321 36.0223 66.797 35.9301 67.238 35.7419C67.6007 33.4597 68.1855 31.2184 68.9841 29.0499L58.0586 25.2065C58.663 27.0709 59.5022 28.8509 60.5558 30.5035Z" fill="#CC7F7F"/>
<path d="M129.997 79.0804C129.997 79.0804 126.204 79.2841 125.766 79.6213C125.626 79.7255 124.348 80.0494 124.575 82.5924C124.574 83.0619 124.692 83.5231 124.917 83.9279C125.141 84.3327 125.464 84.6662 125.851 84.8936C126.347 85.0719 128.132 84.6826 129.345 84.5929C129.488 85.0413 129.776 85.4218 130.158 85.6672C131.133 86.3631 132.281 86.7358 133.457 86.7382C135.111 86.8789 137.34 87.2568 138.855 86.5546C140.371 85.8525 139.781 84.9921 139.781 84.9921C139.978 84.9691 140.165 84.8923 140.325 84.7692C140.485 84.6461 140.613 84.481 140.694 84.2901C140.774 84.0728 140.81 83.84 140.799 83.6071C140.788 83.3741 140.731 83.1463 140.63 82.9386C141.029 82.6923 141.35 82.3284 141.557 81.8912C141.649 81.4461 141.591 80.9809 141.394 80.5763C141.394 80.5763 142.415 80.4177 142.469 79.5203C142.522 78.6229 140.952 77.8842 140.472 77.7739C139.993 77.6636 139.051 77.4801 139.051 77.4801C139.051 77.4801 140.035 75.9795 139.429 75.6897C139.106 75.574 137.226 76.0214 135.779 75.5332C135.129 75.3767 134.453 75.3896 133.808 75.5708C133.164 75.7519 132.57 76.0959 132.078 76.5733C131.302 77.3276 130.604 78.1681 129.997 79.0804Z" fill="#FBB9A7"/>
<path d="M72.7807 19.3815C73.9056 18.6063 74.8396 17.5856 75.5121 16.3965C75.9219 15.3457 75.9219 14.1794 75.5121 13.1286C75.5121 13.1286 77.941 11.6751 76.5656 9.83145C75.1901 7.98778 66.9375 8.12434 66.9375 8.12434L72.7807 19.3815Z" fill="#424242"/>
<path d="M71.6803 12.0663C75.5822 24.7477 71.0755 30.6982 69.0269 31.225C64.725 32.3468 56.843 27.323 54.9213 21.9188C52.9996 16.5146 55.0677 10.8274 59.5354 9.2374C64.0031 7.64735 70.0122 6.56458 71.6803 12.0663Z" fill="#FBB9A7"/>
<path d="M77.2305 4.8381C76.06 3.30658 74.4601 1.22874 69.7485 4.48688C68.6072 5.26727 67.3586 3.28703 63.8956 3.02364C58.5694 2.62369 58.4133 5.64774 55.1162 6.34033C52.8921 6.80857 52.9896 8.62299 50.5899 11.6568C49.0389 13.6077 51.2825 15.5001 50.0729 17.4024C48.6584 19.6362 52.9994 20.6703 52.8335 22.3481C52.5311 26.3378 55.8283 28.201 56.7355 29.8399C57.0184 30.3276 57.4183 28.3083 57.5647 27.7718C58.1792 25.3624 56.8623 22.8944 56.9013 22.7578C55.8478 22.475 53.37 21.2848 54.6284 17.3829C55.9746 13.1785 58.1499 18.2316 58.1499 18.2316C58.6093 17.1675 58.8259 16.0145 58.784 14.8563C58.3646 12.0469 61.3496 11.3056 65.1442 12.1737C66.783 12.5444 67.5146 10.5056 68.8218 10.9446C70.9874 11.686 73.1237 10.6227 74.4504 11.7641C75.1625 12.3689 76.3331 11.2178 77.1623 10.9349C80.118 9.93016 79.201 7.40364 77.2305 4.8381Z" fill="#424242"/>
<path d="M73.0021 24.3482C72.2831 23.6174 71.3797 23.0949 70.3878 22.8361C69.1587 22.6996 65.8518 21.7436 63.93 23.5288C62.0083 25.3139 61.3157 24.6311 60.7694 23.5288C60.2232 22.4264 59.2574 16.1053 58.4283 15.4127C57.5991 14.7201 58.1551 20.6413 58.1551 20.6413C58.5051 21.4336 58.7574 22.2657 58.9063 23.1191C59.162 24.1525 59.2801 25.2152 59.2574 26.2796C59.0771 27.5211 59.3433 28.7863 60.0086 29.8499C60.7362 30.5192 61.5948 31.0304 62.53 31.3511C63.4652 31.6718 64.4568 31.7951 65.442 31.7131C68.4661 31.5766 69.4318 31.5765 70.6707 29.9865C72.0874 28.4402 72.913 26.4435 73.0021 24.3482Z" fill="#424242"/>
<defs>
<linearGradient id="paint0_linear" x1="176.717" y1="187.3" x2="176.717" y2="261.022" gradientUnits="userSpaceOnUse">
<stop stop-color="#E01E5A"/>
<stop offset="1" stop-color="#E8505B"/>
</linearGradient>
<linearGradient id="paint1_linear" x1="128.763" y1="151.471" x2="208.266" y2="240.729" gradientUnits="userSpaceOnUse">
<stop stop-color="#E8505B"/>
<stop offset="1" stop-color="#E01E5A"/>
</linearGradient>
<linearGradient id="paint2_linear" x1="205.003" y1="102.668" x2="205.003" y2="269.314" gradientUnits="userSpaceOnUse">
<stop stop-color="#E01E5A"/>
<stop offset="1" stop-color="#E8505B"/>
</linearGradient>
<linearGradient id="paint3_linear" x1="197.438" y1="35.8625" x2="197.438" y2="94.1782" gradientUnits="userSpaceOnUse">
<stop stop-color="#00BCF8"/>
<stop offset="1" stop-color="#015BA2"/>
</linearGradient>
<linearGradient id="paint4_linear" x1="242.896" y1="68.5568" x2="201.925" y2="89.5298" gradientUnits="userSpaceOnUse">
<stop stop-color="#00BCF8"/>
<stop offset="1" stop-color="#015BA2"/>
</linearGradient>
<linearGradient id="paint5_linear" x1="96.1504" y1="66.7172" x2="46.5407" y2="50.889" gradientUnits="userSpaceOnUse">
<stop stop-color="#FED337"/>
<stop offset="1" stop-color="#FDBB00"/>
</linearGradient>
<linearGradient id="paint6_linear" x1="80.6786" y1="31.5853" x2="80.6786" y2="125.81" gradientUnits="userSpaceOnUse">
<stop stop-color="#FED337"/>
<stop offset="1" stop-color="#FDBB00"/>
</linearGradient>
<linearGradient id="paint7_linear" x1="28.609" y1="191.748" x2="28.609" y2="259.064" gradientUnits="userSpaceOnUse">
<stop stop-color="#4A154B"/>
<stop offset="1" stop-color="#963298"/>
</linearGradient>
<linearGradient id="paint8_linear" x1="69.5586" y1="105.353" x2="69.5586" y2="212.301" gradientUnits="userSpaceOnUse">
<stop stop-color="#4A154B"/>
<stop offset="1" stop-color="#963298"/>
</linearGradient>
<linearGradient id="paint9_linear" x1="84.9292" y1="194.423" x2="84.9292" y2="264.017" gradientUnits="userSpaceOnUse">
<stop stop-color="#963298"/>
<stop offset="1" stop-color="#4A154B"/>
</linearGradient>
<linearGradient id="paint10_linear" x1="126.931" y1="89.3079" x2="79.3764" y2="74.1355" gradientUnits="userSpaceOnUse">
<stop stop-color="#FED337"/>
<stop offset="1" stop-color="#FDBB00"/>
</linearGradient>
<linearGradient id="paint11_linear" x1="33.5327" y1="31.1223" x2="33.5327" y2="131.437" gradientUnits="userSpaceOnUse">
<stop stop-color="#FED337"/>
<stop offset="1" stop-color="#FDBB00"/>
</linearGradient>
<linearGradient id="paint12_linear" x1="10.3903" y1="81.3655" x2="82.0326" y2="54.568" gradientUnits="userSpaceOnUse">
<stop stop-color="#FED337"/>
<stop offset="1" stop-color="#FDBB00"/>
</linearGradient>
<linearGradient id="paint13_linear" x1="64.5336" y1="69.334" x2="61.7991" y2="106.522" gradientUnits="userSpaceOnUse">
<stop stop-color="#FED337"/>
<stop offset="1" stop-color="#FDBB00"/>
</linearGradient>
</defs>
</svg>
