<svg width="310" height="300" viewBox="0 0 310 300" fill="none" xmlns="http://www.w3.org/2000/svg">
<path d="M148.088 198.65C148.088 198.65 143.289 207.134 143.846 210.005C144.403 212.876 149.031 220.589 146.717 225.988C144.403 231.387 153.83 230.873 153.83 230.873C153.83 230.873 162.699 220.589 162.528 220.032C162.357 219.475 159.657 203.663 159.657 203.663L153.873 195.95L148.088 198.65Z" fill="#F08855"/>
<path d="M173.113 201.478H96.1122C92.8128 201.478 90.1133 198.778 90.1133 195.479V151.13C90.1133 147.83 92.8128 145.131 96.1122 145.131H173.113C176.412 145.131 179.111 147.83 179.111 151.13V195.479C179.111 198.778 176.412 201.478 173.113 201.478Z" fill="#A7A9D9"/>
<path d="M179.111 189.78V154.9C179.111 149.501 174.698 145.088 169.299 145.088H99.9258C94.5268 145.088 90.1133 149.501 90.1133 154.9V191.622C90.1133 197.021 94.5268 201.435 99.9258 201.435H169.299C169.813 201.435 170.327 201.392 170.841 201.306C170.327 200.278 170.027 199.549 170.027 199.378C177.954 195.864 179.111 189.78 179.111 189.78Z" fill="#A7A9D9"/>
<path d="M179.113 191.665V189.823C179.113 189.823 177.957 195.864 170.072 199.421C170.072 199.592 170.372 200.321 170.886 201.349C175.557 200.578 179.113 196.55 179.113 191.665Z" fill="#A7A9D9"/>
<path d="M117.666 154.344H98.5977V180.524H117.666V154.344Z" fill="#DDD2E0"/>
<path d="M166.213 160.128H126.92V161.842H166.213V160.128Z" fill="#4A154B"/>
<path d="M166.215 168.312H131.936V170.026H166.215V168.312Z" fill="#4A154B"/>
<path d="M166.215 176.411H125.551V178.125H166.215V176.411Z" fill="#4A154B"/>
<path d="M136.519 191.451H110.338V193.165H136.519V191.451Z" fill="#4A154B"/>
<path d="M150.788 164.199C150.788 164.199 142.132 163.342 147.317 184.424C152.502 205.506 156.872 208.677 155.415 216.518C153.959 224.317 151.088 241.671 160.6 251.783C167.413 258.982 171.998 260.91 174.055 261.424C174.955 261.638 175.769 262.195 176.283 263.01C178.897 266.866 185.881 277.964 185.41 286.191C184.853 296.303 205.078 301.788 216.347 299.474C227.617 297.16 224.146 289.662 224.146 289.662C224.146 289.662 203.921 252.083 203.321 245.441C202.764 238.8 203.621 212.79 204.778 208.762C205.935 204.734 208.806 194.022 203.621 188.537C198.436 183.053 179.068 161.971 179.068 161.971V193.465C179.068 193.465 179.197 202.121 172.555 202.121C169.384 202.121 165.785 188.837 165.485 186.823C165.185 184.809 161.2 159.571 150.788 164.199Z" fill="#FB9A67"/>
<path d="M182.411 200.578C181.854 196.55 179.155 189.78 179.155 189.78V191.622C179.155 196.507 175.555 200.578 170.885 201.306C172.17 203.877 174.87 208.162 177.226 208.848C180.483 209.833 182.968 204.649 182.411 200.578Z" fill="#F08854"/>
<path d="M148.689 174.354C148.689 174.354 149.075 176.325 150.789 177.097C152.503 177.611 157.302 176.454 157.859 175.083C158.416 173.712 158.116 172.426 158.116 172.426C157.388 168.313 156.402 163.513 155.031 161.757C153.702 160.043 146.804 161.799 146.547 163.385C146.29 164.927 148.689 174.354 148.689 174.354Z" fill="#FED4BE"/>
<path d="M289.492 67.7878H289.363C288.421 70.4016 286.664 71.7299 284.136 71.7299C282.25 71.7299 280.708 71.0443 279.551 69.6732C278.394 68.302 277.794 66.3737 277.794 63.9313C277.794 60.7605 278.608 58.2324 280.194 56.2184C281.822 54.2474 283.75 53.2618 286.021 53.2618C288.078 53.2618 289.363 54.076 289.878 55.6614H289.963L290.178 53.6046H294.805C294.205 59.475 293.863 63.2886 293.863 65.1311C293.863 67.0593 294.377 68.0449 295.448 68.0449C296.562 68.0449 297.462 67.3164 298.19 65.8596C298.919 64.4027 299.262 62.4745 299.262 60.1177C299.262 56.904 298.233 54.2474 296.177 52.1906C294.12 50.1338 291.249 49.1055 287.564 49.1055C283.622 49.1055 280.365 50.4766 277.751 53.219C275.137 55.9614 273.852 59.3036 273.852 63.2886C273.852 67.1022 275.009 70.1445 277.323 72.3298C279.637 74.5151 282.808 75.6292 286.878 75.6292C289.963 75.6292 292.834 75.0293 295.405 73.8724V77.8145C293.049 78.8001 290.006 79.3143 286.321 79.3143C281.222 79.3143 277.109 77.8574 273.895 74.9436C270.724 72.0299 269.096 68.1306 269.096 63.2029C269.096 58.1895 270.81 53.9903 274.195 50.5623C277.58 47.1344 281.993 45.4204 287.35 45.4204C292.32 45.4204 296.305 46.7487 299.39 49.4054C302.475 52.0621 303.975 55.5329 303.975 59.9035C303.975 63.46 303.032 66.3309 301.147 68.4734C299.262 70.6158 296.948 71.6871 294.205 71.6871C292.834 71.6871 291.72 71.3014 290.863 70.573C290.006 69.8874 289.535 68.9447 289.492 67.7878ZM286.75 56.8612C285.507 56.8612 284.521 57.5468 283.707 58.9608C282.936 60.3748 282.55 62.0031 282.55 63.8885C282.55 65.2168 282.807 66.2452 283.365 66.9736C283.879 67.7021 284.564 68.0877 285.421 68.0877C286.707 68.0877 287.735 67.4021 288.464 65.9881C289.192 64.6169 289.578 62.7316 289.578 60.4177C289.578 59.3036 289.321 58.4466 288.806 57.8039C288.292 57.204 287.607 56.8612 286.75 56.8612Z" fill="#E01E5A"/>
<path d="M195.264 22.9673L217.374 38.9073C218.659 39.8499 220.373 39.7642 221.616 38.7787L240.641 22.9673" fill="#4A154B"/>
<path d="M195.264 22.9673L196.978 52.1477H240.641V22.9673H195.264Z" fill="#FDBB00"/>
<path d="M35.4788 53.0474C36.5501 51.0763 42.9775 46.3629 45.2485 46.5343C46.8768 46.6628 49.0621 49.748 49.4477 52.8331C49.5763 53.7758 50.519 54.3757 51.4188 54.0758C55.4038 52.6617 62.174 47.6912 65.3877 44.2633C66.2875 43.2777 65.9876 41.7352 64.8307 41.1353C63.2881 40.2783 60.8885 36.7646 62.2168 34.665C63.5023 32.4368 68.987 27.5949 71.9437 27.6806C75.2431 27.8091 81.0706 33.7223 78.0711 39.3356C75.0717 44.906 57.2892 59.9033 48.6336 63.117C41.7777 66.2021 33.722 57.0324 35.4788 53.0474Z" fill="url(#paint0_linear)"/>
<path d="M39.2929 129.919C36.3791 129.662 34.2366 127.091 34.4937 124.177C34.708 121.735 36.5077 119.85 38.8215 119.464C38.0502 117.022 36.8933 114.793 35.3936 112.822C34.408 113.808 33.0797 114.451 31.58 114.451C28.6662 114.451 26.2667 112.094 26.2667 109.137C26.2667 108.152 26.5666 107.209 27.038 106.395C24.8098 105.495 22.4102 104.981 19.8821 104.981C19.8393 104.981 19.7964 104.981 19.7107 104.981C19.7964 105.367 19.8821 105.795 19.8821 106.224C19.8821 109.137 17.5254 111.537 14.5688 111.537C12.2549 111.537 10.3267 110.08 9.55541 108.023C7.11299 109.566 5.01338 111.665 3.42795 114.151C5.27047 114.965 6.55595 116.85 6.55595 118.993C6.55595 121.906 4.19924 124.306 1.24263 124.306C0.814138 124.306 0.428494 124.263 0.0428494 124.177C0.0428494 124.692 0 125.249 0 125.849C0 127.863 0.299946 129.791 0.771289 131.633C1.41403 131.333 2.14247 131.205 2.91376 131.205C5.82751 131.205 8.22708 133.561 8.22708 136.518C8.22708 138.275 7.37009 139.86 5.99891 140.803C7.67004 142.517 9.64111 143.931 11.8264 144.959C12.3835 142.388 14.783 140.589 17.4825 140.803C20.3963 141.06 22.5388 143.631 22.2817 146.545C24.8098 146.202 27.1665 145.388 29.309 144.188C28.3234 142.731 28.0235 140.803 28.7948 139.046C29.9517 136.347 33.0797 135.104 35.7792 136.304C36.122 136.432 36.4648 136.647 36.7219 136.861C37.9645 134.761 38.8644 132.405 39.3357 129.876C39.3786 129.919 39.3357 129.919 39.2929 129.919ZM19.7107 132.49C16.497 132.49 13.926 129.876 13.926 126.706C13.926 123.535 16.5399 120.921 19.7107 120.921C22.8816 120.921 25.4954 123.535 25.4954 126.706C25.4954 129.876 22.9244 132.49 19.7107 132.49Z" fill="#E01E5A"/>
<path d="M158.628 39.25L125.377 29.2661L142.003 3.51367L144.616 10.6695L158.628 39.25ZM128.419 28.1521L154.9 36.122L142.817 11.4408L141.531 7.92716L128.419 28.1521Z" fill="#2EB67D"/>
<path d="M141.832 11.3979C144.979 11.3979 147.531 8.84642 147.531 5.69897C147.531 2.55151 144.979 0 141.832 0C138.684 0 136.133 2.55151 136.133 5.69897C136.133 8.84642 138.684 11.3979 141.832 11.3979Z" fill="#2EB67D"/>
<path d="M156.828 43.3635C159.975 43.3635 162.527 40.812 162.527 37.6645C162.527 34.5171 159.975 31.9656 156.828 31.9656C153.68 31.9656 151.129 34.5171 151.129 37.6645C151.129 40.812 153.68 43.3635 156.828 43.3635Z" fill="#2EB67D"/>
<path d="M127.006 33.5939C129.704 33.5939 131.891 31.4069 131.891 28.709C131.891 26.0112 129.704 23.8242 127.006 23.8242C124.308 23.8242 122.121 26.0112 122.121 28.709C122.121 31.4069 124.308 33.5939 127.006 33.5939Z" fill="#2EB67D"/>
<path d="M126.921 141.36C126.45 141.36 126.064 140.974 126.064 140.503C126.107 131.933 126.15 118.864 126.064 118.05C125.422 111.537 119.466 110.251 114.624 110.337C107.382 110.466 85.5288 110.337 85.3146 110.337C72.2455 110.894 71.3457 101.382 71.3457 101.296V101.21V67.2735C71.3457 66.8021 71.7313 66.4165 72.2027 66.4165C72.674 66.4165 73.0597 66.8021 73.0597 67.2735V101.124C73.1025 101.724 74.0881 109.009 85.2717 108.537C85.5288 108.537 107.339 108.666 114.581 108.537C122.508 108.409 127.178 111.708 127.778 117.836C127.864 119.036 127.778 138.275 127.778 140.46C127.778 140.974 127.393 141.36 126.921 141.36Z" fill="#4A154B"/>
<path d="M139.988 141.36C139.517 141.36 139.131 140.975 139.131 140.503V48.0342C139.131 47.5629 139.517 47.1772 139.988 47.1772C140.459 47.1772 140.845 47.5629 140.845 48.0342V140.503C140.888 140.975 140.502 141.36 139.988 141.36Z" fill="#4A154B"/>
<path d="M150.787 141.36C150.315 141.36 149.93 140.974 149.93 140.503V122.506C149.93 122.378 150.058 110.809 160.556 110.723C171.997 109.566 241.242 110.68 244.627 110.723C245.098 110.723 245.484 111.108 245.484 111.623C245.484 112.094 245.098 112.48 244.627 112.48C244.627 112.48 171.869 111.323 160.685 112.48H160.599C151.729 112.522 151.644 122.121 151.644 122.506V140.503C151.644 140.974 151.258 141.36 150.787 141.36Z" fill="#4A154B"/>
<path d="M198.35 112.008C197.922 112.008 197.579 111.708 197.493 111.28C197.407 110.808 197.707 110.337 198.179 110.294C208.463 108.452 207.863 92.169 207.863 91.9976V61.4031C207.863 60.9318 208.248 60.5461 208.72 60.5461C209.191 60.5461 209.577 60.9318 209.577 61.4031V91.9547C209.619 92.6403 210.262 109.866 198.479 112.008C198.436 112.008 198.393 112.008 198.35 112.008Z" fill="#4A154B"/>
<path d="M208.719 95.1254C208.376 95.1254 208.076 94.954 207.947 94.6112C207.733 94.1828 207.947 93.6686 208.376 93.4543L259.667 69.6729C260.095 69.4587 260.609 69.6729 260.823 70.1014C261.038 70.5299 260.823 71.0441 260.395 71.2583L209.061 95.0397C208.976 95.0826 208.847 95.1254 208.719 95.1254Z" fill="#4A154B"/>
<path d="M99.7112 141.36C99.2398 141.36 98.8542 140.974 98.8542 140.503V134.804C98.8542 132.79 98.2115 131.162 96.926 129.919C93.8408 126.963 88.099 127.177 88.0133 127.177H45.9781C45.5067 127.177 45.1211 126.791 45.1211 126.32C45.1211 125.849 45.5067 125.463 45.9781 125.463H87.9705C88.1847 125.463 94.4836 125.206 98.0829 128.677C99.7112 130.262 100.568 132.319 100.568 134.804V140.503C100.611 140.974 100.183 141.36 99.7112 141.36Z" fill="#4A154B"/>
<path d="M32.5652 36.5078L30.0371 36.165C31.1083 27.7665 36.6359 20.525 44.4345 17.2684C48.2909 15.683 52.4902 15.0831 56.6466 15.6401L56.3038 18.1682C52.6187 17.6969 48.848 18.2111 45.42 19.6251C38.4784 22.5389 33.5508 29.0091 32.5652 36.5078Z" fill="url(#paint1_linear)"/>
<path d="M38.864 37.3219L36.3359 36.9791C37.1072 30.8088 41.1779 25.4954 46.9197 23.1387C49.7478 21.9818 52.8329 21.5533 55.8752 21.9389L55.5325 24.4671C52.9615 24.1243 50.3048 24.5099 47.9053 25.4954C43.0204 27.5094 39.5496 32.0514 38.864 37.3219Z" fill="url(#paint2_linear)"/>
<path d="M45.1629 38.0932L42.6348 37.7504C43.149 33.8511 45.7199 30.466 49.3621 28.9235C51.1618 28.195 53.1329 27.8951 55.0611 28.1522L54.7183 30.6803C53.2186 30.5089 51.7188 30.6803 50.3477 31.2802C47.5196 32.48 45.5485 35.0938 45.1629 38.0932Z" fill="url(#paint3_linear)"/>
<path d="M217.374 38.9073L240.641 22.9673H195.264L217.374 38.9073Z" fill="#FED337"/>
<path d="M293.518 147.145H268.537C267.723 147.145 267.037 146.459 267.037 145.645V143.717C267.037 142.903 267.723 142.217 268.537 142.217H293.518C294.332 142.217 295.018 142.903 295.018 143.717V145.645C295.018 146.502 294.332 147.145 293.518 147.145Z" fill="#963298"/>
<path d="M288.418 142.26H273.635V140.675C273.635 139.304 274.749 138.189 276.12 138.189H285.89C287.261 138.189 288.375 139.304 288.375 140.675V142.26H288.418Z" fill="#963298"/>
<path d="M282.377 138.147H279.678V101.853C279.678 101.382 280.063 101.039 280.492 101.039H281.52C281.992 101.039 282.334 101.425 282.334 101.853V138.147H282.377Z" fill="#963298"/>
<path d="M299.044 102.196L299.216 103.739L262.879 108.238L262.751 107.167C262.708 106.909 262.879 106.695 263.136 106.652L299.044 102.196Z" fill="#963298"/>
<path d="M263.137 137.933C268.922 137.933 273.592 133.262 273.592 127.477H252.682C252.682 133.262 257.395 137.933 263.137 137.933Z" fill="#963298"/>
<path d="M273.121 127.991C272.95 127.991 272.779 127.906 272.693 127.734L263.138 108.28L253.582 127.691C253.454 127.906 253.196 128.034 252.939 127.906C252.725 127.777 252.597 127.52 252.725 127.263L262.709 106.952C262.795 106.781 262.966 106.695 263.138 106.695C263.309 106.695 263.48 106.781 263.566 106.952L273.55 127.263C273.678 127.477 273.55 127.777 273.336 127.906C273.25 127.948 273.207 127.991 273.121 127.991Z" fill="#963298"/>
<path d="M298.918 133.476C304.703 133.476 309.373 128.806 309.373 123.021H288.463C288.463 128.806 293.133 133.476 298.918 133.476Z" fill="#963298"/>
<path d="M308.901 123.492C308.729 123.492 308.558 123.407 308.472 123.235L298.917 103.782L289.361 123.235C289.233 123.449 288.976 123.578 288.719 123.449C288.504 123.321 288.376 123.064 288.504 122.807L298.488 102.496C298.574 102.325 298.745 102.239 298.917 102.239C299.088 102.239 299.26 102.325 299.345 102.496L309.329 122.807C309.458 123.021 309.329 123.321 309.115 123.449C309.029 123.492 308.944 123.492 308.901 123.492Z" fill="#963298"/>
<defs>
<linearGradient id="paint0_linear" x1="47.7527" y1="5.32188" x2="90.2662" y2="10.6546" gradientUnits="userSpaceOnUse">
<stop stop-color="#00BCF8"/>
<stop offset="1" stop-color="#015BA2"/>
</linearGradient>
<linearGradient id="paint1_linear" x1="37.6652" y1="2.37234" x2="63.5356" y2="5.75639" gradientUnits="userSpaceOnUse">
<stop stop-color="#00BCF8"/>
<stop offset="1" stop-color="#015BA2"/>
</linearGradient>
<linearGradient id="paint2_linear" x1="41.9372" y1="12.1777" x2="60.9359" y2="14.6551" gradientUnits="userSpaceOnUse">
<stop stop-color="#00BCF8"/>
<stop offset="1" stop-color="#015BA2"/>
</linearGradient>
<linearGradient id="paint3_linear" x1="46.197" y1="21.8419" x2="58.2859" y2="23.393" gradientUnits="userSpaceOnUse">
<stop stop-color="#00BCF8"/>
<stop offset="1" stop-color="#015BA2"/>
</linearGradient>
</defs>
</svg>
