<svg width="524" height="340" viewBox="0 0 524 340" fill="none" xmlns="http://www.w3.org/2000/svg">
<path d="M73.7148 318.311C73.7148 318.311 83.0445 339.879 139.654 339.879C196.264 339.879 210.356 332.787 236.984 333.953C263.613 335.118 370.127 339.879 403.704 339.879C437.281 339.879 502.006 342.939 510.947 318.311C519.888 293.684 537.576 294.85 505.31 280.909C473.045 266.968 331.642 258.419 287.812 272.457C243.933 286.495 183.387 296.696 149.762 298.979C116.136 301.262 74.055 299.124 73.7148 318.311Z" fill="url(#paint0_linear)"/>
<path d="M81.0031 280.957L2.57538 277.071L0 166.855H83.0926L81.0031 280.957Z" fill="#00BCF9"/>
<path d="M79.3994 240.446L1.74919 240.834L0.777344 199.643L81.003 202.995L79.3994 240.446Z" fill="#01A8DE"/>
<path d="M20.8947 124.352C20.8947 124.352 0.826189 85.3948 6.70584 81.0716C12.5855 76.7484 16.5215 92.8267 16.5215 92.8267C16.5215 92.8267 11.808 50.3237 18.5137 49.5465C25.2194 48.7693 26.3857 100.744 26.3857 100.744C26.3857 100.744 27.5519 90.4951 30.7104 90.1065C33.8689 89.7179 34.2576 96.4213 34.2576 96.4213C34.2576 96.4213 36.2499 79.08 41.5464 79.9058C46.843 80.683 41.352 117.697 35.0351 124.4C28.7181 131.104 22.8384 131.832 22.8384 131.832L20.8947 124.352Z" fill="#2EB67D"/>
<path d="M14.189 125.518C14.189 125.518 35.278 123.332 38.4365 127.266C41.595 131.201 40.5745 159.763 32.7026 166.806H18.9024C18.9024 166.855 7.09453 145.19 14.189 125.518Z" fill="url(#paint1_linear)"/>
<path d="M22.8379 166.855V152.671C22.8379 152.671 22.4491 148.251 27.1626 147.522C31.876 146.793 53.5481 147.522 53.5481 147.522C53.5481 147.522 59.3792 147.182 59.039 152.088L59.3792 166.855H22.8379Z" fill="#2E4974"/>
<path d="M38.2893 141.256H43.4887C45.1408 141.256 46.6957 141.984 47.7162 143.247L51.2148 147.473H31.0977L33.8188 143.587C34.8393 142.13 36.4914 141.256 38.2893 141.256Z" fill="#253D60"/>
<path d="M40.7691 163.309C44.1505 163.309 46.8917 160.569 46.8917 157.188C46.8917 153.808 44.1505 151.068 40.7691 151.068C37.3877 151.068 34.6465 153.808 34.6465 157.188C34.6465 160.569 37.3877 163.309 40.7691 163.309Z" fill="#00122C"/>
<path d="M397.435 318.311L394.957 317.826L448.749 20.1586L458.127 20.5957L486.067 279.014L483.589 279.306L453.559 42.9402L397.435 318.311Z" fill="#8183A9"/>
<path d="M257.295 286.446L254.914 285.912L280.862 164.669L287.811 166.175L257.295 286.446Z" fill="#8183A9"/>
<path d="M310.843 20.2557H455.793L417.551 207.852L280.133 169.041L310.843 20.2557Z" fill="#A3A6CC"/>
<path d="M250.59 177.347L280.134 169.041L417.552 207.852L381.351 220.822L250.59 177.347Z" fill="#8183A9"/>
<path d="M330.691 69.7008L329.525 69.7202L330.094 103.865L331.261 103.846L330.691 69.7008Z" fill="#4A154B"/>
<path d="M392.114 71.3063L332.67 104.37L333.237 105.389L392.681 72.3249L392.114 71.3063Z" fill="#4A154B"/>
<path d="M409.661 89.6119L406.527 153.702L407.692 153.759L410.826 89.6688L409.661 89.6119Z" fill="#4A154B"/>
<path d="M385.14 168.312L321.824 161.463L321.97 160.297L380.766 166.661L343.982 140.43L344.663 139.459L385.14 168.312Z" fill="#4A154B"/>
<path d="M291.165 165.106L321.875 169.041C321.875 169.041 308.901 180.067 306.52 185.168C302.195 178.076 286.062 180.067 286.062 180.067L291.165 165.106Z" fill="#2E4974"/>
<path d="M269.928 178.901C269.928 178.901 272.698 159.229 264.438 152.914C266.43 151.748 295.294 154.614 297.529 155.683C307.393 158.84 311.718 180.067 306.567 185.216C301.805 183.613 274.982 175.744 269.928 178.901Z" fill="#0183CB"/>
<path d="M313.225 60.8159C313.225 60.8159 323.089 55.3269 321.874 49.0122C320.659 42.6974 317.161 36.4313 321.874 33.2739C326.587 30.1165 360.456 30.8937 363.615 35.2655C366.773 39.5886 368.328 44.689 367.939 49.8379C367.551 54.9383 364.003 56.1527 362.448 56.5413C360.894 56.9299 361.282 64.0218 358.901 66.7906C356.52 69.5594 355.354 68.7822 347.093 68.345C338.833 67.9564 332.127 67.1792 330.183 71.891C328.24 76.6027 317.209 90.7866 313.273 89.6208C309.337 88.455 314.439 76.2141 313.273 72.7167C312.107 69.2193 311.135 62.176 313.225 60.8159Z" fill="#DDD2E0"/>
<path d="M324.061 100.842L349.183 107.836C351.953 108.614 353.557 111.48 352.779 114.248L346.511 136.836C345.733 139.653 342.818 141.256 340.048 140.43L316.335 133.435C313.711 132.658 312.156 130.035 312.739 127.364L317.599 104.776C318.23 101.862 321.146 100.064 324.061 100.842Z" fill="#DDD2E0"/>
<path d="M392.382 69.0735L381.352 110.265L404.579 117.114L415.609 77.3312L392.382 69.0735Z" fill="#EDEDED"/>
<path d="M394.471 73.4939L386.502 103.319L403.315 108.274L411.284 79.4686L394.471 73.4939Z" fill="#0183CB"/>
<path d="M392.382 89.6207H365.607V130.861H392.382V89.6207Z" fill="#EDEDED"/>
<path d="M388.01 93.1182H368.281V123.526H388.01V93.1182Z" fill="#2EB67D"/>
<path d="M381.352 175.161C381.352 175.161 385.676 152.914 388.057 150.534C389.223 149.368 391.702 148.688 393.937 148.299C396.609 147.813 399.331 148.202 401.76 149.368C406.425 151.651 414.54 155.488 415.658 155.197C417.213 154.808 411.77 167.778 411.333 172.538C410.896 177.298 406.96 189.879 401.469 188.276C395.978 186.673 382.129 181.67 381.352 175.161Z" fill="#EDEDED"/>
<path d="M392.662 157.339L392.133 159.006L409.085 164.384L409.614 162.717L392.662 157.339Z" fill="#DDD2E0"/>
<path d="M389.919 164.284L389.326 165.93L409.032 173.021L409.624 171.375L389.919 164.284Z" fill="#DDD2E0"/>
<path d="M386.786 171.37L386.176 173.008L403.07 179.3L403.68 177.661L386.786 171.37Z" fill="#DDD2E0"/>
<path d="M323.479 108.274L319.932 123.526L327.804 126.149L332.954 110.265L323.479 108.274Z" fill="#EDEDED"/>
<path d="M336.558 116.646L336.092 118.332L346.161 121.117L346.627 119.431L336.558 116.646Z" fill="#9899C8"/>
<path d="M333.111 122.126L332.559 123.785L344.178 127.647L344.73 125.988L333.111 122.126Z" fill="#9899C8"/>
<path d="M320.164 127.718L319.643 129.387L341.119 136.085L341.64 134.416L320.164 127.718Z" fill="#9899C8"/>
<path d="M411.079 65.3895L405.564 73.6824L406.05 74.0051L411.565 65.7122L411.079 65.3895Z" fill="#DDD2E0"/>
<path d="M378.435 73.8339H377.852V89.6207H378.435V73.8339Z" fill="#DDD2E0"/>
<path d="M378.145 76.6512C379.889 76.6512 381.303 75.2376 381.303 73.4938C381.303 71.75 379.889 70.3364 378.145 70.3364C376.4 70.3364 374.986 71.75 374.986 73.4938C374.986 75.2376 376.4 76.6512 378.145 76.6512Z" fill="#E01E5A"/>
<path d="M413.422 66.7904C415.167 66.7904 416.581 65.3768 416.581 63.6331C416.581 61.8893 415.167 60.4757 413.422 60.4757C411.678 60.4757 410.264 61.8893 410.264 63.6331C410.264 65.3768 411.678 66.7904 413.422 66.7904Z" fill="#E01E5A"/>
<path d="M336.452 35.6054C325.47 34.0996 329.406 55.9097 330.621 56.4926C332.224 56.9298 347.579 37.1598 336.452 35.6054ZM335.383 43.2317C334.994 44.8832 334.119 46.049 333.439 45.9033C332.759 45.7576 332.467 44.3003 332.856 42.6488C333.245 40.9972 334.119 39.8314 334.799 39.9771C335.48 40.1714 335.771 41.6287 335.383 43.2317Z" fill="#FED337"/>
<path d="M51.2175 186.673H31.1003C30.2743 186.673 29.6426 185.993 29.6426 185.216C29.6426 184.439 30.3229 183.759 31.1003 183.759H51.1689C51.995 183.759 52.6267 184.439 52.6267 185.216C52.6267 185.993 51.995 186.673 51.2175 186.673Z" fill="#01A8DE"/>
<path d="M48.7373 224.028H28.6687C27.8426 224.028 27.2109 223.347 27.2109 222.57C27.2109 221.745 27.8912 221.113 28.6687 221.113H48.7373C49.5633 221.113 50.195 221.793 50.195 222.57C50.195 223.347 49.5633 224.028 48.7373 224.028Z" fill="#00BCF9"/>
<path d="M51.2175 261.382H31.1003C30.2743 261.382 29.6426 260.702 29.6426 259.925C29.6426 259.099 30.3229 258.467 31.1003 258.467H51.1689C51.995 258.467 52.6267 259.147 52.6267 259.925C52.6753 260.702 51.995 261.382 51.2175 261.382Z" fill="#01A8DE"/>
<path d="M309.434 161.026C309.775 159.763 310.941 159.18 311.961 159.472C313.079 159.763 313.662 160.88 313.273 162.143C312.933 163.309 311.961 163.989 310.795 163.649C309.677 163.309 309.094 162.192 309.434 161.026ZM310.892 157.626L310.989 157.14C311.232 155.586 312.204 154.371 313.613 153.157C314.682 152.282 315.266 151.602 315.508 150.631C315.8 149.659 315.314 148.834 314.245 148.542C313.662 148.396 313.079 148.299 312.447 148.542L312.642 145.773C313.273 145.579 314.634 145.482 315.897 145.871C319.299 146.842 319.59 149.368 319.104 151.068C318.618 152.865 317.209 153.983 315.897 155.051C314.925 155.926 314.196 156.703 313.905 157.917L313.759 158.451L310.892 157.626Z" fill="#E8505B"/>
<path d="M78.3314 302.719C78.3314 302.719 75.5616 318.457 84.0652 322.003C86.6406 320.449 86.0575 300.339 86.0575 300.339L78.3314 302.719Z" fill="#014880"/>
<path d="M110.206 295.627C110.206 295.627 108.214 299.756 111.372 302.525C114.531 305.293 130.663 305.876 131.246 304.079C131.829 302.33 120.993 296.21 117.835 295.627C114.774 295.044 110.206 295.627 110.206 295.627Z" fill="#014880"/>
<path d="M80.0814 207.852C80.0814 207.852 78.818 219.85 77.8947 222.425C75.7567 234.228 76.0968 268.279 77.8947 283.435C79.1096 293.538 78.7208 300.193 78.3321 303.545C78.0891 305.633 79.1095 307.771 81.0046 308.694C81.3448 308.839 81.6363 308.985 81.9765 309.034C84.8434 309.325 86.0096 300.387 86.0096 300.387C86.0096 300.387 86.9329 264.15 89.3625 253.755C90.9174 237.24 96.8457 214.798 97.0401 211.058C97.2344 207.221 80.0814 207.852 80.0814 207.852Z" fill="#FB9A67"/>
<path d="M104.132 207.804C104.132 207.804 104.23 208.095 104.375 208.581C105.056 211.01 107.048 218.636 105.93 222.425C104.57 226.942 101.703 239.766 106.27 265.511C110.838 291.255 109.915 296.599 109.915 296.599C109.915 296.599 113.802 301.505 118.516 298.202C115.552 289.944 114.92 271.242 115.94 260.605C116.523 241.515 118.904 205.083 118.904 205.083L104.132 207.804Z" fill="#EF8854"/>
<path d="M71.8191 210.378L121.82 211.738C121.82 211.738 131.685 127.898 114.726 111.771C97.7673 95.644 86.9313 111.771 86.9313 111.771C86.9313 111.771 60.4 145.045 71.8191 210.378Z" fill="#4A154B"/>
<path d="M151.025 76.5542C151.025 76.5542 150.49 70.2394 151.025 65.7706C152.58 60.1359 156.321 60.8159 156.516 61.836C157.682 65.5277 154.232 76.6513 152.628 78.2057C151.025 79.7601 151.025 76.5542 151.025 76.5542Z" fill="#EF8854"/>
<path d="M84.0172 142.033C84.0172 142.033 84.7947 149.125 88.1475 152.671C91.5004 156.217 92.2779 152.768 92.2779 152.768C92.2779 152.768 93.4441 145.579 88.1475 140.673C82.851 135.767 84.0172 142.033 84.0172 142.033Z" fill="#FB9A67"/>
<path d="M122.113 49.0121C122.21 48.8178 130.714 47.0205 134.261 59.4557C136.982 68.9764 134.65 90.5437 139.752 90.1551C147.624 89.1836 149.422 73.6396 149.422 73.6396C149.422 73.6396 152.629 72.1823 154.961 74.4654C157.294 76.7484 151.803 104.63 137.808 103.222C125.369 101.23 123.036 83.5974 122.259 77.2341C121.481 70.8708 122.113 49.0121 122.113 49.0121Z" fill="#EDEDED"/>
<path d="M83.7741 51.0037C83.7741 51.0037 75.9994 49.8379 75.4163 41.2401C75.2219 38.3256 75.9994 35.4597 77.36 32.9338C79.0121 29.9222 80.6156 28.3192 82.0248 27.2991C84.503 25.5504 85.7178 22.5874 85.3777 19.6243C85.0861 17.1955 85.4263 15.0097 87.4185 12.2895C89.3136 9.61786 94.756 3.49742 100.927 5.39184C104.28 6.07189 106.175 9.52071 106.175 9.52071C106.175 9.52071 109.431 7.52913 113.075 9.71501C122.891 17.7784 111.423 30.6994 114.727 33.1281C118.032 35.5569 122.113 36.6741 122.405 43.8146C121.384 51.198 118.323 54.1125 116.768 55.1811C115.213 56.2012 96.3109 56.3469 96.3109 56.3469L83.7741 51.0037Z" fill="#444039"/>
<path d="M87.8061 112.985C87.8061 112.985 72.5968 62.5159 73.763 57.2212C74.9292 51.9266 88.5836 42.3087 98.3992 41.7258C108.263 41.1429 119.877 44.4946 124.639 51.3437C129.887 61.7873 122.938 82.1887 122.938 82.1887C122.938 82.1887 113.754 105.845 114.726 111.771C115.747 117.697 87.8061 112.985 87.8061 112.985Z" fill="url(#paint2_linear)"/>
<path d="M77.942 98.8014C77.942 98.8014 85.6196 70.8708 85.814 68.6849C86.0083 66.499 87.5633 51.1494 77.942 52.7523C68.2722 54.3067 62.7813 87.7748 65.551 109.245C73.7631 137.176 81.6836 141.936 82.8984 141.936C84.1132 141.936 89.0696 139.264 89.0696 139.264C89.0696 139.264 77.5047 107.836 77.942 98.8014Z" fill="#EDEDED"/>
<path d="M98.5445 32.108C98.5445 32.108 100.197 37.0627 96.4551 45.2233C99.2248 48.4778 105.785 48.1378 107.34 45.2233C105.445 39.8314 107.34 34.0025 107.34 34.0025L98.5445 32.108Z" fill="#EF8854"/>
<path d="M95.8721 22.6844C95.8721 22.6844 104.327 19.3327 104.133 15.0095C105.931 14.5724 109.964 21.1786 109.964 21.1786C109.964 21.1786 111.665 36.5768 104.716 37.014C97.7672 37.4512 96.2608 31.5736 96.2608 31.5736L93.7826 29.242C93.7826 29.242 91.1101 28.2219 92.0819 26.8133C93.0052 25.4532 94.5115 25.9389 94.5115 25.9389C94.5115 25.9389 96.0665 25.7446 95.8721 22.6844Z" fill="#FB9A67"/>
<path d="M232.901 295.335C232.901 295.335 232.756 300.339 232.027 300.339C231.298 300.339 229.646 297.376 228.188 299.173C226.73 300.97 228.091 302.767 230.277 305.099C232.464 307.431 237.566 309.762 239.267 309.811C242.085 309.859 242.085 306.556 242.085 306.556C242.085 306.556 239.558 303.059 240.482 300.242C241.405 297.424 240.773 295.384 240.773 295.384H232.901V295.335Z" fill="#424243"/>
<path d="M199.373 301.65C199.373 301.65 199.519 306.508 198.644 306.653C197.77 306.799 186.982 307.965 185.33 309.082C183.726 310.199 185.621 312.58 187.079 312.725C188.537 312.871 203.601 315.834 204.815 312.725C205.982 309.617 205.69 299.61 205.69 299.61L199.373 301.65Z" fill="#424243"/>
<path d="M227.558 291.207C227.558 291.207 226.829 293.49 228.19 295.384C229.551 297.278 241.31 300.047 242.67 298.639C243.982 297.278 255.499 256.816 241.213 222.425C243.885 190.219 250.64 146.696 244.323 138.001C237.957 129.306 223.962 136.058 223.962 136.058C223.962 136.058 212.738 176.23 213.321 178.124C213.758 179.63 216.188 199.011 217.257 207.658C217.548 210.135 218.18 212.564 219.152 214.847C222.699 223.639 232.029 250.792 227.558 291.207Z" fill="#424242"/>
<path d="M198.935 137.078C198.935 137.078 191.258 155.294 191.258 178.513C191.258 201.732 195.242 302.622 195.242 302.622H208.362C208.362 302.622 221.045 242.097 216.623 219.85C212.201 197.603 230.715 163.552 230.715 163.552C230.715 163.552 236.594 150.194 234.748 141.887C232.901 133.581 211.278 130.861 211.278 130.861L198.935 137.078Z" fill="#424242"/>
<path d="M276.295 132.464C276.295 132.464 278.676 138.05 280.134 139.944C281.591 141.79 291.65 142.567 291.359 138.633C291.067 134.698 283.973 128.529 281.3 128.529C278.627 128.529 276.295 132.464 276.295 132.464Z" fill="#EF8854"/>
<path d="M162.492 107.351C161.326 107.448 152.142 103.707 150.101 107.351C148.06 110.994 157.73 112.5 160.257 111.868C162.784 111.237 166.622 109.245 166.622 109.245L162.492 107.351Z" fill="#FB9A67"/>
<path d="M244.709 39.1514C244.709 39.1514 251.998 35.6054 256.906 51.2465C261.814 66.8391 263.903 95.5954 272.164 106.768C280.424 117.94 282.708 126.198 282.903 129.015C283.097 131.832 276.877 133.872 274.836 133.581C272.747 133.29 244.418 102.299 244.709 83.986C245.001 65.6247 244.709 39.1514 244.709 39.1514Z" fill="#EDEDED"/>
<path d="M202.484 39.1515C202.484 39.1515 215.167 35.8969 219.637 37.6942C224.108 39.4915 232.612 35.7026 244.76 39.1515C250.931 40.5601 254.186 62.2245 244.76 89.6208C235.333 117.017 244.322 137.953 244.322 137.953C244.322 137.953 209.287 152.282 198.354 138.633C199.277 131.832 201.318 107.448 195.73 99.3844C190.045 91.3209 202.484 39.1515 202.484 39.1515Z" fill="url(#paint3_linear)"/>
<path d="M184.117 95.0126C184.117 95.0126 162.493 101.036 161.278 104.776C160.112 108.468 160.744 112.014 162.542 113.18C164.291 114.345 190.677 110.411 195.39 104.776C200.104 99.1415 212.203 50.858 207.49 43.1346C202.776 35.4112 194.516 38.86 191.26 46.0005C188.004 53.141 184.117 95.0126 184.117 95.0126Z" fill="#EDEDED"/>
<path d="M219.588 29.9222C219.88 29.9222 220.317 36.7226 219.588 37.6941C218.859 38.6656 221.824 40.4143 224.059 40.5601C226.245 40.7058 228.626 38.8599 228.626 38.8599C228.626 38.8599 228.335 30.7965 228.626 28.7564C228.918 26.6676 232.611 18.1185 231.736 15.9326C230.862 13.6981 225.274 8.54919 224.059 8.25774C222.844 7.96629 218.131 11.8037 218.131 11.8037L214.146 24.4332C214.146 24.3846 213.709 29.6307 219.588 29.9222Z" fill="#FB9A67"/>
<path d="M217.692 0C231.007 5.97472 235.137 2.86592 236.449 5.82899C238.538 11.4151 234.408 21.8587 231.007 24.336C227.605 26.8619 221.725 25.4533 222.454 20.8872C223.523 18.4585 225.613 19.5757 224.835 16.4669C224.544 15.1554 221.968 15.3011 221.968 15.3011C221.968 15.3011 222.989 13.0181 221.968 12.1923C220.948 11.318 218.761 12.5809 216.526 11.0265C214.145 9.42354 208.557 0 217.692 0Z" fill="#00122C"/>
<defs>
<linearGradient id="paint0_linear" x1="73.7338" y1="302.667" x2="523.93" y2="302.667" gradientUnits="userSpaceOnUse">
<stop offset="0.00396825" stop-color="#FCEFFF"/>
<stop offset="0.2807" stop-color="#EDE1F0"/>
<stop offset="0.6443" stop-color="#E1D6E4"/>
<stop offset="1" stop-color="#DDD2E0"/>
</linearGradient>
<linearGradient id="paint1_linear" x1="13.8991" y1="124.912" x2="45.3604" y2="128.686" gradientUnits="userSpaceOnUse">
<stop stop-color="#FED337"/>
<stop offset="1" stop-color="#ECB22E"/>
</linearGradient>
<linearGradient id="paint2_linear" x1="77.4141" y1="41.6609" x2="136.335" y2="49.2641" gradientUnits="userSpaceOnUse">
<stop stop-color="#FED337"/>
<stop offset="1" stop-color="#ECB22E"/>
</linearGradient>
<linearGradient id="paint3_linear" x1="194.242" y1="-104.582" x2="272.596" y2="-100.281" gradientUnits="userSpaceOnUse">
<stop stop-color="#A237A4"/>
<stop offset="1" stop-color="#4A154B"/>
</linearGradient>
</defs>
</svg>
