<svg width="744" height="469" viewBox="0 0 744 469" fill="none" xmlns="http://www.w3.org/2000/svg">
<path d="M510.236 363.11C506.142 363.391 502.051 363.704 497.961 364.049C485.504 365.103 473.072 366.459 460.664 368.118C449.367 369.629 421.707 371.328 418.386 378.45C416.158 383.228 436.426 383.178 440.907 384.675C448.053 387.062 455.261 389.19 462.532 391.059C478.576 395.18 494.845 397.833 511.204 399.704C540.344 403.038 569.781 403.722 598.958 400.537C616.918 398.577 635.106 394.922 652.483 389.089C661.444 386.096 670.216 382.483 678.742 378.273C682.218 376.551 700.248 369.119 691.704 363.278C690.209 362.255 688.135 362.2 686.423 362.179C655.433 361.802 685.868 341.678 655.006 340.448C627.239 339.347 537.97 361.212 510.236 363.11Z" fill="#DDD2DF"/>
<path d="M694.644 253.751L694.742 244.814C666.404 243.75 638.064 241.376 609.727 240.865L609.695 246.874C615.561 247.372 621.397 247.887 627.355 248.632C649.912 251.557 672.3 252.472 694.644 253.751Z" fill="#015BA2"/>
<path d="M695.381 253.919C673.039 252.642 650.648 251.725 628.092 248.793C622.134 248.048 616.298 247.534 610.431 247.036L610.148 303.554C638.329 301.864 666.571 300.882 694.874 300.607L695.381 253.919Z" fill="#00BCF8"/>
<path d="M697.675 37.5873L697.998 7.76647C688.895 8.65588 679.848 10.1602 670.382 11.8093C650.312 14.9371 631.139 18.2862 611.512 20.5076V22.3843C623.802 24.3291 635.782 25.9633 648.61 28.4464C665.413 31.67 681.557 34.8978 697.675 37.5873Z" fill="#015BA2"/>
<path d="M611.184 84.7706C639.979 87.341 668.545 90.8029 697.042 95.2351L697.268 74.4977C668.43 75.9574 639.881 78.2234 611.203 80.7385L611.184 84.7706Z" fill="#015BA2"/>
<path d="M648.605 28.4442C635.776 25.9611 623.797 24.327 611.507 22.3822L611.211 80.7388C639.889 78.2237 668.449 75.9576 697.276 74.498L697.676 37.5873C681.558 34.8978 665.414 31.67 648.605 28.4442Z" fill="#00BCF8"/>
<path d="M697.049 95.2353C668.551 90.8032 639.986 87.3413 611.191 84.7709L610.929 136.689C639.497 134.967 668.064 134.291 696.63 133.646L697.049 95.2353Z" fill="#00BCF8"/>
<path d="M696.036 188.271L696.383 156.324C672.626 152.132 648.978 148.983 624.1 144.606C619.632 143.989 615.248 143.372 610.908 142.557L610.684 187.069C639.184 188.383 667.588 188.66 696.036 188.271Z" fill="#00BCF8"/>
<path d="M695.975 193.92C667.535 193.203 639.093 191.451 610.651 191.66L610.404 240.901C638.741 241.412 667.081 243.795 695.419 244.85L695.975 193.92Z" fill="#00BCF8"/>
<path d="M610.09 303.428L610.073 306.439C625.87 307.465 641.513 310.867 657.376 311.89C660.704 311.89 664.334 311.89 667.662 312.495C676.79 313.559 685.748 314.623 694.653 315.595L694.816 300.488C666.47 300.76 638.228 301.74 610.09 303.428Z" fill="#015BA2"/>
<path d="M667.663 312.495C664.336 311.89 660.706 311.89 657.378 311.89C641.515 310.867 625.872 307.464 610.075 306.439L609.794 355.501L694.063 370.002L694.654 315.586C685.745 314.612 676.792 313.554 667.663 312.495Z" fill="#00BCF8"/>
<path d="M610.677 187.068L610.653 191.66C639.093 191.447 667.535 193.203 695.977 193.92L696.039 188.27C667.588 188.66 639.185 188.383 610.677 187.068Z" fill="#015BA2"/>
<path d="M696.384 156.324L696.631 133.652C668.065 134.291 639.498 134.974 610.93 136.695L610.9 142.557C615.25 143.372 619.637 143.989 624.093 144.606C648.979 148.983 672.627 152.132 696.384 156.324Z" fill="#015BA2"/>
<path d="M687.344 270.395L668.871 298.388L672.939 306.439L693.004 275.169L687.344 270.395Z" fill="#E8505B"/>
<path d="M672.94 306.439L699.693 301.732L717.186 270.373L693.005 275.169L672.94 306.439Z" fill="#E01E5A"/>
<path d="M611.558 11.6645L611.513 20.5054C631.14 18.284 650.313 14.9349 670.383 11.8071C679.849 10.1602 688.894 8.65582 697.999 7.76428L698.082 0L611.558 11.6645Z" fill="#00BCF8"/>
<path d="M698.083 0.00221443L743.895 9.60703L738.228 362.081L694.06 370.013L698.083 0.00221443Z" fill="#014880"/>
<path d="M659.563 142.557L661.278 188.39L670.643 188.43V142.557H659.563Z" fill="#E8505B"/>
<path d="M670.641 142.557L687.344 146.349L685.79 188.381L670.641 188.43V142.557Z" fill="#E01E5A"/>
<path d="M698.082 0.00221062L692.909 0.700123L689.209 369.177L694.058 370.013L698.082 0.00221062Z" fill="#00BCF8"/>
<path d="M455.834 378.719C466.069 376.936 476.406 375.614 486.799 375.076C497.191 374.539 507.661 374.874 518.085 374.937C527.279 374.99 536.331 375.023 545.445 376.354C547.607 376.666 549.733 377.026 551.871 377.409C552.838 377.584 555.794 377.617 556.366 378.44C557.515 380.083 551.237 380.056 550.582 380.08C547.287 380.207 543.982 380.3 540.668 380.359C531.289 380.519 521.922 380.291 512.555 380.436C503.105 380.582 493.663 380.879 484.219 381.146C476.681 381.426 469.137 381.443 461.595 381.524C459.47 381.547 456.034 381.651 454.159 380.514C452.528 379.518 454.814 378.885 455.834 378.719Z" fill="#DDD2DF"/>
<path d="M264.2 410.706C263.654 407.147 262.537 403.688 260.888 400.445C260.054 398.816 259.067 397.26 257.939 395.797C256.958 394.527 255.023 391.605 252.972 392.614C251.83 393.178 251.553 394.909 251.17 395.96C250.673 397.38 250.246 398.819 249.888 400.278C249.162 403.093 248.735 405.969 248.613 408.864C248.545 411.302 248.893 413.814 250.569 415.779C252.349 417.804 254.603 419.413 257.154 420.477C258.774 421.173 260.657 422.127 262.473 422.176C265.24 422.25 264.621 418.708 264.639 416.823C264.663 414.776 264.516 412.731 264.2 410.706Z" fill="#002E74"/>
<path d="M239.5 395.814C238.85 401.54 238.84 408.248 234.879 413.091C233.159 415.194 230.858 416.66 228.257 417.659C227.71 417.869 222.968 419.622 222.919 418.616C222.649 413.109 224.354 407.686 227.117 402.874C228.867 399.827 233.152 391.933 237.566 392.21C239.843 392.355 239.704 394.036 239.5 395.814Z" fill="#002E74"/>
<path d="M252.423 298.51C244.339 296.949 241.134 305.62 239.888 311.366C236.785 325.556 234.521 339.897 233.104 354.324C232.286 362.887 232.572 371.5 232.184 380.079C231.823 388.125 231.321 397.628 227.388 404.92C225.541 408.339 229.006 411.754 232.355 409.33C237.26 405.785 238.407 399.345 239.923 394.07C244.043 379.713 247.359 365.051 250.422 350.462C252.489 340.583 254.033 330.668 255.509 320.701C256.219 315.876 256.945 311.018 257.29 306.157C257.557 302.697 256.37 299.271 252.423 298.51Z" fill="#F99863"/>
<path d="M276.575 294.948C273.658 292.271 268.576 297.993 267.315 299.898C265.343 302.876 264.304 306.338 263.231 309.668C260.884 316.945 258.928 324.32 257.361 331.794C254.492 345.301 252.84 359.012 252.422 372.78C252.214 379.664 252.319 386.547 252.737 393.43C253.065 398.752 252.786 406.127 255.684 410.898C257.015 413.089 260.281 414.364 262.306 412.08C264.851 409.212 263.434 403.744 263.436 400.3C263.436 395.634 263.61 390.971 263.957 386.312C265.042 371.641 268.538 357.413 271.007 342.932C272.246 335.669 273.923 328.038 275.21 320.356C276.497 312.673 276.984 305.107 277.204 297.342C277.237 296.494 277.218 295.539 276.575 294.948Z" fill="#F99863"/>
<path d="M291.338 279.927C289.709 286.561 287.821 293.186 285.683 299.746C285.418 300.565 285.144 301.381 284.872 302.2C283.347 302.68 281.809 303.117 280.26 303.523C272.798 305.461 265.125 306.584 257.392 306.869C253.127 307.027 248.855 306.938 244.601 306.603C244.031 306.559 243.468 306.512 242.903 306.456C241.932 306.365 240.961 306.255 239.992 306.124C239.907 305.762 239.829 305.401 239.755 305.037C238.362 298.611 237.329 292.12 236.662 285.59C235.221 271.378 235.338 257.063 237.012 242.873C237.849 235.789 238.984 228.693 240.76 221.762C241.638 218.32 242.558 214.87 243.738 211.501C244.512 209.304 245.235 206.995 246.266 204.852C246.47 204.432 246.685 204.02 246.912 203.614C247.605 203.815 248.303 204.004 249 204.185C250.297 204.519 251.602 204.814 252.943 205.046C261.41 206.51 270.114 206.194 278.437 204.12C280.588 203.586 282.71 202.947 284.792 202.206C285.854 201.827 286.903 201.422 287.937 200.993C288.285 201.62 288.607 202.26 288.909 202.913C290.328 205.956 291.331 209.228 292.22 212.336C293.576 217.059 294.59 221.864 295.257 226.717C297.726 244.459 295.605 262.577 291.338 279.927Z" fill="#424242"/>
<path d="M314.581 167.992C313.71 169.119 311.551 169.027 310.257 168.929C306.298 168.623 302.254 165.806 299.274 163.511C292.491 158.255 286.89 151.775 282.798 144.45C280.803 140.858 279.129 137.117 277.792 133.263C277.066 131.168 276.451 129.043 275.947 126.89C275.599 125.402 275.126 123.81 275.237 122.279C275.408 119.959 276.978 120.211 279.021 120.742C283.491 121.913 286.966 125.103 289.858 128.304C293.236 132.043 296.561 135.833 299.709 139.75C305.295 146.701 310.352 154.16 313.557 162.382C314.12 163.816 315.688 166.569 314.581 167.992Z" fill="#F5F5F5"/>
<path d="M270.281 124.954C269.251 122.113 268.016 119.342 266.585 116.66C264.629 113.018 261.883 109.723 260.724 105.73C259.971 103.142 259.004 100.613 257.834 98.1661C257.124 96.6559 255.62 95.6989 253.986 95.2104C253.127 94.9539 249.689 94.0951 249.275 95.2528C249.208 95.5048 249.208 95.7682 249.275 96.0202C249.658 98.1259 250.136 100.205 250.072 102.355C249.979 104.671 249.517 106.96 248.702 109.145C247.841 111.448 246.592 113.604 245.003 115.532C243.658 117.22 242.638 118.835 243.239 120.847C243.239 120.896 243.239 120.943 243.239 120.992C243.239 123.792 244.658 126.676 246.328 129.409C254.589 130.662 263.558 129.487 270.281 124.954Z" fill="url(#paint0_linear)"/>
<path d="M275.069 149.979C274.698 141.423 273.156 132.821 270.282 124.954C263.558 129.486 254.589 130.662 246.328 129.415C247.695 131.646 249.244 133.769 250.375 135.661C255.833 144.84 260.892 154.273 264.641 164.213C265.603 166.761 266.475 169.337 267.257 171.942C267.789 173.727 267.78 176.562 269.951 177.138C273.283 178.03 273.068 173.905 273.468 171.869C274.857 164.651 275.394 157.309 275.069 149.979Z" fill="#F5F5F5"/>
<path d="M260.718 141.454C258.065 136.138 255.515 130.773 252.585 125.583C251.088 122.928 249.51 120.316 247.757 117.798C247.145 116.905 246.414 115.239 245.288 115.045C244.023 114.822 242.214 116.486 241.36 117.173C236.133 121.389 230.927 125.618 225.79 129.932C224.499 131.019 222.316 132.277 222.072 134.046C221.942 135.003 222.761 136.053 223.201 136.852L225.067 140.211L228.796 146.932C229.979 149.078 231.147 151.244 232.372 153.374C233.082 154.597 233.848 155.761 234.641 156.912C236.022 160.118 237.311 163.348 238.188 166.727C239.415 171.423 240.025 176.243 240.005 181.079C239.964 195.69 234.118 210.118 223.922 221.108C230.644 227.243 241.346 228.61 250.224 227.22C259.907 225.704 268.632 219.995 273.135 211.708C279.048 200.843 275.552 188.811 273.291 177.566C270.756 164.916 266.52 153.084 260.718 141.454Z" fill="#963298"/>
<path d="M286.362 170.847C285.061 162.665 284.591 154.403 284.662 146.136C284.711 140.098 285.371 133.983 284.25 127.994C283.72 125.157 283.254 122.181 280.563 120.809C275.958 118.46 270.589 117.441 266.306 114.55C265.534 114.02 264.794 113.451 264.09 112.843C264.854 114.476 266.285 117.501 266.455 117.876C267.289 119.892 268.013 121.948 268.624 124.035C269.923 128.369 270.794 132.808 271.225 137.294C272.1 146.379 272.171 155.509 271.727 164.621C271.277 174.062 270.435 183.569 270.986 193.02C271.436 200.734 273.21 208.92 279.931 214.002C286.126 218.686 294.914 219.942 302.466 217.912C302.516 217.907 302.563 217.889 302.602 217.861C302.641 217.832 302.671 217.793 302.688 217.749C294.285 203.256 288.954 187.149 286.362 170.847Z" fill="#963298"/>
<path d="M254.181 186.161C255.921 184.599 255.822 182.011 255.555 179.946C255.299 177.976 254.71 176.236 253.968 174.416C253.35 173.078 252.899 171.657 252.355 170.443C251.007 167.441 249.753 164.403 248.452 161.38C246.087 155.859 243.653 150.227 240.08 145.288C236.175 139.892 231.256 134.358 224.349 132.466C221.878 131.797 221.121 134.574 221.038 136.316C220.74 143.216 222.651 149.654 225.66 155.877C228.803 162.382 232.126 168.886 236.589 174.693C240.517 179.803 245.695 185.212 252.3 187.12C253.002 186.954 253.649 186.624 254.181 186.161Z" fill="#F5F5F5"/>
<path d="M266.438 173.988C262.401 170.95 259.36 166.723 254.807 164.305C252.869 163.284 250.729 162.65 248.52 162.442C247.356 162.334 246.182 162.355 245.022 162.505C244.656 162.552 242.158 163.136 242.586 163.286C250.531 166.092 256.704 176.975 266.438 173.988Z" fill="#F99863"/>
<path d="M294.522 157.426C293.018 158.503 291.384 159.411 289.936 160.549C289.217 161.103 288.57 161.736 288.009 162.433C287.403 163.21 287.299 164.044 286.301 164.535C286.052 164.666 285.773 164.74 285.488 164.75C285.202 164.76 284.919 164.706 284.66 164.593C283.865 164.196 284.007 163.451 284.061 162.752C284.114 162.2 284.219 161.653 284.373 161.117C284.653 160.089 285.057 159.094 285.353 158.068C285.807 156.487 286.261 154.898 287.332 153.576C289.331 151.122 292.495 150.189 295.537 149.402C296.01 149.282 298.271 148.936 298.488 149.558C299.638 152.92 297.152 155.539 294.522 157.426Z" fill="#F99863"/>
<path d="M314.626 168.586C312.909 171.827 308.585 171.976 305.456 172.316C294.186 173.277 282.94 174.917 271.708 176.248C269.367 176.523 266.742 177.205 264.377 176.886C260.372 176.34 262.056 170.272 264.086 168.459C267.033 165.824 271.607 165.142 275.258 164.131C283.357 161.901 291.634 160.083 300.071 160.312C303.673 160.413 307.712 160.636 311.073 162.097C313.568 163.172 316.224 165.586 314.626 168.586Z" fill="#F5F5F5"/>
<path d="M285.514 165.692C284.27 168.291 282.357 170.724 280.427 172.899C276.298 177.555 271.104 181.133 265.357 183.83C263.291 184.817 261.147 185.653 258.945 186.328C256.774 186.975 254.215 187.727 251.954 187.182C251.467 187.095 251.021 186.868 250.676 186.533C249.811 185.572 251.22 184.155 251.809 183.41C252.719 182.265 253.671 181.15 254.664 180.064C257.817 176.661 261.318 173.56 265.115 170.805L265.716 170.359C268.481 168.387 271.503 166.696 274.533 165.117C275.966 164.369 277.428 163.685 278.911 163.031C280.034 162.536 281.229 161.851 282.473 161.693C285.332 161.316 286.718 163.169 285.514 165.692Z" fill="#F5F5F5"/>
<path d="M255.237 79.5286C254.806 80.548 254.314 81.5362 253.863 82.5155C252.73 84.9692 251.159 87.2311 249.546 89.4305C248.986 90.1956 248.6 90.992 247.654 91.2552C246.235 91.6455 244.58 91.6165 243.135 91.4336C240.382 91.0834 238.641 89.2833 237.499 87.0013C235.294 82.6292 234.795 76.7961 237.936 72.705C239.466 70.7153 241.675 69.5821 244.204 69.107C247.042 68.5872 250.549 68.5047 253.26 69.5799C257.167 71.1213 258.278 76.7827 255.237 79.5286Z" fill="#00112B"/>
<path d="M269.925 100.58C268.84 105.24 264.33 107 259.628 106.288C257.104 105.909 254.928 104.617 253.242 102.819C251.981 101.493 250.949 99.987 250.184 98.358C249.923 98.3495 249.663 98.3242 249.406 98.2821C247.987 98.0412 246.868 96.8523 245.976 95.8619C244.406 94.1108 241.845 90.1335 245.83 89.5959C247.656 89.3506 248.829 89.9529 249.555 91.0615C249.791 91.26 250.002 91.4675 250.208 91.6816C250.368 90.3679 250.643 89.069 251.031 87.798C251.835 85.1592 253.233 82.4824 255.997 81.2488C260.799 79.0985 265.33 81.7284 267.754 85.7101C270.372 90.0019 271.037 95.7593 269.925 100.58Z" fill="#F99863"/>
<path d="M258.1 82.2944C257.819 84.1347 255.853 85.1296 254.65 86.4078C253.829 87.3173 253.146 88.3301 252.62 89.4169C252.336 89.9724 252.079 90.5323 251.823 91.1078C251.639 91.5204 251.48 92.2789 250.948 92.4127C250.716 92.4619 250.473 92.4294 250.265 92.3212C249.503 91.9599 249.002 91.2416 248.228 90.8936C247.623 90.6433 246.988 90.4628 246.336 90.356C245.627 90.22 244.891 90.0638 244.309 89.6355C242.845 88.5693 242.689 86.5661 243.188 85.0091C244.229 81.7747 247.937 79.1113 251.407 78.6005C254.044 78.2101 258.621 78.8034 258.1 82.2944Z" fill="#00112B"/>
<path d="M267.706 83.4904C267.034 86.4973 259.492 82.4018 257.962 81.7059C256.353 80.9697 254.759 80.1868 253.212 79.3369C252.822 79.1138 252.415 78.8908 252.212 78.5004C251.533 77.2222 253.912 76.6847 254.778 76.6066C257.62 76.3623 260.471 76.9738 262.921 78.3532C264.444 79.2098 266.176 80.5192 267.238 81.862C267.432 82.0874 267.574 82.3488 267.655 82.6293C267.736 82.9098 267.753 83.2032 267.706 83.4904Z" fill="#00112B"/>
<path d="M270.86 428.573C262.308 428.854 253.76 429.167 245.216 429.512C219.195 430.566 193.223 431.922 167.302 433.581C143.703 435.092 85.9211 436.791 78.982 443.913C74.329 448.691 116.668 448.641 126.029 450.138C140.957 452.525 156.016 454.653 171.204 456.522C204.722 460.643 238.706 463.296 272.882 465.167C333.755 468.501 395.25 469.185 456.201 466C493.72 464.04 531.715 460.385 568.017 454.552C586.736 451.559 605.06 447.946 622.872 443.736C630.133 442.014 667.798 434.582 649.95 428.741C646.827 427.718 642.494 427.663 638.918 427.642C574.179 427.265 637.758 407.141 573.288 405.911C515.282 404.81 328.795 426.675 270.86 428.573Z" fill="#DDD2DF"/>
<path d="M654.654 431.199L630.613 323.262H625.387L651.307 431.513L654.654 431.199Z" fill="#53546B"/>
<path d="M609.6 424.925L587.234 323.707H582.008L606.253 425.24L609.6 424.925Z" fill="#53546B"/>
<path d="M563.183 331.396L529.449 439.755H533.882L571.645 330.04L563.183 331.396Z" fill="#53546B"/>
<path d="M523.165 329.899L492.867 431.699H496.385L529.883 328.822L523.165 329.899Z" fill="#53546B"/>
<path d="M661.338 256.7C666.201 241.563 672.767 227.303 677.162 212.198C678.668 212.174 680.18 212.157 681.706 212.147C670.19 250.123 656.553 287.424 640.86 323.872L635.785 323.707C638.548 316.607 640.992 309.471 644.271 302.474C651.09 287.786 656.215 272.414 661.338 256.7Z" fill="#999BC7"/>
<path d="M643.103 213.024C654.744 212.957 665.688 212.383 677.161 212.198C672.767 227.303 666.2 241.576 661.337 256.701C656.214 272.414 651.089 287.787 644.259 302.474C640.979 309.471 638.535 316.607 635.772 323.707C619.845 323.178 603.961 322.715 588.023 322.169C608.896 287.265 628.067 250.809 643.103 213.024Z" fill="#8283A8"/>
<path d="M489.15 321.496C495.421 322.541 503.694 323.757 512.132 324.937C531.025 327.58 550.756 330.04 550.756 330.04C550.756 330.04 584.67 326.326 614.523 322.765C624.658 321.564 634.326 320.362 642.039 319.341C625.189 319.178 607.661 317.371 590.811 317.203C558.848 316.888 521.097 320.509 489.15 321.496Z" fill="#53546B"/>
<path d="M549.566 334.567C549.566 334.567 610.415 327.907 640.85 323.873L642.039 319.339C634.326 320.36 624.658 321.552 614.523 322.763C584.67 326.324 550.756 330.038 550.756 330.038L549.566 334.567Z" fill="#999BC7"/>
<path d="M487.969 326.03C508.286 329.416 549.574 334.569 549.574 334.569L550.775 330.04C550.775 330.04 531.044 327.578 512.152 324.937C503.714 323.757 495.441 322.534 489.17 321.496L487.969 326.03Z" fill="#8283A8"/>
<path d="M564.96 444.913C564.462 445.798 563.158 445.874 562.266 446.055C560.971 446.295 559.667 446.535 558.362 446.742C555.645 447.172 552.917 447.496 550.176 447.732C544.678 448.203 539.153 448.284 533.643 447.972C530.926 447.818 528.206 447.585 525.51 447.203C524.883 447.114 524.237 447.037 523.588 446.948C522.544 446.823 521.516 446.59 520.52 446.254L520.964 445.858L521.425 445.452C522.949 444.092 524.722 443.049 526.543 442.145C530.556 440.137 534.928 438.957 539.309 438.049C540.532 437.809 541.752 437.568 542.98 437.328C544.032 437.133 545.306 437.059 546.115 436.283C547.881 434.601 546.584 431.92 545.515 430.276C544.198 428.26 542.809 426.285 541.457 424.293L541.339 424.13C541.043 423.7 540.688 423.239 540.325 422.751C541.481 422.366 542.646 422.013 543.814 421.677L544.253 421.552C545.623 421.163 547.017 420.776 548.427 420.403C549.342 420.163 550.265 419.923 551.192 419.704C551.317 419.721 551.437 419.767 551.541 419.839C551.786 420.094 552.009 420.369 552.209 420.661C552.771 421.451 553.201 422.342 553.72 423.174C554.455 424.356 555.241 425.5 556.036 426.638C557.526 428.758 559.071 430.843 560.484 433.015C561.676 434.798 562.716 436.679 563.59 438.638C564.215 440.079 565.832 443.376 564.96 444.913Z" fill="#424242"/>
<path d="M485.326 419.863C486.227 422.415 487.911 425.675 486.559 428.357C485.427 430.601 479.13 430.853 476.972 431.461C470.076 433.402 465.847 434.796 458.711 435.276C455.165 435.517 451.503 435.721 447.945 435.452C447.445 435.416 443.844 434.611 444.499 433.948C448.087 430.324 452.669 428.585 457.09 426.081C459.302 424.829 461.705 423.842 464.009 422.773C466.179 421.775 468.452 421.019 470.787 420.519C470.684 419.774 470.249 413.719 470.288 413.208C470.501 410.466 470.304 407.849 471.261 405.199C472.685 401.259 475.477 399.692 479.384 399.236C481.388 398.996 485.05 398.693 486.809 400.002C488.394 401.184 485.384 406.624 485.038 408.193C484.185 411.992 484.021 416.17 485.326 419.863Z" fill="#424242"/>
<path d="M588.977 177.457L585.402 190.597C583.227 198.604 580.795 206.405 578.968 214.483C576.365 226.007 573.554 240.274 563.584 247.711C559.685 250.611 555.109 252.597 550.5 254.019C547.858 254.838 545.182 255.529 542.48 256.145C541.673 256.328 540.89 256.472 540.075 256.607H540.037C540.028 256.609 540.019 256.609 540.01 256.607C539.976 256.615 539.941 256.621 539.906 256.624C539.901 256.622 539.895 256.622 539.889 256.624L539.759 256.643L539.674 256.658L537.673 256.981C537.667 256.983 537.661 256.983 537.656 256.981C537.622 256.981 537.583 256.981 537.542 256.998H537.508H537.494C536.16 257.218 534.825 257.429 533.491 257.633C521.648 259.446 509.852 261.002 497.856 261.034C497.557 261.034 492.561 261.034 492.684 259.937C493.295 254.515 499.848 253.704 504.076 253.174C509.397 252.503 514.672 251.495 519.869 250.154C524.488 249.007 529.022 247.532 533.436 245.739C537.039 244.237 541.061 241.612 543.266 238.334C546.089 234.131 548.039 228.859 549.978 224.192C553.927 214.695 556.782 204.788 559.668 194.924C562.264 186.038 564.877 176.299 571.434 169.426C575.338 165.334 584.245 161.779 588.639 167.337C590.993 170.318 589.905 174.039 589.018 177.308C589.004 177.364 588.992 177.411 588.977 177.457Z" fill="url(#paint1_linear)"/>
<path d="M575.814 220.36C574.355 221.057 570.66 210.23 570.335 208.733C569.485 204.805 569.374 200.216 569.749 196.218C570.489 188.851 571.816 181.555 573.716 174.399C574.197 172.575 574.42 170.506 575.554 169.014C576.95 173.563 575.722 179.238 576.1 183.957C576.58 190.098 576.436 196.314 576.724 202.438C576.919 206.585 577.493 210.694 577.491 214.838C577.491 216.864 576.784 218.267 575.936 220.067C575.943 219.865 575.931 219.658 575.814 220.36Z" fill="#E01E5A"/>
<path d="M572.544 290.024C569.706 292.309 565.855 293.039 562.388 293.779C555.9 295.165 549.302 296.278 542.947 298.246C536.835 300.134 531.27 302.84 526.316 306.915C516.52 314.976 510.218 326.271 505.814 337.989C500.943 350.939 497.589 364.507 494.639 378.01C493.135 384.898 491.735 391.806 490.439 398.734C489.478 403.916 488.642 409.12 487.772 414.32C487.69 414.82 487.58 415.31 487.503 415.81H485.965C484.547 415.81 483.13 415.81 481.712 415.788C476.397 415.759 471.083 415.717 465.768 415.661C465.22 415.661 459.18 415.596 459.18 415.56C459.473 410.286 459.867 405.014 460.42 399.76C460.561 398.417 460.717 397.076 460.878 395.735C461.777 388.364 463.25 381.107 464.963 373.871C468.067 360.723 471.948 347.777 476.071 334.92C478.05 328.75 479.817 322.513 481.871 316.372C483.697 310.929 486.107 305.593 490.201 301.475C494.228 297.405 499.362 294.747 504.533 292.414C510.348 289.805 516.287 287.417 522.234 285.125C533.68 280.713 545.343 277.554 557.553 277.176C560.7 276.751 563.892 276.776 567.032 277.251C570.216 277.731 573.534 278.959 575.057 282.02C576.484 284.887 574.858 288.162 572.544 290.024Z" fill="url(#paint2_linear)"/>
<path d="M633.599 176.081C632.857 172.224 631.408 169.194 628.594 166.455C626.312 164.235 623.426 162.51 620.493 161.314C613.333 158.397 605.536 157.178 597.828 157.325H597.78C584.901 172.943 576.355 191.974 573.695 211.78C572.033 197.364 569.245 182.731 569.894 168.051C567.219 170.931 564.923 174.14 563.061 177.601C558.38 186.189 557.244 196.242 557.503 205.888C558.042 225.627 564.397 245.747 559.464 265.367C558.377 269.651 556.806 273.798 554.781 277.727C556.917 279.652 559.228 281.375 561.682 282.873C563.984 284.293 566.36 285.59 568.799 286.761C576.007 290.259 583.594 292.82 590.983 295.891C595.868 297.875 600.609 300.197 605.171 302.842C607.001 303.914 608.791 305.058 610.541 306.275C611.851 307.185 613.132 308.134 614.385 309.123C614.599 308.781 614.795 308.429 614.974 308.068C615.98 306.016 616.386 303.743 616.514 301.468C616.579 300.372 616.574 299.276 616.547 298.195C616.444 294.483 616.11 290.838 616.261 287.116C616.43 282.937 616.85 278.771 617.518 274.642C618.895 266.124 621.425 257.868 623.967 249.653C628.965 233.479 632.585 217.143 633.758 200.216C634.046 195.998 634.199 191.773 634.217 187.541C634.238 183.719 634.32 179.834 633.599 176.081Z" fill="url(#paint3_linear)"/>
<path d="M577.111 163.681C572.951 165.588 571.27 170.049 569.852 173.477C568.283 167.248 574.372 161.364 580.239 157.93C579.538 159.888 577.773 161.568 577.42 163.669C577.185 163.632 577.368 163.536 577.111 163.681Z" fill="#C2EEEE"/>
<path d="M520.073 252.928C518.989 250.403 515.063 251.033 512.913 251.179C510.155 251.336 507.413 251.701 504.71 252.27C498.95 253.572 493.312 255.368 487.86 257.638C487.202 257.911 486.704 258.839 486.373 259.423C486.279 259.589 485.597 260.864 486.065 260.785C492.358 259.882 498.855 259.692 505.267 259.922C507.689 260.163 510.073 260.554 512.509 260.852C515.676 261.244 518.535 259.053 519.857 256.287C520.337 255.254 520.525 254.021 520.097 252.967L520.073 252.928Z" fill="#F99863"/>
<path d="M632.612 175.569C630.264 170.927 625.925 168.788 620.892 168.45C615.476 168.087 609.983 169.048 606.771 173.767C604.068 177.736 602.972 182.585 601.627 187.123C599.801 193.286 598.419 199.574 596.922 205.826C595.702 210.927 595.063 216.129 593.669 221.203C591.165 230.302 587.244 239.223 578.066 243.149C570.894 246.22 561.727 246.667 553.056 247.549C543.616 248.51 527.912 250.581 516.939 251.013C519.327 253.034 516.398 259.726 515.961 261.472C516.36 261.472 516.653 261.451 516.73 261.446C529.209 260.37 541.718 259.615 554.248 259.423C560.533 259.327 566.821 259.365 573.107 259.505C578.852 259.634 584.731 259.488 590.118 257.253C599.565 253.339 606.045 244.788 611.742 236.662C618.054 227.652 623.655 218.08 627.775 207.861C629.824 202.699 631.51 197.4 632.821 192.003C634.109 186.741 635.154 180.626 632.612 175.569Z" fill="#E8E8E8"/>
<path d="M612.627 311.852C609.792 314.61 606.01 316.547 602.483 318.262C598.842 320.006 595.046 321.406 591.145 322.443C582.605 324.781 573.776 325.807 564.955 326.427C555.599 327.075 546.178 327.388 536.803 327.311C527.286 327.236 517.125 326.85 508.417 322.578C504.902 320.852 501.596 318.563 499.21 315.41C497.036 312.527 495.337 308.652 496.901 305.096C498.285 301.955 501.365 300.196 504.393 298.925C524.109 290.648 545.736 285.019 567.408 284.423C582.786 284 604.773 286.446 614.021 300.636C616.548 304.509 615.89 308.673 612.627 311.852Z" fill="url(#paint4_linear)"/>
<path d="M560.146 422.33C559.094 422.913 558.024 423.47 556.938 424C555.317 424.798 553.663 425.531 551.996 426.208C547.825 427.907 543.505 429.213 539.091 430.108C537.916 430.348 536.715 430.589 535.487 430.788C534.149 431.028 532.791 431.216 531.436 431.355L530.927 430.406C526.563 422.225 522.414 413.873 518.757 405.365C511.746 389.07 505.783 372.318 501.698 355.045C499.732 346.579 498.231 338.012 497.2 329.382C496.65 324.911 496.174 320.442 496.044 315.927C495.895 310.711 495.564 301.751 501.929 301.912C507.171 302.039 513.462 305.797 517.606 308.724C526.621 315.091 532.957 324.646 537.186 334.704C540.011 341.432 542.176 348.308 544.072 355.336C546.153 363.061 548.212 370.795 550.047 378.58C553.298 392.402 556.835 406.175 559.68 420.091C559.853 420.846 560.004 421.59 560.146 422.33Z" fill="url(#paint5_linear)"/>
<path d="M591.286 152.654C590.738 151.381 589.902 150.225 589.304 148.971C588.653 147.58 588.117 146.138 587.699 144.66C586.75 141.398 586.137 138.202 586.2 134.793C586.216 133.8 581.697 134.233 581.118 134.35C576.397 135.312 575.832 141.028 575.154 144.922C573.953 151.89 574.929 158.68 574.496 165.626C581.152 164.139 587.3 158.495 591.286 152.654Z" fill="url(#paint6_linear)"/>
<path d="M586.933 172.658C587.639 172.724 589.562 169.983 590.135 169.37C591.668 167.727 593.339 166.188 594.362 164.124C595.441 161.963 596.226 159.604 597.422 157.536C596.626 156.55 595.439 155.835 594.541 154.933C594.104 154.499 592.812 152.383 592.331 152.224C591.158 151.83 587.177 156.851 586.276 157.663C583.992 159.722 581.904 161.871 579.371 163.568C578.212 164.346 576.555 164.797 575.328 165.338C578.224 165.798 581.337 167.892 583.516 169.864C584.38 170.633 586.171 172.293 586.933 172.658Z" fill="#E0E0E0"/>
<path d="M574.872 163.596C574.024 163.495 573.171 164.535 572.799 165.278C572.536 165.782 572.381 166.336 572.343 166.903C572.305 167.47 572.385 168.039 572.578 168.574C573.003 169.656 573.993 170.29 575.127 170.417C578.695 170.821 582.558 167.07 579.286 164.192C577.491 162.623 576.828 163.831 574.872 163.596Z" fill="#E01E5A"/>
<path d="M585.316 127.87C583.262 123.149 577.911 121.849 573.24 122.825C567.051 124.117 563.733 128.435 562.815 134.564C562.294 138.053 562.532 142.135 563.803 145.446C564.908 148.315 566.986 150.352 570.064 150.859C573.721 151.462 577.851 151.061 580.648 148.421C583.291 145.929 584.694 142.248 585.453 138.781C586.212 135.314 586.782 131.236 585.316 127.87Z" fill="#F99863"/>
<path d="M590.23 135.357C589.704 137.258 589.029 139.11 588.416 140.982C588.065 142.075 587.654 142.469 586.494 142.604C583.538 142.952 581.667 140.794 581.09 138.039C580.725 136.297 581.33 134.704 581.33 132.976C581.33 131.979 580.977 130.742 579.932 130.391C578.144 129.79 577.078 131.998 576.808 133.396C576.772 133.594 575.715 133.531 575.727 133.396C575.833 131.981 575.967 130.297 575.701 128.903C575.518 127.942 574.898 126.914 573.944 126.578C573.291 126.349 571.542 128.103 571.037 128.433C569.084 129.722 566.758 130.325 564.425 130.146C562.625 129.985 560.734 129.165 560.47 127.169C560.064 124.098 560.785 121.068 563.983 120.093C567.601 118.988 571.727 118.93 575.47 118.454C581.376 117.707 590.417 116.22 591.864 124.163C592.5 127.721 591.169 131.94 590.23 135.357Z" fill="#424242"/>
<path d="M312.603 327.561L305.695 429.988H309.148L318.437 328.186L312.603 327.561Z" fill="#8283A8"/>
<path d="M381.642 326.699L388.55 429.126H385.095L375.809 327.323L381.642 326.699Z" fill="#8283A8"/>
<path d="M303.266 326.624L294.4 436.735H298.833L310.753 327.355L303.266 326.624Z" fill="#8283A8"/>
<path d="M391.877 325.613L400.746 435.723H396.31L384.391 326.343L391.877 325.613Z" fill="#8283A8"/>
<path d="M287.271 324.181L407.546 321.362V330.872L287.271 331.884V324.181Z" fill="#999BC7"/>
<path d="M315.467 315.497L287.271 324.181L407.546 321.362L375.681 314.142L315.467 315.497Z" fill="#8283A8"/>
<path d="M315.467 315.497L323.487 211.972L369.109 211.537L375.681 314.142L315.467 315.497Z" fill="#8283A8"/>
<path d="M368.366 128.628C367.188 126.597 365.408 125.406 363.128 124.925C360.324 124.332 356.907 124.401 354.267 125.605C351.794 126.734 349.99 128.82 347.897 130.482C345.586 132.321 342.311 132.84 340.259 135.002C339.795 135.468 339.452 136.039 339.257 136.667C339.063 137.294 339.024 137.96 339.144 138.606C338.827 140.341 339.348 142.162 340.031 143.892C340.081 144.264 340.139 144.632 340.223 144.995C340.737 147.193 341.664 149.375 342.626 151.41C343.524 153.347 344.358 155.336 345.345 157.229C346.081 158.635 347.248 160.007 348.988 159.557C350.04 159.286 350.545 157.128 350.819 156.232C350.891 155.992 351.667 152.321 351.16 152.453C350.862 152.54 350.55 152.566 350.242 152.53C349.935 152.494 349.637 152.397 349.367 152.244C349.226 151.009 349.089 149.771 348.945 148.536C348.772 147.063 349.009 145.73 349.009 144.288C349.634 141.578 351.359 138.822 353.281 136.84C354.528 135.557 355.924 134.939 357.748 135.048C359.363 135.141 360.631 135.896 362.179 136.249C364.079 136.693 367.525 137.013 368.882 135.24C370.288 133.407 369.406 130.418 368.366 128.628Z" fill="#424242"/>
<path d="M341.224 405.752C341.208 403.562 340.847 401.389 340.155 399.311C339.893 398.527 339.6 397.129 338.894 396.615C338.257 396.153 337.101 395.983 336.412 396.423C335.765 396.836 335.395 397.566 335.129 398.287C333.569 402.48 334.408 407.326 332.596 411.413C331.428 414.037 329.278 416.067 327.433 418.268C325.616 420.433 324.064 422.807 322.808 425.339C322.409 426.146 322.036 427.112 322.445 427.917C322.755 428.53 323.459 428.878 324.146 428.905C324.835 428.909 325.516 428.765 326.145 428.484C330.388 426.85 333.906 423.65 336.503 419.919C339.3 415.899 341.14 411.127 341.222 406.223C341.224 406.072 341.227 405.911 341.224 405.752Z" fill="#424242"/>
<path d="M355.839 310.128C355.272 312.805 353.838 315.321 352.201 317.481C350.459 319.785 348.453 321.198 345.839 322.37C340.516 324.743 334.829 326.198 329.02 326.671C318.006 327.582 305.969 325.287 297.624 317.574C294.842 315.004 292.098 311.52 292.076 307.546C292.055 302.351 295.543 298.334 300.005 296.094C302.243 294.983 304.647 294.243 307.122 293.903C310.293 293.454 313.386 292.524 316.567 292.132C322.259 291.428 328.012 291.361 333.72 291.93C339.602 292.526 345.952 293.612 350.7 297.394C354.52 300.453 356.882 305.198 355.839 310.128Z" fill="#2E4A74"/>
<path d="M385.003 301.228L384.924 301.117C379.952 294.301 370.906 285.98 361.757 287.259C355.604 288.123 352.261 294.707 351.017 300.187C349.575 306.487 350.154 313.102 350.897 319.455C351.512 324.726 352.639 329.983 353.482 334.998C355.45 346.689 357.213 359.806 356.207 371.656C355.378 381.401 354.393 391.211 353.621 400.663C352.961 408.744 352.449 416.86 351.601 424.919C351.147 429.265 350.077 434.022 350.56 438.398C350.933 441.762 352.903 445.313 356.353 445.546C357.36 445.613 358.311 444.051 358.826 443.35C359.916 441.858 361.017 440.128 361.608 438.328C369.369 414.688 378.398 391.591 384.784 367.449C388.309 354.118 392.312 339.991 392.696 326.05C392.919 317.157 390.216 308.436 385.003 301.228Z" fill="#2E4A74"/>
<path d="M366.566 173.387C364.812 177.599 360.129 179.502 355.929 180.314C351.604 181.153 344.956 181.605 341.993 177.549C340.792 175.898 339.35 173.416 340.347 171.427C340.811 170.514 341.582 169.786 342.181 168.962C346.056 163.625 346.851 156.633 346.722 150.22C346.688 148.527 346.722 147.998 348.5 148.231C349.838 148.406 351.229 148.745 352.546 149.046C355.1 149.627 357.491 150.651 358.634 153.178C359.485 155.06 359.651 157.169 359.85 159.228C360.367 164.495 362.546 169.605 366.486 173.243L366.566 173.387Z" fill="url(#paint7_linear)"/>
<path d="M371.575 176.341C372.393 175.523 366.665 173.068 366.665 173.068C366.665 173.068 359.8 177.515 354.408 177.64C351.121 177.715 340.48 171.022 340.48 171.022C339.253 171.432 332.706 175.114 335.161 182.888C335.858 193.339 340.821 208.146 341.863 218.568C342.825 228.239 343.019 238.945 345.542 248.311C346.116 251.674 346.729 255.038 347.479 258.354C348.002 260.661 349.204 265.802 352.044 265.894C354.884 265.985 355.938 261.249 356.433 259.005C360.126 242.263 363.224 225.391 365.729 208.39C366.354 204.142 366.942 199.889 367.493 195.632C367.875 192.631 372.087 179.361 371.575 176.341Z" fill="#963298"/>
<path d="M381.254 289.608C381.13 282.842 381.596 276.077 382.647 269.392C384.12 259.973 385.999 250.608 387.035 241.127C388.178 230.646 390.209 220.293 392.042 209.918C392.097 209.608 392.152 209.298 392.205 208.986C393.616 200.977 394.738 192.931 395.569 184.848C395.639 184.166 393.647 183.765 393.479 183.726C386.271 181.989 377.551 180.122 371.343 175.43C370.9 176.948 370.454 178.465 370.004 179.98C369.262 182.47 368.642 184.995 368.015 187.515C367.025 191.511 366.114 195.528 365.225 199.553C363.471 207.441 361.813 215.348 359.939 223.215C356.708 236.804 354.021 250.62 352.796 264.541C352.28 270.399 352.075 276.278 351.835 282.153C351.722 285.084 351.648 288.022 351.451 290.951C351.287 293.378 351.304 295.906 352.38 298.159C353.582 300.682 356.064 301.043 358.558 301.225C359.872 301.317 361.061 301.639 362.402 301.466C365.045 301.115 367.688 300.67 370.196 299.75C370.677 299.572 371.182 299.392 371.679 299.197C375.043 298.887 378.406 298.602 381.77 298.378C381.48 295.461 381.308 292.538 381.254 289.608Z" fill="url(#paint8_linear)"/>
<path d="M355.451 266.158C355.249 264.935 355.004 263.714 354.73 262.503C354.425 260.581 354.077 258.635 353.308 256.883C352.128 252.655 350.78 248.474 349.692 244.243C347.815 236.975 346.768 229.543 345.607 222.138C344.473 214.93 343.476 207.683 342.027 200.533C340.607 193.539 337.943 186.881 336.835 179.81C336.535 178.012 336.592 176.172 337.003 174.396C337.119 173.916 337.354 173.402 337.484 172.883C335.252 174.137 327.914 177.133 323.959 178.649C320.54 179.961 316.821 180.857 313.575 182.606C307.517 185.869 307.964 192.729 307.837 198.945C307.688 206.301 307.976 213.66 308.7 220.982C309.725 231.357 312.114 241.292 314.166 251.463C315.928 260.166 317.682 268.868 319.43 277.571C320.098 280.886 320.766 284.204 321.624 287.472C322.265 289.916 322.678 292.775 324.581 294.418C328.76 298.022 334.017 297.897 339.024 299.015C343.046 299.913 347.205 300.754 351.297 299.786C352.738 299.45 353.433 299.02 353.661 297.487C353.901 295.879 354.084 294.257 354.283 292.643C355.053 286.61 355.499 280.54 355.617 274.459C356.112 271.737 355.888 268.837 355.451 266.158Z" fill="url(#paint9_linear)"/>
<path d="M322.364 221.54C324.86 212.611 325.667 203.279 323.836 193.885C323.188 190.55 322.131 187.066 319.87 184.447C316.429 180.461 311.193 183.914 308.476 186.804C306.261 189.193 304.39 191.878 302.916 194.783C299.723 200.946 297.77 207.645 296.03 214.402C294.182 221.586 292.621 228.873 291.253 236.175C289.908 243.347 288.524 250.858 288.555 258.2C288.555 260.665 288.699 265.245 291.438 266.064C293.091 266.545 295.179 266.499 296.847 266.064C298.433 265.663 299.552 264.173 300.576 262.922C305.023 257.499 308.346 250.882 311.984 244.848C316.374 237.566 320.079 229.716 322.364 221.54Z" fill="url(#paint10_linear)"/>
<path d="M413.048 248.637C413.048 245.874 412.923 243.111 412.747 240.379C412.224 232.165 411.325 223.998 410.104 215.872C409.488 211.739 408.837 207.609 408.153 203.481C407.594 200.117 406.837 196.787 405.335 193.736C402.711 188.399 397.646 184.466 392.067 183.332C389.247 182.758 381.817 181.982 381.791 186.739C381.791 188.64 382.637 190.617 383.081 192.434C383.55 194.356 383.927 196.278 384.283 198.2C384.218 200.516 384.23 202.84 384.357 205.144C384.799 213.073 386.368 220.807 388.398 228.45C390.08 234.75 392.055 241.062 394.862 246.917C396.01 250.48 396.993 254.111 397.125 257.828C397.303 262.737 395.347 266.36 393.394 270.711C392.418 272.873 390.27 279.137 392.913 281.115C393.069 282.016 393.564 282.77 394.679 282.835C397.596 283.008 400.446 280.158 402.127 278.119C403.422 276.562 404.605 274.889 406.101 273.51C407.394 272.309 408.857 271.828 409.823 270.243C411.56 267.405 411.709 263.844 412.212 260.632C412.806 256.662 413.085 252.651 413.048 248.637Z" fill="url(#paint11_linear)"/>
<path d="M411.089 261.328C412.369 263.971 412.22 266.905 411.42 269.183C409.625 274.274 406.552 278.871 403.424 282.773C396.713 291.148 387.72 296.934 377.794 300.058C377.468 300.161 375.586 300.903 375.175 300.214C373.974 298.195 375.399 295.497 375.944 293.835C376.593 291.864 377.308 289.937 378.09 288.054C379.657 284.271 381.526 280.621 383.679 277.138C385.951 273.44 388.608 269.993 391.607 266.855C394.572 263.786 397.696 260.807 401.668 259.337C404.121 258.431 409.193 257.412 411.089 261.328Z" fill="#963298"/>
<path d="M373.146 431.444C370.909 431.067 368.239 433.331 366.507 434.457C364.301 435.899 362.076 437.3 359.909 438.782C359.84 437.917 359.717 436.807 359.172 436.423C358.451 435.913 356.889 436.572 356.288 436.995C354.217 438.436 352.925 441.202 352.204 443.549C351.776 444.945 350.308 449.904 352.607 450.366C353.785 451.382 356.803 449.047 357.629 448.443C359.551 447.031 361.582 445.959 363.672 444.839C366.558 443.322 369.118 441.25 371.204 438.744C371.812 438.253 372.356 437.688 372.824 437.062C373.816 435.721 376.264 431.973 373.146 431.444Z" fill="#424242"/>
<path d="M339.543 392.271C339.515 394.053 339.392 395.8 338.604 397.422C338.001 398.662 337.035 400.37 335.764 401.064C334.056 401.997 332.573 399.642 331.639 398.549C330.449 397.155 329.342 395.697 328.294 394.197C323.513 387.359 319.351 380.022 315.238 372.77C311.208 365.661 307.427 358.409 304.058 350.963C300.766 343.686 297.852 336.237 295.584 328.577C294.397 324.526 293.443 320.411 292.725 316.252C292.403 314.406 292.362 312.575 292.191 310.713C292.001 308.657 291.951 306.564 292.458 304.543C293.455 300.48 296.742 297.763 300.954 297.76C305.166 297.758 309.065 300.456 312.078 303.15C315.788 306.47 318.604 310.713 320.591 315.257C322.242 319.032 323.409 322.989 324.623 326.922C325.927 331.146 327.208 335.382 328.4 339.639C330.831 348.316 332.847 357.138 334.839 365.925C335.838 370.327 336.814 374.733 337.722 379.154C338.592 383.462 339.608 387.847 339.543 392.271Z" fill="#2E4A74"/>
<path d="M353.372 253.344C355.95 258.212 348.74 260.605 344.05 262.294C342.747 262.775 341.524 263.126 340.551 263.392C335.337 264.834 329.999 265.91 324.753 267.225C319.405 268.565 314.021 269.8 308.557 270.588C301.885 271.55 294.549 273.145 290.123 265.906C289.463 264.824 288.951 263.606 288.879 262.335C288.651 258.155 293.526 256.951 296.411 255.819C305.263 252.347 314.749 250.723 324.247 250.384C329.029 250.223 333.816 250.361 338.581 250.797C342.793 251.177 348.149 251.718 352.36 252.1C353.028 252.167 353.23 253.087 353.372 253.344Z" fill="#963298"/>
<path d="M549.442 259H153.922V268.75H549.442V259Z" fill="#999BC7"/>
<path d="M367.985 158.318C370.693 153.637 369.576 148.467 368.706 143.483C368.257 140.927 367.483 138.498 366.08 136.458C365.08 135.617 364.028 134.923 362.598 134.709C360.527 134.399 358.228 134.694 356.19 135.084C353.936 135.516 351.529 136.285 350.109 138.207C349.169 139.483 348.809 140.992 348.807 142.532C348.96 143.195 349.074 143.867 349.15 144.543C349.15 144.639 348.968 144.622 348.934 144.562C348.317 143.402 348.338 141.11 347.127 140.324C346.368 139.829 344.929 139.903 344.261 140.475C343.962 140.729 343.695 141.018 343.465 141.335C342.98 141.965 342.692 142.724 342.637 143.517C342.502 145.237 343.019 147.018 343.775 148.546C344.496 149.988 345.647 151.025 346.483 152.359C349.645 157.405 354.201 163.308 360.972 163.025C364.059 162.885 366.498 160.886 367.985 158.318Z" fill="#F99863"/>
<path d="M353.771 258.959C354.535 258.911 355.302 258.796 356.07 258.719C359.112 258.385 362.032 258.157 365.095 258.316C367.551 258.443 370.025 258.51 372.474 258.736C373.658 258.847 374.823 258.962 376.015 258.976C376.325 258.976 376.621 258.976 376.904 259.01C377.558 258.529 378.442 256.679 378.238 256.619C373.5 255.279 368.677 254.382 363.822 253.616C361.618 253.27 359.405 252.982 357.19 252.715C355.052 252.458 352.704 251.884 350.556 252.217C349.064 252.458 348.074 253.923 348.074 255.379C348.074 257.542 349.907 258.601 351.832 258.911C352.474 259.001 353.125 259.017 353.771 258.959Z" fill="#F99863"/>
<path d="M379.937 300.846C378.094 303.414 375.98 305.777 373.633 307.895C371.73 309.577 368.683 312.076 365.896 311.045C363.183 310.048 365.454 306.516 366.326 304.926C367.657 302.484 369.226 300.181 371.011 298.049C370.175 298.707 369.356 299.39 368.582 300.132C367.266 301.398 368.501 298.791 368.774 298.373C370.959 295.06 378.791 287.561 381.965 294.173C383.143 296.624 381.319 298.943 379.937 300.846Z" fill="#F99863"/>
<path d="M229.1 439.329C228.736 440.569 224.515 439.949 223.629 439.808C215.843 438.522 207.662 437.742 199.763 438.024C199.627 438.024 197.13 438.113 197.182 437.612C197.503 435.177 197.679 432.725 197.709 430.269C197.709 429.041 197.661 427.82 197.709 426.592C197.757 425.363 197.556 423.989 198.162 422.924C198.286 422.704 198.961 422.613 199.543 422.639C199.716 422.487 199.898 422.347 200.089 422.22C200.759 421.741 202.668 421.789 203.352 422.22C204.813 423.137 204.679 424.207 205.251 425.708C205.766 427.062 206.493 428.326 207.406 429.45C209.123 431.597 211.444 433.182 214.069 433.999C216.303 434.675 230.254 435.388 229.1 439.329Z" fill="#001433"/>
<path d="M221.765 334.257C221.142 329.502 219.454 325.197 214.992 321.261C210.988 317.737 206.652 314.61 202.044 311.923C192.62 306.417 183.055 304.293 172.698 301.518C161.661 298.564 150.738 296.095 139.277 295.018C126.636 293.821 113.305 290.996 100.654 293.651C97.0004 294.417 93.2654 297.149 93.2559 300.884C93.2559 302.866 94.2949 304.688 95.4106 306.319C108.55 325.405 134.295 326.909 155.139 330.857C164.548 332.636 176.646 332.952 184.693 338.588C195.342 346.043 193.051 360.993 192.632 372.25C192.422 377.886 191.892 383.503 191.605 389.127C191.32 394.835 191.284 400.574 191.098 406.289C190.894 412.628 189.644 419.009 191.55 425.22C191.816 426.084 194.334 426.01 194.938 426.024C196.262 426.06 198.05 426.156 199.219 425.437C202.331 423.546 206.03 422.311 209.708 422.703C210.139 422.749 214.917 423.01 214.769 422.095C214.259 419.028 213.079 415.071 213.823 411.989C214.7 408.367 217.087 404.89 218.114 401.201C220.269 393.477 220.834 385.411 221.226 377.441C221.753 366.945 222.032 356.44 222.064 345.928C222.091 341.75 222.237 337.874 221.765 334.257ZM140.862 300.738H140.822L140.934 300.759L141.039 300.778L140.862 300.738Z" fill="url(#paint12_linear)"/>
<path d="M202.432 259.315C199.825 257.892 197.203 256.494 194.586 255.091C192.862 254.169 191.278 253.025 189.266 253.047C187.009 253.071 184.804 254.066 182.663 254.646C179.905 255.388 177.274 255.201 174.544 255.094C174.233 255.062 173.921 255.053 173.608 255.067H173.273C173.259 256.082 173.173 257.076 173.074 258.101C173.041 258.441 173.038 258.793 173.031 259.145C173.35 259.17 173.67 259.176 173.989 259.164C179.294 259.014 184.598 259.073 189.898 259.341C192.441 259.465 194.977 259.659 197.514 259.872C199.157 260.009 200.754 260.018 202.332 259.501C202.355 259.482 202.564 259.386 202.432 259.315Z" fill="#F99863"/>
<path d="M275.456 437.044C274.781 437.784 273.591 437.762 272.677 437.796C269.227 437.906 265.808 438.062 262.382 438.514C259.167 438.947 255.979 439.562 252.834 440.355C250.2 441.016 247.731 441.615 245.062 440.798C242.447 439.994 242.797 437.521 242.349 435.22C242.045 433.661 241.631 432.129 241.284 430.589C241.044 429.522 240.58 428.415 240.357 427.312C240.016 427.163 239.711 426.943 239.464 426.665C239.216 426.388 239.03 426.061 238.921 425.705C238.782 425.226 241.734 425.542 241.902 425.571C242.935 425.729 243.945 426.014 244.909 426.419C245.433 426.535 245.95 426.682 246.458 426.859C247.789 427.338 248.261 428.296 249.106 429.335C250.961 431.607 253.64 432.56 256.492 432.67C262.441 432.909 269.325 431.815 274.796 434.844C275.662 435.342 276.258 436.149 275.456 437.044Z" fill="#001433"/>
<path d="M251.404 422.893C243.4 400.052 239.586 376.052 234.128 352.52C231.803 342.502 230.742 330.905 225.03 322.113C216.054 308.275 198.248 300.972 182.892 297.063C162.78 291.941 141.654 291.613 121.248 289.585C115.538 289.016 109.823 288.475 104.117 287.895C100.212 287.5 93.0442 285.036 89.4936 287.572C85.8616 290.162 87.4849 298.279 88.2223 302.198C90.2909 313.195 96.7361 323.478 106.203 329.569C113.759 334.431 122.469 335.964 131.342 335.935C140.631 335.901 149.873 335.035 159.115 334.067C167.494 333.194 176.15 331.405 184.575 332.631C194.676 334.106 200.788 340.022 205.165 348.859C213.209 365.08 218.29 382.435 223.641 399.673C225.118 404.424 226.617 409.171 228.19 413.89C229.49 417.764 230.781 421.746 233.263 425.054C235.689 428.275 238.983 429.69 242.957 429.874C245.428 429.995 247.9 429.683 250.262 428.952C251.331 428.884 252.391 428.719 253.43 428.457C252.732 426.607 252.057 424.752 251.404 422.893Z" fill="url(#paint13_linear)"/>
<path d="M178.562 259.27C178.865 257.674 179.168 256.078 179.469 254.481C179.435 254.393 179.377 254.316 179.302 254.258C179.227 254.199 179.137 254.163 179.043 254.151C174.695 252.844 170.342 251.537 165.918 250.526C161.493 249.516 157.088 249.02 152.609 248.52C148.605 248.075 144.794 247.194 141.246 245.225C138.173 243.482 135.376 241.293 132.945 238.73C121.709 227.104 118.168 210.857 110.834 196.901C109.91 195.148 108.919 193.429 107.868 191.756C106.956 190.319 106.001 188.521 104.581 187.513C103.056 186.436 101.018 186.316 99.213 186.316C97.3311 186.316 95.32 186.529 93.6943 187.573C90.2371 189.8 90.6872 194.169 91.5826 197.629C92.5887 201.441 93.8166 205.191 95.2601 208.86C100.945 223.391 109.507 236.624 120.433 247.763C123.428 250.809 126.579 253.869 130.299 256.021C132.326 257.176 134.511 258.027 136.785 258.547C150.717 257.661 164.637 258.319 178.562 259.27Z" fill="url(#paint14_linear)"/>
<path d="M104.915 171.98C101.824 172.741 98.5795 171.807 96.001 170.043C94.0282 168.695 90.3387 165.336 90.8439 162.621C91.3227 160.013 92.1727 157.487 92.9987 154.959C94.0306 151.772 95.1199 148.595 95.8717 145.327C96.0345 144.609 96.0513 143.651 96.7264 143.249C97.4016 142.847 98.6657 142.888 99.4223 142.935C101.852 143.098 103.492 144.324 103.861 146.79C104.781 153.051 105.702 159.369 106.31 165.666C106.519 167.852 107.764 171.283 104.915 171.98Z" fill="url(#paint15_linear)"/>
<path d="M117.689 141.209C117.644 141.042 117.598 140.874 117.551 140.706C116.832 138.188 116.095 135.533 114.199 133.646C111.373 130.849 107.648 130.112 103.851 130.787C99.7544 131.505 97.0058 133.696 96.1751 137.917C94.5302 146.263 99.4288 155.191 107.275 158.38C109.949 159.467 113.799 160.083 116.478 158.713C119.813 157.006 119.224 151.887 118.997 148.835C118.799 146.258 118.361 143.705 117.689 141.209Z" fill="#F99863"/>
<path d="M117.704 233.032C117.973 218.872 120.664 204.237 118.341 190.245C114.614 180.532 109.205 171.479 101.807 164.289C99.4701 161.771 96.3744 160.775 93.068 160.595C92.7646 160.639 92.464 160.7 92.1678 160.779C91.4017 160.748 90.7002 160.81 90.4919 161.074C86.6899 166.03 83.1991 171.388 80.7977 177.177C78.4194 182.923 76.4981 188.847 75.0516 194.894C72.0613 207.361 71.0437 220.115 71.4148 232.917C71.8195 246.825 73.7468 260.644 76.3254 274.305C77.5057 280.564 78.4371 287.126 80.4266 293.193C81.1808 295.482 82.2797 297.773 84.0395 299.466C86.1416 301.487 89.0362 302.322 91.8614 302.679C105.334 304.377 119.728 297.931 129.161 288.568C129.206 288.491 129.252 288.417 129.3 288.343C121.533 270.824 117.336 252.257 117.704 233.032Z" fill="#FED337"/>
<path d="M139.411 249.526C137.381 250.526 134.623 250.469 132.446 250.191C130.818 250.014 129.277 249.366 128.012 248.326C125.139 245.949 122.556 243.059 120.059 240.298C109.874 229.007 101.597 216.04 93.4974 203.219C89.1878 196.381 84.7633 186.441 89.0059 178.581C92.6211 171.877 100.737 169.789 107.796 171.398C117.449 173.61 122.024 187.487 125.728 195.34C132.604 209.923 137.699 225.136 141.53 240.777C142.272 243.835 142.797 247.852 139.411 249.526Z" fill="url(#paint16_linear)"/>
<path d="M188.135 212.265C184.321 216.648 180.287 220.834 176.049 224.808C172.242 228.375 168.278 231.765 164.155 234.976C160.199 238.053 156.292 241.175 152.069 243.876C146.457 247.467 140.086 250.903 133.186 250.077C131.433 249.866 129.678 249.2 128.481 247.905C126.163 245.393 127.387 242.159 129.484 239.959C141.728 227.181 156.716 217.168 172.669 209.624C175.199 208.427 177.854 206.899 180.677 206.591C184.702 206.148 186.016 209.1 188.135 211.894C188.307 212.016 188.307 212.14 188.135 212.265Z" fill="url(#paint17_linear)"/>
<path d="M120.087 131.807C119.847 128.654 117.283 127.258 114.408 126.935C110.577 126.509 107.534 127.471 104.216 129.257C102.444 130.215 100.687 129.976 98.7521 130.287C97.372 130.492 96.0387 130.938 94.8137 131.606C94.2199 131.936 93.4226 132.324 92.9797 132.87C92.5368 133.416 92.3452 134.266 91.9047 134.867C91.524 135.389 91.0452 135.746 90.8417 136.378C90.5711 137.218 90.6453 138.248 90.8273 139.093C91.2199 140.903 92.8289 142.373 93.1138 144.082C93.2431 144.865 93.0946 145.725 93.1449 146.522C93.2383 147.562 93.2526 148.607 93.188 149.649C93.0731 150.922 92.1896 153.001 93.2718 154.068C94.1936 154.976 96.3531 154.935 97.5239 154.859C98.6324 154.787 99.717 154.521 100.258 153.448C100.976 152.012 100.976 149.857 100.385 148.397C99.6069 146.481 98.0746 144.99 98.0746 142.804C98.0746 141.822 98.6588 140.735 99.6404 140.374C101.022 139.864 101.81 141.508 102.035 142.605C102.037 142.621 102.046 142.635 102.059 142.646C102.035 142.899 102.023 143.156 102.008 143.405C101.989 143.716 103.828 143.685 104.007 143.405C104.826 142.124 105.535 140.599 106.758 139.727C107.335 139.318 107.932 138.939 108.52 138.549C109.057 138.634 109.598 138.688 110.141 138.712C112.016 138.825 113.994 138.635 115.729 137.886C118.322 136.763 120.312 134.838 120.087 131.807Z" fill="#424242"/>
<path d="M197.266 201.095C195.458 205.424 191.493 209.106 187.339 211.21C186.281 211.749 184.885 212.025 183.748 211.524C181.646 210.605 181.785 207.983 183.059 206.456C183.175 206.412 183.3 206.398 183.422 206.417C183.87 205.699 184.351 205.069 184.641 204.681C186.24 202.551 188.091 200.571 190.296 199.055C191.699 198.097 193.052 197.53 194.771 197.76C195.605 197.855 196.404 198.149 197.101 198.617C198.01 199.294 197.661 200.144 197.266 201.095Z" fill="#F99863"/>
<path d="M184.55 196.733C184.26 196.408 183.994 196.329 183.831 196.769C183.649 197.248 183.831 197.945 183.831 198.445C183.827 199.197 183.779 199.949 183.688 200.696C183.274 204.071 181.054 207.665 182.936 210.969C182.967 211.022 183.07 211.048 183.199 211.058C183.343 211.185 183.512 211.28 183.695 211.338C183.959 211.428 184.239 211.464 184.517 211.442C184.796 211.42 185.067 211.342 185.313 211.211C185.424 211.139 184.7 211.067 184.645 211.07C183.369 211.12 185.732 204.526 185.874 204.088C186.339 202.613 186.378 201.036 185.986 199.539C185.895 199.245 185.165 197.425 184.55 196.733Z" fill="#F99863"/>
<path d="M107.716 166.686C106.198 164.514 103.969 162.944 101.681 161.61C99.9948 160.587 98.1938 159.766 96.3151 159.166C94.4295 158.566 92.4303 158.414 90.4756 158.72C90.0399 159.997 89.6034 161.266 89.166 162.525C93.8251 162.506 98.6997 163.14 102.53 165.793C103.874 166.746 105.078 167.882 106.107 169.169C106.915 170.17 107.658 171.221 108.334 172.315C108.507 171.272 108.761 170.244 109.093 169.241C108.73 168.341 108.268 167.484 107.716 166.686Z" fill="#F5F5F5"/>
<path d="M60.9378 341.454L38.0156 443.373H42.4042L68.6974 341.454H60.9378Z" fill="#8283A8"/>
<path d="M111.461 342.895L107.793 449.011H112.052L119.086 341.454L111.461 342.895Z" fill="#8283A8"/>
<path d="M179.158 337.18L205.283 440.097L201.12 441L171.4 337.393L179.158 337.18Z" fill="#8283A8"/>
<path d="M131.679 340.503L157.805 443.418L153.644 444.323L123.922 340.716L131.679 340.503Z" fill="#8283A8"/>
<path d="M112.805 337.18L187.547 330.943L188.342 337.431L115.843 345.727L112.805 337.18Z" fill="#999BC7"/>
<path d="M0 220.381H45.9592L112.805 337.18L46.4476 337.431L0 220.381Z" fill="#8283A8"/>
<path d="M46.4473 337.431L49.9643 345.727H115.843L112.805 337.18L46.4473 337.431Z" fill="#8283A8"/>
<path d="M494.949 26.1658C490.593 21.2059 484.788 17.1639 478.228 16.421C472.814 15.8071 467.255 17.5331 462.847 20.7329C458.439 23.9328 455.137 28.5324 453.061 33.5709C449.721 41.6832 449.557 51.216 453.325 59.1326C457.092 67.0492 464.947 73.0841 473.676 73.95C490.716 75.6404 505.369 57.4066 502.569 41.1242C501.611 35.5222 498.665 30.3933 494.949 26.1658Z" fill="#2EB67D"/>
<path d="M453.364 45.7267C452.966 51.4873 454.031 57.589 457.609 62.1159C460.563 65.857 465.057 68.2472 469.768 69.0153C474.479 69.7834 479.36 68.9975 483.767 67.1826C490.865 64.2615 496.882 58.4965 499.484 51.2768C502.086 44.0571 500.982 35.4629 496.149 29.5036C486.704 17.8771 466.345 20.0049 457.96 31.7737C455.073 35.8232 453.705 40.8113 453.364 45.7267Z" fill="white"/>
<path d="M479.378 37.7805C479.477 36.271 479.585 34.7601 479.674 33.2491C479.762 31.7663 479.971 30.2079 479.833 28.7192C479.833 28.694 479.664 28.8986 479.654 28.9475C479.074 32.0006 478.992 35.1871 478.736 38.2802L478.349 42.9346C478.242 44.2336 478.031 45.574 477.984 46.8907C477.194 47.039 476.391 47.2762 475.677 47.4112L471.346 48.2267C468.43 48.7768 465.388 49.2053 462.554 50.0891C462.539 50.0891 462.505 50.1558 462.516 50.1558C465.198 50.1558 468.002 49.5241 470.655 49.1179L474.688 48.4995C476.083 48.286 477.667 48.2326 478.988 47.7374C479.149 47.6766 479.66 46.7958 479.568 46.7869C479.294 46.7609 479.019 46.7609 478.746 46.7869V46.7691C479.204 43.8288 479.187 40.7475 479.378 37.7805Z" fill="#2E4A74"/>
<path d="M470.693 64.521C470.693 64.521 470.651 64.5684 470.648 64.5773C470.465 65.1716 470.316 65.7761 470.203 66.3878C470.129 66.7986 470 67.2389 470.072 67.6571C470.072 67.6956 470.232 67.4821 470.242 67.4525C470.543 66.5435 470.76 65.4818 470.693 64.521Z" fill="#2E4A74"/>
<path d="M479.202 65.301C479.123 64.9881 479.093 64.613 478.905 64.3505C478.892 64.3312 478.803 64.478 478.803 64.4988C478.778 65.2565 478.998 66.0794 479.279 66.7778C479.288 66.8015 479.403 66.6533 479.399 66.6132C479.37 66.171 479.304 65.732 479.202 65.301Z" fill="#2E4A74"/>
<path d="M487.668 61.8031C487.407 61.4161 487.167 60.8659 486.66 60.8051C486.642 60.8051 486.615 60.8556 486.615 60.8689C486.636 61.4235 486.876 61.8031 487.164 62.2612C487.407 62.6497 487.641 63.2102 488.07 63.4163C488.141 63.4519 488.332 63.1198 488.319 63.0545C488.231 62.5771 487.935 62.2019 487.668 61.8031Z" fill="#2E4A74"/>
<path d="M495.099 56.8669C494.889 56.5214 494.577 56.3257 494.239 56.1255C493.925 55.914 493.589 55.7384 493.235 55.6021C493.146 55.5724 492.869 56.001 492.939 56.0662C493.217 56.3221 493.522 56.5464 493.849 56.7349C494.184 56.9485 494.499 57.1412 494.904 57.1798C494.967 57.1827 495.135 56.9262 495.099 56.8669Z" fill="#2E4A74"/>
<path d="M498.79 49.622C498.369 49.4788 497.935 49.3795 497.494 49.3254C497.025 49.2557 496.669 49.1683 496.211 49.3388C496.202 49.3388 496.179 49.3729 496.185 49.3818C496.434 49.7465 496.996 49.7213 497.406 49.7881C497.809 49.8565 498.218 49.8887 498.627 49.8844C498.679 49.8874 498.821 49.6339 498.79 49.622Z" fill="#2E4A74"/>
<path d="M498.463 43.59C498.173 43.4916 497.87 43.4366 497.564 43.4269C497.426 43.4102 497.287 43.4037 497.148 43.4077C496.919 43.4344 496.804 43.5989 496.566 43.6375C496.566 43.6375 496.534 43.679 496.54 43.6805C496.603 43.7388 496.653 43.8095 496.688 43.8881C496.715 43.9225 496.751 43.9485 496.793 43.963C496.834 43.9775 496.878 43.9798 496.921 43.9696C497.057 43.9889 497.194 43.9993 497.332 44.0008C497.636 44.0163 497.942 43.9968 498.242 43.9429C498.315 43.9341 498.51 43.6049 498.463 43.59Z" fill="#2E4A74"/>
<path d="M498.184 38.0489C497.528 37.9836 496.667 38.0489 496.095 38.3825C496.095 38.3825 496.059 38.4181 496.068 38.427C496.264 38.6227 496.661 38.5115 496.909 38.4833C497.295 38.447 497.677 38.3756 498.05 38.2698C498.114 38.2094 498.16 38.1331 498.184 38.0489Z" fill="#2E4A74"/>
<path d="M496.979 32.4024C496.234 32.6843 495.535 33.0734 494.903 33.5575C494.896 33.5575 494.859 33.6228 494.869 33.6213C495.57 33.5234 496.285 32.9956 496.871 32.616C496.921 32.5529 496.958 32.4802 496.979 32.4024Z" fill="#2E4A74"/>
<path d="M492.795 28.9772C492.647 29.0557 492.509 29.1497 492.381 29.2575C492.218 29.3726 492.064 29.5 491.92 29.6385C491.92 29.6385 491.88 29.7008 491.89 29.6993C492.033 29.6515 492.163 29.5747 492.274 29.4739C492.431 29.3724 492.579 29.26 492.719 29.1373C492.755 29.0894 492.78 29.035 492.795 28.9772Z" fill="#2E4A74"/>
<path d="M466.41 63.1777C465.793 63.6002 465.249 64.2764 464.805 64.874C464.786 64.9006 464.639 65.1705 464.731 65.1082C465.015 64.8875 465.272 64.6348 465.498 64.355C465.803 64.0139 466.091 63.6774 466.368 63.317C466.38 63.2948 466.462 63.1435 466.41 63.1777Z" fill="#2E4A74"/>
<path d="M459.22 59.4395C459.16 59.5073 459.117 59.588 459.094 59.6753C459.802 59.4362 460.469 59.0858 461.067 58.6374C461.076 58.6374 461.11 58.5721 461.101 58.5736C460.391 58.7056 459.823 59.0614 459.22 59.4395Z" fill="#2E4A74"/>
<path d="M459.074 52.8337C458.516 52.8708 457.963 52.9494 457.4 52.9316C457.299 52.9316 457.011 53.3764 457.084 53.418C457.81 53.7798 458.501 53.4031 459.044 52.8931C459.049 52.8871 459.086 52.8323 459.074 52.8337Z" fill="#2E4A74"/>
<path d="M457.309 46.9737C456.91 46.9327 456.508 46.9482 456.114 47.0197C456.066 47.0197 455.894 47.2836 455.939 47.3074C456.274 47.5079 456.644 47.6404 457.03 47.6973C457.487 47.7596 457.837 47.6707 458.286 47.5491C458.297 47.5491 458.337 47.4942 458.326 47.4823C457.982 47.1339 457.775 47.0494 457.309 46.9737Z" fill="#2E4A74"/>
<path d="M458.349 40.8113C458.206 40.7164 458.054 40.635 457.896 40.5681C457.714 40.5157 457.527 40.4883 457.338 40.4866C457.27 40.4866 457.098 40.7372 457.136 40.795C457.226 40.9532 457.339 41.0975 457.47 41.2235C457.61 41.3263 457.759 41.4157 457.915 41.4904C458.257 41.6758 458.518 41.6743 458.896 41.6298C458.91 41.6298 458.944 41.5794 458.938 41.566C458.799 41.228 458.671 41.0056 458.349 40.8113Z" fill="#2E4A74"/>
<path d="M460.049 33.9697C460.007 33.9697 459.893 34.1343 459.92 34.1699C460.116 34.4066 460.361 34.5974 460.638 34.7289C460.916 34.8603 461.219 34.9292 461.526 34.9306C461.535 34.9306 461.557 34.895 461.553 34.8861C461.274 34.3968 460.609 34.0201 460.049 33.9697Z" fill="#2E4A74"/>
<path d="M466.601 29.0588C466.49 28.8734 466.335 28.7029 466.206 28.5294C465.949 28.1891 465.65 27.8831 465.316 27.619C465.289 27.5967 465.15 27.7984 465.168 27.8399C465.363 28.2191 465.601 28.5748 465.876 28.9001C466.002 29.0484 466.127 29.1878 466.254 29.3301C466.402 29.4793 466.581 29.5933 466.778 29.6637C466.787 29.6637 466.811 29.6282 466.808 29.6207C466.758 29.4269 466.689 29.2386 466.601 29.0588Z" fill="#2E4A74"/>
<path d="M472.217 26.1807C472.186 26.0457 472.132 25.9093 472.088 25.7788C472.02 25.5556 471.891 25.3557 471.716 25.202C471.677 25.1709 471.551 25.4007 471.553 25.4363C471.561 25.7301 471.622 26.0199 471.734 26.2919C471.778 26.4137 471.832 26.5317 471.895 26.6448C471.897 26.6807 471.911 26.715 471.934 26.742C471.958 26.769 471.99 26.787 472.026 26.7931C472.092 26.7928 472.155 26.8177 472.204 26.8627C472.204 26.8627 472.236 26.8301 472.233 26.8212C472.184 26.6033 472.262 26.3972 472.217 26.1807Z" fill="#2E4A74"/>
<path d="M477.296 24.0558C477.236 24.1049 477.189 24.1681 477.16 24.2397C477.118 24.5418 477.102 24.8469 477.112 25.1516C477.129 25.3859 477.195 25.6157 477.219 25.8515C477.219 25.8515 477.264 25.8085 477.264 25.7907C477.302 25.1917 477.394 24.6519 477.296 24.0558Z" fill="#2E4A74"/>
<path d="M482.151 24.0796C481.823 24.7557 481.486 25.4734 481.352 26.2148C481.352 26.2415 481.399 26.1703 481.403 26.1629C481.788 25.4529 482.091 24.7018 482.306 23.9239C482.321 23.8498 482.161 24.0529 482.151 24.0796Z" fill="#2E4A74"/>
<path d="M487.13 25.4556C486.85 25.5757 486.632 25.9924 486.459 26.2266C486.197 26.5592 485.958 26.9089 485.744 27.2735C485.744 27.2839 485.665 27.4381 485.732 27.3876C485.99 27.1603 486.218 26.9018 486.413 26.6181C486.684 26.3078 486.92 25.9681 487.115 25.6053C487.121 25.592 487.193 25.4319 487.13 25.4556Z" fill="#2E4A74"/>
<defs>
<linearGradient id="paint0_linear" x1="54190.8" y1="32731.6" x2="52708.7" y2="36376.1" gradientUnits="userSpaceOnUse">
<stop stop-color="#E88E5C"/>
<stop offset="0.13" stop-color="#F0935F"/>
<stop offset="0.36" stop-color="#F79762"/>
<stop offset="1" stop-color="#F99863"/>
</linearGradient>
<linearGradient id="paint1_linear" x1="524.595" y1="222.574" x2="576.556" y2="252.033" gradientUnits="userSpaceOnUse">
<stop stop-color="#E0E0E0"/>
<stop offset="1" stop-color="#E6E6E6"/>
</linearGradient>
<linearGradient id="paint2_linear" x1="517.386" y1="276.875" x2="600.285" y2="358.41" gradientUnits="userSpaceOnUse">
<stop stop-color="#424242"/>
<stop offset="1" stop-color="#263238"/>
</linearGradient>
<linearGradient id="paint3_linear" x1="626.471" y1="146.474" x2="554.871" y2="316.678" gradientUnits="userSpaceOnUse">
<stop stop-color="#FED337"/>
<stop offset="1" stop-color="#FDBB00"/>
</linearGradient>
<linearGradient id="paint4_linear" x1="555.928" y1="284.379" x2="524.593" y2="445.149" gradientUnits="userSpaceOnUse">
<stop stop-color="#424242"/>
<stop offset="1" stop-color="#263238"/>
</linearGradient>
<linearGradient id="paint5_linear" x1="574.1" y1="288.038" x2="528.066" y2="431.355" gradientUnits="userSpaceOnUse">
<stop stop-color="#424242"/>
<stop offset="1" stop-color="#263238"/>
</linearGradient>
<linearGradient id="paint6_linear" x1="55990.8" y1="36145" x2="57266.7" y2="36715.3" gradientUnits="userSpaceOnUse">
<stop stop-color="#E88E5C"/>
<stop offset="0.13" stop-color="#F0935F"/>
<stop offset="0.36" stop-color="#F79762"/>
<stop offset="1" stop-color="#F99863"/>
</linearGradient>
<linearGradient id="paint7_linear" x1="356.71" y1="161.22" x2="346.979" y2="174.135" gradientUnits="userSpaceOnUse">
<stop stop-color="#E88E5C"/>
<stop offset="0.13" stop-color="#F0935F"/>
<stop offset="0.36" stop-color="#F79762"/>
<stop offset="1" stop-color="#F99863"/>
</linearGradient>
<linearGradient id="paint8_linear" x1="402.261" y1="178.387" x2="344.981" y2="246.714" gradientUnits="userSpaceOnUse">
<stop stop-color="#963298"/>
<stop offset="1" stop-color="#4A154B"/>
</linearGradient>
<linearGradient id="paint9_linear" x1="359.301" y1="172.659" x2="275.836" y2="267.58" gradientUnits="userSpaceOnUse">
<stop stop-color="#963298"/>
<stop offset="1" stop-color="#4A154B"/>
</linearGradient>
<linearGradient id="paint10_linear" x1="306.694" y1="182.643" x2="306.694" y2="266.408" gradientUnits="userSpaceOnUse">
<stop stop-color="#963298"/>
<stop offset="1" stop-color="#4A154B"/>
</linearGradient>
<linearGradient id="paint11_linear" x1="397.421" y1="182.901" x2="397.421" y2="282.843" gradientUnits="userSpaceOnUse">
<stop stop-color="#963298"/>
<stop offset="1" stop-color="#4A154B"/>
</linearGradient>
<linearGradient id="paint12_linear" x1="157.681" y1="292.549" x2="93.284" y2="350.028" gradientUnits="userSpaceOnUse">
<stop stop-color="#424242"/>
<stop offset="1" stop-color="#2E4A74"/>
</linearGradient>
<linearGradient id="paint13_linear" x1="214.871" y1="256.943" x2="124.041" y2="358.41" gradientUnits="userSpaceOnUse">
<stop stop-color="#2E4A74"/>
<stop offset="1" stop-color="#424242"/>
</linearGradient>
<linearGradient id="paint14_linear" x1="135.206" y1="186.316" x2="114.56" y2="320.979" gradientUnits="userSpaceOnUse">
<stop stop-color="#F5F5F5"/>
<stop offset="1" stop-color="#E0E0E0"/>
</linearGradient>
<linearGradient id="paint15_linear" x1="25824.1" y1="34994.3" x2="24887.7" y2="35176.2" gradientUnits="userSpaceOnUse">
<stop stop-color="#E88E5C"/>
<stop offset="0.13" stop-color="#F0935F"/>
<stop offset="0.36" stop-color="#F79762"/>
<stop offset="1" stop-color="#F99863"/>
</linearGradient>
<linearGradient id="paint16_linear" x1="114.684" y1="170.882" x2="114.684" y2="250.367" gradientUnits="userSpaceOnUse">
<stop stop-color="#F5F5F5"/>
<stop offset="1" stop-color="#E0E0E0"/>
</linearGradient>
<linearGradient id="paint17_linear" x1="157.745" y1="206.546" x2="157.745" y2="250.201" gradientUnits="userSpaceOnUse">
<stop stop-color="#F5F5F5"/>
<stop offset="1" stop-color="#E0E0E0"/>
</linearGradient>
</defs>
</svg>
