<svg width="188" height="445" viewBox="0 0 188 445" fill="none" xmlns="http://www.w3.org/2000/svg">
<path d="M140.797 255.153L137.577 307.097C94.8782 306.679 52.0671 307.45 9.31533 307.823C10.3555 291.216 11.4086 274.67 12.4747 258.187C54.3964 259.885 98.8723 253.456 140.797 255.153Z" fill="#00BCF8"/>
<path d="M132.599 387.461C131.436 406.259 130.272 425.058 129.107 443.856C86.0029 441.521 44.1681 441.634 1.06641 439.296C2.22631 421.463 3.36583 403.535 4.48497 385.511C47.1884 385.985 89.8931 386.634 132.599 387.461Z" fill="#00BCF8"/>
<path d="M9.31504 307.821C52.0667 307.442 94.8779 306.676 137.577 307.094C135.92 333.877 134.261 360.66 132.599 387.444C89.8932 386.691 47.1884 386.041 4.48481 385.495C6.10046 359.635 7.69664 333.677 9.31504 307.821Z" fill="#00A8DE"/>
<path d="M82.9624 180.565C84.9437 174.064 86.6694 167.516 88.4336 160.954C90.1406 154.594 92.271 148.399 94.2913 142.134C96.1998 136.171 98.1082 130.199 100.842 124.55C103.575 118.901 106.234 113.244 108.822 107.516C111.323 101.988 114.081 96.5933 117.098 91.3318C119.88 86.4874 123.193 82.0593 126.275 77.4175C131.935 68.8879 137.28 58.2245 147.578 54.6173C147.597 54.6173 147.641 54.6968 147.63 54.6996C138.893 58.4129 133.668 67.609 128.89 75.3097C126.135 79.7556 123.038 83.9717 120.329 88.445C117.17 93.7374 114.399 99.2528 112.04 104.948C109.664 110.574 107.643 116.323 105.002 121.834C102.093 127.845 99.5775 134.037 97.4709 140.373C95.4284 146.584 93.2348 152.762 91.4343 159.046C89.6065 165.418 88.0673 171.867 86.102 178.201C83.9678 185.087 81.9596 191.853 80.8919 199.006C79.8242 206.159 79.5531 213.294 79.2958 220.467C79.2959 220.489 78.5056 219.716 78.469 219.37C77.6319 206.271 79.1539 193.127 82.9624 180.565V180.565Z" fill="#014880"/>
<path d="M88.9399 143.286C89.0021 133.833 88.8227 124.469 89.6954 115.039C90.5573 105.735 92.1941 96.4875 93.9409 87.3136C95.1777 80.7973 96.6206 74.2969 98.6079 67.9629C98.6079 67.9629 100.644 59.7071 105.13 53.6962L112.279 42.8297C113.029 41.729 113.749 40.59 114.433 39.3934C116.534 35.7127 118.907 33.2977 122.853 31.6811C124.552 30.982 126.267 30.3185 127.704 29.1448C129.141 27.971 130.068 26.4085 131.089 24.9171C133.123 21.9618 135.383 20.4454 138.61 18.9569C142.934 16.9657 147.229 14.928 151.401 12.6433C155.505 10.4054 159.669 8.87069 164.13 7.46435C168.705 6.01102 173.038 4.12151 177.382 2.08362C178.861 1.39326 180.34 0.68367 181.83 0.00976562C175.585 11.0819 166.611 21.3063 159.721 32.4486C155.052 39.8771 151.946 46.9199 147.279 54.7301C143.78 60.9882 137.54 64.9179 133.258 70.7769C121.193 87.599 107.555 100.911 100.18 119.285C95.1653 132.228 92.6969 145.167 89.6911 158.517C89.1541 153.458 88.9033 148.373 88.9399 143.286Z" fill="#0183CC"/>
<path d="M133.242 70.7909C137.524 64.921 143.764 61.0023 147.262 54.7442C151.93 46.923 155.036 39.8912 159.705 32.4627C166.595 21.3204 175.569 11.096 181.814 0.0238398C182.145 3.84421 183.437 7.58258 184.415 11.2475C185.771 16.3373 185.858 21.4521 185.983 26.6877C186.253 36.534 185.967 46.3876 185.126 56.2016C184.687 61.0732 184.092 65.948 182.95 70.7087C181.764 75.681 180.257 80.5689 179.085 85.5522C178.391 88.5917 177.48 91.5775 176.36 94.4868C165.634 89.266 153.084 88.7745 141.094 89.136C148.919 94.1936 157.521 99.2603 159.498 109.008C159.944 110.936 160.084 112.922 159.913 114.894C159.486 115.294 159.062 115.697 158.641 116.103C155.216 119.438 151.914 122.89 148.634 126.368C145.469 129.722 142.608 133.407 139.281 136.61C137.236 138.541 134.881 140.116 132.314 141.266C125.723 142.107 113.363 149.677 104.32 151.908C100.019 153.602 95.8542 155.571 91.9431 158.124C91.208 158.601 90.4923 159.12 89.7931 159.665C89.7483 159.289 89.7116 158.913 89.6723 158.539C92.6781 145.189 95.1465 132.25 100.161 119.308C107.545 100.925 121.182 87.6131 133.242 70.7909Z" fill="#014880"/>
<path d="M32.9218 88.9116C24.6464 74.8392 17.5618 60.1623 6.38125 48.8688C6.65462 48.75 6.9386 48.6574 7.22941 48.5921C12.2593 47.4536 17.4033 52.5918 20.6799 55.7018C25.1828 59.9622 29.3361 64.5775 33.0999 69.5031C37.1626 74.9201 40.8944 80.5776 44.2749 86.4446C47.5493 92.0571 50.563 97.7884 54.9866 102.626C56.9532 104.772 59.1611 106.737 61.7659 108.079C67.9896 111.287 70.2723 112.281 77.5696 120.463C78.6062 122.423 79.4158 124.495 79.9828 126.638C81.6655 132.922 81.709 139.496 81.4033 145.952C81.0587 153.37 81.1646 160.787 80.9078 168.183C80.7004 175.665 79.7421 183.108 78.0472 190.4C77.1498 194.168 76.1919 197.915 75.1324 201.642C74.624 203.455 74.1183 205.267 73.6155 207.08C73.1797 208.644 72.5463 210.269 72.336 211.895C72.1803 212.253 72.0356 212.613 71.9157 212.995C71.8692 213.108 71.8256 213.224 71.7846 213.339L71.6663 213.24C67.0557 192.492 64.2646 172.099 58.4444 150.958C52.5446 128.699 45.0764 108.798 32.9218 88.9116Z" fill="#014880"/>
<path d="M6.38116 48.8793C17.5617 60.1618 24.6381 74.8387 32.9217 88.9221C45.0763 108.809 52.5445 128.707 58.458 150.944C64.2782 172.082 67.0748 192.478 71.6799 213.226C67.6196 209.794 63.6198 206.378 60.5379 201.968C56.5324 196.228 52.5159 190.45 47.3947 185.636C44.991 183.37 42.3134 181.434 39.9617 179.097C36.4888 174.314 30.9036 166.377 26.2358 160.37C25.5905 159.33 25.017 158.246 24.5193 157.127C21.4806 150.152 22.9841 142.599 23.1201 135.267C23.212 130.141 22.154 125.435 20.489 120.794L12.2575 98.782C9.86243 90.6398 7.98794 82.3535 6.6454 73.9732C5.75876 68.5938 4.83914 63.2063 3.99094 57.8186C3.54133 54.8007 3.14028 50.2827 6.38116 48.8793Z" fill="#0183CC"/>
<path d="M53.9102 288.353C58.8191 291.707 65.8249 292.033 71.5555 292.102C77.8245 292.174 84.1028 291.56 90.0231 289.461C90.3442 289.347 91.3618 290.938 91.126 291.136C89.0122 292.861 85.791 293.306 83.1658 293.722C79.6543 294.231 76.1029 294.411 72.5579 294.258C68.9308 294.186 65.3199 293.754 61.778 292.969C59.1668 292.354 56.5029 291.515 54.4985 289.665C54.292 289.479 53.5855 288.132 53.9102 288.353Z" fill="#015BA2"/>
<path d="M69.0661 348.472C72.2203 348.684 75.3857 349.031 78.5395 349.086C80.3934 349.103 82.2431 348.905 84.0514 348.496C85.6988 348.148 87.3461 347.76 89.02 348.121C89.2371 348.167 89.9679 349.336 89.7977 349.388C86.8414 350.31 83.5854 351.145 80.4621 351.199C77.0888 351.26 73.6954 350.941 70.3352 350.702C64.5928 350.279 58.7948 349.596 54.0804 346.025C53.9421 345.847 53.8357 345.647 53.7658 345.432C58.3094 347.674 64.0986 348.135 69.0661 348.472Z" fill="#015BA2"/>
<path d="M53.3878 416.083C56.137 416.98 58.6537 418.268 61.5368 418.854C63.9692 419.348 66.4308 419.477 68.9062 419.572C71.4818 419.705 74.063 419.685 76.6363 419.512C78.8335 419.337 80.8808 418.519 83.0477 418.266C83.2701 418.238 83.7527 419.014 83.6625 419.207C82.6923 421.258 79.4512 421.415 77.471 421.612C75.0388 421.827 72.5945 421.873 70.1559 421.75C64.4745 421.547 58.2592 420.955 53.8405 417.005C53.7332 416.909 53.264 416.042 53.3878 416.083Z" fill="#015BA2"/>
<path d="M21.2732 207.216C20.951 204.787 20.7571 202.343 20.6923 199.894C56.0431 201.676 93.714 206.31 129.03 203.963C128.487 206.519 127.845 209.064 127.126 211.58C92.2187 217.277 55.0013 218.348 21.2732 207.216Z" fill="#FDC833"/>
<path d="M127.115 211.58C124.453 220.742 120.502 229.529 114.799 237.157C107.531 246.869 97.2597 254.592 85.4929 257.516C69.3992 261.513 51.6397 255.95 39.6018 244.535C29.3398 234.81 23.1398 221.277 21.2733 207.219C55.0014 218.348 92.2188 217.277 127.115 211.58Z" fill="#FDBB00"/>
</svg>
