<svg width="798" height="435" viewBox="0 0 798 435" fill="none" xmlns="http://www.w3.org/2000/svg">
<path d="M506.439 0H144.592V217.619H506.439V0Z" fill="#EFF5FC"/>
<path d="M766.561 371.562L676.461 233.774H688.964L780.196 371.562H766.561Z" fill="#424242"/>
<path d="M740.8 250.369H699.959V260.992H740.8V250.369Z" fill="#424242"/>
<path d="M759.776 278.907H718.936V289.531H759.776V278.907Z" fill="#424242"/>
<path d="M780.196 309.96H739.355V320.583H780.196V309.96Z" fill="#424242"/>
<path d="M797.85 339.881H757.01V350.504H797.85V339.881Z" fill="#424242"/>
<path d="M239.468 148.914H144.592V217.557H239.468V148.914Z" fill="#9FA2CE"/>
<path d="M228.409 132.256H201.643V148.914H228.409V132.256Z" fill="#9FA2CE"/>
<path d="M256.62 174.687H192.029V217.62H256.62V174.687Z" fill="#9A9BC6"/>
<path d="M270.255 186.315H253.102V217.619H270.255V186.315Z" fill="#9A9BC6"/>
<path d="M259.384 116.604H264.097L266.924 169.657L270.254 186.315H254.295L257.311 169.657L259.384 116.604Z" fill="#9A9BC6"/>
<path d="M173.368 79.266H179.589L182.416 132.257L188.008 148.914H169.85L172.866 132.257L173.368 79.266Z" fill="#9FA2CE"/>
<path d="M176.635 75.2427C176.635 75.2427 165.011 65.6252 166.268 60.345C167.524 55.0648 172.551 50.9789 169.786 47.7102C167.022 44.4415 159.419 25.7723 176.572 24.2637C193.725 22.755 185.934 39.9157 186.939 41.6757C187.945 43.4358 193.474 50.5389 189.704 56.0705C185.934 61.6022 177.829 72.2254 178.331 74.2369C178.834 76.2484 176.635 75.2427 176.635 75.2427Z" fill="#DADBEA"/>
<path d="M261.207 112.582C261.207 112.582 250.966 106.296 251.531 101.204C252.097 96.1752 257.563 91.0836 256.369 86.5577C255.175 82.0319 245.06 78.1974 247.07 69.3971C249.081 60.5339 259.699 51.2307 269.501 53.2422C279.366 55.2537 275.282 65.877 277.041 67.8885C278.8 69.9 284.581 75.9345 278.046 82.7862C271.512 89.6379 265.417 92.1522 266.171 95.9238C266.925 99.6954 274.59 104.976 261.207 112.582Z" fill="#DADBEA"/>
<path d="M355.267 153V133.765H325.484V122.953H295.514V217.619H325.484H355.267H385.551V153H355.267Z" fill="#CFD0E5"/>
<path d="M394.911 152.623V150.36H386.68V145.708H384.418V150.36H356.647V126.976H354.385V150.297H326.613V115.599H324.351V150.297H296.58V114.09H294.318V183.361H292.182V185.624H294.318V217.557H296.58V185.624H324.351V217.557H326.613V185.624H354.385V217.557H356.647V185.624H384.418V217.557H386.68V185.624H390.827V183.361H386.68V152.56H394.911V152.623ZM296.643 183.361V152.56H324.414V183.361H296.643ZM326.613 183.361V152.56H354.385V183.361H326.613ZM384.418 183.361H356.647V152.56H384.418V183.361Z" fill="#9A9BC6"/>
<path d="M317.818 126.976H303.178V145.645H317.818V126.976Z" fill="#9A9BC6"/>
<path d="M318.948 158.657H304.309V177.327H318.948V158.657Z" fill="#9A9BC6"/>
<path d="M347.851 158.657H333.211V177.327H347.851V158.657Z" fill="#9A9BC6"/>
<path d="M377.884 158.657H363.244V177.327H377.884V158.657Z" fill="#9A9BC6"/>
<path d="M397.426 126.976H368.9V140.617H397.426V126.976Z" fill="#BFC1DD"/>
<path d="M440.967 96.4264H343.264L355.202 85.0488H431.039L440.967 96.4264ZM347.096 94.9177H437.637L430.348 86.5574H355.83L347.096 94.9177Z" fill="#BFC1DD"/>
<path d="M493.242 96.4264H455.104L465.219 85.0488H485.137L493.242 96.4264ZM458.496 94.9177H490.289L484.32 86.5574H465.848L458.496 94.9177Z" fill="#BFC1DD"/>
<path d="M456.236 94.1634H441.282C435.313 94.1634 430.475 99.0036 430.475 104.975V112.581H456.236V94.1634Z" fill="#BFC1DD"/>
<path d="M448.445 71.5341C450.701 71.5341 452.529 69.7048 452.529 67.4483C452.529 65.1917 450.701 63.3624 448.445 63.3624C446.19 63.3624 444.361 65.1917 444.361 67.4483C444.361 69.7048 446.19 71.5341 448.445 71.5341Z" fill="#BFC1DD"/>
<path d="M493.307 99.3179C494.729 99.3179 495.883 98.164 495.883 96.7407C495.883 95.3173 494.729 94.1634 493.307 94.1634C491.884 94.1634 490.73 95.3173 490.73 96.7407C490.73 98.164 491.884 99.3179 493.307 99.3179Z" fill="#BFC1DD"/>
<path d="M454.854 218.751H442.225V111.45H454.854V218.751ZM444.487 216.488H452.592V113.713H444.487V216.488Z" fill="#BFC1DD"/>
<path d="M395.918 86.5574C395.604 86.5574 395.29 86.3688 395.227 86.0545C395.101 85.6774 395.29 85.2373 395.667 85.1116L437.136 70.5911L361.235 86.5574C360.795 86.6202 360.418 86.3688 360.355 85.9917C360.292 85.5516 360.544 85.1745 360.921 85.1116L448.257 66.7567C448.634 66.6938 449.011 66.8824 449.136 67.3224C449.262 67.6996 449.011 68.1396 448.634 68.2653L396.107 86.6202C396.044 86.5574 395.981 86.5574 395.918 86.5574Z" fill="#BFC1DD"/>
<path d="M484.697 86.5577C484.572 86.5577 484.446 86.5577 484.383 86.4948L448.129 68.1399C447.752 67.9513 447.627 67.5113 447.815 67.1341C448.004 66.757 448.443 66.6312 448.82 66.8198L485.074 85.1748C485.451 85.3634 485.577 85.8034 485.388 86.1805C485.263 86.432 485.011 86.5577 484.697 86.5577Z" fill="#BFC1DD"/>
<path d="M453.659 96.4266C453.282 96.4266 452.968 96.1752 452.905 95.798L448.444 69.8371L444.234 94.2894C444.171 94.7294 443.794 94.9808 443.355 94.918C442.915 94.8551 442.664 94.478 442.726 94.038L447.69 65.2483C447.753 64.8712 448.067 64.6197 448.444 64.6197C448.821 64.6197 449.135 64.8712 449.198 65.2483L454.413 95.5466C454.476 95.9866 454.225 96.3638 453.785 96.4266C453.785 96.4266 453.722 96.4266 453.659 96.4266Z" fill="#BFC1DD"/>
<path d="M453.722 121.822H443.48V124.084H453.722V121.822Z" fill="#BFC1DD"/>
<path d="M454.225 134.142H442.727V136.405H454.225V134.142Z" fill="#BFC1DD"/>
<path d="M454.352 146.526H442.854V148.789H454.352V146.526Z" fill="#BFC1DD"/>
<path d="M454.352 158.908H442.854V161.171H454.352V158.908Z" fill="#BFC1DD"/>
<path d="M454.352 171.292H442.854V173.555H454.352V171.292Z" fill="#BFC1DD"/>
<path d="M454.225 183.361H442.727V185.624H454.225V183.361Z" fill="#BFC1DD"/>
<path d="M369.339 127.605L368.459 126.347L382.408 116.227V95.6719H383.916V116.981L369.339 127.605Z" fill="#BFC1DD"/>
<path d="M383.565 116.006L382.68 117.227L396.919 127.564L397.805 126.343L383.565 116.006Z" fill="#BFC1DD"/>
<path d="M444.36 217.62H403.205V216.488C403.205 213.471 405.655 211.019 408.671 211.019H438.893C441.909 211.019 444.36 213.471 444.36 216.488V217.62Z" fill="#BFC1DD"/>
<path d="M430.727 189.835C426.14 189.835 422.37 193.544 422.37 198.196V200.207H415.962C412.003 200.207 408.799 203.413 408.799 207.373V211.019H422.433H426.455H436.822V189.835H430.727Z" fill="#9A9BC6"/>
<path d="M433.994 204.733H426.705V197.002C426.705 194.424 428.779 192.413 431.292 192.413H433.994V204.733Z" fill="#7F7EA4"/>
<path d="M410.243 203.916L397.425 211.019V204.733H393.655C393.655 204.733 390.639 217.62 388.126 217.62C385.613 217.62 403.268 217.62 403.268 217.62V212.339L408.797 208.568L410.243 203.916Z" fill="#9A9BC6"/>
<path d="M210.438 218.625H171.105V209.951C171.105 207.436 173.116 205.425 175.629 205.425H205.977C208.49 205.425 210.501 207.436 210.501 209.951V218.625H210.438Z" fill="#0183CB"/>
<path d="M180.28 216.991C182.432 216.991 184.176 215.246 184.176 213.093C184.176 210.941 182.432 209.196 180.28 209.196C178.129 209.196 176.385 210.941 176.385 213.093C176.385 215.246 178.129 216.991 180.28 216.991Z" fill="#014880"/>
<path d="M200.636 216.991C202.787 216.991 204.531 215.246 204.531 213.093C204.531 210.941 202.787 209.196 200.636 209.196C198.484 209.196 196.74 210.941 196.74 213.093C196.74 215.246 198.484 216.991 200.636 216.991Z" fill="#014880"/>
<path d="M257.939 209.825L260.138 207.059C260.39 206.745 260.327 206.242 260.013 205.99C259.699 205.739 259.196 205.802 258.945 206.116L256.746 208.882L254.861 207.311L257.123 204.482C257.374 204.168 257.311 203.665 256.997 203.413C256.683 203.162 256.18 203.225 255.929 203.539L253.667 206.368L252.41 205.362L249.583 208.882C248.012 210.831 248.326 213.659 250.274 215.168C252.222 216.739 255.049 216.425 256.557 214.477L259.384 210.956L257.939 209.825Z" fill="#014880"/>
<path d="M234.189 219.505C233.749 219.505 233.309 219.443 232.932 219.254C230.419 218.248 227.843 215.357 225.392 212.591C222.628 209.511 219.8 206.242 217.475 206.179C212.826 206.053 210.501 209.385 210.438 209.574L209.182 208.756C209.307 208.568 212.009 204.545 217.538 204.733C220.554 204.796 223.507 208.128 226.586 211.648C228.911 214.288 231.361 217.054 233.56 217.934C233.874 218.06 234.251 218.122 234.628 218.06C235.697 217.871 239.215 217.242 239.969 215.42L241.351 215.985C240.346 218.374 236.828 219.254 234.817 219.568C234.566 219.505 234.377 219.505 234.189 219.505Z" fill="#014880"/>
<path d="M226.46 218.688C226.397 218.688 226.272 218.688 226.209 218.688C222.439 218.122 220.491 215.985 218.795 214.036C217.475 212.528 216.281 211.271 214.522 210.956C211.946 210.516 210.249 211.962 210.249 211.962L209.244 210.831C209.307 210.768 211.506 208.882 214.773 209.448C217.098 209.825 218.48 211.459 219.926 213.031C221.559 214.854 223.193 216.677 226.397 217.179C227.591 217.305 231.172 215.922 233.874 214.036C232.555 213.156 231.675 212.025 231.298 210.642C230.921 209.573 231.172 208.442 231.926 207.625C232.869 206.556 234.44 206.053 235.885 206.368C237.204 206.682 238.21 207.625 238.649 209.008C239.026 210.202 238.649 211.459 237.581 212.779C237.33 213.094 237.016 213.408 236.702 213.722C239.906 214.854 244.807 214.917 250.65 213.911L250.902 215.419C244.179 216.551 238.775 216.362 235.319 214.854C232.429 217.054 228.345 218.688 226.46 218.688ZM235.068 207.751C234.314 207.751 233.56 208.065 233.12 208.568C232.806 208.882 232.555 209.448 232.806 210.139C233.12 211.334 234 212.276 235.319 212.968C235.759 212.591 236.199 212.151 236.576 211.711C237.33 210.831 237.581 210.013 237.33 209.385C236.953 208.253 236.199 207.876 235.633 207.751C235.382 207.751 235.194 207.751 235.068 207.751Z" fill="#014880"/>
<path d="M507.631 108.181C507.631 108.181 500.406 104.598 503.422 98.4377C506.438 92.2775 510.836 89.826 511.087 88.0659C511.338 86.3058 512.218 77.4426 518.376 76.6255C521.894 75.9969 523.402 78.637 523.402 78.637C523.402 78.637 528.554 77.3798 530.188 81.2771C532.953 86.1801 531.759 91.7746 531.759 91.7746C531.759 91.7746 536.408 96.1119 535.152 101.392C533.895 106.672 531.759 105.604 531.759 105.604L507.631 108.181Z" fill="#01122C"/>
<path d="M602.821 76.6883C602.256 78.8884 601.376 81.0884 600.308 83.0999C599.177 85.1743 597.795 87.1229 595.973 88.7573C594.151 90.3916 591.951 91.6488 589.438 92.2774C586.988 92.906 584.349 92.8432 581.898 92.0888C579.448 91.3345 577.312 89.8888 575.615 88.1287C573.919 86.3686 572.662 84.2943 571.72 82.157C569.835 77.8197 569.332 72.9796 570.149 68.2651C570.589 65.9393 571.406 63.6135 572.662 61.4763C573.919 59.3391 575.552 57.4533 577.563 55.9447C579.511 54.3732 581.836 53.2417 584.349 52.6131C586.862 51.9845 589.564 51.9845 592.077 52.676C594.59 53.3674 596.915 54.6875 598.737 56.4475C600.559 58.2076 601.879 60.4705 602.696 62.7335C603.513 65.0593 603.764 67.4479 603.764 69.8366C603.764 72.1624 603.387 74.4882 602.821 76.6883ZM602.507 76.5626C603.073 74.3625 603.136 72.0367 602.759 69.8994C602.382 67.6994 601.565 65.625 600.434 63.8021C599.303 61.9792 597.92 60.4077 596.35 59.2133C594.779 57.9562 593.02 57.0761 591.072 56.5732C589.187 56.1332 587.176 56.0704 585.228 56.4475C583.281 56.8247 581.396 57.6419 579.699 58.7733C578.003 59.9048 576.495 61.4134 575.238 63.1106C573.982 64.8078 572.913 66.6936 572.222 68.768C570.777 72.8538 570.903 77.6312 572.851 81.5913C573.856 83.54 575.301 85.3 576.998 86.4944C578.694 87.7515 580.705 88.5687 582.652 88.9459C586.674 89.7002 590.758 88.883 594.465 86.7458C596.287 85.6772 598.046 84.2943 599.428 82.5342C600.874 80.837 601.942 78.7626 602.507 76.5626Z" fill="#2FB67D"/>
<path d="M581.082 63.3624C581.773 64.2424 582.401 65.1225 582.967 66.0025C583.595 66.8825 584.161 67.8254 584.726 68.7055C585.292 69.6484 585.857 70.5284 586.36 71.4713C586.863 72.4142 587.428 73.3571 587.931 74.2999L586.8 74.1114C588.245 72.917 589.69 71.7227 591.198 70.5912C591.952 70.0255 592.706 69.4598 593.46 68.9569C594.214 68.454 595.031 67.8883 595.785 67.3854C595.156 68.0769 594.528 68.7683 593.9 69.4598C593.271 70.1512 592.58 70.7798 591.889 71.4084C590.57 72.7285 589.187 73.9856 587.742 75.18L587.051 75.7457L586.611 74.9285C586.046 73.9856 585.606 73.0428 585.04 72.0999C584.538 71.157 584.035 70.1512 583.595 69.2083C583.093 68.2654 582.653 67.2597 582.213 66.2539C581.899 65.3739 581.459 64.3682 581.082 63.3624Z" fill="#383838"/>
<path d="M487.023 118.113H510.711L525.099 154.76L497.077 167.08L487.023 118.113Z" fill="#767587"/>
<path d="M527.361 178.709L497.076 167.08L525.099 154.76L549.792 163.56L527.361 178.709Z" fill="#69697A"/>
<path d="M492.238 217.745L491.107 217.62L496.951 166.326L499.464 167.709L492.238 217.745Z" fill="#767587"/>
<path d="M528.116 218.185L526.482 218.122L525.791 175.692L528.116 175.755V218.185Z" fill="#767587"/>
<path d="M551.237 166.892C551.237 166.892 556.389 172.172 554.881 178.709C553.373 185.247 548.095 207.499 549.855 212.528C551.614 217.556 545.079 214.288 545.079 214.288C545.079 214.288 539.047 193.607 545.079 184.492C551.111 175.378 539.676 168.589 539.676 168.589L551.237 166.892Z" fill="#EF8854"/>
<path d="M544.828 213.471C544.828 213.471 547.09 212.025 551.865 213.534C556.641 215.042 555.258 217.557 555.258 217.557L544.954 216.928C543.823 216.865 543.258 215.608 543.886 214.665L544.828 213.471Z" fill="#383838"/>
<path d="M572.159 213.911C572.159 213.911 571.028 218.122 575.552 217.619C579.322 218.876 585.668 217.619 585.668 217.619C585.668 217.619 581.709 213.471 577.5 212.905C573.29 212.276 572.159 213.911 572.159 213.911Z" fill="#383838"/>
<path d="M533.645 176.698C533.645 176.698 548.347 187.07 551.803 192.35C555.321 197.63 561.102 209.699 569.207 212.905C577.313 216.111 578.82 214.351 578.82 214.351C578.82 214.351 561.667 196.31 560.411 191.093C559.154 185.875 547.719 171.166 542.315 170.412C536.975 169.658 533.645 176.698 533.645 176.698Z" fill="#FA9862"/>
<path d="M509.705 147.657C506.061 171.355 530.942 178.332 534.838 177.515C534.838 175.504 539.299 167.395 553.813 170.726C554.755 168.715 535.78 144.891 532.45 143.634C529.12 142.377 511.967 142.314 509.705 147.657Z" fill="#015BA2"/>
<path d="M528.178 101.77C536.974 104.158 541.247 127.353 543.446 128.359C545.582 129.365 555.258 130.496 555.258 130.496L540.053 132.005L529.56 128.611C529.497 128.611 526.607 100.764 528.178 101.77Z" fill="#D7D8D6"/>
<path d="M515.612 101.706C515.612 101.706 526.231 100.952 527.739 101.706C529.247 102.461 528.367 120.124 527.739 122.89C527.11 125.656 523.466 126.913 523.466 126.913L515.675 113.901C515.612 113.964 509.769 103.278 515.612 101.706Z" fill="#E7E9E6"/>
<path d="M509.329 139.485C504.994 132.068 499.59 108.81 514.733 101.706C517.623 100.449 521.204 117.673 524.22 124.713C528.43 114.655 525.225 101.392 526.859 101.392C530.378 100.889 534.713 113.461 531.886 121.444C529.058 129.365 528.618 137.096 533.708 143.382C532.577 146.274 524.346 147.28 522.209 143.382C518.188 148.411 515.675 153.125 508.575 151.051C508.198 146.022 509.517 142.377 509.329 139.485Z" fill="#FCBB00"/>
<path d="M510.963 108.81C510.963 108.81 507.067 108.181 507.696 116.353C508.324 124.524 512.345 133.136 519.194 135.273C526.042 137.411 551.175 135.273 551.175 135.273V129.239C551.175 129.239 528.116 127.605 524.409 128.233C520.827 128.862 519.319 107.427 510.963 108.81Z" fill="#E7E9E6"/>
<path d="M516.617 101.706C516.617 101.706 518.125 104.472 520.513 104.724C522.9 104.975 524.408 101.706 524.408 101.706C524.408 101.706 522.523 95.7976 523.403 94.7919C524.283 93.7861 519.884 94.1633 519.884 94.1633C519.884 94.1633 517.622 101.706 516.617 101.706Z" fill="#EF8854"/>
<path d="M523.466 80.5233C523.466 80.5233 521.33 87.5635 518.44 87.4378C515.549 87.3121 515.172 88.5693 515.801 89.8265C516.429 91.0837 518.44 92.3408 518.44 92.3408C518.44 92.3408 519.571 95.4838 522.335 95.6095C525.1 95.7353 527.99 91.3351 527.613 86.6206C527.236 82.0319 526.356 80.5233 523.466 80.5233Z" fill="#FA9862"/>
<path d="M553.876 114.153L548.787 136.28H582.528L590.445 114.153H553.876Z" fill="#022042"/>
<path d="M604.454 136.217H526.857V141.245H604.454V136.217Z" fill="#767587"/>
<path d="M604.141 141.245H601.125V217.619H604.141V141.245Z" fill="#767587"/>
<path d="M498.019 165.069L528.115 176.383V179.023L497.076 167.08L487.023 118.113H488.594L498.019 165.069Z" fill="#8C8C9B"/>
<path d="M674.764 213.031C674.764 213.031 666.785 214.728 667.539 217.745H681.236V213.031H674.764Z" fill="#2B2B2B"/>
<path d="M696.189 212.842C696.189 212.842 689.78 213.973 689.969 217.556H700.399L701.718 212.779L696.189 212.842Z" fill="#2B2B2B"/>
<path d="M680.229 123.456C672.941 131.816 676.459 210.705 674.197 213.596L681.36 213.031C681.36 213.031 691.225 188.955 687.957 165.509C687.141 163.057 692.104 151.868 692.104 151.868C692.104 151.868 694.995 213.471 693.801 213.596C692.607 213.722 701.592 212.842 701.592 212.842C701.592 212.842 709.194 192.098 703.979 169.28C701.152 162.114 710.891 134.393 700.524 121.947C695.246 118.616 683.936 119.181 680.229 123.456Z" fill="#383838"/>
<path d="M680.795 83.7915H643.348V121.256H680.795V83.7915Z" fill="#C18536"/>
<path d="M676.021 89.3231H648.752V116.604H676.021V89.3231Z" fill="#D3954A"/>
<path d="M705.615 82.283C708.066 82.283 715.48 97.055 709.95 111.261C707.312 118.616 697.698 117.673 697.698 117.673L697.133 101.707L705.615 82.283Z" fill="#EF8854"/>
<path d="M705.173 104.85L711.393 104.473C711.393 104.473 712.524 91.3979 708.755 86.4948C704.985 81.5918 701.215 96.7409 701.403 97.4952C701.592 98.2496 705.173 104.85 705.173 104.85Z" fill="#014880"/>
<path d="M676.021 79.4542C676.272 79.2656 692.294 74.614 704.547 80.5228C716.799 86.4316 701.091 113.147 700.714 115.976C700.337 118.804 701.656 123.33 701.656 123.33C701.656 123.33 694.808 130.559 679.288 125.656C677.089 124.399 670.115 83.2258 676.021 79.4542Z" fill="#0183CB"/>
<path d="M647.746 123.393C647.746 123.393 640.395 120.879 641.903 117.673C643.411 114.467 647.746 120.502 647.746 120.502V123.393Z" fill="#FA9862"/>
<path d="M673.507 79.7688C675.141 79.5802 678.534 79.8316 680.796 86.0547C683.058 92.2778 677.026 124.965 666.784 125.216C656.543 125.468 647.684 123.393 647.684 123.393V120.565C647.684 120.565 660.187 117.547 663.391 116.793C666.659 115.976 660.753 81.4031 673.507 79.7688Z" fill="#FA9862"/>
<path d="M686.514 77.6314C686.514 77.6314 687.456 72.6655 687.456 71.534C687.456 70.4026 692.734 70.0254 692.734 70.0254C692.734 70.0254 693.488 76.0599 694.179 77.6943C694.933 79.3286 687.833 79.3286 686.514 77.6314Z" fill="#EF8854"/>
<path d="M683.749 57.5789C683.749 57.5789 680.858 68.3279 687.079 71.0309C693.299 73.7338 697.949 63.9277 698.074 63.5506C698.2 63.1734 694.304 56.3846 694.304 56.3846L683.749 57.5789Z" fill="#FA9862"/>
<path d="M681.298 58.1452C681.424 58.5853 681.989 60.3453 685.068 60.7853C688.147 61.2253 687.33 63.2369 686.513 63.9283C685.696 64.6198 686.827 66.757 688.021 67.3227C689.278 67.8885 692.859 69.1456 693.802 67.3227C694.744 65.4998 694.744 69.2085 697.132 68.2656C699.519 67.3227 701.027 65.0598 700.713 63.9283C700.399 62.7968 702.724 62.8597 703.101 60.2196C703.478 57.5795 702.347 56.5109 701.656 56.3223C700.965 56.1337 698.828 52.7393 696.064 51.4193C693.299 50.0992 687.644 50.3507 685.634 52.4879C683.623 54.6251 680.167 53.8708 681.298 58.1452Z" fill="#E55357"/>
<path d="M678.409 52.1103C678.346 51.796 685.697 52.1731 685.697 52.1731C686.64 52.676 687.331 46.5158 694.305 47.6472C702.096 49.1559 701.908 56.7619 701.845 57.3905C699.834 60.722 698.452 61.162 692.42 60.9734C684.189 59.9048 687.331 55.1275 682.241 54.5618C682.053 54.4989 678.786 54.7504 678.409 52.1103Z" fill="#014880"/>
<path d="M655.663 114.97C658.231 114.97 660.313 112.887 660.313 110.318C660.313 107.749 658.231 105.667 655.663 105.667C653.095 105.667 651.014 107.749 651.014 110.318C651.014 112.887 653.095 114.97 655.663 114.97Z" fill="#E55357"/>
<path d="M278.137 273.009C278.137 273.009 272.655 260.163 288.596 254.534C291.77 253.236 284.917 248.256 285.711 246.236C286.36 244.504 290.039 245.658 293.213 246.236C296.386 246.813 305.691 243.421 305.403 245.947C305.114 248.545 299.849 251.648 300.209 253.957C305.98 252.514 321.344 266.442 311.606 273.009H278.137Z" fill="#BFC1DD"/>
<path d="M400.981 282.173H360.154V323.019H400.981V282.173Z" fill="#DDD2E0"/>
<path d="M403.434 278.782C403.434 278.782 402.352 279.215 403.434 280.658C404.083 282.102 405.02 284.05 405.814 285.638C406.535 287.081 406.03 288.885 404.66 289.751C399.61 292.926 388.574 303.462 389.656 309.813C391.099 318.039 400.981 323.091 400.981 323.091H432.07C432.07 323.091 438.201 316.38 435.749 307.864C433.801 301.225 425.939 293.431 422.621 290.4C421.755 289.607 421.611 288.38 422.188 287.37C423.414 285.421 425.145 282.318 424.929 281.38C424.568 279.937 417.788 282.607 414.686 281.596C411.584 280.586 406.752 278.132 403.434 278.782Z" fill="#BFC1DD"/>
<path d="M326.396 282.173H322.934V323.019H326.396V282.173Z" fill="#DDD2E0"/>
<path d="M447 368.482H438.128L437.262 324.317H442.6V321.719H437.262L436.324 274.307H445.125V271.71H436.324L435.964 252.586L433.367 252.658L433.728 271.782H352.218V254.607H349.621V271.782H274.676V254.823H272.079V271.782H266.452V274.38H272.079V321.792H264V324.39H272.079V368.554H268.4V371.152H272.079V377.43H274.676V371.08H349.477V377.575H352.074V371.08H435.603L435.675 375.698L438.272 375.626L438.2 371.08H446.928V368.482H447ZM433.656 274.307L434.593 321.719H352.074V274.307H433.656ZM274.676 274.307H349.477V321.719H274.676V274.307ZM274.676 368.482V324.317H349.477V368.482H274.676ZM352.074 368.482V324.317H434.665L435.531 368.482H352.074Z" fill="#DDD2E0"/>
<path d="M426.516 252.947H360.154V271.71H426.516V252.947Z" fill="#DDD2E0"/>
<path d="M339.74 248.112H316.225V271.637H339.74V248.112Z" fill="#DDD2E0"/>
<path d="M343.13 326.266H318.389V368.41H343.13V326.266Z" fill="#BFC1DD"/>
<path d="M281.816 285.71V321.792H311.679V294.875C311.679 294.875 311.535 292.71 307.928 294.009C304.322 295.308 305.476 298.339 305.476 298.339H299.128L294.8 285.71C294.656 285.71 286.289 283.112 281.816 285.71Z" fill="#DDD2E0"/>
<path d="M333.754 298.916C338.375 298.916 342.121 295.168 342.121 290.545C342.121 285.921 338.375 282.173 333.754 282.173C329.133 282.173 325.387 285.921 325.387 290.545C325.387 295.168 329.133 298.916 333.754 298.916Z" fill="#DDD2E0"/>
<path d="M333.754 319.338C338.375 319.338 342.121 315.59 342.121 310.967C342.121 306.344 338.375 302.596 333.754 302.596C329.133 302.596 325.387 306.344 325.387 310.967C325.387 315.59 329.133 319.338 333.754 319.338Z" fill="#DDD2E0"/>
<path d="M74.6438 284.471H35.5625V323.569H74.6438V284.471Z" fill="#C18536"/>
<path d="M115.988 284.471H76.9062V323.569H115.988V284.471Z" fill="#D3954A"/>
<path d="M157.519 284.471H118.438V323.569H157.519V284.471Z" fill="#C18536"/>
<path d="M170.273 334.444H7.91602V410.189H170.273V334.444Z" fill="#7F7EA4"/>
<path d="M163.865 323.129H28.0229V303.832C28.0229 288.368 15.4566 275.796 0 275.796V319.735V323.129V334.507V354.936V416.287H12.1265V354.936H163.928C172.724 354.936 179.824 347.833 179.824 339.033C179.761 330.233 172.661 323.129 163.865 323.129Z" fill="#424242"/>
<path d="M31.7302 346.199C35.9985 346.199 39.4585 342.737 39.4585 338.467C39.4585 334.197 35.9985 330.735 31.7302 330.735C27.462 330.735 24.002 334.197 24.002 338.467C24.002 342.737 27.462 346.199 31.7302 346.199Z" fill="#7F7EA4"/>
<path d="M62.0134 346.199C66.2817 346.199 69.7417 342.737 69.7417 338.467C69.7417 334.197 66.2817 330.735 62.0134 330.735C57.7452 330.735 54.2852 334.197 54.2852 338.467C54.2852 342.737 57.7452 346.199 62.0134 346.199Z" fill="#7F7EA4"/>
<path d="M92.2986 346.199C96.5668 346.199 100.027 342.737 100.027 338.467C100.027 334.197 96.5668 330.735 92.2986 330.735C88.0304 330.735 84.5703 334.197 84.5703 338.467C84.5703 342.737 88.0304 346.199 92.2986 346.199Z" fill="#7F7EA4"/>
<path d="M122.584 346.199C126.852 346.199 130.312 342.737 130.312 338.467C130.312 334.197 126.852 330.735 122.584 330.735C118.316 330.735 114.855 334.197 114.855 338.467C114.855 342.737 118.316 346.199 122.584 346.199Z" fill="#7F7EA4"/>
<path d="M152.869 346.199C157.137 346.199 160.597 342.737 160.597 338.467C160.597 334.197 157.137 330.735 152.869 330.735C148.601 330.735 145.141 334.197 145.141 338.467C145.141 342.737 148.601 346.199 152.869 346.199Z" fill="#7F7EA4"/>
<path d="M182.652 422.196C182.652 422.196 237.693 414.338 249.003 414.338C256.542 417.293 210.235 422.762 216.456 428.985C223.304 433.51 384.907 436.402 395.526 432.442C406.144 428.482 373.472 392.212 333.008 394.412C292.545 396.612 192.391 409.435 188.433 416.224C184.537 423.013 182.652 422.196 182.652 422.196Z" fill="url(#paint0_linear)"/>
<path d="M188.495 416.224C188.495 416.224 182.715 416.853 182.715 419.367C182.715 421.882 194.339 420.624 194.339 420.624V416.224H188.495Z" fill="#383838"/>
<path d="M215.574 421.001C215.574 421.001 215.826 428.482 218.841 429.047C221.857 429.613 219.344 418.864 218.841 418.676C218.339 418.487 215.574 421.001 215.574 421.001Z" fill="#383838"/>
<path d="M157.958 306.534C157.958 306.534 155.131 305.088 152.869 307.351C150.607 309.614 160.346 311.312 161.602 310.306C162.859 309.3 157.958 306.534 157.958 306.534Z" fill="#FA9862"/>
<path d="M159.781 306.534L160.598 312.317C160.598 312.317 182.903 311.877 185.919 296.225C188.935 280.573 190.946 314.643 191.951 314.391C192.956 314.14 211.303 317.032 211.303 317.032C211.303 317.032 220.477 282.082 219.974 277.304C219.471 272.527 218.969 265.424 206.591 264.921C194.213 264.418 190.255 265.173 189.878 264.921C186.171 266.681 185.165 266.933 177.06 285.602C171.091 308.357 163.488 305.088 159.781 306.534Z" fill="url(#paint1_linear)"/>
<path d="M185.982 416.224L196.35 417.356C196.35 417.356 199.365 379.766 198.109 372.285C196.852 364.868 198.486 344.124 198.423 343.37C198.36 342.616 205.711 364.302 205.963 367.382C206.214 370.4 208.727 383.789 208.727 386.303C208.727 388.817 211.995 418.173 213.251 420.939C214.508 423.704 221.859 420.876 222.111 419.87C222.362 418.864 222.111 374.36 218.026 364.868C215.576 362.102 218.592 323.444 211.743 315.9C199.868 312.317 213.251 273.973 213.251 273.973C213.251 273.973 197.355 271.962 192.58 273.973C182.715 277.242 187.804 310.054 188.558 314.392C188.244 317.158 184.223 320.175 184.286 334.444C184.977 342.93 185.731 413.584 185.982 416.224Z" fill="url(#paint2_linear)"/>
<path d="M190.505 264.984C188.494 267.058 186.547 275.796 189.123 277.179L192.516 274.036C192.516 274.036 190.568 272.087 193.898 264.921C193.144 264.167 191.196 264.23 190.505 264.984Z" fill="#4A154B"/>
<path d="M212.308 265.801C212.308 265.801 207.596 269.196 206.842 273.973C208.601 273.973 211.114 273.973 211.114 273.973L216.267 267.939C216.329 267.939 214.947 266.43 212.308 265.801Z" fill="#4A154B"/>
<path d="M176.242 308.357C176.242 308.357 168.388 307.037 167.006 309.426C165.623 311.752 172.849 313.26 176.242 312.317C179.635 311.375 176.242 308.357 176.242 308.357Z" fill="#FA9862"/>
<path d="M175.928 306.535L177.75 314.392C177.75 314.392 209.668 307.98 220.036 285.854C224.308 273.093 219.344 265.676 213.941 267.625C210.422 268.002 202.568 289.688 197.039 296.226C190.379 300.814 184.159 304.02 175.928 306.535Z" fill="url(#paint3_linear)"/>
<path d="M210.173 329.541C210.173 329.541 208.413 341.673 210.173 342.93C211.932 344.187 213.691 332.307 213.188 329.541C212.686 326.775 210.173 329.541 210.173 329.541Z" fill="#921D21"/>
<path d="M216.078 330.672H207.093C204.894 330.672 203.135 328.912 203.135 326.712V324.449C203.135 322.249 204.894 320.489 207.093 320.489H216.078C218.277 320.489 220.036 322.249 220.036 324.449V326.712C220.036 328.912 218.277 330.672 216.078 330.672Z" fill="#383838"/>
<path d="M200.621 258.761C200.621 258.761 200.306 264.984 199.113 265.864C197.856 266.744 205.961 268.001 206.715 264.984C207.469 261.967 206.715 257.315 206.715 257.315L200.621 258.761Z" fill="#EF8854"/>
<path d="M198.924 250.527C198.924 250.527 196.159 260.773 201.877 261.024C207.595 261.276 210.108 255.618 209.417 251.407C208.789 247.258 198.924 250.527 198.924 250.527Z" fill="#FA9862"/>
<path d="M203.889 248.138C203.889 248.138 204.266 252.412 205.145 253.167C206.025 253.921 207.91 251.281 208.036 253.167C208.161 255.052 207.156 255.618 206.905 256.435C206.653 257.252 205.774 258.761 206.339 259.641C206.967 260.521 209.858 258.51 210.8 257.252C212.434 255.115 211.68 250.841 210.423 249.269C209.167 247.761 203.889 248.138 203.889 248.138Z" fill="#01122C"/>
<path d="M193.271 251.155C193.082 251.469 211.618 251.155 211.618 251.155C211.618 251.155 214.068 241.16 204.769 241.034C197.732 240.406 196.664 248.578 196.664 248.578C196.664 248.578 193.774 250.149 193.271 251.155Z" fill="#E0E0E0"/>
<path d="M485.8 385.469C491.088 387.272 496.616 388.354 502.145 388.715C537.237 390.879 671.838 398.755 712.159 396.53C758.668 393.945 709.214 372.664 706.931 372.664C676.706 370.199 586.631 363.406 551.418 381.08C505.029 380.179 459 376.331 459 376.331L485.8 385.469Z" fill="url(#paint4_linear)"/>
<path d="M594.683 257H652.97V264.094H641.373L650.086 319.521H671.057V332.927L556.045 330.643L572.87 273.352C575.694 263.673 584.588 257 594.683 257Z" fill="url(#paint5_linear)"/>
<path d="M598.168 264.094H635.965V313.389H632.299C626.951 313.389 622.565 317.718 622.565 323.128H564.277L579.72 277.319C582.364 269.444 589.816 264.094 598.168 264.094Z" fill="#E7E9E6"/>
<path d="M673.942 330.642H548.895V372.724H673.942V330.642Z" fill="url(#paint6_linear)"/>
<path d="M537.838 259.525H548.894V376.331H459V370.56H532.73V303.951H537.838V259.525Z" fill="#424242"/>
<path d="M532.789 306.115H468.613V370.319H532.789V306.115Z" fill="#C18536"/>
<path d="M524.498 315.674H476.787V363.406H524.498V315.674Z" fill="#D3954A"/>
<path d="M492.412 315.674H489.527V363.406H492.412V315.674Z" fill="#C18536"/>
<path d="M509.441 315.672L506.557 315.676L506.629 363.409L509.513 363.404L509.441 315.672Z" fill="#C18536"/>
<path d="M562.776 384.026C575.951 384.026 586.631 373.341 586.631 360.16C586.631 346.979 575.951 336.293 562.776 336.293C549.6 336.293 538.92 346.979 538.92 360.16C538.92 373.341 549.6 384.026 562.776 384.026Z" fill="#424242"/>
<path d="M562.776 376.03C571.537 376.03 578.64 368.925 578.64 360.16C578.64 351.394 571.537 344.289 562.776 344.289C554.015 344.289 546.912 351.394 546.912 360.16C546.912 368.925 554.015 376.03 562.776 376.03Z" fill="#767587"/>
<path d="M651.107 382.463C660.797 382.463 668.653 374.604 668.653 364.909C668.653 355.214 660.797 347.355 651.107 347.355C641.416 347.355 633.561 355.214 633.561 364.909C633.561 374.604 641.416 382.463 651.107 382.463Z" fill="#424242"/>
<path d="M651.108 374.107C656.185 374.107 660.302 369.989 660.302 364.909C660.302 359.829 656.185 355.711 651.108 355.711C646.03 355.711 641.914 359.829 641.914 364.909C641.914 369.989 646.03 374.107 651.108 374.107Z" fill="#767587"/>
<path d="M113.552 205.487C113.552 205.487 110.034 207.499 110.788 210.013C111.542 212.528 116.819 219.128 118.893 218.625C120.903 218.122 124.422 217.368 124.422 217.368C124.422 217.368 120.652 213.848 118.893 212.088C117.134 210.328 117.573 203.35 117.573 203.35L113.552 205.487Z" fill="#01122C"/>
<path d="M140.318 212.088C140.318 212.088 139.062 217.682 140.318 218.688C141.575 219.694 154.455 218.688 154.455 218.688C154.455 218.688 156.215 214.351 151.439 213.596C146.664 212.842 145.408 212.088 145.408 212.088H140.318Z" fill="#01122C"/>
<path d="M152.192 133.011C152.946 133.011 157.973 137.285 159.732 143.885C161.491 150.423 172.864 158.28 172.864 158.28C172.864 158.28 161.491 160.48 160.737 160.166C159.983 159.789 146.852 156.772 147.229 151.994C147.606 147.217 151.627 134.331 151.627 134.331L152.192 133.011Z" fill="url(#paint7_linear)"/>
<path d="M113.803 203.225L117.133 208.756C117.133 208.756 163.754 206.242 164.005 195.116C164.257 183.99 141.826 176.949 141.826 176.949L128.191 184.807C128.191 184.807 133.218 192.601 135.228 193.922C129.699 192.853 116.316 198.887 113.803 203.225Z" fill="#383838"/>
<path d="M100.672 178.709C100.672 178.709 102.18 170.286 106.264 166.389C118.83 152.371 122.412 143.131 127.438 135.085C131.082 130.245 133.721 126.976 138.936 128.296C144.151 129.616 150.309 131.753 152.194 133.073C154.079 134.393 155.21 152.811 150.246 159.412C147.104 165.886 140.381 171.921 137.051 173.178C133.721 174.435 103.311 180.972 100.672 178.709Z" fill="url(#paint8_linear)"/>
<path d="M101.175 176.95C101.175 176.95 95.3948 192.35 107.458 194.11C119.585 195.87 143.587 177.578 143.587 177.578C143.587 177.578 134.979 208.065 138.874 213.597C143.587 214.854 145.283 212.025 145.283 212.025C145.283 212.025 169.787 169.344 161.933 164.566C152.949 153 111.291 166.578 101.175 176.95Z" fill="#424242"/>
<path d="M164.007 144.388C164.007 144.388 165.766 142.377 169.285 143.383C172.803 144.388 175.568 160.543 175.568 160.543L170.855 161.612C170.918 161.549 161.242 149.417 164.007 144.388Z" fill="#FED337"/>
<path d="M179.462 178.709C179.023 178.709 178.583 178.395 178.394 177.955C175.755 170.601 172.677 162.303 172.048 161.297C171.671 160.92 171.671 160.292 172.048 159.852C172.425 159.349 173.179 159.286 173.619 159.663C173.933 159.914 174.499 160.354 180.531 177.201C180.719 177.767 180.405 178.458 179.839 178.647C179.714 178.647 179.588 178.709 179.462 178.709Z" fill="#E7E9E6"/>
<path d="M141.071 128.799C141.071 128.799 146.852 126.473 147.229 123.959C147.606 121.445 153.386 126.41 153.386 126.41L150.371 131.816C149.365 133.576 147.229 134.456 145.344 133.765C143.145 132.948 140.82 131.439 141.071 128.799Z" fill="#EF8854"/>
<path d="M169.346 160.166C169.346 160.166 174.121 165.32 178.205 162.303C182.226 159.286 176.76 157.777 175.44 157.777C169.848 157.777 169.346 160.166 169.346 160.166Z" fill="#FA9862"/>
<path d="M150.559 112.833C150.559 112.833 146.098 114.844 147.229 121.696C148.36 128.485 155.145 128.045 155.145 128.045C155.145 128.045 162.497 121.885 162.497 117.422C162.748 115.599 150.559 112.833 150.559 112.833Z" fill="#FA9862"/>
<path d="M131.647 133.011C131.647 133.011 135.606 132.256 139.69 135.525C143.774 138.794 151.565 151.554 155.146 152.748C158.665 153.943 173.556 156.206 172.802 158.217C172.048 160.229 169.535 163.246 169.535 163.246C169.535 163.246 152.131 165.258 147.23 161.737C142.329 158.28 119.772 140.617 131.647 133.011Z" fill="url(#paint9_linear)"/>
<path d="M153.45 110.318C153.45 110.318 148.423 107.49 145.659 114.09C144.151 117.862 145.659 123.205 147.292 123.959C150.057 127.73 150.057 119.622 150.057 119.622L149.994 119.559C148.737 118.239 148.8 116.101 150.12 114.97C150.308 114.844 150.434 114.719 150.622 114.656L152.696 116.164C152.696 116.164 154.204 116.541 155.209 114.09C156.214 111.576 153.45 110.318 153.45 110.318Z" fill="#01122C"/>
<path d="M148.361 110.318L166.771 120.438L164.006 115.41C164.006 115.41 166.394 107.804 160.048 106.044C153.702 104.284 149.995 108.118 148.361 110.318Z" fill="#00BCF8"/>
<path d="M466.603 362.888C471.045 362.888 474.645 359.286 474.645 354.842C474.645 350.398 471.045 346.796 466.603 346.796C462.161 346.796 458.561 350.398 458.561 354.842C458.561 359.286 462.161 362.888 466.603 362.888Z" fill="#4A154B"/>
<path d="M723.396 217.619H80V233.774H723.396V217.619Z" fill="#424242"/>
<path d="M664.335 102.021L679.101 103.907C679.101 103.907 688.4 83.2887 674.954 79.6428C661.822 79.14 664.335 102.021 664.335 102.021Z" fill="#014880"/>
<defs>
<linearGradient id="paint0_linear" x1="182.678" y1="414.326" x2="397.581" y2="414.326" gradientUnits="userSpaceOnUse">
<stop offset="0.00396825" stop-color="#FCEFFF"/>
<stop offset="0.2807" stop-color="#EDE1F0"/>
<stop offset="0.6443" stop-color="#E1D6E4"/>
<stop offset="1" stop-color="#DDD2E0"/>
</linearGradient>
<linearGradient id="paint1_linear" x1="189.888" y1="264.744" x2="189.888" y2="317.032" gradientUnits="userSpaceOnUse">
<stop stop-color="#E8505B"/>
<stop offset="1" stop-color="#E01E5A"/>
</linearGradient>
<linearGradient id="paint2_linear" x1="184.285" y1="76.3467" x2="237.023" y2="77.7471" gradientUnits="userSpaceOnUse">
<stop stop-color="#A237A4"/>
<stop offset="1" stop-color="#4A154B"/>
</linearGradient>
<linearGradient id="paint3_linear" x1="189.035" y1="238.129" x2="233.795" y2="242.632" gradientUnits="userSpaceOnUse">
<stop stop-color="#E8505B"/>
<stop offset="1" stop-color="#E01E5A"/>
</linearGradient>
<linearGradient id="paint4_linear" x1="459.008" y1="383.163" x2="732.019" y2="383.163" gradientUnits="userSpaceOnUse">
<stop offset="0.00396825" stop-color="#FCEFFF"/>
<stop offset="0.2807" stop-color="#EDE1F0"/>
<stop offset="0.6443" stop-color="#E1D6E4"/>
<stop offset="1" stop-color="#DDD2E0"/>
</linearGradient>
<linearGradient id="paint5_linear" x1="564.122" y1="257" x2="685.5" y2="289.785" gradientUnits="userSpaceOnUse">
<stop stop-color="#FED337"/>
<stop offset="1" stop-color="#ECB22E"/>
</linearGradient>
<linearGradient id="paint6_linear" x1="557.676" y1="330.642" x2="668.232" y2="389.223" gradientUnits="userSpaceOnUse">
<stop stop-color="#FED337"/>
<stop offset="1" stop-color="#ECB22E"/>
</linearGradient>
<linearGradient id="paint7_linear" x1="154.572" y1="116.155" x2="179.69" y2="118.609" gradientUnits="userSpaceOnUse">
<stop stop-color="#00BCF8"/>
<stop offset="1" stop-color="#015BA2"/>
</linearGradient>
<linearGradient id="paint8_linear" x1="115.901" y1="96.27" x2="167.835" y2="101.854" gradientUnits="userSpaceOnUse">
<stop stop-color="#00BCF8"/>
<stop offset="1" stop-color="#015BA2"/>
</linearGradient>
<linearGradient id="paint9_linear" x1="141.02" y1="113.788" x2="184.152" y2="120.239" gradientUnits="userSpaceOnUse">
<stop stop-color="#00BCF8"/>
<stop offset="1" stop-color="#015BA2"/>
</linearGradient>
</defs>
</svg>
