<svg width="965" height="441" viewBox="0 0 965 441" fill="none" xmlns="http://www.w3.org/2000/svg">
<path d="M76.2891 221.262V195.768C76.2891 154.474 109.962 121.112 151.251 121.552C151.251 121.552 166.546 41.4827 170.888 39.3425C175.231 37.1393 191.973 56.779 191.973 56.779L193.421 157.936L201.415 158.692L203.617 100.465H274.929L276.377 50.9878L320.75 51.7432V211.127L343.282 211.883L340.45 83.7208L387.026 82.273L388.473 36.4469L410.314 19.7027L428.503 36.4469L427.056 91.0227H440.903L441.658 115.069L456.197 113.621L457.582 37.1393C457.582 37.1393 477.975 53.1281 479.422 61.8778C480.87 70.6276 480.178 159.384 480.178 159.384L497.612 157.936V86.6164H515.802L516.557 42.2381C516.557 42.2381 523.858 35.6915 528.201 34.9361C532.544 34.1807 558.035 42.2381 558.035 42.2381L559.482 83.7208L579.875 82.9654L581.323 163.728L595.17 165.931L595.925 50.2325C595.925 50.2325 634.507 69.8722 638.158 74.2786C641.808 78.622 640.361 100.465 640.361 100.465L672.398 101.22V131.813L722.624 128.917V32.7329H793.935V137.541L812.88 136.786V0H842.714V82.21H861.659L863.107 139.681L904.018 138.297L916.858 218.303L76.2891 221.262Z" fill="#EBEBEB"/>
<path d="M801.805 173.232C801.805 173.232 798.155 136.093 822.198 132.505C846.241 128.917 868.019 149.249 868.774 164.546C869.529 179.842 916.672 136.597 939.708 193.25C945.876 212.512 929.889 217.988 929.889 217.988L747.991 217.611C747.991 217.611 735.592 193.565 759.635 184.878C783.679 176.191 787.266 189.221 787.266 189.221C787.266 189.221 771.279 161.587 785.063 163.727C798.847 165.931 801.805 173.232 801.805 173.232Z" fill="#7D80B5"/>
<path d="M55.6474 203.762C55.6474 203.762 53.0668 174.806 69.9978 171.973C86.8658 169.141 102.223 185.004 102.727 196.901C103.23 208.798 163.653 180.283 179.829 224.409C184.172 239.454 145.652 238.572 145.652 238.572L17.7573 238.258C17.7573 238.258 9.07149 219.562 25.9395 212.764C42.8075 205.965 45.3881 216.163 45.3881 216.163C45.3881 216.163 34.1218 194.635 43.8775 196.334C53.6333 198.034 55.6474 203.762 55.6474 203.762Z" fill="#7D80B5"/>
<path d="M261.148 185.067C261.148 185.067 257.497 147.928 281.54 144.34C305.584 140.752 327.361 161.084 328.116 176.38C328.368 181.353 324.466 160.517 352.6 186.074C355.999 172.981 370.034 168.134 377.839 169.582C391.938 177.324 384.637 188.026 381.238 198.223C416.673 191.928 411.323 221.514 389.231 229.886C377.776 235.111 359.712 231.648 338.124 232.278C327.046 232.593 316.85 225.228 305.143 224.787C293.184 224.346 275.75 230.578 264.609 229.697C231.062 227.116 207.271 229.508 207.271 229.508C207.271 229.508 194.871 205.462 218.915 196.775C242.958 188.088 246.545 201.119 246.545 201.119C246.545 201.119 230.559 173.485 244.343 175.625C258.126 177.765 261.148 185.067 261.148 185.067Z" fill="#A7A9D8"/>
<path d="M419.001 222.962C419.001 222.962 406.413 196.776 415.099 188.97C423.596 181.416 430.645 187.522 434.674 190.796C436.939 184.627 437.695 172.415 450.031 171.533C462.367 170.652 478.228 178.143 477.158 193.565C476.088 208.987 470.487 222.521 470.487 222.521L419.001 222.962Z" fill="#A7A9D8"/>
<path d="M892.062 65.276C892.062 65.276 911.007 65.276 919.378 86.3636C928.127 103.8 925.169 147.486 916.483 151.137C929.197 148.934 938.701 156.928 921.203 179.149C906.664 186.451 888.097 190.039 883.754 183.178C879.411 179.527 843.032 178.834 848.822 153.34C854.613 127.846 867.767 136.596 867.767 136.596C867.767 136.596 834.598 67.794 892.062 65.276Z" fill="#A7A9D8"/>
<path d="M697.954 411.364C669.002 359.747 596.62 352.004 587.368 343.066C514.042 287.042 657.106 305.486 768.322 303.975C804.009 303.975 848.634 299.883 875.257 299.128C914.154 297.995 949.338 321.852 962.996 358.362C969.101 381.401 961.045 387.947 931.4 400.222C876.013 424.898 731.439 471.039 697.954 411.364Z" fill="url(#paint0_linear)"/>
<path d="M224.012 316.564L252.398 318.012L181.087 382.785L143.26 382.093L224.012 316.564Z" fill="#DDD2E0"/>
<path d="M226.906 380.645L264.041 381.337L302.624 317.319L280.028 316.564L226.906 380.645Z" fill="#DDD2E0"/>
<path d="M304.766 379.892H349.202L354.237 318.014H330.257L304.766 379.892Z" fill="#DDD2E0"/>
<path d="M388.474 378.442H432.154L407.356 316.564H381.928L388.474 378.442Z" fill="#DDD2E0"/>
<path d="M470.675 381.339H506.362L462.682 317.321H435.051L470.675 381.339Z" fill="#DDD2E0"/>
<path d="M549.978 379.889H586.421L512.906 316.564H490.311L549.978 379.889Z" fill="#DDD2E0"/>
<path d="M892.437 216.416L890.234 218.242V121.491L892.437 119.665V216.416Z" fill="#585C7F"/>
<path d="M155.215 226.675C145.271 226.675 137.277 234.733 137.277 244.616C137.277 254.561 145.334 262.556 155.215 262.556C165.097 262.556 173.153 254.498 173.153 244.616C173.153 234.67 165.097 226.675 155.215 226.675ZM155.278 257.457C148.795 257.457 143.508 252.169 143.508 245.686C143.508 239.202 148.795 233.914 155.278 233.914C161.761 233.914 167.048 239.202 167.048 245.686C167.048 252.169 161.824 257.457 155.278 257.457Z" fill="#022042"/>
<path d="M155.655 250.66C158.332 250.66 160.501 248.49 160.501 245.813C160.501 243.136 158.332 240.966 155.655 240.966C152.978 240.966 150.809 243.136 150.809 245.813C150.809 248.49 152.978 250.66 155.655 250.66Z" fill="#696969"/>
<path d="M155.403 243.862C155.403 243.862 177.747 232.217 181.586 232.217C185.425 232.217 182.782 237.316 182.782 237.316L156.85 247.261C156.913 247.261 154.962 246.065 155.403 243.862Z" fill="#696969"/>
<path d="M241.506 229.317C231.562 229.317 223.568 237.375 223.568 247.258C223.568 257.203 231.625 265.198 241.506 265.198C251.388 265.198 259.444 257.14 259.444 247.258C259.507 237.375 251.451 229.317 241.506 229.317ZM241.632 260.099C235.149 260.099 229.862 254.811 229.862 248.328C229.862 241.844 235.149 236.556 241.632 236.556C248.115 236.556 253.402 241.844 253.402 248.328C253.402 254.874 248.178 260.099 241.632 260.099Z" fill="#022042"/>
<path d="M241.317 252.104C243.994 252.104 246.164 249.933 246.164 247.257C246.164 244.58 243.994 242.41 241.317 242.41C238.641 242.41 236.471 244.58 236.471 247.257C236.471 249.933 238.641 252.104 241.317 252.104Z" fill="#696969"/>
<path d="M227.473 218.616L239.117 242.662L241.32 242.41L231.816 216.728L227.473 218.616Z" fill="#696969"/>
<path d="M138.914 208.924L161.447 209.176L185.427 208.106L209.03 207.036C209.03 207.036 210.729 203.636 215.324 204.392C219.918 205.147 227.723 211.694 227.723 211.694C227.723 211.694 238.863 207.476 248.997 212.764C249.752 213.141 249.563 214.275 248.682 214.4C232.947 216.415 227.219 217.359 219.981 224.976C214.128 234.607 189.266 234.418 184.168 233.914C180.706 233.537 173.468 232.089 168.874 230.83C166.419 230.137 163.209 226.864 161.636 224.85C159.37 221.954 156.034 218.555 155.908 217.548C155.656 215.722 140.865 214.275 138.914 208.924Z" fill="#022042"/>
<path d="M191.092 224.47C191.092 224.47 162.013 213.58 161.51 209.174C161.006 204.83 209.03 206.971 209.03 206.971C209.03 206.971 205.631 218.427 191.092 224.47Z" fill="#767587"/>
<path d="M213.184 195.326C213.184 195.326 219.981 191.172 222.625 191.172C225.268 191.172 227.975 200.614 228.415 204.265C228.856 207.916 227.786 213.455 227.786 213.455C227.786 213.455 222.562 201.306 219.415 200.614C216.331 199.985 213.372 197.53 213.184 195.326Z" fill="#022042"/>
<path d="M212.93 199.48C214.007 199.48 214.881 198.607 214.881 197.529C214.881 196.451 214.007 195.578 212.93 195.578C211.852 195.578 210.979 196.451 210.979 197.529C210.979 198.607 211.852 199.48 212.93 199.48Z" fill="#022042"/>
<path d="M163.775 197.153C163.775 197.153 156.474 209.742 167.929 212.323C179.321 214.841 188.763 214.023 188.763 214.023C188.763 214.023 182.217 221.073 183.79 231.019C185.49 235.048 181.336 236.118 181.965 237.817C182.594 239.517 186.119 244.49 186.811 243.168C187.504 241.846 185.616 237.44 185.616 237.44C185.616 237.44 200.91 217.044 197.637 209.176C194.364 201.307 179.321 200.93 178.818 200.678C178.377 200.426 163.775 197.153 163.775 197.153Z" fill="#014880"/>
<path d="M184.167 170.148C184.167 170.148 184.859 169.14 184.733 168.259C184.67 167.441 184.544 163.664 185.237 162.909C185.929 162.153 189.391 160.894 189.391 160.894L192.853 163.16C192.853 163.16 192.601 169.266 191.09 169.581C189.58 169.896 188.384 171.595 188.384 171.595C188.384 171.595 184.418 171.532 183.663 170.903C182.908 170.399 184.167 170.148 184.167 170.148Z" fill="#FC9A67"/>
<path d="M191.466 186.513C191.466 186.513 192.788 176.189 190.522 173.294C188.193 170.398 183.473 171.342 183.473 171.342L191.466 186.513Z" fill="#014880"/>
<path d="M206.951 195.013C206.951 195.013 201.601 191.74 195.181 189.789C188.761 187.837 187.754 171.471 184.292 170.841C180.767 170.212 177.746 170.212 174.096 175.059C171.2 179.654 172.522 182.801 169.942 184.501C167.424 186.201 163.773 191.173 163.773 197.091C164.403 199.042 179.886 201.119 179.886 201.119L184.481 195.517C184.481 195.517 186.684 197.972 189.957 198.412C193.23 198.916 205.44 198.412 206.699 197.783C207.958 197.279 206.951 195.013 206.951 195.013Z" fill="#0183CB"/>
<path d="M184.043 168.196L188.89 168.385L189.078 163.727L194.68 163.916C194.68 163.916 193.988 158.817 188.323 159.761C182.155 160.076 183.728 168.133 183.728 168.133L184.043 168.196Z" fill="#014880"/>
<path d="M206.637 194.635C206.637 194.635 212.427 193.502 213.183 195.705C213.938 197.908 206.763 197.908 206.763 197.908L206.637 194.635Z" fill="#FC9A67"/>
<path d="M816.154 225.606C828.743 225.606 838.939 235.803 838.939 248.393C838.939 260.982 828.743 271.18 816.154 271.18C803.566 271.18 793.37 260.982 793.37 248.393C793.37 235.803 803.566 225.606 816.154 225.606ZM816.154 218.493C799.601 218.493 786.258 231.9 786.258 248.393C786.258 264.885 799.664 278.293 816.154 278.293C832.708 278.293 846.051 264.885 846.051 248.393C846.051 231.9 832.645 218.493 816.154 218.493Z" fill="#022042"/>
<path d="M909.117 226.299C921.705 226.299 931.902 236.496 931.902 249.086C931.902 261.675 921.705 271.873 909.117 271.873C896.529 271.873 886.333 261.675 886.333 249.086C886.27 236.496 896.529 226.299 909.117 226.299ZM909.117 219.123C892.564 219.123 879.221 232.531 879.221 249.023C879.221 265.578 892.627 278.923 909.117 278.923C925.671 278.923 939.014 265.515 939.014 249.023C939.014 232.531 925.608 219.123 909.117 219.123Z" fill="#022042"/>
<path d="M815.713 253.741C818.216 253.741 820.245 251.712 820.245 249.209C820.245 246.706 818.216 244.677 815.713 244.677C813.211 244.677 811.182 246.706 811.182 249.209C811.182 251.712 813.211 253.741 815.713 253.741Z" fill="#022042"/>
<path d="M908.489 252.546C910.992 252.546 913.02 250.517 913.02 248.014C913.02 245.511 910.992 243.482 908.489 243.482C905.986 243.482 903.957 245.511 903.957 248.014C903.957 250.517 905.986 252.546 908.489 252.546Z" fill="#022042"/>
<path d="M817.097 246.943C816.909 246.943 816.72 246.88 816.531 246.817C815.839 246.503 815.587 245.684 815.902 245.055L834.532 206.782L824.587 194.382C824.273 194.004 824.21 193.5 824.398 192.997C824.587 192.556 825.028 192.241 825.531 192.179L845.546 190.605C846.239 190.542 846.931 191.108 846.994 191.801C847.057 192.556 846.491 193.186 845.798 193.249L828.301 194.633L837.238 205.775C837.553 206.153 837.616 206.719 837.427 207.223L818.419 246.251C818.104 246.691 817.601 246.943 817.097 246.943Z" fill="#022042"/>
<path d="M883.691 213.142H832.331L830.758 217.485L869.025 248.581L873.557 247.763L908.867 244.804L883.691 213.142ZM871.732 245.749L869.718 246.126L833.59 216.73L834.031 215.534H880.544L871.732 245.749ZM882.998 216.793L904.272 242.853L874.816 245.434L882.998 216.793Z" fill="#022042"/>
<path d="M882.557 205.516L882.357 214.011L883.93 214.048L884.13 205.553L882.557 205.516Z" fill="#022042"/>
<path d="M891.24 205.651C891.24 207.288 887.275 208.547 882.429 208.547C877.582 208.547 873.617 207.225 873.617 205.651C873.617 204.014 877.331 204.644 881.925 203.133C891.24 200.112 891.24 204.077 891.24 205.651Z" fill="#022042"/>
<path d="M872.989 236.936C873.115 237.628 875.381 239.517 874.563 240.524C873.745 241.531 865.625 243.671 865.625 243.671C865.625 243.671 865.814 240.524 867.01 238.887C868.206 237.251 844.981 214.904 845.61 208.987C846.24 203.07 871.605 191.55 871.605 191.55L885.892 194.95L862.73 219.499C862.73 219.436 872.234 232.718 872.989 236.936Z" fill="#4A154B"/>
<path d="M867.073 251.603C867.073 251.603 868.269 254.372 866.885 255.757C865.5 257.142 860.716 258.527 861.346 260.541C861.975 262.556 871.668 258.338 873.43 256.953C875.193 255.568 874.815 252.799 873.053 252.169C871.29 251.54 870.283 251.351 870.095 249.777C869.906 248.203 867.073 251.603 867.073 251.603Z" fill="#424143"/>
<path d="M891.62 191.299C895.334 199.986 870.409 216.289 866.821 219.626C869.024 227.179 871.983 246.567 871.353 249.337C870.724 252.107 865.437 251.099 865.437 251.099C865.437 251.099 851.59 219.751 853.352 215.786C856.499 207.036 872.549 190.04 872.549 190.04C872.549 190.04 889.795 186.956 891.62 191.299Z" fill="#983299"/>
<path d="M865.061 170.524C865.061 170.524 851.592 186.576 840.892 187.583C830.192 188.59 832.143 193.123 832.143 193.123L841.647 191.738C841.647 191.738 863.676 190.353 868.586 176.882C873.621 163.348 865.061 170.524 865.061 170.524Z" fill="#FC9A67"/>
<path d="M864.681 139.555C864.681 139.555 864.115 149.437 865.688 150.445C867.262 151.452 871.038 150.067 871.038 150.067C871.038 150.067 872.612 152.648 872.234 154.41C871.856 156.173 871.227 157.809 871.227 157.809L877.962 152.459C877.962 152.459 873.43 148.493 873.996 147.297C874.563 146.101 875.759 139.743 875.759 139.743C875.759 139.743 871.605 136.596 870.786 136.344C869.968 136.155 865.248 135.526 865.248 135.526L864.681 139.555Z" fill="#FC9A67"/>
<path d="M870.219 158.628L863.484 167.755C863.484 167.755 866.443 175.309 868.645 176.882C870.848 178.456 869.023 190.353 869.023 190.353C869.023 190.353 888.22 196.522 893.57 190.542C898.92 184.562 883.059 152.899 879.912 151.703C876.765 150.507 875.947 154.473 871.604 156.236C871.226 156.802 870.219 158.628 870.219 158.628Z" fill="#EDEDED"/>
<path d="M868.458 129.484C868.458 129.484 861.094 130.491 861.094 134.645C861.094 138.8 864.052 140.563 865.625 139.807C867.199 138.989 869.402 137.415 870.157 138.233C870.975 139.052 869.968 140.625 870.535 141.633C871.101 142.64 872.486 140.437 873.682 140.814C874.878 141.192 871.731 144.402 872.675 145.347C873.619 146.291 875.255 146.165 875.255 146.165C875.255 146.165 882.619 142.577 880.605 138.422C878.654 134.268 878.025 134.834 875.633 134.079C873.43 133.261 871.227 129.295 868.458 129.484Z" fill="#662C30"/>
<path d="M503.188 241.905C503.188 241.905 505.059 262.397 516.979 262.644C524.466 262.791 531.017 262.545 534.76 262.348C537.174 262.2 539.44 261.067 541.016 259.195C544.07 255.501 548.453 248.653 547.419 240.377L503.188 241.905Z" fill="#00122C"/>
<path d="M545.941 197.373C545.941 197.373 544.512 190.131 547.221 189.737C549.93 189.343 558.747 188.506 558.747 188.506L545.941 197.373Z" fill="#014880"/>
<path d="M541.017 257.225L707.057 250.969L751.141 248.407C753.899 248.26 756.313 246.634 757.544 244.171L760.943 237.225L535.008 242.299L541.017 257.225Z" fill="#00122C"/>
<path d="M547.024 196.093C547.024 196.093 577.612 165.994 610.711 159.098C643.811 152.201 715.084 155.107 727.102 159.787C739.121 164.467 749.661 182.398 749.661 182.398C749.661 182.398 759.512 191.216 758.774 197.177C758.035 203.137 761.335 206.684 760.153 213.088C758.971 219.492 759.069 222.694 759.069 222.694C759.069 222.694 763.601 222.103 762.911 228.507C762.172 234.911 760.892 237.226 760.892 237.226L750.843 237.522C750.843 237.522 750.302 218.802 732.964 219.344C715.626 219.837 712.326 239.098 712.326 239.098L610.465 243.482C610.465 243.482 610.81 224.32 588.941 225.847C567.071 227.423 566.529 251.315 566.529 251.315L499.739 249.936C499.739 249.936 493.237 245.551 494.074 228.211C494.912 210.871 500.773 207.916 500.773 207.916C500.773 207.916 506.438 196.832 547.024 196.093Z" fill="url(#paint1_linear)"/>
<path d="M555.645 194.269C555.645 194.269 586.971 166.436 604.703 162.939L636.571 162.347C636.571 162.347 614.259 170.623 595.344 193.776L555.645 194.269Z" fill="#F0EBF2"/>
<path d="M614.061 193.678C614.061 193.678 628.295 154.762 684.2 163.629L681.984 191.215L614.061 193.678Z" fill="#F0EBF2"/>
<path d="M691.047 190.476L693.657 164.022C693.657 164.022 712.522 161.017 724.984 166.19C740.253 173.973 735.623 186.88 735.623 186.88L691.047 190.476Z" fill="#F0EBF2"/>
<path d="M742.322 195.352C742.322 195.352 745.721 187.47 755.326 188.111C761.384 192.051 758.872 200.623 758.872 200.623L745.179 201.165L742.322 195.352Z" fill="#E8505B"/>
<path d="M555.005 224.022L551.114 224.12C548.405 224.219 546.09 222.101 545.893 219.391C545.696 216.879 546.434 214.022 549.931 212.298C557.123 208.751 568.304 205.352 572.244 204.958C575.938 204.564 567.171 219.096 558.059 223.332C557.123 223.776 556.039 223.973 555.005 224.022Z" fill="#FED337"/>
<path d="M565.496 246.83C565.496 246.83 566.136 269.343 583.228 270.968C603.817 272.742 608.201 261.116 609.58 256.781C610.959 252.495 611.599 243.481 611.599 243.481C611.599 243.481 611.107 226.14 591.404 224.663C569.584 225.549 565.496 246.83 565.496 246.83Z" fill="#022042"/>
<path d="M707.402 238.702C707.402 238.702 705.727 264.318 730.946 263.284C756.165 262.249 750.895 237.619 750.895 237.619C750.895 237.619 750.944 218.899 732.67 218.21C714.347 217.471 707.402 238.702 707.402 238.702Z" fill="#022042"/>
<path d="M502.844 230.279H539.194C539.194 230.279 541.854 245.55 519.59 246.091C502.154 245.106 502.844 230.279 502.844 230.279Z" fill="#022042"/>
<path d="M506.585 218.11C506.634 219.982 508.211 221.411 510.033 221.361L536.582 220.573C538.503 220.524 539.98 218.898 539.833 216.977V216.731C539.685 214.908 538.158 213.529 536.336 213.627L509.787 214.662C508.014 214.711 506.536 216.287 506.585 218.11Z" fill="#00122C"/>
<path d="M611.846 191.313C611.156 194.269 610.466 199.048 612.584 201.018C613.52 201.314 632.976 201.018 633.863 200.378C638.05 198.407 638.148 190.525 635.932 188.161C634.208 187.274 620.613 188.21 614.998 188.653C613.471 188.752 612.19 189.836 611.846 191.313Z" fill="#0183CB"/>
<path d="M604.713 250.726C605.032 244.013 600.267 238.334 594.072 238.04C587.876 237.746 582.596 242.949 582.277 249.662C581.959 256.375 586.724 262.054 592.919 262.348C599.115 262.642 604.395 257.439 604.713 250.726Z" fill="#767587"/>
<path d="M735.016 254.026C741.352 253.839 746.328 248.242 746.13 241.525C745.932 234.808 740.636 229.514 734.3 229.7C727.964 229.887 722.988 235.484 723.186 242.201C723.384 248.918 728.681 254.212 735.016 254.026Z" fill="#767587"/>
<path d="M496.636 214.121C496.636 214.121 495.158 217.766 498.557 217.963C501.956 218.161 507.719 208.505 507.719 208.505C508.654 205.697 508.014 204.614 506.29 204.614C502.153 205.155 497.769 209.244 496.636 214.121Z" fill="#FED337"/>
<path d="M659.328 198.85H644.945C644.206 198.85 643.615 198.259 643.615 197.52V196.387C643.615 195.648 644.206 195.057 644.945 195.057H659.328C660.067 195.057 660.658 195.648 660.658 196.387V197.52C660.658 198.21 660.067 198.85 659.328 198.85Z" fill="#0183CB"/>
<path d="M653.336 317.394C653.336 317.394 653.336 314.183 650.756 313.995C648.175 313.806 642.321 309.966 644.461 308.833C646.538 307.7 651.385 310.595 652.518 311.099C653.651 311.603 657.868 311.414 658.183 313.05C658.497 314.687 658.183 315.82 657.868 316.261C657.553 316.764 655.917 318.023 655.917 318.023L653.336 317.394Z" fill="#424143"/>
<path d="M668.255 321.421C668.255 321.421 660.513 313.364 662.59 311.727C664.667 310.091 671.15 319.029 671.339 319.47C671.528 319.911 670.206 323.373 670.206 323.373L668.255 321.421Z" fill="#424143"/>
<path d="M694.75 306.377C691.855 292.969 678.071 302.978 678.071 302.978C678.071 302.978 677.882 303.104 677.568 303.293C677.253 303.544 676.749 303.922 676.183 304.426C674.735 305.81 672.784 308.265 671.966 311.791C670.518 317.959 668.756 330.864 665.483 329.416C662.21 327.968 656.608 316.826 656.608 316.826L653.398 317.33C653.398 317.33 655.475 341.943 662.588 344.335C669.889 345.279 675.679 335.774 675.679 335.774C675.679 335.774 678.575 346.79 682.603 346.79C694.561 346.664 697.645 319.848 694.75 306.377ZM684.554 330.045C684.554 330.045 682.099 331.808 679.833 329.731C679.833 329.731 684.365 321.296 684.554 319.218C684.743 317.078 684.554 330.045 684.554 330.045Z" fill="#963298"/>
<path d="M675.996 275.029C675.996 275.029 666.932 279.561 664.352 277.609C661.771 275.658 659.82 272.133 661.142 269.174C659.065 266.594 654.344 267.223 653.715 260.299C655.666 254.508 659.379 255.767 659.379 255.767C659.379 255.767 659.379 250.605 662.589 249.786C668.254 248.15 670.835 252.997 670.835 252.997C670.835 252.997 670.835 250.227 675.052 249.786C682.164 249.157 681.975 258.347 680.527 259.795C679.08 261.243 674.045 268.545 674.045 268.545L675.996 275.029Z" fill="#022042"/>
<path d="M687.954 274.086C687.954 274.086 708.158 263.07 708.347 256.46C708.536 249.977 707.025 247.585 708.032 246.892C708.976 246.263 710.109 247.836 710.109 247.836C710.109 247.836 710.739 243.493 711.872 242.99C713.005 242.486 717.033 244.626 716.403 247.522C715.774 250.417 713.193 256.586 711.872 257.405C710.109 260.3 698.276 281.64 691.353 282.458C684.367 283.276 687.954 274.086 687.954 274.086Z" fill="#FC9A67"/>
<path d="M681.659 269.868C681.659 269.868 682.603 259.167 677.316 257.594C671.966 255.957 668.252 260.174 668.252 260.174C668.252 260.174 668.441 262.755 668.756 264.392C669.07 266.029 669.07 267.791 669.07 267.791C669.07 267.791 664.728 266.973 665.168 269.113C665.672 271.19 668.882 271.883 668.882 271.883C668.882 271.883 669.7 273.834 670.518 274.338C671.336 274.841 677.63 275.156 678.134 275.156C678.637 275.156 682.036 272.072 682.036 272.072L681.659 269.868Z" fill="#FC9A67"/>
<path d="M674.863 302.348C674.863 302.348 677.444 298.949 675.493 294.92C673.541 290.891 671.905 276.791 674.36 275.343C676.814 273.895 686.948 274.84 686.948 274.84C686.948 274.84 695.193 286.17 695.382 291.332C695.571 296.494 694.249 306.062 694.752 306.376C695.256 306.754 679.08 309.65 674.863 302.348Z" fill="#FED337"/>
<path d="M677.946 275.659C677.946 275.659 675.995 283.275 682.289 281.135C686.632 279.184 696.513 262.062 693.303 250.542C695.38 245.507 696.073 242.296 695.254 239.401C694.625 238.456 692.485 235.183 691.226 236.19C689.905 237.135 689.149 242.485 689.149 242.485C689.149 242.485 687.198 240.408 687.072 241.163C686.946 241.919 690.156 248.465 690.156 250.542C690.03 252.683 682.603 274.211 677.946 275.659Z" fill="#FC9A67"/>
<path d="M851.403 376.804C851.403 376.804 839.57 375.168 838.689 377.686C837.808 380.204 850.333 381.337 851.403 380.078C852.536 378.819 851.403 376.804 851.403 376.804Z" fill="#424143"/>
<path d="M853.037 350.117C853.037 350.117 850.331 375.422 848.883 377.247C847.436 379.073 850.897 378.003 850.897 378.003C850.897 378.003 860.905 361.07 860.024 353.831C859.08 346.466 853.037 350.117 853.037 350.117Z" fill="#EF8854"/>
<path d="M927.308 324.055C927.308 324.055 929.7 325.881 929.134 327.706C928.567 329.532 928.945 332.427 929.889 332.805C930.77 333.183 935.554 333.183 935.365 329.909C935.176 326.636 930.833 320.089 928.63 320.782C926.364 321.537 927.308 324.055 927.308 324.055Z" fill="#424143"/>
<path d="M903.643 332.617C903.643 332.617 906.538 335.513 907.671 334.254C908.741 332.995 909.308 327.329 927.308 324.056C928.945 324.811 929.134 327.707 929.134 327.707C929.134 327.707 903.832 345.144 902.762 345.144C901.629 345.206 903.643 332.617 903.643 332.617Z" fill="#FC9A67"/>
<path d="M866.13 308.065C857.57 315.43 852.283 349.548 850.836 350.429C849.388 351.31 865.941 354.584 866.508 353.891C869.025 351.688 874.879 328.586 874.879 328.586C874.879 328.586 878.152 339.161 902.006 346.589C904.398 345.834 906.349 331.482 906.349 331.482C906.349 331.482 889.229 311.653 890.362 307.625C881.802 302.085 870.725 304.099 866.13 308.065Z" fill="#014880"/>
<path d="M848.696 298.812C848.696 298.812 835.793 303.722 833.779 303.344C831.765 302.966 830.695 299 828.492 299.189C826.289 299.378 829.059 303.029 829.059 303.029C829.059 303.029 822.513 302.274 821.758 302.651C821.002 303.029 822.828 310.268 832.52 309.198C842.213 308.128 851.277 307.373 852.724 304.477C854.172 301.581 848.696 298.812 848.696 298.812Z" fill="#FC9A67"/>
<path d="M821.379 290.756C821.379 290.756 814.645 290.567 814.645 292.77C814.645 294.973 822.827 296.799 825.03 296.232C827.233 295.666 838.31 294.973 839.38 292.959C840.45 290.945 839.002 288.238 839.002 288.238C839.002 288.238 829.184 290.252 827.17 290.252C825.156 290.252 822.827 287.546 822.26 286.601C821.694 285.72 819.869 286.412 820.624 288.616C821.379 290.756 821.379 290.756 821.379 290.756Z" fill="#FC9A67"/>
<path d="M836.171 287.482C835.668 286.349 836.045 285.027 837.052 284.208C841.521 280.683 854.109 271.304 859.585 271.304C866.32 271.304 871.607 269.29 871.607 269.29C871.607 269.29 876.516 268.408 880.544 272.752C884.572 277.095 886.901 286.411 891.118 286.915C895.272 287.482 898.042 287.67 898.608 292.392C899.175 297.113 899.489 306.429 899.489 306.429C899.489 306.429 866.194 312.598 864.557 308.821C862.921 304.981 858.389 290.062 856.564 289.181C854.739 288.3 843.472 295.161 841.269 295.35C839.696 295.476 837.367 290.377 836.171 287.482Z" fill="#0183CB"/>
<path d="M847.184 299.001C846.429 297.994 846.869 296.546 848.002 296.043C851.653 294.469 858.702 291.196 860.276 288.804C862.479 285.53 868.269 274.766 873.367 275.522C878.465 276.277 881.172 292.455 867.891 300.071C854.611 307.688 852.408 306.429 852.408 306.429L847.184 299.001Z" fill="#0D95D1"/>
<path d="M858.516 265.135C858.516 265.135 862.356 270.045 861.789 272.059C861.223 274.073 870.916 272.626 871.23 270.989C871.608 269.352 868.146 260.099 868.146 260.099L865.251 252.293C865.251 252.293 855.81 248.454 855.244 248.139C854.677 247.824 851.089 249.02 850.712 250.657C850.334 252.294 850.145 265.387 851.467 266.331C852.663 267.149 858.516 265.135 858.516 265.135Z" fill="#FC9A67"/>
<path d="M850.33 243.67C850.33 243.67 848.504 245.874 849.763 248.769C851.022 251.665 855.05 252.42 856.875 252.231C858.701 252.042 861.218 252.231 861.218 253.113C861.218 253.994 861.785 254.938 862.288 254.938C862.855 254.938 864.302 253.868 864.995 254.749C865.687 255.63 862.792 257.834 862.981 259.281C863.169 260.729 864.995 262.555 866.631 262.366C868.268 262.177 877.016 252.924 872.61 246.692C868.268 240.523 864.995 243.607 861.533 243.419C858.134 243.293 853.414 240.712 850.33 243.67Z" fill="#662C30"/>
<path d="M755.673 314.413C766.831 314.413 775.876 305.366 775.876 294.206C775.876 283.047 766.831 274 755.673 274C744.514 274 735.469 283.047 735.469 294.206C735.469 305.366 744.514 314.413 755.673 314.413Z" fill="url(#paint2_linear)"/>
<path d="M194.43 325.442C203.304 315.811 183.1 309.264 155.973 306.495C35.2533 308.824 -0.0562394 340.801 0.006701 346.655C-0.559762 382.662 34.8757 400.035 72.9546 410.485C143.196 425.97 146.28 402.49 139.923 375.36C141.119 352.824 176.932 344.515 194.43 325.442Z" fill="url(#paint3_linear)"/>
<path d="M267.314 330.035L267.881 344.262L273.105 344.828C273.105 344.828 275.748 334.379 275.434 328.273C275.182 322.167 267.314 330.035 267.314 330.035Z" fill="#FC9A67"/>
<path d="M311.498 330.035C311.498 330.035 313.26 342.813 313.26 344.891C313.26 346.905 319.366 347.22 320.813 345.772C319.051 343.443 321.128 326.321 321.128 326.321L311.498 330.035Z" fill="#FC9A67"/>
<path d="M265.615 329.155C265.615 329.155 272.286 333.247 278.391 329.722C281.853 297.429 297.022 228.816 305.141 224.787C307.785 230.893 307.155 249.211 312.694 264.633C304.826 287.924 306.903 330.351 311.246 333.247C315.589 336.142 321.128 331.232 321.128 331.232C321.128 331.232 335.478 274.39 334.22 261.675C332.961 244.049 335.352 205.274 331.324 201.182C327.233 197.09 286.825 194.384 277.258 204.392C271.468 213.142 271.468 262.808 272.034 265.452C269.643 271.306 261.838 285.532 265.615 329.155Z" fill="#424242"/>
<path d="M264.986 137.857C264.986 137.857 253.342 132.317 255.671 127.093C258 121.868 260.644 124.197 260.644 124.197C260.644 124.197 253.091 117.21 257.182 113.748C261.273 110.285 269.078 114.629 269.078 114.629C269.078 114.629 260.329 107.39 269.078 100.403C267.063 107.39 269.644 113.496 278.644 111.167C287.645 108.838 287.645 89.3867 297.841 87.876C308.038 86.4282 309.485 93.7931 309.485 93.7931C309.485 93.7931 312.632 92.5341 316.409 96.5628C320.185 100.591 314.646 113.748 316.094 116.895C317.542 120.042 319.87 125.897 319.87 125.897C319.87 125.897 306.212 143.648 305.016 143.9C303.884 144.214 275.623 145.914 275.623 145.914L264.986 137.857Z" fill="#662C30"/>
<path d="M295.261 115.763C295.261 115.763 276.63 119.225 272.287 126.527C266.497 133.199 253.972 154.161 269.644 171.912C271.973 174.556 274.49 175.878 275.434 178.018C270.777 183.558 267.567 197.343 270.777 203.009C279.211 218.431 331.263 208.548 333.277 203.009C335.291 197.469 329.5 183.809 329.5 183.809L335.605 192.245C335.605 192.245 339.067 183.809 347.249 184.124C350.648 184.25 345.235 178.837 340.263 166.121C333.402 148.559 330.696 123.946 309.422 118.407C301.051 116.896 295.261 115.763 295.261 115.763Z" fill="url(#paint4_linear)"/>
<path d="M290.037 163.099C286.387 160.833 281.037 163.666 278.141 150.887C275.246 138.109 268.826 134.332 265.05 137.794C259.322 147.551 258.064 179.655 288.338 180.851C297.842 181.732 297.527 164.232 290.037 163.099Z" fill="#FDBB00"/>
<path d="M312.696 141.317L310.682 164.86C310.682 164.86 310.682 168.07 313.892 168.951C317.102 169.833 322.011 169.266 322.011 169.266C322.011 169.266 324.34 169.833 324.906 168.133C325.473 166.371 328.116 142.828 327.235 141.065C326.354 139.303 315.591 139.618 315.591 139.618C315.591 139.618 313.829 139.555 312.696 141.317Z" fill="#022042"/>
<path d="M326.605 131.75C326.605 131.75 327.487 168.701 328.368 182.927C329.564 187.585 333.025 191.929 335.606 192.243C339.382 186.452 347.628 187.648 349.579 184.123C337.998 168.638 334.158 136.346 326.605 131.75Z" fill="#FDBB00"/>
<path d="M309.8 158.502L290.351 164.293C290.351 164.293 284.246 176.82 288.337 178.834C292.428 180.849 309.548 163.979 309.548 163.979C309.548 163.979 321.192 160.768 320.877 156.425C320.563 152.081 309.8 158.502 309.8 158.502Z" fill="#FC9A67"/>
<path d="M352.536 212.577C352.536 211.696 335.668 192.245 335.668 192.245C335.668 192.245 337.43 181.795 349.641 184.124C352.536 195.77 356.627 205.653 356.627 205.653C356.627 205.653 363.299 207.1 361.599 212.892C359.837 218.683 358.138 222.46 356.627 218.683C355.117 214.906 352.536 212.577 352.536 212.577Z" fill="#EF8854"/>
<path d="M295.259 118.028C295.259 118.028 298.217 110.096 297.021 108.019C295.322 106.823 293.811 103.487 296.392 102.039C298.972 100.591 300.735 102.92 300.735 102.92C300.735 102.92 309.735 101.472 309.735 98.262C309.609 96.0588 312.253 98.199 312.63 99.7098C312.63 101.724 313.134 110.789 310.176 111.985C307.218 113.181 305.644 112.551 305.644 112.551L306.211 119.538C306.273 119.538 299.035 125.015 295.259 118.028Z" fill="#FC9A67"/>
<path d="M266.183 358.802C266.183 358.802 261.84 348.038 267.63 342.814C269.644 345.458 273.735 342.814 273.735 342.814C273.735 342.814 271.092 362.013 266.183 358.802Z" fill="#022042"/>
<path d="M313.262 344.83C313.262 344.83 311.248 349.173 314.395 351.502C317.605 353.832 330.948 355.279 332.144 353.265C333.277 351.251 328.934 350.369 326.039 347.726C323.143 345.082 320.248 343.634 320.248 343.634C320.248 343.634 318.8 346.907 313.262 344.83Z" fill="#022042"/>
<path d="M377.65 323.677C377.65 323.677 380.294 345.457 386.084 348.416C391.875 351.311 395.4 351.311 394.518 349.297C393.637 347.283 390.176 347.283 389.546 346.401C388.98 345.52 387.217 321.978 396.533 317.32C405.848 312.661 386.084 309.766 385.203 310.647C384.322 311.465 377.65 323.677 377.65 323.677Z" fill="#4C1B22"/>
<path d="M427.373 328.902C427.373 328.902 428.506 349.864 434.045 351.878C439.583 353.892 441.912 351.311 441.912 351.311C441.912 351.311 439.583 347.535 437.569 347.22C435.555 346.905 434.359 328.335 435.241 322.229C436.059 316.124 427.373 328.902 427.373 328.902Z" fill="#4C1B22"/>
<path d="M374.187 292.897C375.131 293.275 368.648 295.541 368.396 301.647C368.144 307.753 373.054 317.951 369.529 321.979C366.067 326.071 363.99 328.967 363.99 328.967C363.99 328.967 367.452 345.522 369.214 348.417C370.977 351.313 374.753 352.509 375.634 350.747C376.515 348.984 372.739 348.103 372.739 348.103C372.739 348.103 368.081 327.456 389.607 319.902C405.909 316.125 415.79 324.56 415.79 324.56C415.79 324.56 410.251 348.417 412.329 350.998C414.343 353.642 417.867 357.671 419 354.46C420.133 351.25 415.538 348.669 415.538 348.669C415.538 348.669 419 339.919 421.644 338.472C424.287 337.024 439.078 324.812 438.826 318.706C438.512 312.6 437.064 287.043 439.959 284.966C442.855 282.952 452.17 286.099 453.303 282.637C454.436 279.175 451.54 273.635 451.54 273.635L441.092 273.321C441.092 273.321 437.316 268.348 433.854 268.348C430.392 268.348 426.868 268.662 426.868 268.662C426.868 268.662 421.895 263.123 419.881 261.99C417.867 260.857 422.777 270.992 422.777 270.992C422.777 270.992 423.91 276.783 422.777 280.308C421.644 283.77 420.133 290.505 418.686 291.072C417.238 291.638 383.817 293.716 380.921 291.387C378.026 289.058 363.739 280.056 371.606 255.884C361.724 255.884 358.137 261.423 357.633 267.529C356.941 275.587 362.543 285.407 374.187 292.897Z" fill="#662C30"/>
<path d="M433.414 299.506C431.778 299.506 429.952 299.317 428.127 298.876C425.358 298.184 420.386 296.358 417.994 291.826C406.916 286.727 352.536 217.61 350.207 214.652L351.592 213.582C371.481 238.887 411.07 287.42 418.938 290.378L419.253 290.504L419.378 290.819C421.393 294.911 425.924 296.61 428.505 297.24C432.47 298.184 436.121 297.869 437.002 297.177L438.072 298.562C437.191 299.128 435.491 299.506 433.414 299.506Z" fill="#FCBB00"/>
<path d="M127.588 340.801C126.203 340.801 125.07 339.668 125.07 338.283L122.867 172.352C122.867 170.968 124 169.772 125.385 169.772C126.769 169.709 127.965 170.905 127.965 172.289L130.168 338.22C130.168 339.605 129.035 340.738 127.588 340.801Z" fill="#585C7F"/>
<path d="M110.152 176.695L146.532 167.19V74.7827H106.502V176.695H110.152Z" fill="#585C7F"/>
<path d="M130.168 105.312C135.591 105.312 139.987 100.916 139.987 95.4923C139.987 90.069 135.591 85.6725 130.168 85.6725C124.746 85.6725 120.35 90.069 120.35 95.4923C120.35 100.916 124.746 105.312 130.168 105.312Z" fill="#9A9BC6"/>
<path d="M130.168 133.009C135.591 133.009 139.987 128.613 139.987 123.19C139.987 117.766 135.591 113.37 130.168 113.37C124.746 113.37 120.35 117.766 120.35 123.19C120.35 128.613 124.746 133.009 130.168 133.009Z" fill="#9A9BC6"/>
<path d="M130.168 160.644C135.591 160.644 139.987 156.248 139.987 150.824C139.987 145.401 135.591 141.004 130.168 141.004C124.746 141.004 120.35 145.401 120.35 150.824C120.35 156.248 124.746 160.644 130.168 160.644Z" fill="#2EB67D"/>
<path d="M100.584 342.627C99.5772 342.753 98.696 341.998 98.5701 340.991L86.045 220.823C85.9191 219.816 86.6744 218.935 87.6814 218.809C88.6885 218.683 89.5696 219.438 89.6955 220.445L102.221 340.613C102.284 341.62 101.591 342.564 100.584 342.627Z" fill="#585C7F"/>
<path d="M81.5129 155.481L63.7637 228.123L113.235 210.876L81.5129 155.481Z" fill="#E01E5A"/>
<path d="M85.0998 173.233L74.4629 216.856L104.171 206.469L85.0998 173.233Z" fill="#EBEAEB"/>
<defs>
<linearGradient id="paint0_linear" x1="587.5" y1="288.5" x2="977" y2="441" gradientUnits="userSpaceOnUse">
<stop stop-color="#2EB67D"/>
<stop offset="1" stop-color="#1BA46A"/>
</linearGradient>
<linearGradient id="paint1_linear" x1="628.467" y1="251.507" x2="628.698" y2="154.893" gradientUnits="userSpaceOnUse">
<stop stop-color="#0183CB"/>
<stop offset="0.1451" stop-color="#016EB1"/>
<stop offset="0.3079" stop-color="#015D9B"/>
<stop offset="0.4878" stop-color="#01518C"/>
<stop offset="0.6963" stop-color="#014A83"/>
<stop offset="1" stop-color="#014880"/>
</linearGradient>
<linearGradient id="paint2_linear" x1="755.408" y1="323.074" x2="746.908" y2="273.574" gradientUnits="userSpaceOnUse">
<stop stop-color="#E01E5A"/>
<stop offset="1" stop-color="#E8505B"/>
</linearGradient>
<linearGradient id="paint3_linear" x1="1.13018e-06" y1="306" x2="98.2737" y2="415.423" gradientUnits="userSpaceOnUse">
<stop stop-color="#2EB67D"/>
<stop offset="1" stop-color="#1BA46A"/>
</linearGradient>
<linearGradient id="paint4_linear" x1="268.108" y1="115.763" x2="363.316" y2="131.097" gradientUnits="userSpaceOnUse">
<stop stop-color="#FED337"/>
<stop offset="1" stop-color="#ECB22E"/>
</linearGradient>
</defs>
</svg>
