<svg width="985" height="440" viewBox="0 0 985 440" fill="none" xmlns="http://www.w3.org/2000/svg">
<path d="M332.702 116.666V72.4136H376.941V116.666H393.593V35.8925H439.717V100.637L461.522 78.8252C461.522 78.8252 476.918 78.8252 478.803 78.8252C480.751 78.8252 478.803 25.6465 478.803 25.6465H504.442V105.792H511.48V40.4183H532.656V103.214H535.861V0H581.357V34.6353H614.662V104.535H628.109V55.7559H678.758V216.675H330.754C330.754 216.675 334.273 118.301 332.702 116.666Z" fill="#E7E9E6"/>
<path d="M922.259 215.481H657.266V217.429H922.259V215.481Z" fill="#BFC1DD"/>
<path d="M625.218 206.995C624.087 206.995 623.019 206.429 622.39 205.486C621.385 203.915 621.825 201.84 623.396 200.834C624.401 200.206 647.777 185.057 658.586 183.045C663.613 182.102 670.337 182.417 676.809 182.731C684.036 183.045 691.513 183.423 695.032 181.977C697.357 181.034 703.83 177.891 711.245 174.308C733.616 163.496 752.593 154.445 757.935 153.564C759.631 153.313 762.333 152.622 765.538 151.93C777.226 149.227 794.821 145.079 805.881 147.216C808.897 147.781 812.73 148.159 816.815 148.536C830.891 149.856 848.423 151.427 859.043 163.685C871.485 178.017 890.4 192.537 890.588 192.726C892.034 193.857 892.348 195.994 891.217 197.44C890.086 198.886 887.949 199.2 886.504 198.069C885.687 197.44 866.835 182.92 853.953 168.148C845.093 157.902 829.069 156.456 816.187 155.262C811.976 154.885 807.955 154.507 804.624 153.879C794.947 152.056 777.478 156.142 767.046 158.53C763.59 159.348 760.888 159.976 759.003 160.29C754.227 161.108 729.154 173.176 714.135 180.468C706.281 184.24 700.06 187.257 697.546 188.326C692.644 190.4 684.727 190.023 676.369 189.583C670.274 189.268 663.927 189.017 659.654 189.771C651.799 191.217 633.324 202.406 626.915 206.617C626.475 206.806 625.846 206.995 625.218 206.995Z" fill="#BFC1DD"/>
<path d="M660.66 186.314H657.77V217.618H660.66V186.314Z" fill="#BFC1DD"/>
<path d="M710.617 179.902H707.727V217.429H710.617V179.902Z" fill="#BFC1DD"/>
<path d="M765.727 156.142H762.836V216.423H765.727V156.142Z" fill="#BFC1DD"/>
<path d="M802.928 149.102H800.037V216.423H802.928V149.102Z" fill="#BFC1DD"/>
<path d="M838.809 155.513H835.918V216.863H838.809V155.513Z" fill="#BFC1DD"/>
<path d="M802.11 137.787C798.654 136.97 792.307 136.593 786.526 136.404C785.646 133.638 783.824 128.861 781.876 128.358C781.876 128.358 777.728 127.227 778.86 132.884C779.174 134.393 779.362 135.461 779.551 136.278C776.095 136.215 773.77 136.278 773.77 136.278L776.534 150.107L810.216 148.662C810.153 148.599 809.651 139.547 802.11 137.787Z" fill="#BFC1DD"/>
<path d="M695.095 210.201C656.511 210.201 625.092 178.771 625.092 140.176C625.092 101.58 656.511 70.1507 695.095 70.1507C733.678 70.1507 765.098 101.58 765.098 140.176C765.098 178.771 733.678 210.201 695.095 210.201ZM695.095 76.8137C660.219 76.8137 631.816 105.226 631.816 140.113C631.816 174.999 660.219 203.412 695.095 203.412C729.97 203.412 758.374 174.999 758.374 140.113C758.374 105.226 729.97 76.8137 695.095 76.8137Z" fill="#9A9BC6"/>
<path d="M695.095 148.473C700.058 148.473 704.081 144.449 704.081 139.484C704.081 134.52 700.058 130.495 695.095 130.495C690.133 130.495 686.109 134.52 686.109 139.484C686.109 144.449 690.133 148.473 695.095 148.473Z" fill="#9A9BC6"/>
<path d="M642.976 96.9299L640.691 100.009L747.704 179.483L749.989 176.404L642.976 96.9299Z" fill="#9A9BC6"/>
<path d="M697.671 145.77H693.838L693.146 73.4821H696.98L697.671 145.77Z" fill="#9A9BC6"/>
<path d="M751.763 101.926L633.879 169.23L635.779 172.56L753.663 105.256L751.763 101.926Z" fill="#9A9BC6"/>
<path d="M631.5 166.891C631.5 166.891 622.074 175.377 627.164 182.417C632.254 189.457 641.24 182.417 641.24 182.417L631.5 166.891Z" fill="#9A9BC6"/>
<path d="M631.943 112.58C631.943 112.58 619.438 103.592 625.848 97.18C632.257 90.7684 640.615 101.643 640.615 101.643L631.943 112.58Z" fill="#9A9BC6"/>
<path d="M685.482 70.905C685.482 70.905 682.906 58.7103 691.263 57.4531C699.621 56.196 702.135 71.5336 702.135 71.5336L685.482 70.905Z" fill="#9A9BC6"/>
<path d="M750.834 99.1286C750.834 99.1286 757.872 90.1398 764.91 96.5514C771.948 102.963 758.5 112.58 758.5 112.58L750.834 99.1286Z" fill="#9A9BC6"/>
<path d="M754.667 173.491C756.615 173.491 763.653 179.902 758.5 186.314C753.347 192.726 744.424 185.685 744.424 185.685L754.667 173.491Z" fill="#9A9BC6"/>
<path d="M689.312 208.126C689.312 208.126 689.313 219.692 696.351 220.321C703.389 220.949 706.593 210.075 704.017 207.498C701.503 204.92 689.312 208.126 689.312 208.126Z" fill="#9A9BC6"/>
<path d="M732.296 243.327L655.129 240.498L695.095 133.198L732.296 243.327ZM661.978 235.91L728.148 238.236L695.095 147.09L661.978 235.91Z" fill="#9A9BC6"/>
<path d="M640.299 243.013C640.299 243.013 608.251 255.836 605.675 244.27C603.098 232.704 612.084 218.624 622.327 217.995C632.57 217.366 635.146 222.458 638.351 221.829C641.556 221.201 642.184 216.675 649.222 219.252C656.26 221.829 665.875 226.921 663.989 238.487C662.104 250.116 644.761 242.384 640.299 243.013Z" fill="#7D80B5"/>
<path d="M885.638 228.959C885.638 228.959 852.773 223.553 854.156 202.872C855.601 182.191 867.792 187.597 868.483 182.569C869.174 177.603 852.773 126.938 884.193 124.11C915.612 121.281 915.55 174.02 910.585 178.294C905.621 182.569 920.577 175.466 923.404 193.255C926.232 211.107 921.959 228.896 916.995 230.341C912.031 231.787 885.638 228.959 885.638 228.959Z" fill="#A7A9D8"/>
<path d="M887.774 247.691C886.895 247.691 886.141 246.999 886.141 246.056V179.049C886.141 178.168 886.832 177.414 887.774 177.414C888.717 177.414 889.408 178.106 889.408 179.049V246.056C889.345 246.999 888.654 247.691 887.774 247.691Z" fill="#7D80B5"/>
<path d="M907.004 261.834C904.867 261.834 891.671 245.742 898.772 225.061C905.873 204.381 913.037 215.067 913.037 215.067C913.037 215.067 908.072 199.352 922.274 196.523C936.476 193.695 934.402 182.254 947.221 190.803C960.04 199.352 952.185 216.45 952.185 216.45C952.185 216.45 963.559 205.072 974.305 217.141C984.987 229.273 989.512 249.576 977.384 255.988C965.256 262.4 940.057 262.085 940.057 262.085L907.004 261.834Z" fill="#7D80B5"/>
<path d="M857.801 265.354C857.801 265.354 827.135 263.908 831.408 250.393C835.681 236.879 839.955 228.267 848.501 233.296C857.047 238.262 861.32 231.159 869.866 232.604C878.412 234.05 884.131 240.462 884.131 240.462C884.131 240.462 899.84 230.467 907.632 241.907C915.487 253.285 912.597 261.142 904.805 262.588C897.013 263.908 857.801 265.354 857.801 265.354Z" fill="#8288BF"/>
<path d="M946.089 251.525V246.936H961.988V224.118L904.238 225.564V246.936H917.246V251.525H902.793V255.799H908.888L908.826 274.343H910.962L911.025 255.799H953.756L953.693 273.463H955.829L955.892 255.799H964.061V251.525H946.089ZM918.314 251.525V246.936H945.021V251.525H918.314Z" fill="#A7A9D8"/>
<path d="M525.241 189.52C525.241 189.52 531.651 170.285 548.931 170.285C566.212 170.285 567.532 200.332 567.532 200.332C567.532 200.332 584.813 205.737 582.927 222.647C580.979 239.556 566.903 258.036 563.07 257.282C559.237 256.528 532.279 261.116 525.932 244.207C519.523 227.235 525.241 189.52 525.241 189.52Z" fill="#7D80B5"/>
<path d="M242.777 140.616V256.15H530.518V141.433C530.518 141.433 478.613 107.489 388.25 108.746C297.887 110.003 242.777 140.616 242.777 140.616Z" fill="#B0B3D6"/>
<path d="M530.393 138.541H242.652V144.324H530.393V138.541Z" fill="#9A9BC6"/>
<path d="M455.425 149.793H308.004V181.222H455.425V149.793Z" fill="#CFD0E5"/>
<path d="M533.221 198.509H242.652V212.589H533.221V198.509Z" fill="#9A9BC6"/>
<path d="M307.377 211.961H295.814V255.522H307.377V211.961Z" fill="#9A9BC6"/>
<path d="M362.486 210.452H350.924V255.899H362.486V210.452Z" fill="#9A9BC6"/>
<path d="M418.916 212.149H407.354V255.71H418.916V212.149Z" fill="#9A9BC6"/>
<path d="M474.592 212.275H463.029V255.836H474.592V212.275Z" fill="#9A9BC6"/>
<path d="M287.52 222.709H260.625V256.025H287.52V222.709Z" fill="#CFD0E5"/>
<path d="M344.64 222.835H317.242V256.15H344.64V222.835Z" fill="#CFD0E5"/>
<path d="M399.184 222.395H372.289V255.71H399.184V222.395Z" fill="#CFD0E5"/>
<path d="M456.305 222.709H429.41V256.025H456.305V222.709Z" fill="#CFD0E5"/>
<path d="M510.85 222.458H483.955V255.773H510.85V222.458Z" fill="#CFD0E5"/>
<path d="M483.58 138.855L518.204 144.639V193.983H482.951L483.58 138.855Z" fill="#8A8CB5"/>
<path d="M252.267 145.896L286.891 139.484V193.354H251.639L252.267 145.896Z" fill="#8A8CB5"/>
<path d="M828.063 374.325C828.063 374.325 797.774 340.884 809.274 336.673C820.773 332.398 835.603 355.845 835.603 355.845C835.603 355.845 808.771 290.66 822.658 287.266C836.546 283.871 850.559 349.559 850.559 349.559C850.559 349.559 846.475 333.404 853.513 335.101C860.551 336.798 861.053 350.187 861.053 350.187C861.053 350.187 863.693 293.551 880.156 297.7C896.62 301.912 900.453 343.964 886.943 356.913C873.433 369.862 898.191 345.033 898.505 353.645C898.82 362.256 882.796 370.491 874.752 374.64C866.709 378.725 828.063 374.325 828.063 374.325Z" fill="#2EB67D"/>
<path d="M220.912 335.092L50.2402 335.029V193.659C50.2402 187.499 55.2045 182.533 61.3628 182.533L209.224 182.596C215.696 182.596 220.912 187.813 220.912 194.288V335.092Z" fill="#868BB7"/>
<path d="M209.789 182.659L61.3628 182.596C55.2045 182.596 50.2402 187.562 50.2402 193.722V206.545L220.912 206.608V193.785C220.912 187.625 215.947 182.659 209.789 182.659Z" fill="#59669E"/>
<path d="M208.974 228.86H70.2246V323.086H208.974V228.86Z" fill="#9A9BC6"/>
<path d="M75.3786 319.063C75.3786 319.063 73.1164 311.08 82.7937 310.514C88.2607 310.2 97.8751 310.263 105.227 310.325C111.7 310.388 117.984 307.874 122.571 303.285L166.056 259.787C169.575 256.267 174.288 254.13 179.315 253.878L209.54 252.369V277.513H198.544C192.071 277.513 185.976 280.216 181.703 285.056L148.775 323.526L73.6191 323.086L75.3786 319.063Z" fill="#59669E"/>
<path d="M117.605 323.023L172.715 267.896C175.857 264.753 180.068 263.056 184.466 263.056L210.042 262.93L209.539 277.45L196.657 278.456C191.379 278.896 186.414 281.222 182.833 285.182L148.774 323.463L117.605 323.023Z" fill="#435489"/>
<path d="M235.367 328.869H21.9648V341.378H235.367V328.869Z" fill="#868BB7"/>
<path d="M115.657 221.757H110.504V323.589H115.657V221.757Z" fill="#868BB7"/>
<path d="M166.557 225.592H161.404V327.423H166.557V225.592Z" fill="#868BB7"/>
<path d="M129.609 168.83H126.152V182.533H129.609V168.83Z" fill="#585C7F"/>
<path d="M128.476 122C115.531 122 105.1 132.497 105.1 145.384C105.1 158.332 115.594 168.767 128.476 168.767C141.358 168.767 151.852 158.27 151.852 145.384C151.852 132.497 141.358 122 128.476 122ZM128.727 158.018C121.941 158.018 116.474 152.549 116.474 145.761C116.474 138.972 121.941 133.503 128.727 133.503C135.514 133.503 140.981 138.972 140.981 145.761C140.981 152.549 135.514 158.018 128.727 158.018Z" fill="#E55357"/>
<path d="M161.844 139.475H96.3652V152.047H161.844V139.475Z" fill="#015BA2"/>
<path d="M9.89864 317.869C9.89864 317.869 -4.36587 297.879 1.3525 295.616C7.07088 293.354 13.9204 307.623 13.9204 307.623C13.9204 307.623 1.91806 268.21 8.76754 266.45C15.617 264.753 21.3354 304.165 21.3354 304.165C21.3354 304.165 19.6387 294.485 23.0321 295.616C26.4882 296.748 26.4882 304.731 26.4882 304.731C26.4882 304.731 28.7504 271.039 36.7938 273.867C44.7744 276.696 45.9055 301.84 39.0561 309.257C32.2066 316.674 44.7744 302.405 44.7744 307.56C44.7744 312.714 36.7938 317.24 32.7721 319.566C28.7504 321.892 9.89864 317.869 9.89864 317.869Z" fill="#2EB67D"/>
<path d="M13.668 353.321H36.4787C36.4787 353.321 50.7432 325.223 40.5004 318.371H7.38412C7.38412 318.434 3.36241 340.749 13.668 353.321Z" fill="#FED337"/>
<path d="M673.793 370.68C673.793 370.68 726.201 368.354 748.76 370.931C771.32 373.508 811.977 369.359 808.898 384.068C805.818 398.84 746.875 399.155 731.982 398.463C717.089 397.835 678.129 385.011 672.474 377.971C666.818 370.931 673.793 370.68 673.793 370.68Z" fill="url(#paint0_linear)"/>
<path d="M680.705 370.302L680.328 375.205C680.328 375.205 689.314 379.857 688.623 382.308C687.931 384.76 675.426 381.806 674.735 379.04C674.044 376.274 675.803 369.674 675.803 369.674L680.705 370.302Z" fill="#424242"/>
<path d="M737.699 368.354C737.699 368.354 736.945 376.337 739.396 377.405C741.847 378.474 752.09 382.623 752.592 378.788C753.032 375.582 743.543 373.194 743.543 373.194L741.47 367.977L737.699 368.354Z" fill="#424242"/>
<path d="M739.145 276.642C739.145 277.711 744.047 287.077 746.435 287.454C748.885 287.831 748.508 279.471 742.978 275.637C737.386 271.802 739.145 276.642 739.145 276.642Z" fill="#FC9A67"/>
<path d="M695.598 254.893C695.598 254.893 688.56 266.899 686.486 282.551C684.412 298.203 683.344 315.112 681.207 322.467C677.123 336.421 672.096 370.554 672.096 370.554L681.207 371.999C681.207 371.999 700.939 317.438 708.103 290.283C713.13 302.289 719.162 335.981 726.389 353.519C730.536 363.639 736.946 371.811 736.946 371.811L744.612 369.171C744.612 369.171 736.066 329.758 735.689 325.232C735.312 320.707 727.834 259.293 719.854 254.767C711.873 250.116 695.598 254.893 695.598 254.893Z" fill="#424242"/>
<path d="M722.808 206.806C722.808 206.806 728.086 203.412 731.228 236.413C733.993 254.139 742.916 273.437 744.676 274.82C746.435 276.202 738.769 280.414 738.769 280.414C738.769 280.414 718.472 243.139 717.718 234.778C717.026 226.418 722.808 206.806 722.808 206.806Z" fill="url(#paint1_linear)"/>
<path d="M663.11 305.055L660.157 304.049C661.665 299.649 664.241 287.58 658.146 284.374C656.952 283.746 655.884 283.683 654.816 284.123C653.182 284.814 650.04 287.58 647.275 297.826C647.212 298.14 647.149 298.329 647.086 298.455L644.133 297.449C644.133 297.386 644.196 297.197 644.258 297.009C646.646 288.208 649.788 282.928 653.559 281.231C655.444 280.414 657.58 280.477 659.591 281.545C669.331 286.7 663.362 304.3 663.11 305.055Z" fill="#921D21"/>
<path d="M634.518 290.974L671.719 305.62C671.719 305.62 652.238 344.97 655.38 354.022C638.351 350.565 617.111 339.376 617.111 339.376C617.111 339.376 636.906 316.369 634.518 290.974Z" fill="#E01E5A"/>
<path d="M663.989 277.334C663.424 277.145 662.795 277.208 662.293 277.522C660.533 278.528 656.574 281.294 657.077 284.751C657.517 287.831 662.041 283.62 664.869 280.728C665.875 279.66 665.435 277.837 663.989 277.334Z" fill="#FC9A67"/>
<path d="M705.714 199.326C704.646 199.326 689.125 202.72 685.983 206.743C684.914 208.503 688.056 230.755 691.89 237.733C695.723 244.71 695.471 250.682 695.408 255.648C695.408 258.728 704.583 260.111 709.107 260.111C713.632 260.111 718.282 257.973 719.664 256.276C721.047 254.516 729.279 214.726 725.446 208.44C721.612 202.217 705.714 199.326 705.714 199.326Z" fill="url(#paint2_linear)"/>
<path d="M692.959 208C692.959 208 686.926 199.577 680.768 208.88C675.929 216.109 671.091 245.967 663.047 275.322C661.288 277.397 667.32 281.608 668.703 280.602C670.085 279.534 674.296 270.042 678.82 257.533C683.345 245.024 697.169 213.909 692.959 208Z" fill="url(#paint3_linear)"/>
<path d="M702.699 191.469C702.699 191.469 702.887 200.332 701.63 202.28C700.436 204.166 708.605 204.355 710.491 203.16C709.297 201.4 709.422 195.68 709.988 193.92C710.491 192.16 702.699 191.469 702.699 191.469Z" fill="#EF8854"/>
<path d="M697.295 185.057C697.483 185.748 702.699 192.726 704.082 193.229C705.464 193.731 710.868 195.68 712.251 193.229C713.633 190.777 712.251 177.765 705.15 177.891C697.986 178.079 697.295 185.057 697.295 185.057Z" fill="#FC9A67"/>
<path d="M699.367 190.4C698.864 190.211 690.13 184.114 692.078 179.965C693.963 175.817 699.241 174.622 700.687 172.737C702.132 170.851 705.965 167.205 709.798 168.399C713.632 169.594 714.197 177.891 712.249 180.154C710.364 182.417 708.919 182.605 706.845 181.914C704.771 181.222 700.938 183.297 700.938 183.297L701.818 185.937C701.818 185.937 700.435 185.057 700.058 186.44C699.681 187.823 703.389 189.771 704.394 189.08C705.4 188.388 701.629 192.726 701.064 192.537C700.624 192.349 699.367 190.4 699.367 190.4Z" fill="#662C30"/>
<path d="M856.466 394.88C875.345 394.88 890.65 389.055 890.65 381.868C890.65 374.682 875.345 368.857 856.466 368.857C837.586 368.857 822.281 374.682 822.281 381.868C822.281 389.055 837.586 394.88 856.466 394.88Z" fill="#474D6D"/>
<path d="M856.653 374.577C839.686 374.577 825.861 379.354 825.861 385.2C825.861 386.52 826.553 387.777 827.809 388.909C833.905 392.492 844.462 394.817 856.464 394.817C869.032 394.817 879.966 392.24 885.936 388.406C886.878 387.4 887.381 386.269 887.381 385.2C887.381 379.354 873.619 374.577 856.653 374.577Z" fill="#424242"/>
<path d="M932.555 388.676C945.07 380.043 949.482 364.727 942.408 354.467C935.335 344.206 919.456 342.886 906.941 351.518C894.427 360.15 890.015 375.466 897.088 385.727C904.161 395.987 920.04 397.308 932.555 388.676Z" fill="#585C7F"/>
<path d="M930.325 385.266C942.84 376.634 947.251 361.318 940.178 351.057C933.105 340.796 917.226 339.476 904.711 348.108C892.196 356.74 887.785 372.056 894.858 382.317C901.931 392.578 917.81 393.898 930.325 385.266Z" fill="#636993"/>
<path d="M327.549 154.822H338.169V158.405H334.65V173.994H330.942V158.405H327.549V154.822Z" fill="#9A9BC6"/>
<path d="M340.682 154.822H344.389V162.05H350.799V154.822H354.506V174.057H350.799V165.633H344.389V174.057H340.682V154.822Z" fill="#9A9BC6"/>
<path d="M358.904 154.822H369.398V158.405H362.549V161.862H369.398V165.382H362.549V170.411H369.398V173.994H358.904V154.822Z" fill="#9A9BC6"/>
<path d="M382.156 154.822H385.738L390.2 168.211L394.724 154.822H398.306L401.511 174.057H397.992L395.918 161.925L391.834 174.057H388.629L384.607 161.925L382.47 174.057H378.889L382.156 154.822Z" fill="#9A9BC6"/>
<path d="M410.182 154.822H413.89L421.305 174.057H417.534L416.026 170.096H408.171L406.6 174.057H402.83L410.182 154.822ZM412.067 159.913L409.491 166.513H414.644L412.067 159.913Z" fill="#9A9BC6"/>
<path d="M424.133 154.822H427.778V170.536H433.119V174.057H424.133V154.822Z" fill="#9A9BC6"/>
<path d="M435.883 154.822H439.527V170.536H444.869V174.057H435.883V154.822Z" fill="#9A9BC6"/>
<path d="M331.068 219.818H330.125V255.899H331.068V219.818Z" fill="#B0B3D6"/>
<path d="M386.05 220.384H385.107V256.465H386.05V220.384Z" fill="#B0B3D6"/>
<path d="M443.173 220.258H442.23V256.339H443.173V220.258Z" fill="#B0B3D6"/>
<path d="M498.345 220.698H497.402V255.836H498.345V220.698Z" fill="#B0B3D6"/>
<path d="M220.283 378.788C220.283 378.788 212.805 384.823 210.04 384.131C207.275 383.44 205.39 383.44 205.139 384.131C204.888 384.823 198.164 392.994 198.164 392.994C198.164 392.994 197.912 393.434 198.604 395.069C199.295 396.703 249.126 397.395 250.509 396.703C251.891 396.012 255.662 394.629 255.85 393.434C256.102 392.24 255.599 392.052 256.29 389.474C256.981 386.897 259.558 385.766 259.998 385.074C260.437 384.383 272.565 369.925 271.623 367.851C270.68 365.777 249.943 365.525 246.236 366.908C242.528 368.291 236.244 368.291 233.228 367.851C230.212 367.411 223.425 364.142 221.351 365.085C219.278 366.028 221.791 371.811 221.791 371.811C221.791 371.811 218.775 370.868 218.524 373.697C218.272 376.525 220.283 378.788 220.283 378.788Z" fill="#DDD2E0"/>
<path d="M256.854 416.755C256.791 416.881 256.729 416.944 256.603 417.069C255.975 417.761 253.21 421.155 255.786 424.298C258.488 427.63 317.054 428.07 324.532 428.133C325.412 428.133 326.229 427.693 326.606 426.938C326.857 426.435 327.109 425.681 327.234 424.613C327.548 421.721 339.739 396.577 342.19 391.549C342.567 390.732 342.504 389.726 341.876 389.034C341.499 388.594 340.933 388.28 340.053 388.406C337.98 388.72 284.629 389.286 275.643 389.349C274.826 389.349 274.135 389.789 273.695 390.417L256.854 416.755Z" fill="#DDD2E0"/>
<path d="M288.523 403.932C288.523 403.932 290.22 408.709 291.163 408.709C292.105 408.709 297.887 407.766 298.641 407.263C299.332 406.761 299.143 402.675 299.143 402.675C299.143 402.675 302.725 401.983 304.673 401.983C306.621 401.983 308.758 401.48 307.815 400.789C306.873 400.098 298.201 399.343 298.201 399.343C298.201 399.343 291.477 401.983 290.534 402.486C289.529 402.989 288.523 403.932 288.523 403.932Z" fill="#AF9EB5"/>
<path d="M292.611 404.246C291.668 403.618 278.22 393.372 281.048 386.646C283.876 379.92 292.925 400.412 292.925 400.412L292.611 404.246Z" fill="#2EB67D"/>
<path d="M287.519 386.331C287.519 386.331 282.366 372.251 286.577 369.988C290.724 367.725 292.986 386.017 293.3 391.8C293.614 397.583 294.557 405.881 294.557 405.881L287.519 386.331Z" fill="#2EB67D"/>
<path d="M295.185 407.138C295.185 407.138 291.351 376.714 303.856 374.451C316.361 372.188 295.185 407.138 295.185 407.138Z" fill="#2EB67D"/>
<path d="M340.87 383.44C340.87 383.44 337.98 381.491 339.614 377.657C341.185 373.822 348.914 361.628 348.914 361.628C348.914 361.628 353.375 363.576 355.009 363.199C356.58 362.885 357.586 361.942 359.785 362.256C362.047 362.571 367.766 362.885 367.766 362.885L374.175 372.817L388.942 360.622C388.942 360.622 407.229 359.051 409.742 360.308C412.256 361.565 411.69 367.348 411.69 367.348L403.018 386.646C403.018 386.646 402.39 386.017 399.185 385.074C395.98 384.068 340.87 383.44 340.87 383.44Z" fill="#DDD2E0"/>
<path d="M413.701 385.954C413.701 385.954 407.919 381.177 408.548 377.594C409.176 374.074 415.586 362.194 416.528 361.251C417.471 360.308 419.105 358.673 421.681 359.302C424.258 359.931 428.719 362.822 429.662 362.508C430.604 362.194 480.31 361.879 481.567 363.765C482.824 365.714 486.343 373.697 486.029 374.64C485.714 375.582 478.362 387.777 478.362 387.777L413.701 385.954Z" fill="#DDD2E0"/>
<path d="M398.682 399.909C397.739 399.28 393.529 400.538 392.272 403.115C391.016 405.692 377.191 431.338 378.511 434.859C379.767 438.379 378.825 439.322 378.825 439.322L449.645 439.95C449.645 439.95 457.625 440.579 458.316 437.373C458.945 434.167 461.835 422.287 461.835 422.287L467.617 401.103L398.682 399.909Z" fill="#DDD2E0"/>
<path d="M426.645 421.721C425.012 422.538 423.252 423.293 421.241 423.355C420.739 423.355 420.236 423.355 419.733 423.167C419.168 422.978 418.791 422.727 418.351 422.412C417.534 421.784 416.905 421.092 416.277 420.401L414.517 418.327C414.392 418.138 414.203 418.012 414.078 417.887C413.952 417.761 413.763 417.635 413.763 417.635C413.826 417.635 413.701 417.635 413.701 417.635C413.638 417.635 413.638 417.635 413.512 417.635H412.821C410.998 417.761 409.176 417.887 407.354 418.012C403.709 418.264 400.064 418.83 396.357 418.83C392.649 418.83 389.005 418.704 385.234 418.138V417.824C387.057 408.458 392.524 416.315 396.168 415.938C399.813 415.561 403.521 415.749 407.228 415.687C409.05 415.687 410.936 415.687 412.821 415.749H413.512C413.575 415.749 413.826 415.749 414.015 415.812C414.203 415.875 414.329 415.812 414.58 416.001C415.02 416.252 415.146 416.441 415.334 416.629C415.523 416.818 415.649 417.007 415.774 417.195L417.408 419.458C417.911 420.212 418.476 420.904 419.105 421.47C419.419 421.721 419.733 422.035 420.047 422.161C420.424 422.287 420.801 422.412 421.241 422.412C422.938 422.475 424.76 421.972 426.52 421.407L426.645 421.721Z" fill="#AF9EB5"/>
<path d="M471.764 414.806C471.764 414.806 474.654 424.11 477.859 425.367C481.064 426.624 526.874 428.887 528.193 427.944C529.45 427.001 530.456 423.167 533.346 420.904C536.237 418.641 539.127 417.698 540.07 415.435C541.012 413.172 550.627 403.555 548.428 397.835C546.228 392.114 529.827 391.423 525.994 392.052C522.161 392.68 497.779 390.794 492.689 390.794C487.536 390.794 479.242 392.366 477.922 393.372C476.539 394.314 471.764 414.806 471.764 414.806Z" fill="#DDD2E0"/>
<path d="M507.646 366.217C507.646 366.217 513.114 370.365 516.947 370.994C520.78 371.622 528.509 373.257 530.394 370.365C532.28 367.474 531.965 363.639 529.138 363.325C526.247 363.011 508.275 364.896 507.646 366.217Z" fill="#DDD2E0"/>
<path d="M560.368 387.086C560.368 387.086 561.876 383.754 564.013 383.126C566.149 382.497 602.156 386.206 605.487 384.949C608.817 383.754 613.09 381.868 615.855 382.183C618.62 382.497 634.77 382.497 638.1 385.263C641.431 388.029 641.431 393.497 641.431 393.497C641.431 393.497 635.335 411.789 631.377 411.161C627.418 410.532 627.732 412.355 627.732 414.241C627.732 416.127 628.046 421.281 623.459 421.532C618.872 421.847 557.603 422.161 556.661 421.218C555.718 420.275 551.194 416.315 550.565 413.298C550 410.281 560.368 387.086 560.368 387.086Z" fill="#DDD2E0"/>
<path d="M650.793 428.95C650.793 428.95 647.211 429.704 648.279 425.493C649.347 421.281 655.945 410.658 655.945 410.658C655.945 410.658 660.784 408.583 663.423 408.521C666.063 408.458 676.242 410.721 680.516 411.789C684.789 412.795 694.089 412.606 697.231 412.984C700.373 413.361 709.484 409.338 709.673 416.064C709.862 422.727 707.914 427.504 706.217 429.327C704.583 431.213 697.042 430.961 694.466 430.396C691.889 429.83 650.793 428.95 650.793 428.95Z" fill="#DDD2E0"/>
<path d="M393.28 308.26C392.714 309.643 392.149 311.089 391.646 312.598C388.441 327.998 402.203 350.439 402.203 350.439H476.542C476.542 350.439 497.719 319.324 493.823 310.398C492.88 309.14 448.013 309.455 448.013 309.455L448.139 308.323H393.28V308.26Z" fill="#015BA2"/>
<path d="M451.91 269.916C451.91 269.916 412.321 262.059 393.344 308.512H448.202L451.91 269.916Z" fill="#00BCF8"/>
<path d="M560.683 211.018C559.804 212.275 544.973 210.2 558.987 188.451C559.615 180.28 566.213 175.879 569.104 175.691C571.994 175.502 574.005 177.828 574.005 177.828C574.005 177.828 576.644 174.622 581.483 176.382C586.259 178.142 588.081 183.485 588.207 186.691C588.395 189.897 587.453 191.217 587.641 192.16C587.893 192.663 588.207 195.051 592.92 191.594C592.92 191.594 591.789 196.057 588.144 196.371C588.144 196.371 597.256 200.583 597.381 207.812C597.067 215.166 595.308 217.618 589.527 218.749C583.745 219.881 559.866 213.595 559.866 213.595L560.683 211.018Z" fill="#072249"/>
<path d="M416.027 388.217C415.336 388.217 414.708 387.966 414.142 387.526C412.948 386.457 412.822 384.634 413.891 383.44L495.393 289.654C497.53 286.574 507.395 273.059 515.565 273.814C523.105 274.505 529.264 277.837 529.515 278.025C530.897 278.78 531.4 280.54 530.646 281.923C529.892 283.305 528.132 283.808 526.75 283.054C526.687 283.054 521.409 280.162 515.062 279.534C511.354 279.157 503.939 287.391 500.106 293.049L499.918 293.3L418.164 387.211C417.598 387.903 416.781 388.217 416.027 388.217Z" fill="#015BA2"/>
<path d="M457.626 389.223C456.495 389.223 455.489 388.594 454.987 387.526L440.597 355.468C439.968 354.022 440.597 352.325 442.042 351.633C443.487 351.005 445.184 351.633 445.875 353.079L460.265 385.137C460.894 386.583 460.265 388.28 458.82 388.971C458.443 389.097 458.066 389.223 457.626 389.223Z" fill="#015BA2"/>
<path d="M412.444 404.246C417.754 404.246 422.059 399.94 422.059 394.629C422.059 389.317 417.754 385.011 412.444 385.011C407.135 385.011 402.83 389.317 402.83 394.629C402.83 399.94 407.135 404.246 412.444 404.246Z" fill="#015BA2"/>
<path d="M460.391 403.618C465.423 403.618 469.503 399.537 469.503 394.503C469.503 389.469 465.423 385.388 460.391 385.388C455.359 385.388 451.279 389.469 451.279 394.503C451.279 399.537 455.359 403.618 460.391 403.618Z" fill="#015BA2"/>
<path d="M443.236 360.308C445.179 360.308 446.755 358.732 446.755 356.788C446.755 354.844 445.179 353.268 443.236 353.268C441.292 353.268 439.717 354.844 439.717 356.788C439.717 358.732 441.292 360.308 443.236 360.308Z" fill="#015BA2"/>
<path d="M540.007 394C540.007 394 531.649 394 530.706 396.577C529.764 399.155 543.526 400.726 544.468 398.526C545.411 396.263 544.154 393.749 544.154 393.749L540.007 394Z" fill="#424242"/>
<path d="M592.228 402.675C591.285 402.36 585.19 403.303 584.561 406.195C584.184 407.955 588.709 407.703 592.228 407.201C594.553 406.886 596.186 404.812 595.935 402.486L595.747 401.103L592.228 402.675Z" fill="#424242"/>
<path d="M549.623 329.57C549.623 329.57 542.899 389.537 540.008 394C537.118 398.463 543.213 395.572 543.213 395.572C543.213 395.572 552.639 380.171 553.582 372.125C554.273 366.154 554.901 357.228 555.216 353.016C555.341 351.507 555.718 349.999 556.347 348.616C557.855 345.536 560.808 338.936 564.327 329.507C563.699 319.952 549.623 329.57 549.623 329.57Z" fill="#EF8854"/>
<path d="M577.146 327.621C578.089 328.878 588.018 354.21 589.652 367.034C591.285 379.857 591.6 401.983 590.908 403.555C590.28 405.126 592.165 404.812 593.171 404.183C595.873 403.115 601.465 385.137 600.209 375.205C599.329 368.479 597.318 361.816 596.061 358.171C595.433 356.285 595.119 354.336 595.181 352.388C595.244 347.17 595.119 335.919 593.171 323.975C586.133 313.855 577.146 327.621 577.146 327.621Z" fill="#FC9A67"/>
<path d="M557.289 261.305C557.289 261.305 551.194 270.922 550.88 279.911C550.566 288.9 543.842 325.107 541.265 327.684C538.689 330.261 562.442 334.41 564.642 333.153C566.904 331.895 576.832 336.358 580.351 334.096C583.87 331.833 584.499 328.941 590.28 328.627C596.061 328.312 612.085 334.096 617.489 320.644C622.956 307.192 597.946 295.312 596.313 290.534C594.679 285.757 583.179 262.311 580.917 257.533C578.78 252.63 557.289 261.305 557.289 261.305Z" fill="#4A154B"/>
<path d="M559.927 207.56C557.036 204.355 551.884 207.938 551.884 207.938C551.884 207.938 544.594 216.235 540.195 235.47C533.409 252.756 521.092 268.659 521.092 268.659C521.092 268.659 512.42 269.916 511.792 274.128C511.164 278.34 516.254 277.962 516.254 277.962L523.166 271.677C523.166 271.677 545.725 250.493 550.564 238.676C555.402 226.858 562.818 210.766 559.927 207.56Z" fill="#EF8854"/>
<path d="M531.964 268.219C531.964 268.219 521.407 272.054 520.904 275.134C520.401 278.151 524.926 277.397 525.68 277.082C526.497 276.768 535.483 271.299 534.98 269.854C534.54 268.345 531.964 268.219 531.964 268.219Z" fill="#FC9A67"/>
<path d="M578.59 208.44C578.59 208.44 559.047 204.292 556.345 206.68C553.643 209.069 543.715 225.412 546.417 231.195C549.119 236.978 554.9 254.893 554.272 260.551C553.643 266.145 562.629 266.019 567.405 266.019C572.181 266.019 580.915 262.373 581.23 259.042C581.544 255.648 578.59 246.03 580.036 240.561C581.481 235.093 589.462 220.384 589.022 218.121C588.519 215.795 582.612 208.88 578.59 208.44Z" fill="#4A154B"/>
<path d="M584.623 213.092C576.957 213.281 573.564 239.681 558.608 252.945C554.586 254.202 534.289 265.894 531.084 268.659C527.879 271.425 531.524 272.682 531.524 272.682C531.524 272.682 569.668 259.733 571.427 257.973C573.187 256.213 587.263 236.79 588.708 230.064C591.787 220.509 587.954 212.841 584.623 213.092Z" fill="#FC9A67"/>
<path d="M567.217 199.577C567.217 199.577 566.274 206.178 564.829 207.246C563.384 208.378 564.892 212.401 568.851 213.029C571.176 213.532 574.758 211.269 575.26 210.64C571.804 205.36 575.449 198.069 574.758 197.88C574.129 197.754 567.217 199.577 567.217 199.577Z" fill="#EF8854"/>
<path d="M570.736 182.92C570.233 182.794 565.771 185.497 564.64 189.017C563.509 192.537 562.692 199.892 564.829 201.023C566.902 202.155 572.684 200.52 574.443 198.446C576.203 196.371 577.962 197.314 578.59 194.926C579.219 192.537 578.402 190.463 576.203 190.903C573.94 191.406 574.757 183.737 570.736 182.92Z" fill="#FC9A67"/>
<defs>
<linearGradient id="paint0_linear" x1="670.324" y1="384.178" x2="809.102" y2="384.178" gradientUnits="userSpaceOnUse">
<stop offset="0.00396825" stop-color="#FCEFFF"/>
<stop offset="0.2807" stop-color="#EDE1F0"/>
<stop offset="0.6443" stop-color="#E1D6E4"/>
<stop offset="1" stop-color="#DDD2E0"/>
</linearGradient>
<linearGradient id="paint1_linear" x1="719.576" y1="206.707" x2="750.33" y2="208.737" gradientUnits="userSpaceOnUse">
<stop stop-color="#FED337"/>
<stop offset="1" stop-color="#ECB22E"/>
</linearGradient>
<linearGradient id="paint2_linear" x1="688.628" y1="199.326" x2="734.048" y2="204.747" gradientUnits="userSpaceOnUse">
<stop stop-color="#FED337"/>
<stop offset="1" stop-color="#ECB22E"/>
</linearGradient>
<linearGradient id="paint3_linear" x1="664.907" y1="204.504" x2="699.846" y2="207.039" gradientUnits="userSpaceOnUse">
<stop stop-color="#FED337"/>
<stop offset="1" stop-color="#ECB22E"/>
</linearGradient>
</defs>
</svg>
