<svg width="936" height="440" viewBox="0 0 936 440" fill="none" xmlns="http://www.w3.org/2000/svg">
<path d="M99.2476 263.783H8.17111C3.64557 263.783 0 260.138 0 255.613V153.858C0 149.333 3.64557 145.687 8.17111 145.687H99.2476C103.773 145.687 107.419 149.333 107.419 153.858V255.613C107.419 260.138 103.773 263.783 99.2476 263.783Z" fill="#E2E2E2"/>
<path d="M95.4769 234.621H14.8343C11.3773 234.621 8.54883 231.792 8.54883 228.336V161.903C8.54883 158.446 11.3773 155.618 14.8343 155.618H95.4769C98.9339 155.618 101.762 158.446 101.762 161.903V228.336C101.762 231.792 98.9339 234.621 95.4769 234.621Z" fill="#CECECE"/>
<path d="M89.442 230.347H20.1761C16.7191 230.347 13.8906 227.519 13.8906 224.062V166.931C13.8906 163.474 16.7191 160.646 20.1761 160.646H89.442C92.899 160.646 95.7275 163.474 95.7275 166.931V224.062C95.7275 227.519 92.899 230.347 89.442 230.347Z" fill="#2E4974"/>
<path d="M12.4452 392.187C12.4452 392.187 383.854 446.615 415.847 415.693C447.84 384.77 404.093 385.839 398.75 386.907C393.408 387.976 32.7472 375.091 17.7878 380.433C2.82838 385.776 12.4452 392.187 12.4452 392.187Z" fill="url(#paint0_linear)"/>
<path d="M752.425 350.229C752.425 350.229 853.27 375.484 897.129 371.592C940.988 367.701 933.671 359.919 935.866 354.121C938.061 348.322 912.495 343.744 912.495 343.744C912.495 343.744 768.522 338.556 759.01 342.447C749.498 346.338 752.425 350.229 752.425 350.229Z" fill="url(#paint1_linear)"/>
<path d="M427.978 59.5822H281.4V345.614H427.978V59.5822Z" fill="#99BDD5"/>
<path d="M416.602 84.4709H390.957V329.21H416.602V84.4709Z" fill="#F1F1F1"/>
<path d="M413.396 208.978C417.908 208.978 421.567 204.672 421.567 199.361C421.567 194.051 417.908 189.745 413.396 189.745C408.883 189.745 405.225 194.051 405.225 199.361C405.225 204.672 408.883 208.978 413.396 208.978Z" fill="#2E4974"/>
<path d="M397.054 202.567C407.086 202.567 415.219 201.61 415.219 200.43C415.219 199.25 407.086 198.293 397.054 198.293C387.021 198.293 378.889 199.25 378.889 200.43C378.889 201.61 387.021 202.567 397.054 202.567Z" fill="#2E4974"/>
<path d="M854.51 16.9067H573.486V234.621H854.51V16.9067Z" fill="#E8E8E8"/>
<path d="M846.714 28.9741H582.033V226.073H846.714V28.9741Z" fill="#F1F1F1"/>
<path d="M829.62 96.5383H618.303V226.01H829.62V96.5383Z" fill="#B0B2D1"/>
<path d="M837.414 81.6426H607.617V102.258H837.414V81.6426Z" fill="#A5A8C6"/>
<path d="M811.141 121.49H633.953V176.295H811.141V121.49Z" fill="#CFD0E5"/>
<path d="M722.892 85.6023C734.104 85.6023 743.194 76.5134 743.194 65.3016C743.194 54.0899 734.104 45.0009 722.892 45.0009C711.679 45.0009 702.59 54.0899 702.59 65.3016C702.59 76.5134 711.679 85.6023 722.892 85.6023Z" fill="#A5A8C6"/>
<path d="M734.456 60.2736H726.537V52.3544H717.926V60.2736H710.006V68.9469H717.926V76.8661H726.537V68.9469H734.456V60.2736Z" fill="#CFD0E5"/>
<path d="M714.344 17.5981H702.275V230.347H714.344V17.5981Z" fill="#E8E8E8"/>
<path d="M860.921 9.80472H559.973V43.9325H860.921V9.80472Z" fill="#2E4974"/>
<path d="M871.983 5.21661H551.801V10.6217H871.983V5.21661Z" fill="#E0E0E0"/>
<path d="M552.241 14.707C554.463 14.707 556.264 11.4147 556.264 7.3535C556.264 3.29227 554.463 0 552.241 0C550.02 0 548.219 3.29227 548.219 7.3535C548.219 11.4147 550.02 14.707 552.241 14.707Z" fill="#E0E0E0"/>
<path d="M871.355 15.4612C873.576 15.4612 875.377 12.1689 875.377 8.10767C875.377 4.04645 873.576 0.754175 871.355 0.754175C869.133 0.754175 867.332 4.04645 867.332 8.10767C867.332 12.1689 869.133 15.4612 871.355 15.4612Z" fill="#E0E0E0"/>
<path d="M755 346.112H762.739L769.929 303.908H755.604L755 346.112Z" fill="#2E4974"/>
<path d="M815.264 301.713V347.374H820.862L825.527 304.841L815.264 301.713Z" fill="#2E4974"/>
<path d="M791.334 302.317L793.2 343.313H800.335L802.53 301.713L791.334 302.317Z" fill="#2E4974"/>
<path d="M763.671 274.986C763.671 274.986 785.406 263.516 789.467 252.924C793.529 242.332 794.736 225.593 800.335 224.66C805.933 223.727 865.263 224.056 865.263 224.056L858.403 303.908L758.348 305.171L763.671 274.986Z" fill="url(#paint2_linear)"/>
<path d="M769.599 279.322H808.128V304.841H767.732L769.599 279.322Z" fill="url(#paint3_linear)"/>
<path d="M755.604 305.116V278.114C755.604 278.114 756.866 272.187 762.135 271.254C767.404 270.321 771.74 278.389 771.74 278.389V304.786L755.604 305.116Z" fill="url(#paint4_linear)"/>
<path d="M780.137 244.856C784.473 239.258 813.891 236.899 820.807 244.856C823.002 250.125 820.203 280.913 820.203 280.913H782.333C782.333 280.913 777.338 249.192 780.137 244.856Z" fill="#E01E5A"/>
<path d="M865.264 224.056C865.264 224.056 854.397 224.056 850.664 231.52C846.932 238.984 838.864 265.986 816.197 270.65C793.529 275.315 816.526 305.445 816.526 305.445H871.191C871.191 305.445 878.656 232.453 865.264 224.056Z" fill="url(#paint5_linear)"/>
<path d="M806.865 305.116V278.389C806.865 278.389 808.951 270.815 813.397 270.65C820.861 270.321 824.264 278.389 824.264 278.389V305.116H806.865Z" fill="url(#paint6_linear)"/>
<path d="M470.118 411.355C470.118 411.355 659.366 437.055 683.427 437.055C707.488 437.055 800.39 448.834 802.973 425.276C805.556 401.718 621.476 368.585 606.026 376.08C590.576 383.576 548.633 387.293 531.208 384.647C469.561 375.262 453.554 406.253 470.118 411.355Z" fill="url(#paint7_linear)"/>
<path d="M76.9961 146.756L77.6875 142.67C78.0018 140.911 79.5103 139.654 81.2702 139.654H94.6583C96.6068 139.654 98.1781 141.162 98.3038 143.11L98.4924 147.824L76.9961 146.756Z" fill="#CECECE"/>
<path d="M52.2961 254.544C56.0452 254.544 59.0844 251.505 59.0844 247.756C59.0844 244.007 56.0452 240.968 52.2961 240.968C48.547 240.968 45.5078 244.007 45.5078 247.756C45.5078 251.505 48.547 254.544 52.2961 254.544Z" fill="#CECECE"/>
<path d="M26.6498 242.414H17.4102V251.653H26.6498V242.414Z" fill="#CECECE"/>
<path d="M39.849 242.414H30.6094V251.653H39.849V242.414Z" fill="#CECECE"/>
<path d="M47.6449 177.929C47.6449 177.929 49.0905 202.127 48.022 204.264C46.9535 206.401 43.7479 217.4 36.2682 213.88C28.7885 210.36 31.3026 197.853 31.994 196.47C32.6854 195.088 33.0626 176.861 47.6449 177.929Z" fill="#2E70BF"/>
<path d="M62.0383 177.238C62.0383 177.238 60.5926 201.436 61.6612 203.572C62.7297 205.709 65.9353 216.708 73.415 213.189C80.8947 209.669 78.3805 197.162 77.6891 195.779C76.9977 194.333 76.6206 176.17 62.0383 177.238Z" fill="#2E70BF"/>
<path d="M85.3576 139.276L99.9399 123.627L105.283 127.523L92.1459 142.796L83.5977 141.413L85.3576 139.276Z" fill="#CECECE"/>
<path d="M104.213 119.73H141.926L140.857 125.764L103.898 124.318L104.213 119.73Z" fill="#CECECE"/>
<path d="M139.475 128.592C140.543 128.592 146.577 128.592 146.577 128.592V192.637H139.789L139.475 128.592Z" fill="#CECECE"/>
<path d="M137.652 195.15C137.652 195.15 130.864 201.184 131.932 215.451C133.001 229.718 141.172 232.169 141.172 232.169C141.172 232.169 141.172 237.135 143.686 237.135C146.2 237.135 146.515 232.169 146.515 232.169C146.515 232.169 154.686 224.69 154.372 210.486C153.994 196.282 143.686 191.631 143.686 191.631L137.652 195.15Z" fill="#79C6C4"/>
<path d="M148.4 194.585H137.715C137.338 194.585 137.023 194.271 137.023 193.894V187.483C137.023 187.106 137.338 186.791 137.715 186.791H148.4C148.777 186.791 149.092 187.106 149.092 187.483V193.894C149.154 194.271 148.84 194.585 148.4 194.585Z" fill="#CECECE"/>
<path d="M142.743 131.106C146.978 131.106 150.411 127.673 150.411 123.438C150.411 119.203 146.978 115.77 142.743 115.77C138.507 115.77 135.074 119.203 135.074 123.438C135.074 127.673 138.507 131.106 142.743 131.106Z" fill="#E2E2E2"/>
<path d="M103.458 130.038C107.727 130.038 111.189 126.576 111.189 122.307C111.189 118.037 107.727 114.576 103.458 114.576C99.1879 114.576 95.7266 118.037 95.7266 122.307C95.7266 126.576 99.1879 130.038 103.458 130.038Z" fill="#E2E2E2"/>
<path d="M61.5352 262.338H47.3301V348.065H61.5352V262.338Z" fill="#CECECE"/>
<path d="M83.9741 354.853H24.1992V349.574C24.1992 347.186 26.1477 345.3 28.4733 345.3H79.6371C82.0256 345.3 83.9112 347.248 83.9112 349.574V354.853H83.9741Z" fill="#CECECE"/>
<path d="M99.246 364.092H9.61523V359.127C9.61523 356.55 11.6894 354.539 14.2036 354.539H94.6577C97.2347 354.539 99.246 356.613 99.246 359.127V364.092Z" fill="#CECECE"/>
<path d="M29.4784 362.333H16.3418V373.017H29.4784V362.333Z" fill="#CECECE"/>
<path d="M92.8359 362.333H79.6992V373.017H92.8359V362.333Z" fill="#CECECE"/>
<path d="M22.9424 392.941C29.9198 392.941 35.5762 387.285 35.5762 380.308C35.5762 373.331 29.9198 367.675 22.9424 367.675C15.9649 367.675 10.3086 373.331 10.3086 380.308C10.3086 387.285 15.9649 392.941 22.9424 392.941Z" fill="#CECECE"/>
<path d="M85.9229 394.449C92.9003 394.449 98.5567 388.793 98.5567 381.816C98.5567 374.839 92.9003 369.183 85.9229 369.183C78.9454 369.183 73.2891 374.839 73.2891 381.816C73.2891 388.793 78.9454 394.449 85.9229 394.449Z" fill="#CECECE"/>
<path d="M136.457 384.707C136.457 384.707 147.142 388.29 147.456 390.427C147.833 392.564 131.805 393.255 130.045 391.118C128.285 388.981 127.217 385.085 127.531 382.571C127.908 380.056 135.702 378.297 135.702 378.297L136.457 384.707Z" fill="#01122C"/>
<path d="M163.107 382.256C163.799 383.702 164.867 390.113 170.21 391.872C175.553 393.632 183.724 394.386 184.101 391.872C184.478 389.358 174.484 385.462 173.416 385.462C172.347 385.462 167.696 377.605 167.696 377.605L163.107 382.256Z" fill="#01122C"/>
<path d="M158.832 382.948C159.901 382.256 170.586 380.811 170.901 379.742C171.278 378.674 168.764 258.818 172.346 247.065C175.929 235.312 153.113 232.484 153.113 232.484L143.873 274.091L144.25 325.691C144.25 325.691 149.216 348.443 151.038 354.476C152.798 360.51 158.832 382.948 158.832 382.948Z" fill="#4A154B"/>
<path d="M122.566 381.502L135.011 382.57C135.011 382.57 143.559 321.04 145.319 317.457C147.079 313.875 169.895 247.756 170.964 245.242C172.032 242.728 140.731 224.942 139.662 223.873C138.594 222.805 128.977 235.94 128.977 261.206C128.977 286.472 128.285 310.984 128.6 313.875C128.977 316.703 120.743 330.97 121.12 345.174C121.497 359.441 122.566 381.502 122.566 381.502Z" fill="#4A154B"/>
<path d="M142.805 223.936C140.857 233.929 164.49 247.442 172.347 247.065C179.449 238.894 198.683 228.901 199.751 228.21C200.82 227.519 223.573 189.431 212.197 179.815C190.889 159.577 154.245 207.218 142.805 223.936Z" fill="url(#paint8_linear)"/>
<path d="M242.68 257.372C243.749 257.561 258.206 259.446 257.577 265.794C256.948 272.205 241.172 262.526 241.172 262.526L242.68 257.372Z" fill="#E58D5D"/>
<path d="M207.23 176.295C207.23 176.295 217.161 174.347 218.607 171.519C220.053 168.69 224.327 176.672 224.327 176.672C224.327 176.672 215.087 186.603 214.396 186.289C213.642 185.849 207.23 176.295 207.23 176.295Z" fill="#E58D5D"/>
<path d="M218.105 166.114C218.105 166.114 216.848 180.004 222.882 182.329C228.916 184.654 241.927 173.09 242.618 170.576C243.31 168.062 235.83 159.2 235.138 158.823C234.447 158.509 220.556 161.526 218.105 166.114Z" fill="#FB9762"/>
<path d="M215.59 173.593C215.59 173.593 219.864 172.901 222.378 170.199C223.447 169.822 222.881 167.873 222.881 167.873C222.881 167.873 222.378 163.097 225.521 163.411C228.664 163.725 228.726 167.685 229.229 167.496C229.732 167.308 233.881 167.873 234.383 166.805C237.4 164.48 239.035 177.112 245.949 174.096C252.863 171.079 249.531 160.96 246.326 158.823C243.12 156.686 236.206 149.395 228.349 152.035C220.493 154.675 218.23 157.755 217.664 159.703C217.161 161.651 215.59 173.593 215.59 173.593Z" fill="#662C30"/>
<path d="M197.049 190.877C202.392 188.866 212.134 192.134 215.214 209.355C218.294 226.576 213.831 225.13 224.139 235.249C234.448 245.368 246.453 252.784 246.453 252.784L243.939 265.543C243.939 265.543 200.82 253.224 188.626 232.232C174.484 202.818 191.518 192.699 197.049 190.877Z" fill="url(#paint9_linear)"/>
<path d="M491.273 374.4C491.273 374.4 491.273 378.674 494.855 380.433C498.438 382.193 505.164 385.084 504.095 387.913C503.027 390.741 483.102 388.981 483.102 387.221C483.102 385.461 483.479 377.291 484.17 374.777C484.862 372.263 491.273 374.4 491.273 374.4Z" fill="#01122C"/>
<path d="M518.363 371.949C518.363 371.949 515.534 379.428 518.363 380.873C521.191 382.319 535.082 384.079 536.15 381.942C537.219 379.805 526.911 376.977 526.911 376.977C526.911 376.977 527.979 369.497 526.219 368.115C524.397 366.606 518.363 371.949 518.363 371.949Z" fill="#01122C"/>
<path d="M481.341 376.537C483.101 376.537 498.438 376.537 498.438 376.537L510.191 308.973C510.191 308.973 511.26 368.366 514.843 372.64C518.425 376.914 529.802 375.468 529.802 375.468C529.802 375.468 534.076 286.912 531.939 280.501C529.802 274.091 529.802 229.97 526.597 223.559C523.391 217.148 511.323 216.457 504.535 219.285C497.746 222.113 492.781 231.729 491.021 242.037C489.261 252.344 481.09 326.319 480.021 335.621C478.953 344.923 481.341 376.537 481.341 376.537Z" fill="#424242"/>
<path d="M496.615 218.971C498.061 218.971 519.369 225.004 525.088 222.176C530.808 219.348 535.774 144.619 533.26 141.099C530.745 137.517 514.78 134.311 510.506 137.202C506.232 140.093 505.163 170.262 505.541 172.084C505.918 173.781 496.615 218.971 496.615 218.971Z" fill="url(#paint10_linear)"/>
<path d="M562.425 205.081C563.494 205.081 576.505 199.739 576.505 206.527C576.505 213.314 562.362 210.36 561.043 209.166C543.946 194.585 558.717 202.378 561.043 204.39L562.425 205.081Z" fill="#E58D5D"/>
<path d="M530.055 136.071C530.872 135.254 543.191 137.517 545.014 151.721C546.837 165.925 543.946 176.61 547.528 181.952C551.111 187.294 564.248 201.875 566.385 201.498C568.522 201.121 561.734 211.114 561.734 211.114C561.734 211.114 537.534 200.807 534.329 195.465C531.123 190.122 536.654 151.344 530.055 136.071Z" fill="#E2E2E2"/>
<path d="M488.131 152.098C488.131 152.098 490.268 142.168 496.993 140.722C503.782 139.277 507.679 137.328 509.816 136.637C511.953 135.945 511.953 139.654 513.398 142.482C514.844 145.31 521.57 158.509 518.364 174.473C515.158 190.437 506.61 219.662 506.61 234.935C506.61 250.208 510.193 326.382 510.193 326.382C510.193 326.382 474.994 325.314 474.994 323.868C474.994 322.423 475.371 248.825 485.302 227.833C495.233 206.841 497.748 189.431 496.302 184.403C494.856 179.438 488.131 152.098 488.131 152.098Z" fill="#E2E2E2"/>
<path d="M524.712 136.448C524.084 136.385 530.055 133.243 533.261 138.208C536.466 143.173 538.603 150.275 538.603 159.2C538.603 168.125 530.432 200.116 531.501 205.772C532.569 211.492 531.878 233.489 534.706 243.86C537.535 254.167 539.358 273.399 540.049 286.221C540.74 299.042 540.049 337.444 540.049 337.444L526.535 328.205C526.535 328.205 521.884 229.341 522.952 222.553C524.021 215.765 528.672 174.913 528.672 174.913C528.672 174.913 531.564 153.418 524.712 136.448Z" fill="#EFEFEF"/>
<path d="M554.378 204.641C554.378 204.641 554.316 211.869 546.082 212.56C537.911 213.251 537.156 208.663 537.156 208.663C537.156 208.663 545.83 202.881 554.378 204.641Z" fill="#FB9762"/>
<path d="M492.969 145.939C492.969 145.939 500.449 142.042 503.969 155.178C507.551 168.313 501.831 187.169 504.346 191.442C506.86 195.716 539.23 202.818 539.23 202.818C539.23 202.818 543.504 215.64 538.162 217.4C532.819 219.159 487.312 212.749 483.352 197.476C479.392 182.203 484.421 147.384 492.969 145.939Z" fill="#EFEFEF"/>
<path d="M515.848 126.832C515.848 126.832 516.539 134.311 514.088 136.071C511.574 137.831 516.602 140.722 520.499 141.036C524.396 141.413 526.03 138.899 526.03 138.899C526.03 138.899 523.391 129.66 525.15 126.832C526.91 124.004 517.985 123.627 515.848 126.832Z" fill="#E58D5D"/>
<path d="M512.455 117.719C512.455 117.719 513.146 129.095 518.866 130.54C524.586 131.986 529.866 126.958 531.689 123.061C533.449 119.164 539.231 112.062 533.134 107.788C522.26 100.121 512.455 117.719 512.455 117.719Z" fill="#FB9762"/>
<path d="M508.746 117.907C509.123 118.976 509.814 126.958 513.02 126.958C516.226 126.958 519.243 123.564 518.174 121.427C517.106 119.29 512.643 117.53 516.226 115.393C519.808 113.256 521.191 116.965 521.191 116.965C521.191 116.965 521.003 109.674 524.208 109.674C527.414 109.674 538.602 113.759 539.67 107.726C540.739 101.692 535.208 98.8637 529.865 98.8637C524.522 98.8637 515.157 99.2408 511.574 103.515C506.42 109.548 508.746 117.907 508.746 117.907Z" fill="#424242"/>
<path d="M531.5 315.698L534.014 303.253C534.014 303.253 613.023 297.22 622.577 302.562C632.193 307.904 628.988 242.414 633.262 236.757C636.467 225.382 646.084 224.313 647.153 223.622C648.221 222.93 644.639 311.864 643.57 315.069C642.501 318.212 532.569 315.698 531.5 315.698Z" fill="#983299"/>
<path d="M491.65 307.904C491.65 307.904 500.199 283.015 502.336 283.33C504.473 283.707 512.267 291.5 512.267 291.5L501.959 315.698C501.959 315.698 491.65 308.973 491.65 307.904Z" fill="#FB9762"/>
<path d="M453.245 356.613C453.245 356.613 444.697 347.688 451.485 342.723C458.273 337.758 470.719 340.209 470.719 340.209C470.719 340.209 486.369 299.671 488.884 298.602C491.398 297.534 510.254 308.533 511.323 312.115C512.391 315.698 495.295 366.166 485.678 365.098C477.758 365.852 454.313 356.99 453.245 356.613Z" fill="#EFEFEF"/>
<path d="M495.547 280.124C495.547 280.124 508.369 305.013 515.849 304.322C523.329 303.63 520.123 302.562 529.74 302.876C539.357 303.253 556.453 304.322 575.624 301.116C594.857 301.493 609.44 305.767 618.302 295.774C627.227 285.844 632.193 272.645 628.233 265.543C624.336 258.441 598.377 255.613 592.657 255.613C586.938 255.613 565.63 269.817 544.636 266.297C523.706 262.715 503.781 263.783 495.547 280.124Z" fill="#015BA2"/>
<path d="M629.867 157.943C629.867 157.943 629.176 166.491 627.353 167.559C625.593 168.628 634.141 170.073 635.524 170.073C636.97 170.073 639.421 156.56 638.73 154.423C638.038 152.224 629.867 157.943 629.867 157.943Z" fill="#E58D5D"/>
<path d="M596.617 248.825C597.686 247.379 602.903 216.331 598.754 209.669C590.143 193.642 609.44 170.953 624.273 165.925C638.604 164.857 644.01 168.565 647.781 183.272C648.284 198.23 638.29 216.457 634.707 229.97C631.125 243.482 630.81 264.852 630.433 266.611C630.056 268.371 595.549 270.885 591.275 259.824C587.001 248.762 596.617 248.825 596.617 248.825Z" fill="url(#paint11_linear)"/>
<path d="M562.425 260.578C562.425 260.578 551.048 255.927 545.328 260.955C539.608 265.92 547.465 267.366 551.048 267.366C554.631 267.366 561.356 267.743 563.116 266.674C564.876 265.606 562.425 260.578 562.425 260.578Z" fill="#FB9762"/>
<path d="M562.612 261.206L562.109 266.549C562.109 266.549 593.034 268.434 601.582 255.99C610.13 243.545 649.603 182.329 633.575 174.158C620.439 167.371 619.37 173.781 610.822 188.048C602.274 202.315 600.891 233.238 591.965 239.649C574.555 259.886 562.612 261.206 562.612 261.206Z" fill="#FB9762"/>
<path d="M634.078 134.94C634.078 134.94 625.152 142.042 623.392 150.212C621.632 158.383 628.735 159.451 631.249 158.76C633.763 158.069 642.249 154.109 643.694 152.726C645.14 151.281 648.66 143.11 646.9 139.591C645.077 136.008 634.078 134.94 634.078 134.94Z" fill="#FB9762"/>
<path d="M636.028 158.76C636.028 158.76 629.176 154.675 632.005 152.915C633.325 152.098 635.399 151.469 637.096 151.344C639.045 151.155 640.05 149.144 640.05 147.636C640.05 144.807 636.216 144.996 635.839 143.55C635.462 142.105 626.976 133.494 636.53 130.289C642.564 128.529 644.01 131.42 644.01 131.42C644.01 131.42 645.77 125.701 652.558 124.632C659.347 123.564 665.004 128.215 665.381 132.489C665.884 138.774 658.97 145.31 654.381 145.31C649.793 145.31 653.375 151.092 648.347 155.115C645.77 157.503 639.233 159.074 636.028 158.76Z" fill="#01122C"/>
<path d="M482.661 371.697C480.587 371.697 478.45 371.383 476.375 370.629C468.456 367.926 453.81 362.898 453.182 362.647C451.233 362.018 450.165 359.881 450.793 357.933C451.422 355.985 453.559 354.916 455.508 355.545C456.136 355.733 467.827 359.756 478.764 363.527C484.798 365.601 491.335 362.584 493.66 356.676L508.243 319.72C510.883 313.121 517.357 308.91 524.459 309.161L527.225 309.287C526.408 300.928 525.905 286.409 531.059 281.633C548.407 265.669 592.908 276.668 622.324 284.021C627.164 285.215 633.386 288.232 637.095 289.049C639.106 289.489 638.729 289.615 638.226 291.626C637.786 293.637 634.078 301.242 632.066 300.802C628.232 299.922 625.341 292.506 620.501 291.312C594.291 284.838 550.481 273.965 536.087 287.226C534.076 289.112 533.573 301.305 535.144 312.807L535.71 317.206L524.082 316.703C520.185 316.515 516.539 318.84 515.094 322.485L500.512 359.442C497.62 366.984 490.392 371.697 482.661 371.697Z" fill="#9A9BC6"/>
<path d="M532.945 361.076C530.934 361.076 529.299 359.504 529.236 357.43L527.791 313.309C527.728 311.235 529.362 309.538 531.374 309.475C533.511 309.413 535.145 311.047 535.208 313.058L536.653 357.179C536.716 359.253 535.082 360.95 533.071 361.013C533.008 361.076 532.945 361.076 532.945 361.076Z" fill="#9A9BC6"/>
<path d="M530.809 387.724C529.238 387.724 527.792 386.718 527.289 385.21C526.598 383.199 520.878 365.475 526.912 355.419C533.009 345.3 558.779 351.522 568.208 354.162L630.874 335.935C638.605 333.736 638.291 320.16 637.851 314.441C637.788 314.001 637.788 313.686 637.788 313.561C637.788 311.487 639.485 309.852 641.496 309.852C643.507 309.852 645.205 311.487 645.205 313.498C645.205 313.561 645.205 313.686 645.205 313.875C646.587 330.09 642.188 340.523 632.885 343.163L568.145 361.955L567.076 361.641C552.934 357.493 535.523 355.482 533.26 359.253C529.615 365.286 532.757 378.297 534.329 382.822C535.02 384.77 533.952 386.907 532.003 387.536C531.563 387.661 531.186 387.724 530.809 387.724Z" fill="#9A9BC6"/>
<path d="M537.722 406.076C544.908 406.076 550.733 400.252 550.733 393.066C550.733 385.881 544.908 380.056 537.722 380.056C530.536 380.056 524.711 385.881 524.711 393.066C524.711 400.252 530.536 406.076 537.722 406.076Z" fill="#022042"/>
<path d="M537.911 398.283C540.48 398.283 542.562 396.201 542.562 393.632C542.562 391.063 540.48 388.981 537.911 388.981C535.342 388.981 533.26 391.063 533.26 393.632C533.26 396.201 535.342 398.283 537.911 398.283Z" fill="#9A9BC6"/>
<path d="M636.09 416.195C594.795 416.195 561.23 382.633 561.23 341.341C561.23 300.048 594.795 266.486 636.09 266.486C677.386 266.486 710.95 300.048 710.95 341.341C711.013 382.633 677.386 416.195 636.09 416.195ZM636.09 280.313C602.463 280.313 575.059 307.653 575.059 341.341C575.059 374.966 602.4 402.368 636.09 402.368C669.718 402.368 697.122 375.028 697.122 341.341C697.122 307.716 669.718 280.313 636.09 280.313Z" fill="#1A385B"/>
<path d="M636.529 384.142C660.794 384.142 680.465 364.472 680.465 340.209C680.465 315.946 660.794 296.277 636.529 296.277C612.264 296.277 592.594 315.946 592.594 340.209C592.594 364.472 612.264 384.142 636.529 384.142Z" fill="#9A9BC6"/>
<path d="M228.539 59.0794C227.471 62.9761 226.025 66.81 224.077 70.3925C222.128 73.9749 219.614 77.4317 216.408 80.3228C213.203 83.1511 209.306 85.4137 204.969 86.4822C200.632 87.5506 195.981 87.4249 191.707 86.1051C187.432 84.7852 183.661 82.2712 180.707 79.1915C177.69 76.1118 175.49 72.4665 173.856 68.6955C170.587 61.0906 169.645 52.6058 171.153 44.3095C171.97 40.1614 173.353 36.0761 175.553 32.368C177.753 28.6598 180.644 25.3287 184.164 22.6261C187.621 19.9236 191.707 17.8495 196.106 16.7811C200.506 15.6498 205.22 15.7126 209.62 16.9068C214.02 18.1009 218.106 20.4264 221.374 23.5689C224.642 26.6486 226.905 30.6081 228.351 34.6306C229.734 38.7158 230.236 42.9268 230.236 47.075C230.111 51.0974 229.545 55.1198 228.539 59.0794ZM227.848 58.8908C228.791 55.057 228.979 50.9717 228.351 47.1378C227.722 43.2411 226.214 39.5958 224.265 36.4532C222.317 33.2479 219.803 30.5453 217.037 28.3455C214.271 26.1458 211.129 24.5745 207.797 23.7575C204.466 22.9404 200.946 22.8775 197.552 23.5689C194.158 24.2603 190.827 25.643 187.81 27.717C184.793 29.7282 182.215 32.368 179.953 35.3219C177.753 38.2759 175.867 41.607 174.61 45.2523C172.096 52.4801 172.222 60.902 175.741 67.8156C177.439 71.2724 180.016 74.2892 183.033 76.4889C186.05 78.6887 189.507 80.1343 193.027 80.7628C200.066 82.1455 207.295 80.6371 213.831 76.9289C217.1 75.0434 220.117 72.5922 222.568 69.5126C225.082 66.37 226.905 62.7247 227.848 58.8908Z" fill="#2FB67D"/>
<path d="M190.262 35.6362C191.456 37.1446 192.524 38.7158 193.593 40.2871C194.662 41.8583 195.667 43.4924 196.673 45.0637C197.679 46.6978 198.621 48.3319 199.627 49.966C200.57 51.6001 201.513 53.2343 202.393 54.9312L200.381 54.5541C202.895 52.4801 205.473 50.406 208.05 48.3948C209.37 47.3892 210.689 46.4464 212.009 45.5037C213.392 44.5609 214.712 43.6181 216.158 42.8011C215.089 44.0581 213.958 45.2523 212.827 46.4464C211.695 47.6406 210.501 48.7719 209.307 49.9032C206.918 52.1658 204.53 54.3656 202.016 56.5025L200.821 57.5081L200.004 56.1254C199.061 54.4913 198.181 52.7943 197.301 51.0973C196.421 49.4004 195.541 47.7034 194.724 46.0065C193.907 44.3095 193.09 42.5497 192.336 40.8527C191.707 39.2186 190.953 37.4588 190.262 35.6362Z" fill="#383838"/>
<path d="M358.273 400.546C364.903 400.546 370.278 395.171 370.278 388.541C370.278 381.911 364.903 376.537 358.273 376.537C351.642 376.537 346.268 381.911 346.268 388.541C346.268 395.171 351.642 400.546 358.273 400.546Z" fill="#8283A8"/>
<path d="M118.105 400.546C124.735 400.546 130.11 395.171 130.11 388.541C130.11 381.911 124.735 376.537 118.105 376.537C111.475 376.537 106.1 381.911 106.1 388.541C106.1 395.171 111.475 400.546 118.105 400.546Z" fill="#8283A8"/>
<path d="M339.038 375.196L352.992 375.196L352.992 323.282L339.038 323.282L339.038 375.196Z" fill="#8283A8"/>
<path d="M127.886 375.196L141.84 375.196L141.84 323.282L127.886 323.282L127.886 375.196Z" fill="#8283A8"/>
<path d="M115.951 376.514L361.021 376.514L361.021 357.974L115.951 357.974L115.951 376.514Z" fill="#9898BF"/>
<path d="M159.714 300.048L87.3681 233.301C82.9682 229.278 82.7168 222.428 86.7395 218.091C90.7622 213.691 97.6134 213.44 101.95 217.462L164.805 275.473H393.848V301.933H165.936L163.988 304.007L161.725 301.933H159.714V300.048Z" fill="#E0E0E0"/>
<path d="M88.1229 236.758V299.419H386.431V256.87C386.431 253.853 388.883 251.402 391.9 251.402C394.917 251.402 397.368 253.853 397.368 256.87V299.419V320.097V325.502H72.9121V306.584V299.419V236.758C72.9121 232.547 76.3063 229.153 80.5175 229.153C84.7288 229.153 88.1229 232.547 88.1229 236.758Z" fill="#9898BF"/>
<path d="M271.03 301.933C271.03 301.933 268.202 282.764 256.511 281.444C244.82 280.124 88.123 281.444 88.123 281.444V272.268H260.471C260.471 272.268 278.636 274.028 280.647 301.933H271.03Z" fill="#9898BF"/>
<path d="M864.577 290.748C864.883 289.88 873.505 252.077 891.159 255.24C908.761 258.403 872.383 306.614 867.791 310.083C863.097 313.553 864.577 290.748 864.577 290.748Z" fill="#2EB67D"/>
<path d="M855.902 308.043C855.902 308.043 838.861 241.363 858.198 237.282C877.534 233.251 865.443 309.471 865.443 309.471L855.902 308.043Z" fill="#22A076"/>
<path d="M865.695 248.556C865.695 248.556 869.471 235.292 875.797 238.455C882.124 241.618 866.563 257.535 866.563 257.535L865.695 248.556Z" fill="#2EB67D"/>
<path d="M849.83 271.667C849.83 271.667 838.86 261.566 835.952 267.892C833.044 274.269 837.126 282.33 843.758 282.33C850.391 282.33 852.126 277.687 852.126 277.687L849.83 271.667Z" fill="#2EB67D"/>
<path d="M892.841 269.371C892.841 269.371 906.412 260.699 906.973 267.943C907.535 275.136 899.167 281.514 891.973 279.218C884.779 276.871 892.841 269.371 892.841 269.371Z" fill="#2EB67D"/>
<path d="M841.463 308.043H890.545C890.545 308.043 895.188 347.326 878.708 357.734C862.229 368.141 853.861 360.641 853.861 360.641C853.861 360.641 827.892 327.684 841.463 308.043Z" fill="#2E4974"/>
<path d="M37.5856 177.804C37.3342 177.804 37.0199 177.741 36.7685 177.615C36.0143 177.175 35.7628 176.17 36.2028 175.415C36.5171 174.787 39.9113 169.633 53.4879 169.633C53.5507 169.633 53.6764 169.633 53.7393 169.633C68.1959 169.445 72.6586 174.724 72.8471 174.975C73.4128 175.667 73.2871 176.672 72.6586 177.238C71.9672 177.804 70.9615 177.678 70.3958 177.05C70.3958 177.05 66.4359 172.776 53.8021 172.901C53.7393 172.901 53.6136 172.901 53.5507 172.901C41.7969 172.901 39.0313 177.05 39.0313 177.112C38.717 177.489 38.1513 177.804 37.5856 177.804Z" fill="#C2EEEE"/>
<path d="M54.3683 203.95C52.6083 203.95 51.1627 202.755 51.1627 201.31L51.2255 189.62L50.7227 171.77C50.6598 170.325 52.1055 169.068 53.8654 169.068C55.6253 169.005 57.071 170.199 57.1339 171.644L57.6367 189.557L57.5738 201.31C57.5738 202.818 56.1282 203.95 54.3683 203.95Z" fill="#C2EEEE"/>
<path d="M38.7192 194.522C36.645 194.522 34.7594 194.333 33.4394 193.956C31.9938 193.516 31.051 192.825 30.7367 191.819C30.4224 191.002 30.8624 190.06 31.6795 189.745C32.4966 189.431 33.3137 189.808 33.6909 190.562C35.7022 192.197 50.4731 190.751 53.2387 188.614L53.9929 188.048L54.8729 188.425C62.2269 191.568 75.175 191.568 76.8092 190.06C77.312 189.305 78.3177 189.18 79.0091 189.682C79.7634 190.185 79.8891 191.191 79.3862 191.945C76.9978 195.402 62.2897 194.711 54.4329 191.694C51.2273 193.328 44.1876 194.522 38.7192 194.522Z" fill="#C2EEEE"/>
<path d="M35.7013 203.321C33.9414 203.321 32.4329 203.195 31.3644 202.881C30.1073 202.504 29.2902 201.875 28.913 200.996C28.5988 200.178 28.9759 199.236 29.793 198.921C30.5472 198.607 31.4272 198.984 31.8043 199.676C34.0043 201.247 49.9694 199.11 53.1749 196.847L53.8663 196.345L54.6835 196.659C63.2317 199.99 77.0597 200.556 78.7568 199.173C79.2597 198.481 80.2653 198.356 80.9567 198.859C81.6481 199.361 81.7738 200.43 81.271 201.121C78.5054 204.829 61.8489 202.567 54.2435 199.864C50.7865 201.624 41.7982 203.321 35.7013 203.321Z" fill="#C2EEEE"/>
<path d="M40.7289 184.906C38.969 184.906 37.3976 184.78 36.2662 184.403C34.7577 183.963 33.8149 183.209 33.4378 182.14C33.1864 181.323 33.6263 180.381 34.4434 180.129C35.2606 179.878 36.0777 180.255 36.3919 181.009C38.2147 182.518 51.3514 181.135 53.7398 179.061L54.557 178.369L55.4998 178.809C62.3509 182.015 73.7276 181.763 75.0476 180.506C75.4876 179.752 76.4932 179.564 77.2475 180.004C78.0018 180.444 78.1903 181.512 77.7503 182.266C75.4247 185.974 61.7852 184.843 54.9969 182.078C52.0428 183.775 45.6316 184.906 40.7289 184.906Z" fill="#C2EEEE"/>
<path d="M39.8498 211.806C31.4901 211.806 28.7874 206.904 28.6617 206.652C28.2845 205.898 28.536 204.892 29.3531 204.515C30.1073 204.138 31.113 204.39 31.4901 205.207C40.2269 210.675 40.4155 206.212 51.3522 201.813C52.2322 201.561 52.5465 201.687 52.7979 202.504C53.0493 203.384 52.4836 203.887 51.6665 204.075C48.6495 204.892 41.9869 211.806 39.8498 211.806Z" fill="#C2EEEE"/>
<path d="M41.9868 219.914C34.3185 221.296 29.7301 212.812 29.7301 212.749C29.353 211.932 29.6673 210.989 30.4215 210.612C31.2386 210.235 32.1814 210.549 32.5586 211.303C37.147 216.645 38.5298 222.805 51.5407 202.504C52.4207 202.316 53.2378 202.881 53.4263 203.761C53.6149 204.641 45.1295 218.971 41.9868 219.914Z" fill="#C2EEEE"/>
<path d="M69.5794 211.932C77.939 211.932 80.6418 207.029 80.7675 206.778C81.1446 206.024 80.8932 205.018 80.0761 204.641C79.3219 204.264 78.3162 204.515 77.9391 205.332C77.8133 205.584 70.9622 211.806 57.4484 201.435C56.5685 201.184 55.8142 201.624 55.5628 202.504C55.3114 203.384 55.1856 203.761 56.0028 204.012C59.0198 204.767 67.4423 211.932 69.5794 211.932Z" fill="#C2EEEE"/>
<path d="M67.0653 220.039C76.0535 220.039 79.6362 213 79.6991 212.937C80.0762 212.12 79.7619 211.177 79.0077 210.8C78.1906 210.423 77.2477 210.737 76.8706 211.492C70.1452 219.096 67.631 218.908 56.82 202.63C55.94 202.441 55.1229 203.007 54.9343 203.887C54.6829 204.767 64.7397 219.725 67.0653 220.039Z" fill="#C2EEEE"/>
<path d="M622.386 156.875C622.512 155.743 623.706 155.115 624.711 155.68C627.037 157.063 631.185 158.949 636.025 158.697C637.848 158.572 639.545 158.32 640.865 158.069C642.499 157.754 643.945 159.2 643.568 160.834C642.814 164.354 641.682 169.319 640.802 170.325C639.482 171.896 622.386 168.188 621.883 167.119C621.506 166.428 622.072 160.394 622.386 156.875Z" fill="#E2E2E2"/>
<defs>
<linearGradient id="paint0_linear" x1="9.41222" y1="402.171" x2="427.496" y2="402.171" gradientUnits="userSpaceOnUse">
<stop offset="0.00396825" stop-color="#FCEFFF"/>
<stop offset="0.2807" stop-color="#EDE1F0"/>
<stop offset="0.6443" stop-color="#E1D6E4"/>
<stop offset="1" stop-color="#DDD2E0"/>
</linearGradient>
<linearGradient id="paint1_linear" x1="751.984" y1="356.505" x2="935.982" y2="356.505" gradientUnits="userSpaceOnUse">
<stop offset="0.00396825" stop-color="#FCEFFF"/>
<stop offset="0.2807" stop-color="#EDE1F0"/>
<stop offset="0.6443" stop-color="#E1D6E4"/>
<stop offset="1" stop-color="#DDD2E0"/>
</linearGradient>
<linearGradient id="paint2_linear" x1="758.348" y1="116.855" x2="904.484" y2="136.959" gradientUnits="userSpaceOnUse">
<stop stop-color="#A237A4"/>
<stop offset="1" stop-color="#4A154B"/>
</linearGradient>
<linearGradient id="paint3_linear" x1="767.732" y1="245.636" x2="822.494" y2="254.689" gradientUnits="userSpaceOnUse">
<stop stop-color="#A237A4"/>
<stop offset="1" stop-color="#4A154B"/>
</linearGradient>
<linearGradient id="paint4_linear" x1="755.604" y1="226.383" x2="778.021" y2="227.496" gradientUnits="userSpaceOnUse">
<stop stop-color="#A237A4"/>
<stop offset="1" stop-color="#4A154B"/>
</linearGradient>
<linearGradient id="paint5_linear" x1="806.207" y1="116.623" x2="898.913" y2="124.601" gradientUnits="userSpaceOnUse">
<stop stop-color="#A237A4"/>
<stop offset="1" stop-color="#4A154B"/>
</linearGradient>
<linearGradient id="paint6_linear" x1="806.865" y1="225.133" x2="831.029" y2="226.407" gradientUnits="userSpaceOnUse">
<stop stop-color="#A237A4"/>
<stop offset="1" stop-color="#4A154B"/>
</linearGradient>
<linearGradient id="paint7_linear" x1="464.005" y1="407.46" x2="803.038" y2="407.46" gradientUnits="userSpaceOnUse">
<stop offset="0.00396825" stop-color="#FCEFFF"/>
<stop offset="0.2807" stop-color="#EDE1F0"/>
<stop offset="0.6443" stop-color="#E1D6E4"/>
<stop offset="1" stop-color="#DDD2E0"/>
</linearGradient>
<linearGradient id="paint8_linear" x1="147.795" y1="174.893" x2="227.526" y2="189.21" gradientUnits="userSpaceOnUse">
<stop stop-color="#FED337"/>
<stop offset="1" stop-color="#ECB22E"/>
</linearGradient>
<linearGradient id="paint9_linear" x1="187.589" y1="190.351" x2="257.697" y2="200.877" gradientUnits="userSpaceOnUse">
<stop stop-color="#FED337"/>
<stop offset="1" stop-color="#ECB22E"/>
</linearGradient>
<linearGradient id="paint10_linear" x1="499.236" y1="136.081" x2="541.242" y2="139.299" gradientUnits="userSpaceOnUse">
<stop stop-color="#FED337"/>
<stop offset="1" stop-color="#ECB22E"/>
</linearGradient>
<linearGradient id="paint11_linear" x1="606.697" y1="102.256" x2="663.482" y2="105.565" gradientUnits="userSpaceOnUse">
<stop stop-color="#00BCF8"/>
<stop offset="1" stop-color="#015BA2"/>
</linearGradient>
</defs>
</svg>
