<svg width="957" height="440" viewBox="0 0 957 440" fill="none" xmlns="http://www.w3.org/2000/svg">
<path d="M42.3785 253.813C42.3785 253.813 3.0943 236.15 10.0083 200.509C11.2026 178.697 -2.93975 172.222 5.23136 148.65C12.3339 136.266 15.8538 115.649 42.3785 113.323C72.423 113.197 84.1769 136.895 80.0913 153.993C75.9429 171.091 100.142 166.376 94.2336 193.468C88.3253 220.561 77.7657 229.424 68.3375 236.15C58.8464 242.876 42.3785 253.813 42.3785 253.813Z" fill="#2F9E70"/>
<path d="M224.973 49.1432H49.4824V274.745H224.973V49.1432Z" fill="#B0B2D1"/>
<path d="M232.012 35H42.3789V49.1434H232.012V35Z" fill="#9A9BC6"/>
<path d="M408.761 100.374H137.229V274.746H408.761V100.374Z" fill="#BFC1DD"/>
<path d="M414.605 90.3164H130.125V103.265H414.605V90.3164Z" fill="#9A9BC6"/>
<path d="M373.373 111.563H179.592V155.753H373.373V111.563Z" fill="#DADBEA"/>
<path d="M339.808 187.559H179.592V271.791H339.808V187.559Z" fill="#9A9BC6"/>
<path d="M327.426 200.509H193.734V271.791H327.426V200.509Z" fill="#BFC1DD"/>
<path d="M263.251 216.978H224.973V274.683H263.251V216.978Z" fill="#9A9BC6"/>
<path d="M122.394 111.311H49.4824V163.736H122.394V111.311Z" fill="#CFD0E5"/>
<path d="M205.551 59.138H49.4824V82.0817H205.551V59.138Z" fill="#CFD0E5"/>
<path d="M36.471 277.763C36.471 277.763 -0.864652 281.22 0.0153141 265.756C0.89528 250.293 20.7574 247.779 25.0315 249.162C29.3056 250.544 34.5854 243.19 41.1851 244.321C47.7849 245.453 42.8822 243.881 56.8988 254.379C70.9154 264.876 65.3842 274.871 61.9272 275.814C58.4702 276.631 36.471 277.763 36.471 277.763Z" fill="#2EB67D"/>
<path d="M39.7388 169.833H34.459V262.362H39.7388V169.833Z" fill="#2EB67D"/>
<path d="M190.716 117.785H192.853L197.127 128.849H194.927L194.047 126.586H189.521L188.641 128.849H186.441L190.716 117.785ZM191.847 120.74L190.338 124.511H193.293L191.847 120.74Z" fill="#9A9BC6"/>
<path d="M208.88 119.734L207.434 121.117C206.429 120.048 205.297 119.546 204.04 119.546C202.972 119.546 202.092 119.923 201.4 120.614C200.709 121.306 200.332 122.249 200.332 123.254C200.332 124.009 200.52 124.637 200.835 125.203C201.149 125.769 201.589 126.209 202.217 126.523C202.783 126.837 203.474 127.026 204.166 127.026C204.794 127.026 205.36 126.9 205.863 126.712C206.366 126.46 206.931 126.083 207.497 125.454L208.943 126.963C208.126 127.78 207.371 128.283 206.617 128.597C205.863 128.912 205.046 129.037 204.166 129.037C202.469 129.037 201.023 128.472 199.955 127.403C198.886 126.334 198.32 124.952 198.32 123.191C198.32 122.06 198.572 121.117 199.075 120.237C199.577 119.357 200.269 118.666 201.212 118.163C202.154 117.66 203.16 117.408 204.229 117.408C205.109 117.408 205.989 117.597 206.869 117.974C207.56 118.477 208.251 119.043 208.88 119.734Z" fill="#9A9BC6"/>
<path d="M220.886 119.734L219.44 121.117C218.434 120.048 217.303 119.546 216.046 119.546C214.977 119.546 214.097 119.923 213.406 120.614C212.715 121.306 212.338 122.249 212.338 123.254C212.338 124.009 212.526 124.637 212.84 125.203C213.155 125.769 213.595 126.209 214.223 126.523C214.789 126.837 215.48 127.026 216.172 127.026C216.8 127.026 217.366 126.9 217.869 126.712C218.372 126.46 218.937 126.083 219.503 125.454L220.949 126.963C220.132 127.78 219.377 128.283 218.623 128.597C217.869 128.912 217.052 129.037 216.172 129.037C214.475 129.037 213.029 128.472 211.96 127.403C210.892 126.334 210.326 124.952 210.326 123.191C210.326 122.06 210.578 121.117 211.08 120.237C211.583 119.357 212.275 118.666 213.217 118.163C214.16 117.66 215.166 117.408 216.235 117.408C217.114 117.408 217.994 117.597 218.874 117.974C219.503 118.477 220.257 119.043 220.886 119.734Z" fill="#9A9BC6"/>
<path d="M222.52 117.785H224.594V128.849H222.52V117.785Z" fill="#9A9BC6"/>
<path d="M226.982 117.785H229.497C231.131 117.785 232.262 117.974 233.079 118.351C233.834 118.728 234.525 119.42 235.028 120.3C235.531 121.18 235.782 122.248 235.782 123.443C235.782 124.323 235.656 125.077 235.342 125.768C235.091 126.46 234.651 127.089 234.148 127.529C233.645 127.969 233.142 128.346 232.514 128.534C231.948 128.723 230.942 128.786 229.497 128.786H226.982V117.785ZM229.057 119.86V126.837H230.062C231.005 126.837 231.697 126.711 232.136 126.523C232.576 126.271 232.954 125.957 233.205 125.391C233.456 124.888 233.645 124.26 233.645 123.443C233.645 122.248 233.331 121.368 232.639 120.74C232.074 120.174 231.131 119.86 229.811 119.86H229.057Z" fill="#9A9BC6"/>
<path d="M237.73 117.785H243.764V119.86H239.805V121.871H243.764V123.883H239.805V126.774H243.764V128.849H237.73V117.785Z" fill="#9A9BC6"/>
<path d="M245.775 117.785H247.787L252.501 125.077V117.785H254.575V128.849H252.564L247.85 121.62V128.849H245.775V117.785Z" fill="#9A9BC6"/>
<path d="M256.021 117.785H262.118V119.86H260.107V128.849H257.97V119.86H256.021V117.785Z" fill="#9A9BC6"/>
<path d="M274.753 124.511L276.01 125.957L275.444 126.46L274.878 126.963L276.638 128.849H274.124L273.37 128.094C272.239 128.786 271.107 129.1 270.164 129.1C269.347 129.1 268.656 128.849 268.09 128.346C267.587 127.843 267.336 127.214 267.336 126.46C267.336 125.894 267.462 125.329 267.776 124.826C268.09 124.323 268.593 123.757 269.284 123.191C268.593 122.248 268.216 121.368 268.216 120.677C268.216 120.111 268.467 119.608 268.907 119.043C269.347 118.54 270.039 118.225 270.919 118.225C271.799 118.225 272.427 118.477 272.93 119.043C273.433 119.608 273.621 120.111 273.621 120.614C273.621 121.054 273.496 121.431 273.307 121.808C273.119 122.186 272.616 122.751 271.861 123.506C272.741 124.574 273.307 125.203 273.621 125.454C273.684 125.391 274.124 125.077 274.753 124.511ZM272.05 126.649C271.673 126.271 271.107 125.643 270.416 124.763C269.662 125.391 269.284 125.894 269.284 126.397C269.284 126.586 269.41 126.837 269.599 126.963C269.787 127.151 270.039 127.214 270.353 127.214C270.793 127.214 271.359 127.026 272.05 126.649ZM270.793 122.06C271.359 121.557 271.61 121.18 271.61 120.803C271.61 120.614 271.547 120.488 271.421 120.363C271.296 120.237 271.107 120.174 270.919 120.174C270.73 120.174 270.542 120.237 270.416 120.363C270.29 120.488 270.227 120.677 270.227 120.866C270.227 121.18 270.416 121.62 270.793 122.06Z" fill="#9A9BC6"/>
<path d="M187.383 136.266H193.417V138.341H189.457V140.352H193.417V142.364H189.457V145.255H193.417V147.33H187.383V136.266Z" fill="#9A9BC6"/>
<path d="M196.436 136.266H198.51L201.087 143.935L203.664 136.266H205.739L207.561 147.33H205.55L204.356 140.352L202.03 147.33H200.207L197.882 140.352L196.687 147.33H194.613L196.436 136.266Z" fill="#9A9BC6"/>
<path d="M209.193 136.266H215.227V138.341H211.268V140.352H215.227V142.364H211.268V145.255H215.227V147.33H209.193V136.266Z" fill="#9A9BC6"/>
<path d="M217.303 136.266H219.503C220.697 136.266 221.577 136.392 222.08 136.581C222.583 136.769 223.022 137.147 223.337 137.649C223.651 138.152 223.84 138.781 223.84 139.472C223.84 140.227 223.651 140.792 223.337 141.295C222.96 141.798 222.457 142.175 221.765 142.427L224.405 147.33H222.08L219.628 142.678H219.44V147.33H217.366V136.266H217.303ZM219.44 140.541H220.068C220.76 140.541 221.2 140.478 221.451 140.289C221.703 140.101 221.828 139.849 221.828 139.409C221.828 139.158 221.765 138.969 221.64 138.781C221.514 138.592 221.325 138.467 221.137 138.404C220.948 138.341 220.571 138.278 220.005 138.278H219.44V140.541Z" fill="#9A9BC6"/>
<path d="M236.285 138.026L234.777 139.472C233.834 138.466 232.765 137.964 231.508 137.964C230.44 137.964 229.497 138.341 228.806 139.032C228.051 139.724 227.737 140.604 227.737 141.672C227.737 142.741 228.114 143.621 228.868 144.375C229.623 145.129 230.565 145.507 231.697 145.507C232.451 145.507 233.017 145.381 233.52 145.067C234.022 144.752 234.4 144.312 234.714 143.621H231.508V141.672H237.04V142.112C237.04 143.055 236.788 143.998 236.285 144.878C235.782 145.758 235.154 146.387 234.337 146.89C233.52 147.33 232.64 147.581 231.508 147.581C230.377 147.581 229.371 147.33 228.428 146.827C227.548 146.324 226.794 145.632 226.291 144.689C225.789 143.747 225.537 142.804 225.537 141.735C225.537 140.289 226.04 139.032 226.983 137.901C228.114 136.643 229.623 135.952 231.445 135.952C232.388 135.952 233.331 136.141 234.148 136.455C234.902 136.769 235.594 137.335 236.285 138.026Z" fill="#9A9BC6"/>
<path d="M238.988 136.266H245.022V138.341H241.062V140.352H245.022V142.364H241.062V145.255H245.022V147.33H238.988V136.266Z" fill="#9A9BC6"/>
<path d="M246.971 136.266H248.982L253.696 143.558V136.266H255.77V147.33H253.759L249.045 140.101V147.33H246.971V136.266Z" fill="#9A9BC6"/>
<path d="M268.466 138.152L267.02 139.535C266.014 138.466 264.883 137.964 263.626 137.964C262.557 137.964 261.678 138.341 260.986 139.032C260.295 139.724 259.918 140.667 259.918 141.672C259.918 142.427 260.106 143.055 260.42 143.621C260.735 144.187 261.175 144.627 261.803 144.941C262.369 145.255 263.06 145.444 263.752 145.444C264.38 145.444 264.946 145.318 265.449 145.13C265.952 144.878 266.517 144.501 267.083 143.872L268.529 145.381C267.712 146.198 266.957 146.701 266.203 147.015C265.449 147.33 264.632 147.455 263.752 147.455C262.055 147.455 260.609 146.89 259.54 145.821C258.472 144.752 257.906 143.369 257.906 141.609C257.906 140.478 258.158 139.535 258.661 138.655C259.163 137.775 259.855 137.084 260.798 136.581C261.74 136.078 262.746 135.826 263.815 135.826C264.695 135.826 265.575 136.015 266.454 136.392C267.146 136.895 267.837 137.461 268.466 138.152Z" fill="#9A9BC6"/>
<path d="M269.535 136.266H271.798L273.872 140.227L275.946 136.266H278.146L274.941 142.552V147.33H272.804V142.552L269.535 136.266Z" fill="#9A9BC6"/>
<path d="M94.2981 53.3548H91.6582V95.4077H94.2981V53.3548Z" fill="#B0B2D1"/>
<path d="M150.804 54.4232H148.164V87.7386H150.804V54.4232Z" fill="#B0B2D1"/>
<path d="M315.553 316.689C319.58 316.689 322.844 313.03 322.844 308.517C322.844 304.004 319.58 300.345 315.553 300.345C311.526 300.345 308.262 304.004 308.262 308.517C308.262 313.03 311.526 316.689 315.553 316.689Z" fill="#424242"/>
<path d="M331.519 303.049C333.342 298.963 334.536 293.054 332.21 285.511C329.382 280.671 318.319 276.019 311.217 270.865L297.766 246.538C295.252 240.064 295 231.578 289.846 230.069L235.1 229.063V301.289H331.644V303.049H331.519Z" fill="#B7B7B7"/>
<path d="M287.143 295.631C284.315 286.328 272.121 282.179 265.081 276.962L248.676 244.652C245.156 238.052 244.025 232.08 236.734 229H151V309.837H236.671C236.671 309.837 236.734 303.111 236.734 293.557V309.774H287.08C287.143 309.774 288.715 301.037 287.143 295.631Z" fill="#EFEFEF"/>
<path d="M255.465 245.721H297.452L311.217 270.802L267.533 271.494L255.465 245.721Z" fill="#79C6C4"/>
<path d="M246.35 246.475C246.35 246.475 242.076 245.281 241.322 248.361C240.567 251.441 241.322 270.739 241.322 270.739H259.424L246.35 246.475Z" fill="#90DEE0"/>
<path d="M251.064 259.11C251.064 259.11 247.67 258.985 246.665 261.625C245.659 264.265 247.23 273.379 250.247 273.819C253.264 274.259 256.533 265.271 255.464 263.385C254.459 261.499 254.899 260.053 251.064 259.11Z" fill="#D4D4D4"/>
<path d="M318.508 283.751L316.748 291.859H300.531L296.383 283.751H318.508Z" fill="#696969"/>
<path d="M325.359 281.99L324.793 289.911L329.381 289.031C329.318 289.031 330.764 285.636 325.359 281.99Z" fill="#EFEFEF"/>
<path d="M279.287 283.185C278.469 282.934 286.012 289.911 286.012 289.911H293.303C293.303 289.911 294.937 286.202 293.303 285.071C291.669 283.876 281.172 283.751 279.287 283.185Z" fill="#EFEFEF"/>
<path d="M236.733 241.132H151.062V249.744H236.733V241.132Z" fill="#E01E5A"/>
<path d="M283.812 289.911H151.062V283.751H276.52C276.52 283.751 282.806 287.774 283.812 289.911Z" fill="#E01E5A"/>
<path d="M191.981 278.156C185.067 278.156 179.473 272.562 179.473 265.647C179.473 258.733 185.067 253.138 191.981 253.138C198.895 253.138 204.489 258.733 204.489 265.647C204.489 272.562 198.895 278.156 191.981 278.156ZM191.981 254.898C186.072 254.898 181.233 259.738 181.233 265.647C181.233 271.556 186.072 276.396 191.981 276.396C197.889 276.396 202.729 271.556 202.729 265.647C202.729 259.738 197.952 254.898 191.981 254.898Z" fill="#696969"/>
<path d="M198.454 262.818H194.62V259.047H189.34V262.818H185.506V268.099H189.34V272.059H194.62V268.099H198.454V262.818Z" fill="#E01E5A"/>
<path d="M234.974 301.226H151.062V309.775H234.974H326.679C326.679 309.775 329.444 307.449 331.455 302.986L332.147 301.226H234.974Z" fill="#E01E5A"/>
<path d="M169.73 319.517C175.632 319.517 180.416 314.029 180.416 307.26C180.416 300.49 175.632 295.002 169.73 295.002C163.829 295.002 159.045 300.49 159.045 307.26C159.045 314.029 163.829 319.517 169.73 319.517Z" fill="#424242"/>
<path d="M268.034 318.009C273.449 318.009 277.839 312.858 277.839 306.505C277.839 300.152 273.449 295.002 268.034 295.002C262.618 295.002 258.229 300.152 258.229 306.505C258.229 312.858 262.618 318.009 268.034 318.009Z" fill="#424242"/>
<path d="M168.535 314.174C171.59 314.174 174.066 311.078 174.066 307.26C174.066 303.441 171.59 300.345 168.535 300.345C165.48 300.345 163.004 303.441 163.004 307.26C163.004 311.078 165.48 314.174 168.535 314.174Z" fill="#696969"/>
<path d="M266.527 313.106C268.575 313.106 270.235 310.235 270.235 306.694C270.235 303.153 268.575 300.283 266.527 300.283C264.479 300.283 262.818 303.153 262.818 306.694C262.818 310.235 264.479 313.106 266.527 313.106Z" fill="#696969"/>
<path d="M749.704 153.314L749.138 151.616C749.766 150.988 748.887 145.959 747.189 140.93L748.887 140.365C750.332 144.828 752.469 152.371 749.704 153.314Z" fill="#2E4974"/>
<path d="M765.479 153.314V151.554C766.17 151.051 766.484 145.96 766.044 140.742L767.804 140.617C767.93 142.314 768.558 150.8 766.673 152.748C766.233 153.251 765.793 153.314 765.479 153.314Z" fill="#2E4974"/>
<path d="M826.95 120.941H735.748C732.291 120.941 729.463 118.112 729.463 114.655V56.8874H833.236V114.655C833.236 118.112 830.47 120.941 826.95 120.941Z" fill="#E2E2E2"/>
<path d="M819.031 142.125H743.668C740.211 142.125 737.383 139.296 737.383 135.839V120.941H825.254V135.839C825.317 139.359 822.488 142.125 819.031 142.125Z" fill="#CECECE"/>
<path d="M821.355 167.332H741.404V156.834C741.404 153.377 744.233 150.548 747.69 150.548H815.07C818.527 150.548 821.355 153.377 821.355 156.834V167.332Z" fill="#E2E2E2"/>
<path d="M825.316 66.1908H748.885V112.141H825.316V66.1908Z" fill="#2E4974"/>
<path d="M825.316 102.272H748.885V112.141H825.316V102.272Z" fill="#E8525F"/>
<path d="M745.804 76.7511H736.502V67.4479H745.804V76.7511ZM738.262 74.9911H743.982V69.2709H738.262V74.9911Z" fill="#B7B7B7"/>
<path d="M745.804 88.632H736.502V79.3288H745.804V88.632ZM738.262 86.8719H743.982V81.0889H738.262V86.8719Z" fill="#B7B7B7"/>
<path d="M745.804 99.8201H736.502V90.517H745.804V99.8201ZM738.262 98.0601H743.982V92.3399H738.262V98.0601Z" fill="#B7B7B7"/>
<path d="M741.215 113.649C743.714 113.649 745.741 111.623 745.741 109.124C745.741 106.624 743.714 104.598 741.215 104.598C738.716 104.598 736.689 106.624 736.689 109.124C736.689 111.623 738.716 113.649 741.215 113.649Z" fill="#B7B7B7"/>
<path d="M760.072 76.5001C761.426 76.5001 762.524 75.4025 762.524 74.0485C762.524 72.6946 761.426 71.597 760.072 71.597C758.719 71.597 757.621 72.6946 757.621 74.0485C757.621 75.4025 758.719 76.5001 760.072 76.5001Z" fill="#FED337"/>
<path d="M760.072 89.5118C761.426 89.5118 762.524 88.4142 762.524 87.0603C762.524 85.7063 761.426 84.6088 760.072 84.6088C758.719 84.6088 757.621 85.7063 757.621 87.0603C757.621 88.4142 758.719 89.5118 760.072 89.5118Z" fill="#E8525F"/>
<path d="M755.924 137.222C752.656 137.222 750.016 134.582 750.016 131.313C750.016 128.044 752.656 125.404 755.924 125.404C759.192 125.404 761.832 128.044 761.832 131.313C761.832 134.582 759.192 137.222 755.924 137.222ZM755.924 127.227C753.661 127.227 751.776 129.05 751.776 131.376C751.776 133.702 753.598 135.525 755.924 135.525C758.25 135.525 760.072 133.702 760.072 131.376C760.072 129.05 758.187 127.227 755.924 127.227Z" fill="#E2E2E2"/>
<path d="M783.268 137.222C779.999 137.222 777.359 134.582 777.359 131.313C777.359 128.044 779.999 125.404 783.268 125.404C786.536 125.404 789.176 128.044 789.176 131.313C789.176 134.582 786.536 137.222 783.268 137.222ZM783.268 127.227C781.005 127.227 779.119 129.05 779.119 131.376C779.119 133.702 780.942 135.525 783.268 135.525C785.593 135.525 787.416 133.702 787.416 131.376C787.416 129.05 785.531 127.227 783.268 127.227Z" fill="#E2E2E2"/>
<path d="M806.774 137.222C803.505 137.222 800.865 134.582 800.865 131.313C800.865 128.044 803.505 125.404 806.774 125.404C810.042 125.404 812.682 128.044 812.682 131.313C812.682 134.582 810.042 137.222 806.774 137.222ZM806.774 127.227C804.511 127.227 802.625 129.05 802.625 131.376C802.625 133.702 804.448 135.525 806.774 135.525C809.099 135.525 810.922 133.702 810.922 131.376C810.922 129.05 809.036 127.227 806.774 127.227Z" fill="#E2E2E2"/>
<path d="M781.38 81.8428C781.192 81.8428 781.003 81.7171 780.94 81.5285L779.306 75.3683L777.169 80.397C777.106 80.5856 776.918 80.7113 776.666 80.6485C776.478 80.5856 776.289 80.4599 776.289 80.2713L775.535 71.9739L775.22 74.1111C775.158 74.2997 775.032 74.4883 774.78 74.4883H766.609V73.6082H774.341L775.158 68.3281C775.22 68.0766 775.346 67.9509 775.598 67.9509C775.849 67.9509 775.975 68.1395 776.038 68.3281L776.98 78.4484L778.929 73.8597C778.992 73.6711 779.18 73.6082 779.369 73.6082C779.557 73.6082 779.746 73.734 779.746 73.9225L781.255 79.4542L783.517 68.2652C783.58 68.0766 783.769 67.888 783.957 67.888C784.146 67.888 784.334 68.0766 784.397 68.2652L785.529 76.7512L786.66 73.8597C786.723 73.6711 786.911 73.6082 787.1 73.6082H798.917L800.362 68.2652C800.425 68.0766 800.614 67.888 800.865 67.9509C801.054 67.9509 801.242 68.1395 801.242 68.3909V77.5684L803.694 70.2767C803.757 70.0881 803.945 69.9624 804.134 69.9624C804.322 69.9624 804.511 70.151 804.511 70.3396L805.328 76.4998L806.334 72.7282C806.396 72.5396 806.585 72.4139 806.774 72.4139H824.436V73.2939H807.151L805.642 78.9513C805.579 79.1399 805.391 79.2656 805.202 79.2656C805.014 79.2656 804.825 79.077 804.762 78.8884L803.882 72.2882L801.179 80.3342C801.117 80.5228 800.928 80.6485 800.677 80.6485C800.488 80.5856 800.3 80.4599 800.3 80.2085V71.6596L799.608 74.174C799.545 74.3626 799.357 74.4883 799.168 74.4883H787.351L785.717 78.6998C785.654 78.8884 785.466 79.0141 785.277 78.9513C785.089 78.9513 784.9 78.7627 784.9 78.5741L783.894 71.031L781.757 81.4657C781.757 81.7171 781.569 81.8428 781.38 81.8428Z" fill="#79C6C4"/>
<path d="M787.101 97.5577C787.101 97.5577 787.038 97.5577 787.101 97.5577C786.849 97.4948 786.661 97.3063 786.661 97.1177V83.8544L785.969 86.5573C785.906 86.7459 785.718 86.8716 785.529 86.8716H775.221L773.587 91.5861C773.524 91.7746 773.335 91.9004 773.147 91.9004C772.958 91.9004 772.77 91.7118 772.77 91.5232L771.89 83.6029L770.758 87.2488C770.695 87.4374 770.507 87.5631 770.318 87.5631H765.479V86.683H770.004L771.701 81.34C771.764 81.1514 771.953 81.0257 772.141 81.0257C772.33 81.0257 772.518 81.2143 772.518 81.4029L773.398 89.5117L774.53 86.3059C774.592 86.1173 774.781 85.9916 774.97 85.9916H785.215L786.661 80.1457C786.723 79.9571 786.912 79.7685 787.163 79.8314C787.415 79.8314 787.541 80.0199 787.541 80.2714V93.9119L789.74 85.9916C789.803 85.803 789.992 85.6773 790.18 85.6773H801.746L808.785 85.4887L810.043 80.2085C810.105 80.0199 810.294 79.8314 810.483 79.8942C810.671 79.8942 810.86 80.0828 810.922 80.2714L811.865 89.6374L813.562 80.2714C813.625 80.0828 813.814 79.8942 814.002 79.8942C814.254 79.8942 814.38 80.0199 814.442 80.2714L815.637 87.3116L816.454 84.6087C816.517 84.4201 816.705 84.2944 816.894 84.2944H825.316V85.1744H817.271L816.014 89.3231C815.951 89.5117 815.762 89.6374 815.574 89.6374C815.385 89.6374 815.197 89.4488 815.134 89.2603L814.002 82.7858L812.18 92.7804C812.117 92.969 811.991 93.1575 811.74 93.1575C811.551 93.1575 811.362 92.969 811.3 92.7804L810.294 82.9115L809.54 85.9916C809.477 86.1802 809.351 86.3059 809.1 86.3059L801.683 86.5573H790.432L787.415 97.3063C787.478 97.432 787.289 97.5577 787.101 97.5577Z" fill="#79C6C4"/>
<path d="M729.462 99.9466C729.462 99.9466 725.188 99.9466 725.251 104.598C725.251 109.124 729.462 107.175 729.462 107.175V99.9466Z" fill="#2E4974"/>
<path d="M724.214 200.061L725.974 200.249C721.26 221.621 727.169 223.256 729.557 223.004C731.066 222.501 732.951 211.438 732.386 188.432C732.008 171.774 730.186 148.956 726.289 134.813C718.935 107.783 725.409 102.44 725.974 102L725.472 104.766L724.969 104.011L727.043 105.394C726.98 105.457 720.317 105.834 727.923 134.31C734.648 159.076 736.534 218.73 730.751 224.199C730.5 224.576 717.803 229.29 724.214 200.061Z" fill="#2E4974"/>
<path d="M565.916 393.751C565.916 393.751 866.361 418.957 922.051 401.231C952.975 401.231 959.135 392.053 954.735 392.053C950.335 392.053 581.944 370.115 565.916 393.751Z" fill="url(#paint0_linear)"/>
<path d="M673.71 353.835V360.247C673.71 360.247 685.339 357.733 685.339 363.076C685.339 367.287 678.047 366.973 674.968 366.596C674.15 366.533 673.27 366.47 672.453 366.47C670.191 366.407 665.728 365.967 665.414 363.076C664.974 359.178 667.174 353.835 667.174 353.835H673.71Z" fill="#01122C"/>
<path d="M616.827 357.544C616.827 357.544 624.747 365.779 624.81 370.745C624.81 375.711 618.147 374.83 615.696 370.745C612.301 364.71 611.484 356.098 611.484 356.098L616.827 357.544Z" fill="#01122C"/>
<path d="M636.249 183.738C636.249 183.738 659.191 185.498 678.676 183.738C678.676 183.738 684.396 335.229 682.196 349.812C679.996 364.395 662.774 355.972 662.774 355.972C662.774 355.972 656.174 285.318 664.974 257.912C663.654 242.008 625.69 338.309 626.13 354.652C626.57 370.996 609.976 359.052 608.908 359.052C603.251 359.052 616.827 259.232 622.17 242.888C627.387 226.545 636.249 183.738 636.249 183.738Z" fill="#4A154B"/>
<path d="M644.358 94.2891C644.358 94.2891 656.552 95.672 660.512 95.2948C664.472 94.9177 678.174 102.147 678.614 114.404C679.054 126.725 678.614 183.675 678.614 183.675C678.614 183.675 639.33 188.515 636.187 183.675C633.107 178.835 638.387 135.085 638.387 133.765C638.45 132.445 644.358 94.2891 644.358 94.2891Z" fill="#FED337"/>
<path d="M717.205 198.321C717.205 198.321 722.045 208.63 724.811 209.51C727.513 210.39 729.022 207.184 729.022 207.184C729.022 207.184 727.262 198.95 719.908 195.429C712.491 191.784 717.205 198.321 717.205 198.321Z" fill="#E58D5D"/>
<path d="M714.755 198.447L722.36 192.727C722.36 192.727 704.572 168.714 699.544 147.028C694.516 125.341 691.247 100.072 675.093 100.889C658.94 101.706 677.168 140.805 682.447 152.811C682.447 158.845 693.636 182.418 714.755 198.447Z" fill="#E2E2E2"/>
<path d="M604.193 270.861C604.193 270.861 628.518 198.887 629.838 185.184C631.158 171.481 632.478 148.537 629.838 144.954C627.198 141.434 621.416 114.153 624.118 111.01C626.758 107.867 640.209 93.4722 644.42 94.2893C648.632 95.1694 659.128 126.473 657.746 140.805C656.363 155.137 650.706 239.054 646.432 253.638C642.22 268.221 673.145 266.461 673.585 265.141C674.025 263.821 671.825 134.834 671.385 129.993C670.945 125.153 666.797 99.0667 660.574 95.358C664.094 95.6722 674.402 97.8723 679.493 107.301C684.584 116.73 682.51 160.92 683.327 167.08C684.145 173.241 685.464 250.118 686.784 253.638C688.104 257.158 686.784 282.365 686.784 282.365L604.193 270.861Z" fill="url(#paint1_linear)"/>
<path d="M648.004 192.727C648.004 192.727 656.553 192.727 658.627 198.447C660.701 204.167 649.324 200.773 645.176 195.555C641.027 190.338 645.176 188.264 645.176 188.264L648.004 192.727Z" fill="#FB9762"/>
<path d="M643.29 196.498L651.084 189.458C651.084 189.458 635.37 168.526 623.868 161.171C612.366 153.817 651.084 119.37 631.222 109.564C612.366 102.084 598.789 151.994 599.983 158.531C603.566 177.955 643.29 196.498 643.29 196.498Z" fill="#F1F1F1"/>
<path d="M644.357 94.2888C644.357 94.2888 648.569 86.5571 648.317 82.7855C648.003 79.014 656.111 82.5341 657.054 82.2826C658.06 81.9683 662.145 85.5513 662.145 85.5513C662.145 85.5513 657.368 90.9572 658.877 95.2945C653.974 96.8032 644.357 94.2888 644.357 94.2888Z" fill="#E58D5D"/>
<path d="M641.34 67.5112C641.34 67.5112 646.871 90.392 660.196 88.3177C668.87 87.0605 665.979 59.8424 665.727 58.9623C665.476 58.0823 643.351 60.1567 643.351 60.1567L641.34 67.5112Z" fill="#FB9762"/>
<path d="M647.438 54.3108C647.438 54.3108 655.357 46.0762 663.906 49.282C672.454 52.5507 673.46 62.5453 668.557 65.7512C663.654 69.0198 664.409 59.8424 658.877 60.7224C653.346 61.6024 648.632 68.957 648.632 68.957C648.632 68.957 644.421 67.5112 643.729 70.717C643.729 70.717 642.661 72.3514 645.804 75.4315C647.815 77.3801 646.746 80.7745 646.809 80.9631C646.872 81.1517 634.804 73.3571 637.13 63.0482C639.455 52.8021 647.438 54.3108 647.438 54.3108Z" fill="#662C30"/>
<path d="M725.439 208.944C727.66 208.944 729.461 207.143 729.461 204.921C729.461 202.7 727.66 200.899 725.439 200.899C723.217 200.899 721.416 202.7 721.416 204.921C721.416 207.143 723.217 208.944 725.439 208.944Z" fill="#2E4974"/>
<path d="M602.685 256.214H635.746V273.061H600.422L602.685 256.214Z" fill="#FB9762"/>
<path d="M561.012 273.061C561.012 273.061 539.767 269.729 547.687 238.362C556.235 220.259 570.44 232.831 570.44 250.054C570.44 252.003 607.524 248.546 607.524 248.546L609.284 275.261L561.012 273.061Z" fill="#E0E0E0"/>
<path d="M723.428 258.289C723.428 258.289 743.981 242.386 755.924 241.946C767.866 241.506 755.924 258.289 755.924 258.289H723.428Z" fill="#E58D5D"/>
<path d="M628.958 273.061C628.958 273.061 623.238 250.871 631.158 247.477C639.078 244.145 712.429 250.494 719.72 252.38C727.011 254.266 738.702 258.226 741.342 257.157C743.982 256.026 759.382 231.511 771.953 222.71C785.592 217.053 798.54 214.916 801.746 217.367C804.951 219.819 812.934 229.059 812.934 229.499C812.934 229.939 771.827 264.26 771.827 263.569C771.827 262.877 679.305 272.181 679.305 272.181L628.958 273.061Z" fill="url(#paint2_linear)"/>
<path d="M815.761 211.899C815.761 211.899 806.082 219.756 803.002 221.39C801.682 225.916 806.899 229.311 810.796 229.562C814.001 229.751 822.864 217.996 822.864 217.996L815.761 211.899Z" fill="#E58D5D"/>
<path d="M817.145 216.676C817.145 216.676 810.293 211.019 812.933 206.053C815.573 201.087 827.076 194.927 827.076 194.927C827.076 194.927 836.818 205.047 836.818 206.053C836.818 207.059 832.418 218.31 831.538 218.31C830.595 218.31 821.482 222.522 817.145 216.676Z" fill="#FB9762"/>
<path d="M824.563 196.309C823.494 195.932 831.539 186.755 839.711 189.898C844.739 192.538 848.51 197.126 845.807 202.407C843.105 207.687 829.654 222.333 831.477 218.247C832.482 216.047 836.442 200.961 824.563 196.309Z" fill="#EFEFEF"/>
<path d="M812.305 207.31C816.391 203.161 831.728 207.812 835.499 204.104C839.207 200.395 835.499 209.572 835.499 209.572C835.499 209.572 813.185 218.247 812.682 214.79C812.682 214.853 810.985 208.692 812.305 207.31Z" fill="#EFEFEF"/>
<path d="M712.24 266.02C712.24 266.02 719.217 259.608 742.348 258.288C771.261 259.42 768.369 253.825 770.569 252.442C772.769 250.997 778.301 267.969 778.301 267.969L712.24 266.02Z" fill="#FB9762"/>
<path d="M814.38 230.568C815.26 229.877 813.248 218.373 802.123 220.825C790.998 223.276 774.09 250.997 770.57 251.563C767.05 252.129 777.17 264.009 778.301 263.821C779.433 263.632 814.38 230.568 814.38 230.568Z" fill="url(#paint3_linear)"/>
<path d="M572.954 395.951C579.688 395.951 585.147 390.491 585.147 383.756C585.147 377.022 579.688 371.562 572.954 371.562C566.219 371.562 560.76 377.022 560.76 383.756C560.76 390.491 566.219 395.951 572.954 395.951Z" fill="#66ADAA"/>
<path d="M816.202 395.951C822.936 395.951 828.395 390.491 828.395 383.756C828.395 377.022 822.936 371.562 816.202 371.562C809.467 371.562 804.008 377.022 804.008 383.756C804.008 390.491 809.467 395.951 816.202 395.951Z" fill="#66ADAA"/>
<path d="M592.439 317.691H578.297V370.242H592.439V317.691Z" fill="#66ADAA"/>
<path d="M806.334 317.691H792.191V370.242H806.334V317.691Z" fill="#66ADAA"/>
<path d="M818.403 352.767H570.189V371.499H818.403V352.767Z" fill="#79C6C4"/>
<path d="M774.089 294.119L847.377 226.482C851.777 222.396 852.091 215.482 848.006 211.082C843.92 206.682 837.006 206.367 832.606 210.453L768.935 269.227H536.875V296.005H767.803L769.752 298.142L772.014 296.005H774.089V294.119Z" fill="#2E4974"/>
<path d="M846.561 230.002V293.49H544.355V250.369C544.355 247.289 541.904 244.837 538.824 244.837C535.744 244.837 533.293 247.289 533.293 250.369V293.49V314.422V319.891H861.897V300.782V293.49V230.002C861.897 225.728 858.44 222.271 854.166 222.271C850.018 222.271 846.561 225.728 846.561 230.002Z" fill="#79C6C4"/>
<path d="M661.327 296.004C661.327 296.004 664.218 276.581 676.035 275.261C687.851 273.941 846.56 275.261 846.56 275.261V265.958H671.949C671.949 265.958 653.533 267.718 651.521 296.004H661.327Z" fill="#90DEE0"/>
<path d="M579.679 412.483C579.679 412.483 431.405 407.894 472.889 416.694C514.436 425.558 760.387 447.81 779.432 437.187C802.939 423.609 821.293 406.008 695.395 402.614C691.812 402.614 522.922 394.254 447.245 398.968C369.116 413.363 572.263 401.231 579.679 412.483Z" fill="url(#paint4_linear)"/>
<path d="M433.416 396.58C433.416 396.58 448.879 400.1 447.999 404.06C447.119 408.02 423.674 404.06 423.234 404.06C422.794 404.06 424.994 396.58 424.994 396.58H433.416Z" fill="#01122C"/>
<path d="M466.101 405.82C466.101 405.82 463.021 414.243 466.101 415.123C469.181 416.003 490.866 418.203 491.306 415.123C491.746 412.043 486.906 412.294 479.804 411.289C472.764 410.283 481.124 396.58 479.804 396.58C478.484 396.58 466.101 405.82 466.101 405.82Z" fill="#01122C"/>
<path d="M418.96 311.343C418.96 311.343 415.566 380.865 422.229 398.968C430.651 408.272 446.239 393.374 446.239 393.374C446.239 393.374 444.039 369.676 446.239 361.693C448.439 353.71 452.839 324.606 453.279 323.286C453.719 321.903 418.96 311.343 418.96 311.343Z" fill="#49154A"/>
<path d="M459.187 320.017C458.872 319.577 451.267 380.111 462.015 405.883C471.443 413.112 486.466 401.232 486.466 401.232C486.466 401.232 486.34 339.755 489.734 321.212C489.923 317.063 459.187 320.017 459.187 320.017Z" fill="#49154A"/>
<path d="M492.75 0H579.615L572.135 81.8429L492.75 69.3339V0Z" fill="#2E4974"/>
<path d="M497.339 72.8539C493.379 77.4427 493.191 70.6539 493.191 70.6539C493.191 70.6539 486.151 53.4304 490.488 50.6646C493.694 48.6531 503.31 66.0651 497.339 72.8539Z" fill="#E58D5D"/>
<path d="M457.428 113.272C457.428 113.272 489.609 72.3507 489.609 67.9505C493.444 67.9505 500.483 71.8478 500.483 71.8478C500.483 71.8478 485.461 112.392 478.421 118.175C471.382 123.958 457.428 113.272 457.428 113.272Z" fill="#E2E2E2"/>
<path d="M415 321.463C415 321.463 448.879 350.944 492.123 325.863C496.523 316.434 498.597 197.504 497.717 196.75C496.837 195.996 492.877 124.462 489.609 122.073C480.495 106.735 454.976 108.81 447.056 111.45C439.136 114.09 429.394 122.01 427.634 139.234C427.634 149.543 432.348 195.556 431.782 205.865C422.668 221.454 415 321.463 415 321.463Z" fill="#EFEFEF"/>
<path d="M448.249 208.693L447.055 212.842C447.055 212.842 431.844 211.396 430.461 208.693C431.781 205.864 431.781 203.979 431.781 203.979C431.781 203.979 446.489 209.259 448.249 208.693Z" fill="#E0E0E0"/>
<path d="M456.484 209.887V214.036C456.484 214.036 494.826 218.813 493.946 211.585C497.466 202.47 491.872 212.779 456.484 209.887Z" fill="#E0E0E0"/>
<path d="M513.619 239.62C513.619 239.62 520.093 257.283 524.493 257.723C528.892 258.163 522.418 238.426 517.453 238.111C512.487 237.797 513.619 239.62 513.619 239.62Z" fill="#FB9762"/>
<path d="M509.534 242.072C509.534 242.072 522.168 238.74 521.917 236.666C521.665 234.591 506.329 215.922 504.254 184.115C504.254 143.32 502.809 120.942 489.672 122.136C476.535 123.33 478.61 172.486 478.61 172.486C478.61 172.486 489.484 220.134 509.534 242.072Z" fill="#E2E2E2"/>
<path d="M451.078 113.398C451.078 113.398 454.723 103.404 453.026 99.5065C451.329 95.6092 446.615 83.3516 446.615 83.3516C446.615 83.3516 448.815 74.7399 451.078 73.357C453.278 71.9741 457.678 70.5912 458.809 70.5912C459.94 70.5912 464.529 72.7912 464.529 72.7912C464.529 72.7912 473.831 96.7407 467.734 102.021C461.638 107.301 465.22 112.015 464.529 113.398C463.9 114.781 456.923 117.861 451.078 113.398Z" fill="#FB9762"/>
<path d="M444.667 93.3456C444.667 93.3456 453.969 104.409 457.3 100.386C460.632 96.3629 455.226 90.5798 455.226 90.5798C455.226 90.5798 451.078 90.2026 452.083 86.1168C454.409 84.1681 456.798 85.4253 456.798 85.4253C456.798 85.4253 457.678 82.2195 458.809 81.1509C459.94 80.0194 473.014 77.8193 471.631 70.5905C469.431 66.4418 457.74 59.2758 446.615 68.0133C435.49 76.6879 444.667 93.3456 444.667 93.3456Z" fill="#424242"/>
<path d="M523.718 17.2129C522.756 18.3444 518.966 18.3444 517.835 18.6839C516.59 19.0233 516.76 20.9469 516.76 20.9469C516.703 21.7389 521.851 21.5126 521.851 22.0784C521.851 22.1915 521.851 22.4178 521.908 22.6441C523.039 21.3429 523.548 18.6273 523.718 17.7221C523.718 17.5524 523.718 17.3827 523.718 17.2129Z" fill="#EFF5FC"/>
<path d="M542.783 18.2879C542.67 18.1182 542.557 18.0051 542.557 17.8353C542.217 16.4775 544.141 14.3843 544.367 12.6304C544.593 10.8766 541.708 9.34906 540.973 8.61358C540.181 7.8781 530.054 7.53865 527.452 7.76495C524.85 7.99125 523.605 10.5371 523.323 11.4423C522.983 12.3475 524.284 15.2895 523.945 16.7604C523.888 16.8736 523.832 16.9867 523.775 17.0999C523.775 17.2696 523.832 17.4393 523.775 17.5525C523.605 18.4011 523.04 21.1733 521.965 22.4745C522.135 23.21 522.587 24.2283 522.983 24.4546C523.492 24.7375 541.086 25.8124 542.161 25.6427C543.236 25.4164 543.858 24.3981 544.028 23.7192C544.028 23.6626 544.141 23.606 544.197 23.5494C543.688 22.0785 543.179 20.0418 542.953 19.1931C542.84 18.9668 542.783 18.6274 542.783 18.2879Z" fill="#B4DDFF"/>
<path d="M549.402 24.0587C550.647 24.1152 549.572 22.9837 549.572 21.6259C549.572 20.2681 548.101 20.7207 547.592 20.551C547.139 20.3813 543.802 19.4195 542.84 18.2314C542.84 18.5709 542.84 18.9103 542.953 19.1932C543.179 20.0418 543.688 22.0785 544.198 23.5495C544.99 23.2666 548.271 24.0021 549.402 24.0587Z" fill="#EFF5FC"/>
<path d="M522.415 36.0526C521.454 37.1841 517.663 37.1841 516.532 37.5236C515.287 37.863 515.457 39.7866 515.457 39.7866C515.4 40.5786 520.548 40.3523 520.548 40.9181C520.548 41.0312 520.548 41.2575 520.605 41.4838C521.736 40.1826 522.246 37.467 522.415 36.5618C522.472 36.3921 522.472 36.2789 522.415 36.0526Z" fill="#EFF5FC"/>
<path d="M541.537 37.1841C541.424 37.0144 541.311 36.9013 541.311 36.7315C540.971 35.3737 542.895 33.2805 543.121 31.5266C543.347 29.7728 540.462 28.2453 539.727 27.5098C538.935 26.7743 528.808 26.4349 526.206 26.6612C523.604 26.8875 522.359 29.4333 522.076 30.3385C521.737 31.2437 523.038 34.1857 522.699 35.6566C522.642 35.7698 522.586 35.8829 522.529 35.9961C522.529 36.1658 522.586 36.3355 522.529 36.4487C522.359 37.2973 521.794 40.0695 520.719 41.3707C520.888 42.1062 521.341 43.1245 521.737 43.3508C522.246 43.6337 539.84 44.7087 540.915 44.5389C541.989 44.3126 542.612 43.2943 542.781 42.6154C542.781 42.5588 542.895 42.5022 542.951 42.4456C542.442 40.9747 541.933 38.938 541.707 38.0893C541.537 37.863 541.537 37.5236 541.537 37.1841Z" fill="#B4DDFF"/>
<path d="M548.099 42.9549C549.344 43.0114 548.269 41.8799 548.269 40.5221C548.269 39.1643 546.798 39.6169 546.289 39.4472C545.837 39.2775 542.499 38.3157 541.537 37.1276C541.537 37.4671 541.537 37.8065 541.65 38.0894C541.877 38.938 542.386 40.9747 542.895 42.4457C543.687 42.1628 547.024 42.8983 548.099 42.9549Z" fill="#EFF5FC"/>
<path d="M521.624 55.3447C520.663 56.4762 516.872 56.4762 515.741 56.8156C514.496 57.1551 514.666 59.0787 514.666 59.0787C514.609 59.8707 519.757 59.6444 519.757 60.2102C519.757 60.3233 519.757 60.5496 519.814 60.7759C520.945 59.4747 521.454 56.7591 521.624 55.8539C521.681 55.6841 521.681 55.5144 521.624 55.3447Z" fill="#EFF5FC"/>
<path d="M540.689 56.4197C540.576 56.25 540.463 56.1368 540.463 55.9671C540.124 54.6093 542.047 52.516 542.273 50.7622C542.499 49.0084 539.614 47.4808 538.879 46.7454C538.087 46.0099 527.961 45.6704 525.358 45.8967C522.756 46.123 521.512 48.6689 521.229 49.5741C520.946 50.4793 522.191 53.4212 521.851 54.8922C521.795 55.0053 521.738 55.1185 521.681 55.2316C521.681 55.4014 521.738 55.5711 521.681 55.6842C521.512 56.5329 520.946 59.3051 519.871 60.6063C520.041 61.3418 520.493 62.3601 520.889 62.5864C521.399 62.8693 538.992 63.9442 540.067 63.7745C541.142 63.5482 541.764 62.5298 541.934 61.8509C541.934 61.7944 542.047 61.7378 542.104 61.6812C541.594 60.2103 541.085 58.1736 540.859 57.3249C540.746 57.1552 540.689 56.8157 540.689 56.4197Z" fill="#B4DDFF"/>
<path d="M547.308 62.2469C548.553 62.3035 547.478 61.172 547.478 59.8142C547.478 58.4564 546.007 58.909 545.498 58.7393C545.046 58.5696 541.708 57.6078 540.746 56.4197C540.746 56.7592 540.746 57.0986 540.859 57.3815C541.086 58.2301 541.595 60.2668 542.104 61.7378C542.896 61.3983 546.177 62.1904 547.308 62.2469Z" fill="#EFF5FC"/>
<defs>
<linearGradient id="paint0_linear" x1="565.945" y1="395.159" x2="956.015" y2="395.159" gradientUnits="userSpaceOnUse">
<stop offset="0.00396825" stop-color="#FCEFFF"/>
<stop offset="0.2807" stop-color="#EDE1F0"/>
<stop offset="0.6443" stop-color="#E1D6E4"/>
<stop offset="1" stop-color="#DDD2E0"/>
</linearGradient>
<linearGradient id="paint1_linear" x1="687.361" y1="188.28" x2="604.171" y2="188.28" gradientUnits="userSpaceOnUse">
<stop stop-color="#EFEFEF"/>
<stop offset="1" stop-color="#E2E2E2"/>
</linearGradient>
<linearGradient id="paint2_linear" x1="680.273" y1="181.211" x2="845.143" y2="237.228" gradientUnits="userSpaceOnUse">
<stop stop-color="#00BCF8"/>
<stop offset="1" stop-color="#015BA2"/>
</linearGradient>
<linearGradient id="paint3_linear" x1="782.653" y1="193.612" x2="826.388" y2="198.287" gradientUnits="userSpaceOnUse">
<stop stop-color="#00BCF8"/>
<stop offset="1" stop-color="#015BA2"/>
</linearGradient>
<linearGradient id="paint4_linear" x1="429.418" y1="418.798" x2="796.417" y2="418.798" gradientUnits="userSpaceOnUse">
<stop offset="0.00396825" stop-color="#FCEFFF"/>
<stop offset="0.2807" stop-color="#EDE1F0"/>
<stop offset="0.6443" stop-color="#E1D6E4"/>
<stop offset="1" stop-color="#DDD2E0"/>
</linearGradient>
</defs>
</svg>
