<svg width="710" height="400" viewBox="0 0 710 400" fill="none" xmlns="http://www.w3.org/2000/svg">
<path d="M686.49 160.33L690.775 142.217C690.775 109.248 672.263 81.1361 639.294 81.4789C639.294 81.4789 627.066 17.4843 623.581 15.7701C620.096 13.9988 606.725 29.7118 606.725 29.7118L605.582 110.562L599.183 111.134L597.412 64.6232H540.388L539.245 25.0836L503.762 25.655V153.016L485.707 153.587L486.278 51.1957L450.853 50.053L449.71 13.4275L432.168 0L417.655 13.3703L418.798 56.9667H407.77L407.199 76.1651L395.543 75.0223L394.4 13.9417C394.4 13.9417 378.116 26.7406 376.973 33.7115C375.83 40.6823 376.402 111.648 376.402 111.648L362.46 110.505V53.5384H347.947L347.375 18.0556C347.375 18.0556 341.547 12.7989 338.062 12.2276C334.577 11.6562 314.235 18.0556 314.235 18.0556L313.093 51.1957L296.808 50.6244L295.665 115.19L284.638 116.962L284.066 24.4551C284.066 24.4551 253.212 40.1681 250.355 43.6535C247.441 47.1389 248.584 64.5661 248.584 64.5661L222.986 65.1374V89.5925L222.872 158.844L686.49 160.33Z" fill="#E7E9E6"/>
<path d="M605.868 163.415C605.868 163.415 621.124 154.901 620.781 147.073C620.439 139.245 605.526 125.761 607.64 121.475C609.754 117.19 612.953 110.105 609.754 106.22C606.554 102.334 603.697 94.1635 598.726 94.8491C593.755 95.5348 589.47 104.791 586.67 103.763C583.813 102.677 579.585 100.906 577.071 103.42C574.557 105.934 579.185 117.99 576.385 118.333C573.528 118.676 565.357 122.961 563.929 130.046C562.501 137.131 564.272 151.702 568.214 157.073C572.1 162.386 605.868 163.415 605.868 163.415Z" fill="#ABAFD6"/>
<path d="M211.729 76.1653C210.3 69.7658 197.501 55.8813 189.159 58.3954C175.846 64.2806 174.76 53.9386 167.675 50.7389C160.59 47.5391 147.048 45.425 135.678 56.7955C125.221 67.4803 106.537 64.9662 107.223 83.8218C107.909 102.677 112.537 109.077 110.08 109.763C108.823 109.591 94.9955 106.391 95.6811 121.819C98.1952 137.474 101.166 144.217 111.508 151.473C118.993 156.787 156.99 153.759 158.419 152.73C159.847 151.645 196.073 150.216 201.044 148.445C206.015 146.674 210.643 138.846 212.757 128.904C214.871 118.962 211.729 76.1653 211.729 76.1653Z" fill="#ABAFD6"/>
<path d="M250.126 147.702C250.126 147.702 266.982 140.56 268.067 130.96C269.153 122.275 263.611 119.418 262.925 114.79C262.239 110.162 270.924 104.848 268.239 97.0203C266.982 93.3063 261.782 90.2209 257.954 89.4781C256.697 89.2495 256.011 87.8782 256.526 86.7355C258.64 82.2216 257.44 76.3935 254.869 74.1079C251.669 71.251 242.241 56.8522 230.185 55.8238C225.728 55.5952 219.329 60.6234 215.9 63.7088C214.529 64.9658 212.586 65.423 210.815 64.9087C208.015 64.1088 203.216 63.7088 198.302 67.937C192.702 71.9938 190.245 80.9645 193.388 86.1069C194.245 87.5354 193.445 89.421 191.845 89.8209C178.589 93.2492 174.132 101.763 174.132 109.191C174.132 117.361 182.532 137.988 189.274 140.102C196.016 142.217 192.474 148.73 196.359 148.73C200.245 148.73 204.187 154.044 203.444 159.415C202.701 164.786 220.871 161.301 220.871 161.301L250.126 147.702Z" fill="#9A9BC6"/>
<path d="M192.874 162.729C191.789 162.044 111.11 164.158 111.11 164.158C111.11 164.158 102.196 147.816 126.365 146.388C126.023 135.017 136.307 125.761 148.421 127.189C160.477 128.618 164.077 136.446 167.619 141.417C171.505 138.56 172.247 131.818 189.274 137.531C206.302 143.245 210.301 147.416 209.216 154.216C208.187 160.958 192.874 162.729 192.874 162.729Z" fill="#8688B2"/>
<path d="M111.624 158.73H654.893V199.469H84.1401C84.1401 199.526 42.4293 175.585 111.624 158.73Z" fill="#DDD2E0"/>
<path d="M209.729 159.872C210.186 157.358 210.701 154.33 211.386 153.358C213.729 149.816 217.557 143.188 221.557 142.445C221.9 142.388 222.643 142.331 223.671 142.274C234.242 141.817 276.524 142.445 276.524 142.445C276.524 142.445 276.695 142.502 276.981 142.616C277.609 142.616 277.895 142.616 277.895 142.616C277.895 142.616 287.837 146.159 297.322 155.872C298.636 156.215 299.95 156.558 301.15 156.901C305.036 157.872 306.521 158.901 308.121 159.301L211.043 160.044C211.043 159.986 211.043 159.929 211.101 159.872H209.729Z" fill="#F6F7F5"/>
<path d="M215.274 23.1978H178.819L173.677 17.484H169.963C169.963 17.484 172.82 23.3693 173.506 23.5407C174.191 23.7121 168.192 23.8835 168.535 25.1405C168.877 26.3976 176.362 25.7119 176.362 25.7119C176.362 25.7119 182.933 29.4259 183.676 29.2545C184.362 29.0831 191.333 29.5973 191.333 29.5973L189.39 31.3686C189.39 31.3686 193.675 32.797 195.104 32.2828C196.532 31.7686 199.561 30.1687 199.561 30.1687C199.561 30.1687 214.131 29.2545 217.331 27.3118C220.416 25.3691 215.274 23.1978 215.274 23.1978Z" fill="#E7E9E6"/>
<path d="M304.865 158.673C305.037 158.73 305.151 158.73 305.322 158.787V176.043H284.524V158.844L304.865 158.673Z" fill="#015BA2"/>
<path d="M320.351 162.387C320.351 162.387 320.751 162.501 321.322 162.729V176.1H305.266V158.273C314.923 160.787 320.351 162.387 320.351 162.387Z" fill="#FED337"/>
<path d="M328.636 169.472C328.864 170.443 328.979 173.243 328.979 176.043H321.322V162.672C323.208 163.415 327.207 165.358 328.636 169.472Z" fill="#015BA2"/>
<path d="M284.523 158.901V176.042H263.725V158.901C263.725 158.901 284.352 158.901 284.523 158.901Z" fill="#FED337"/>
<path d="M263.896 158.844V176.042H243.098V158.901C243.098 158.901 263.725 158.844 263.896 158.844Z" fill="#015BA2"/>
<path d="M243.27 159.015V176.442H222.471V159.244L243.27 159.015Z" fill="#FED337"/>
<path d="M222.471 159.244V176.442L208.5 176.442L209.5 159.244C209.5 159.244 222.356 159.187 222.471 159.244Z" fill="#015BA2"/>
<path d="M292.408 158.787L269.21 158.901V146.902C269.21 146.902 276.067 145.931 280.809 148.331C285.552 150.73 292.408 158.787 292.408 158.787Z" fill="#A0D6D8"/>
<path d="M265.611 146.959V158.958L240.985 159.015V146.959H265.611Z" fill="#A0D6D8"/>
<path d="M237.213 147.359V159.073L215.443 159.301C215.443 159.301 214.986 148.902 219.957 147.245L237.213 147.359Z" fill="#A0D6D8"/>
<path d="M567.527 157.816C569.07 157.816 570.556 158.101 571.927 158.673L574.612 153.187L570.727 148.331C570.556 148.102 570.499 147.874 570.613 147.588C570.727 147.359 570.956 147.188 571.184 147.188L579.126 146.559C579.526 146.502 579.869 146.845 579.869 147.188C579.926 147.588 579.583 147.931 579.241 147.931L572.67 148.445L575.984 152.559C576.155 152.788 576.212 153.073 576.041 153.302L574.955 155.587H593.754L593.811 153.759C591.868 153.759 590.325 153.245 590.325 152.616C590.325 151.988 591.811 152.216 593.639 151.645C597.296 150.445 597.296 151.988 597.296 152.616C597.296 153.187 596.039 153.645 594.439 153.759L594.382 155.702L597.753 159.987C599.639 158.73 601.924 157.987 604.324 157.987C610.895 157.987 616.209 163.301 616.209 169.872C616.209 176.443 610.895 181.757 604.324 181.757C597.753 181.757 592.44 176.443 592.44 169.872C592.44 169.643 592.44 169.415 592.497 169.186L590.268 169.358L588.44 169.643L573.87 157.759L573.184 159.13C576.841 161.13 579.355 165.015 579.355 169.529C579.355 176.1 574.041 181.414 567.47 181.414C560.899 181.414 555.585 176.1 555.585 169.529C555.7 163.13 561.014 157.816 567.527 157.816ZM595.354 169.929C595.354 174.9 599.41 178.957 604.381 178.957C609.352 178.957 613.409 174.9 613.409 169.929C613.409 164.958 609.352 160.901 604.381 160.901C602.61 160.901 600.953 161.415 599.582 162.272L603.867 167.701C603.924 167.701 604.039 167.701 604.153 167.701C605.124 167.701 605.981 168.501 605.981 169.529C605.981 170.557 605.181 171.357 604.153 171.357C603.124 171.357 602.324 170.557 602.324 169.529C602.324 169.129 602.496 168.729 602.724 168.386L595.354 169.015C595.354 169.3 595.354 169.586 595.354 169.929ZM595.525 168.043L602.439 167.415L598.725 162.844C597.125 164.158 595.982 165.986 595.525 168.043ZM592.668 168.329C593.068 165.244 594.668 162.558 596.953 160.673L594.039 157.13L590.783 168.5L592.668 168.329ZM588.783 168.729L589.583 168.615L593.068 156.616H574.67L574.498 157.073L588.783 168.729ZM567.527 178.671C572.498 178.671 576.555 174.614 576.555 169.643C576.555 166.272 574.727 163.358 571.984 161.815L568.613 168.672C568.956 169.015 569.127 169.472 569.127 169.929C569.127 170.9 568.327 171.757 567.299 171.757C566.327 171.757 565.47 170.957 565.47 169.929C565.47 168.958 566.27 168.158 567.242 168.101L570.613 161.13C569.641 160.73 568.556 160.558 567.413 160.558C562.442 160.558 558.385 164.615 558.385 169.586C558.5 174.614 562.556 178.671 567.527 178.671Z" fill="#454245"/>
<path d="M590.098 165.129C590.155 165.415 591.012 166.158 590.726 166.558C590.441 166.958 587.184 167.815 587.184 167.815C587.184 167.815 587.241 166.558 587.755 165.929C588.212 165.301 579.013 156.444 579.299 154.045C579.527 151.702 589.584 147.131 589.584 147.131L595.24 148.445L586.041 158.159C585.984 158.216 589.755 163.472 590.098 165.129Z" fill="#525672"/>
<path d="M587.755 170.9C587.755 170.9 588.212 171.986 587.698 172.557C587.126 173.129 585.241 173.643 585.526 174.443C585.755 175.243 589.583 173.586 590.326 173.014C591.012 172.443 590.897 171.357 590.155 171.129C589.469 170.9 589.069 170.843 588.955 170.215C588.84 169.586 587.755 170.9 587.755 170.9Z" fill="#424143"/>
<path d="M597.468 147.017C598.953 150.445 589.068 156.901 587.64 158.273C588.497 161.244 589.697 168.958 589.468 170.043C589.24 171.129 587.126 170.729 587.126 170.729C587.126 170.729 581.64 158.33 582.326 156.73C583.583 153.302 589.925 146.502 589.925 146.502C589.925 146.502 596.725 145.302 597.468 147.017Z" fill="#525672"/>
<path d="M586.955 138.789C586.955 138.789 581.641 145.131 577.355 145.531C573.07 145.931 573.927 147.702 573.927 147.702L577.698 147.131C577.698 147.131 586.44 146.559 588.383 141.246C590.326 135.932 586.955 138.789 586.955 138.789Z" fill="#FC9A67"/>
<path d="M586.782 126.561C586.782 126.561 586.554 130.504 587.182 130.904C587.811 131.304 589.296 130.732 589.296 130.732C589.296 130.732 589.925 131.761 589.754 132.446C589.582 133.132 589.354 133.761 589.354 133.761L592.039 131.646C592.039 131.646 590.211 130.104 590.496 129.589C590.725 129.132 591.182 126.618 591.182 126.618C591.182 126.618 589.525 125.361 589.239 125.304C588.954 125.247 587.068 125.018 587.068 125.018L586.782 126.561Z" fill="#FC9A67"/>
<path d="M589.01 134.103L586.324 137.703C586.324 137.703 587.524 140.674 588.381 141.303C589.238 141.931 588.553 146.617 588.553 146.617C588.553 146.617 596.152 149.074 598.266 146.674C600.38 144.331 594.095 131.761 592.838 131.304C591.581 130.847 591.295 132.389 589.524 133.132C589.353 133.361 589.01 134.103 589.01 134.103Z" fill="#84859C"/>
<path d="M588.269 122.561C588.269 122.561 585.355 122.961 585.355 124.618C585.355 126.275 586.555 126.961 587.184 126.675C587.812 126.39 588.669 125.761 589.012 126.047C589.298 126.333 588.955 126.961 589.184 127.361C589.412 127.761 589.984 126.904 590.441 127.075C590.898 127.247 589.641 128.504 590.041 128.904C590.441 129.304 591.069 129.19 591.069 129.19C591.069 129.19 593.983 127.761 593.183 126.104C592.383 124.447 592.155 124.676 591.241 124.39C590.269 124.047 589.412 122.447 588.269 122.561Z" fill="#454245"/>
<path d="M323.436 164.729C323.436 164.729 321.551 168.272 323.436 169.929C325.322 171.586 328.636 171.357 328.636 171.357C328.636 171.357 329.607 165.186 323.436 164.729Z" fill="#E7E9E6"/>
<path d="M271.268 167.243H278.125C278.639 167.243 279.039 166.843 279.039 166.329V165.872C279.039 165.358 278.639 164.958 278.125 164.958H271.268C270.754 164.958 270.354 165.358 270.354 165.872V166.329C270.354 166.843 270.811 167.243 271.268 167.243Z" fill="#014880"/>
<path d="M247.155 167.529H254.012C254.526 167.529 254.926 167.129 254.926 166.615V166.158C254.926 165.643 254.526 165.243 254.012 165.243H247.155C246.641 165.243 246.241 165.643 246.241 166.158V166.615C246.184 167.129 246.641 167.529 247.155 167.529Z" fill="#014880"/>
<path d="M505.877 114.448L381.316 114.276C372.402 114.276 365.203 121.476 365.317 130.389L365.66 182.042H482.907L508.505 181.585H539.303V165.7C539.303 165.7 539.303 161.187 533.589 159.301C527.875 157.415 523.875 156.616 523.875 156.616L522.561 139.931L521.761 129.246C521.19 120.904 514.219 114.448 505.877 114.448Z" fill="#E01E5A"/>
<path d="M539.531 174.214H364.689V182.042H539.303L539.531 174.214Z" fill="#454245"/>
<path d="M519.647 169.7C528.389 169.7 531.475 177.528 530.561 181.756L508.505 181.528C508.505 181.585 508.505 169.471 519.647 169.7Z" fill="#454245"/>
<path d="M416.57 182.042C416.57 182.042 417.027 170.443 405.199 169.7C393.372 169.015 391.429 181.928 391.429 181.928L416.57 182.042Z" fill="#454245"/>
<path d="M539.302 166.843C539.302 166.843 533.874 165.872 534.102 169.7C534.331 173.529 539.416 172.214 539.416 172.214L539.302 166.843Z" fill="#FFA100"/>
<path d="M513.191 142.674V155.759L394.23 155.873V142.788L513.191 142.674Z" fill="#A0D6D8"/>
<path d="M388.115 138.331H378.401C377.201 138.331 376.173 139.302 376.173 140.559V174.042C376.173 175.242 377.144 176.271 378.401 176.271H388.858C390.115 176.271 391.086 175.242 391.086 173.985L390.343 140.502C390.343 139.302 389.372 138.331 388.115 138.331Z" fill="#9E1B2E"/>
<path d="M522.617 140.96C522.617 140.96 520.046 139.531 519.075 140.503C518.389 141.188 516.447 146.959 515.875 150.33C515.589 151.816 517.132 155.016 518.389 155.816C519.818 156.73 523.303 156.787 524.16 156.558L522.617 140.96Z" fill="#A0D6D8"/>
<path d="M404.341 191.127C399.229 191.127 395.085 186.982 395.085 181.87C395.085 176.758 399.229 172.614 404.341 172.614C409.453 172.614 413.598 176.758 413.598 181.87C413.598 186.982 409.453 191.127 404.341 191.127Z" fill="#353435"/>
<path d="M404.684 187.813C401.623 187.813 399.142 185.331 399.142 182.27C399.142 179.209 401.623 176.728 404.684 176.728C407.745 176.728 410.227 179.209 410.227 182.27C410.227 185.331 407.745 187.813 404.684 187.813Z" fill="#767587"/>
<path d="M519.533 191.127C514.421 191.127 510.276 186.982 510.276 181.87C510.276 176.758 514.421 172.614 519.533 172.614C524.645 172.614 528.789 176.758 528.789 181.87C528.789 186.982 524.645 191.127 519.533 191.127Z" fill="#353435"/>
<path d="M519.932 187.813C516.871 187.813 514.39 185.331 514.39 182.27C514.39 179.209 516.871 176.728 519.932 176.728C522.993 176.728 525.475 179.209 525.475 182.27C525.475 185.331 522.993 187.813 519.932 187.813Z" fill="#767587"/>
<path d="M487.878 155.872L487.992 142.616H485.821L485.764 155.872H487.878Z" fill="#E01E5A"/>
<path d="M465.652 158.558L465.709 141.874H463.595L463.538 158.558H465.652Z" fill="#E01E5A"/>
<path d="M442.796 156.101L442.854 142.845H440.739L440.625 156.101H442.796Z" fill="#E01E5A"/>
<path d="M418.511 155.644L418.568 142.388H416.454L416.34 155.644H418.511Z" fill="#E01E5A"/>
<path d="M512.904 129.76V136.617H376.401V130.503C376.401 126.675 379.544 123.532 383.372 123.532L506.676 123.475C510.105 123.475 512.904 126.275 512.904 129.76Z" fill="#A0D6D8"/>
<path d="M440.855 136.675L442.969 136.903V123.361L440.855 123.419V136.675Z" fill="#E01E5A"/>
<path d="M463.536 123.418H465.65V136.674H463.536V123.418Z" fill="#E01E5A"/>
<path d="M485.706 123.418H487.82V136.674H485.706V123.418Z" fill="#E01E5A"/>
<path d="M418.855 136.731L418.912 123.475L416.798 123.418L416.741 136.731H418.855Z" fill="#E01E5A"/>
<path d="M394.171 136.788L394.229 123.475H392.114L392 136.788H394.171Z" fill="#E01E5A"/>
<path d="M395.828 284.605C395.828 284.605 367.202 298.832 339.49 299.518C311.778 300.204 232.185 304.489 223.614 287.462C215.1 270.378 323.948 278.034 330.405 278.034C337.376 278.034 395.085 282.491 395.828 284.605Z" fill="url(#paint0_linear)"/>
<path d="M395.829 279.634C395.829 279.634 390.858 283.177 391.715 284.776C392.629 286.376 398.629 282.834 398.457 281.405C398.286 280.034 395.829 279.634 395.829 279.634Z" fill="#022043"/>
<path d="M390.687 269.692C390.687 269.692 394.972 270.949 395.829 279.634C396.287 284.205 393.544 280.72 393.544 280.72L387.487 270.949L390.687 269.692Z" fill="#FD9968"/>
<path d="M370.745 283.005C370.231 282.834 364.86 281.748 365.032 284.262C365.203 286.776 370.345 286.548 370.917 284.605C371.488 282.662 370.745 283.005 370.745 283.005Z" fill="#022043"/>
<path d="M373.09 271.292C373.09 271.292 374.69 277.691 370.804 283.005C368.519 285.519 368.519 282.319 368.519 282.319L369.604 270.435C369.547 270.435 372.518 269.006 373.09 271.292Z" fill="#EF8852"/>
<path d="M392.973 268.263L387.087 271.806C387.087 271.806 377.66 261.521 377.317 253.35C376.974 245.18 375.546 272.72 375.546 272.72L366.461 272.377C366.461 272.377 365.946 240.037 368.232 236.152C370.517 232.266 384.916 230.838 386.345 237.752C387.773 244.665 386.345 257.464 386.345 257.464C386.345 257.464 392.63 266.664 392.973 268.263Z" fill="#2EB67D"/>
<path d="M395.316 224.039C395.316 224.039 399.43 229.352 400.801 235.58C402.23 241.809 405.258 240.894 402.744 242.323C400.23 243.751 398.63 237.523 398.63 237.523L390.973 225.067C391.03 225.124 392.973 222.439 395.316 224.039Z" fill="#FD9968"/>
<path d="M364.005 224.724C364.005 224.724 354.406 233.809 352.463 234.838C350.52 235.923 349.606 238.723 348.92 237.866C348.235 237.009 346.406 234.666 347.321 234.323C348.235 233.981 350.52 233.066 350.52 233.066C350.52 233.066 357.263 223.124 361.548 221.867C365.833 220.61 364.005 224.724 364.005 224.724Z" fill="#EF8852"/>
<path d="M396.915 222.439C396.915 222.439 389.087 210.725 380.916 210.554C372.746 210.383 361.032 217.125 360.29 218.725C359.604 220.325 362.575 226.724 362.575 226.724L367.717 225.638L367.032 237.352C367.032 237.352 387.659 239.866 389.43 238.266C391.201 236.666 389.944 227.41 389.944 227.41C389.944 227.41 396.686 226.895 397.429 225.296C398.172 223.696 396.915 222.439 396.915 222.439Z" fill="#E0E0E0"/>
<path d="M379.831 212.668C379.831 212.668 374.86 214.782 373.603 213.354C375.031 211.24 373.431 208.211 373.431 208.211C373.431 208.211 370.574 207.697 370.232 205.926C369.889 204.154 370.575 198.269 370.575 198.269C370.575 198.269 376.288 195.984 378.231 197.926C380.174 199.869 381.088 203.64 381.088 203.64L379.488 208.44C379.488 208.383 379.831 211.582 379.831 212.668Z" fill="#FD9968"/>
<path d="M384.975 195.755C384.975 195.755 386.746 192.213 384.803 191.47C382.861 190.784 381.089 191.47 380.689 192.155C380.289 192.841 378.004 187.87 374.461 188.27C370.919 188.67 371.09 192.727 371.09 192.727C371.09 192.727 367.376 193.812 367.548 196.441C367.719 199.126 370.404 200.555 371.433 199.983C372.461 199.412 377.49 198.041 377.832 199.069C378.175 200.098 378.175 203.183 378.175 203.183C378.175 203.183 380.118 201.755 380.118 203.183C380.118 204.612 378.861 205.297 378.861 205.297C378.861 205.297 379.775 208.154 381.375 207.411C382.975 206.726 388.46 204.554 387.603 200.326C386.746 196.155 384.975 195.755 384.975 195.755Z" fill="#022042"/>
<path d="M338.407 280.891C338.407 280.891 333.608 285.348 335.208 287.119C336.808 288.89 340.922 285.519 340.179 283.405C339.436 281.291 338.407 280.891 338.407 280.891Z" fill="#022043"/>
<path d="M311.037 283.919C311.037 283.919 311.208 286.033 309.951 286.605C308.694 287.119 303.038 287.29 303.381 285.348C303.723 283.405 305.895 283.234 307.266 283.062C308.752 282.834 311.037 283.919 311.037 283.919Z" fill="#022043"/>
<path d="M324.922 257.064C324.922 257.064 325.093 265.578 326.693 268.263C328.293 270.949 336.292 284.091 337.378 283.748C338.463 283.405 338.978 282.319 338.463 280.891C337.549 278.205 337.549 274.149 336.178 272.206C335.264 270.949 331.893 265.635 331.893 265.635C331.893 265.635 332.978 261.178 331.721 257.636C330.407 254.036 324.922 257.064 324.922 257.064Z" fill="#FD9968"/>
<path d="M317.607 259.064C317.607 259.064 312.636 266.721 312.122 267.064C311.608 267.406 314.636 269.349 313.551 273.977C312.465 278.605 310.179 283.919 309.437 284.091C308.694 284.262 307.151 283.919 307.151 283.919C307.151 283.919 307.494 266.149 307.837 265.064C308.18 263.978 309.265 259.578 311.722 256.55C314.236 253.522 317.607 259.064 317.607 259.064Z" fill="#EF8852"/>
<path d="M331.15 234.895C331.15 234.895 335.036 240.78 335.607 248.379C336.121 256.036 334.007 259.75 334.007 259.75L323.894 260.264C323.894 260.264 321.951 255.122 322.122 253.865C322.294 252.608 321.208 260.093 320.351 260.264C319.437 260.436 308.066 258.15 308.066 258.15C308.066 258.15 311.437 238.78 314.637 234.895C317.837 231.009 331.15 234.895 331.15 234.895Z" fill="#4A154B"/>
<path d="M341.263 228.095L347.32 233.581C347.32 233.581 349.834 233.066 351.034 234.495C352.291 235.923 352.291 238.38 351.034 239.123C349.777 239.809 347.491 240.723 346.577 239.637C345.663 238.552 345.491 235.923 345.491 235.923C345.491 235.923 340.863 232.038 340.178 230.952C339.492 229.867 341.263 228.095 341.263 228.095Z" fill="#EF8852"/>
<path d="M307.838 233.066C307.666 233.581 303.038 241.58 301.781 242.323C300.524 243.008 300.696 245.18 299.096 245.522C297.496 245.865 296.067 242.323 298.582 240.38C301.096 238.437 300.696 233.981 303.381 231.295C306.067 228.667 307.838 233.066 307.838 233.066Z" fill="#EF8852"/>
<path d="M345.205 225.81C344.691 225.981 341.091 232.724 339.32 232.895C337.549 233.066 333.435 228.438 333.435 228.438C333.435 228.438 333.777 233.238 332.92 235.18C332.006 237.123 312.465 236.952 311.779 235.695C311.094 234.438 311.436 230.895 311.436 230.895C311.436 230.895 309.837 234.609 308.751 235.18C307.665 235.695 301.437 230.209 301.437 230.209C301.437 230.209 306.923 215.468 315.322 213.125C323.721 210.783 330.235 212.04 330.806 212.44C334.006 214.097 345.205 225.81 345.205 225.81Z" fill="#963298"/>
<path d="M324.408 207.697C324.408 207.697 324.236 213.182 325.836 213.925C327.436 214.611 319.608 215.525 318.522 214.439C320.294 212.668 319.951 210.725 319.437 209.983C318.922 209.297 317.322 209.811 316.408 208.554C315.494 207.297 314.123 200.041 314.808 199.126C315.494 198.212 321.036 197.184 323.151 198.612C325.265 200.041 326.007 204.097 326.007 204.669C326.007 205.24 324.408 207.697 324.408 207.697Z" fill="#FD9968"/>
<path d="M319.437 200.555C319.437 200.555 313.38 203.069 312.694 201.069C312.009 199.069 317.323 193.413 320.008 192.898C322.693 192.384 325.893 193.07 326.75 195.755C327.664 198.441 329.264 202.498 328.179 204.44C327.093 206.383 323.551 207.983 323.379 206.954C323.208 205.869 324.293 205.697 324.636 204.84C324.979 203.983 323.951 202.326 323.379 202.555C322.865 202.726 323.551 199.869 321.779 199.869C319.951 199.869 319.437 200.555 319.437 200.555Z" fill="#662D2F"/>
<path d="M544.045 382.025C544.045 382.025 538.331 393.396 490.735 397.681C443.825 397.681 338.633 406.195 320.864 390.596C303.094 374.997 333.662 374.255 352.861 371.398C372.059 368.541 475.651 368.541 480.107 366.427C484.564 364.313 487.935 375.683 477.993 382.768C488.678 389.853 525.589 383.454 537.188 377.969C542.959 378.997 544.045 382.025 544.045 382.025Z" fill="url(#paint1_linear)"/>
<path d="M537.074 369.226C537.074 369.226 542.959 375.969 542.959 378.997C542.959 382.025 532.674 384.311 531.931 382.539C531.189 380.768 537.074 377.911 537.074 377.911L533.188 368.141L537.074 369.226Z" fill="#022043"/>
<path d="M484.506 364.256C484.506 364.256 485.192 370.655 483.592 371.912C481.992 373.169 470.107 374.598 470.622 372.084C471.136 369.569 479.878 368.712 479.878 368.712L481.821 361.627L484.506 364.256Z" fill="#022043"/>
<path d="M525.704 280.719C525.704 280.719 536.388 302.603 531.417 327.63C543.474 348.942 541.188 368.483 540.674 369.74C540.16 370.997 531.589 371.34 531.589 371.34C531.589 371.34 520.904 336.486 520.904 334.886C520.904 333.286 511.476 310.374 509.705 308.431C508.619 308.774 500.62 319.802 497.249 327.801C500.277 353.57 488.735 366.198 487.135 366.883C485.535 367.569 478.965 364.027 478.965 364.027C478.965 364.027 484.05 333.172 484.45 326.544C484.05 321.344 494.392 280.319 500.963 278.205C507.591 276.091 525.704 280.719 525.704 280.719Z" fill="#454245"/>
<path d="M473.995 214.097C473.995 214.097 477.537 203.983 474.166 203.412C470.795 202.898 471.652 212.84 472.052 214.782C472.452 216.725 474.566 216.554 474.566 216.554L473.995 214.097Z" fill="#EF8852"/>
<path d="M494.45 253.865C483.993 253.865 463.366 233.238 469.766 213.697C470.509 212.325 474.051 212.44 475.994 213.183C477.937 234.666 495.192 242.837 495.535 243.409L494.45 253.865Z" fill="url(#paint2_linear)"/>
<path d="M530.331 242.894C530.331 242.894 526.218 235.581 509.533 236.838C492.849 238.095 492.449 246.265 492.449 246.265C492.449 246.265 494.734 262.435 498.163 268.149C501.02 275.234 498.848 279.52 499.42 280.777C499.934 282.034 522.903 287.862 526.103 281.862C525.189 276.606 533.188 246.951 530.331 242.894Z" fill="url(#paint3_linear)"/>
<path d="M511.134 232.038C511.134 232.038 511.648 237.352 513.248 238.951C514.848 240.551 511.134 243.408 508.105 243.237C505.077 243.065 505.249 240.551 505.249 240.551C505.249 240.551 504.734 232.381 505.42 231.124C506.106 229.866 511.134 232.038 511.134 232.038Z" fill="#EF8852"/>
<path d="M513.477 228.667C513.305 229.752 512.048 233.638 510.105 235.066C508.163 236.495 504.62 234.723 503.877 233.981C503.135 233.238 497.306 224.21 501.02 221.01C504.734 217.81 512.22 222.782 512.22 222.782L513.477 228.667Z" fill="#FD9968"/>
<path d="M509.534 222.781C509.534 222.781 499.078 224.552 497.649 220.667C496.221 216.782 501.763 214.268 506.163 216.21C510.62 218.153 512.391 217.467 513.648 219.581C514.905 221.696 516.505 222.267 515.762 225.981C515.076 229.695 512.048 230.438 512.048 230.438L511.134 229.923C511.134 229.923 513.077 228.838 512.048 227.067C511.02 225.295 509.934 226.552 509.934 226.552L509.534 222.781Z" fill="#662D2F"/>
<path d="M493.535 230.095C493.535 230.095 492.849 220.324 489.078 221.924C485.307 223.524 491.364 231.523 492.107 232.209C492.849 232.895 493.535 230.095 493.535 230.095Z" fill="#FD9968"/>
<path d="M515.762 246.608C515.762 246.608 496.049 233.123 494.963 227.581C492.449 228.267 490.164 232.552 490.164 232.552C490.164 232.552 503.306 259.407 521.075 259.235C530.332 256.55 533.874 244.837 529.589 240.78C524.847 237.18 515.762 246.608 515.762 246.608Z" fill="#FED337"/>
<path d="M394.915 336.143C394.915 336.143 406.457 331.515 403.6 323.173C400.057 319.802 397.715 331.344 396.115 331.515C394.515 331.687 389.03 332.772 389.03 332.772C389.03 332.772 392.63 335.972 394.915 336.143Z" fill="#662D2F"/>
<path d="M410.914 332.601C411.028 332.03 410.399 331.001 406.285 332.944C402.172 334.887 400.572 337.401 398.629 337.229C396.686 337.058 390.801 331.001 390.458 328.544C390.115 326.087 384.573 325.516 383.544 325.687C382.459 325.859 376.802 331.573 375.202 336.715C373.602 341.857 368.117 348.771 363.318 348.771C358.518 348.771 350.519 353.399 349.833 355.342C349.147 357.285 345.548 353.399 346.462 347.171C347.376 340.943 341.491 349.457 342.748 354.999C344.176 358.199 345.776 359.627 349.662 360.713C348.062 363.741 351.261 371.569 353.947 374.026C356.632 376.54 352.176 379.969 354.29 383.968C356.061 387.339 357.318 389.282 358.175 387.511C359.089 385.74 357.49 379.169 358.518 377.226C359.546 375.283 366.003 368.141 366.003 364.256C366.003 360.37 382.173 362.827 389.087 346.143C390.115 342.029 407.714 345.057 410.914 332.601Z" fill="#77444C"/>
<path d="M393.715 318.202C393.715 318.202 396.229 320.888 394.058 323.516C391.887 326.144 387.144 331.687 384.459 331.515C381.773 331.344 378.973 328.487 378.973 328.487C378.973 328.487 370.974 329.916 371.317 324.945C371.317 321.745 377.545 324.03 377.545 324.03C377.545 324.03 381.088 318.145 383.03 317.631C384.973 317.117 377.945 312.603 379.659 311.06C381.316 309.574 384.402 311.689 385.544 314.774C386.23 316.66 386.059 318.888 386.059 318.888C386.059 318.888 389.258 319.974 389.601 319.231C389.944 318.488 391.887 316.602 393.715 318.202Z" fill="#662D2F"/>
<path d="M209.217 368.884C209.217 368.884 224.473 368.884 228.758 376.711C233.043 384.539 133.851 396.253 106.882 395.167C79.856 394.081 6.31929 403.338 0.26265 386.996C-5.79399 370.655 94.8261 366.027 104.768 367.455C114.71 368.884 183.276 364.598 209.217 368.884Z" fill="url(#paint4_linear)"/>
<path d="M208.048 172H231C229.797 173.108 228.931 174.523 228.305 176H208V172H208.048Z" fill="#F6F7F5"/>
<path d="M247.896 176.043H302.463V175.985H322.176C322.176 175.985 322.176 176.043 322.233 176.043H328.918C328.918 179.357 328.747 182.785 328.347 183.471C328.175 183.756 320.919 184.156 320.919 184.156C312.862 184.385 301.092 184.156 301.092 184.156H237.783H214.927C214.927 184.156 207.842 179.642 208.071 176.557C208.071 176.385 208.071 176.214 208.128 176.043H227.784C227.784 176.043 227.784 175.985 227.841 175.985L247.896 176.043C247.896 175.985 247.896 176.043 247.896 176.043Z" fill="#262626"/>
<path d="M237.668 170.157C244.696 169.929 247.381 175.014 248.01 176.1L227.726 176.043C227.726 176.043 229.783 170.329 237.668 170.157Z" fill="#262626"/>
<path d="M312.292 170.672C318.748 170.443 322.291 176.043 322.234 175.985H302.521C302.35 176.1 304.578 170.157 312.292 170.672Z" fill="#262626"/>
<path d="M302.521 175.985H247.897C247.154 174.614 246.182 173.3 244.811 172.271H305.549C304.12 173.243 303.149 174.557 302.521 175.985Z" fill="#F6F7F5"/>
<path d="M318.234 172.271L329.09 172.157L328.976 176.1L322.233 176.043C321.319 174.557 320.005 173.243 318.234 172.271Z" fill="#F6F7F5"/>
<path d="M174.182 330.977H167.666L164.052 339.428H177.135L174.182 330.977Z" fill="#424242"/>
<path d="M173.773 188.896V330.977H167.664V187.827H173.977L173.773 188.896Z" fill="#424242"/>
<path d="M183.701 162.323H159.011L162.829 190.576H177.592L183.701 162.323Z" fill="#FED337"/>
<path d="M158.806 192.816H182.223C183.445 192.816 184.463 191.849 184.463 190.576C184.463 189.354 183.496 188.336 182.223 188.336H158.806C157.584 188.336 156.566 189.304 156.566 190.576C156.566 191.798 157.584 192.816 158.806 192.816Z" fill="#424242"/>
<path d="M152.241 164.105H187.926C189.148 164.105 190.166 163.137 190.166 161.865C190.166 160.592 189.199 159.625 187.926 159.625H152.241C151.019 159.625 150.001 160.592 150.001 161.865C150.001 163.137 151.019 164.105 152.241 164.105Z" fill="#424242"/>
<path d="M172.296 149.443L184.463 161.559H159.01L172.296 149.443Z" fill="#424242"/>
<path d="M172.093 150.767C171.053 150.767 170.209 149.924 170.209 148.884C170.209 147.843 171.053 147 172.093 147C173.133 147 173.977 147.843 173.977 148.884C173.977 149.924 173.133 150.767 172.093 150.767Z" fill="#424242"/>
<path d="M218.93 320.659H78.7128L66.371 310.203H191.446L218.93 320.659Z" fill="#75445F"/>
<path d="M187.559 310.546H191.959C191.445 307.86 189.788 300.089 189.731 299.804L185.674 301.118C186.245 302.946 187.217 308.546 187.559 310.546Z" fill="#75445F"/>
<path d="M74.3697 313.402C75.1696 310.546 72.9984 302.032 71.9699 298.547L67.8559 299.689C69.2272 304.717 70.5414 311.003 70.1986 312.317L74.3697 313.402Z" fill="#75445F"/>
<path d="M184.704 260.093H56.4285L68.4846 301.346H194.303L184.704 260.093Z" fill="#875776"/>
<path d="M223.5 380.368L226.186 379.625L215.044 319.802L208.53 319.459L223.5 380.368Z" fill="#75445F"/>
<path d="M81.2827 391.396L84.2539 391.625L83.5682 320.031L76.6545 318.488L81.2827 391.396Z" fill="#75445F"/>
<path d="M218.93 320.659V326.316L78.5414 326.944L79.0556 320.145L218.93 320.659Z" fill="#875776"/>
<path d="M54.1991 369.969L69.9121 312.374L66.3696 310.203L52.5993 369.684L54.1991 369.969Z" fill="#75445F"/>
<path d="M186.989 369.226L188.646 374.426C188.646 374.426 197.16 373.74 198.131 375.854C199.103 377.968 196.017 379.168 194.36 379.168C192.703 379.168 185.847 380.825 184.647 378.483C183.447 376.14 182.533 369.455 183.218 367.798C183.904 366.141 186.989 369.226 186.989 369.226Z" fill="#022043"/>
<path d="M154.763 377.969C154.763 377.969 161.62 385.054 159.505 387.453C157.391 389.853 153.106 386.254 152.649 383.911C152.192 381.568 151.677 377.511 152.42 375.854C153.163 374.197 154.763 377.969 154.763 377.969Z" fill="#022043"/>
<path d="M147.621 295.061C147.621 295.061 168.705 302.432 178.19 309.289C184.361 316.888 183.161 327.059 184.361 338.658C185.561 350.257 189.789 366.598 190.303 367.798C190.817 368.998 183.218 371.341 180.59 369.684C177.961 368.027 168.534 350.942 171.333 328.201C157.106 321.573 152.135 316.374 151.449 316.145C150.764 315.917 157.392 324.43 157.849 332.487C157.849 335.344 160.706 374.883 159.734 377.055C158.763 379.169 151.221 379.911 149.564 378.483C147.907 377.055 143.393 339.172 142.936 335.344C142.479 331.515 125.394 320.659 123.966 312.146C122.537 303.632 121.852 297.69 124.194 294.604C126.537 291.519 147.621 295.061 147.621 295.061Z" fill="#424242"/>
<path d="M176.874 256.435C176.874 256.435 182.817 255.007 183.959 258.321C185.159 261.635 177.56 260.664 177.56 260.664C177.56 260.664 173.789 259.235 174.474 258.321C175.16 257.407 176.874 256.435 176.874 256.435Z" fill="#FD9968"/>
<path d="M174.647 254.55C174.647 254.55 178.418 256.893 178.418 260.493C178.418 264.092 144.535 261.693 143.564 261.178C142.592 260.664 131.965 250.493 133.622 248.836C135.279 247.179 151.392 251.179 154.249 253.122C157.105 255.007 173.218 254.55 174.647 254.55Z" fill="url(#paint5_linear)"/>
<path d="M113.509 252.665C113.509 252.665 122.251 244.837 133.622 248.894C138.136 250.551 147.392 259.293 148.535 266.892C149.735 274.491 147.106 294.604 147.563 295.061C148.021 295.518 128.594 299.346 124.822 297.404C121.051 295.518 124.137 280.319 120.08 277.291C116.023 274.263 116.309 270.663 113.909 266.378C111.624 262.092 111.624 253.35 113.509 252.665Z" fill="url(#paint6_linear)"/>
<path d="M158.764 249.065L142.194 256.893L143.393 281.291L158.992 272.777L158.764 249.065Z" fill="#E8505B"/>
<path d="M123.68 252.893L142.193 256.893L143.393 281.291L123.966 276.548L123.68 252.893Z" fill="#E01E5A"/>
<path d="M138.707 268.092C138.707 268.092 138.764 276.834 135.679 279.463C132.593 282.091 132.765 280.891 132.308 279.92C131.85 278.948 132.993 270.206 138.707 268.092Z" fill="#FD9968"/>
<path d="M131.28 276.549C131.28 276.549 137.68 278.434 137.451 280.091C137.222 281.748 130.823 287.462 120.881 287.69C97.3972 284.148 100.083 258.664 110.253 253.008C117.11 251.808 115.91 262.435 116.71 269.463C117.053 272.549 119.167 275.177 122.138 276.263C125.166 277.291 128.937 278.034 131.28 276.549Z" fill="url(#paint7_linear)"/>
<path d="M123.681 243.18C123.681 243.18 127.681 248.151 126.995 249.808C126.31 251.465 122.71 252.15 121.796 251.922C120.881 251.693 121.796 250.15 118.939 241.751C118.939 239.58 123.681 243.18 123.681 243.18Z" fill="#EF8852"/>
<path d="M124.88 233.123C124.88 233.123 128.651 239.066 127.966 242.608C127.28 246.151 125.109 246.894 123.966 246.608C122.823 246.322 116.138 243.065 115.909 240.437C115.681 237.809 116.595 234.723 118.252 234.038C119.909 233.352 124.88 233.123 124.88 233.123Z" fill="#FD9968"/>
<path d="M122.994 235.18C122.994 235.18 129.507 237.066 129.165 232.838C128.822 228.552 125.622 227.752 123.851 228.095C122.08 228.438 120.308 230.724 120.308 230.724C120.308 230.724 116.537 230.266 114.023 233.58C111.509 236.894 113.909 243.18 116.537 243.865C119.166 244.551 120.822 245.179 120.937 243.751C121.051 242.323 119.851 241.865 119.394 241.751C118.937 241.637 116.766 239.98 117.737 239.123C118.708 238.266 119.737 238.894 119.737 238.894C119.737 238.894 123.108 236.095 122.994 235.18Z" fill="#662D2F"/>
<path d="M66.3701 310.203L79.0547 320.145L78.5405 326.944L65.2844 315.917L66.3701 310.203Z" fill="#75445F"/>
<path d="M651.837 297C651.837 297 618.531 287.394 618 262.455C618.885 260.693 620.433 258.975 622.202 257.432C626.758 253.467 627.554 246.725 624.06 241.79C621.096 237.604 618.442 232.537 618.531 227.911C619.902 216.411 634.233 204.602 634.498 199.667C634.498 187.903 624.325 188.167 624.856 171.996C627.864 151.728 641.354 147.321 640.558 142.651C639.717 138.817 635.604 108.679 655.685 110.045C682.666 112.512 674.66 147.85 678.243 152.785C681.825 157.72 692.264 167.326 691.468 176.887C690.672 186.448 683.771 200.196 685.143 210.859C686.514 221.566 700.535 232.802 696.156 242.363C691.777 251.925 685.408 254.128 684.877 260.164C683.771 268.095 692.573 273.03 688.991 280.741C685.408 288.496 654.048 296.692 651.837 297Z" fill="#2EB67D"/>
<path d="M692.775 265.407C692.775 265.407 678.605 286.033 676.262 295.518C673.92 305.003 676.034 309.974 674.834 309.974C673.634 309.974 659.407 313.745 655.179 302.889C650.893 291.976 654.15 276.777 653.75 273.292C653.35 269.692 662.378 253.75 671.977 254.55C675.748 254.836 688.49 255.636 692.775 265.407Z" fill="#767587"/>
<path d="M674.835 303.346C674.835 303.346 677.92 315.688 674.606 328.487C671.292 341.286 665.35 357.17 664.435 357.17C663.464 357.17 652.608 348.885 652.094 347.457C651.579 346.028 651.122 310.945 652.322 305.06C653.465 299.061 673.635 303.346 674.835 303.346Z" fill="#353435"/>
<path d="M658.73 198L664 366.47L645 367C644.956 367 657.091 198.265 658.73 198Z" fill="#75445F"/>
<path d="M680.49 250.722C680.49 250.722 680.262 256.664 681.69 258.321C683.119 259.978 675.291 260.435 673.405 258.778C671.52 257.121 673.634 251.922 674.091 250.036C674.605 248.151 680.49 250.722 680.49 250.722Z" fill="#EF8852"/>
<path d="M683.347 240.38L683.519 244.665C683.519 244.665 686.547 244.151 686.547 246.265C686.547 248.379 683.176 248.951 683.176 248.951C683.176 248.951 681.576 252.322 676.948 253.236C672.319 254.15 669.863 244.551 671.977 240.608C674.091 236.666 683.347 240.38 683.347 240.38Z" fill="#FD9968"/>
<path d="M683.862 243.237C683.862 243.237 677.291 244.494 671.578 241.98C670.949 242.437 670.263 247.408 672.835 248.036C675.234 248.322 675.863 245.751 675.863 245.751C675.863 245.751 676.491 249.236 678.777 248.665C681.062 248.151 682.091 246.951 682.091 246.951L684.205 245.351L683.862 243.237Z" fill="#022042"/>
<path d="M686.548 240.894L686.491 241.237C686.376 242.38 685.348 243.18 684.205 243.008L671.978 241.294C670.892 241.123 670.149 240.152 670.263 239.066C670.435 237.98 671.406 237.237 672.492 237.352L684.776 238.78C685.862 238.837 686.662 239.809 686.548 240.894Z" fill="#022042"/>
<path d="M684.32 239.58C684.32 239.58 684.491 231.752 679.063 231.924C673.635 232.095 671.864 238.152 671.864 238.437C671.864 238.666 684.32 239.58 684.32 239.58Z" fill="#022042"/>
<path d="M691.518 263.235C691.518 263.235 697.461 267.52 692.204 279.862C686.947 292.204 681.976 296.204 677.92 296.375C668.263 296.032 659.864 281.291 657.864 272.834C656.893 268.549 657.521 266.721 660.892 266.092C664.949 267.578 667.806 275.291 671.692 279.977C672.32 280.777 673.577 280.548 673.92 279.577C675.863 274.32 681.862 265.464 682.262 265.235C682.662 265.006 685.233 260.378 691.518 263.235Z" fill="#353435"/>
<path d="M660.149 268.264C660.149 268.264 660.778 258.322 657.292 258.95C653.807 259.579 657.464 269.406 658.207 269.692C658.892 269.978 660.149 268.264 660.149 268.264Z" fill="#EF8852"/>
<path d="M696.146 334.372C696.317 332.944 697.574 327.973 694.718 325.116C691.861 322.259 681.576 331.858 680.147 338.258C678.719 344.657 669.348 363.513 670.091 364.541C670.777 365.627 687.975 354.599 687.975 354.599C687.975 354.599 695.403 340.429 696.146 334.372Z" fill="#2EB67D"/>
<path d="M681.577 369.569C681.577 369.569 697.175 362.027 696.832 358.827C696.49 355.628 695.404 354.542 695.404 354.542C695.404 354.542 712.831 349.228 709.288 342.086C705.746 335.001 704.317 336.029 701.118 338.543C697.918 341.057 696.832 344.943 695.061 344.943C693.29 344.943 687.233 340.315 684.033 350.999C680.834 361.684 678.32 371.626 678.32 371.626L681.577 369.569Z" fill="#2EB67D"/>
<path d="M667.807 360.199C668.893 359.856 690.091 343.286 685.806 332.601C681.52 321.916 677.978 318.374 672.664 322.316C667.35 326.201 658.094 336.886 659.865 347.171C661.693 357.456 667.807 360.199 667.807 360.199Z" fill="#2EB67D"/>
<path d="M689.404 377.054C688.319 375.968 679.119 361.798 658.15 362.484C637.18 363.17 625.124 376.368 625.124 376.368L689.404 377.054Z" fill="url(#paint8_linear)"/>
<path d="M667.121 366.769L667.807 366.655C666.664 357.97 675.978 330.944 676.092 330.658L675.406 330.43C675.063 331.572 665.921 357.913 667.121 366.769Z" fill="#014880"/>
<path d="M678.661 372.598C679.633 370.712 685.918 361.341 690.946 353.913C695.345 347.457 702.659 344.371 702.773 344.314L702.488 343.686C702.431 343.743 694.888 346.885 690.374 353.513C688.546 356.199 679.347 369.798 678.033 372.255L678.661 372.598Z" fill="#014880"/>
<path d="M257.497 142.902H267.896L265.554 138.388L259.84 138.16L257.497 142.902Z" fill="#E01E5A"/>
<path d="M312.749 194.327C307.132 194.327 302.579 189.773 302.579 184.156C302.579 178.539 307.132 173.986 312.749 173.986C318.366 173.986 322.92 178.539 322.92 184.156C322.92 189.773 318.366 194.327 312.749 194.327Z" fill="#3A3A3A"/>
<path d="M313.036 190.727C309.596 190.727 306.808 187.939 306.808 184.499C306.808 181.059 309.596 178.271 313.036 178.271C316.475 178.271 319.264 181.059 319.264 184.499C319.264 187.939 316.475 190.727 313.036 190.727Z" fill="#767587"/>
<path d="M237.9 194.327C232.283 194.327 227.729 189.773 227.729 184.156C227.729 178.539 232.283 173.986 237.9 173.986C243.517 173.986 248.07 178.539 248.07 184.156C248.07 189.773 243.517 194.327 237.9 194.327Z" fill="#3A3A3A"/>
<path d="M238.184 190.441C234.744 190.441 231.956 187.653 231.956 184.213C231.956 180.774 234.744 177.985 238.184 177.985C241.624 177.985 244.412 180.774 244.412 184.213C244.412 187.653 241.624 190.441 238.184 190.441Z" fill="#767587"/>
<defs>
<linearGradient id="paint0_linear" x1="395.823" y1="288.444" x2="223.154" y2="288.444" gradientUnits="userSpaceOnUse">
<stop offset="0.00396825" stop-color="#FCEFFF"/>
<stop offset="0.2807" stop-color="#EDE1F0"/>
<stop offset="0.6443" stop-color="#E1D6E4"/>
<stop offset="1" stop-color="#DDD2E0"/>
</linearGradient>
<linearGradient id="paint1_linear" x1="544.027" y1="383.037" x2="315.48" y2="383.037" gradientUnits="userSpaceOnUse">
<stop offset="0.00396825" stop-color="#FCEFFF"/>
<stop offset="0.2807" stop-color="#EDE1F0"/>
<stop offset="0.6443" stop-color="#E1D6E4"/>
<stop offset="1" stop-color="#DDD2E0"/>
</linearGradient>
<linearGradient id="paint2_linear" x1="493.641" y1="212.64" x2="463.504" y2="216.156" gradientUnits="userSpaceOnUse">
<stop stop-color="#FED337"/>
<stop offset="1" stop-color="#ECB22E"/>
</linearGradient>
<linearGradient id="paint3_linear" x1="528.247" y1="236.692" x2="485.529" y2="242.823" gradientUnits="userSpaceOnUse">
<stop stop-color="#FED337"/>
<stop offset="1" stop-color="#ECB22E"/>
</linearGradient>
<linearGradient id="paint4_linear" x1="228.918" y1="381.856" x2="-0.00226024" y2="381.856" gradientUnits="userSpaceOnUse">
<stop offset="0.00396825" stop-color="#FCEFFF"/>
<stop offset="0.2807" stop-color="#EDE1F0"/>
<stop offset="0.6443" stop-color="#E1D6E4"/>
<stop offset="1" stop-color="#DDD2E0"/>
</linearGradient>
<linearGradient id="paint5_linear" x1="165.526" y1="239.767" x2="125.491" y2="253.093" gradientUnits="userSpaceOnUse">
<stop stop-color="#00BCF8"/>
<stop offset="1" stop-color="#015BA2"/>
</linearGradient>
<linearGradient id="paint6_linear" x1="138.328" y1="216.589" x2="102.234" y2="219.322" gradientUnits="userSpaceOnUse">
<stop stop-color="#00BCF8"/>
<stop offset="1" stop-color="#015BA2"/>
</linearGradient>
<linearGradient id="paint7_linear" x1="127.513" y1="231.353" x2="93.5713" y2="234.86" gradientUnits="userSpaceOnUse">
<stop stop-color="#00BCF8"/>
<stop offset="1" stop-color="#015BA2"/>
</linearGradient>
<linearGradient id="paint8_linear" x1="633" y1="362" x2="657.264" y2="377.054" gradientUnits="userSpaceOnUse">
<stop stop-color="#2EB67D"/>
<stop offset="1" stop-color="#00686D"/>
</linearGradient>
</defs>
</svg>
