<svg width="152" height="72" viewBox="0 0 152 72" fill="none" xmlns="http://www.w3.org/2000/svg">
<path d="M39.1919 39.7949C36.0684 39.7949 33.015 40.7211 30.418 42.4563C27.8209 44.1916 25.7967 46.6581 24.6014 49.5437C23.4061 52.4294 23.0934 55.6047 23.7027 58.6681C24.3121 61.7315 25.8162 64.5453 28.0248 66.7539C30.2335 68.9624 33.0474 70.4665 36.1109 71.0759C39.1743 71.6852 42.3497 71.3725 45.2355 70.1772C48.1212 68.9819 50.5876 66.9579 52.3229 64.3609C54.0583 61.7638 54.9845 58.7106 54.9845 55.5872C54.9845 51.3988 53.3206 47.3821 50.3589 44.4204C47.3972 41.4588 43.3803 39.7949 39.1919 39.7949ZM39.1919 66.7395C36.9867 66.7366 34.832 66.08 32.9999 64.8527C31.1679 63.6255 29.7408 61.8826 28.8989 59.8446C28.0571 57.8065 27.8385 55.5645 28.2705 53.4022C28.7025 51.2398 29.7658 49.2542 31.3261 47.696C32.8865 46.1378 34.8737 45.0772 37.0367 44.6481C39.1997 44.219 41.4413 44.4407 43.4783 45.2852C45.5153 46.1297 47.2562 47.5591 48.481 49.3928C49.7058 51.2265 50.3595 53.3821 50.3595 55.5872C50.3614 57.0546 50.074 58.508 49.5136 59.8642C48.9531 61.2204 48.1307 62.4528 47.0934 63.4908C46.0561 64.5288 44.8243 65.352 43.4684 65.9133C42.1126 66.4747 40.6593 66.7631 39.1919 66.7621V66.7395Z" fill="url(#paint0_linear)"/>
<path d="M118.155 39.8782C115.041 39.8737 111.997 40.793 109.406 42.5199C106.815 44.2469 104.795 46.7038 103.602 49.5793C102.408 52.4549 102.095 55.6199 102.701 58.6737C103.307 61.7275 104.806 64.5327 107.008 66.7342C109.209 68.9357 112.015 70.4345 115.069 71.0408C118.123 71.6471 121.288 71.3336 124.163 70.1401C127.039 68.9465 129.496 66.9266 131.223 64.3361C132.95 61.7455 133.869 58.7008 133.865 55.5874C133.855 51.4241 132.197 47.4342 129.253 44.4903C126.308 41.5463 122.318 39.8881 118.155 39.8782ZM118.155 66.6945C115.963 66.699 113.818 66.0532 111.993 64.8389C110.167 63.6247 108.743 61.8964 107.9 59.8727C107.057 57.849 106.833 55.6207 107.256 53.4697C107.679 51.3186 108.731 49.3413 110.278 47.788C111.825 46.2346 113.798 45.175 115.948 44.7429C118.097 44.3108 120.326 44.5259 122.354 45.3607C124.381 46.1955 126.115 47.6126 127.337 49.433C128.558 51.2533 129.213 53.3951 129.217 55.5874C129.221 58.5266 128.058 61.3473 125.984 63.4299C123.91 65.5124 121.094 66.6866 118.155 66.6945Z" fill="url(#paint1_linear)"/>
<path d="M54.9606 22.5151L79.7606 21.2641H79.9651L105.73 18.3043L117.811 17.4214C118.157 17.3968 118.493 17.3013 118.8 17.1409C119.107 16.9806 119.377 16.7587 119.594 16.4892L127.692 6.45707C128.107 5.935 128.299 5.26998 128.226 4.60705C128.152 3.94413 127.82 3.33708 127.3 2.91833C126.781 2.49958 126.117 2.30316 125.454 2.37179C124.79 2.44043 124.18 2.76867 123.758 3.28482L116.347 12.4666L108.168 13.0553L108.699 3.33393C108.726 2.67072 108.491 2.02348 108.045 1.53222C107.598 1.04096 106.976 0.74494 106.313 0.708419C105.65 0.671898 104.999 0.897756 104.501 1.337C104.004 1.77624 103.699 2.39371 103.653 3.05586L103.072 13.5214L82.7052 15.8596L84.7173 4.01241C84.8258 3.35103 84.6669 2.67379 84.2758 2.12946C83.8846 1.58513 83.2932 1.21826 82.6316 1.10984C81.9699 1.00142 81.2923 1.16019 80.7477 1.55118C80.2032 1.94218 79.8364 2.53342 79.7279 3.1948L77.4949 16.3585L54.8788 17.503L45.3171 16.5874L42.8632 14.7069C42.6004 14.4961 42.298 14.3398 41.9739 14.2476C41.6498 14.1553 41.3105 14.1288 40.976 14.1695C40.6415 14.2102 40.3185 14.3175 40.026 14.4849C39.7335 14.6522 39.4775 14.8763 39.273 15.144C39.0684 15.4117 38.9195 15.7176 38.835 16.0437C38.7505 16.3697 38.732 16.7094 38.7807 17.0427C38.8295 17.376 38.9444 17.6962 39.1187 17.9845C39.2931 18.2728 39.5233 18.5233 39.796 18.7213L42.8305 21.0352C43.2051 21.3222 43.653 21.4978 44.1229 21.542L54.5843 22.5478H54.8297L54.9606 22.5151Z" fill="url(#paint2_linear)"/>
<path d="M4.57945 36.8215C3.97889 36.8695 3.42044 37.1489 3.02188 37.6007C2.62332 38.0525 2.41581 38.6415 2.44313 39.2434C2.47044 39.8452 2.73044 40.4129 3.16828 40.8267C3.60612 41.2405 4.18758 41.4682 4.79002 41.4616H5.00059C11.7688 40.8449 12.6487 40.3637 13.0247 40.1531H13.0774L22.8011 34.4753C23.4929 34.0895 24.0493 33.5 24.3944 32.787C24.7396 32.074 24.8569 31.272 24.7304 30.49C24.6039 29.708 24.2397 28.9839 23.6873 28.4161C23.135 27.8483 22.4212 27.4642 21.643 27.3162C21.5854 27.3125 21.5276 27.3125 21.47 27.3162L18.0182 26.9025C17.4221 26.8595 16.8324 27.0479 16.3716 27.4283C15.9108 27.8088 15.6142 28.352 15.5435 28.9454C15.4729 29.5388 13.7201 29.7805 14.0787 30.2586C14.4373 30.7366 16.8797 31.4143 17.4692 31.5125L18.4468 31.6327L10.8739 36.0546C8.79044 36.419 6.68947 36.6749 4.57945 36.8215Z" fill="url(#paint3_linear)"/>
<path d="M103.188 55.345H53.9567C53.2405 55.345 54.4632 55.8515 53.9567 56.288C53.4503 56.7245 53.3556 57.225 53.3556 57.8423C53.3556 58.4596 52.8491 58.442 53.3556 58.8786C53.8621 59.3151 53.2405 60.0001 53.9567 60.0001H103.188C103.905 60.0001 104.592 59.7549 105.098 59.3184C105.605 58.8819 105.889 58.2898 105.889 57.6725C105.889 57.0551 105.605 56.4632 105.098 56.0267C104.592 55.5902 103.905 55.345 103.188 55.345Z" fill="url(#paint4_linear)"/>
<path d="M150.56 30.3507C150.51 30.0862 150.416 29.832 150.282 29.5987C149.936 29.0196 142.445 16.2808 138.55 11.4153C138.994 11.1145 139.543 10.7911 139.904 10.573C141.731 9.49012 143.611 8.37719 143.333 6.28663C143.152 4.97063 142.175 4.06835 140.43 3.59459C130.654 0.947544 110.454 0 96.1205 0C75.8157 0 71.6193 1.58669 53.9467 8.23438L53.5331 8.39227L53.4202 8.43743C51.841 9.12175 14.6456 25.3498 8.35867 28.2676C6.97361 28.9077 5.74751 29.8466 4.76841 31.0167C3.78931 32.1869 3.08152 33.5594 2.6959 35.0356L0.21421 44.6011C0.210582 44.6436 0.210582 44.6865 0.21421 44.729C-0.11069 46.33 -0.0654966 47.984 0.346357 49.5649C0.758211 51.1458 1.52582 52.6117 2.5906 53.8507C5.59872 57.528 10.6148 59.4832 13.0664 59.4832H24.4235C25.0398 59.4832 24.2464 59.1427 24.6821 58.707C25.1179 58.2712 24.6821 58.0302 24.6821 57.4139C24.6821 56.7976 25.1179 56.5565 24.6821 56.1208C24.2464 55.685 24.264 54.8359 23.6477 54.8359H13.0664C11.9759 54.8359 8.31356 53.4973 6.17779 50.9029C5.55588 50.2023 5.10459 49.3673 4.85931 48.4631C4.61403 47.559 4.5814 46.6104 4.76398 45.6916L7.2231 36.2013C7.43235 35.3814 7.82173 34.6186 8.3629 33.9682C8.90407 33.3178 9.58342 32.7961 10.3515 32.4413C16.4731 29.5987 53.5932 13.4081 55.2552 12.6786L55.6162 12.5433C73.0633 5.97836 76.673 4.60968 96.1505 4.60968C108.83 4.60968 126.134 5.36178 136.241 7.34707C134.85 8.24947 133.654 9.28713 133.436 10.8137C133.368 11.308 133.413 11.8113 133.568 12.2856C133.723 12.7598 133.984 13.1927 134.331 13.5511C136.903 16.3109 143.498 27.1623 146.093 31.5991C146.845 35.6374 147.74 42.4503 147.258 44.7815C146.777 47.1127 144.393 49.2936 143.498 49.9102C142.168 50.2633 140.799 50.4527 139.422 50.4742C139.181 50.3906 132.783 50.4702 132.527 50.4742C132.222 50.4742 132.292 50.3575 132.01 50.4742C131.728 50.591 132.226 50.7326 132.01 50.9483C131.794 51.1641 132.385 51.7009 132.269 51.9828C132.152 52.2648 132.786 52.7122 132.786 53.0173C132.787 53.4841 131.751 54.3104 132.527 54.3104C132.787 54.6984 132.872 54.7542 133.303 54.9335C133.619 55.0764 138.873 55.3171 141.987 54.9335C144.724 54.5876 145.747 54.0764 146.318 53.6027C147.07 53.0161 150.883 50.0004 151.778 45.7215C152.628 41.6457 150.778 31.5238 150.56 30.3507Z" fill="url(#paint5_linear)"/>
<path d="M138.054 15.2587C137.506 14.9323 137.253 14.027 136.656 14.2242C136.06 14.4215 135.928 13.6181 135.631 14.2242L131.505 22.282C131.236 22.8487 131.164 23.5059 131.304 24.1275C131.444 24.749 131.786 25.2912 132.265 25.6506L141.534 32.6571C141.924 32.9496 146.797 35.6913 147.269 35.6897C147.77 35.6887 146.866 33.6923 147.269 33.3621C147.671 33.0319 146.345 32.0825 146.493 31.5517C146.64 31.021 145.882 30.2658 145.717 29.7414C145.552 29.217 145.096 28.7621 144.682 28.4484L136.656 22.678L138.054 19.8568C138.342 19.2465 139.435 17.9854 139.251 17.3277C139.068 16.67 138.602 15.5825 138.054 15.2587Z" fill="url(#paint6_linear)"/>
<defs>
<linearGradient id="paint0_linear" x1="3.17078" y1="7.04621" x2="157.835" y2="75.3945" gradientUnits="userSpaceOnUse">
<stop stop-color="#963298"/>
<stop offset="1" stop-color="#4A154B"/>
</linearGradient>
<linearGradient id="paint1_linear" x1="2.11386" y1="-2.8185" x2="152.198" y2="80.3268" gradientUnits="userSpaceOnUse">
<stop stop-color="#963298"/>
<stop offset="1" stop-color="#4A154B"/>
</linearGradient>
<linearGradient id="paint2_linear" x1="-1.33274" y1="-21.581" x2="145.565" y2="98.4825" gradientUnits="userSpaceOnUse">
<stop stop-color="#963298"/>
<stop offset="1" stop-color="#4A154B"/>
</linearGradient>
<linearGradient id="paint3_linear" x1="2.11384" y1="4.57998" x2="152.198" y2="74.3375" gradientUnits="userSpaceOnUse">
<stop stop-color="#963298"/>
<stop offset="1" stop-color="#4A154B"/>
</linearGradient>
<linearGradient id="paint4_linear" x1="6.69392" y1="2.81848" x2="156.074" y2="81.7361" gradientUnits="userSpaceOnUse">
<stop stop-color="#963298"/>
<stop offset="1" stop-color="#4A154B"/>
</linearGradient>
<linearGradient id="paint5_linear" x1="0" y1="0" x2="152.198" y2="82.0884" gradientUnits="userSpaceOnUse">
<stop stop-color="#963298"/>
<stop offset="1" stop-color="#4A154B"/>
</linearGradient>
<linearGradient id="paint6_linear" x1="3.87543" y1="2.46615" x2="155.721" y2="77.5083" gradientUnits="userSpaceOnUse">
<stop stop-color="#963298"/>
<stop offset="1" stop-color="#4A154B"/>
</linearGradient>
</defs>
</svg>
