<svg width="408" height="443" viewBox="0 0 408 443" fill="none" xmlns="http://www.w3.org/2000/svg">
<path d="M14.2308 354.487C15.613 354.766 17.1368 354.895 18.4326 355.447C20.1771 356.2 21.8496 357.18 23.5509 358.027C26.8736 359.679 30.2139 361.3 33.5717 362.891C40.1995 366.029 46.9208 368.87 53.7453 371.558C57.0232 372.849 60.313 374.114 63.6149 375.352C65.2274 375.957 66.8016 376.225 68.4741 376.583C70.2234 376.957 71.9271 377.634 73.6261 378.191C75.457 378.788 77.3047 379.335 79.1452 379.87C75.5458 378.243 72.0951 376.285 68.5869 374.474C64.8795 372.554 61.1649 370.661 57.4767 368.714C53.7357 366.737 51.9698 363.512 48.5 361.091C52.3634 363.397 44.807 358.516 48.5 361.091C47.7465 360.642 48.5 358.293 48.5 358.293C45.5077 358.003 51.4275 358.972 48.5 358.293C51.5691 358.591 48.3701 354.206 51.3121 355.125C57.5199 357.067 62.3671 360.988 68.5869 362.891C75.0251 364.858 82.5406 365.852 88.794 368.352C95.1362 370.889 101.538 373.317 107.799 376.055C114.194 378.848 120.757 381.413 126.996 384.547L136.75 389.45C140.079 391.129 143.229 393.198 146.61 394.77C153.039 397.764 159.408 400.838 165.908 403.677C172.267 406.456 178.626 409.239 185.035 411.879C199.419 417.798 213.801 423.711 228.183 429.619C228.903 429.909 229.692 431.846 229.92 432.367C230.497 433.702 230.978 435.076 231.36 436.48C231.485 436.94 232.627 442.786 231.744 442.548C217.401 438.694 203.056 434.843 188.75 430.864C174.614 426.934 160.545 422.783 146.375 418.982C132.361 415.224 118.46 411.003 104.658 406.528C101.13 405.383 97.5334 404.142 94.1452 402.633C90.4882 401.004 86.9344 399.077 83.3637 397.268C79.9635 395.547 76.3616 394.148 73.0454 392.271C71.2601 391.271 69.6404 390.069 67.7807 389.207C65.9905 388.377 64.202 387.539 62.4151 386.695C54.7123 383.052 47.1103 379.201 39.4412 375.486C35.6738 373.661 31.9248 371.796 28.1942 369.893C26.2745 368.915 24.3668 367.927 22.4711 366.929C20.2515 365.763 18.4086 364.17 16.4601 362.598C15.3298 361.686 14.8259 359.603 14.4708 358.293C14.3916 357.995 13.6261 354.37 14.2308 354.487Z" fill="#DDD2DF"/>
<path d="M171 358.5C163.874 356.623 178.138 359.203 179.5 359.5C181.333 359.906 186.633 361.327 188.421 361.783C191.913 362.673 195.423 363.546 198.952 364.402C205.917 366.092 212.981 367.621 220.153 369.068C223.598 369.763 227.055 370.444 230.525 371.111C232.22 371.437 233.874 371.581 235.632 371.774C237.47 371.975 239.26 372.34 241.046 372.639C242.97 372.961 244.912 373.256 246.846 373.544C243.063 372.668 239.437 371.614 235.75 370.638C231.854 369.605 227.95 368.585 224.074 367.537C220.143 366.473 215.941 365.521 212.295 364.217C208.414 362.831 204.331 361.624 200.271 360.383C199.479 360.141 198.785 357.976 198.992 358C202.069 358.366 205.191 358.861 208.336 359.017C211.561 359.177 214.504 359.726 217.596 360.221C224.12 361.266 230.588 362.408 237.125 363.433C243.891 364.492 250.414 365.996 256.986 367.342C263.651 368.708 270.38 370.015 276.959 371.49C283.68 372.993 290.577 374.374 297.134 376.062L307.385 378.701C310.883 379.606 314.194 380.719 317.747 381.565C324.503 383.178 331.196 384.833 338.027 386.361C344.71 387.857 351.393 389.356 358.129 390.777C373.244 393.964 388.359 397.148 403.473 400.328C404.23 400.485 405.06 401.527 405.299 401.808C405.905 402.527 406.411 403.267 406.812 404.022C406.943 404.27 408.144 407.417 407.216 407.29C392.143 405.215 377.068 403.141 362.032 400.999C347.176 398.883 332.391 396.648 317.5 394.601C302.772 392.578 288.164 390.306 273.658 387.896C269.951 387.28 266.171 386.612 262.61 385.799C258.767 384.922 255.032 383.885 251.279 382.91C247.706 381.984 243.921 381.231 240.436 380.221C238.559 379.682 236.857 379.035 234.903 378.571C233.022 378.124 231.142 377.673 229.264 377.218C221.169 375.257 213.18 373.183 205.12 371.183C201.161 370.201 197.221 369.197 193.301 368.172C191.283 367.646 189.278 367.114 187.286 366.576C184.953 365.948 179.048 365.248 177 364.402C175.812 363.911 164.873 362.488 164.5 361.783C164.417 361.623 170.365 358.437 171 358.5Z" fill="#DDD2DF"/>
<path d="M190.374 355.915C188.724 357.185 209.991 362.515 214.166 361.129C218.341 359.743 215.758 357.899 216.228 350.502H208.592C208.031 355.197 192.028 354.64 190.374 355.915Z" fill="#424242"/>
<path d="M193.369 217.215C191.459 253.462 208.584 350.502 208.584 350.502H216.237C226.675 298.826 218.201 287.278 217.718 269.229C216.782 234.216 233.164 196.282 219.323 172.866C192.722 159.862 195.284 180.968 193.369 217.215Z" fill="#4A154B"/>
<path d="M149.04 359.046C147.258 360.193 163.179 363.629 170.18 363.757C177.181 363.885 173.616 360.7 174.128 352.808C172.478 354.974 167.89 352.808 167.89 352.808C162.543 357.272 150.823 357.907 149.04 359.046Z" fill="#424242"/>
<path d="M187.49 183.419C169.416 216.629 155.493 231.902 155.67 256.152C155.831 278.561 167.89 352.817 167.89 352.817C167.89 352.817 172.473 354.982 174.128 352.817C175.782 350.651 181.504 301.594 176.987 278.487C173.744 261.878 179.874 254.621 187.49 246.221C195.106 237.822 225.672 204.966 216.893 181.311C208.114 157.655 187.49 183.419 187.49 183.419Z" fill="url(#paint0_linear)"/>
<path d="M190.246 99.4189C189.379 99.7908 188.482 100.086 187.564 100.302C189.004 104.708 187.977 110.859 186.459 113.532C185.303 115.558 194.297 114.807 198.79 110.389C197.729 105.166 192.441 102.682 190.246 99.4189Z" fill="#F2B08A"/>
<path d="M211.744 138.508C218.679 152.918 229.963 164.94 231.592 161.144C232.751 158.446 232.727 146.705 229.76 135.083C224.146 133.38 212.706 134.654 211.744 138.508Z" fill="#F2B08A"/>
<path d="M230.783 161.846C222.788 164.206 200.089 151.532 195.716 143.331C191.343 135.129 230.164 137.769 230.783 161.846Z" fill="#F2B08A"/>
<path d="M174.697 191.62C189.21 184.169 201.616 184.553 211.352 189.145C212.793 189.823 214.31 190.33 215.869 190.655C224.063 192.359 231.773 188.761 234.847 186.661C234.847 186.661 219.764 170.815 219.191 151.343C218.617 131.87 227.388 115.269 211.352 109.914C201.938 106.767 186.343 107.468 178.137 114.609C169.932 121.75 170.881 140.076 175.844 153.253C180.807 166.43 176.797 186.273 174.697 191.62Z" fill="#963298"/>
<path d="M141.54 114.04L138.108 115.822C138.108 115.822 140.484 163.1 155.522 164.915C155.522 164.915 158.975 163.183 159.932 159.734C161.578 153.793 146.759 116.403 141.54 114.04Z" fill="#F2B08A"/>
<path d="M141.528 113.784C141.235 115.768 140.909 116.156 139.985 118.759H139.898C139.898 118.759 131.4 118.008 129.997 115.459C128.594 112.909 131.033 107.389 132.778 107.959C135.95 108.998 137.691 109.514 138.966 109.172C141.417 108.507 141.532 105.871 142.266 105.871C143.397 105.879 142.031 110.368 141.528 113.784Z" fill="#F2B08A"/>
<path d="M189.78 94.3777C193.216 86.1679 189.78 80.9904 183.756 81.5432C183.009 82.8841 182.368 84.2814 181.838 85.7224C179.573 91.8447 179.21 98.6146 182.251 100.125C183.542 100.772 185.51 100.789 187.614 100.302C188.532 100.086 189.429 99.791 190.295 99.4191C189.68 98.572 189.347 97.5532 189.342 96.5065C189.349 95.7753 189.498 95.0524 189.78 94.3777Z" fill="#F2B08A"/>
<path d="M190.246 99.4192C192.428 102.682 197.717 105.166 198.79 110.389C199.153 112.142 199.038 114.205 198.171 116.713C193.588 129.952 204.661 145.068 219.298 146.863C233.935 148.657 243.354 134.024 231.897 121.548C220.441 109.073 221.336 102.348 214.207 98.4456C207.078 94.5428 203.134 88.1029 200.333 83.2472C197.532 78.3914 182.218 72.5208 181.191 80.8255C181.001 82.3643 186.36 83.5318 186.36 92.4306C186.372 95.7145 189.656 98.5281 190.246 99.4192Z" fill="#424242"/>
<path d="M162.836 133.611C154.927 147.477 150.088 163.009 155.521 164.915C158.764 166.054 175.171 152.035 183.352 139.482C180.757 135.806 167.589 129.378 162.836 133.611Z" fill="#F2B08A"/>
<path d="M181.904 112.014C175.716 114.613 168.5 123.681 162.836 133.611C167.589 129.378 180.745 135.806 183.348 139.478C185.823 135.691 187.527 132.052 187.911 128.97C189.569 115.735 181.904 112.014 181.904 112.014Z" fill="#963298"/>
<g filter="url(#filter0_d)">
<path d="M37.3707 31.9665C19.3546 67.1943 55.4034 79.5296 93.3004 70.7753C97.5951 69.7851 102.377 80.5486 93.6841 87.925C136.445 77.1987 160.542 38.2414 133.788 18.7566C107.034 -0.728221 53.2457 0.921981 37.3707 31.9665Z" fill="white"/>
</g>
<path d="M78.0317 46.7646H76.2165V46.2159C76.2059 45.6671 76.2811 45.1201 76.4393 44.5945C76.576 44.1615 76.7792 43.7523 77.0416 43.3816C77.2836 43.0369 77.5678 42.7237 77.8873 42.4493C78.2009 42.177 78.5268 41.9171 78.8568 41.6654C79.1868 41.4138 79.5169 41.1662 79.8304 40.9146C80.1435 40.6641 80.4272 40.379 80.6762 40.0647C80.9317 39.7468 81.135 39.3903 81.2785 39.0086C81.4358 38.5609 81.5112 38.0886 81.5013 37.6142V37.346C81.506 36.9123 81.4203 36.4824 81.2496 36.0836C81.0846 35.7012 80.8479 35.3539 80.5524 35.0605C80.2548 34.7682 79.905 34.5344 79.521 34.3715C79.1224 34.1999 78.6926 34.1128 78.2586 34.1157H77.8461C77.4204 34.1156 76.9992 34.2027 76.6084 34.3715C76.2245 34.5344 75.8746 34.7682 75.577 35.0605C75.2801 35.3528 75.0432 35.7003 74.8798 36.0836C74.7077 36.4821 74.6206 36.912 74.624 37.346V38.1711L72.8046 37.8741V37.3542C72.8008 36.6909 72.9328 36.0339 73.1925 35.4235C73.4434 34.8338 73.8046 34.2975 74.2568 33.8434C74.7121 33.3888 75.2516 33.0273 75.8452 32.7791C76.4582 32.5186 77.1181 32.3866 77.7842 32.3913H78.3618C79.0252 32.3862 79.6825 32.5182 80.2925 32.7791C80.8838 33.027 81.4206 33.3886 81.8726 33.8434C82.3263 34.2963 82.6878 34.8329 82.9369 35.4235C83.1985 36.0333 83.3306 36.6908 83.3247 37.3542V37.6224C83.3346 38.1982 83.2595 38.7723 83.102 39.3262C82.9653 39.7863 82.7623 40.2241 82.4996 40.6258C82.267 40.9915 81.9898 41.3268 81.6745 41.6242C81.361 41.9171 81.0351 42.1894 80.7009 42.4493C80.3667 42.7092 80.0449 42.9526 79.7273 43.196C79.4262 43.4361 79.1498 43.7056 78.9022 44.0005C78.6548 44.2915 78.4531 44.6184 78.304 44.97C78.1461 45.3703 78.069 45.798 78.0771 46.2282L78.0317 46.7646ZM76.0473 52.8827V50.7127H78.2009V52.8827H76.0473Z" fill="#00BCF8"/>
<path d="M91.4235 46.7646H89.6042V46.2159C89.5936 45.6671 89.6688 45.1201 89.827 44.5946C89.9637 44.1615 90.167 43.7523 90.4293 43.3817C90.665 43.0382 90.9421 42.725 91.2544 42.4493C91.568 42.177 91.8939 41.9171 92.2239 41.6654C92.554 41.4138 92.884 41.1663 93.1975 40.9146C93.5034 40.6629 93.7801 40.3779 94.0226 40.0647C94.2782 39.7469 94.4815 39.3904 94.625 39.0086C94.7822 38.5609 94.8577 38.0886 94.8477 37.6142V37.346C94.8524 36.9123 94.7667 36.4824 94.5961 36.0836C94.4311 35.7012 94.1944 35.3539 93.8989 35.0605C93.6013 34.7682 93.2514 34.5345 92.8675 34.3715C92.469 34.1995 92.0391 34.1124 91.6051 34.1157H91.1925C90.7585 34.1124 90.3286 34.1995 89.9301 34.3715C89.5461 34.5345 89.1963 34.7682 88.8987 35.0605C88.6018 35.3528 88.365 35.7004 88.2015 36.0836C88.0295 36.4821 87.9424 36.912 87.9458 37.346V38.1711L86.1264 37.8741V37.3543C86.1225 36.691 86.2545 36.0339 86.5142 35.4235C86.7651 34.8329 87.128 34.2963 87.5827 33.8435C88.0449 33.3807 88.5943 33.014 89.199 32.7648C89.8037 32.5155 90.4518 32.3886 91.1059 32.3913H91.6835C92.3469 32.3859 93.0043 32.5179 93.6142 32.7791C94.8061 33.2831 95.7546 34.2317 96.2587 35.4235C96.5203 36.0333 96.6523 36.6908 96.6465 37.3543V37.6224C96.6563 38.1982 96.5812 38.7723 96.4237 39.3263C96.287 39.7864 96.0841 40.2241 95.8214 40.6258C95.5887 40.9915 95.3116 41.3269 94.9963 41.6242C94.6827 41.9171 94.3568 42.1894 94.0226 42.4493L93.0532 43.196C92.7427 43.4339 92.4578 43.7035 92.2033 44.0005C91.9559 44.2915 91.7542 44.6184 91.6051 44.97C91.4486 45.3706 91.3729 45.7983 91.3823 46.2283L91.4235 46.7646ZM89.4351 52.8827V50.7127H91.5927V52.8827H89.4351Z" fill="#00BCF8"/>
<path d="M104.819 46.7646H102.999V46.2159C102.989 45.6672 103.064 45.1201 103.222 44.5946C103.359 44.1615 103.562 43.7524 103.825 43.3817C104.06 43.0382 104.337 42.725 104.65 42.4493C104.963 42.177 105.289 41.9171 105.623 41.6655C105.957 41.4138 106.279 41.1663 106.593 40.9146C106.906 40.6631 107.191 40.3781 107.443 40.0648C108.002 39.3732 108.295 38.5035 108.268 37.6142V37.3461C108.272 36.9123 108.187 36.4824 108.016 36.0836C107.853 35.7004 107.616 35.3528 107.319 35.0605C107.021 34.7682 106.671 34.5345 106.287 34.3716C105.889 34.1995 105.459 34.1124 105.025 34.1158H104.613C104.179 34.1124 103.749 34.1995 103.35 34.3716C102.966 34.5345 102.616 34.7682 102.319 35.0605C102.022 35.3528 101.785 35.7004 101.622 36.0836C101.449 36.4821 101.362 36.912 101.366 37.3461V38.1712L99.5505 37.8741V37.3543C99.5453 36.6913 99.6759 36.0342 99.9341 35.4236C100.185 34.8329 100.548 34.2963 101.003 33.8435C101.465 33.3807 102.014 33.0141 102.619 32.7648C103.224 32.5156 103.872 32.3886 104.526 32.3913H105.103C105.767 32.3854 106.424 32.5175 107.034 32.7791C108.226 33.2831 109.175 34.2317 109.679 35.4236C109.94 36.0333 110.072 36.6908 110.066 37.3543V37.6225C110.076 38.1983 110.001 38.7724 109.844 39.3263C109.707 39.7864 109.504 40.2242 109.241 40.6258C109.009 40.9915 108.732 41.3269 108.416 41.6242C108.103 41.9171 107.777 42.1894 107.447 42.4493C107.117 42.7092 106.787 42.9526 106.473 43.196C106.17 43.434 105.894 43.7037 105.648 44.0005C105.398 44.2903 105.195 44.6174 105.046 44.97C104.889 45.3707 104.813 45.7983 104.823 46.2283L104.819 46.7646ZM102.83 52.8828V50.7127H104.988V52.8828H102.83Z" fill="#00BCF8"/>
<path d="M58.0206 221.853C53.0205 222.76 46.8817 223.845 40.6934 224.881C39.6662 215.648 38.8287 203.403 38.1522 190.503C43.9031 191.547 51.7664 190.292 51.7664 190.292C53.0659 202.71 56.0527 214.806 58.0206 221.853Z" fill="#FDBB00"/>
<path d="M60.3806 359.369C67.3362 361.655 72.5756 364.32 60.4714 363.47C51.4612 362.831 47.7606 362.451 47.5626 360.17C47.3646 357.888 49.3489 351.873 48.6847 345.565C49.3943 348.804 52.9052 350.648 55.2155 348.198C54.2212 352.913 53.425 357.084 60.3806 359.369Z" fill="#424242"/>
<path d="M63.2604 201.287C69.4487 229.935 74.985 255.538 68.4296 291.702C61.8741 327.866 57.6001 345.655 55.2279 348.193C52.9176 350.643 49.4069 348.799 48.6973 345.56C48.6725 345.453 48.6518 345.342 48.6353 345.226C48.1031 341.782 43.136 300.448 48.6353 281.57C54.1346 262.691 39.4272 224.732 41.4157 209.233C43.4042 193.733 60.4096 188.118 63.2604 201.287Z" fill="url(#paint1_linear)"/>
<path d="M22.0256 357.88C26.8979 360.767 27.0918 361.386 19.2451 360.66C12.7845 360.066 12.0585 354.059 11.4603 350.491C10.8621 346.922 13.5931 348.209 15.7838 340.062C15.8428 340.386 15.9514 340.699 16.1056 340.99C17.4546 343.37 20.4373 343.671 22.0256 343.172C16.3613 348.638 17.1575 355 22.0256 357.88Z" fill="#424242"/>
<path d="M47.1665 204.955C52.5297 212.996 66.5564 258.913 65.6487 270.551C63.8046 294.479 23.618 342.685 22.0255 343.18C20.4331 343.676 17.4545 343.379 16.1055 340.998C15.9512 340.707 15.8427 340.394 15.7836 340.07C15.1607 336.943 16.9429 329.653 19.344 319.335C26.7699 287.486 34.9426 285.155 38.2636 271.743C41.5846 258.331 11.4065 225.884 16.4644 204.963C19.74 191.382 41.7992 196.914 47.1665 204.955Z" fill="#FED337"/>
<path d="M67.6581 149.042C68.8009 157.895 68.7926 167.05 67.1053 173.758C63.4212 188.411 54.1347 168.807 52.8393 147.47C56.7915 146.282 64.3288 145.16 67.6581 149.042Z" fill="#FAC28D"/>
<path d="M56.7222 121.994C60.7776 126.676 69.2954 153.2 70.7435 164.376C67.4142 160.494 56.6924 158.089 52.7402 159.277C52.7402 169.492 52.7649 145.906 52.7402 145.122C52.0058 122.91 56.7222 121.994 56.7222 121.994Z" fill="#2191ED"/>
<path d="M32.9872 104.709C33.3343 105.844 33.3127 107.06 32.9253 108.182C32.6271 108.927 32.2287 109.628 31.7412 110.266C28.8534 114.164 22.1824 118.397 17.4546 111.66C11.8439 103.661 12.7845 94.9684 17.4546 91.8371C22.1247 88.7058 26.0521 88.3098 26.0521 88.3098C26.0521 88.3098 23.6182 81.7997 30.8708 78.6726C38.1235 75.5454 44.3323 74.6461 48.3588 84.6834C52.3854 94.7208 44.1839 96.4082 52.6288 103.248C61.0737 110.088 62.171 98.4297 58.8376 97.0394C67.134 95.7605 71.4577 120.287 53.161 118.859C52.7891 118.051 52.2324 117.341 51.5359 116.787C50.8394 116.233 50.0224 115.851 49.1509 115.67C43.0947 114.226 41.003 110.852 40.0748 107.093C40.2141 107.074 40.3519 107.045 40.4873 107.007C44.4891 105.905 45.7021 96.5567 43.2391 89.9682C41.2506 86.6678 30.0869 89.7826 32.4715 95.6821C30.549 93.4956 27.9665 95.1499 29.0267 97.4354C29.7734 99.0856 32.2033 101.817 32.9872 104.709Z" fill="#E8505B"/>
<path d="M32.9253 108.182C33.3126 107.06 33.3343 105.844 32.9871 104.708C33.7629 105.282 34.5918 105.779 35.4625 106.194C37.1127 106.973 38.7629 107.32 40.0583 107.11C40.9866 110.868 43.0782 114.243 49.1345 115.686C50.006 115.867 50.8228 116.249 51.5193 116.803C52.2159 117.357 52.7726 118.067 53.1445 118.876C54.6462 122.246 52.7897 127.382 45.4916 130.736C34.8271 135.638 25.619 123.253 24.3607 116.829C27.1908 115.934 30.5489 114.391 31.7247 110.266C32.218 109.629 32.622 108.928 32.9253 108.182Z" fill="url(#paint2_linear)"/>
<path d="M43.2104 89.9847C45.6857 96.5855 44.4481 105.922 40.4587 107.023C40.3233 107.061 40.1855 107.09 40.0462 107.11C38.759 107.32 37.1211 106.974 35.4503 106.194C34.5796 105.779 33.7507 105.282 32.975 104.709C32.1911 101.821 29.7613 99.0856 29.0022 97.4519C27.9419 95.1663 30.5244 93.512 32.4469 95.6985C30.0747 89.799 41.2384 86.6677 43.2104 89.9847Z" fill="#FAC28D"/>
<path d="M67.0394 194.526C71.4083 209.233 69.5147 219.716 69.5147 219.716C68.6896 225.364 59.8774 228.111 59.8774 228.111C59.8774 228.111 59.1018 225.756 58.0127 221.853C56.0448 214.807 53.0621 202.711 51.746 190.293L51.6718 189.563C51.6429 189.307 51.6182 189.055 51.5935 188.799L51.5315 188.102C51.5109 187.859 51.4862 187.615 51.4697 187.372L51.4078 186.638C51.4078 186.394 51.3706 186.151 51.3541 185.907C51.3211 185.421 51.2881 184.934 51.2593 184.447L51.2221 183.754C51.2221 183.568 51.2015 183.387 51.1974 183.205C51.1933 183.024 51.1726 182.76 51.1644 182.541C51.1644 182.401 51.1644 182.256 51.1644 182.128C51.1644 182 51.1644 181.745 51.1644 181.551C51.1644 181.357 51.1644 181.068 51.1644 180.829C51.1644 180.59 51.1644 180.346 51.1644 180.107C51.1396 178.677 51.1507 177.262 51.1974 175.862C51.874 156.059 46.354 132.177 43.8828 121.908C43.4702 120.118 43.1114 118.74 42.9175 117.869C43.429 117.635 43.8494 117.239 44.114 116.743C44.3787 116.247 44.4729 115.677 44.3821 115.122C44.3131 114.482 44.1315 113.859 43.8457 113.282C43.9901 113.323 50.888 115.365 53.2478 117.535C68.4792 128.257 62.8974 180.606 67.0394 194.526Z" fill="#4A154B"/>
<path d="M51.7541 190.292C51.7541 190.292 43.8909 191.53 38.1399 190.503C38.1069 189.834 38.0698 189.166 38.0368 188.498C38.0038 187.829 37.9625 187.087 37.9295 186.377C37.7975 183.696 37.6737 181.014 37.55 178.295L37.4757 176.575C37.4469 175.841 37.4138 175.106 37.3849 174.376C37.3478 173.518 37.3107 172.664 37.2777 171.806C37.2489 171.055 37.2199 170.304 37.1869 169.557C37.1539 168.811 37.1333 168.114 37.1044 167.4C37.0714 166.525 37.0384 165.656 37.0054 164.793C37.0054 164.528 37.0054 164.269 36.9765 164.005C36.9435 163.031 36.9063 162.061 36.8733 161.117C36.8073 159.235 36.7441 157.382 36.6836 155.555C36.6836 155.238 36.663 154.924 36.6506 154.615C36.6506 154.178 36.6259 153.749 36.6093 153.319C36.5928 152.89 36.5846 152.494 36.5681 152.061L36.5186 150.411C36.5186 150.176 36.5186 149.945 36.498 149.71C36.4649 148.678 36.4361 147.647 36.4031 146.661L36.3783 145.704C36.3783 145.031 36.3371 144.371 36.3206 143.715L36.2958 142.89C36.2958 142.845 36.2958 142.803 36.2958 142.762C36.2958 142.539 36.2958 142.321 36.2958 142.098C36.2958 141.607 36.2669 141.116 36.2545 140.633C36.2545 140.258 36.2546 139.887 36.2257 139.52C36.2257 139.284 36.2257 139.053 36.2051 138.827C36.1844 138.6 36.205 138.29 36.1844 138.026C36.1844 138.026 36.1844 137.993 36.1844 137.981C36.1844 137.725 36.1844 137.469 36.1844 137.222C36.1638 136.508 36.1473 135.815 36.1308 135.13C36.1308 134.862 36.1308 134.602 36.1102 134.338C36.0895 134.074 36.1102 133.814 36.1102 133.554V132.997C36.1102 132.259 36.073 131.545 36.0565 130.852V130.361C36.0565 130.171 36.0565 129.986 36.0565 129.808C36.0565 129.631 36.0565 129.396 36.0565 129.21C36.0565 128.752 36.0359 128.306 36.0236 127.869C36.0112 127.432 36.0235 127.044 35.9988 126.631C35.9988 126.429 35.9988 126.219 35.9988 126.033C35.9988 125.848 35.9988 125.645 35.9988 125.452V124.89C35.9988 124.746 35.9988 124.602 35.9988 124.478C35.9988 124.354 35.9988 124.23 35.9988 124.107C35.9988 123.983 35.9988 123.847 35.9988 123.723C35.9988 123.599 35.9988 123.5 35.9988 123.393C35.9988 123.174 35.9988 122.96 35.9988 122.749C38.6964 123.246 41.4795 122.97 44.027 121.953C46.5023 132.222 52.0181 156.104 51.3416 175.907C51.2976 177.307 51.2865 178.722 51.3085 180.152C51.3085 180.395 51.3085 180.634 51.3085 180.874C51.3085 181.113 51.3085 181.356 51.3085 181.596C51.3085 181.835 51.3085 181.979 51.3085 182.173C51.3085 182.367 51.3085 182.458 51.3085 182.586C51.3085 182.805 51.3086 183.027 51.3416 183.25C51.3746 183.473 51.3416 183.613 51.3663 183.799L51.4035 184.492C51.4324 184.979 51.4654 185.465 51.4984 185.952C51.4984 186.196 51.5355 186.439 51.552 186.683L51.6139 187.417C51.6139 187.66 51.6551 187.904 51.6757 188.147L51.7376 188.844C51.7623 189.1 51.7872 189.352 51.8161 189.607C51.8449 189.863 51.7252 190.049 51.7541 190.292Z" fill="#00BCF8"/>
<path d="M44.3242 115.096C44.415 115.652 44.3209 116.221 44.0563 116.718C43.7917 117.214 43.3712 117.61 42.8596 117.844C43.0535 118.715 43.3919 120.092 43.825 121.883C41.2775 122.9 38.4944 123.176 35.7968 122.679C35.7968 122.477 35.7968 122.267 35.7968 122.089C35.7968 122.023 35.7968 121.953 35.7968 121.887V121.784C35.7968 121.734 35.7968 121.681 35.7968 121.631C35.7968 121.429 35.7968 121.219 35.7968 121.045C35.7968 120.988 35.7968 120.93 35.7968 120.872V120.687C35.7968 120.629 35.7968 120.571 35.7968 120.513C35.7968 120.332 35.7968 120.163 35.7968 119.998C35.7968 119.923 35.7968 119.853 35.7968 119.787C35.7968 119.564 35.7968 119.375 35.7968 119.172C35.7947 119.142 35.7947 119.112 35.7968 119.082C35.7968 118.991 35.7968 118.904 35.7968 118.826V118.748C35.7968 118.583 35.7968 118.438 35.7968 118.314C35.7948 118.29 35.7948 118.265 35.7968 118.24C35.7968 117.98 35.7968 117.828 35.7968 117.828C35.7968 117.828 33.4246 117.848 30.7842 115.785C34.6168 115.303 39.7696 114.837 44.3242 115.096Z" fill="#FAC28D"/>
<path d="M40.6772 224.881C40.9082 226.944 41.1516 228.883 41.4033 230.632C31.9146 228.243 9.50471 231.754 9.00965 228.111C8.21342 220.958 10.6021 217.797 11.1962 192.937C11.7903 168.077 4.24054 155.279 5.23479 140.873C5.87012 131.669 8.57234 125.712 13.5931 121.776L13.6756 121.714C19.4514 117.176 29.1545 114.371 29.1545 114.371C29.6241 114.896 30.1391 115.379 30.6933 115.815C33.3337 117.877 35.7059 117.857 35.7059 117.857C35.7059 117.857 37.3561 146.046 38.635 174.599C39.6333 197.149 40.2234 220.805 40.6772 224.881Z" fill="#4A154B"/>
<path d="M4.50464 165.247C5.00816 161.231 5.30555 157.193 5.39571 153.147C5.53186 149.099 5.56072 145.044 5.74637 140.985C5.84539 138.951 5.98983 136.921 6.25798 134.891C6.49228 132.843 6.97579 130.832 7.69779 128.901C8.07931 127.916 8.61394 126.997 9.28197 126.178C9.62518 125.764 10.0156 125.392 10.4453 125.068C10.8816 124.748 11.3572 124.484 11.8604 124.284C12.3597 124.083 12.8822 123.944 13.4157 123.872C13.9416 123.796 14.473 123.766 15.0041 123.781C16.0779 123.818 17.1314 124.084 18.0941 124.561C19.0387 125.051 19.8882 125.707 20.6024 126.496C20.9561 126.88 21.2868 127.285 21.5926 127.709C21.8978 128.121 22.1742 128.571 22.4382 129.016C23.4548 130.805 24.2843 132.693 24.9135 134.652C26.1456 138.537 27.101 142.505 27.7726 146.525C29.1959 154.529 30.1035 162.615 30.974 170.659L30.4376 170.721C29.9632 166.695 29.4723 162.672 28.9195 158.658C28.3667 154.644 27.7808 150.634 27.0465 146.657C26.6752 144.669 26.2709 142.684 25.8088 140.721C25.3468 138.757 24.8227 136.805 24.1833 134.899C23.57 132.993 22.7642 131.155 21.7782 129.412C21.5265 129 21.2584 128.567 20.9531 128.175C20.6673 127.775 20.3559 127.395 20.0207 127.036C19.3734 126.315 18.6003 125.719 17.7393 125.275C16.8777 124.85 15.9354 124.613 14.9752 124.581C14.4924 124.568 14.0094 124.595 13.5313 124.664C13.0594 124.729 12.5969 124.849 12.1533 125.023C11.7134 125.198 11.2975 125.428 10.9157 125.708C10.5326 125.991 10.185 126.319 9.88015 126.685C9.26311 127.441 8.7689 128.289 8.41562 129.198C7.71045 131.067 7.2366 133.015 7.00468 134.998C6.73652 136.991 6.59211 139.004 6.4766 141.026C6.25795 145.065 6.19608 149.12 6.02693 153.175C5.88537 157.238 5.53288 161.291 4.97082 165.317L4.50464 165.247Z" fill="#B55A3D"/>
<path d="M32.6117 174.781C32.9954 180.556 32.6695 187.157 32.1125 193.185C30.7717 207.793 10.0533 202.875 3.49376 198.106C-2.00143 194.109 0.13149 184.051 2.18187 172.503C1.70744 183.052 3.23385 185.585 15.6599 186.943C27.9457 188.255 32.7313 177.615 32.6117 174.781Z" fill="#B55A3D"/>
<path d="M32.612 174.781C32.7316 177.615 27.9377 188.255 15.6602 186.926C3.23414 185.585 1.70773 183.052 2.18217 172.487C2.59472 170.251 2.97426 167.949 3.30842 165.647C4.40169 158.114 17.3352 157.251 25.4089 159.021C30.1078 160.057 32.0633 166.542 32.6079 174.665C32.612 174.704 32.6134 174.742 32.612 174.781Z" fill="#F27851"/>
<path d="M18.1519 128.192C24.3897 132.969 33.2555 157.545 39.4149 158.898C36.1639 161.052 40.7482 179.58 46.2063 177.761C44.0156 178.772 36.3277 178.038 32.1851 176.805C18.7813 172.816 10.7384 145.659 9.28206 139.244C7.82575 132.829 8.79112 121.022 18.1519 128.192Z" fill="url(#paint3_linear)"/>
<path d="M73.9866 118.397C80.047 118.847 74.1269 121.31 70.4799 125.163C70.2051 127.347 69.4407 129.442 68.2438 131.289L62.9343 129.949C64.0812 125.514 67.9221 117.985 73.9866 118.397Z" fill="#F2B08A"/>
<path d="M62.9343 129.949L68.2438 131.298C66.7875 145.279 56.4655 169.22 45.2853 174.372C39.8273 176.192 36.1638 161.047 39.4147 158.893C45.5741 160.255 62.9343 129.949 62.9343 129.949Z" fill="#F2B08A"/>
<defs>
<filter id="filter0_d" x="22.5916" y="0" width="132.428" height="101.925" filterUnits="userSpaceOnUse" color-interpolation-filters="sRGB">
<feFlood flood-opacity="0" result="BackgroundImageFix"/>
<feColorMatrix in="SourceAlpha" type="matrix" values="0 0 0 0 0 0 0 0 0 0 0 0 0 0 0 0 0 0 127 0"/>
<feOffset dy="4"/>
<feGaussianBlur stdDeviation="5"/>
<feColorMatrix type="matrix" values="0 0 0 0 0.258824 0 0 0 0 0.258824 0 0 0 0 0.258824 0 0 0 0.1 0"/>
<feBlend mode="normal" in2="BackgroundImageFix" result="effect1_dropShadow"/>
<feBlend mode="normal" in="SourceGraphic" in2="effect1_dropShadow" result="shape"/>
</filter>
<linearGradient id="paint0_linear" x1="-174269" y1="149805" x2="-183827" y2="149805" gradientUnits="userSpaceOnUse">
<stop stop-color="#4A154B"/>
<stop offset="1" stop-color="#963298"/>
</linearGradient>
<linearGradient id="paint1_linear" x1="56.3062" y1="193.922" x2="56.3062" y2="349.321" gradientUnits="userSpaceOnUse">
<stop stop-color="#FED337"/>
<stop offset="1" stop-color="#FDBB00"/>
</linearGradient>
<linearGradient id="paint2_linear" x1="-141568" y1="12555.1" x2="-141235" y2="12035" gradientUnits="userSpaceOnUse">
<stop stop-color="#FAC28D"/>
<stop offset="0.25" stop-color="#EDB886"/>
<stop offset="0.62" stop-color="#E2AF7F"/>
<stop offset="1" stop-color="#DEAC7D"/>
</linearGradient>
<linearGradient id="paint3_linear" x1="73893.3" y1="27266.6" x2="77133.3" y2="27266.6" gradientUnits="userSpaceOnUse">
<stop stop-color="#00BCF8"/>
<stop offset="1" stop-color="#2191ED"/>
</linearGradient>
</defs>
</svg>
