<svg width="335" height="289" viewBox="0 0 335 289" fill="none" xmlns="http://www.w3.org/2000/svg">
<path d="M113.052 25.1129C101.965 12.4901 87.1914 2.20316 70.4969 0.312573C56.7194 -1.24971 42.5721 3.14279 31.3531 11.2863C20.1341 19.4298 11.7302 31.1356 6.4471 43.9584C-2.05111 64.6039 -2.46998 88.8646 7.11882 109.012C16.7076 129.159 36.6965 144.518 58.9119 146.722C102.278 151.024 139.569 104.619 132.445 63.1812C130.007 48.9245 122.509 35.8715 113.052 25.1129Z" fill="#2EB67D"/>
<path d="M7.22073 74.8945C6.20939 89.5551 8.91882 105.084 18.0246 116.604C25.5417 126.125 36.9795 132.208 48.9683 134.163C60.9572 136.118 73.3799 134.118 84.5952 129.499C102.66 122.065 117.973 107.393 124.596 89.0192C131.218 70.6454 128.407 48.7735 116.109 33.6073C92.0707 4.01823 40.2589 9.43338 18.919 39.3847C11.5717 49.6905 8.08866 62.3849 7.22073 74.8945Z" fill="white"/>
<path d="M73.4215 54.6716C73.6743 50.83 73.9498 46.9847 74.1762 43.1394C74.3988 39.3657 74.9309 35.3996 74.58 31.6109C74.58 31.5468 74.1497 32.0675 74.1233 32.1921C72.6478 39.962 72.4403 48.0715 71.7875 55.9433L70.8026 67.7887C70.5309 71.0944 69.995 74.5058 69.8742 77.8567C67.8629 78.2341 65.8214 78.8379 64.0025 79.1813L52.9797 81.2568C45.5608 82.6568 37.8173 83.7474 30.6059 85.9965C30.5681 85.9965 30.4813 86.1663 30.5078 86.1663C37.3343 86.1663 44.4701 84.5587 51.2212 83.5247L61.4854 81.9511C65.0364 81.4077 69.0666 81.2719 72.429 80.0115C72.8403 79.8568 74.1385 77.6152 73.9045 77.5926C73.2092 77.5265 72.5092 77.5265 71.8139 77.5926V77.5473C72.9799 70.0642 72.9347 62.2226 73.4215 54.6716Z" fill="#2E4A74"/>
<path d="M51.3231 122.725C51.3231 122.725 51.2174 122.846 51.2099 122.868C50.7427 124.381 50.3647 125.919 50.0778 127.476C49.8891 128.521 49.5608 129.642 49.742 130.706C49.742 130.804 50.1495 130.261 50.1759 130.186C50.9419 127.872 51.4929 125.17 51.3231 122.725Z" fill="#2E4A74"/>
<path d="M72.9762 124.71C72.7762 123.914 72.7007 122.959 72.2215 122.292C72.1875 122.242 71.961 122.616 71.961 122.669C71.8969 124.597 72.4591 126.692 73.1723 128.469C73.195 128.529 73.4893 128.152 73.478 128.05C73.4054 126.925 73.2376 125.807 72.9762 124.71Z" fill="#2E4A74"/>
<path d="M94.5197 115.808C93.8556 114.823 93.2442 113.423 91.9537 113.269C91.9084 113.269 91.8405 113.397 91.8405 113.431C91.8933 114.842 92.5047 115.808 93.2367 116.974C93.8556 117.963 94.4518 119.389 95.5424 119.914C95.7235 120.005 96.2104 119.159 96.1764 118.993C95.9538 117.778 95.199 116.823 94.5197 115.808Z" fill="#2E4A74"/>
<path d="M113.433 103.246C112.897 102.367 112.105 101.869 111.245 101.359C110.446 100.821 109.589 100.374 108.69 100.027C108.463 99.9517 107.758 101.042 107.935 101.208C108.642 101.86 109.419 102.43 110.252 102.91C111.105 103.454 111.905 103.944 112.935 104.042C113.097 104.05 113.524 103.397 113.433 103.246Z" fill="#2E4A74"/>
<path d="M122.826 84.8081C121.755 84.4437 120.65 84.1908 119.528 84.0534C118.335 83.876 117.43 83.6534 116.264 84.0873C116.241 84.0873 116.18 84.1741 116.196 84.1968C116.83 85.1251 118.26 85.0609 119.305 85.2307C120.331 85.4048 121.37 85.4869 122.411 85.476C122.543 85.4836 122.905 84.8383 122.826 84.8081Z" fill="#2E4A74"/>
<path d="M121.992 69.4567C121.254 69.2062 120.484 69.0663 119.705 69.0417C119.353 68.999 118.999 68.9826 118.645 68.9926C118.063 69.0605 117.769 69.4794 117.165 69.5775C117.165 69.5775 117.082 69.6832 117.097 69.6869C117.258 69.8354 117.386 70.0152 117.475 70.2153C117.543 70.3029 117.636 70.3691 117.741 70.4059C117.846 70.4427 117.959 70.4486 118.067 70.4228C118.414 70.4718 118.763 70.4983 119.113 70.5021C119.888 70.5414 120.665 70.4921 121.43 70.3549C121.615 70.3322 122.113 69.4945 121.992 69.4567Z" fill="#2E4A74"/>
<path d="M121.286 55.355C119.618 55.189 117.426 55.355 115.969 56.2041C115.969 56.2041 115.879 56.2946 115.901 56.3173C116.4 56.8154 117.411 56.5324 118.041 56.4607C119.024 56.3683 119.997 56.1864 120.947 55.9173C121.108 55.7635 121.225 55.5694 121.286 55.355Z" fill="#2E4A74"/>
<path d="M118.218 40.9849C116.324 41.7021 114.544 42.6924 112.935 43.9245C112.916 43.9245 112.822 44.0906 112.849 44.0868C114.633 43.8377 116.452 42.4943 117.943 41.5283C118.071 41.3677 118.164 41.1828 118.218 40.9849Z" fill="#2E4A74"/>
<path d="M107.569 32.2676C107.194 32.4674 106.841 32.7065 106.516 32.9808C106.101 33.2738 105.709 33.598 105.343 33.9506C105.343 33.9506 105.241 34.1091 105.267 34.1053C105.629 33.9835 105.962 33.7882 106.244 33.5317C106.642 33.2735 107.02 32.9872 107.377 32.6751C107.466 32.553 107.532 32.4146 107.569 32.2676Z" fill="#2E4A74"/>
<path d="M40.4211 119.307C38.8513 120.382 37.4664 122.103 36.338 123.624C36.289 123.692 35.9154 124.378 36.1494 124.22C36.8714 123.658 37.5261 123.015 38.1003 122.303C38.8777 121.435 39.6098 120.578 40.3155 119.661C40.3457 119.605 40.5532 119.22 40.4211 119.307Z" fill="#2E4A74"/>
<path d="M22.1229 109.793C21.971 109.966 21.8612 110.171 21.8021 110.393C23.6058 109.785 25.3013 108.893 26.8248 107.752C26.8475 107.752 26.9343 107.586 26.9116 107.589C25.104 107.925 23.6588 108.831 22.1229 109.793Z" fill="#2E4A74"/>
<path d="M21.7492 92.9815C20.3304 93.0759 18.9228 93.2759 17.4888 93.2306C17.2322 93.2306 16.5001 94.3627 16.685 94.4683C18.534 95.3891 20.2925 94.4306 21.6737 93.1325C21.685 93.1174 21.7794 92.9777 21.7492 92.9815Z" fill="#2E4A74"/>
<path d="M17.2587 78.0681C16.2444 77.9637 15.2204 78.0031 14.2171 78.1851C14.0963 78.1851 13.6586 78.8568 13.7718 78.9172C14.6233 79.4274 15.5672 79.7647 16.5493 79.9097C17.7115 80.0682 18.6021 79.8417 19.7455 79.5323C19.7719 79.5323 19.8738 79.3927 19.8474 79.3625C18.9719 78.4757 18.4436 78.2606 17.2587 78.0681Z" fill="#2E4A74"/>
<path d="M19.9076 62.385C19.5427 62.1435 19.1561 61.9363 18.7529 61.7661C18.2915 61.6328 17.8142 61.563 17.334 61.5586C17.1604 61.5586 16.7227 62.1963 16.8208 62.3435C17.0499 62.746 17.3359 63.1133 17.6699 63.4341C18.025 63.6957 18.4041 63.9231 18.802 64.1133C19.6737 64.5851 20.3378 64.5813 21.3001 64.4681C21.334 64.4681 21.4208 64.3397 21.4057 64.3058C21.051 63.4454 20.7265 62.8794 19.9076 62.385Z" fill="#2E4A74"/>
<path d="M24.2322 44.9736C24.1266 44.9736 23.8361 45.3925 23.904 45.4831C24.4017 46.0855 25.0258 46.5712 25.732 46.9057C26.4383 47.2402 27.2093 47.4154 27.9908 47.4189C28.0134 47.4189 28.0701 47.3284 28.0588 47.3057C27.3493 46.0604 25.6587 45.1019 24.2322 44.9736Z" fill="#2E4A74"/>
<path d="M40.9079 32.4752C40.6248 32.0035 40.2286 31.5695 39.9003 31.128C39.248 30.2619 38.487 29.4831 37.6362 28.811C37.5682 28.7544 37.2135 29.2676 37.2588 29.3733C37.7554 30.3384 38.3606 31.2436 39.0626 32.0714C39.3834 32.4488 39.7004 32.8035 40.0249 33.1658C40.3995 33.5453 40.8548 33.8355 41.357 34.0148C41.3796 34.0148 41.44 33.9243 41.4325 33.9054C41.3067 33.4121 41.1309 32.9329 40.9079 32.4752Z" fill="#2E4A74"/>
<path d="M55.1986 25.1508C55.1193 24.8074 54.9834 24.4602 54.8702 24.1281C54.6979 23.5599 54.3698 23.0514 53.9231 22.6602C53.825 22.5809 53.5042 23.1659 53.508 23.2564C53.5295 24.004 53.6854 24.7416 53.9684 25.4338C54.0808 25.7439 54.2184 26.0442 54.3797 26.3319C54.3836 26.4233 54.4186 26.5106 54.479 26.5793C54.5395 26.648 54.6216 26.6938 54.7118 26.7093C54.8798 26.7087 55.0417 26.7721 55.1646 26.8867C55.1646 26.8867 55.2477 26.8036 55.2401 26.781C55.1156 26.2263 55.3118 25.7018 55.1986 25.1508Z" fill="#2E4A74"/>
<path d="M68.1272 19.7432C67.9746 19.868 67.8553 20.0288 67.7801 20.2111C67.6738 20.9798 67.6334 21.7563 67.6593 22.5319C67.7008 23.1281 67.8706 23.713 67.931 24.313C67.931 24.313 68.0442 24.2036 68.0442 24.1583C68.1423 22.6338 68.3763 21.2602 68.1272 19.7432Z" fill="#2E4A74"/>
<path d="M80.482 19.8036C79.648 21.5244 78.7914 23.3508 78.448 25.2377C78.448 25.3056 78.5687 25.1244 78.58 25.1056C79.5581 23.2987 80.3291 21.3872 80.8782 19.4074C80.9159 19.2187 80.5084 19.7357 80.482 19.8036Z" fill="#2E4A74"/>
<path d="M93.1539 23.3054C92.4407 23.6111 91.886 24.6715 91.4445 25.2677C90.7792 26.114 90.1715 27.0041 89.6256 27.9319C89.6256 27.9583 89.4255 28.3507 89.5953 28.2224C90.2516 27.6438 90.8334 26.9859 91.3275 26.2639C92.0181 25.4743 92.6181 24.6098 93.1162 23.6865C93.1313 23.6526 93.3124 23.245 93.1539 23.3054Z" fill="#2E4A74"/>
<path opacity="0.17" d="M280.352 34.9401L280.242 34.8066H133.982L134.313 35.1657H132.974C128.889 35.1657 124.971 36.7885 122.083 39.677C119.194 42.5655 117.571 46.4833 117.571 50.5683V206.256H104.682L104.572 206.389C101.495 210.081 99.8104 214.735 99.8104 219.541C99.8104 224.347 101.495 229 104.572 232.692L104.682 232.826H251.112C255.559 232.826 259.823 231.06 262.967 227.915C266.111 224.771 267.878 220.507 267.878 216.061V61.3906H280.242L280.352 61.2617C283.432 57.5675 285.118 52.9103 285.118 48.1009C285.118 43.2915 283.432 38.6343 280.352 34.9401Z" fill="black"/>
<path d="M181.847 289C229.485 289 268.103 284.249 268.103 278.389C268.103 272.529 229.485 267.779 181.847 267.779C134.209 267.779 95.5907 272.529 95.5907 278.389C95.5907 284.249 134.209 289 181.847 289Z" fill="#DDD2DF"/>
<path d="M114.5 275C162.273 275 201 272.314 201 269C201 265.686 162.273 263 114.5 263C66.7274 263 28 265.686 28 269C28 272.314 66.7274 275 114.5 275Z" fill="#DDD2DF"/>
<path d="M129.19 57.5701H275.45L275.56 57.4366C278.637 53.7446 280.322 49.0909 280.322 44.2851C280.322 39.4793 278.637 34.8255 275.56 31.1335L275.45 31H129.19L129.917 31.778C133.178 35.2919 134.939 39.9388 134.827 44.7311C134.716 49.5233 132.739 54.0831 129.319 57.4412L129.19 57.5701Z" fill="#E0E0E0"/>
<path d="M246.325 229.015H112.784V46.757C112.783 44.7347 113.181 42.7322 113.955 40.8637C114.728 38.9953 115.863 37.2976 117.292 35.8676C118.722 34.4377 120.42 33.3035 122.289 32.5299C124.157 31.7563 126.16 31.3584 128.182 31.359H258.827C258.827 31.359 272.389 30.5534 272.113 31.359C262.602 31.5431 263.09 57.9291 263.09 57.9291V212.249C263.089 216.695 261.322 220.959 258.178 224.103C255.035 227.247 250.771 229.013 246.325 229.015Z" fill="#F5F5F5"/>
<path d="M246.132 229.015H99.8717L99.7612 228.881C96.6848 225.189 95 220.536 95 215.73C95 210.924 96.6848 206.27 99.7612 202.578L99.8717 202.445H246.132L245.404 203.223C238.619 210.528 237.468 222.989 246.132 229.001V229.015Z" fill="#E0E0E0"/>
<path d="M236.133 60.8291H145.274V68.4751H236.133V60.8291Z" fill="#FED337"/>
<path d="M248.774 190.752H208.15V193.243H248.774V190.752Z" fill="#4A154B"/>
<path d="M248.779 82.8423H132.629V85.9495H248.779V82.8423Z" fill="#E6E6E6"/>
<path d="M248.779 98.0884H132.629V101.196H248.779V98.0884Z" fill="#E6E6E6"/>
<path d="M248.779 113.334H132.629V116.442H248.779V113.334Z" fill="#E6E6E6"/>
<path d="M248.779 128.585H132.629V131.692H248.779V128.585Z" fill="#E6E6E6"/>
<path d="M248.779 143.831H132.629V146.938H248.779V143.831Z" fill="#E6E6E6"/>
<path d="M248.779 174.328H132.629V177.435H248.779V174.328Z" fill="#E6E6E6"/>
<path d="M248.779 159.078H132.629V162.185H248.779V159.078Z" fill="#E6E6E6"/>
<path opacity="0.28" d="M334.123 72.3695L332.788 71.5455L332.429 71.3292L331.785 70.9287L333.87 67.5407C333.93 67.4376 333.948 67.3152 333.92 67.1992C333.891 67.0833 333.819 66.9829 333.718 66.9192L322.247 59.867C322.144 59.8068 322.021 59.789 321.905 59.8174C321.789 59.8457 321.689 59.918 321.625 60.0189L319.54 63.4069L318.776 62.9466C318.693 62.8969 318.594 62.8815 318.501 62.9039C318.407 62.9263 318.326 62.9846 318.274 63.0663L317.381 64.5209C317.356 64.5617 317.339 64.607 317.331 64.6544C317.324 64.7017 317.326 64.7501 317.337 64.7967C317.348 64.8433 317.368 64.8873 317.396 64.9261C317.424 64.9649 317.46 64.9977 317.501 65.0227L318.27 65.483L300.294 94.7368C300.233 94.8394 300.215 94.9614 300.242 95.0773C300.27 95.1931 300.341 95.2939 300.441 95.3583L301.486 95.9981L262.271 159.804L261.461 159.302C261.39 159.26 261.313 159.231 261.231 159.218C261.15 159.205 261.067 159.208 260.987 159.228C260.907 159.247 260.832 159.282 260.765 159.33C260.699 159.378 260.643 159.439 260.6 159.51C260.515 159.65 260.489 159.819 260.528 159.978C260.566 160.138 260.667 160.275 260.807 160.361L261.728 160.914L261.52 161.374L260.535 160.822C260.465 160.779 260.387 160.75 260.306 160.737C260.225 160.724 260.142 160.728 260.062 160.747C259.982 160.766 259.907 160.801 259.84 160.849C259.774 160.898 259.717 160.959 259.674 161.029C259.589 161.169 259.562 161.338 259.6 161.498C259.638 161.659 259.737 161.797 259.877 161.885L260.982 162.562L257.336 170.709L253.313 179.695L251.099 181.076L249.087 189.62L250.219 190.282L257.124 184.625L257.493 182.222L264.029 174.815L269.963 168.099L270.943 168.702C271.013 168.745 271.091 168.774 271.173 168.787C271.254 168.8 271.337 168.796 271.417 168.777C271.497 168.758 271.572 168.723 271.638 168.675C271.705 168.626 271.761 168.565 271.804 168.495C271.847 168.426 271.876 168.348 271.889 168.268C271.902 168.187 271.899 168.105 271.88 168.025C271.862 167.946 271.827 167.87 271.779 167.804C271.732 167.738 271.671 167.682 271.602 167.639L270.805 167.151L271.146 166.764L271.864 167.225C272.005 167.312 272.175 167.339 272.336 167.301C272.498 167.263 272.637 167.163 272.725 167.022C272.81 166.881 272.837 166.713 272.799 166.552C272.761 166.392 272.662 166.253 272.522 166.166L271.924 165.798L309.33 104.933L311.139 101.992L311.899 102.452C312.001 102.513 312.123 102.531 312.239 102.504C312.355 102.476 312.456 102.405 312.52 102.305L330.473 73.0554L330.809 73.2625C330.85 73.2871 330.885 73.3195 330.913 73.3579C330.941 73.3962 330.962 73.4398 330.973 73.4861C330.984 73.5323 330.986 73.5803 330.978 73.6273C330.971 73.6743 330.954 73.7193 330.929 73.7597L319.117 92.983C319.091 93.0234 319.075 93.0684 319.067 93.1154C319.059 93.1623 319.061 93.2103 319.072 93.2566C319.084 93.3029 319.104 93.3464 319.132 93.3848C319.16 93.4232 319.196 93.4556 319.236 93.4801L320.617 94.3317C320.657 94.3571 320.702 94.3742 320.749 94.3821C320.796 94.39 320.844 94.3886 320.89 94.3779C320.936 94.3672 320.98 94.3474 321.018 94.3198C321.057 94.2921 321.09 94.257 321.114 94.2167L334.202 72.9173C334.238 72.8786 334.265 72.8321 334.281 72.7815C334.297 72.7308 334.301 72.6772 334.294 72.6246C334.286 72.572 334.267 72.5218 334.238 72.4776C334.208 72.4335 334.169 72.3965 334.123 72.3695Z" fill="black"/>
<path d="M260.835 173.104L254.1 169.067L258.694 158.493L302.425 85.54L312.157 91.3724L268.458 164.275L260.835 173.104Z" fill="#153E49"/>
<path d="M317.168 57.6699L296.217 92.6199C296.089 92.8336 296.159 93.1107 296.372 93.2388L307.925 100.164C308.139 100.292 308.416 100.223 308.544 100.009L329.494 65.0588C329.622 64.8451 329.553 64.5681 329.339 64.44L317.786 57.5149C317.573 57.3868 317.296 57.4562 317.168 57.6699Z" fill="#113542"/>
<path d="M328.475 69.0828L328.116 68.8665L314.366 60.6266C314.325 60.6017 314.28 60.5851 314.233 60.5779C314.186 60.5706 314.138 60.5729 314.091 60.5844C314.045 60.596 314.002 60.6167 313.963 60.6453C313.925 60.6739 313.893 60.7098 313.869 60.7509L312.994 62.2147C312.969 62.2554 312.953 62.3007 312.946 62.3478C312.938 62.395 312.94 62.4431 312.952 62.4894C312.964 62.5357 312.984 62.5792 313.013 62.6174C313.041 62.6556 313.077 62.6877 313.119 62.7119L326.551 70.7676C326.634 70.8166 326.694 70.8964 326.718 70.9896C326.742 71.0828 326.728 71.1817 326.68 71.2648L315.08 90.5986C315.055 90.6392 315.038 90.6845 315.031 90.7316C315.024 90.7788 315.026 90.8269 315.037 90.8732C315.049 90.9195 315.07 90.963 315.098 91.0012C315.127 91.0394 315.163 91.0715 315.204 91.0957L316.585 91.9335C316.667 91.9826 316.766 91.9971 316.859 91.9738C316.952 91.9505 317.032 91.8914 317.082 91.8092L329.934 70.3672C329.983 70.2847 329.998 70.1861 329.975 70.093C329.951 69.9998 329.892 69.9197 329.81 69.87L328.475 69.0828Z" fill="#1A1A1A"/>
<path d="M254.362 180.588L250.178 178.084L258.694 158.492L268.425 164.325L254.362 180.588Z" fill="#5D7A7F"/>
<path d="M254.362 180.588L250.178 178.083L247.982 179.497L246.067 188.063L247.181 188.731L254.022 182.995L254.362 180.588Z" fill="#DAE7E8"/>
<path d="M257.246 157.834L257.241 157.842C257.063 158.138 257.16 158.523 257.456 158.701L268.602 165.382C268.899 165.56 269.283 165.464 269.461 165.167L269.466 165.159C269.643 164.863 269.547 164.478 269.251 164.3L258.105 157.619C257.808 157.441 257.424 157.537 257.246 157.834Z" fill="#688689"/>
<path d="M256.339 159.349L256.334 159.357C256.156 159.653 256.252 160.038 256.549 160.215L267.695 166.897C267.991 167.074 268.376 166.978 268.554 166.682L268.559 166.674C268.736 166.377 268.64 165.993 268.343 165.815L257.197 159.134C256.901 158.956 256.516 159.052 256.339 159.349Z" fill="#688689"/>
<path d="M250.62 183.663C250.527 183.821 250.39 183.947 250.225 184.026C250.06 184.106 249.876 184.134 249.695 184.108C249.514 184.082 249.345 184.002 249.209 183.88C249.074 183.757 248.977 183.597 248.933 183.42C248.889 183.243 248.898 183.056 248.96 182.884C249.022 182.712 249.134 182.563 249.281 182.454C249.429 182.346 249.605 182.284 249.788 182.277C249.97 182.269 250.151 182.316 250.307 182.411C250.513 182.537 250.661 182.739 250.719 182.973C250.778 183.207 250.742 183.455 250.62 183.663Z" fill="#153E49"/>
<path d="M249.415 183.443L246.497 188.311L246.876 188.538L249.794 183.67L249.415 183.443Z" fill="#153E49"/>
<path opacity="0.28" d="M297.431 93.8765L307.157 99.7088L301.781 108.685L297.431 93.8765Z" fill="black"/>
<path d="M158.094 60.8291H145.274V68.4751H158.094V60.8291Z" fill="#4A154B"/>
</svg>
