<svg width="589" height="568" viewBox="0 0 589 568" fill="none" xmlns="http://www.w3.org/2000/svg">
<path d="M502.078 519.744C512.529 520.087 522.976 520.469 533.417 520.891C565.217 522.179 596.955 523.836 628.632 525.863C657.471 527.71 728.085 529.787 736.565 538.489C742.251 544.329 690.511 544.268 679.071 546.097C660.827 549.015 642.425 551.615 623.864 553.898C582.904 558.935 541.372 562.177 499.607 564.464C425.217 568.537 350.065 569.374 275.58 565.482C229.729 563.086 183.297 558.619 138.934 551.492C116.057 547.834 93.6648 543.418 71.8975 538.273C63.0243 536.169 16.9946 527.086 38.8059 519.949C42.6223 518.699 47.9185 518.631 52.2876 518.606C131.403 518.145 53.706 493.552 132.493 492.049C203.379 490.703 431.277 517.424 502.078 519.744Z" fill="#DDD2DF"/>
<path d="M599.177 255.043L595.831 306.979C553.133 306.457 510.32 307.124 467.568 307.393C468.648 290.788 469.742 274.246 470.848 257.765C512.765 259.564 557.257 253.243 599.177 255.043Z" fill="#00BCF8"/>
<path d="M590.658 387.33C589.45 406.126 588.24 424.921 587.029 443.716C543.931 441.277 502.096 441.288 459 438.846C460.203 421.016 461.386 403.09 462.549 385.069C505.251 385.646 547.954 386.4 590.658 387.33Z" fill="#00BCF8"/>
<path d="M467.568 307.39C510.32 307.116 553.133 306.454 595.831 306.976C594.109 333.754 592.385 360.533 590.658 387.313C547.954 386.456 505.251 385.703 462.549 385.052C464.227 359.197 465.887 333.243 467.568 307.39Z" fill="#00A8DE"/>
<path d="M541.524 180.314C543.521 173.817 545.263 167.274 547.043 160.717C548.765 154.36 550.911 148.171 552.946 141.91C554.869 135.952 556.792 129.985 559.539 124.343C562.286 118.7 564.959 113.05 567.561 107.327C570.075 101.806 572.847 96.4179 575.876 91.1637C578.67 86.3262 581.994 81.9061 585.087 77.2718C590.768 68.756 596.138 58.1056 606.445 54.5234C606.465 54.5234 606.509 54.6031 606.498 54.6058C597.751 58.2979 592.504 67.4813 587.708 75.1703C584.941 79.6096 581.835 83.8181 579.115 88.2848C575.942 93.5695 573.159 99.0782 570.786 104.767C568.396 110.388 566.36 116.132 563.707 121.637C560.783 127.64 558.252 133.827 556.13 140.158C554.073 146.363 551.864 152.536 550.048 158.816C548.205 165.183 546.65 171.628 544.67 177.957C542.519 184.838 540.494 191.599 539.409 198.75C538.324 205.9 538.035 213.034 537.761 220.207C537.761 220.229 536.972 219.454 536.937 219.108C536.131 206.006 537.685 192.867 541.524 180.314Z" fill="#014880"/>
<path d="M547.592 143.05C547.678 133.598 547.521 124.233 548.417 114.805C549.301 105.504 550.96 96.2598 552.729 87.0901C553.982 80.5768 555.441 74.08 557.443 67.7507C557.443 67.7507 559.5 59.5 564 53.5L571.176 42.6509C571.929 41.552 572.651 40.4147 573.338 39.2198C575.448 35.5442 577.827 33.135 581.777 31.528C583.477 30.833 585.194 30.1737 586.634 29.0035C588.073 27.8332 589.004 26.2729 590.029 24.784C592.07 21.8336 594.334 20.3227 597.564 18.8421C601.894 16.8614 606.193 14.8341 610.371 12.5596C614.481 10.3317 618.648 8.80707 623.112 7.41156C627.691 5.96936 632.029 4.09038 636.377 2.06305C637.858 1.37628 639.339 0.670283 640.83 0C634.559 11.0569 625.56 21.2595 618.642 32.3851C613.956 39.8021 610.833 46.8374 606.146 54.6363C602.633 60.8858 596.383 64.8004 592.087 70.6489C579.98 87.4417 566.311 100.721 558.891 119.077C553.845 132.007 551.345 144.94 548.307 158.283C547.782 153.223 547.544 148.137 547.592 143.05Z" fill="#0183CC"/>
<path d="M592.07 70.6626C596.367 64.8031 602.616 60.8995 606.13 54.65C610.816 46.8401 613.939 39.8158 618.626 32.3988C625.543 21.2732 634.542 11.0706 640.814 0.0136719C641.135 3.83483 642.418 7.57633 643.388 11.2437C644.731 16.3367 644.805 21.4517 644.918 26.6876C645.165 36.5345 644.855 46.3874 643.99 56.1993C643.539 61.0698 642.932 65.9431 641.778 70.701C640.58 75.6705 639.061 80.5547 637.877 85.5352C637.176 88.5729 636.258 91.5565 635.13 94.4631C624.417 89.2162 611.868 88.6943 599.877 89.0267C607.69 94.1032 616.28 99.1908 618.233 108.943C618.674 110.872 618.81 112.859 618.634 114.83C618.206 115.229 617.781 115.631 617.36 116.036C613.926 119.362 610.616 122.807 607.327 126.277C604.154 129.623 601.284 133.301 597.949 136.496C595.899 138.423 593.541 139.991 590.971 141.136C584.378 141.96 572 149.5 562.951 151.709C558.647 153.393 554.477 155.352 550.559 157.895C549.823 158.371 549.106 158.887 548.406 159.431C548.362 159.055 548.326 158.678 548.287 158.305C551.326 144.962 553.826 132.029 558.872 119.099C566.3 100.735 579.969 87.4553 592.07 70.6626Z" fill="#014880"/>
<path d="M491.706 88.5395C483.465 74.4471 476.416 59.753 465.263 48.4324C465.537 48.3143 465.821 48.2223 466.112 48.1577C471.145 47.0314 476.276 52.1821 479.545 55.3C484.038 59.5714 488.18 64.1968 491.932 69.1315C495.981 74.5584 499.699 80.2249 503.065 86.1001C506.326 91.7206 509.326 97.4592 513.738 102.308C515.699 104.459 517.902 106.428 520.504 107.777C526.72 111 529 112 536.277 120.199C537.309 122.162 538.114 124.235 538.676 126.38C540.343 132.668 540.371 139.242 540.049 145.698C539.687 153.115 539.774 160.532 539.5 167.927C539.274 175.409 538.298 182.85 536.585 190.137C535.679 193.903 534.712 197.647 533.643 201.372C533.13 203.183 532.62 204.995 532.113 206.806C531.673 208.369 531.036 209.993 530.822 211.619C530.665 211.976 530.52 212.336 530.399 212.718C530.352 212.83 530.308 212.946 530.267 213.061L530.149 212.962C525.589 192.203 522.847 171.803 517.078 150.648C511.232 128.375 503.813 108.456 491.706 88.5395Z" fill="#014880"/>
<path d="M465.263 48.4429C476.416 59.7525 483.457 74.4465 491.706 88.55C503.813 108.466 511.232 128.382 517.092 150.634C522.861 171.786 525.608 192.188 530.162 212.948C526.11 209.506 522.119 206.08 519.048 201.663C515.056 195.913 511.054 190.125 505.944 185.299C503.546 183.027 500.873 181.085 498.527 178.741C495.066 173.951 489.5 166 484.847 159.982C484.204 158.94 483.633 157.855 483.138 156.735C480.116 149.752 481.638 142.203 481.792 134.871C481.896 129.745 480.85 125.036 479.196 120.391L471.018 98.3597C468.643 90.2117 466.789 81.9208 465.466 73.5373C464.593 68.1558 463.686 62.7661 462.851 57.3763C462.409 54.3573 462.019 49.8384 465.263 48.4429Z" fill="#0183CC"/>
<path d="M512.21 288.032C517.111 291.397 524.116 291.741 529.847 291.823C536.115 291.911 542.395 291.312 548.32 289.227C548.642 289.114 549.656 290.708 549.419 290.905C547.301 292.625 544.079 293.062 541.453 293.471C537.94 293.972 534.388 294.143 530.844 293.982C527.217 293.901 523.607 293.46 520.067 292.666C517.457 292.045 514.795 291.199 512.796 289.345C512.589 289.158 511.886 287.81 512.21 288.032Z" fill="#015BA2"/>
<path d="M527.22 348.187C530.374 348.407 533.539 348.761 536.692 348.824C538.546 348.846 540.396 348.652 542.206 348.247C543.854 347.904 545.502 347.52 547.175 347.885C547.392 347.932 548.12 349.102 547.95 349.154C544.991 350.069 541.733 350.896 538.61 350.942C535.236 350.995 531.844 350.668 528.484 350.42C522.743 349.984 516.946 349.286 512.241 345.704C512.103 345.525 511.997 345.325 511.928 345.11C516.466 347.363 522.254 347.838 527.22 348.187Z" fill="#015BA2"/>
<path d="M511.378 415.759C514.125 416.663 516.639 417.957 519.52 418.55C521.951 419.05 524.413 419.185 526.888 419.286C529.463 419.425 532.044 419.411 534.618 419.245C536.816 419.075 538.865 418.262 541.033 418.015C541.255 417.987 541.736 418.764 541.645 418.957C540.67 421.006 537.428 421.154 535.448 421.347C533.015 421.556 530.571 421.596 528.132 421.468C522.451 421.251 516.238 420.644 511.829 416.682C511.721 416.586 511.254 415.718 511.378 415.759Z" fill="#015BA2"/>
<path d="M479.77 206.815C479.454 204.386 479.266 201.941 479.207 199.492C514.554 201.36 552.213 206.085 587.535 203.824C586.985 206.379 586.337 208.922 585.612 211.436C550.691 217.048 513.471 218.029 479.77 206.815Z" fill="#FDC833"/>
<path d="M585.601 211.436C582.917 220.592 578.945 229.369 573.223 236.984C565.932 246.678 555.641 254.375 543.867 257.271C527.764 261.229 510.018 255.623 498.008 244.178C487.77 234.429 481.603 220.881 479.77 206.818C513.471 218.029 550.691 217.048 585.601 211.436Z" fill="#FDBB00"/>
<path d="M33.0594 522.952L62.4394 391.047H68.8257L37.1495 523.337L33.0594 522.952Z" fill="#53546B"/>
<path d="M88.117 515.286L115.45 391.59H121.837L92.2071 515.67L88.117 515.286Z" fill="#53546B"/>
<path d="M144.842 400.986L186.067 533.408H180.65L134.501 399.33L144.842 400.986Z" fill="#53546B"/>
<path d="M193.746 399.157L230.772 523.563H226.473L185.536 397.842L193.746 399.157Z" fill="#53546B"/>
<path d="M24.8905 309.704C18.9476 291.206 10.9229 273.779 5.55246 255.319C3.71143 255.29 1.86448 255.269 -3.43323e-05 255.257C14.0726 301.667 30.7375 347.25 49.9162 391.793L56.1176 391.59C52.7409 382.914 49.7547 374.193 45.7467 365.643C37.4136 347.693 31.1506 328.907 24.8905 309.704Z" fill="#999BC7"/>
<path d="M47.1739 256.329C32.9478 256.247 19.5732 255.545 5.55258 255.319C10.923 273.779 18.9477 291.22 24.8907 309.704C31.1507 328.907 37.4138 347.693 45.7615 365.642C49.7695 374.193 52.7557 382.913 56.1324 391.59C75.5968 390.944 95.0083 390.377 114.484 389.711C88.9772 347.056 65.5489 302.504 47.1739 256.329Z" fill="#8283A8"/>
<path d="M235.314 388.889C227.65 390.166 217.541 391.652 207.229 393.094C184.141 396.323 160.028 399.33 160.028 399.33C160.028 399.33 118.583 394.791 82.1004 390.439C69.7153 388.971 57.8999 387.503 48.4745 386.255C69.0664 386.055 90.4863 383.847 111.078 383.642C150.139 383.257 196.273 387.682 235.314 388.889Z" fill="#53546B"/>
<path d="M161.482 404.862C161.482 404.862 87.1214 396.723 49.928 391.793L48.4746 386.252C57.8999 387.5 69.7154 388.957 82.1005 390.437C118.583 394.788 160.028 399.328 160.028 399.328L161.482 404.862Z" fill="#999BC7"/>
<path d="M236.758 394.429C211.93 398.567 161.473 404.865 161.473 404.865L160.005 399.33C160.005 399.33 184.117 396.32 207.205 393.093C217.517 391.652 227.627 390.157 235.29 388.889L236.758 394.429Z" fill="#8283A8"/>
<path d="M142.672 539.712C143.28 540.793 144.875 540.887 145.964 541.107C147.546 541.401 149.141 541.694 150.735 541.947C154.056 542.472 157.389 542.869 160.739 543.157C167.458 543.733 174.21 543.831 180.943 543.45C184.264 543.262 187.588 542.977 190.883 542.511C191.649 542.402 192.439 542.308 193.232 542.199C194.507 542.045 195.764 541.761 196.981 541.351L196.438 540.866L195.874 540.37C194.013 538.708 191.846 537.434 189.62 536.33C184.716 533.875 179.372 532.433 174.02 531.323C172.525 531.03 171.034 530.736 169.533 530.443C168.247 530.205 166.691 530.114 165.701 529.165C163.543 527.11 165.129 523.833 166.435 521.825C168.044 519.361 169.742 516.948 171.395 514.513L171.539 514.314C171.9 513.788 172.334 513.224 172.778 512.628C171.365 512.159 169.941 511.727 168.514 511.316L167.977 511.163C166.303 510.688 164.6 510.215 162.877 509.76C161.758 509.466 160.63 509.172 159.497 508.905C159.344 508.926 159.198 508.982 159.071 509.07C158.772 509.381 158.499 509.717 158.255 510.074C157.568 511.04 157.042 512.129 156.408 513.145C155.51 514.59 154.549 515.987 153.578 517.379C151.757 519.969 149.869 522.518 148.143 525.172C146.685 527.351 145.415 529.649 144.346 532.043C143.583 533.805 141.606 537.833 142.672 539.712Z" fill="#424242"/>
<path d="M239.988 509.099C238.887 512.217 236.829 516.202 238.482 519.478C239.865 522.221 247.561 522.529 250.198 523.272C258.625 525.645 263.793 527.348 272.513 527.935C276.847 528.228 281.322 528.478 285.67 528.149C286.281 528.105 290.683 527.121 289.881 526.311C285.497 521.883 279.898 519.757 274.495 516.698C271.791 515.168 268.855 513.961 266.039 512.655C263.387 511.435 260.609 510.511 257.756 509.9C257.882 508.99 258.413 501.591 258.366 500.965C258.105 497.615 258.346 494.418 257.177 491.179C255.436 486.363 252.024 484.449 247.25 483.891C244.801 483.597 240.326 483.228 238.177 484.828C236.239 486.272 239.918 492.92 240.341 494.837C241.383 499.48 241.583 504.586 239.988 509.099Z" fill="#424242"/>
<path d="M113.321 212.864L117.689 228.922C120.348 238.706 123.319 248.24 125.552 258.111C128.734 272.195 132.169 289.629 144.353 298.718C149.118 302.262 154.709 304.69 160.342 306.428C163.571 307.428 166.841 308.273 170.143 309.025C171.13 309.249 172.087 309.425 173.082 309.59H173.129C173.14 309.593 173.151 309.593 173.162 309.59C173.204 309.6 173.246 309.607 173.289 309.611C173.295 309.608 173.303 309.608 173.31 309.611L173.469 309.634L173.572 309.652L176.018 310.047C176.025 310.049 176.032 310.049 176.039 310.047C176.08 310.047 176.127 310.047 176.178 310.067H176.219H176.237C177.867 310.336 179.498 310.595 181.128 310.844C195.602 313.059 210.016 314.961 224.676 315C225.042 315 231.148 315 230.997 313.659C230.25 307.034 222.242 306.043 217.076 305.395C210.572 304.575 204.126 303.342 197.776 301.704C192.13 300.303 186.59 298.5 181.196 296.309C176.792 294.472 171.877 291.266 169.183 287.259C165.733 282.123 163.349 275.68 160.98 269.977C156.154 258.371 152.665 246.263 149.139 234.21C145.966 223.35 142.773 211.449 134.759 203.05C129.989 198.048 119.104 193.704 113.734 200.497C110.857 204.14 112.187 208.687 113.271 212.682C113.288 212.751 113.303 212.807 113.321 212.864Z" fill="url(#paint0_linear)"/>
<path d="M129.406 265.294C131.189 266.145 135.705 252.914 136.101 251.085C137.14 246.284 137.275 240.676 136.817 235.79C135.913 226.787 134.292 217.871 131.97 209.126C131.383 206.897 131.109 204.369 129.723 202.546C128.018 208.104 129.518 215.04 129.057 220.806C128.47 228.311 128.646 235.908 128.294 243.392C128.056 248.46 127.354 253.481 127.357 258.546C127.357 261.021 128.22 262.736 129.257 264.935C129.248 264.689 129.262 264.436 129.406 265.294Z" fill="#E01E5A"/>
<path d="M133.403 350.427C136.87 353.219 141.577 354.112 145.814 355.016C153.742 356.711 161.805 358.07 169.571 360.475C177.041 362.783 183.841 366.089 189.896 371.069C201.867 380.92 209.569 394.723 214.951 409.043C220.903 424.87 225.002 441.451 228.607 457.952C230.446 466.37 232.156 474.811 233.74 483.278C234.915 489.611 235.936 495.971 236.999 502.325C237.099 502.936 237.234 503.535 237.328 504.145H239.207C240.94 504.145 242.672 504.145 244.405 504.119C250.899 504.084 257.394 504.032 263.889 503.963C264.559 503.963 271.941 503.884 271.941 503.84C271.582 497.395 271.101 490.953 270.425 484.531C270.252 482.89 270.061 481.252 269.865 479.613C268.767 470.605 266.967 461.737 264.873 452.893C261.079 436.826 256.337 421.006 251.299 405.294C248.879 397.753 246.721 390.131 244.211 382.626C241.979 375.975 239.034 369.454 234.031 364.421C229.11 359.447 222.835 356.2 216.516 353.349C209.41 350.16 202.152 347.241 194.885 344.44C180.896 339.049 166.644 335.188 151.722 334.727C147.876 334.207 143.976 334.237 140.138 334.818C136.248 335.405 132.193 336.906 130.331 340.646C128.587 344.149 130.575 348.151 133.403 350.427Z" fill="#F5B500"/>
<path d="M58.7897 211.181C59.697 206.469 61.4675 202.766 64.9059 199.419C67.6953 196.706 71.2217 194.597 74.8069 193.135C83.5569 189.571 93.0851 188.082 102.505 188.261H102.563C118.302 207.347 128.746 230.605 131.996 254.808C134.028 237.191 137.434 219.309 136.641 201.368C139.91 204.888 142.716 208.81 144.992 213.04C150.712 223.534 152.101 235.819 151.784 247.608C151.126 271.73 143.359 296.318 149.388 320.295C150.716 325.531 152.636 330.598 155.11 335.399C152.5 337.752 149.677 339.857 146.677 341.689C143.864 343.423 140.961 345.009 137.98 346.44C129.172 350.715 119.899 353.845 110.87 357.597C104.9 360.022 99.106 362.86 93.5314 366.092C91.2939 367.401 89.1065 368.8 86.9689 370.288C85.3677 371.4 83.8017 372.559 82.2709 373.767C82.0096 373.35 81.7694 372.92 81.5515 372.478C80.3212 369.971 79.825 367.193 79.6693 364.412C79.5901 363.073 79.596 361.734 79.6283 360.413C79.7545 355.877 80.1627 351.422 79.9777 346.874C79.7718 341.766 79.259 336.675 78.442 331.629C76.7595 321.22 73.6677 311.131 70.5611 301.092C64.4537 281.325 60.0288 261.362 58.5959 240.676C58.2435 235.522 58.0566 230.359 58.0351 225.187C58.0087 220.516 57.9088 215.768 58.7897 211.181Z" fill="#4A154B"/>
<path d="M127.823 196.028C132.907 198.359 134.962 203.81 136.694 208C138.611 200.388 131.17 193.197 124 189C124.856 191.394 127.013 193.447 127.446 196.014C127.732 195.969 127.508 195.851 127.823 196.028Z" fill="#C2EEEE"/>
<path d="M197.524 305.094C198.849 302.008 203.646 302.778 206.274 302.957C209.645 303.149 212.996 303.595 216.299 304.29C223.338 305.881 230.228 308.075 236.891 310.849C237.695 311.184 238.303 312.318 238.708 313.031C238.823 313.234 239.657 314.793 239.084 314.696C231.394 313.592 223.454 313.36 215.618 313.642C212.658 313.935 209.745 314.414 206.768 314.778C202.898 315.257 199.404 312.579 197.789 309.199C197.201 307.937 196.972 306.43 197.495 305.141L197.524 305.094Z" fill="#F99863"/>
<path d="M59.9964 210.556C62.8652 204.883 68.168 202.27 74.3195 201.856C80.9378 201.413 87.65 202.587 91.5758 208.354C94.8791 213.205 96.218 219.13 97.8623 224.677C100.094 232.208 101.782 239.892 103.611 247.532C105.103 253.766 105.884 260.123 107.587 266.324C110.647 277.444 115.439 288.346 126.655 293.144C135.42 296.897 146.622 297.443 157.219 298.52C168.755 299.695 187.946 302.226 201.356 302.754C198.438 305.224 202.017 313.401 202.551 315.536C202.064 315.536 201.706 315.509 201.612 315.504C186.361 314.188 171.075 313.266 155.762 313.031C148.081 312.914 140.397 312.961 132.716 313.131C125.695 313.29 118.51 313.111 111.927 310.38C100.382 305.597 92.4626 295.147 85.5007 285.216C77.7872 274.205 70.9427 262.507 65.9071 250.019C63.4029 243.711 61.3425 237.236 59.741 230.64C58.1671 224.21 56.8899 216.737 59.9964 210.556Z" fill="#E8E8E8"/>
<path d="M84.4171 377.103C87.8819 380.474 92.5035 382.84 96.8139 384.937C101.263 387.068 105.902 388.778 110.67 390.046C121.106 392.903 131.896 394.157 142.675 394.914C154.109 395.707 165.622 396.089 177.079 395.995C188.71 395.904 201.127 395.431 211.768 390.21C216.064 388.102 220.104 385.304 223.02 381.451C225.677 377.928 227.753 373.192 225.841 368.846C224.15 365.008 220.386 362.859 216.686 361.306C192.591 351.191 166.162 344.311 139.677 343.583C120.885 343.066 94.0158 346.055 82.7142 363.396C79.6252 368.13 80.4297 373.218 84.4171 377.103Z" fill="#FDBB00"/>
<path d="M148.554 512.115C149.84 512.827 151.146 513.507 152.473 514.155C154.455 515.13 156.476 516.026 158.513 516.854C163.61 518.93 168.89 520.525 174.284 521.619C175.72 521.913 177.188 522.206 178.688 522.45C180.324 522.744 181.983 522.973 183.639 523.143L184.261 521.983C189.594 511.985 194.664 501.779 199.133 491.382C207.701 471.468 214.989 450.997 219.981 429.888C222.383 419.542 224.218 409.072 225.477 398.526C226.15 393.062 226.731 387.6 226.89 382.083C227.072 375.708 227.477 364.759 219.699 364.956C213.292 365.111 205.605 369.704 200.54 373.28C189.523 381.061 181.78 392.739 176.612 405.03C173.159 413.251 170.514 421.655 168.197 430.243C165.654 439.683 163.138 449.135 160.895 458.648C156.922 475.541 152.6 492.371 149.123 509.378C148.912 510.3 148.727 511.21 148.554 512.115Z" fill="#FDBB00"/>
<path d="M110.5 182.553C111.169 180.997 112.191 179.585 112.922 178.052C113.717 176.352 114.373 174.59 114.884 172.784C116.043 168.797 116.792 164.892 116.716 160.725C116.695 159.512 122.218 160.041 122.926 160.185C128.696 161.359 129.386 168.345 130.214 173.104C131.682 181.619 130.49 189.917 131.018 198.406C122.885 196.588 115.371 189.691 110.5 182.553Z" fill="url(#paint1_linear)"/>
<path d="M115.818 206.999C114.956 207.08 112.605 203.73 111.905 202.98C110.032 200.973 107.989 199.093 106.739 196.569C105.42 193.93 104.461 191.046 103 188.519C103.973 187.314 105.424 186.441 106.521 185.338C107.054 184.808 108.633 182.221 109.222 182.027C110.655 181.546 115.52 187.681 116.621 188.674C119.412 191.191 121.964 193.816 125.059 195.891C126.475 196.842 128.501 197.393 130 198.054C126.461 198.616 122.656 201.174 119.994 203.585C118.938 204.525 116.749 206.553 115.818 206.999Z" fill="#E0E0E0"/>
<path d="M130.557 195.924C131.594 195.801 132.636 197.072 133.091 197.98C133.412 198.596 133.601 199.272 133.648 199.966C133.694 200.659 133.597 201.354 133.362 202.008C132.842 203.33 131.632 204.105 130.246 204.26C125.886 204.754 121.164 200.17 125.164 196.653C127.357 194.735 128.167 196.212 130.557 195.924Z" fill="#E01E5A"/>
<path d="M117.794 152.266C120.304 146.496 126.843 144.907 132.551 146.1C140.115 147.679 144.17 152.956 145.292 160.446C145.929 164.709 145.638 169.698 144.085 173.744C142.734 177.25 140.194 179.74 136.433 180.36C131.964 181.097 126.917 180.606 123.499 177.379C120.269 174.334 118.554 169.836 117.626 165.599C116.698 161.362 116.003 156.379 117.794 152.266Z" fill="#F99863"/>
<path d="M111.789 161.415C112.432 163.737 113.257 166.001 114.006 168.289C114.435 169.625 114.937 170.106 116.355 170.271C119.966 170.696 122.254 168.06 122.958 164.692C123.405 162.563 122.665 160.616 122.665 158.505C122.665 157.287 123.096 155.774 124.374 155.346C126.558 154.612 127.862 157.31 128.191 159.019C128.235 159.26 129.527 159.183 129.512 159.019C129.383 157.289 129.219 155.231 129.544 153.528C129.768 152.354 130.525 151.097 131.691 150.686C132.489 150.407 134.627 152.55 135.244 152.953C137.63 154.528 140.473 155.265 143.324 155.046C145.524 154.849 147.834 153.848 148.157 151.408C148.654 147.656 147.773 143.953 143.864 142.761C139.443 141.41 134.401 141.34 129.826 140.758C122.609 139.845 111.56 138.028 109.792 147.735C109.014 152.084 110.641 157.24 111.789 161.415Z" fill="#424242"/>
<path d="M451.067 396.301L459.509 521.473H455.29L443.938 397.064L451.067 396.301Z" fill="#8283A8"/>
<path d="M366.697 395.247L358.255 520.419H362.478L373.826 396.01L366.697 395.247Z" fill="#8283A8"/>
<path d="M462.477 395.155L473.312 529.718H467.895L453.328 396.048L462.477 395.155Z" fill="#8283A8"/>
<path d="M354.189 393.919L343.351 528.481H348.771L363.338 394.812L354.189 393.919Z" fill="#8283A8"/>
<path d="M482.024 392.169L335.042 388.725V400.347L482.024 401.583V392.169Z" fill="#999BC7"/>
<path d="M447.567 381.557L482.024 392.169L335.042 388.725L373.982 379.901L447.567 381.557Z" fill="#8283A8"/>
<path d="M447.567 381.558L437.766 255.044L382.013 254.512L373.982 379.902L447.567 381.558Z" fill="#8283A8"/>
<path d="M382.923 153.191C384.362 150.71 386.537 149.254 389.324 148.666C392.751 147.941 396.926 148.026 400.153 149.497C403.174 150.877 405.379 153.426 407.937 155.458C410.761 157.704 414.764 158.338 417.271 160.981C417.838 161.55 418.258 162.248 418.495 163.015C418.732 163.782 418.78 164.596 418.634 165.385C419.021 167.505 418.384 169.731 417.55 171.845C417.488 172.3 417.418 172.749 417.315 173.193C416.687 175.879 415.553 178.546 414.379 181.033C413.281 183.399 412.262 185.83 411.055 188.144C410.157 189.862 408.73 191.538 406.604 190.989C405.318 190.658 404.701 188.021 404.366 186.926C404.278 186.632 403.33 182.145 403.949 182.307C404.313 182.413 404.694 182.445 405.07 182.402C405.447 182.358 405.81 182.239 406.14 182.051C406.313 180.542 406.48 179.03 406.657 177.521C406.868 175.721 406.577 174.091 406.577 172.33C405.814 169.017 403.706 165.65 401.357 163.227C399.833 161.659 398.127 160.905 395.898 161.037C393.925 161.151 392.375 162.073 390.484 162.505C388.161 163.048 383.951 163.439 382.292 161.272C380.574 159.031 381.652 155.379 382.923 153.191Z" fill="#424242"/>
<path d="M416.091 491.855C416.111 489.179 416.552 486.522 417.397 483.983C417.717 483.026 418.076 481.317 418.939 480.688C419.717 480.125 421.129 479.916 421.972 480.453C422.762 480.958 423.214 481.851 423.54 482.732C425.445 487.856 424.421 493.778 426.635 498.773C428.062 501.979 430.69 504.46 432.945 507.15C435.165 509.796 437.062 512.697 438.597 515.791C439.084 516.778 439.539 517.958 439.04 518.942C438.662 519.69 437.801 520.116 436.961 520.149C436.12 520.154 435.287 519.978 434.519 519.635C429.333 517.638 425.034 513.727 421.86 509.167C418.443 504.255 416.193 498.423 416.094 492.43C416.091 492.245 416.088 492.049 416.091 491.855Z" fill="#424242"/>
<path d="M398.229 374.996C398.922 378.267 400.675 381.342 402.675 383.981C404.804 386.797 407.256 388.524 410.45 389.957C416.955 392.857 423.905 394.634 431.004 395.213C444.464 396.325 459.174 393.521 469.372 384.096C472.772 380.954 476.125 376.697 476.152 371.84C476.178 365.492 471.915 360.582 466.462 357.846C463.727 356.488 460.79 355.583 457.765 355.168C453.889 354.619 450.11 353.483 446.222 353.004C439.266 352.144 432.235 352.061 425.261 352.757C418.073 353.486 410.312 354.813 404.51 359.434C399.841 363.172 396.955 368.971 398.229 374.996Z" fill="#2E4A74"/>
<path d="M362.589 364.119L362.686 363.984C368.761 355.654 379.816 345.486 390.998 347.048C398.517 348.105 402.602 356.15 404.123 362.848C405.884 370.547 405.177 378.63 404.269 386.394C403.518 392.836 402.141 399.26 401.11 405.388C398.705 419.676 396.55 435.705 397.78 450.187C398.793 462.096 399.997 474.085 400.94 485.636C401.747 495.51 402.373 505.429 403.409 515.277C403.964 520.589 405.271 526.403 404.68 531.75C404.225 535.86 401.818 540.2 397.601 540.485C396.371 540.567 395.208 538.659 394.58 537.801C393.247 535.978 391.902 533.864 391.18 531.664C381.695 502.775 370.661 474.549 362.857 445.045C358.549 428.755 353.657 411.49 353.188 394.454C352.915 383.586 356.218 372.929 362.589 364.119Z" fill="#2E4A74"/>
<path d="M385.122 207.89C387.266 213.037 392.988 215.363 398.121 216.355C403.406 217.38 411.531 217.932 415.151 212.976C416.619 210.959 418.381 207.925 417.162 205.494C416.596 204.378 415.653 203.489 414.922 202.482C410.186 195.96 409.214 187.416 409.373 179.579C409.414 177.509 409.373 176.863 407.2 177.148C405.564 177.362 403.864 177.776 402.255 178.143C399.134 178.854 396.212 180.105 394.815 183.193C393.775 185.493 393.573 188.071 393.329 190.587C392.698 197.023 390.034 203.269 385.219 207.714L385.122 207.89Z" fill="url(#paint2_linear)"/>
<path d="M379 211.5C378 210.5 385 207.5 385 207.5C385 207.5 393.39 212.935 399.979 213.087C403.996 213.178 417 205 417 205C418.5 205.5 426.5 210 423.5 219.5C422.648 232.273 416.584 250.368 415.31 263.103C414.135 274.922 413.897 288.006 410.814 299.451C410.112 303.562 409.364 307.673 408.448 311.725C407.807 314.543 406.339 320.827 402.869 320.939C399.398 321.05 398.109 315.263 397.504 312.52C392.992 292.061 389.205 271.442 386.144 250.665C385.38 245.474 384.662 240.277 383.989 235.074C383.522 231.407 378.375 215.19 379 211.5Z" fill="#963298"/>
<path d="M367.173 349.92C367.324 341.651 366.754 333.384 365.47 325.214C363.67 313.704 361.374 302.258 360.108 290.672C358.711 277.864 356.229 265.212 353.989 252.533C353.921 252.154 353.854 251.776 353.789 251.394C352.065 241.606 350.695 231.774 349.679 221.896C349.593 221.062 352.028 220.572 352.233 220.525C361.042 218.402 371.698 216.121 379.285 210.386C379.825 212.242 380.37 214.096 380.92 215.947C381.828 218.989 382.585 222.075 383.352 225.156C384.561 230.039 385.674 234.948 386.76 239.866C388.904 249.506 390.93 259.169 393.22 268.782C397.169 285.39 400.452 302.273 401.95 319.286C402.581 326.444 402.831 333.629 403.124 340.808C403.262 344.391 403.353 347.982 403.594 351.561C403.794 354.527 403.773 357.616 402.458 360.37C400.99 363.453 397.956 363.893 394.909 364.116C393.302 364.228 391.849 364.621 390.211 364.41C386.981 363.981 383.751 363.438 380.685 362.313C380.098 362.096 379.482 361.876 378.874 361.638C374.763 361.259 370.652 360.91 366.541 360.637C366.896 357.072 367.106 353.5 367.173 349.92Z" fill="url(#paint3_linear)"/>
<path d="M398.705 321.262C398.952 319.767 399.251 318.275 399.586 316.795C399.959 314.446 400.385 312.068 401.324 309.928C402.766 304.76 404.413 299.651 405.743 294.48C408.037 285.598 409.317 276.516 410.735 267.466C412.121 258.658 413.339 249.802 415.11 241.064C416.845 232.516 420.102 224.38 421.455 215.739C421.822 213.541 421.752 211.293 421.25 209.123C421.109 208.536 420.821 207.908 420.662 207.273C423.39 208.806 432.357 212.468 437.191 214.32C441.369 215.924 445.914 217.019 449.881 219.156C457.283 223.144 456.737 231.527 456.893 239.123C457.075 248.113 456.723 257.106 455.839 266.054C454.585 278.733 451.666 290.874 449.159 303.303C447.005 313.938 444.861 324.574 442.725 335.209C441.909 339.261 441.093 343.316 440.045 347.309C439.261 350.295 438.756 353.789 436.43 355.798C431.324 360.202 424.899 360.049 418.78 361.415C413.865 362.513 408.782 363.541 403.782 362.357C402.02 361.946 401.172 361.421 400.893 359.547C400.599 357.583 400.376 355.601 400.132 353.628C399.191 346.255 398.647 338.837 398.503 331.406C397.898 328.079 398.171 324.535 398.705 321.262Z" fill="url(#paint4_linear)"/>
<path d="M439.14 266.736C436.089 255.825 435.103 244.42 437.34 232.94C438.133 228.864 439.425 224.607 442.188 221.406C446.393 216.535 452.791 220.754 456.112 224.287C458.818 227.206 461.105 230.488 462.906 234.038C466.808 241.569 469.196 249.756 471.322 258.012C473.58 266.792 475.488 275.697 477.159 284.621C478.803 293.385 480.494 302.564 480.456 311.537C480.456 314.55 480.28 320.146 476.933 321.148C474.913 321.735 472.361 321.679 470.323 321.148C468.385 320.657 467.017 318.837 465.766 317.307C460.331 310.68 456.27 302.593 451.825 295.22C446.46 286.321 441.933 276.728 439.14 266.736Z" fill="url(#paint5_linear)"/>
<path d="M328.318 299.851C328.318 296.474 328.47 293.097 328.685 289.759C329.325 279.72 330.423 269.74 331.914 259.809C332.668 254.759 333.463 249.712 334.299 244.667C334.983 240.556 335.908 236.487 337.743 232.758C340.949 226.236 347.139 221.43 353.957 220.044C357.404 219.342 366.483 218.393 366.515 224.207C366.515 226.53 365.482 228.946 364.938 231.166C364.366 233.515 363.905 235.864 363.47 238.213C363.55 241.044 363.535 243.883 363.379 246.699C362.839 256.389 360.922 265.84 358.44 275.18C356.385 282.879 353.971 290.593 350.542 297.748C349.138 302.103 347.938 306.54 347.776 311.082C347.559 317.081 349.949 321.509 352.336 326.826C353.528 329.469 356.153 337.124 352.923 339.54C352.732 340.641 352.128 341.563 350.765 341.642C347.201 341.854 343.718 338.371 341.663 335.879C340.08 333.976 338.635 331.932 336.806 330.247C335.226 328.779 333.438 328.192 332.258 326.254C330.135 322.786 329.953 318.434 329.339 314.509C328.613 309.657 328.272 304.756 328.318 299.851Z" fill="url(#paint6_linear)"/>
<path d="M330.713 315.36C329.148 318.59 329.331 322.175 330.308 324.959C332.502 331.18 336.257 336.798 340.08 341.566C348.281 351.802 359.271 358.872 371.401 362.689C371.8 362.816 374.099 363.723 374.602 362.88C376.07 360.414 374.329 357.116 373.662 355.084C372.869 352.677 371.995 350.322 371.04 348.02C369.125 343.397 366.841 338.937 364.21 334.68C361.434 330.161 358.186 325.948 354.521 322.113C350.897 318.364 347.08 314.723 342.226 312.926C339.229 311.819 333.03 310.574 330.713 315.36Z" fill="#963298"/>
<path d="M377.08 523.252C379.813 522.791 383.076 525.557 385.193 526.934C387.888 528.696 390.607 530.408 393.256 532.22C393.341 531.163 393.491 529.806 394.157 529.336C395.038 528.714 396.947 529.518 397.681 530.035C400.212 531.797 401.791 535.176 402.672 538.045C403.195 539.751 404.989 545.812 402.179 546.375C400.74 547.617 397.052 544.763 396.042 544.026C393.693 542.3 391.212 540.99 388.657 539.622C385.13 537.767 382.002 535.236 379.452 532.173C378.709 531.573 378.045 530.882 377.473 530.117C376.261 528.479 373.269 523.898 377.08 523.252Z" fill="#424242"/>
<path d="M418.146 475.379C418.181 477.558 418.331 479.692 419.294 481.674C420.031 483.19 421.211 485.277 422.765 486.126C424.852 487.265 426.664 484.387 427.806 483.051C429.26 481.348 430.613 479.566 431.894 477.734C437.737 469.377 442.822 460.41 447.849 451.549C452.773 442.86 457.395 433.999 461.511 424.899C465.534 416.005 469.096 406.903 471.868 397.542C473.318 392.592 474.484 387.562 475.362 382.479C475.755 380.224 475.805 377.987 476.014 375.711C476.246 373.198 476.307 370.64 475.688 368.171C474.469 363.206 470.452 359.885 465.305 359.882C460.158 359.879 455.392 363.176 451.71 366.468C447.177 370.526 443.735 375.711 441.307 381.264C439.29 385.876 437.863 390.712 436.38 395.519C434.786 400.681 433.221 405.858 431.764 411.061C428.793 421.663 426.329 432.445 423.895 443.183C422.674 448.562 421.482 453.947 420.372 459.35C419.309 464.615 418.067 469.973 418.146 475.379Z" fill="#2E4A74"/>
<path d="M401.245 305.603C398.094 311.552 406.906 314.476 412.638 316.54C414.229 317.128 415.724 317.556 416.913 317.882C423.285 319.644 429.809 320.959 436.219 322.566C442.755 324.204 449.335 325.713 456.012 326.676C464.166 327.851 473.13 329.8 478.539 320.954C479.346 319.632 479.972 318.144 480.06 316.59C480.339 311.481 474.381 310.01 470.855 308.627C460.038 304.384 448.445 302.399 436.838 301.985C430.994 301.788 425.144 301.957 419.321 302.49C414.173 302.954 407.628 303.615 402.481 304.082C401.665 304.164 401.418 305.289 401.245 305.603Z" fill="#963298"/>
<path d="M161.635 312.514H644.986V324.43H161.635V312.514Z" fill="#999BC7"/>
<path d="M383.387 189.474C380.078 183.754 381.443 177.435 382.506 171.346C383.055 168.221 384.001 165.253 385.715 162.76C386.937 161.732 388.223 160.884 389.97 160.622C392.501 160.244 395.311 160.605 397.801 161.081C400.555 161.609 403.497 162.549 405.233 164.898C406.381 166.457 406.821 168.301 406.824 170.183C406.637 170.993 406.497 171.814 406.404 172.641C406.404 172.758 406.627 172.737 406.668 172.664C407.423 171.246 407.396 168.445 408.876 167.484C409.804 166.88 411.563 166.971 412.379 167.669C412.744 167.98 413.07 168.333 413.351 168.721C413.944 169.49 414.296 170.418 414.364 171.387C414.529 173.489 413.897 175.665 412.972 177.532C412.092 179.294 410.685 180.563 409.663 182.192C405.799 188.358 400.232 195.573 391.958 195.226C388.185 195.056 385.204 192.613 383.387 189.474Z" fill="#F99863"/>
<path d="M400.758 312.465C399.824 312.406 398.887 312.265 397.948 312.171C394.23 311.763 390.663 311.484 386.919 311.678C383.918 311.834 380.894 311.916 377.902 312.192C376.454 312.327 375.03 312.468 373.574 312.485C373.195 312.485 372.834 312.485 372.487 312.527C371.689 311.939 370.608 309.678 370.858 309.605C376.648 307.967 382.541 306.871 388.475 305.935C391.168 305.512 393.872 305.159 396.579 304.834C399.193 304.519 402.061 303.818 404.686 304.226C406.51 304.519 407.719 306.311 407.719 308.09C407.719 310.733 405.479 312.027 403.127 312.406C402.342 312.516 401.547 312.536 400.758 312.465Z" fill="#F99863"/>
<path d="M368.779 363.653C371.032 366.791 373.615 369.679 376.484 372.268C378.809 374.323 382.532 377.377 385.938 376.117C389.253 374.898 386.479 370.582 385.413 368.638C383.787 365.655 381.869 362.84 379.687 360.235C380.709 361.039 381.71 361.873 382.656 362.781C384.265 364.328 382.755 361.142 382.421 360.631C379.752 356.582 370.179 347.418 366.301 355.499C364.862 358.494 367.091 361.327 368.779 363.653Z" fill="#F99863"/>
<defs>
<linearGradient id="paint0_linear" x1="192" y1="268" x2="128.5" y2="304" gradientUnits="userSpaceOnUse">
<stop stop-color="#E0E0E0"/>
<stop offset="1" stop-color="#E6E6E6"/>
</linearGradient>
<linearGradient id="paint1_linear" x1="-67591.2" y1="44167.5" x2="-69150.4" y2="44864.4" gradientUnits="userSpaceOnUse">
<stop stop-color="#E88E5C"/>
<stop offset="0.13" stop-color="#F0935F"/>
<stop offset="0.36" stop-color="#F79762"/>
<stop offset="1" stop-color="#F99863"/>
</linearGradient>
<linearGradient id="paint2_linear" x1="397.167" y1="193.021" x2="409.058" y2="208.803" gradientUnits="userSpaceOnUse">
<stop stop-color="#E88E5C"/>
<stop offset="0.13" stop-color="#F0935F"/>
<stop offset="0.36" stop-color="#F79762"/>
<stop offset="1" stop-color="#F99863"/>
</linearGradient>
<linearGradient id="paint3_linear" x1="341.5" y1="214" x2="411.5" y2="297.5" gradientUnits="userSpaceOnUse">
<stop stop-color="#963298"/>
<stop offset="1" stop-color="#4A154B"/>
</linearGradient>
<linearGradient id="paint4_linear" x1="394" y1="207" x2="496" y2="323" gradientUnits="userSpaceOnUse">
<stop stop-color="#963298"/>
<stop offset="1" stop-color="#4A154B"/>
</linearGradient>
<linearGradient id="paint5_linear" x1="458.289" y1="219.202" x2="458.289" y2="321.567" gradientUnits="userSpaceOnUse">
<stop stop-color="#963298"/>
<stop offset="1" stop-color="#4A154B"/>
</linearGradient>
<linearGradient id="paint6_linear" x1="347.414" y1="219.517" x2="347.414" y2="341.652" gradientUnits="userSpaceOnUse">
<stop stop-color="#963298"/>
<stop offset="1" stop-color="#4A154B"/>
</linearGradient>
</defs>
</svg>
