<svg width="169" height="41" viewBox="0 0 169 41" fill="none" xmlns="http://www.w3.org/2000/svg">
<path d="M41.971 16.718C41.467 16.214 41.215 15.53 41.215 14.666C41.215 13.802 41.467 13.127 41.971 12.641C42.493 12.137 43.204 11.885 44.104 11.885C45.004 11.885 45.706 12.137 46.21 12.641C46.732 13.127 46.993 13.802 46.993 14.666C46.993 15.53 46.732 16.214 46.21 16.718C45.706 17.204 45.004 17.447 44.104 17.447C43.204 17.447 42.493 17.204 41.971 16.718ZM46.858 32H41.35V18.5H46.858V32ZM47.3267 22.712V18.5H48.9467V14.45H54.2927V18.5H57.3977V22.712H54.2927V26.627C54.2927 27.491 54.7877 27.923 55.7777 27.923C56.4257 27.923 57.1097 27.752 57.8297 27.41V31.811C56.9117 32.207 55.6427 32.405 54.0227 32.405C52.5287 32.405 51.2957 31.991 50.3237 31.163C49.3517 30.335 48.8657 29.057 48.8657 27.329V22.712H47.3267ZM78.2529 23.576V32H72.7449V24.386C72.7449 23.972 72.6369 23.648 72.4209 23.414C72.2229 23.162 71.9529 23.036 71.6109 23.036C71.0349 23.036 70.5759 23.234 70.2339 23.63C69.9099 24.026 69.7479 24.548 69.7479 25.196V32H64.2399V12.56H69.6129V20.066C70.0269 19.508 70.5939 19.04 71.3139 18.662C72.0339 18.284 72.7629 18.095 73.5009 18.095C74.9409 18.095 76.0929 18.563 76.9569 19.499C77.8209 20.417 78.2529 21.776 78.2529 23.576ZM79.9608 23.765V18.932C81.2568 18.374 82.9758 18.095 85.1178 18.095C87.3138 18.095 88.9878 18.581 90.1398 19.553C91.3098 20.525 91.8948 21.866 91.8948 23.576V32H86.9538L86.8458 31.109L86.8728 30.299H86.8188C86.1888 31.703 84.9468 32.405 83.0928 32.405C81.9048 32.405 80.8878 32.054 80.0418 31.352C79.2138 30.65 78.7998 29.606 78.7998 28.22C78.7998 26.6 79.5378 25.403 81.0138 24.629C82.4898 23.837 84.2898 23.594 86.4138 23.9V23.873C86.4138 23.027 85.6578 22.604 84.1458 22.604C82.5438 22.604 81.1488 22.991 79.9608 23.765ZM84.7398 28.328C85.2078 28.328 85.5768 28.157 85.8468 27.815C86.1348 27.473 86.2788 26.978 86.2788 26.33C85.4688 26.204 84.8568 26.258 84.4428 26.492C84.0468 26.726 83.8488 27.05 83.8488 27.464C83.8488 28.04 84.1458 28.328 84.7398 28.328ZM106.749 30.515C105.561 31.775 104.103 32.405 102.375 32.405C100.647 32.405 99.3871 31.91 98.5951 30.92H98.5411C98.5951 31.136 98.6221 31.514 98.6221 32.054V37.94H93.1141V18.5H98.0821L98.1901 19.391L98.1631 20.201H98.2171C98.4871 19.589 99.0001 19.085 99.7561 18.689C100.53 18.293 101.358 18.095 102.24 18.095C104.022 18.095 105.516 18.734 106.722 20.012C107.946 21.272 108.558 23.018 108.558 25.25C108.558 27.482 107.955 29.237 106.749 30.515ZM102.753 23.36C102.321 22.874 101.781 22.631 101.133 22.631C100.485 22.631 99.9361 22.874 99.4861 23.36C99.0541 23.828 98.8381 24.458 98.8381 25.25C98.8381 26.042 99.0541 26.681 99.4861 27.167C99.9361 27.635 100.485 27.869 101.133 27.869C101.781 27.869 102.321 27.635 102.753 27.167C103.203 26.681 103.428 26.042 103.428 25.25C103.428 24.458 103.203 23.828 102.753 23.36ZM122.86 30.515C121.672 31.775 120.214 32.405 118.486 32.405C116.758 32.405 115.498 31.91 114.706 30.92H114.652C114.706 31.136 114.733 31.514 114.733 32.054V37.94H109.225V18.5H114.193L114.301 19.391L114.274 20.201H114.328C114.598 19.589 115.111 19.085 115.867 18.689C116.641 18.293 117.469 18.095 118.351 18.095C120.133 18.095 121.627 18.734 122.833 20.012C124.057 21.272 124.669 23.018 124.669 25.25C124.669 27.482 124.066 29.237 122.86 30.515ZM118.864 23.36C118.432 22.874 117.892 22.631 117.244 22.631C116.596 22.631 116.047 22.874 115.597 23.36C115.165 23.828 114.949 24.458 114.949 25.25C114.949 26.042 115.165 26.681 115.597 27.167C116.047 27.635 116.596 27.869 117.244 27.869C117.892 27.869 118.432 27.635 118.864 27.167C119.314 26.681 119.539 26.042 119.539 25.25C119.539 24.458 119.314 23.828 118.864 23.36ZM131.861 18.095C133.931 18.095 135.524 18.707 136.64 19.931C137.756 21.137 138.314 22.64 138.314 24.44C138.314 25.232 138.26 25.871 138.152 26.357H130.457C130.691 27.347 131.627 27.842 133.265 27.842C134.885 27.842 136.379 27.599 137.747 27.113V31.649C136.541 32.153 134.867 32.405 132.725 32.405C130.259 32.405 128.315 31.739 126.893 30.407C125.471 29.075 124.76 27.356 124.76 25.25C124.76 23.198 125.435 21.497 126.785 20.147C128.153 18.779 129.845 18.095 131.861 18.095ZM133.157 24.008C133.193 23.486 133.094 23.072 132.86 22.766C132.626 22.442 132.275 22.28 131.807 22.28C131.357 22.28 131.006 22.442 130.754 22.766C130.52 23.072 130.403 23.486 130.403 24.008H133.157ZM153.036 23.576V32H147.528V24.386C147.528 23.972 147.42 23.648 147.204 23.414C147.006 23.162 146.736 23.036 146.394 23.036C145.818 23.036 145.359 23.234 145.017 23.63C144.693 24.026 144.531 24.548 144.531 25.196V32H139.023V18.5H143.991L144.153 19.715C144.189 19.985 144.153 20.264 144.045 20.552H144.099C144.423 19.904 144.99 19.337 145.8 18.851C146.61 18.347 147.438 18.095 148.284 18.095C149.724 18.095 150.876 18.563 151.74 19.499C152.604 20.417 153.036 21.776 153.036 23.576ZM160.332 23.549C162.024 23.963 163.239 24.503 163.977 25.169C164.733 25.817 165.111 26.771 165.111 28.031C165.111 29.417 164.571 30.497 163.491 31.271C162.411 32.027 160.899 32.405 158.955 32.405C157.173 32.405 155.571 32.117 154.149 31.541V26.789C154.797 27.149 155.589 27.473 156.525 27.761C157.461 28.031 158.253 28.166 158.901 28.166C159.693 28.166 160.089 28.031 160.089 27.761C160.089 27.563 159.603 27.338 158.631 27.086C158.523 27.068 158.442 27.05 158.388 27.032C156.912 26.672 155.787 26.159 155.013 25.493C154.239 24.809 153.852 23.819 153.852 22.523C153.852 21.119 154.329 20.03 155.283 19.256C156.237 18.482 157.578 18.095 159.306 18.095C161.124 18.095 162.762 18.374 164.22 18.932V23.549C163.644 23.243 162.915 22.973 162.033 22.739C161.169 22.505 160.422 22.388 159.792 22.388C159.18 22.388 158.874 22.523 158.874 22.793C158.874 23.081 159.36 23.333 160.332 23.549Z" fill="url(#paint0_linear)"/>
<path d="M41.8576 16.8C41.3342 16.2738 41.0725 15.5597 41.0725 14.6577C41.0725 13.7557 41.3342 13.051 41.8576 12.5436C42.3996 12.0174 43.0654 11.8 44 11.8C44.9346 11.8 45.8086 12.0174 46.332 12.5436C46.874 13.051 47.0725 13.7557 47.0725 14.6577C47.0725 15.5597 46.8015 16.2738 46.2594 16.8C45.7361 17.3074 45.0071 17.5611 44.0725 17.5611C43.1379 17.5611 42.3996 17.3074 41.8576 16.8Z" fill="url(#paint1_linear)"/>
<path d="M15.0476 38.0951C23.3581 38.0951 30.0951 31.3581 30.0951 23.0476C30.0951 14.737 23.3581 8 15.0476 8C6.73702 8 0 14.737 0 23.0476C0 31.3581 6.73702 38.0951 15.0476 38.0951Z" fill="url(#paint2_linear)"/>
<path fill-rule="evenodd" clip-rule="evenodd" d="M9.15925 10.314L8.94601 10.3365C8.248 10.4101 7.79757 11.0072 7.86537 11.6521C8.52018 17.9405 8.58539 18.4942 8.94593 21.9157C9.02274 22.5677 9.02851 23.0419 9.1865 23.4786C9.34449 23.9153 9.67312 24.2699 10.1515 24.52C10.6368 24.7737 11.6243 25.2401 12.6238 25.7815C13.6233 26.323 14.6364 26.9599 15.0623 27.4132C15.0699 27.4201 15.1102 27.4587 15.1245 27.4725L17.5917 29.835C17.8832 30.1242 17.8755 30.1909 17.5669 30.6221C16.5439 31.997 15.5387 33.3834 14.5185 34.7716C14.1222 35.3097 14.2484 36.0409 14.7711 36.4249C14.8288 36.4706 14.8722 36.5057 14.9441 36.5518C15.5058 36.9371 16.1952 36.8196 16.5971 36.2992C17.7939 34.6696 19.0948 32.9026 20.2525 31.325H20.2527C20.524 30.9465 20.6371 30.4365 20.6043 30.0176C20.5715 29.5988 20.4596 29.2347 20.1917 28.9475L20.1915 28.9473C19.3852 28.083 18.5073 27.1552 17.7915 26.3936L17.7913 26.3934L17.775 26.376C17.6373 26.2296 17.5918 26.0594 17.609 25.9288C17.6249 25.8076 17.673 25.7138 17.823 25.6392C19.165 25.064 20.6031 24.4423 21.79 23.9469C22.1012 23.815 22.2268 23.8395 22.5145 24.0621C23.7465 25.167 25.0465 26.2833 26.3132 27.3877C26.802 27.8138 27.5556 27.7623 27.9817 27.2735L28.1227 27.112C28.5487 26.6232 28.4971 25.8696 28.0084 25.4434C26.4952 24.1328 24.9494 22.7813 23.6454 21.6393V21.6389C23.3876 21.4388 23.0974 21.3044 22.7755 21.229C22.6526 21.203 22.5213 21.1854 22.3798 21.1756C21.9703 21.1472 21.5945 21.2165 21.2476 21.3406C19.8463 21.9091 18.314 22.5676 17.0343 23.1189C16.7847 23.2379 16.6595 23.2454 16.4034 23.1008C15.293 22.3579 14.372 21.6958 13.4832 21.0254C13.235 20.841 13.2542 20.6564 13.3944 20.4294L17.3524 14.0418C17.6939 13.4906 17.5212 12.7555 16.97 12.4139L16.7877 12.3008C16.2369 11.9592 15.5013 12.1319 15.1599 12.6831L11.3382 18.8507C11.3045 18.9051 11.2641 18.9705 11.2342 19.0187C11.225 18.9341 11.2184 18.864 11.2135 18.8167L10.4309 11.3821C10.3515 10.7634 9.84241 10.2421 9.15926 10.3141L9.15925 10.314Z" fill="white"/>
<path d="M8.20282 22.9733C7.90703 23.1103 7.57746 23.1868 7.23005 23.1868C5.95042 23.1868 4.91309 22.1494 4.91309 20.8698C4.91309 19.5902 5.95042 18.5528 7.23005 18.5528C7.40357 18.5528 7.57265 18.5719 7.73528 18.6081" fill="white"/>
<defs>
<linearGradient id="paint0_linear" x1="40" y1="-11" x2="104" y2="49" gradientUnits="userSpaceOnUse">
<stop stop-color="#963298"/>
<stop offset="1" stop-color="#4A154B"/>
</linearGradient>
<linearGradient id="paint1_linear" x1="36.9612" y1="8.11521" x2="52.4154" y2="25.7641" gradientUnits="userSpaceOnUse">
<stop stop-color="#FED337"/>
<stop offset="1" stop-color="#ECB22E"/>
</linearGradient>
<linearGradient id="paint2_linear" x1="0" y1="8" x2="29.6505" y2="40.9451" gradientUnits="userSpaceOnUse">
<stop stop-color="#FED337"/>
<stop offset="1" stop-color="#ECB22E"/>
</linearGradient>
</defs>
</svg>
