<svg width="262" height="52" viewBox="0 0 262 52" fill="none" xmlns="http://www.w3.org/2000/svg">
<path d="M66.6 16.6657C65.8002 15.8414 65.4003 14.7228 65.4003 13.3098C65.4003 11.8968 65.8002 10.7929 66.6 9.99809C67.4283 9.17384 68.5565 8.76172 69.9846 8.76172C71.4127 8.76172 72.5267 9.17384 73.3264 9.99809C74.1547 10.7929 74.5689 11.8968 74.5689 13.3098C74.5689 14.7228 74.1547 15.8414 73.3264 16.6657C72.5267 17.4605 71.4127 17.8579 69.9846 17.8579C68.5565 17.8579 67.4283 17.4605 66.6 16.6657ZM74.3547 41.6581H65.6145V19.58H74.3547V41.6581Z" fill="white"/>
<path d="M75.0984 26.4683V19.58H77.669V12.9566H86.1521V19.58H91.0791V26.4683H86.1521V32.871C86.1521 34.284 86.9376 34.9905 88.5085 34.9905C89.5368 34.9905 90.6221 34.7108 91.7646 34.1515V41.349C90.308 41.9966 88.2943 42.3204 85.7237 42.3204C83.353 42.3204 81.3964 41.6434 79.8541 40.2892C78.3117 38.9351 77.5405 36.845 77.5405 34.0191V26.4683H75.0984Z" fill="white"/>
<path d="M124.172 27.8813V41.6581H115.432V29.206C115.432 28.529 115.261 27.9991 114.918 27.6164C114.604 27.2043 114.175 26.9982 113.633 26.9982C112.719 26.9982 111.99 27.322 111.448 27.9697C110.934 28.6173 110.676 29.471 110.676 30.5307V41.6581H101.936V9.86562H110.462V22.141C111.119 21.2285 112.019 20.4631 113.161 19.8449C114.304 19.2267 115.461 18.9176 116.632 18.9176C118.917 18.9176 120.745 19.683 122.116 21.2138C123.487 22.7151 124.172 24.9376 124.172 27.8813Z" fill="white"/>
<path d="M126.882 28.1904V20.2865C128.939 19.3739 131.667 18.9176 135.066 18.9176C138.55 18.9176 141.207 19.7125 143.035 21.3021C144.891 22.8917 145.819 25.0848 145.819 27.8813V41.6581H137.979L137.808 40.2009L137.85 38.8762H137.765C136.765 41.1724 134.794 42.3204 131.852 42.3204C129.967 42.3204 128.353 41.7464 127.011 40.5983C125.697 39.4503 125.04 37.7429 125.04 35.4762C125.04 32.8268 126.211 30.8692 128.553 29.6034C130.895 28.3082 133.752 27.9108 137.122 28.4112V28.3671C137.122 26.9835 135.922 26.2917 133.523 26.2917C130.981 26.2917 128.768 26.9246 126.882 28.1904ZM134.466 35.6528C135.208 35.6528 135.794 35.3732 136.222 34.8139C136.679 34.2546 136.908 33.445 136.908 32.3853C135.623 32.1792 134.651 32.2675 133.995 32.6502C133.366 33.0329 133.052 33.5628 133.052 34.2398C133.052 35.1818 133.523 35.6528 134.466 35.6528Z" fill="white"/>
<path d="M169.39 39.2295C167.505 41.2901 165.191 42.3204 162.449 42.3204C159.707 42.3204 157.708 41.5109 156.451 39.8918H156.366C156.451 40.2451 156.494 40.8633 156.494 41.7464V51.3724H147.754V19.58H155.637L155.809 21.0371L155.766 22.3618H155.852C156.28 21.3609 157.094 20.5367 158.294 19.8891C159.522 19.2415 160.836 18.9176 162.235 18.9176C165.063 18.9176 167.434 19.9627 169.347 22.0527C171.29 24.1133 172.261 26.9688 172.261 30.619C172.261 34.2693 171.304 37.1394 169.39 39.2295ZM163.049 27.5281C162.364 26.7333 161.507 26.3359 160.479 26.3359C159.45 26.3359 158.579 26.7333 157.865 27.5281C157.18 28.2935 156.837 29.3238 156.837 30.619C156.837 31.9143 157.18 32.9593 157.865 33.7541C158.579 34.5195 159.45 34.9022 160.479 34.9022C161.507 34.9022 162.364 34.5195 163.049 33.7541C163.763 32.9593 164.12 31.9143 164.12 30.619C164.12 29.3238 163.763 28.2935 163.049 27.5281Z" fill="white"/>
<path d="M194.956 39.2295C193.071 41.2901 190.757 42.3204 188.015 42.3204C185.273 42.3204 183.274 41.5109 182.017 39.8918H181.931C182.017 40.2451 182.06 40.8633 182.06 41.7464V51.3724H173.32V19.58H181.203L181.374 21.0371L181.332 22.3618H181.417C181.846 21.3609 182.66 20.5367 183.859 19.8891C185.087 19.2415 186.401 18.9176 187.801 18.9176C190.629 18.9176 192.999 19.9627 194.913 22.0527C196.855 24.1133 197.826 26.9688 197.826 30.619C197.826 34.2693 196.87 37.1394 194.956 39.2295ZM188.615 27.5281C187.929 26.7333 187.073 26.3359 186.044 26.3359C185.016 26.3359 184.145 26.7333 183.431 27.5281C182.745 28.2935 182.403 29.3238 182.403 30.619C182.403 31.9143 182.745 32.9593 183.431 33.7541C184.145 34.5195 185.016 34.9022 186.044 34.9022C187.073 34.9022 187.929 34.5195 188.615 33.7541C189.329 32.9593 189.686 31.9143 189.686 30.619C189.686 29.3238 189.329 28.2935 188.615 27.5281Z" fill="white"/>
<path d="M209.239 18.9176C212.523 18.9176 215.051 19.9185 216.822 21.9203C218.593 23.8926 219.478 26.3506 219.478 29.2943C219.478 30.5896 219.393 31.6346 219.221 32.4294H207.011C207.382 34.0485 208.867 34.858 211.466 34.858C214.037 34.858 216.408 34.4606 218.578 33.6658V41.084C216.665 41.9083 214.008 42.3204 210.61 42.3204C206.696 42.3204 203.612 41.2312 201.355 39.0529C199.099 36.8745 197.971 34.0632 197.971 30.619C197.971 27.2632 199.042 24.4813 201.184 22.2735C203.355 20.0363 206.04 18.9176 209.239 18.9176ZM211.295 28.5878C211.352 27.7342 211.195 27.0571 210.824 26.5567C210.452 26.0268 209.895 25.7618 209.153 25.7618C208.439 25.7618 207.882 26.0268 207.482 26.5567C207.111 27.0571 206.925 27.7342 206.925 28.5878H211.295Z" fill="white"/>
<path d="M242.838 27.8813V41.6581H234.098V29.206C234.098 28.529 233.926 27.9991 233.584 27.6164C233.269 27.2043 232.841 26.9982 232.298 26.9982C231.384 26.9982 230.656 27.322 230.113 27.9697C229.599 28.6173 229.342 29.471 229.342 30.5307V41.6581H220.602V19.58H228.485L228.742 21.567C228.799 22.0086 228.742 22.4649 228.571 22.9359H228.656C229.171 21.8761 230.07 20.9488 231.356 20.154C232.641 19.3298 233.955 18.9176 235.297 18.9176C237.582 18.9176 239.41 19.683 240.781 21.2138C242.152 22.7151 242.838 24.9376 242.838 27.8813Z" fill="white"/>
<path d="M254.417 27.8372C257.102 28.5142 259.029 29.3974 260.201 30.4866C261.4 31.5463 262 33.1065 262 35.1671C262 37.4338 261.143 39.2 259.429 40.4659C257.716 41.7022 255.316 42.3204 252.232 42.3204C249.404 42.3204 246.862 41.8494 244.605 40.9074V33.1359C245.634 33.7247 246.89 34.2546 248.376 34.7256C249.861 35.1671 251.118 35.3879 252.146 35.3879C253.403 35.3879 254.031 35.1671 254.031 34.7256C254.031 34.4017 253.26 34.0338 251.717 33.6216C251.546 33.5922 251.418 33.5628 251.332 33.5333C248.99 32.9446 247.205 32.1056 245.976 31.0164C244.748 29.8978 244.134 28.2787 244.134 26.1593C244.134 23.8631 244.891 22.0822 246.405 20.8164C247.919 19.5505 250.047 18.9176 252.789 18.9176C255.673 18.9176 258.273 19.3739 260.586 20.2865V27.8372C259.672 27.3368 258.515 26.8952 257.116 26.5125C255.745 26.1298 254.559 25.9385 253.56 25.9385C252.589 25.9385 252.103 26.1593 252.103 26.6008C252.103 27.0718 252.874 27.4839 254.417 27.8372Z" fill="white"/>
<path d="M66.4198 16.9095C65.5893 16.049 65.1741 14.8811 65.1741 13.406C65.1741 11.9308 65.5893 10.7783 66.4198 9.94856C67.2799 9.08804 68.3364 8.73242 69.8194 8.73242C71.3024 8.73242 72.6894 9.08804 73.5198 9.94856C74.38 10.7783 74.6949 11.9308 74.6949 13.406C74.6949 14.8811 74.2648 16.049 73.4047 16.9095C72.5742 17.7393 71.4175 18.1542 69.9345 18.1542C68.4515 18.1542 67.2799 17.7393 66.4198 16.9095Z" fill="url(#paint0_linear)"/>
<path d="M23.8776 49.218C37.0648 49.218 47.7551 38.2001 47.7551 24.609C47.7551 11.0178 37.0648 0 23.8776 0C10.6903 0 0 11.0178 0 24.609C0 38.2001 10.6903 49.218 23.8776 49.218Z" fill="url(#paint1_linear)"/>
<path fill-rule="evenodd" clip-rule="evenodd" d="M14.5338 3.78587L14.1954 3.82263C13.0878 3.94291 12.3731 4.9195 12.4807 5.97415C13.5197 16.2583 13.6232 17.1638 14.1953 22.7593C14.3172 23.8257 14.3263 24.6012 14.577 25.3154C14.8277 26.0296 15.3492 26.6095 16.1083 27.0184C16.8784 27.4333 18.4454 28.1961 20.0313 29.0816C21.6173 29.9671 23.2249 31.0088 23.9008 31.75C23.9128 31.7614 23.9767 31.8246 23.9994 31.847L27.9144 35.7107C28.377 36.1836 28.3647 36.2928 27.875 36.998C26.2519 39.2464 24.6568 41.5138 23.0378 43.7842C22.409 44.6641 22.6093 45.8599 23.4387 46.4879C23.5302 46.5627 23.5991 46.6202 23.7132 46.6955C24.6045 47.3256 25.6985 47.1334 26.3362 46.2824C28.2352 43.6172 30.2996 40.7276 32.1367 38.1475H32.137C32.5675 37.5284 32.7469 36.6944 32.6948 36.0094C32.6428 35.3244 32.4653 34.729 32.0401 34.2593L32.0398 34.2589C30.7604 32.8455 29.3673 31.3282 28.2315 30.0827L28.2311 30.0823L28.2052 30.0539C27.9868 29.8144 27.9147 29.536 27.9419 29.3225C27.9672 29.1242 28.0434 28.9709 28.2815 28.8489C30.411 27.9082 32.693 26.8914 34.5763 26.0812C35.0701 25.8655 35.2695 25.9056 35.726 26.2697C37.6809 28.0766 39.7438 29.9023 41.7538 31.7084C42.5294 32.4052 43.7252 32.321 44.4014 31.5216L44.6251 31.2574C45.3011 30.4581 45.2193 29.2257 44.4438 28.5287C42.0425 26.3853 39.5897 24.175 37.5204 22.3073V22.3067C37.1114 21.9794 36.651 21.7596 36.1401 21.6364C35.9451 21.5938 35.7368 21.565 35.5122 21.549C34.8624 21.5025 34.2662 21.6159 33.7157 21.8189C31.492 22.7486 29.0606 23.8256 27.0299 24.7272C26.6339 24.9218 26.4353 24.934 26.0289 24.6975C24.2669 23.4826 22.8054 22.3997 21.3951 21.3034C21.0013 21.0019 21.0317 20.7 21.2542 20.3287L27.5347 9.88225C28.0766 8.98083 27.8025 7.77863 26.9279 7.22009L26.6387 7.03499C25.7647 6.47644 24.5975 6.75882 24.0556 7.66031L17.9914 17.7468C17.9378 17.8358 17.8737 17.9427 17.8264 18.0216C17.8117 17.8833 17.8013 17.7686 17.7934 17.6913L16.5517 5.53267C16.4256 4.52075 15.6178 3.66831 14.5338 3.78603L14.5338 3.78587Z" fill="#4A154B"/>
<path d="M13.0162 24.4888C12.5468 24.7128 12.0239 24.8379 11.4726 24.8379C9.44207 24.8379 7.79602 23.1414 7.79602 21.0487C7.79602 18.956 9.44207 17.2595 11.4726 17.2595C11.7479 17.2595 12.0162 17.2907 12.2743 17.3499" fill="#4A154B"/>
<defs>
<linearGradient id="paint0_linear" x1="69.9345" y1="8.73242" x2="69.9345" y2="43.0761" gradientUnits="userSpaceOnUse">
<stop stop-color="#FED337"/>
<stop offset="1" stop-color="#FDBB00"/>
</linearGradient>
<linearGradient id="paint1_linear" x1="23.8776" y1="0" x2="23.8776" y2="49.218" gradientUnits="userSpaceOnUse">
<stop stop-color="#FED337"/>
<stop offset="1" stop-color="#FDBB00"/>
</linearGradient>
</defs>
</svg>
