<svg width="188" height="94" viewBox="0 0 188 94" fill="none" xmlns="http://www.w3.org/2000/svg">
<path d="M33.3295 40.7174C37.3597 40.7254 41.2802 39.4051 44.4842 36.9606C47.6883 34.5162 49.9971 31.084 51.0536 27.1952C52.1102 23.3064 51.8553 19.1778 50.3286 15.4484C48.8019 11.7189 46.0883 8.59652 42.608 6.56454C39.1277 4.53256 35.0748 3.70438 31.0762 4.20785C27.0776 4.71132 23.3566 6.5185 20.4887 9.34979C17.6209 12.1811 15.766 15.8786 15.2116 19.8701C14.6573 23.8615 15.434 27.9244 17.4218 31.4299C17.2624 31.5478 17.1175 31.6836 16.9894 31.8349C10.9112 38.689 6.8713 47.1061 5.32583 56.1353C5.32152 56.1535 5.32152 56.1724 5.32583 56.1906L0.0325478 90.5335C-0.0811653 91.2804 0.105659 92.0418 0.552616 92.6509C0.999573 93.26 1.67004 93.6672 2.41668 93.7828C2.5606 93.7961 2.70563 93.7961 2.84955 93.7828C3.53077 93.7819 4.18889 93.5374 4.70552 93.0934C5.22215 92.6494 5.56281 92.0352 5.6661 91.3619L10.9504 57.0466C12.3071 49.203 15.7871 41.881 21.0124 35.8757C24.365 38.978 28.7616 40.7063 33.3295 40.7174ZM33.3295 9.8262C35.8225 9.82438 38.2599 10.562 40.3336 11.9456C42.4073 13.3291 44.0238 15.2966 44.9791 17.599C45.9344 19.9014 46.1853 22.4353 45.7001 24.8803C45.2149 27.3253 44.0155 29.5716 42.2534 31.3349C40.4912 33.0981 38.2458 34.299 35.8008 34.786C33.3559 35.2729 30.8214 35.0239 28.5181 34.0705C26.2147 33.117 24.2459 31.5019 22.8607 29.4294C21.4755 27.357 20.7359 24.9204 20.7359 22.4277C20.7384 19.0879 22.0658 15.8856 24.4268 13.5232C26.7877 11.1607 29.9894 9.83108 33.3295 9.8262Z" fill="url(#paint0_linear)"/>
<path d="M80.6463 49.3792C79.5501 48.9415 78.3765 48.7296 77.1964 48.7565C76.0163 48.7834 74.8541 49.0485 73.7789 49.5356L51.2341 59.6609L42.4887 43.4328C42.131 42.7675 41.5237 42.2718 40.8004 42.0543C40.077 41.8368 39.2969 41.9153 38.6316 42.273C37.9663 42.6306 37.4705 43.238 37.253 43.9613C37.0354 44.6846 37.1142 45.4647 37.4719 46.1299L47.4691 64.6958C47.8108 65.3314 48.3807 65.8139 49.0639 66.0462C49.7471 66.2785 50.493 66.2433 51.1514 65.9478L76.1172 54.7454C76.8728 54.4 77.7348 54.3689 78.5135 54.6589C79.2921 54.9489 79.9233 55.5364 80.2687 56.292C80.6142 57.0476 80.6455 57.9093 80.3555 58.6878C80.0654 59.4663 79.4781 60.0979 78.7225 60.4434L49.5404 74.0478C48.271 74.6339 46.8281 74.7237 45.4958 74.2995C44.1635 73.8753 43.0385 72.9679 42.3417 71.7558L34.1852 57.3689C33.8015 56.731 33.1837 56.2682 32.4636 56.0794C31.7435 55.8906 30.9781 55.9906 30.3307 56.3581C29.6834 56.7256 29.2053 57.3314 28.9984 58.0464C28.7915 58.7615 28.8725 59.5292 29.2236 60.1856L37.0206 73.9098V90.9847C36.9985 91.3724 37.0559 91.7606 37.1891 92.1254C37.3224 92.4902 37.5288 92.824 37.7955 93.1063C38.0622 93.3886 38.3837 93.6135 38.7403 93.7672C39.097 93.9209 39.4815 94 39.8699 94C40.2583 94 40.6428 93.9209 40.9995 93.7672C41.3562 93.6135 41.6776 93.3886 41.9443 93.1063C42.2111 92.824 42.4175 92.4902 42.5507 92.1254C42.6839 91.7606 42.7409 91.3724 42.7188 90.9847V79.2947C44.1478 79.9037 45.6856 80.2168 47.2389 80.2152C48.8679 80.2142 50.4769 79.8559 51.9523 79.1657L81.134 65.561C82.6981 64.8325 84.0148 63.6617 84.9206 62.1933C85.8263 60.7249 86.2818 59.0233 86.2308 57.2988C86.1799 55.5743 85.6246 53.9025 84.6338 52.4901C83.6429 51.0777 82.2601 49.9865 80.6557 49.3516L80.6463 49.3792Z" fill="url(#paint1_linear)"/>
<path d="M187.266 52.9784C186.81 51.8913 186.142 50.9063 185.3 50.0812C184.458 49.2561 183.46 48.6076 182.364 48.1737C181.268 47.7398 180.096 47.5294 178.918 47.5546C177.739 47.5799 176.577 47.8403 175.501 48.3207L152.956 58.4459L144.036 41.8774C142.944 39.8486 141.45 38.0635 139.645 36.6307L136.285 33.943C139.467 32.0119 141.985 29.1561 143.502 25.7569C145.02 22.3577 145.464 18.5767 144.776 14.9184C144.089 11.2601 142.302 7.89844 139.653 5.28217C137.005 2.66591 133.622 0.919469 129.956 0.275738C126.289 -0.367993 122.513 0.12162 119.132 1.67937C115.751 3.23713 112.925 5.78899 111.032 8.99419C109.139 12.1994 108.269 15.9056 108.538 19.6183C108.806 23.331 110.2 26.8735 112.535 29.7732L106.938 32.3598C105.668 32.9525 104.474 33.6973 103.384 34.5781L90.4133 45.0714L73.5213 27.0394C71.9145 25.4015 69.7327 24.4534 67.4388 24.3962C65.1449 24.339 62.9191 25.1773 61.2326 26.7331C59.5462 28.289 58.5317 30.4402 58.4044 32.7311C58.2771 35.0219 59.0466 37.2725 60.5503 39.0056L68.6884 47.9526C69.1962 48.5117 69.905 48.8461 70.6594 48.8823C71.4138 48.9186 72.1518 48.6537 72.7109 48.1459C73.27 47.6381 73.6046 46.9289 73.6409 46.1746C73.6771 45.4202 73.412 44.6823 72.9042 44.1233L64.7576 35.1671C64.3477 34.7139 64.0793 34.1508 63.9858 33.547C63.8922 32.9432 63.9772 32.3254 64.2308 31.7695C64.4843 31.2135 64.8952 30.7439 65.4125 30.4186C65.9297 30.0933 66.5308 29.9265 67.1417 29.9388C67.5589 29.9444 67.9704 30.0345 68.3517 30.2038C68.733 30.3731 69.0764 30.6181 69.3604 30.9238L88.066 50.8981C88.559 51.4236 89.2323 51.7432 89.9512 51.7927C90.6701 51.8422 91.3812 51.618 91.9416 51.1651L106.965 38.9964C107.694 38.416 108.488 37.9217 109.331 37.5235L117.211 33.8416C120.086 35.6364 123.405 36.5928 126.794 36.6031C127.906 36.5989 129.016 36.4912 130.108 36.281L136.092 41.0583C137.298 42.0106 138.294 43.2013 139.019 44.5561L149.145 63.4441C149.487 64.0796 150.057 64.5622 150.74 64.7944C151.423 65.0267 152.169 64.9915 152.828 64.696L177.793 53.4939C178.175 53.3213 178.588 53.2274 179.007 53.2179C179.427 53.2084 179.843 53.2835 180.233 53.4386C180.623 53.5911 180.977 53.8218 181.275 54.1162C181.572 54.4106 181.807 54.7626 181.963 55.1508C182.277 55.8959 182.288 56.7333 181.997 57.487C181.705 58.2408 181.132 58.8518 180.398 59.1916L151.217 72.7962C149.949 73.3783 148.51 73.4669 147.18 73.0448C145.851 72.6227 144.727 71.7201 144.027 70.5135L138.549 60.517C138.522 60.4855 138.497 60.4518 138.476 60.4159L138.301 60.1673C138.251 60.0958 138.196 60.0282 138.136 59.9649C138.075 59.8935 138.007 59.8285 137.933 59.7714C137.866 59.7082 137.796 59.6498 137.721 59.5965L137.491 59.4401L137.261 59.3204L136.994 59.21L136.736 59.1363C136.648 59.1126 136.559 59.0941 136.469 59.081C136.371 59.0719 136.272 59.0719 136.174 59.081H136.046H135.917H135.613L135.346 59.1363L135.079 59.2192L134.803 59.3388L134.674 59.3941L134.573 59.4586L134.324 59.6334L134.122 59.799L133.928 60.0015C133.803 60.1352 133.695 60.2838 133.606 60.4435C133.56 60.5264 133.514 60.5998 133.477 60.6826C133.438 60.7663 133.404 60.8524 133.376 60.9404C133.34 61.0234 133.312 61.1098 133.293 61.1982L133.238 61.4651V61.769C133.238 61.769 133.238 61.8425 133.238 61.8885V90.9388C133.216 91.3265 133.273 91.7147 133.406 92.0795C133.54 92.4443 133.746 92.7781 134.013 93.0604C134.279 93.3427 134.601 93.5676 134.958 93.7213C135.314 93.875 135.699 93.9542 136.087 93.9542C136.476 93.9542 136.86 93.875 137.216 93.7213C137.573 93.5676 137.895 93.3427 138.162 93.0604C138.428 92.7781 138.635 92.4443 138.768 92.0795C138.901 91.7147 138.958 91.3265 138.936 90.9388V73.0356L139.083 73.3026C140.076 75.0346 141.509 76.473 143.238 77.4721C144.966 78.4712 146.928 78.9953 148.924 78.991C150.556 78.9943 152.168 78.6391 153.647 77.9508L182.829 64.3463C184.891 63.389 186.504 61.6719 187.331 59.5536C188.158 57.4354 188.134 55.0797 187.266 52.9784ZM114.191 18.3318C114.191 15.8395 114.931 13.4029 116.315 11.3307C117.7 9.25839 119.668 7.64339 121.971 6.68963C124.274 5.73587 126.808 5.48631 129.253 5.97253C131.697 6.45876 133.943 7.65884 135.706 9.42117C137.468 11.1835 138.668 13.4288 139.155 15.8733C139.641 18.3177 139.391 20.8513 138.437 23.1539C137.483 25.4565 135.868 27.4247 133.796 28.8094C131.723 30.194 129.286 30.933 126.794 30.933C123.452 30.9306 120.248 29.6021 117.885 27.2394C115.522 24.8768 114.194 21.6731 114.191 18.3318Z" fill="url(#paint2_linear)"/>
<path d="M106.615 55.2699C106.62 55.1841 106.62 55.098 106.615 55.0121L106.532 54.7452L106.431 54.4782L106.311 54.2573L106.146 53.9905C106.128 53.9673 106.113 53.9426 106.099 53.9168C106.099 53.8708 106.017 53.8431 105.98 53.797C105.914 53.7189 105.843 53.6451 105.768 53.5761L105.565 53.4013C105.492 53.3439 105.415 53.2917 105.335 53.2449L105.096 53.1159C104.928 53.0335 104.753 52.9687 104.571 52.9226L104.313 52.8581C104.212 52.849 104.111 52.849 104.01 52.8581H103.844H103.761C103.651 52.8581 103.55 52.8581 103.439 52.8581L103.2 52.9042C103.106 52.9263 103.014 52.9541 102.924 52.9871L102.666 53.0793C102.586 53.1167 102.509 53.1596 102.436 53.208C102.344 53.2545 102.258 53.31 102.178 53.3737L102.104 53.4197L93.9854 59.6883C93.3913 60.1495 92.7093 60.4844 91.9812 60.6728C91.253 60.8611 90.494 60.8989 89.7508 60.7836C89.0104 60.6882 88.2619 60.8867 87.6662 61.3366C87.0704 61.7865 86.6748 62.4519 86.564 63.1902C86.4532 63.9284 86.6363 64.6806 87.0737 65.2855C87.5112 65.8905 88.1682 66.3001 88.904 66.4262C89.4526 66.5073 90.0063 66.5472 90.5608 66.5458C93.0609 66.5467 95.4911 65.7215 97.4738 64.1985L100.99 61.4371V90.9569C100.968 91.3447 101.026 91.7328 101.159 92.0976C101.292 92.4624 101.498 92.7963 101.765 93.0786C102.032 93.3609 102.354 93.5858 102.71 93.7395C103.067 93.8932 103.451 93.9723 103.839 93.9723C104.228 93.9723 104.612 93.8932 104.969 93.7395C105.326 93.5858 105.647 93.3609 105.914 93.0786C106.18 92.7963 106.387 92.4624 106.52 92.0976C106.653 91.7328 106.711 91.3447 106.689 90.9569V55.638C106.689 55.638 106.689 55.5737 106.689 55.5461C106.672 55.4521 106.647 55.3597 106.615 55.2699Z" fill="url(#paint3_linear)"/>
<defs>
<linearGradient id="paint0_linear" x1="-22.9438" y1="-31.1689" x2="183.55" y2="130.736" gradientUnits="userSpaceOnUse">
<stop stop-color="#963298"/>
<stop offset="1" stop-color="#4A154B"/>
</linearGradient>
<linearGradient id="paint1_linear" x1="-5.62774" y1="-13.4199" x2="171.429" y2="123.81" gradientUnits="userSpaceOnUse">
<stop stop-color="#963298"/>
<stop offset="1" stop-color="#4A154B"/>
</linearGradient>
<linearGradient id="paint2_linear" x1="48.0521" y1="-13.4199" x2="187.879" y2="94.3726" gradientUnits="userSpaceOnUse">
<stop stop-color="#963298"/>
<stop offset="1" stop-color="#4A154B"/>
</linearGradient>
<linearGradient id="paint3_linear" x1="51.5153" y1="28.1387" x2="136.797" y2="112.987" gradientUnits="userSpaceOnUse">
<stop stop-color="#963298"/>
<stop offset="1" stop-color="#4A154B"/>
</linearGradient>
</defs>
</svg>
