<svg width="60" height="80" viewBox="0 0 60 80" fill="none" xmlns="http://www.w3.org/2000/svg">
<path d="M26.9169 78.3859C4.21406 45.4736 0 42.0958 0 30C0 13.4314 13.4314 0 30 0C46.5686 0 60 13.4314 60 30C60 42.0958 55.7859 45.4736 33.0831 78.3859C31.5933 80.5381 28.4066 80.538 26.9169 78.3859ZM30 42.5C36.9036 42.5 42.5 36.9036 42.5 30C42.5 23.0964 36.9036 17.5 30 17.5C23.0964 17.5 17.5 23.0964 17.5 30C17.5 36.9036 23.0964 42.5 30 42.5Z" fill="url(#paint0_linear)"/>
<path d="M53 30.5C53 42.9264 42.9264 53 30.5 53C18.0736 53 8 42.9264 8 30.5C8 18.0736 18.0736 8 30.5 8C42.9264 8 53 18.0736 53 30.5Z" fill="url(#paint1_linear)" stroke="white" stroke-width="2" stroke-linecap="round" stroke-linejoin="round"/>
<path d="M34.4732 41.1014L30.6201 37.4118L30.6189 37.4106C30.5955 37.3882 30.5347 37.3298 30.5231 37.3192C29.8579 36.6113 28.2757 35.6166 26.7148 34.771C25.6953 34.2187 24.6837 33.7164 23.8935 33.324C23.4739 33.1156 23.1167 32.9382 22.8538 32.8008C22.1067 32.4103 21.5935 31.8566 21.3467 31.1746C21.1634 30.6677 21.1113 30.1285 21.0474 29.467C21.0253 29.2384 21.0018 28.9952 20.971 28.7337L21.4676 28.6752C21.4677 28.6762 21.4678 28.6772 21.468 28.6782M34.4732 41.1014L32.6175 30.5845C30.8834 29.4243 29.445 28.3902 28.057 27.3434L27.7588 27.7447C27.7583 27.7444 27.7579 27.744 27.7574 27.7437C27.4964 27.5494 27.2928 27.2902 27.2622 26.9474C27.2339 26.6309 27.3663 26.3548 27.4929 26.1498L27.4933 26.1492L33.6745 16.1735C34.0624 15.5475 33.8651 14.7077 33.239 14.3197L33.2386 14.3195L32.9542 14.1429C32.3288 13.7551 31.4883 13.9523 31.1004 14.5784L31.1004 14.5784L25.1322 24.2104L25.132 24.2106C25.0795 24.2953 25.0166 24.397 24.97 24.4724L24.2052 25.7096L24.0476 24.2636C24.0382 24.1772 24.0299 24.094 24.0234 24.0292C24.0201 23.9962 24.0173 23.9679 24.015 23.9463C24.015 23.9463 24.015 23.9462 24.015 23.9461L22.7935 12.3417C22.6947 11.5908 22.098 11.0345 21.3566 11.1126L21.0025 11.1499C20.2043 11.2448 19.7039 11.9213 19.7808 12.6526L19.7808 12.6531C20.4739 19.309 20.7439 21.8502 21.0213 24.4608C21.1531 25.7013 21.2866 26.9575 21.468 28.6782M34.4732 41.1014C34.9285 41.553 34.9164 41.6573 34.4345 42.3307M34.4732 41.1014L34.4345 42.3307M21.468 28.6782C21.4985 28.9375 21.5219 29.1785 21.5433 29.4007L21.5448 29.416C21.5659 29.6348 21.5851 29.8329 21.6077 30.0202C21.654 30.403 21.7124 30.7155 21.8169 31.0045C22.0142 31.5499 22.4299 32.0151 23.0855 32.3577L23.0855 32.3577C23.3303 32.4857 23.6774 32.6582 24.0901 32.8632C24.8878 33.2595 25.9304 33.7775 26.953 34.3314C27.7422 34.759 28.5408 35.2263 29.2294 35.6789C29.9029 36.1215 30.5009 36.5692 30.8765 36.9652C30.9015 36.9888 30.9439 37.0296 30.9621 37.0471L30.9659 37.0507L30.9664 37.0511L34.8191 40.7402L34.8191 40.7402L34.8254 40.7464C34.9394 40.8595 35.0576 40.9825 35.1442 41.1137C35.2397 41.2582 35.3132 41.4363 35.3049 41.6519C35.2974 41.85 35.2221 42.0216 35.1452 42.1603C35.0677 42.3003 34.9606 42.4547 34.8411 42.6217L34.8411 42.6217L34.8356 42.6291C33.7876 44.0376 32.7527 45.4524 31.7138 46.8726C31.17 47.616 30.6251 48.3609 30.0766 49.1071L30.0763 49.1075C29.6249 49.7205 29.7659 50.5503 30.3644 50.99L30.3718 50.9955L30.379 51.0012L30.3915 51.0111C30.4751 51.0774 30.524 51.1163 30.6083 51.1703L30.6148 51.1745L30.6212 51.1789C31.2776 51.629 32.0545 51.495 32.5208 50.8955C33.3549 49.7597 34.2209 48.5819 35.0848 47.4069C36.1565 45.9493 37.2251 44.496 38.2256 43.1326L38.2331 43.1224C38.5721 42.6401 38.7224 41.9724 38.6796 41.4257C38.6336 40.8394 38.4835 40.3985 38.1746 40.0635C38.1724 40.0611 38.1702 40.0588 38.1681 40.0565L38.1677 40.0561C37.3074 39.1339 36.3955 38.166 35.5468 37.2653C35.1542 36.8486 34.7751 36.4463 34.4209 36.0695L21.468 28.6782ZM24.2822 23.6835L24.2821 23.6837L24.5046 23.8215L24.5123 23.894C24.515 23.9202 24.5181 23.9508 24.5215 23.9854C24.5278 24.0483 24.5354 24.1242 24.5447 24.2095L24.2822 23.6835ZM24.2822 23.6835C24.2822 23.6835 24.2822 23.6834 24.2822 23.6834L24.2822 23.6835ZM34.4345 42.3307C33.3854 43.7407 32.3483 45.1584 31.3085 46.5797C30.765 47.3227 30.2208 48.0667 29.6737 48.811M34.4345 42.3307L29.6737 48.811M29.6737 48.811C29.0548 49.6513 29.252 50.7932 30.0683 51.3929L29.6737 48.811ZM34.4209 36.0694L34.4206 36.0691L34.4203 36.0688L34.3951 36.042C34.3951 36.0419 34.395 36.0418 34.395 36.0418L34.4209 36.0694Z" fill="url(#paint2_linear)" stroke="white"/>
<mask id="path-4-inside-1" fill="white">
<path d="M19.8105 30.3844C19.3486 30.5984 18.8339 30.7178 18.2913 30.7178C16.2929 30.7178 14.6729 29.0977 14.6729 27.0993C14.6729 25.1009 16.2929 23.4809 18.2913 23.4809C18.5623 23.4809 18.8264 23.5107 19.0803 23.5672"/>
</mask>
<path d="M19.8105 30.3844C19.3486 30.5984 18.8339 30.7178 18.2913 30.7178C16.2929 30.7178 14.6729 29.0977 14.6729 27.0993C14.6729 25.1009 16.2929 23.4809 18.2913 23.4809C18.5623 23.4809 18.8264 23.5107 19.0803 23.5672" fill="url(#paint3_linear)"/>
<path d="M19.3901 29.477C19.8913 29.2449 20.4857 29.4629 20.7179 29.964C20.95 30.4652 20.7319 31.0596 20.2308 31.2917L19.3901 29.477ZM19.2975 22.5911C19.8366 22.711 20.1764 23.2453 20.0565 23.7844C19.9365 24.3235 19.4022 24.6633 18.8631 24.5433L19.2975 22.5911ZM20.2308 31.2917C19.6398 31.5655 18.982 31.7178 18.2913 31.7178V29.7178C18.6858 29.7178 19.0573 29.6312 19.3901 29.477L20.2308 31.2917ZM18.2913 31.7178C15.7406 31.7178 13.6729 29.65 13.6729 27.0993H15.6729C15.6729 28.5455 16.8452 29.7178 18.2913 29.7178V31.7178ZM13.6729 27.0993C13.6729 24.5486 15.7406 22.4809 18.2913 22.4809V24.4809C16.8452 24.4809 15.6729 25.6532 15.6729 27.0993H13.6729ZM18.2913 22.4809C18.6358 22.4809 18.9727 22.5188 19.2975 22.5911L18.8631 24.5433C18.68 24.5026 18.4888 24.4809 18.2913 24.4809V22.4809Z" fill="white" mask="url(#path-4-inside-1)"/>
<defs>
<linearGradient id="paint0_linear" x1="0" y1="0" x2="30" y2="88.5" gradientUnits="userSpaceOnUse">
<stop stop-color="#FED337"/>
<stop offset="1" stop-color="#F0B930"/>
</linearGradient>
<linearGradient id="paint1_linear" x1="7" y1="7" x2="53.3057" y2="58.4508" gradientUnits="userSpaceOnUse">
<stop stop-color="#FED337"/>
<stop offset="1" stop-color="#ECB22E"/>
</linearGradient>
<linearGradient id="paint2_linear" x1="35.3218" y1="51.9463" x2="35.3218" y2="10.605" gradientUnits="userSpaceOnUse">
<stop stop-color="#4A154B"/>
<stop offset="1" stop-color="#963298"/>
</linearGradient>
<linearGradient id="paint3_linear" x1="17.2417" y1="30.7178" x2="17.2417" y2="23.4809" gradientUnits="userSpaceOnUse">
<stop stop-color="#4A154B"/>
<stop offset="1" stop-color="#963298"/>
</linearGradient>
</defs>
</svg>
