<svg width="117" height="126" viewBox="0 0 117 126" fill="none" xmlns="http://www.w3.org/2000/svg">
<mask id="path-1-outside-1" maskUnits="userSpaceOnUse" x="0" y="0" width="77" height="102" fill="black">
<rect fill="white" width="77" height="102"/>
<path d="M75.4002 99.3939L72.8741 75.7822C72.8615 73.4986 72.1327 71.2781 70.7925 69.4407C69.4523 67.6033 67.57 66.2439 65.4171 65.5585L47.2946 59.6696L46.7894 53.6632L49.9118 52.053C51.8518 52.8454 56.5049 54.609 59.3544 54.609C59.6454 54.6117 59.9359 54.5894 60.2232 54.5425C60.4608 54.5055 60.6864 54.4119 60.8812 54.2693C61.0759 54.1268 61.2344 53.9394 61.3435 53.7227C61.4525 53.506 61.5091 53.2661 61.5085 53.0229C61.5079 52.7797 61.4502 52.5401 61.34 52.3239C58.92 47.3245 57.6872 37.8932 57.6771 37.7961L56.4392 28.4618C55.9497 24.7321 54.3658 21.2366 51.8922 18.4273L54.5851 13.8266C54.8636 13.3555 55.0455 12.8325 55.1199 12.2887C55.1944 11.7449 55.1597 11.1915 55.0183 10.6615C54.8768 10.1316 54.6313 9.63587 54.2965 9.20392C53.9616 8.77197 53.5444 8.41263 53.0694 8.14735L41.5655 1.86999C40.5282 1.2991 39.3663 1 38.1855 1C37.0048 1 35.8428 1.2991 34.8056 1.86999L22.9329 8.32114C22.0183 8.81969 21.3284 9.65542 21.0067 10.6549C20.685 11.6543 20.7558 12.7407 21.2048 13.6886L23.8422 19.2452C21.7158 21.9252 20.3595 25.1457 19.9217 28.5538L18.6989 37.7961C18.6989 37.8932 17.4914 47.5495 15.0461 52.329C14.9183 52.5652 14.8543 52.8312 14.8604 53.1004C14.8664 53.3695 14.9424 53.6323 15.0807 53.8623C15.2189 54.0924 15.4146 54.2816 15.6481 54.4108C15.8815 54.5401 16.1443 54.6049 16.4103 54.5987C19.8206 54.5987 24.7466 52.8198 26.5856 52.099L29.617 53.9086L29.1117 59.7003L10.9994 65.5892C8.84511 66.273 6.96133 67.6318 5.62005 69.4695C4.27877 71.3071 3.54939 73.5285 3.53723 75.8129L1.01111 99.4245C0.986598 99.6281 1.00275 99.8346 1.05848 100.032C1.11421 100.229 1.20833 100.413 1.33551 100.572C1.4627 100.732 1.62022 100.864 1.7988 100.961C1.97738 101.058 2.17327 101.118 2.37507 101.137H2.54183C2.92047 101.139 3.28609 100.997 3.56659 100.74C3.8471 100.482 4.02217 100.128 4.05751 99.7466L6.58363 76.0583C6.58363 76.002 6.58363 75.9458 6.58363 75.8896C6.57732 74.2492 7.09124 72.6499 8.04971 71.3268C9.00819 70.0037 10.3607 69.0265 11.9087 68.5388L31.0011 62.3278C31.2913 62.2365 31.5476 62.0589 31.7368 61.8182C31.926 61.5776 32.0394 61.285 32.0622 60.9783L32.7391 53.009C32.7592 52.805 32.7388 52.599 32.6789 52.4032C32.619 52.2074 32.521 52.0258 32.3905 51.869C32.26 51.7122 32.0998 51.5835 31.9193 51.4904C31.7389 51.3974 31.5416 51.3418 31.3396 51.3271L27.49 49.0217C27.2854 48.8976 27.0547 48.8242 26.8168 48.8073C26.5789 48.7905 26.3403 48.8307 26.1206 48.9246C23.7649 49.891 21.3307 50.6487 18.8454 51.1891C20.7905 45.791 21.6898 38.5168 21.7302 38.1744L22.9531 28.973C23.2419 26.7244 24.0097 24.566 25.2039 22.6472C26.3981 20.7284 27.9901 19.095 29.8696 17.8599C30.0388 17.7484 30.1844 17.6044 30.2986 17.4359C30.4127 17.2675 30.4931 17.0779 30.5349 16.8781C30.5767 16.6782 30.5791 16.472 30.5421 16.2712C30.505 16.0704 30.4292 15.8789 30.319 15.7077C30.2089 15.5366 30.0667 15.389 29.9002 15.2735C29.7337 15.158 29.5463 15.0768 29.3488 15.0346C29.1513 14.9923 28.9476 14.9899 28.7491 15.0273C28.5506 15.0648 28.3613 15.1414 28.1921 15.2528C27.4582 15.7371 26.7594 16.2734 26.1006 16.8579L23.9584 12.3493C23.8511 12.1233 23.8343 11.8642 23.9115 11.626C23.9887 11.3878 24.1539 11.1891 24.3725 11.0713L36.2453 4.62017C36.8345 4.29892 37.4935 4.13076 38.1628 4.13076C38.8321 4.13076 39.4909 4.29892 40.0801 4.62017L51.5436 10.9435C51.658 11.0057 51.7585 11.0907 51.8394 11.1934C51.9203 11.2961 51.9798 11.4144 52.0143 11.541C52.0488 11.6676 52.0578 11.8 52.0402 11.9301C52.0227 12.0603 51.9792 12.1855 51.9124 12.2982L49.5681 16.2803C49.1286 15.9275 48.674 15.5851 48.2042 15.2579C48.0353 15.1458 47.8463 15.0684 47.6479 15.0303C47.4495 14.9921 47.2454 14.9938 47.0477 15.0353C46.8499 15.0768 46.6623 15.1574 46.4953 15.2723C46.3284 15.3872 46.1853 15.5343 46.0745 15.7052C45.9637 15.876 45.8873 16.0673 45.8495 16.268C45.8118 16.4688 45.8134 16.6751 45.8544 16.8752C45.8955 17.0753 45.9752 17.2652 46.0888 17.4341C46.2024 17.6031 46.3477 17.7478 46.5166 17.8599C48.3765 19.0934 49.9524 20.7175 51.1371 22.6218C52.3218 24.5261 53.0878 26.666 53.3827 28.8963L54.6204 38.2203C54.6608 38.5731 55.6055 45.8165 57.5708 51.3016C55.1287 50.7103 52.7394 49.9153 50.4271 48.9246C50.2207 48.838 49.9981 48.7978 49.7749 48.8066C49.5516 48.8154 49.3328 48.8731 49.1337 48.9757L44.617 51.3067C44.3868 51.4251 44.1903 51.601 44.0462 51.8179C43.9007 51.9762 43.789 52.1634 43.7186 52.3675C43.6481 52.5716 43.6204 52.7883 43.6369 53.0038L44.3139 60.9732C44.3405 61.2786 44.4553 61.5693 44.6439 61.8092C44.8326 62.0492 45.0868 62.2277 45.3749 62.3227L64.4774 68.5336C66.0235 69.0232 67.3737 70.0011 68.3302 71.3241C69.2868 72.647 69.7994 74.2453 69.7924 75.8845C69.7924 75.9407 69.7924 75.9969 69.7924 76.0532L72.3185 99.7414C72.3538 100.123 72.5289 100.477 72.8094 100.734C73.0899 100.992 73.4556 101.134 73.8342 101.132H74.0007C74.208 101.118 74.4104 101.061 74.595 100.964C74.7795 100.867 74.9423 100.733 75.0736 100.57C75.2048 100.407 75.3016 100.219 75.3577 100.017C75.4139 99.8141 75.4284 99.6022 75.4002 99.3939Z"/>
</mask>
<path d="M75.4002 99.3939L72.8741 75.7822C72.8615 73.4986 72.1327 71.2781 70.7925 69.4407C69.4523 67.6033 67.57 66.2439 65.4171 65.5585L47.2946 59.6696L46.7894 53.6632L49.9118 52.053C51.8518 52.8454 56.5049 54.609 59.3544 54.609C59.6454 54.6117 59.9359 54.5894 60.2232 54.5425C60.4608 54.5055 60.6864 54.4119 60.8812 54.2693C61.0759 54.1268 61.2344 53.9394 61.3435 53.7227C61.4525 53.506 61.5091 53.2661 61.5085 53.0229C61.5079 52.7797 61.4502 52.5401 61.34 52.3239C58.92 47.3245 57.6872 37.8932 57.6771 37.7961L56.4392 28.4618C55.9497 24.7321 54.3658 21.2366 51.8922 18.4273L54.5851 13.8266C54.8636 13.3555 55.0455 12.8325 55.1199 12.2887C55.1944 11.7449 55.1597 11.1915 55.0183 10.6615C54.8768 10.1316 54.6313 9.63587 54.2965 9.20392C53.9616 8.77197 53.5444 8.41263 53.0694 8.14735L41.5655 1.86999C40.5282 1.2991 39.3663 1 38.1855 1C37.0048 1 35.8428 1.2991 34.8056 1.86999L22.9329 8.32114C22.0183 8.81969 21.3284 9.65542 21.0067 10.6549C20.685 11.6543 20.7558 12.7407 21.2048 13.6886L23.8422 19.2452C21.7158 21.9252 20.3595 25.1457 19.9217 28.5538L18.6989 37.7961C18.6989 37.8932 17.4914 47.5495 15.0461 52.329C14.9183 52.5652 14.8543 52.8312 14.8604 53.1004C14.8664 53.3695 14.9424 53.6323 15.0807 53.8623C15.2189 54.0924 15.4146 54.2816 15.6481 54.4108C15.8815 54.5401 16.1443 54.6049 16.4103 54.5987C19.8206 54.5987 24.7466 52.8198 26.5856 52.099L29.617 53.9086L29.1117 59.7003L10.9994 65.5892C8.84511 66.273 6.96133 67.6318 5.62005 69.4695C4.27877 71.3071 3.54939 73.5285 3.53723 75.8129L1.01111 99.4245C0.986598 99.6281 1.00275 99.8346 1.05848 100.032C1.11421 100.229 1.20833 100.413 1.33551 100.572C1.4627 100.732 1.62022 100.864 1.7988 100.961C1.97738 101.058 2.17327 101.118 2.37507 101.137H2.54183C2.92047 101.139 3.28609 100.997 3.56659 100.74C3.8471 100.482 4.02217 100.128 4.05751 99.7466L6.58363 76.0583C6.58363 76.002 6.58363 75.9458 6.58363 75.8896C6.57732 74.2492 7.09124 72.6499 8.04971 71.3268C9.00819 70.0037 10.3607 69.0265 11.9087 68.5388L31.0011 62.3278C31.2913 62.2365 31.5476 62.0589 31.7368 61.8182C31.926 61.5776 32.0394 61.285 32.0622 60.9783L32.7391 53.009C32.7592 52.805 32.7388 52.599 32.6789 52.4032C32.619 52.2074 32.521 52.0258 32.3905 51.869C32.26 51.7122 32.0998 51.5835 31.9193 51.4904C31.7389 51.3974 31.5416 51.3418 31.3396 51.3271L27.49 49.0217C27.2854 48.8976 27.0547 48.8242 26.8168 48.8073C26.5789 48.7905 26.3403 48.8307 26.1206 48.9246C23.7649 49.891 21.3307 50.6487 18.8454 51.1891C20.7905 45.791 21.6898 38.5168 21.7302 38.1744L22.9531 28.973C23.2419 26.7244 24.0097 24.566 25.2039 22.6472C26.3981 20.7284 27.9901 19.095 29.8696 17.8599C30.0388 17.7484 30.1844 17.6044 30.2986 17.4359C30.4127 17.2675 30.4931 17.0779 30.5349 16.8781C30.5767 16.6782 30.5791 16.472 30.5421 16.2712C30.505 16.0704 30.4292 15.8789 30.319 15.7077C30.2089 15.5366 30.0667 15.389 29.9002 15.2735C29.7337 15.158 29.5463 15.0768 29.3488 15.0346C29.1513 14.9923 28.9476 14.9899 28.7491 15.0273C28.5506 15.0648 28.3613 15.1414 28.1921 15.2528C27.4582 15.7371 26.7594 16.2734 26.1006 16.8579L23.9584 12.3493C23.8511 12.1233 23.8343 11.8642 23.9115 11.626C23.9887 11.3878 24.1539 11.1891 24.3725 11.0713L36.2453 4.62017C36.8345 4.29892 37.4935 4.13076 38.1628 4.13076C38.8321 4.13076 39.4909 4.29892 40.0801 4.62017L51.5436 10.9435C51.658 11.0057 51.7585 11.0907 51.8394 11.1934C51.9203 11.2961 51.9798 11.4144 52.0143 11.541C52.0488 11.6676 52.0578 11.8 52.0402 11.9301C52.0227 12.0603 51.9792 12.1855 51.9124 12.2982L49.5681 16.2803C49.1286 15.9275 48.674 15.5851 48.2042 15.2579C48.0353 15.1458 47.8463 15.0684 47.6479 15.0303C47.4495 14.9921 47.2454 14.9938 47.0477 15.0353C46.8499 15.0768 46.6623 15.1574 46.4953 15.2723C46.3284 15.3872 46.1853 15.5343 46.0745 15.7052C45.9637 15.876 45.8873 16.0673 45.8495 16.268C45.8118 16.4688 45.8134 16.6751 45.8544 16.8752C45.8955 17.0753 45.9752 17.2652 46.0888 17.4341C46.2024 17.6031 46.3477 17.7478 46.5166 17.8599C48.3765 19.0934 49.9524 20.7175 51.1371 22.6218C52.3218 24.5261 53.0878 26.666 53.3827 28.8963L54.6204 38.2203C54.6608 38.5731 55.6055 45.8165 57.5708 51.3016C55.1287 50.7103 52.7394 49.9153 50.4271 48.9246C50.2207 48.838 49.9981 48.7978 49.7749 48.8066C49.5516 48.8154 49.3328 48.8731 49.1337 48.9757L44.617 51.3067C44.3868 51.4251 44.1903 51.601 44.0462 51.8179C43.9007 51.9762 43.789 52.1634 43.7186 52.3675C43.6481 52.5716 43.6204 52.7883 43.6369 53.0038L44.3139 60.9732C44.3405 61.2786 44.4553 61.5693 44.6439 61.8092C44.8326 62.0492 45.0868 62.2277 45.3749 62.3227L64.4774 68.5336C66.0235 69.0232 67.3737 70.0011 68.3302 71.3241C69.2868 72.647 69.7994 74.2453 69.7924 75.8845C69.7924 75.9407 69.7924 75.9969 69.7924 76.0532L72.3185 99.7414C72.3538 100.123 72.5289 100.477 72.8094 100.734C73.0899 100.992 73.4556 101.134 73.8342 101.132H74.0007C74.208 101.118 74.4104 101.061 74.595 100.964C74.7795 100.867 74.9423 100.733 75.0736 100.57C75.2048 100.407 75.3016 100.219 75.3577 100.017C75.4139 99.8141 75.4284 99.6022 75.4002 99.3939Z" fill="url(#paint0_linear)"/>
<path d="M75.4002 99.3939L72.8741 75.7822C72.8615 73.4986 72.1327 71.2781 70.7925 69.4407C69.4523 67.6033 67.57 66.2439 65.4171 65.5585L47.2946 59.6696L46.7894 53.6632L49.9118 52.053C51.8518 52.8454 56.5049 54.609 59.3544 54.609C59.6454 54.6117 59.9359 54.5894 60.2232 54.5425C60.4608 54.5055 60.6864 54.4119 60.8812 54.2693C61.0759 54.1268 61.2344 53.9394 61.3435 53.7227C61.4525 53.506 61.5091 53.2661 61.5085 53.0229C61.5079 52.7797 61.4502 52.5401 61.34 52.3239C58.92 47.3245 57.6872 37.8932 57.6771 37.7961L56.4392 28.4618C55.9497 24.7321 54.3658 21.2366 51.8922 18.4273L54.5851 13.8266C54.8636 13.3555 55.0455 12.8325 55.1199 12.2887C55.1944 11.7449 55.1597 11.1915 55.0183 10.6615C54.8768 10.1316 54.6313 9.63587 54.2965 9.20392C53.9616 8.77197 53.5444 8.41263 53.0694 8.14735L41.5655 1.86999C40.5282 1.2991 39.3663 1 38.1855 1C37.0048 1 35.8428 1.2991 34.8056 1.86999L22.9329 8.32114C22.0183 8.81969 21.3284 9.65542 21.0067 10.6549C20.685 11.6543 20.7558 12.7407 21.2048 13.6886L23.8422 19.2452C21.7158 21.9252 20.3595 25.1457 19.9217 28.5538L18.6989 37.7961C18.6989 37.8932 17.4914 47.5495 15.0461 52.329C14.9183 52.5652 14.8543 52.8312 14.8604 53.1004C14.8664 53.3695 14.9424 53.6323 15.0807 53.8623C15.2189 54.0924 15.4146 54.2816 15.6481 54.4108C15.8815 54.5401 16.1443 54.6049 16.4103 54.5987C19.8206 54.5987 24.7466 52.8198 26.5856 52.099L29.617 53.9086L29.1117 59.7003L10.9994 65.5892C8.84511 66.273 6.96133 67.6318 5.62005 69.4695C4.27877 71.3071 3.54939 73.5285 3.53723 75.8129L1.01111 99.4245C0.986598 99.6281 1.00275 99.8346 1.05848 100.032C1.11421 100.229 1.20833 100.413 1.33551 100.572C1.4627 100.732 1.62022 100.864 1.7988 100.961C1.97738 101.058 2.17327 101.118 2.37507 101.137H2.54183C2.92047 101.139 3.28609 100.997 3.56659 100.74C3.8471 100.482 4.02217 100.128 4.05751 99.7466L6.58363 76.0583C6.58363 76.002 6.58363 75.9458 6.58363 75.8896C6.57732 74.2492 7.09124 72.6499 8.04971 71.3268C9.00819 70.0037 10.3607 69.0265 11.9087 68.5388L31.0011 62.3278C31.2913 62.2365 31.5476 62.0589 31.7368 61.8182C31.926 61.5776 32.0394 61.285 32.0622 60.9783L32.7391 53.009C32.7592 52.805 32.7388 52.599 32.6789 52.4032C32.619 52.2074 32.521 52.0258 32.3905 51.869C32.26 51.7122 32.0998 51.5835 31.9193 51.4904C31.7389 51.3974 31.5416 51.3418 31.3396 51.3271L27.49 49.0217C27.2854 48.8976 27.0547 48.8242 26.8168 48.8073C26.5789 48.7905 26.3403 48.8307 26.1206 48.9246C23.7649 49.891 21.3307 50.6487 18.8454 51.1891C20.7905 45.791 21.6898 38.5168 21.7302 38.1744L22.9531 28.973C23.2419 26.7244 24.0097 24.566 25.2039 22.6472C26.3981 20.7284 27.9901 19.095 29.8696 17.8599C30.0388 17.7484 30.1844 17.6044 30.2986 17.4359C30.4127 17.2675 30.4931 17.0779 30.5349 16.8781C30.5767 16.6782 30.5791 16.472 30.5421 16.2712C30.505 16.0704 30.4292 15.8789 30.319 15.7077C30.2089 15.5366 30.0667 15.389 29.9002 15.2735C29.7337 15.158 29.5463 15.0768 29.3488 15.0346C29.1513 14.9923 28.9476 14.9899 28.7491 15.0273C28.5506 15.0648 28.3613 15.1414 28.1921 15.2528C27.4582 15.7371 26.7594 16.2734 26.1006 16.8579L23.9584 12.3493C23.8511 12.1233 23.8343 11.8642 23.9115 11.626C23.9887 11.3878 24.1539 11.1891 24.3725 11.0713L36.2453 4.62017C36.8345 4.29892 37.4935 4.13076 38.1628 4.13076C38.8321 4.13076 39.4909 4.29892 40.0801 4.62017L51.5436 10.9435C51.658 11.0057 51.7585 11.0907 51.8394 11.1934C51.9203 11.2961 51.9798 11.4144 52.0143 11.541C52.0488 11.6676 52.0578 11.8 52.0402 11.9301C52.0227 12.0603 51.9792 12.1855 51.9124 12.2982L49.5681 16.2803C49.1286 15.9275 48.674 15.5851 48.2042 15.2579C48.0353 15.1458 47.8463 15.0684 47.6479 15.0303C47.4495 14.9921 47.2454 14.9938 47.0477 15.0353C46.8499 15.0768 46.6623 15.1574 46.4953 15.2723C46.3284 15.3872 46.1853 15.5343 46.0745 15.7052C45.9637 15.876 45.8873 16.0673 45.8495 16.268C45.8118 16.4688 45.8134 16.6751 45.8544 16.8752C45.8955 17.0753 45.9752 17.2652 46.0888 17.4341C46.2024 17.6031 46.3477 17.7478 46.5166 17.8599C48.3765 19.0934 49.9524 20.7175 51.1371 22.6218C52.3218 24.5261 53.0878 26.666 53.3827 28.8963L54.6204 38.2203C54.6608 38.5731 55.6055 45.8165 57.5708 51.3016C55.1287 50.7103 52.7394 49.9153 50.4271 48.9246C50.2207 48.838 49.9981 48.7978 49.7749 48.8066C49.5516 48.8154 49.3328 48.8731 49.1337 48.9757L44.617 51.3067C44.3868 51.4251 44.1903 51.601 44.0462 51.8179C43.9007 51.9762 43.789 52.1634 43.7186 52.3675C43.6481 52.5716 43.6204 52.7883 43.6369 53.0038L44.3139 60.9732C44.3405 61.2786 44.4553 61.5693 44.6439 61.8092C44.8326 62.0492 45.0868 62.2277 45.3749 62.3227L64.4774 68.5336C66.0235 69.0232 67.3737 70.0011 68.3302 71.3241C69.2868 72.647 69.7994 74.2453 69.7924 75.8845C69.7924 75.9407 69.7924 75.9969 69.7924 76.0532L72.3185 99.7414C72.3538 100.123 72.5289 100.477 72.8094 100.734C73.0899 100.992 73.4556 101.134 73.8342 101.132H74.0007C74.208 101.118 74.4104 101.061 74.595 100.964C74.7795 100.867 74.9423 100.733 75.0736 100.57C75.2048 100.407 75.3016 100.219 75.3577 100.017C75.4139 99.8141 75.4284 99.6022 75.4002 99.3939Z" stroke="url(#paint1_linear)" stroke-width="1.6" mask="url(#path-1-outside-1)"/>
<path d="M33.3574 66.5464L33.3574 66.5461L30.051 67.6237L29.6699 67.745L29.67 67.7452C29.67 67.7452 29.67 67.7453 29.67 67.7453L36.4614 89.0738V99.629C36.4614 100.146 36.6643 100.643 37.0274 101.011C37.3906 101.378 37.8842 101.586 38.3998 101.586C38.9154 101.586 39.409 101.378 39.7722 101.011C40.1353 100.643 40.3382 100.146 40.3382 99.629V89.5622L47.0192 67.728C47.0972 67.4847 47.1264 67.2284 47.1055 66.9739C47.0846 66.7183 47.0136 66.4693 46.8962 66.2413C46.7788 66.0134 46.6175 65.8113 46.4216 65.6468C46.2266 65.483 46.0012 65.3598 45.7583 65.2846C45.5157 65.2057 45.2598 65.1763 45.0058 65.1984C44.7505 65.2206 44.5027 65.2942 44.2764 65.4147L44.4644 65.7678L44.2764 65.4147C44.0502 65.5352 43.8502 65.7 43.6883 65.8995C43.5271 66.0982 43.4066 66.3272 43.3341 66.5732C43.3339 66.574 43.3336 66.5748 43.3334 66.5756L38.4503 82.5372L33.3574 66.5464Z" fill="url(#paint2_linear)" stroke="url(#paint3_linear)" stroke-width="0.8"/>
<path d="M41.6106 30.6888C38.8578 33.3586 34.8341 35.958 28.556 37.7606C28.3839 37.8119 28.2054 37.8379 28.0259 37.838M41.6106 30.6888L28.0242 37.438M41.6106 30.6888C42.6055 32.4641 44.0163 33.9695 45.7227 35.07L45.7227 35.07L45.7263 35.0723C45.9424 35.2085 46.183 35.3005 46.4348 35.3427C46.6866 35.385 46.9443 35.3766 47.1928 35.3181C47.4413 35.2597 47.6757 35.1523 47.8827 35.0025C48.0897 34.8526 48.2652 34.6632 48.3995 34.4451C48.5336 34.2271 48.624 33.9848 48.6655 33.7318C48.7069 33.4789 48.6987 33.2202 48.6413 32.9705C48.584 32.7207 48.4784 32.4845 48.3307 32.2756C48.1838 32.0679 47.998 31.8911 47.7836 31.7552C46.2257 30.722 45.0328 29.2155 44.3755 27.4538C44.8388 26.7943 45.2632 26.1441 45.6404 25.5193L45.6408 25.5186C45.9068 25.0757 45.9875 24.5449 45.8663 24.0425C45.7451 23.5399 45.4314 23.1052 44.9921 22.8351C44.5526 22.5649 44.0244 22.4822 43.524 22.6057C43.0239 22.7292 42.5939 23.0482 42.3278 23.4911C41.2013 25.3648 39.765 27.3333 37.4834 29.1609C35.2011 30.9889 32.0559 32.6894 27.4969 34.0011C27.2502 34.069 27.0196 34.186 26.8186 34.345C26.617 34.5046 26.4493 34.7032 26.3253 34.929C26.2012 35.1548 26.1234 35.4032 26.096 35.6595C26.0689 35.9139 26.0918 36.1716 26.1642 36.4174M41.6106 30.6888L26.549 36.3083M28.0259 37.838C28.0253 37.838 28.0246 37.838 28.024 37.838L28.0242 37.438M28.0259 37.838C28.0265 37.838 28.0271 37.838 28.0277 37.838L28.0242 37.438M28.0259 37.838C27.6023 37.8413 27.1902 37.7028 26.8535 37.4449C26.5177 37.1878 26.2757 36.8265 26.1642 36.4174M28.0242 37.438C27.6896 37.4409 27.3636 37.3317 27.0967 37.1273C26.8298 36.923 26.6372 36.635 26.549 36.3083M26.1642 36.4174C26.1647 36.419 26.1651 36.4207 26.1656 36.4223L26.549 36.3083M26.1642 36.4174C26.1637 36.4158 26.1633 36.4141 26.1628 36.4125L26.549 36.3083" fill="url(#paint4_linear)" stroke="url(#paint5_linear)" stroke-width="0.8"/>
<path d="M59.8344 86.8378H64.8806C65.1142 86.8378 65.3455 86.8844 65.5611 86.9748C65.7768 87.0651 65.9723 87.1974 66.1368 87.3639C66.3012 87.5303 66.4316 87.7276 66.5205 87.9446L66.1503 88.0962L66.5205 87.9446C66.6093 88.1615 66.6549 88.3938 66.6549 88.6282V90.4532C66.6549 90.6878 66.609 90.9199 66.5201 91.1364C66.4312 91.3529 66.3009 91.5501 66.136 91.7163L65.8521 91.4346L66.136 91.7163C65.9712 91.8824 65.7753 92.0142 65.5596 92.1039C65.3441 92.1935 65.1131 92.2392 64.8799 92.2385M59.8344 86.8378V91.8385V92.2385M59.8344 86.8378V81.7171C59.8344 81.2436 59.6484 80.7888 59.3163 80.4527C58.9839 80.1164 58.5321 79.9267 58.0601 79.9267H56.2614C55.7894 79.9267 55.3376 80.1164 55.0052 80.4527C54.6729 80.7889 54.4874 81.2438 54.4874 81.7171V86.8378H49.4409C48.9688 86.8378 48.5171 87.0276 48.1847 87.3639C47.8524 87.7001 47.6668 88.155 47.6668 88.6282V90.4532C47.6668 90.6874 47.7124 90.9195 47.8014 91.1364C47.8903 91.3529 48.0206 91.5501 48.1855 91.7163C48.3503 91.8824 48.5462 92.0142 48.7619 92.1039C48.9774 92.1935 49.2083 92.2392 49.4416 92.2385M59.8344 86.8378L49.4409 91.8385M64.8799 92.2385C64.8796 92.2385 64.8794 92.2385 64.8791 92.2385L64.8806 91.8385V92.2385H64.8799ZM64.8799 92.2385H59.8344M59.8344 92.2385H59.4344L58.0601 98.7394L58.0586 99.1394C58.0587 99.1394 58.0589 99.1394 58.0591 99.1394C58.2924 99.1402 58.5235 99.0945 58.7391 99.0048C58.9547 98.9152 59.1507 98.7834 59.3155 98.6172C59.4804 98.451 59.6107 98.2539 59.6996 98.0373C59.7884 97.8208 59.8344 97.5887 59.8344 97.3542V92.2385ZM56.2624 99.1394H56.2614V98.7394L56.2629 99.1394C56.2627 99.1394 56.2626 99.1394 56.2624 99.1394ZM56.2624 99.1394C56.0291 99.1402 55.798 99.0945 55.5824 99.0048C55.3667 98.9152 55.1708 98.7834 55.006 98.6172C54.8411 98.451 54.7108 98.2539 54.6219 98.0373C54.5329 97.8205 54.4874 97.5884 54.4874 97.3542V92.2385M56.2624 99.1394L54.4874 92.2385M54.4874 92.2385H54.8874H54.4874ZM54.4874 92.2385V91.8385H49.4409M54.4874 92.2385H49.4416M49.4416 92.2385C49.4419 92.2385 49.4421 92.2385 49.4424 92.2385L49.4409 91.8385M49.4416 92.2385H49.4409V91.8385" fill="url(#paint6_linear)" stroke="url(#paint7_linear)" stroke-width="0.8"/>
<path d="M42.6904 10.0227L42.6904 10.0226H42.6807H39.7513V7.05391C39.7513 6.7242 39.6219 6.40714 39.3901 6.17268C39.1582 5.93802 38.8426 5.80532 38.5126 5.80532H37.4111C37.0811 5.80532 36.7655 5.93802 36.5336 6.17269C36.3017 6.40735 36.1726 6.7245 36.1726 7.05391V10.0226H33.2431C32.913 10.0226 32.5975 10.1553 32.3655 10.39L32.6444 10.6656L32.3655 10.39C32.1336 10.6246 32.0046 10.9418 32.0046 11.2712V12.3855C32.0046 12.7149 32.1336 13.0321 32.3655 13.2667L32.6444 12.9911L32.3655 13.2667C32.5975 13.5014 32.913 13.6341 33.2431 13.6341H36.1726V16.6028C36.1726 16.9322 36.3017 17.2493 36.5336 17.484C36.7655 17.7187 37.0811 17.8514 37.4111 17.8514H38.4924C38.8224 17.8514 39.138 17.7187 39.3699 17.484C39.6016 17.2496 39.7311 16.9325 39.7311 16.6028V13.6341H42.6604C42.9905 13.6341 43.3061 13.5014 43.538 13.2667C43.7697 13.0323 43.8992 12.7152 43.8992 12.3855V11.2713C43.8992 11.2712 43.8992 11.2712 43.8992 11.2712C43.8993 10.9466 43.7738 10.6341 43.5485 10.4006C43.3231 10.1668 43.0152 10.0306 42.6904 10.0227Z" fill="url(#paint8_linear)" stroke="url(#paint9_linear)" stroke-width="0.8"/>
<path d="M96.9344 104.064H93.463C93.301 104.064 93.1406 104.032 92.991 103.969C92.8415 103.906 92.7061 103.814 92.5922 103.698C92.4783 103.583 92.3881 103.446 92.3269 103.295C92.2658 103.145 92.2345 102.983 92.235 102.821M96.9344 104.064L92.485 97.7498M96.9344 104.064V104.717L93.8886 104.717L93.8882 104.717C93.2001 104.718 92.5409 104.995 92.0553 105.487C91.5697 105.978 91.2969 106.643 91.2959 107.337V107.337L91.2959 121.47L91.2959 121.47C91.2969 122.164 91.5697 122.829 92.0553 123.32C92.5409 123.812 93.2001 124.089 93.8882 124.09H93.8886H111.015H111.015C111.703 124.089 112.362 123.812 112.847 123.32C113.332 122.829 113.604 122.163 113.604 121.47V107.352C113.606 107.007 113.54 106.665 113.411 106.345L113.179 106.439L96.9344 104.064ZM92.235 102.821C92.235 102.821 92.235 102.82 92.235 102.82L92.485 102.821H92.235V102.821ZM92.235 102.821V97.7502M92.235 97.7502C92.235 97.7503 92.235 97.7505 92.235 97.7507L92.485 97.7498M92.235 97.7502V97.7498H92.485M92.235 97.7502C92.2345 97.5875 92.2658 97.4263 92.3269 97.2759L92.5585 97.37L92.3269 97.2759C92.3881 97.1252 92.4783 96.9881 92.5922 96.8724C92.7061 96.7568 92.8415 96.6648 92.991 96.6019C93.1406 96.5391 93.301 96.5068 93.463 96.5068H111.402C111.729 96.5068 112.043 96.6385 112.274 96.8719L112.096 97.047L112.274 96.8719C112.504 97.1052 112.633 97.421 112.633 97.7498V102.821C112.633 103.15 112.504 103.466 112.274 103.699L112.096 103.523L112.274 103.699C112.043 103.932 111.729 104.064 111.402 104.064H107.67V104.717H111.004H111.004V104.967L92.485 97.7498M111.012 121.576L110.903 121.572L110.886 121.59H93.8886C93.8551 121.59 93.8224 121.576 93.7978 121.552C93.773 121.526 93.7587 121.492 93.7587 121.455V107.337C93.7587 107.301 93.773 107.266 93.7978 107.241L93.626 107.072L93.7978 107.241C93.8224 107.216 93.8551 107.203 93.8886 107.203H101.149C101.476 107.203 101.79 107.071 102.02 106.838C102.251 106.605 102.38 106.289 102.38 105.96C102.38 105.631 102.251 105.316 102.02 105.082C101.79 104.849 101.476 104.717 101.149 104.717H99.4147V104.064H105.218V104.717H105.035C104.708 104.717 104.394 104.849 104.164 105.082C103.933 105.316 103.804 105.631 103.804 105.96C103.804 106.289 103.933 106.605 104.164 106.838C104.394 107.071 104.708 107.203 105.035 107.203H111.015C111.048 107.203 111.081 107.216 111.106 107.241C111.13 107.266 111.145 107.301 111.145 107.337V110.29H100.206C99.8783 110.29 99.5649 110.422 99.3342 110.655C99.1036 110.889 98.9745 111.205 98.9745 111.533V118.47C98.9745 118.798 99.1036 119.114 99.3342 119.347L99.512 119.172L99.3342 119.347C99.5648 119.581 99.8783 119.713 100.206 119.713H111.145V121.458C111.141 121.491 111.125 121.521 111.102 121.542C111.077 121.565 111.045 121.577 111.012 121.576ZM111.134 117.22H101.434V112.766H111.134V117.22ZM94.7081 98.9926H110.17V101.578H94.7051L94.7081 98.9926Z" fill="url(#paint10_linear)" stroke="url(#paint11_linear)" stroke-width="0.5"/>
<mask id="path-7-outside-2" maskUnits="userSpaceOnUse" x="51.1377" y="59.1257" width="66" height="67" fill="black">
<rect fill="white" x="51.1377" y="59.1257" width="66" height="67"/>
<path d="M115.855 60.417C115.764 60.3247 115.656 60.2514 115.537 60.2014C115.418 60.1514 115.291 60.1257 115.162 60.1257C115.033 60.1257 114.906 60.1514 114.787 60.2014C114.668 60.2514 114.56 60.3247 114.469 60.417L97.8038 77.279L96.4602 75.9231C96.3693 75.8307 96.2614 75.7575 96.1425 75.7075C96.0235 75.6575 95.896 75.6317 95.7672 75.6317C95.6384 75.6317 95.511 75.6575 95.3921 75.7075C95.2732 75.7575 95.1652 75.8307 95.0744 75.9231L92.1725 78.8591L90.8183 77.4925C90.7275 77.4002 90.6195 77.3269 90.5006 77.2769C90.3817 77.227 90.2541 77.2013 90.1253 77.2013C89.9965 77.2013 89.8691 77.227 89.7502 77.2769C89.6313 77.3269 89.5233 77.4002 89.4325 77.4925L59.0459 108.234C58.8633 108.421 58.7609 108.673 58.7609 108.935C58.7609 109.198 58.8633 109.45 59.0459 109.636L61.5855 112.206L59.3378 114.48L55.8943 110.992C55.8032 110.9 55.6949 110.827 55.5757 110.777C55.4565 110.726 55.3286 110.701 55.1996 110.701C55.0705 110.701 54.9428 110.726 54.8236 110.777C54.7044 110.827 54.596 110.9 54.5049 110.992L52.4226 113.099C52.24 113.286 52.1377 113.538 52.1377 113.8C52.1377 114.063 52.24 114.315 52.4226 114.501L62.5105 124.708C62.6017 124.801 62.7099 124.874 62.8291 124.924C62.9483 124.974 63.0762 125 63.2052 125C63.3343 125 63.462 124.974 63.5812 124.924C63.7004 124.874 63.8088 124.801 63.8999 124.708L65.9822 122.601C66.1648 122.415 66.2671 122.163 66.2671 121.9C66.2671 121.638 66.1648 121.386 65.9822 121.199L62.5351 117.711L64.7827 115.437L67.3187 118.007C67.4099 118.099 67.5181 118.173 67.6373 118.223C67.7565 118.273 67.8844 118.298 68.0134 118.298C68.1425 118.298 68.2702 118.273 68.3894 118.223C68.5086 118.173 68.617 118.099 68.7082 118.007L99.0912 87.2652C99.1825 87.173 99.255 87.0635 99.3045 86.9428C99.3539 86.8222 99.3794 86.6929 99.3794 86.5624C99.3794 86.4318 99.3539 86.3025 99.3045 86.1819C99.255 86.0613 99.1825 85.9517 99.0912 85.8595L97.7406 84.4929L100.642 81.5568C100.734 81.4646 100.806 81.355 100.856 81.2344C100.905 81.1138 100.931 80.9845 100.931 80.8539C100.931 80.7233 100.905 80.594 100.856 80.4734C100.806 80.3528 100.734 80.2432 100.642 80.151L99.1896 78.6812L115.855 61.8192C115.946 61.7272 116.019 61.618 116.068 61.4977C116.117 61.3774 116.143 61.2484 116.143 61.1181C116.143 60.9878 116.117 60.8588 116.068 60.7385C116.019 60.6181 115.946 60.5089 115.855 60.417ZM63.2033 122.605L54.4944 113.8L55.1979 113.088L63.8999 121.893L63.2033 122.605ZM61.1492 116.309L60.7273 115.882L62.9713 113.608L63.3933 114.035L61.1492 116.309ZM93.7131 89.8988L91.3811 87.5392C91.1962 87.3584 90.9486 87.2582 90.6914 87.2602C90.4342 87.2623 90.188 87.3664 90.0059 87.5502C89.8239 87.7339 89.7204 87.9826 89.7178 88.2428C89.7151 88.503 89.8134 88.754 89.9917 88.9415L92.3273 91.301L89.3409 94.3261L88.4686 93.4435C88.3783 93.3484 88.2701 93.2725 88.1504 93.2202C88.0307 93.1679 87.9019 93.1403 87.7715 93.1389C87.6412 93.1376 87.5118 93.1625 87.3911 93.2123C87.2704 93.262 87.1607 93.3356 87.0684 93.4288C86.9761 93.5219 86.903 93.6327 86.8535 93.7548C86.804 93.8768 86.779 94.0076 86.78 94.1395C86.781 94.2714 86.8082 94.4019 86.8595 94.5231C86.9109 94.6444 86.9856 94.754 87.0794 94.8456L87.9517 95.7282L84.9654 98.7497L82.6334 96.3902C82.4465 96.2204 82.2025 96.1295 81.9514 96.1363C81.7003 96.1431 81.4612 96.2471 81.2836 96.4268C81.106 96.6065 81.0034 96.8483 80.9966 97.1024C80.9899 97.3564 81.0797 97.6033 81.2476 97.7924L83.5795 100.152L80.5934 103.173L79.7211 102.291C79.5357 102.111 79.2876 102.011 79.0305 102.014C78.7733 102.016 78.5275 102.121 78.3459 102.305C78.1643 102.489 78.0614 102.738 78.0594 102.999C78.0574 103.259 78.1563 103.51 78.3351 103.697L79.2074 104.579L76.2176 107.601L73.8856 105.238C73.6991 105.052 73.4471 104.948 73.1852 104.95C72.9234 104.952 72.6731 105.059 72.4893 105.248C72.3056 105.437 72.2035 105.692 72.2054 105.957C72.2074 106.222 72.3132 106.475 72.4998 106.661L74.8318 109.021L71.8456 112.042L70.9733 111.16C70.8843 111.059 70.7759 110.978 70.6549 110.922C70.5339 110.865 70.4028 110.834 70.2695 110.831C70.1363 110.827 70.0036 110.851 69.8798 110.901C69.756 110.951 69.6436 111.026 69.5494 111.121C69.4551 111.216 69.381 111.33 69.3316 111.455C69.2822 111.581 69.2586 111.715 69.2622 111.85C69.2658 111.984 69.2965 112.117 69.3524 112.24C69.4083 112.362 69.4883 112.472 69.5875 112.562L70.4598 113.444L67.9976 115.936L61.114 108.967L90.1112 79.6278L91.462 80.9945L95.6442 85.226L96.9983 86.5962L93.7131 89.8988ZM96.3511 83.0906L93.5584 80.2613L95.7672 78.0263L97.1109 79.3823L98.5636 80.8486L96.3511 83.0906Z"/>
</mask>
<path d="M115.855 60.417C115.764 60.3247 115.656 60.2514 115.537 60.2014C115.418 60.1514 115.291 60.1257 115.162 60.1257C115.033 60.1257 114.906 60.1514 114.787 60.2014C114.668 60.2514 114.56 60.3247 114.469 60.417L97.8038 77.279L96.4602 75.9231C96.3693 75.8307 96.2614 75.7575 96.1425 75.7075C96.0235 75.6575 95.896 75.6317 95.7672 75.6317C95.6384 75.6317 95.511 75.6575 95.3921 75.7075C95.2732 75.7575 95.1652 75.8307 95.0744 75.9231L92.1725 78.8591L90.8183 77.4925C90.7275 77.4002 90.6195 77.3269 90.5006 77.2769C90.3817 77.227 90.2541 77.2013 90.1253 77.2013C89.9965 77.2013 89.8691 77.227 89.7502 77.2769C89.6313 77.3269 89.5233 77.4002 89.4325 77.4925L59.0459 108.234C58.8633 108.421 58.7609 108.673 58.7609 108.935C58.7609 109.198 58.8633 109.45 59.0459 109.636L61.5855 112.206L59.3378 114.48L55.8943 110.992C55.8032 110.9 55.6949 110.827 55.5757 110.777C55.4565 110.726 55.3286 110.701 55.1996 110.701C55.0705 110.701 54.9428 110.726 54.8236 110.777C54.7044 110.827 54.596 110.9 54.5049 110.992L52.4226 113.099C52.24 113.286 52.1377 113.538 52.1377 113.8C52.1377 114.063 52.24 114.315 52.4226 114.501L62.5105 124.708C62.6017 124.801 62.7099 124.874 62.8291 124.924C62.9483 124.974 63.0762 125 63.2052 125C63.3343 125 63.462 124.974 63.5812 124.924C63.7004 124.874 63.8088 124.801 63.8999 124.708L65.9822 122.601C66.1648 122.415 66.2671 122.163 66.2671 121.9C66.2671 121.638 66.1648 121.386 65.9822 121.199L62.5351 117.711L64.7827 115.437L67.3187 118.007C67.4099 118.099 67.5181 118.173 67.6373 118.223C67.7565 118.273 67.8844 118.298 68.0134 118.298C68.1425 118.298 68.2702 118.273 68.3894 118.223C68.5086 118.173 68.617 118.099 68.7082 118.007L99.0912 87.2652C99.1825 87.173 99.255 87.0635 99.3045 86.9428C99.3539 86.8222 99.3794 86.6929 99.3794 86.5624C99.3794 86.4318 99.3539 86.3025 99.3045 86.1819C99.255 86.0613 99.1825 85.9517 99.0912 85.8595L97.7406 84.4929L100.642 81.5568C100.734 81.4646 100.806 81.355 100.856 81.2344C100.905 81.1138 100.931 80.9845 100.931 80.8539C100.931 80.7233 100.905 80.594 100.856 80.4734C100.806 80.3528 100.734 80.2432 100.642 80.151L99.1896 78.6812L115.855 61.8192C115.946 61.7272 116.019 61.618 116.068 61.4977C116.117 61.3774 116.143 61.2484 116.143 61.1181C116.143 60.9878 116.117 60.8588 116.068 60.7385C116.019 60.6181 115.946 60.5089 115.855 60.417ZM63.2033 122.605L54.4944 113.8L55.1979 113.088L63.8999 121.893L63.2033 122.605ZM61.1492 116.309L60.7273 115.882L62.9713 113.608L63.3933 114.035L61.1492 116.309ZM93.7131 89.8988L91.3811 87.5392C91.1962 87.3584 90.9486 87.2582 90.6914 87.2602C90.4342 87.2623 90.188 87.3664 90.0059 87.5502C89.8239 87.7339 89.7204 87.9826 89.7178 88.2428C89.7151 88.503 89.8134 88.754 89.9917 88.9415L92.3273 91.301L89.3409 94.3261L88.4686 93.4435C88.3783 93.3484 88.2701 93.2725 88.1504 93.2202C88.0307 93.1679 87.9019 93.1403 87.7715 93.1389C87.6412 93.1376 87.5118 93.1625 87.3911 93.2123C87.2704 93.262 87.1607 93.3356 87.0684 93.4288C86.9761 93.5219 86.903 93.6327 86.8535 93.7548C86.804 93.8768 86.779 94.0076 86.78 94.1395C86.781 94.2714 86.8082 94.4019 86.8595 94.5231C86.9109 94.6444 86.9856 94.754 87.0794 94.8456L87.9517 95.7282L84.9654 98.7497L82.6334 96.3902C82.4465 96.2204 82.2025 96.1295 81.9514 96.1363C81.7003 96.1431 81.4612 96.2471 81.2836 96.4268C81.106 96.6065 81.0034 96.8483 80.9966 97.1024C80.9899 97.3564 81.0797 97.6033 81.2476 97.7924L83.5795 100.152L80.5934 103.173L79.7211 102.291C79.5357 102.111 79.2876 102.011 79.0305 102.014C78.7733 102.016 78.5275 102.121 78.3459 102.305C78.1643 102.489 78.0614 102.738 78.0594 102.999C78.0574 103.259 78.1563 103.51 78.3351 103.697L79.2074 104.579L76.2176 107.601L73.8856 105.238C73.6991 105.052 73.4471 104.948 73.1852 104.95C72.9234 104.952 72.6731 105.059 72.4893 105.248C72.3056 105.437 72.2035 105.692 72.2054 105.957C72.2074 106.222 72.3132 106.475 72.4998 106.661L74.8318 109.021L71.8456 112.042L70.9733 111.16C70.8843 111.059 70.7759 110.978 70.6549 110.922C70.5339 110.865 70.4028 110.834 70.2695 110.831C70.1363 110.827 70.0036 110.851 69.8798 110.901C69.756 110.951 69.6436 111.026 69.5494 111.121C69.4551 111.216 69.381 111.33 69.3316 111.455C69.2822 111.581 69.2586 111.715 69.2622 111.85C69.2658 111.984 69.2965 112.117 69.3524 112.24C69.4083 112.362 69.4883 112.472 69.5875 112.562L70.4598 113.444L67.9976 115.936L61.114 108.967L90.1112 79.6278L91.462 80.9945L95.6442 85.226L96.9983 86.5962L93.7131 89.8988ZM96.3511 83.0906L93.5584 80.2613L95.7672 78.0263L97.1109 79.3823L98.5636 80.8486L96.3511 83.0906Z" fill="url(#paint12_linear)"/>
<path d="M115.855 60.417C115.764 60.3247 115.656 60.2514 115.537 60.2014C115.418 60.1514 115.291 60.1257 115.162 60.1257C115.033 60.1257 114.906 60.1514 114.787 60.2014C114.668 60.2514 114.56 60.3247 114.469 60.417L97.8038 77.279L96.4602 75.9231C96.3693 75.8307 96.2614 75.7575 96.1425 75.7075C96.0235 75.6575 95.896 75.6317 95.7672 75.6317C95.6384 75.6317 95.511 75.6575 95.3921 75.7075C95.2732 75.7575 95.1652 75.8307 95.0744 75.9231L92.1725 78.8591L90.8183 77.4925C90.7275 77.4002 90.6195 77.3269 90.5006 77.2769C90.3817 77.227 90.2541 77.2013 90.1253 77.2013C89.9965 77.2013 89.8691 77.227 89.7502 77.2769C89.6313 77.3269 89.5233 77.4002 89.4325 77.4925L59.0459 108.234C58.8633 108.421 58.7609 108.673 58.7609 108.935C58.7609 109.198 58.8633 109.45 59.0459 109.636L61.5855 112.206L59.3378 114.48L55.8943 110.992C55.8032 110.9 55.6949 110.827 55.5757 110.777C55.4565 110.726 55.3286 110.701 55.1996 110.701C55.0705 110.701 54.9428 110.726 54.8236 110.777C54.7044 110.827 54.596 110.9 54.5049 110.992L52.4226 113.099C52.24 113.286 52.1377 113.538 52.1377 113.8C52.1377 114.063 52.24 114.315 52.4226 114.501L62.5105 124.708C62.6017 124.801 62.7099 124.874 62.8291 124.924C62.9483 124.974 63.0762 125 63.2052 125C63.3343 125 63.462 124.974 63.5812 124.924C63.7004 124.874 63.8088 124.801 63.8999 124.708L65.9822 122.601C66.1648 122.415 66.2671 122.163 66.2671 121.9C66.2671 121.638 66.1648 121.386 65.9822 121.199L62.5351 117.711L64.7827 115.437L67.3187 118.007C67.4099 118.099 67.5181 118.173 67.6373 118.223C67.7565 118.273 67.8844 118.298 68.0134 118.298C68.1425 118.298 68.2702 118.273 68.3894 118.223C68.5086 118.173 68.617 118.099 68.7082 118.007L99.0912 87.2652C99.1825 87.173 99.255 87.0635 99.3045 86.9428C99.3539 86.8222 99.3794 86.6929 99.3794 86.5624C99.3794 86.4318 99.3539 86.3025 99.3045 86.1819C99.255 86.0613 99.1825 85.9517 99.0912 85.8595L97.7406 84.4929L100.642 81.5568C100.734 81.4646 100.806 81.355 100.856 81.2344C100.905 81.1138 100.931 80.9845 100.931 80.8539C100.931 80.7233 100.905 80.594 100.856 80.4734C100.806 80.3528 100.734 80.2432 100.642 80.151L99.1896 78.6812L115.855 61.8192C115.946 61.7272 116.019 61.618 116.068 61.4977C116.117 61.3774 116.143 61.2484 116.143 61.1181C116.143 60.9878 116.117 60.8588 116.068 60.7385C116.019 60.6181 115.946 60.5089 115.855 60.417ZM63.2033 122.605L54.4944 113.8L55.1979 113.088L63.8999 121.893L63.2033 122.605ZM61.1492 116.309L60.7273 115.882L62.9713 113.608L63.3933 114.035L61.1492 116.309ZM93.7131 89.8988L91.3811 87.5392C91.1962 87.3584 90.9486 87.2582 90.6914 87.2602C90.4342 87.2623 90.188 87.3664 90.0059 87.5502C89.8239 87.7339 89.7204 87.9826 89.7178 88.2428C89.7151 88.503 89.8134 88.754 89.9917 88.9415L92.3273 91.301L89.3409 94.3261L88.4686 93.4435C88.3783 93.3484 88.2701 93.2725 88.1504 93.2202C88.0307 93.1679 87.9019 93.1403 87.7715 93.1389C87.6412 93.1376 87.5118 93.1625 87.3911 93.2123C87.2704 93.262 87.1607 93.3356 87.0684 93.4288C86.9761 93.5219 86.903 93.6327 86.8535 93.7548C86.804 93.8768 86.779 94.0076 86.78 94.1395C86.781 94.2714 86.8082 94.4019 86.8595 94.5231C86.9109 94.6444 86.9856 94.754 87.0794 94.8456L87.9517 95.7282L84.9654 98.7497L82.6334 96.3902C82.4465 96.2204 82.2025 96.1295 81.9514 96.1363C81.7003 96.1431 81.4612 96.2471 81.2836 96.4268C81.106 96.6065 81.0034 96.8483 80.9966 97.1024C80.9899 97.3564 81.0797 97.6033 81.2476 97.7924L83.5795 100.152L80.5934 103.173L79.7211 102.291C79.5357 102.111 79.2876 102.011 79.0305 102.014C78.7733 102.016 78.5275 102.121 78.3459 102.305C78.1643 102.489 78.0614 102.738 78.0594 102.999C78.0574 103.259 78.1563 103.51 78.3351 103.697L79.2074 104.579L76.2176 107.601L73.8856 105.238C73.6991 105.052 73.4471 104.948 73.1852 104.95C72.9234 104.952 72.6731 105.059 72.4893 105.248C72.3056 105.437 72.2035 105.692 72.2054 105.957C72.2074 106.222 72.3132 106.475 72.4998 106.661L74.8318 109.021L71.8456 112.042L70.9733 111.16C70.8843 111.059 70.7759 110.978 70.6549 110.922C70.5339 110.865 70.4028 110.834 70.2695 110.831C70.1363 110.827 70.0036 110.851 69.8798 110.901C69.756 110.951 69.6436 111.026 69.5494 111.121C69.4551 111.216 69.381 111.33 69.3316 111.455C69.2822 111.581 69.2586 111.715 69.2622 111.85C69.2658 111.984 69.2965 112.117 69.3524 112.24C69.4083 112.362 69.4883 112.472 69.5875 112.562L70.4598 113.444L67.9976 115.936L61.114 108.967L90.1112 79.6278L91.462 80.9945L95.6442 85.226L96.9983 86.5962L93.7131 89.8988ZM96.3511 83.0906L93.5584 80.2613L95.7672 78.0263L97.1109 79.3823L98.5636 80.8486L96.3511 83.0906Z" stroke="url(#paint13_linear)" mask="url(#path-7-outside-2)"/>
<path d="M88.8549 83.4216L88.8552 83.4219L88.865 83.412L89.6896 82.5741C89.8277 82.4406 90.0114 82.3674 90.2012 82.3694C90.392 82.3714 90.5748 82.4491 90.7104 82.5866C90.8462 82.7243 90.9236 82.9109 90.9251 83.1065C90.9266 83.3014 90.8526 83.4886 90.7199 83.6283L89.8948 84.463L89.8946 84.4627L89.8857 84.4728C89.8192 84.5477 89.7384 84.608 89.6483 84.6501C89.5583 84.6921 89.4609 84.7152 89.362 84.7179C89.2632 84.7205 89.1648 84.7028 89.0728 84.6657C88.9807 84.6286 88.8968 84.5728 88.8265 84.5016C88.7561 84.4304 88.7007 84.3453 88.6636 84.2513C88.6266 84.1573 88.6089 84.0565 88.6116 83.9552C88.6142 83.8538 88.6372 83.7542 88.6791 83.6626C88.7209 83.5709 88.7809 83.4889 88.8549 83.4216Z" fill="url(#paint14_linear)" stroke="url(#paint15_linear)" stroke-width="0.5"/>
<path d="M67.102 105.432L67.1024 105.431L86.2831 86.0206H86.3122L86.3868 85.9365C86.4533 85.8616 86.5341 85.8013 86.6241 85.7592C86.7141 85.7171 86.8116 85.6941 86.9104 85.6914C87.0093 85.6887 87.1076 85.7065 87.1997 85.7436C87.2918 85.7807 87.3756 85.8365 87.446 85.9077C87.5163 85.9789 87.5718 86.064 87.6088 86.158C87.6458 86.252 87.6636 86.3528 87.6609 86.4541C87.6582 86.5554 87.6351 86.6549 87.5932 86.7467C87.5512 86.8386 87.4914 86.9205 87.4175 86.9877L87.4173 86.9875L87.4078 86.997L68.1537 106.482L68.1529 106.483C68.0843 106.553 68.0029 106.608 67.9134 106.645C67.8238 106.682 67.7277 106.701 67.631 106.7L67.631 106.699L67.6239 106.7C67.5275 106.701 67.4319 106.683 67.3426 106.646C67.2532 106.609 67.1719 106.554 67.104 106.484L67.104 106.484L67.102 106.482C67.034 106.413 66.9799 106.331 66.9429 106.241L66.7123 106.336L66.9429 106.241C66.9058 106.151 66.8867 106.054 66.8867 105.957C66.8867 105.859 66.9058 105.762 66.9429 105.672C66.9799 105.582 67.034 105.5 67.102 105.432Z" fill="url(#paint16_linear)" stroke="url(#paint17_linear)" stroke-width="0.5"/>
<defs>
<linearGradient id="paint0_linear" x1="2.21756" y1="0.589406" x2="76.804" y2="102.827" gradientUnits="userSpaceOnUse">
<stop stop-color="#963298"/>
<stop offset="1" stop-color="#4A154B"/>
</linearGradient>
<linearGradient id="paint1_linear" x1="1" y1="1" x2="76.8031" y2="102.397" gradientUnits="userSpaceOnUse">
<stop stop-color="#963298"/>
<stop offset="1" stop-color="#4A154B"/>
</linearGradient>
<linearGradient id="paint2_linear" x1="5.05856" y1="10.8544" x2="73.0706" y2="106.601" gradientUnits="userSpaceOnUse">
<stop stop-color="#963298"/>
<stop offset="1" stop-color="#4A154B"/>
</linearGradient>
<linearGradient id="paint3_linear" x1="7.08783" y1="13.7286" x2="66.1141" y2="109.61" gradientUnits="userSpaceOnUse">
<stop stop-color="#963298"/>
<stop offset="1" stop-color="#4A154B"/>
</linearGradient>
<linearGradient id="paint4_linear" x1="5.87025" y1="-0.231927" x2="79.665" y2="105.311" gradientUnits="userSpaceOnUse">
<stop stop-color="#963298"/>
<stop offset="1" stop-color="#4A154B"/>
</linearGradient>
<linearGradient id="paint5_linear" x1="10.3346" y1="4.28463" x2="71.4289" y2="104.253" gradientUnits="userSpaceOnUse">
<stop stop-color="#963298"/>
<stop offset="1" stop-color="#4A154B"/>
</linearGradient>
<linearGradient id="paint6_linear" x1="18.8576" y1="19.8874" x2="74.9535" y2="104.283" gradientUnits="userSpaceOnUse">
<stop stop-color="#963298"/>
<stop offset="1" stop-color="#4A154B"/>
</linearGradient>
<linearGradient id="paint7_linear" x1="7.89954" y1="8.80136" x2="77.5492" y2="105.348" gradientUnits="userSpaceOnUse">
<stop stop-color="#963298"/>
<stop offset="1" stop-color="#4A154B"/>
</linearGradient>
<linearGradient id="paint8_linear" x1="18.4517" y1="0.178904" x2="76.2803" y2="101.843" gradientUnits="userSpaceOnUse">
<stop stop-color="#963298"/>
<stop offset="1" stop-color="#4A154B"/>
</linearGradient>
<linearGradient id="paint9_linear" x1="20.0752" y1="-2.69527" x2="68.8955" y2="103.633" gradientUnits="userSpaceOnUse">
<stop stop-color="#963298"/>
<stop offset="1" stop-color="#4A154B"/>
</linearGradient>
<linearGradient id="paint10_linear" x1="80.5475" y1="79.0132" x2="116.784" y2="125.414" gradientUnits="userSpaceOnUse">
<stop stop-color="#963298"/>
<stop offset="1" stop-color="#4A154B"/>
</linearGradient>
<linearGradient id="paint11_linear" x1="89.0705" y1="91.7417" x2="116.239" y2="125.514" gradientUnits="userSpaceOnUse">
<stop stop-color="#963298"/>
<stop offset="1" stop-color="#4A154B"/>
</linearGradient>
<linearGradient id="paint12_linear" x1="52.1377" y1="60.1257" x2="112.948" y2="124.295" gradientUnits="userSpaceOnUse">
<stop stop-color="#963298"/>
<stop offset="1" stop-color="#4A154B"/>
</linearGradient>
<linearGradient id="paint13_linear" x1="55.3845" y1="58.0728" x2="110.931" y2="124.366" gradientUnits="userSpaceOnUse">
<stop stop-color="#963298"/>
<stop offset="1" stop-color="#4A154B"/>
</linearGradient>
<linearGradient id="paint14_linear" x1="83.3885" y1="73.2649" x2="97.0046" y2="94.4728" gradientUnits="userSpaceOnUse">
<stop stop-color="#963298"/>
<stop offset="1" stop-color="#4A154B"/>
</linearGradient>
<linearGradient id="paint15_linear" x1="87.447" y1="80.245" x2="89.5209" y2="88.0345" gradientUnits="userSpaceOnUse">
<stop stop-color="#963298"/>
<stop offset="1" stop-color="#4A154B"/>
</linearGradient>
<linearGradient id="paint16_linear" x1="59.0372" y1="73.265" x2="94.4721" y2="121.324" gradientUnits="userSpaceOnUse">
<stop stop-color="#963298"/>
<stop offset="1" stop-color="#4A154B"/>
</linearGradient>
<linearGradient id="paint17_linear" x1="59.4431" y1="79.0134" x2="91.1475" y2="119.305" gradientUnits="userSpaceOnUse">
<stop stop-color="#963298"/>
<stop offset="1" stop-color="#4A154B"/>
</linearGradient>
</defs>
</svg>
