<svg width="126" height="115" viewBox="0 0 126 115" fill="none" xmlns="http://www.w3.org/2000/svg">
<path d="M47.5892 63.0186C48.1038 63.0186 48.5974 62.8142 48.9613 62.4504C49.3252 62.0865 49.5296 61.5931 49.5296 61.0786V10.916H74.8789V18.6414H67.8651C67.3504 18.6414 66.8569 18.8458 66.4929 19.2097C66.129 19.5735 65.9246 20.067 65.9246 20.5816C65.9246 21.0961 66.129 21.5895 66.4929 21.9533C66.8569 22.3172 67.3504 22.5216 67.8651 22.5216H74.8789V30.0308H67.8651C67.3681 30.0581 66.9004 30.2746 66.5582 30.636C66.216 30.9974 66.0253 31.4762 66.0253 31.9738C66.0253 32.4715 66.216 32.9502 66.5582 33.3116C66.9004 33.673 67.3681 33.8896 67.8651 33.9168H74.8789V41.169H67.8651C67.3681 41.1963 66.9004 41.4128 66.5582 41.7742C66.216 42.1356 66.0253 42.6144 66.0253 43.112C66.0253 43.6096 66.216 44.0884 66.5582 44.4498C66.9004 44.8112 67.3681 45.0277 67.8651 45.055H74.8789V52.3013H67.8651C67.3681 52.3286 66.9004 52.5451 66.5582 52.9065C66.216 53.2679 66.0253 53.7467 66.0253 54.2443C66.0253 54.742 66.216 55.2207 66.5582 55.5821C66.9004 55.9435 67.3681 56.1601 67.8651 56.1873H74.8789V58.9631C74.8789 59.4776 75.0834 59.9712 75.4473 60.335C75.8112 60.6988 76.3048 60.9032 76.8195 60.9032C77.3341 60.9032 77.8277 60.6988 78.1916 60.335C78.5555 59.9712 78.7599 59.4776 78.7599 58.9631V8.95833C78.7599 8.44378 78.5555 7.95041 78.1916 7.58657C77.8277 7.22272 77.3341 7.01832 76.8195 7.01832H75.9135V1.94586C75.9135 1.43077 75.7092 0.936731 75.3455 0.57196C74.9817 0.207189 74.4882 0.00154682 73.973 0H50.4005C49.8853 0.00154682 49.3918 0.207189 49.0281 0.57196C48.6643 0.936731 48.4601 1.43077 48.4601 1.94586V7.01832H47.5892C47.3339 7.01755 47.0809 7.06711 46.8448 7.16427C46.6087 7.26142 46.394 7.40419 46.2132 7.58443C46.0324 7.76466 45.889 7.97883 45.7911 8.21459C45.6932 8.45036 45.6429 8.70306 45.6429 8.95833V61.061C45.6413 61.3176 45.6905 61.5718 45.7876 61.8092C45.8847 62.0466 46.0278 62.2626 46.2087 62.4445C46.3896 62.6264 46.6048 62.7708 46.8417 62.8694C47.0786 62.9679 47.3326 63.0186 47.5892 63.0186ZM52.3469 3.90357H72.0266V7.03572H52.3469V3.90357Z" fill="url(#paint0_linear)"/>
<path d="M61.9267 18.6414H60.8921C60.3774 18.6414 59.8838 18.8458 59.5199 19.2096C59.1559 19.5734 58.9515 20.0669 58.9515 20.5815C58.9515 21.096 59.1559 21.5893 59.5199 21.9532C59.8838 22.317 60.3774 22.5214 60.8921 22.5214H61.9267C62.4413 22.5214 62.9349 22.317 63.2988 21.9532C63.6627 21.5893 63.8672 21.096 63.8672 20.5815C63.8672 20.0669 63.6627 19.5734 63.2988 19.2096C62.9349 18.8458 62.4413 18.6414 61.9267 18.6414Z" fill="#4A154B"/>
<path d="M54.9595 18.6414H53.9191C53.4044 18.6414 52.9109 18.8458 52.547 19.2096C52.183 19.5734 51.9786 20.0669 51.9786 20.5815C51.9786 21.096 52.183 21.5893 52.547 21.9532C52.9109 22.317 53.4044 22.5214 53.9191 22.5214H54.9595C55.4742 22.5214 55.9677 22.317 56.3316 21.9532C56.6956 21.5893 56.9 21.096 56.9 20.5815C56.9 20.0669 56.6956 19.5734 56.3316 19.2096C55.9677 18.8458 55.4742 18.6414 54.9595 18.6414Z" fill="#4A154B"/>
<path d="M61.9268 30.0544H60.8922C60.628 30.0399 60.3637 30.0795 60.1153 30.1706C59.8669 30.2617 59.6397 30.4024 59.4476 30.5843C59.2554 30.7661 59.1024 30.9852 58.9978 31.2281C58.8932 31.4711 58.8392 31.7328 58.8392 31.9974C58.8392 32.2619 58.8932 32.5236 58.9978 32.7666C59.1024 33.0096 59.2554 33.2286 59.4476 33.4104C59.6397 33.5923 59.8669 33.733 60.1153 33.8241C60.3637 33.9152 60.628 33.9548 60.8922 33.9403H61.9268C62.4238 33.913 62.8914 33.6965 63.2336 33.3351C63.5758 32.9737 63.7665 32.495 63.7665 31.9974C63.7665 31.4997 63.5758 31.021 63.2336 30.6596C62.8914 30.2982 62.4238 30.0817 61.9268 30.0544Z" fill="#4A154B"/>
<path d="M54.9595 30.0542H53.9191C53.4221 30.0815 52.9544 30.298 52.6123 30.6594C52.2701 31.0208 52.0793 31.4996 52.0793 31.9972C52.0793 32.4949 52.2701 32.9737 52.6123 33.3351C52.9544 33.6965 53.4221 33.913 53.9191 33.9403H54.9595C55.4565 33.913 55.9242 33.6965 56.2663 33.3351C56.6085 32.9737 56.7993 32.4949 56.7993 31.9972C56.7993 31.4996 56.6085 31.0208 56.2663 30.6594C55.9242 30.298 55.4565 30.0815 54.9595 30.0542Z" fill="#4A154B"/>
<path d="M61.9268 41.1926H60.8922C60.628 41.1781 60.3637 41.2177 60.1153 41.3088C59.8669 41.3999 59.6397 41.5405 59.4476 41.7223C59.2554 41.9042 59.1024 42.1234 58.9978 42.3663C58.8932 42.6093 58.8392 42.8711 58.8392 43.1356C58.8392 43.4001 58.8932 43.6619 58.9978 43.9049C59.1024 44.1479 59.2554 44.3669 59.4476 44.5487C59.6397 44.7306 59.8669 44.8714 60.1153 44.9625C60.3637 45.0536 60.628 45.0931 60.8922 45.0786H61.9268C62.4238 45.0513 62.8914 44.8348 63.2336 44.4734C63.5758 44.112 63.7665 43.6333 63.7665 43.1356C63.7665 42.638 63.5758 42.1592 63.2336 41.7978C62.8914 41.4364 62.4238 41.2199 61.9268 41.1926Z" fill="#4A154B"/>
<path d="M54.9595 41.1921H53.9191C53.4221 41.2194 52.9544 41.4359 52.6123 41.7974C52.2701 42.1588 52.0793 42.6375 52.0793 43.1352C52.0793 43.6328 52.2701 44.1116 52.6123 44.473C52.9544 44.8344 53.4221 45.051 53.9191 45.0782H54.9595C55.4565 45.051 55.9242 44.8344 56.2663 44.473C56.6085 44.1116 56.7993 43.6328 56.7993 43.1352C56.7993 42.6375 56.6085 42.1588 56.2663 41.7974C55.9242 41.4359 55.4565 41.2194 54.9595 41.1921Z" fill="#4A154B"/>
<path d="M61.9268 52.3247H60.8922C60.628 52.3102 60.3637 52.3497 60.1153 52.4408C59.8669 52.5319 59.6397 52.6727 59.4476 52.8546C59.2554 53.0364 59.1024 53.2556 58.9978 53.4986C58.8932 53.7415 58.8392 54.0033 58.8392 54.2678C58.8392 54.5324 58.8932 54.794 58.9978 55.037C59.1024 55.2799 59.2554 55.4991 59.4476 55.681C59.6397 55.8628 59.8669 56.0036 60.1153 56.0947C60.3637 56.1858 60.628 56.2253 60.8922 56.2108H61.9268C62.4238 56.1836 62.8914 55.9669 63.2336 55.6055C63.5758 55.2441 63.7665 54.7655 63.7665 54.2678C63.7665 53.7702 63.5758 53.2914 63.2336 52.93C62.8914 52.5686 62.4238 52.352 61.9268 52.3247Z" fill="#4A154B"/>
<path d="M54.9595 52.3247H53.9191C53.4221 52.352 52.9544 52.5686 52.6123 52.93C52.2701 53.2914 52.0793 53.7702 52.0793 54.2678C52.0793 54.7655 52.2701 55.2441 52.6123 55.6055C52.9544 55.9669 53.4221 56.1835 53.9191 56.2108H54.9595C55.4565 56.1835 55.9242 55.9669 56.2663 55.6055C56.6085 55.2441 56.7993 54.7655 56.7993 54.2678C56.7993 53.7702 56.6085 53.2914 56.2663 52.93C55.9242 52.5686 55.4565 52.352 54.9595 52.3247Z" fill="#4A154B"/>
<path d="M22.8652 91.2028C22.0859 91.2043 21.3158 91.0348 20.6091 90.7061C20.3745 90.5992 20.121 90.5398 19.8633 90.5316C19.6056 90.5235 19.3489 90.5666 19.108 90.6585C18.8671 90.7504 18.6469 90.8892 18.4601 91.0669C18.2733 91.2446 18.1237 91.4577 18.0199 91.6937C17.7883 92.2323 17.4132 92.697 16.9356 93.0372C16.4579 93.3773 15.896 93.5797 15.3112 93.6225C14.7263 93.6653 14.141 93.5468 13.6189 93.2799C13.0968 93.0129 12.658 92.6077 12.3504 92.1086C12.1975 91.8636 11.992 91.6558 11.7488 91.5001C11.5056 91.3444 11.2308 91.2447 10.9443 91.2083C10.6578 91.172 10.3668 91.1998 10.0924 91.2898C9.81803 91.3798 9.56708 91.5298 9.35783 91.7288C8.98872 92.0843 8.53986 92.3462 8.04873 92.4926C7.5576 92.6391 7.0385 92.6658 6.53493 92.5705C6.03137 92.4752 5.55792 92.2607 5.15428 91.9449C4.75064 91.6292 4.42855 91.2214 4.21491 90.7556C4.00127 90.2899 3.90235 89.7796 3.92637 89.2678C3.9504 88.7559 4.0967 88.2574 4.35304 87.8137C4.60937 87.37 4.96827 86.994 5.39971 86.7174C5.83116 86.4409 6.3226 86.2717 6.83289 86.2239C7.11804 86.1953 7.39346 86.1047 7.63983 85.9583C7.8862 85.8119 8.09752 85.6134 8.25899 85.3766C8.42036 85.14 8.52716 84.8704 8.57164 84.5874C8.61611 84.3044 8.59719 84.0151 8.5162 83.7404C8.46334 83.562 8.43579 83.3771 8.43437 83.1911C8.43437 82.6766 8.63881 82.1831 9.00273 81.8192C9.36664 81.4554 9.86017 81.251 10.3748 81.251H10.5326C10.8045 81.2729 11.078 81.2381 11.3356 81.1485C11.5932 81.059 11.8293 80.9168 12.029 80.731C12.2242 80.5427 12.3773 80.3151 12.478 80.0633C12.5788 79.8114 12.625 79.541 12.6134 79.27C12.6192 79.1883 12.6192 79.1064 12.6134 79.0247C12.5461 78.5626 12.3148 78.14 11.9617 77.8342C11.6087 77.5285 11.1575 77.3599 10.6905 77.3591H10.369C8.88811 77.3554 7.46105 77.9138 6.37611 78.9215C5.29118 79.9292 4.62927 81.3111 4.52413 82.7879C3.42577 84.9281 3.12093 87.388 3.66367 89.7314C4.20641 92.0749 5.5617 94.1505 7.48915 95.5902C9.41659 97.0299 11.7917 97.7407 14.1933 97.5965C16.5949 97.4523 18.8679 96.4625 20.6091 94.8025C21.3354 94.9848 22.0814 95.077 22.8302 95.0772C23.3272 95.0499 23.7948 94.8332 24.137 94.4718C24.4792 94.1104 24.6699 93.6318 24.6699 93.1342C24.6699 92.6365 24.4792 92.1578 24.137 91.7964C23.7948 91.435 23.3272 91.2183 22.8302 91.1911L22.8652 91.2028Z" fill="url(#paint1_linear)"/>
<path d="M32.8952 91.635C32.379 91.635 31.884 91.84 31.519 92.205C31.154 92.5699 30.9489 93.0649 30.9489 93.581V112.661C30.9344 112.925 30.9739 113.189 31.065 113.438C31.1561 113.686 31.2969 113.913 31.4788 114.105C31.6607 114.297 31.8799 114.45 32.1229 114.555C32.3659 114.66 32.6277 114.713 32.8923 114.713C33.1569 114.713 33.4187 114.66 33.6617 114.555C33.9048 114.45 34.1239 114.297 34.3058 114.105C34.4877 113.913 34.6285 113.686 34.7196 113.438C34.8107 113.189 34.8502 112.925 34.8357 112.661V93.581C34.8357 93.0659 34.6314 92.5719 34.2677 92.2071C33.9039 91.8423 33.4104 91.6366 32.8952 91.635Z" fill="#4A154B"/>
<path d="M39.7629 101.406C39.2477 101.406 38.7535 101.61 38.3887 101.974C38.0239 102.338 37.8182 102.831 37.8166 103.346V112.661C37.8022 112.925 37.8416 113.19 37.9327 113.438C38.0238 113.686 38.1647 113.913 38.3465 114.105C38.5284 114.298 38.7476 114.451 38.9906 114.555C39.2336 114.66 39.4954 114.714 39.76 114.714C40.0245 114.714 40.2863 114.66 40.5294 114.555C40.7724 114.451 40.9915 114.298 41.1734 114.105C41.3553 113.913 41.4961 113.686 41.5872 113.438C41.6783 113.19 41.7178 112.925 41.7033 112.661V103.375C41.7072 103.118 41.6599 102.863 41.5641 102.624C41.4683 102.385 41.326 102.168 41.1454 101.985C40.9649 101.801 40.7496 101.656 40.5122 101.557C40.2749 101.457 40.0202 101.406 39.7629 101.406Z" fill="#4A154B"/>
<path d="M45.3447 72.5674C45.8392 72.7124 46.371 72.6554 46.8235 72.4089C47.276 72.1624 47.6124 71.7466 47.7587 71.2525C48.0299 70.331 48.107 69.3631 47.9851 68.4103C47.8633 67.4574 47.5452 66.5403 47.0509 65.7166C46.5566 64.8928 45.8967 64.1805 45.1131 63.6246C44.3295 63.0687 43.4392 62.6814 42.4983 62.487C42.0706 59.8156 40.7068 57.3834 38.6505 55.6249C36.5943 53.8664 33.9795 52.8962 31.2737 52.8878C28.5678 52.8793 25.9471 53.8331 23.88 55.5788C21.8128 57.3244 20.4339 59.7481 19.9896 62.4168C19.3962 62.7139 18.8309 63.0641 18.3004 63.4628C16.9971 62.0399 15.2942 61.0441 13.4149 60.6057C11.5356 60.1674 9.56764 60.3071 7.76915 61.0065C5.97065 61.7059 4.42552 62.9324 3.33639 64.5251C2.24726 66.1178 1.66494 68.0025 1.66583 69.9319C1.66583 70.4464 1.87028 70.9399 2.2342 71.3038C2.59811 71.6676 3.09172 71.872 3.60638 71.872C4.12103 71.872 4.61457 71.6676 4.97848 71.3038C5.3424 70.9399 5.54685 70.4464 5.54685 69.9319C5.54501 68.763 5.90354 67.6219 6.57363 66.664C7.24372 65.7062 8.19282 64.9781 9.29166 64.5789C10.3905 64.1797 11.5857 64.1288 12.7145 64.4331C13.8434 64.7374 14.8509 65.3821 15.6001 66.2795C14.3529 68.1097 13.6701 70.2653 13.6362 72.4796C13.6316 72.7351 13.6776 72.9891 13.7716 73.2267C13.8657 73.4642 14.0059 73.6808 14.1841 73.864C14.3624 74.0471 14.5752 74.1931 14.8102 74.2935C15.0452 74.394 15.2977 74.4468 15.5533 74.449C16.0639 74.4491 16.554 74.2479 16.9173 73.8891C17.2805 73.5303 17.4877 73.0428 17.4938 72.5323C17.5219 71.0365 17.9934 69.5827 18.8487 68.3551C19.7041 67.1275 20.9046 66.1814 22.2983 65.6367C23.5914 65.4836 24.8932 65.84 25.928 66.6302C26.2635 66.8871 26.6743 67.0267 27.0969 67.0275C27.5083 67.0326 27.9106 66.9069 28.2457 66.6684C28.5809 66.43 28.8316 66.0912 28.9617 65.701C29.0918 65.3108 29.0945 64.8895 28.9694 64.4977C28.8444 64.1059 28.598 63.764 28.2659 63.5213C27.0523 62.5818 25.6132 61.9773 24.0927 61.7682C24.6318 60.224 25.6601 58.8979 27.0215 57.991C28.3828 57.0841 30.0028 56.6461 31.6358 56.7432C33.2687 56.8404 34.8255 57.4674 36.0696 58.5293C37.3138 59.5912 38.1774 61.03 38.5296 62.6272C37.3953 63.0976 36.4267 63.8951 35.7474 64.9179C35.6095 65.1323 35.5152 65.3719 35.4699 65.6228C35.4247 65.8737 35.4293 66.1311 35.4836 66.3802C35.5379 66.6294 35.6407 66.8653 35.7863 67.0746C35.9318 67.284 36.1172 67.4626 36.3319 67.6002C36.641 67.8027 37.0027 67.9104 37.3723 67.9099C37.6997 67.9101 38.0218 67.8277 38.3089 67.6704C38.596 67.5131 38.8387 67.286 39.0147 67.01C39.0147 67.01 39.6342 66.1568 40.3181 66.1744C40.4782 66.2017 40.6409 66.2114 40.8032 66.2035C40.8889 66.1975 40.9748 66.1975 41.0604 66.2035C41.5355 66.2016 42.0045 66.3111 42.4297 66.5232C42.8549 66.7353 43.2244 67.0441 43.5086 67.4249C43.7927 67.8056 43.9836 68.2476 44.066 68.7155C44.1484 69.1833 44.1199 69.664 43.9828 70.1189C43.9057 70.369 43.8799 70.6321 43.9071 70.8924C43.9343 71.1528 44.014 71.4049 44.1412 71.6336C44.2685 71.8624 44.4407 72.0631 44.6475 72.2235C44.8543 72.384 45.0915 72.501 45.3447 72.5674Z" fill="url(#paint2_linear)"/>
<path d="M45.263 88.4681C45.5271 88.4825 45.7915 88.443 46.0399 88.3519C46.2883 88.2608 46.5155 88.12 46.7076 87.9382C46.8998 87.7563 47.0528 87.5373 47.1574 87.2943C47.262 87.0514 47.3159 86.7896 47.3159 86.5251C47.3159 86.2605 47.262 85.9988 47.1574 85.7558C47.0528 85.5128 46.8998 85.2937 46.7076 85.1118C46.5155 84.93 46.2883 84.7893 46.0399 84.6982C45.7915 84.6071 45.5271 84.5676 45.263 84.5821C44.0558 84.5819 42.8955 84.1149 42.0249 83.279C41.8165 83.0787 41.566 82.9275 41.2917 82.8364C41.0174 82.7453 40.7262 82.7165 40.4393 82.7524C40.1525 82.7882 39.8774 82.8878 39.634 83.0436C39.3905 83.1993 39.1849 83.4075 39.0323 83.6529C38.5854 84.3838 37.9463 84.9779 37.1846 85.3703C36.423 85.7627 35.5681 85.9384 34.7134 85.8781C33.8588 85.8178 33.0371 85.5238 32.3381 85.0283C31.6391 84.5329 31.0898 83.8549 30.75 83.0685C30.6464 82.832 30.4969 82.6183 30.3104 82.4398C30.1238 82.2613 29.9037 82.1215 29.6629 82.0283C29.4209 81.9353 29.1626 81.892 28.9035 81.9011C28.6444 81.9101 28.3898 81.9713 28.1549 82.081C27.1726 82.5341 26.1039 82.7693 25.022 82.7705C24.717 82.7698 24.4123 82.7482 24.1102 82.7061C23.8569 82.6755 23.6 82.6949 23.3543 82.7635C23.1085 82.8321 22.8787 82.9484 22.6779 83.1058C22.4771 83.2631 22.3092 83.4585 22.1839 83.6807C22.0586 83.9029 21.9783 84.1477 21.9476 84.4009C21.9169 84.6541 21.9364 84.9109 22.005 85.1566C22.0735 85.4023 22.1898 85.6322 22.3472 85.833C22.5046 86.0338 22.7 86.2015 22.9223 86.3268C23.1446 86.452 23.3894 86.5323 23.6427 86.563C24.1 86.6236 24.5607 86.6548 25.022 86.6565C26.064 86.657 27.1008 86.5115 28.1023 86.224C28.8222 87.2215 29.7485 88.0524 30.8182 88.6599C31.8879 89.2675 33.076 89.6377 34.3015 89.7452C35.5271 89.8528 36.7615 89.6952 37.9207 89.2833C39.08 88.8713 40.1368 88.2146 41.0196 87.3578C42.3123 88.0933 43.7756 88.4761 45.263 88.4681Z" fill="url(#paint3_linear)"/>
<path d="M19.4985 98.9751C19.2435 98.9743 18.9909 99.024 18.7551 99.1212C18.5193 99.2184 18.3051 99.3613 18.1247 99.5416C17.9444 99.722 17.8015 99.9361 17.7042 100.172C17.607 100.408 17.5573 100.66 17.5581 100.915V112.644C17.5581 113.158 17.7626 113.652 18.1265 114.015C18.4904 114.379 18.9839 114.584 19.4985 114.584C20.0131 114.584 20.5067 114.379 20.8706 114.015C21.2345 113.652 21.439 113.158 21.439 112.644V100.915C21.4397 100.66 21.3901 100.408 21.2928 100.172C21.1956 99.9361 21.0527 99.722 20.8723 99.5416C20.692 99.3613 20.4778 99.2184 20.242 99.1212C20.0062 99.024 19.7535 98.9743 19.4985 98.9751Z" fill="#4A154B"/>
<path d="M55.4506 99.5242C55.1953 99.5234 54.9423 99.5731 54.7062 99.6703C54.4701 99.7674 54.2555 99.9102 54.0747 100.09C53.8939 100.271 53.7504 100.485 53.6526 100.721C53.5547 100.956 53.5043 101.209 53.5043 101.464V112.643C53.5316 113.14 53.7482 113.608 54.1097 113.95C54.4711 114.292 54.9499 114.483 55.4476 114.483C55.9454 114.483 56.4242 114.292 56.7857 113.95C57.1471 113.608 57.3638 113.14 57.3911 112.643V101.464C57.3911 100.95 57.1866 100.456 56.8227 100.092C56.4588 99.7286 55.9652 99.5242 55.4506 99.5242Z" fill="#4A154B"/>
<path d="M91.0811 90.2795C90.5665 90.2795 90.0729 90.4839 89.709 90.8478C89.3451 91.2116 89.1406 91.705 89.1406 92.2195V112.673C89.1261 112.937 89.1657 113.201 89.2568 113.449C89.3479 113.698 89.4887 113.925 89.6706 114.117C89.8525 114.309 90.0716 114.462 90.3146 114.567C90.5577 114.671 90.8195 114.725 91.0841 114.725C91.3486 114.725 91.6104 114.671 91.8534 114.567C92.0964 114.462 92.3156 114.309 92.4974 114.117C92.6793 113.925 92.8201 113.698 92.9113 113.449C93.0024 113.201 93.0419 112.937 93.0274 112.673V92.2195C93.0259 91.7045 92.8201 91.211 92.4553 90.8474C92.0904 90.4837 91.5963 90.2795 91.0811 90.2795Z" fill="#4A154B"/>
<path d="M98.3987 93.3533C97.884 93.3533 97.3905 93.5577 97.0266 93.9215C96.6626 94.2854 96.4582 94.7787 96.4582 95.2933V112.661C96.4437 112.925 96.4832 113.189 96.5743 113.438C96.6655 113.686 96.8063 113.913 96.9882 114.105C97.1701 114.297 97.3892 114.45 97.6322 114.555C97.8753 114.66 98.137 114.713 98.4016 114.713C98.6662 114.713 98.928 114.66 99.1711 114.555C99.4141 114.45 99.6332 114.297 99.8151 114.105C99.997 113.913 100.138 113.686 100.229 113.438C100.32 113.189 100.36 112.925 100.345 112.661V95.2933C100.345 95.038 100.295 94.7853 100.197 94.5496C100.099 94.3138 99.9555 94.0996 99.7747 93.9194C99.5939 93.7392 99.3793 93.5964 99.1432 93.4992C98.907 93.4021 98.654 93.3525 98.3987 93.3533Z" fill="#4A154B"/>
<path d="M76.0012 99.729C75.7458 99.729 75.493 99.7794 75.2572 99.8772C75.0214 99.9751 74.8072 100.118 74.6269 100.299C74.4467 100.48 74.3039 100.695 74.2067 100.931C74.1095 101.167 74.0599 101.42 74.0607 101.675V112.644C74.0607 113.158 74.2652 113.652 74.6291 114.016C74.993 114.379 75.4865 114.584 76.0012 114.584C76.5158 114.584 77.0094 114.379 77.3733 114.016C77.7372 113.652 77.9416 113.158 77.9416 112.644V101.675C77.9424 101.42 77.8928 101.167 77.7957 100.931C77.6985 100.695 77.5557 100.48 77.3754 100.299C77.1951 100.118 76.9809 99.9751 76.7451 99.8772C76.5093 99.7794 76.2565 99.729 76.0012 99.729Z" fill="#4A154B"/>
<path d="M117.798 93.4409C117.543 93.4409 117.29 93.4913 117.054 93.5892C116.818 93.687 116.604 93.8304 116.424 94.0112C116.243 94.1919 116.101 94.4066 116.004 94.6426C115.906 94.8787 115.857 95.1317 115.857 95.3869V112.655C115.857 113.17 116.062 113.663 116.426 114.027C116.79 114.391 117.283 114.595 117.798 114.595C118.313 114.595 118.806 114.391 119.17 114.027C119.534 113.663 119.739 113.17 119.739 112.655V95.3869C119.739 94.8718 119.534 94.3777 119.171 94.0129C118.807 93.6481 118.313 93.4425 117.798 93.4409Z" fill="#4A154B"/>
<path d="M108.312 92.2722C107.796 92.2722 107.302 92.4764 106.937 92.84C106.573 93.2037 106.367 93.6973 106.365 94.2124V112.644C106.393 113.14 106.609 113.608 106.971 113.95C107.332 114.292 107.811 114.483 108.309 114.483C108.806 114.483 109.285 114.292 109.647 113.95C110.008 113.608 110.225 113.14 110.252 112.644V94.2124C110.252 93.9576 110.202 93.7053 110.104 93.4699C110.007 93.2345 109.864 93.0206 109.684 92.8405C109.503 92.6603 109.29 92.5174 109.054 92.4199C108.819 92.3224 108.566 92.2722 108.312 92.2722Z" fill="#4A154B"/>
<path d="M7.13683 98.2271C6.62218 98.2271 6.12857 98.4315 5.76465 98.7953C5.40074 99.1592 5.19629 99.6527 5.19629 100.167V112.644C5.19629 113.158 5.40074 113.652 5.76465 114.015C6.12857 114.379 6.62218 114.584 7.13683 114.584C7.65148 114.584 8.14502 114.379 8.50894 114.015C8.87285 113.652 9.0773 113.158 9.0773 112.644V100.167C9.0773 99.6527 8.87285 99.1592 8.50894 98.7953C8.14502 98.4315 7.65148 98.2271 7.13683 98.2271Z" fill="url(#paint4_linear)"/>
<path d="M118.312 69.4816C118.312 69.3881 118.312 69.2946 118.312 69.2011C118.309 67.2133 117.603 65.2906 116.32 63.7723C115.037 62.254 113.258 61.2378 111.298 60.9031C111.254 60.8887 111.209 60.877 111.164 60.868C110.705 57.524 109.07 54.4527 106.553 52.2037C104.036 49.9546 100.8 48.6748 97.4247 48.5933C94.0498 48.5117 90.756 49.6339 88.1329 51.7587C85.5099 53.8835 83.7288 56.8723 83.1086 60.1901C80.8053 60.5253 78.6671 61.5808 77.0006 63.2055C75.9062 64.2504 75.0322 65.5039 74.4299 66.8919C73.8276 68.2799 73.5093 69.7745 73.4937 71.2874C73.4898 71.5427 73.5364 71.7962 73.6308 72.0334C73.7251 72.2706 73.8653 72.4869 74.0434 72.6698C74.2215 72.8528 74.434 72.9989 74.6687 73.0996C74.9033 73.2003 75.1555 73.2536 75.4108 73.2566C75.922 73.2567 76.4127 73.0557 76.7769 72.6971C77.1411 72.3385 77.3495 71.8509 77.3572 71.3399C77.3692 70.3393 77.5824 69.3513 77.984 68.4347C78.3857 67.5181 78.9675 66.6918 79.6951 66.0046C80.3659 65.3407 81.1632 64.8181 82.0396 64.4678C82.9161 64.1175 83.854 63.9465 84.7977 63.9652C86.8789 64.0378 88.8761 64.8029 90.4731 66.139C90.8233 66.4428 91.272 66.609 91.7356 66.6065C92.1325 66.6076 92.5201 66.4868 92.8462 66.2607C93.1724 66.0346 93.4213 65.7141 93.5596 65.3422C93.6978 64.9703 93.7186 64.5649 93.6193 64.1807C93.5199 63.7966 93.3051 63.4521 93.0039 63.1938C91.2907 61.7392 89.2313 60.751 87.0246 60.3245C87.5774 57.9927 88.9251 55.9261 90.8362 54.4797C92.7473 53.0333 95.1025 52.2973 97.4972 52.3983C99.892 52.4992 102.177 53.4307 103.959 55.0328C105.742 56.6349 106.911 58.8076 107.265 61.1777C106.401 61.459 105.601 61.9085 104.91 62.5002C104.22 63.0919 103.654 63.8141 103.244 64.6254C103.105 65.0557 103.121 65.5208 103.289 65.9406C103.457 66.3603 103.766 66.7083 104.163 66.9244C104.56 67.1406 105.02 67.2113 105.464 67.1244C105.908 67.0376 106.307 66.7986 106.593 66.4488C106.681 66.3417 106.757 66.2262 106.821 66.1039C107.11 65.7098 107.477 65.3797 107.9 65.1343C108.322 64.889 108.791 64.7336 109.276 64.6781C109.346 64.6781 109.422 64.6781 109.492 64.6781C109.562 64.6781 109.755 64.6781 109.872 64.6781C111.076 64.6796 112.23 65.1584 113.082 66.0096C113.933 66.8608 114.412 68.0149 114.414 69.2187C114.415 69.6522 114.352 70.0834 114.227 70.4984C114.146 70.7735 114.127 71.063 114.172 71.3462C114.216 71.6293 114.323 71.8991 114.483 72.1364C114.644 72.3737 114.856 72.5726 115.102 72.7188C115.349 72.8649 115.625 72.9548 115.91 72.982C116.966 73.0864 117.981 73.4417 118.872 74.0181C119.763 74.5945 120.503 75.3753 121.03 76.2956C121.558 77.216 121.858 78.2491 121.905 79.3088C121.953 80.3686 121.746 81.4242 121.303 82.3879C120.859 83.3516 120.192 84.1953 119.356 84.8488C118.52 85.5023 117.54 85.9466 116.498 86.1447C115.456 86.3428 114.381 86.2889 113.364 85.9876C112.346 85.6863 111.416 85.1462 110.65 84.4124C110.44 84.2134 110.189 84.0634 109.915 83.9734C109.641 83.8834 109.35 83.8556 109.063 83.8919C108.777 83.9283 108.502 84.028 108.259 84.1837C108.015 84.3394 107.81 84.5472 107.657 84.7922C107.018 85.827 106.108 86.667 105.025 87.2207C103.942 87.7744 102.728 88.0206 101.515 87.9326C100.302 87.8446 99.1367 87.4259 98.1451 86.7218C97.1535 86.0177 96.374 85.0551 95.8913 83.939C95.7902 83.7009 95.6417 83.486 95.4548 83.3071C95.2679 83.1283 95.0465 82.9893 94.8042 82.8988C94.5633 82.8063 94.3063 82.7629 94.0484 82.771C93.7905 82.779 93.5367 82.8383 93.302 82.9456C92.306 83.4068 91.2423 83.7048 90.1516 83.828C90.4322 82.5386 90.4203 81.2028 90.1166 79.9186L86.3875 81.0054C86.6031 82.311 86.3984 83.6513 85.8031 84.8331C85.3293 85.5987 84.7037 86.2591 83.9648 86.7737C83.226 87.2883 82.3895 87.6461 81.5071 87.825C81.4978 86.0497 80.9348 84.3214 79.8965 82.8811C78.8583 81.4408 77.3964 80.3602 75.7148 79.7899C75.6872 78.209 75.1215 76.6847 74.111 75.4683C73.1005 74.2519 71.7056 73.4162 70.1563 73.0989C69.8147 70.9656 68.8739 68.9733 67.4435 67.354C66.0131 65.7347 64.152 64.555 62.0769 63.9525C60.0017 63.3499 57.7981 63.3492 55.7226 63.9505C53.6471 64.5517 51.7853 65.7303 50.3538 67.3487C50.0128 67.7362 49.8397 68.2432 49.8726 68.7583C49.9055 69.2734 50.1417 69.7543 50.5292 70.0952C50.9168 70.4362 51.4239 70.6092 51.9391 70.5763C52.4542 70.5434 52.9352 70.3074 53.2763 69.9199C54.2862 68.781 55.6181 67.9752 57.0958 67.6091C58.5735 67.243 60.1275 67.3338 61.5525 67.8695C62.9775 68.4051 64.2064 69.3606 65.0768 70.6094C65.9472 71.8582 66.418 73.3416 66.4273 74.8637C66.4247 74.8831 66.4247 74.9028 66.4273 74.9222C66.4271 75.1908 66.4828 75.4565 66.5907 75.7026C66.6987 75.9486 66.8565 76.1696 67.0543 76.3514C67.2522 76.5333 67.4856 76.672 67.7399 76.7589C67.9941 76.8458 68.2636 76.8791 68.5314 76.8565H68.7886C69.5993 76.8565 70.3768 77.1784 70.9501 77.7516C71.5234 78.3247 71.8455 79.1022 71.8455 79.9127C71.8457 80.2039 71.8023 80.4934 71.7169 80.7718C71.6364 81.0468 71.6176 81.3363 71.662 81.6195C71.7064 81.9027 71.8129 82.1725 71.9737 82.4097C72.1345 82.647 72.3458 82.8458 72.5924 82.992C72.839 83.1381 73.1148 83.2281 73.4002 83.2553C74.1398 83.3308 74.8506 83.5813 75.4739 83.9864C76.0972 84.3914 76.615 84.9393 76.9841 85.5844C77.3533 86.2295 77.5634 86.9533 77.5968 87.6958C77.6303 88.4383 77.4862 89.178 77.1765 89.8536C76.8668 90.5293 76.4004 91.1215 75.8161 91.5809C75.2318 92.0404 74.5463 92.3538 73.8166 92.4955C73.0868 92.6371 72.3338 92.6027 71.6199 92.3952C70.9061 92.1876 70.2521 91.813 69.7121 91.3022C69.5028 91.1032 69.2519 90.9532 68.9775 90.8632C68.7031 90.7732 68.4121 90.7453 68.1256 90.7817C67.8391 90.8181 67.5643 90.9178 67.3211 91.0735C67.0779 91.2292 66.8724 91.437 66.7195 91.682C66.2726 92.4129 65.6335 93.007 64.8719 93.3994C64.1102 93.7918 63.2554 93.9675 62.4007 93.9072C61.546 93.8469 60.7243 93.5529 60.0254 93.0574C59.3264 92.562 58.777 91.884 58.4373 91.0976C58.3347 90.8606 58.1859 90.6465 57.9994 90.4677C57.813 90.2889 57.5927 90.1492 57.3516 90.0567C57.1104 89.9641 56.8532 89.9207 56.595 89.9288C56.3368 89.937 56.0829 89.9966 55.848 90.1042C54.8668 90.5612 53.7977 90.7985 52.7152 90.7995C52.4083 90.7959 52.1019 90.7745 51.7975 90.7353C51.4271 90.6907 51.0517 90.7534 50.7159 90.9161C50.3802 91.0788 50.0983 91.3344 49.9038 91.6527C49.4608 92.3961 48.8202 93.0021 48.0531 93.403C47.2861 93.8039 46.4228 93.9842 45.5594 93.9236C44.696 93.863 43.8664 93.5639 43.1629 93.0599C42.4594 92.5558 41.9096 91.8663 41.5748 91.0683C41.3749 90.5941 40.9947 90.2187 40.5179 90.0247C40.041 89.8307 39.5067 89.8341 39.0323 90.034C38.558 90.2339 38.1825 90.6142 37.9885 91.0909C37.7945 91.5676 37.7978 92.1018 37.9978 92.5761C38.5719 93.9337 39.4865 95.1204 40.6532 96.0215C41.8199 96.9227 43.1993 97.5079 44.6582 97.7206C46.1171 97.9332 47.6062 97.7661 48.9817 97.2355C50.3572 96.7049 51.5727 95.8287 52.5106 94.6914H52.7152C53.7568 94.6931 54.7935 94.5496 55.7955 94.2648C56.9182 95.8106 58.5249 96.9375 60.3608 97.4668C62.1968 97.9961 64.1569 97.8975 65.9305 97.1867V112.719C65.916 112.984 65.9555 113.248 66.0466 113.496C66.1377 113.745 66.2786 113.972 66.4604 114.164C66.6423 114.356 66.8615 114.509 67.1045 114.613C67.3475 114.718 67.6093 114.772 67.8739 114.772C68.1384 114.772 68.4003 114.718 68.6433 114.613C68.8863 114.509 69.1055 114.356 69.2873 114.164C69.4692 113.972 69.61 113.745 69.7012 113.496C69.7923 113.248 69.8318 112.984 69.8173 112.719V96.3569C69.8159 96.2032 69.7962 96.0502 69.7588 95.9011C70.7744 96.3126 71.8602 96.523 72.956 96.5206C74.5256 96.518 76.0642 96.0844 77.4042 95.2672C78.7441 94.45 79.8338 93.2807 80.5544 91.8865C82.0936 91.8393 83.6031 91.4516 84.9745 90.7513C86.346 90.0511 87.5452 89.0557 88.4858 87.8367C88.667 87.8367 88.8424 87.8367 89.0177 87.8367C90.4532 87.8383 91.8804 87.6196 93.2494 87.1882C94.1248 88.5093 95.2875 89.6156 96.6505 90.4245C98.0136 91.2333 99.5419 91.7237 101.121 91.8591C102.7 91.9946 104.29 91.7714 105.771 91.2064C107.252 90.6415 108.586 89.7493 109.674 88.5964C111.349 89.654 113.291 90.2134 115.273 90.2093C117.834 90.2595 120.326 89.3737 122.281 87.7177C124.235 86.0618 125.518 83.7498 125.889 81.2153C126.26 78.6809 125.693 76.0982 124.295 73.9519C122.897 71.8056 120.763 70.243 118.295 69.5575L118.312 69.4816ZM106.868 66.0456C106.957 65.8612 107.016 65.664 107.043 65.4612C107.022 65.6707 106.962 65.8745 106.868 66.063V66.0456Z" fill="url(#paint5_linear)"/>
<path d="M1.94055 49.4262C2.4552 49.4262 2.94874 49.2218 3.31266 48.858C3.67657 48.4941 3.88102 48.0007 3.88102 47.4862C3.88102 45.5168 6.1196 43.8571 8.76734 43.8571C10.208 43.8217 11.606 44.3477 12.6659 45.3239C12.9195 45.5759 13.2379 45.753 13.5858 45.8355C13.9337 45.918 14.2977 45.9028 14.6375 45.7916C14.9773 45.6803 15.2798 45.4773 15.5115 45.205C15.7432 44.9328 15.8953 44.6019 15.9507 44.2487C16.2079 42.8853 16.9188 41.649 17.9679 40.7408C19.017 39.8325 20.3425 39.3057 21.7289 39.2461C23.1153 39.1866 24.4812 39.5976 25.6043 40.4125C26.7275 41.2274 27.5419 42.3981 27.9152 43.7344C27.994 44.0377 28.1448 44.3174 28.3549 44.5499C28.565 44.7824 28.8281 44.9608 29.1219 45.0698C29.4157 45.1788 29.7315 45.2153 30.0425 45.1761C30.3534 45.1369 30.6502 45.0233 30.9078 44.8448C31.8892 44.1878 33.0467 43.8434 34.2277 43.8571C36.8754 43.8571 39.1082 45.5168 39.1082 47.4862C39.1354 47.9831 39.3521 48.4506 39.7136 48.7928C40.075 49.1349 40.5538 49.3255 41.0516 49.3255C41.5493 49.3255 42.0282 49.1349 42.3896 48.7928C42.7511 48.4506 42.9678 47.9831 42.995 47.4862C42.995 43.343 39.0614 39.9769 34.2277 39.9769C33.0667 39.9742 31.9138 40.1719 30.8201 40.5613C29.9338 38.9531 28.6254 37.6172 27.0357 36.6978C25.446 35.7784 23.6354 35.3103 21.7992 35.344C19.963 35.3777 18.1707 35.9117 16.6158 36.8888C15.0609 37.8659 13.8024 39.2489 12.9757 40.8886C11.6569 40.2788 10.2203 39.9656 8.76734 39.9711C3.93362 39.9711 8.7999e-06 43.3371 8.7999e-06 47.4803C-0.000760245 47.7356 0.0488846 47.9884 0.14606 48.2245C0.243235 48.4606 0.386035 48.6752 0.566304 48.856C0.746572 49.0367 0.960784 49.1801 1.1966 49.278C1.43241 49.3758 1.68523 49.4262 1.94055 49.4262Z" fill="url(#paint6_linear)"/>
<path d="M83.0151 49.426C83.5303 49.426 84.0245 49.2219 84.3894 48.8582C84.7542 48.4945 84.9599 48.0011 84.9615 47.486C84.9615 45.5167 87.1943 43.8569 89.842 43.8569C91.2826 43.8215 92.6806 44.3475 93.7405 45.3237C93.9941 45.5757 94.3125 45.7528 94.6604 45.8353C95.0083 45.9178 95.3722 45.9026 95.7121 45.7914C96.0519 45.6802 96.3544 45.4771 96.5862 45.2049C96.8179 44.9326 96.9698 44.6017 97.0253 44.2486C97.2801 42.8825 97.9903 41.643 99.0401 40.7322C100.09 39.8215 101.417 39.2931 102.806 39.2335C104.195 39.1738 105.563 39.5863 106.687 40.4036C107.811 41.221 108.625 42.395 108.996 43.7342C109.073 44.0383 109.223 44.319 109.433 44.5523C109.643 44.7856 109.907 44.9646 110.201 45.0738C110.495 45.1829 110.811 45.2191 111.123 45.1792C111.434 45.1393 111.731 45.0245 111.988 44.8446C112.97 44.1876 114.127 43.8432 115.308 43.8569C117.95 43.8569 120.189 45.5167 120.189 47.486C120.189 48.0006 120.393 48.4939 120.757 48.8578C121.121 49.2216 121.614 49.426 122.129 49.426C122.644 49.426 123.137 49.2216 123.501 48.8578C123.865 48.4939 124.07 48.0006 124.07 47.486C124.07 43.3428 120.142 39.9768 115.302 39.9768C114.139 39.9741 112.985 40.1718 111.889 40.5612C111.004 38.9527 109.696 37.6166 108.106 36.697C106.517 35.7773 104.707 35.3091 102.871 35.3428C101.035 35.3764 99.243 35.9107 97.6885 36.888C96.134 37.8653 94.876 39.2486 94.0503 40.8884C92.729 40.2798 91.2909 39.9667 89.8361 39.9709C85.0024 39.9709 81.0688 43.337 81.0688 47.4802C81.0681 47.7359 81.1178 47.9893 81.2154 48.2257C81.3129 48.4622 81.4562 48.6769 81.6371 48.8578C81.818 49.0386 82.0329 49.182 82.2694 49.2795C82.5059 49.377 82.7593 49.4268 83.0151 49.426Z" fill="url(#paint7_linear)"/>
<defs>
<linearGradient id="paint0_linear" x1="0.573865" y1="-3.86267e-07" x2="125.101" y2="118.789" gradientUnits="userSpaceOnUse">
<stop stop-color="#963298"/>
<stop offset="1" stop-color="#4A154B"/>
</linearGradient>
<linearGradient id="paint1_linear" x1="-6.5994" y1="28.9799" x2="130.266" y2="120.798" gradientUnits="userSpaceOnUse">
<stop stop-color="#963298"/>
<stop offset="1" stop-color="#4A154B"/>
</linearGradient>
<linearGradient id="paint2_linear" x1="-7.17327" y1="5.73857" x2="127.684" y2="121.371" gradientUnits="userSpaceOnUse">
<stop stop-color="#963298"/>
<stop offset="1" stop-color="#4A154B"/>
</linearGradient>
<linearGradient id="paint3_linear" x1="-2.58238" y1="4.30398" x2="119.076" y2="116.781" gradientUnits="userSpaceOnUse">
<stop stop-color="#963298"/>
<stop offset="1" stop-color="#4A154B"/>
</linearGradient>
<linearGradient id="paint4_linear" x1="5.16475" y1="8.89487" x2="118.502" y2="119.65" gradientUnits="userSpaceOnUse">
<stop stop-color="#963298"/>
<stop offset="1" stop-color="#4A154B"/>
</linearGradient>
<linearGradient id="paint5_linear" x1="6.59937" y1="2.29545" x2="126.249" y2="118.215" gradientUnits="userSpaceOnUse">
<stop stop-color="#963298"/>
<stop offset="1" stop-color="#4A154B"/>
</linearGradient>
<linearGradient id="paint6_linear" x1="-4.46085e-06" y1="6.31262" x2="124.241" y2="120.224" gradientUnits="userSpaceOnUse">
<stop stop-color="#963298"/>
<stop offset="1" stop-color="#4A154B"/>
</linearGradient>
<linearGradient id="paint7_linear" x1="34.4316" y1="9.75553" x2="123.954" y2="105.016" gradientUnits="userSpaceOnUse">
<stop stop-color="#963298"/>
<stop offset="1" stop-color="#4A154B"/>
</linearGradient>
</defs>
</svg>
